<svg width="100" height="80" viewBox="0 0 100 80" fill="none" xmlns="http://www.w3.org/2000/svg">
<path d="M54.9767 68.5946C54.9767 68.5946 54.3433 67.3831 54.2387 65.9073L45.1191 63.9395C45.5004 65.9503 46.0354 67.9489 46.6811 69.886C47.4436 72.1612 48.2861 74.6026 49.971 76.3798C52.4862 79.0425 57.3996 78.7104 59.0845 75.236C59.7486 73.8585 59.7855 72.1305 59.023 70.7838C57.3873 67.912 54.5462 68.1149 52.48 70.0889" fill="white"/>
<path d="M54.9767 68.5946C54.9767 68.5946 54.3433 67.3831 54.2387 65.9073L45.1191 63.9395C45.5004 65.9503 46.0354 67.9489 46.6811 69.886C47.4436 72.1612 48.2861 74.6026 49.971 76.3798C52.4862 79.0425 57.3996 78.7104 59.0845 75.236C59.7486 73.8585 59.7855 72.1305 59.023 70.7838C57.3873 67.912 54.5462 68.1149 52.48 70.0889" stroke="#1E1E1E" stroke-linecap="round" stroke-linejoin="round"/>
<path d="M42.2036 70.5807C44.2699 68.6068 47.1047 68.3977 48.7466 71.2756C49.5153 72.6223 49.4784 74.3503 48.8081 75.7278C47.1232 79.2022 42.2098 79.5343 39.6947 76.8716C38.0097 75.0944 37.1673 72.6531 36.4047 70.3778C35.7529 68.4346 35.224 66.4422 34.8428 64.4313L42.0807 63.595L44.399 65.6489L45.4013 67.9672L45.346 68.9142" fill="white"/>
<path d="M42.2036 70.5807C44.2699 68.6068 47.1047 68.3977 48.7466 71.2756C49.5153 72.6223 49.4784 74.3503 48.8081 75.7278C47.1232 79.2022 42.2098 79.5343 39.6947 76.8716C38.0097 75.0944 37.1673 72.6531 36.4047 70.3778C35.7529 68.4346 35.224 66.4422 34.8428 64.4313L42.0807 63.595L44.399 65.6489L45.4013 67.9672L45.346 68.9142" stroke="#1E1E1E" stroke-linecap="round" stroke-linejoin="round"/>
<path d="M30.643 55.0351C30.1265 55.2934 29.6038 55.6378 29.1733 56.0805C28.8043 56.4679 28.7059 57.046 28.9396 57.5318C29.1856 58.036 29.6222 58.7063 30.3232 59.2352C31.1411 59.8501 32.3157 59.309 32.3772 58.2882L32.5001 56.2588C32.5616 55.2688 31.5224 54.5924 30.6369 55.0351H30.643Z" fill="white" stroke="#1E1E1E" stroke-linecap="round" stroke-linejoin="round"/>
<path d="M38.8094 48.0556C38.5203 48.3384 34.228 45.5774 33.9021 45.3683C32.3279 44.3844 30.8705 43.2898 29.4253 42.146C28.0171 41.0329 27.0148 39.4894 25.4282 38.567C22.7962 37.0419 20.4226 38.155 19.3157 40.707C17.8583 44.0769 21.5172 49.3654 28.8473 50.0541C27.4575 49.9926 25.4713 50.1525 24.0876 50.2817C23.1099 50.3739 21.9722 50.7367 21.1544 51.2779C19.986 52.0589 20.8592 52.9751 21.8554 53.2887C24.8317 54.2296 28.0848 53.6024 31.0365 52.889C32.1372 52.6246 33.1949 52.231 34.2219 51.7637C34.5109 51.6345 37.2659 50.3924 37.2228 50.2017C37.1798 50.0049 37.3458 50.6322 37.2966 50.4293C37.3274 50.5768 36.9276 49.8205 37.0691 49.7467L38.8094 48.0494V48.0556Z" fill="#B8E1F4" stroke="#1E1E1E" stroke-linecap="round" stroke-linejoin="round"/>
<path d="M40.3466 49.7343L40.6787 49.187L40.9677 49.0886C41.0108 49.0025 41.0477 48.9164 41.0907 48.8303L38.8154 49.6359C39.3135 49.6174 39.8239 49.6482 40.3528 49.7343H40.3466Z" fill="#4C4C4C"/>
<path d="M35.5934 62.519C31.3072 54.6169 38.4528 49.7589 38.4528 49.7589L38.8157 49.6298C38.0224 49.6544 37.2721 49.8081 36.565 50.0602C35.495 50.9027 32.0205 54.0758 32.9306 59.3643C33.6132 63.3307 36.2759 66.2824 40.0086 68.1088C41.3123 68.4716 42.6775 68.7299 44.0488 68.8713C40.4022 67.8198 37.2537 65.5691 35.5995 62.519H35.5934Z" fill="#F6CB6D"/>
<path d="M47.2775 63.5091C52.2401 64.8496 59.1028 63.4168 60.7878 57.8946L60.8739 57.993C60.9231 57.6179 60.9661 57.2367 60.9969 56.8554C61.1629 54.4694 60.9661 51.9789 60.3696 49.6606L59.6563 48.4307L45.3896 48.4983H42.7269L40.9682 49.0825C38.0533 55.0844 40.716 61.7257 47.2836 63.5091H47.2775Z" fill="#F6CB6D"/>
<path d="M48.1009 68.9759C50.3638 68.8406 52.6145 68.4901 54.6684 67.4755C58.4257 65.6245 60.3382 61.9717 60.8732 57.993L60.7871 57.8947C59.1022 63.4107 52.2333 64.8497 47.2768 63.5091C40.7092 61.7319 38.0465 55.0844 40.9614 49.0825L40.6723 49.1809L40.3403 49.7282C39.8176 49.6421 39.3072 49.6114 38.8029 49.6298L38.4401 49.759C38.4401 49.759 31.3006 54.617 35.5806 62.519C37.2348 65.5691 40.3833 67.826 44.0299 68.8714C45.4074 69.0128 46.7849 69.0497 48.0886 68.9759H48.1009Z" fill="#4C4C4C"/>
<path d="M32.9244 59.3705C32.0142 54.082 35.4887 50.9027 36.5587 50.0664C32.8875 51.3762 30.483 55.4533 31.0734 59.5304C31.6022 63.2016 34.4433 65.9627 37.764 67.3463C38.4773 67.6415 39.2275 67.8936 40.0024 68.1088C36.2758 66.2825 33.6131 63.3369 32.9244 59.3643V59.3705Z" fill="#4C4C4C"/>
<path d="M60.3691 49.6606C60.9655 51.9851 61.1623 54.4694 60.9963 56.8554C60.695 61.2584 58.7825 65.4462 54.6685 67.4755C52.6146 68.4901 50.3639 68.8407 48.1009 68.976C44.731 69.1727 40.8877 68.6439 37.7637 67.3464C34.443 65.9627 31.602 63.2016 31.0732 59.5304C30.2983 54.1681 34.6952 48.8058 40.3465 49.7344" stroke="#1E1E1E" stroke-linecap="round" stroke-linejoin="round"/>
<path d="M56.7228 49.7895C76.5178 48.6826 71.2047 35.5967 71.2047 35.5967C72.6375 30.7325 72.3301 24.8844 70.0486 20.3215C67.2076 14.6394 61.4271 10.7837 55.3392 9.35089C48.4211 7.72129 40.6544 8.82204 34.7324 12.8315C31.9222 14.7316 29.5177 17.2775 27.9927 20.3215C23.3622 29.5641 24.9303 41.9798 34.2405 47.7356C36.0853 48.8733 38.1454 49.7281 40.3469 49.7281" fill="#F6CB6D"/>
<path d="M56.7231 49.7895C76.5181 48.6826 71.205 35.5967 71.205 35.5967C72.6378 30.7325 72.3303 24.8844 70.0489 20.3215C67.2078 14.6394 61.4274 10.7837 55.3394 9.35089C48.4213 7.72129 40.6546 8.82204 34.7327 12.8315C31.9224 14.7316 29.518 17.2775 27.9929 20.3215C24.0573 28.1804 24.5431 38.6529 30.9323 45.1037C33.675 47.8771 37.1494 49.3714 40.999 49.7772" stroke="#1E1E1E" stroke-linecap="round" stroke-linejoin="round"/>
<path d="M37.0326 13.0099L34.5605 6.38696" stroke="#1E1E1E" stroke-linecap="round" stroke-linejoin="round"/>
<path d="M33.6811 6.71283C35.1958 6.71283 36.4238 5.48491 36.4238 3.97019C36.4238 2.45546 35.1958 1.22754 33.6811 1.22754C32.1664 1.22754 30.9385 2.45546 30.9385 3.97019C30.9385 5.48491 32.1664 6.71283 33.6811 6.71283Z" fill="#F6CB6D" stroke="#1E1E1E" stroke-linecap="round" stroke-linejoin="round"/>
<path d="M61.3721 11.4295L63.469 6.14709" stroke="#1E1E1E" stroke-linecap="round" stroke-linejoin="round"/>
<path d="M64.3979 6.48529C65.9126 6.48529 67.1406 5.25737 67.1406 3.74265C67.1406 2.22792 65.9126 1 64.3979 1C62.8832 1 61.6553 2.22792 61.6553 3.74265C61.6553 5.25737 62.8832 6.48529 64.3979 6.48529Z" fill="#F6CB6D" stroke="#1E1E1E" stroke-linecap="round" stroke-linejoin="round"/>
<path d="M34.8983 26.2189C35.6669 24.0359 36.8169 21.9943 38.2743 20.2601C41.349 16.5951 45.7028 15.1315 50.3887 14.7994C55.1668 14.4612 60.154 15.728 63.364 18.5936C65.3318 20.3524 66.6601 22.7383 67.3672 25.2658C68.0314 27.6394 68.0744 30.3882 67.5333 33.3953C67.5148 33.5122 68.1851 34.2255 68.2651 34.3485C68.7816 35.1479 69.1506 36.0519 69.3228 36.9927C69.8393 39.803 68.4741 42.5457 66.1374 44.1076C65.0489 44.8333 63.8682 45.4174 62.6383 45.8664C61.0579 46.4444 59.4099 46.8134 57.7434 47.0348C54.2505 47.4898 50.4686 47.705 46.9757 47.1208C43.2369 46.4936 39.3381 44.8456 36.9337 41.7893C33.5392 37.4724 33.1703 31.1139 34.8983 26.2312V26.2189Z" fill="white" stroke="#1E1E1E" stroke-linecap="round" stroke-linejoin="round"/>
<path d="M64.7419 42.6625C66.637 42.6625 68.1733 40.8206 68.1733 38.5485C68.1733 36.2765 66.637 34.4346 64.7419 34.4346C62.8468 34.4346 61.3105 36.2765 61.3105 38.5485C61.3105 40.8206 62.8468 42.6625 64.7419 42.6625Z" fill="#F5CED3"/>
<path d="M41.6073 42.6625C43.9608 42.6625 45.8688 40.8206 45.8688 38.5485C45.8688 36.2765 43.9608 34.4346 41.6073 34.4346C39.2537 34.4346 37.3457 36.2765 37.3457 38.5485C37.3457 40.8206 39.2537 42.6625 41.6073 42.6625Z" fill="#F5CED3"/>
<path d="M56.4648 15.113C55.7268 13.1575 53.6606 12.4995 51.8465 12.6287C50.5244 12.7209 49.1715 13.1698 48.1261 14.0553C47.1361 14.8978 46.4904 16.2937 46.3182 17.6158C46.0661 19.5406 46.7856 21.6806 48.2184 22.9044C49.3437 23.8698 50.838 24.3433 52.2401 24.534C53.6729 24.7246 55.8314 24.62 56.7353 23.1934C56.9383 22.8736 57.0613 22.48 57.0305 22.0926C56.9567 21.1579 56.1696 20.9796 55.4563 20.8074C54.8844 20.6721 54.2571 20.5491 53.8267 20.0818C53.0764 19.2762 53.3532 17.9602 53.839 17.0747C54.1341 16.5335 54.5584 16.0785 55.0627 15.7587C55.4009 15.5435 56.0712 14.9716 56.4771 15.113H56.4648Z" fill="#4FB35B" stroke="#1E1E1E" stroke-linecap="round" stroke-linejoin="round"/>
<path d="M56.5684 36.0088C56.8267 37.5831 56.9127 39.4156 56.0641 40.8423C55.4061 41.943 54.2685 42.8839 52.9648 42.6625C49.6011 42.0906 50.5665 38.032 51.7534 36.058L54.1947 35.4L56.5684 36.0088Z" fill="#FDE5EA"/>
<path d="M57.8167 35.2648C57.8167 35.2648 56.9988 36.7345 54.5944 35.5107C54.5944 35.5107 54.2623 35.3632 53.9487 35.5107C51.5443 36.7406 50.1914 35.2648 50.1914 35.2648" stroke="#1E1E1E" stroke-linecap="round" stroke-linejoin="round"/>
<path d="M51.7534 36.0581C50.5665 38.0321 49.6011 42.0907 52.9648 42.6626C54.2685 42.884 55.4061 41.9493 56.0641 40.8424C56.9189 39.4157 56.8267 37.5832 56.5684 36.0089" stroke="#1E1E1E" stroke-linecap="round" stroke-linejoin="round"/>
<path d="M49.1707 34.3546C49.2322 33.2662 48.8325 31.612 47.4673 31.6796C46.1575 31.7411 45.684 33.2662 45.6348 34.3608" stroke="#1E1E1E" stroke-linecap="round" stroke-linejoin="round"/>
<path d="M61.9676 34.2808C62.0291 33.1924 61.6293 31.5382 60.2642 31.5997C58.9543 31.6612 58.4808 33.1862 58.4316 34.2808" stroke="#1E1E1E" stroke-linecap="round" stroke-linejoin="round"/>
<path d="M53.4266 44.9685C52.5719 51.8928 57.2024 57.8208 64.1697 58.1529C72.5329 58.7617 76.653 54.3341 77.0036 47.2376C76.7637 46.4628 76.5608 45.6757 76.2349 44.9316C70.5467 43.4127 64.7354 41.8815 58.8627 42.2812C56.4337 42.4472 55.1977 43.4926 53.4266 44.9623V44.9685Z" fill="#93786A" stroke="#1E1E1E" stroke-linecap="round" stroke-linejoin="round"/>
<path d="M58.9795 56.4802C58.9795 56.4802 64.68 55.4287 70.3744 57.3042" stroke="#1E1E1E" stroke-linecap="round" stroke-linejoin="round"/>
<path d="M68.1543 52.1941C68.634 52.2617 69.1259 52.3417 69.624 52.4278" stroke="#1E1E1E" stroke-linecap="round" stroke-linejoin="round"/>
<path d="M54.7793 52.354C54.7793 52.354 59.7419 51.2471 66.7338 52.0158" stroke="#1E1E1E" stroke-linecap="round" stroke-linejoin="round"/>
<path d="M53.5068 47.7541C53.5068 47.7541 60.7509 46.2291 68.905 47.6926" stroke="#1E1E1E" stroke-linecap="round" stroke-linejoin="round"/>
<path d="M53.0021 44.5994C53.1067 44.8761 53.4326 44.993 53.6909 44.8577C54.3919 44.5072 55.8678 43.7754 56.0092 43.7323C57.0608 43.4187 58.1615 43.2834 59.2561 43.3142C60.4368 43.3449 61.7651 43.4679 62.6998 44.2673C63.1917 44.6917 63.5484 45.2513 63.9543 45.7555C64.5692 46.5242 65.424 47.053 66.3956 47.2437C68.3388 47.6249 71.3828 46.229 71.5673 49.1746C71.5673 49.1746 71.9362 51.4191 71.0261 54.088C70.5342 55.5208 70.7064 57.9068 72.3544 58.5279C73.7626 59.0567 75.2508 58.0113 75.5275 56.6277C75.7919 55.2564 75.3123 53.7805 74.9187 52.483C74.9187 52.4645 74.9064 52.4522 74.9003 52.4338C74.7711 52.1386 73.4244 48.9594 75.3369 48.1476C76.4069 47.6926 77.8335 47.2683 78.0426 45.94C78.1164 45.4542 78.0426 44.9499 77.9381 44.4703C77.5814 42.8468 76.825 41.6046 75.2077 41.0204C73.5228 40.4178 71.7518 40.1103 70.0238 39.6553C68.2958 39.2002 66.6846 38.5668 64.9197 38.3393C62.6998 38.0564 60.4307 38.1856 58.2538 38.7021C56.5135 39.1203 53.8815 39.8213 53.0698 41.6354C52.707 42.4533 52.6762 43.72 53.0021 44.5871V44.5994Z" fill="#F8DA5D"/>
<path d="M53.0021 44.5994C53.1067 44.8761 53.4326 44.993 53.6909 44.8577C54.3919 44.5072 55.8678 43.7754 56.0092 43.7323C57.0608 43.4187 58.1615 43.2834 59.2561 43.3142C60.4368 43.3449 61.7651 43.4679 62.6998 44.2673C63.1917 44.6917 63.5484 45.2513 63.9543 45.7555C64.5692 46.5242 65.424 47.053 66.3956 47.2437C68.3388 47.6249 71.3828 46.229 71.5673 49.1746C71.5673 49.1746 71.9362 51.4191 71.0261 54.088C70.5342 55.5208 70.7064 57.9068 72.3544 58.5279C73.7626 59.0567 75.2508 58.0113 75.5275 56.6277C75.7919 55.2564 75.3123 53.7805 74.9187 52.483C74.9187 52.4645 74.9064 52.4522 74.9003 52.4338C74.7711 52.1386 73.4244 48.9594 75.3369 48.1476C76.4069 47.6926 77.8335 47.2683 78.0426 45.94C78.1164 45.4542 78.0426 44.9499 77.9381 44.4703C77.5814 42.8468 76.825 41.6046 75.2077 41.0204C73.5228 40.4178 71.7518 40.1103 70.0238 39.6553C68.2958 39.2002 66.6846 38.5668 64.9197 38.3393C62.6998 38.0564 60.4307 38.1856 58.2538 38.7021C56.5135 39.1203 53.8815 39.8213 53.0698 41.6354C52.707 42.4533 52.6762 43.72 53.0021 44.5871V44.5994Z" stroke="#E6A438" stroke-linecap="round" stroke-linejoin="round"/>
<path d="M65.7802 40.6392C65.0976 39.7845 63.5356 39.6799 62.5456 39.5938C61.371 39.4954 60.2027 39.6246 59.0712 39.932C58.5546 40.0735 58.7698 40.8483 59.2925 40.7376C60.3195 40.5162 61.4079 40.4793 62.4718 40.5716C63.0068 40.6208 63.5418 40.6946 64.0768 40.793C64.5503 40.8791 65.1283 41.1189 65.6142 41.0574C65.8294 41.0328 65.9216 40.8176 65.7863 40.6454L65.7802 40.6392Z" fill="white"/>
<path d="M68.8181 41.7215C68.4799 41.4817 67.8403 41.2849 67.6927 41.205C67.5267 41.1127 67.2869 41.1619 67.1946 41.3341C67.0962 41.5186 67.1577 41.7154 67.3238 41.8322C67.4775 41.9367 67.6374 42.029 67.8096 42.1089C68.0617 42.2258 68.32 42.318 68.6028 42.2996C68.6951 42.2996 68.7873 42.275 68.8611 42.2258C69.1378 42.0536 69.0456 41.8752 68.8181 41.7154V41.7215Z" fill="white"/>
<path d="M75.9151 44.1628C75.8228 43.7385 75.6137 43.3388 75.2817 43.0313C74.8082 42.5947 73.8796 42.4594 73.5352 43.1297C73.4061 43.3757 73.4553 43.6585 73.5906 43.8922C73.7013 44.0828 73.978 44.212 74.0456 44.4272C74.0641 44.4887 74.0825 44.5502 74.0948 44.6117C74.0948 44.624 74.101 44.7039 74.101 44.7285C74.101 44.8085 74.101 44.8884 74.0887 44.9622C74.0887 44.9745 74.0825 45.0299 74.0825 45.036C74.0825 45.0668 74.0764 45.0913 74.0702 45.1221C74.0518 45.2143 74.0333 45.3004 74.021 45.3927C73.9841 45.571 73.9411 45.7493 73.9657 45.9277C74.0026 46.1982 74.1748 46.4319 74.4392 46.518C74.8389 46.6472 75.2017 46.4319 75.4477 46.1245C75.8966 45.5772 76.0627 44.8331 75.9212 44.1566L75.9151 44.1628Z" fill="white"/>
<path d="M74.2977 54.826C74.2977 54.826 74.2977 54.8014 74.2915 54.7891C74.2915 54.7829 74.2915 54.7768 74.2854 54.7645C74.2669 54.7214 74.2485 54.6722 74.23 54.6292C74.1808 54.5308 74.0947 54.4508 74.0025 54.3955C73.9717 54.377 73.9103 54.3524 73.8734 54.3402C73.8426 54.3279 73.8242 54.3279 73.7873 54.3279C73.7627 54.3279 73.7319 54.3156 73.7073 54.3156C73.6827 54.3156 73.6581 54.3156 73.6335 54.3279C73.6089 54.3279 73.5843 54.334 73.5597 54.3402C73.5351 54.3463 73.5105 54.3586 73.4859 54.3709C73.4121 54.4016 73.3752 54.4139 73.3076 54.4816C73.3076 54.4816 73.3076 54.4816 73.3015 54.4877C73.2707 54.5246 73.2461 54.5554 73.2215 54.5984C73.2031 54.6415 73.1846 54.6784 73.1723 54.7214C73.1723 54.7337 73.1723 54.746 73.1723 54.7583C73.1477 54.8014 73.1293 54.8506 73.1108 54.8998C73.0862 54.9612 73.0862 55.035 73.0801 55.1027C73.0801 55.1334 73.0801 55.158 73.0801 55.1888C73.0862 55.2564 73.0924 55.3302 73.1108 55.3917C73.16 55.5577 73.2646 55.7115 73.4183 55.7976C73.4429 55.8099 73.4736 55.8222 73.4921 55.8283C73.5105 55.8345 73.5413 55.8529 73.5659 55.8591C73.6151 55.8714 73.6766 55.8837 73.7258 55.8837C73.7811 55.8837 73.8365 55.8775 73.8857 55.8652C73.8857 55.8652 73.898 55.8652 73.9041 55.8652C73.9287 55.8591 73.9471 55.8468 73.9717 55.8345C73.9963 55.8283 74.0148 55.816 74.0394 55.8037C74.064 55.7914 74.0824 55.773 74.1009 55.7545C74.1255 55.7361 74.1439 55.7238 74.1624 55.7053C74.1993 55.6684 74.23 55.6254 74.2546 55.5823C74.2854 55.5208 74.3161 55.4532 74.3284 55.3794C74.3469 55.2749 74.3653 55.1642 74.353 55.0535C74.3469 54.9797 74.3407 54.9059 74.3223 54.8321L74.2977 54.826Z" fill="white"/>
<path d="M50.8624 55.9267C50.8624 55.9267 39.8426 58.5648 39.6458 52.1756C39.6028 50.8657 40.6605 49.6728 41.8596 49.2546C43.44 48.695 45.3525 48.818 47.0128 48.5659C47.9045 48.4306 48.7962 48.2707 49.6694 48.0677" fill="white"/>
<path d="M49.4854 48.2584C50.4693 47.1638 51.939 46.5242 53.5194 46.6595C56.1944 46.8932 58.1806 49.2607 57.947 51.948C57.7133 54.6353 55.3581 56.6278 52.6769 56.4002C51.5516 56.3018 50.5431 55.8283 49.7805 55.1089" fill="white"/>
<path d="M50.8624 55.9267C50.8624 55.9267 39.8426 58.5648 39.6458 52.1756C39.6028 50.8657 40.6605 49.6728 41.8596 49.2546C43.44 48.695 45.3525 48.818 47.0128 48.5659C47.9045 48.4306 48.7962 48.2707 49.6694 48.0677" stroke="#1E1E1E" stroke-linecap="round" stroke-linejoin="round"/>
<path d="M49.4854 48.2584C50.4693 47.1638 51.939 46.5242 53.5194 46.6595C56.1944 46.8932 58.1806 49.2607 57.947 51.948C57.7133 54.6353 55.3581 56.6278 52.6769 56.4002C51.5516 56.3018 50.5431 55.8283 49.7805 55.1089" stroke="#1E1E1E" stroke-linecap="round" stroke-linejoin="round"/>
</svg>
