<svg width="160" height="160" viewBox="0 0 160 160" fill="none" xmlns="http://www.w3.org/2000/svg">
<path d="M20.9028 145.681C24.8128 147.581 30.16 146.001 34.5 145.681C38.43 145.391 41.5928 146.391 45.5228 146.101C47.1728 145.981 48.8728 145.841 50.3628 145.101C51.8528 144.361 53.0728 142.851 52.9728 141.201C52.8828 139.681 51.6928 138.411 50.3028 137.781C48.9128 137.151 47.3528 137.071 45.8328 137.031C39.8528 136.881 33.7428 137.291 27.7728 137.621C25.3028 137.761 21.8228 137.821 19.6928 139.211C16.6628 141.201 18.0728 144.301 20.9028 145.681Z" fill="#CECECE"/>
<path d="M93.4627 137.461C96.7445 137.505 99.8701 138.825 103.126 139.285C111.048 140.411 119.236 136.4 126.97 138.435C129.598 139.124 132.404 141.196 131.977 143.816C131.583 146.278 128.686 147.437 126.183 147.891C118.265 149.337 110.124 148.208 102.084 147.75C98.4507 147.545 90.7785 149.081 87.7929 146.57C82.8507 142.426 88.9124 137.392 93.4627 137.461Z" fill="#CECECE"/>
<path d="M35.2482 104.76C31.9506 100.777 28.3318 97.6615 24.3703 95.4346C19.2098 92.5224 14.2633 91.6552 9.54172 92.8115C7.73231 93.2504 6.21198 94.0748 4.99143 95.2847C3.68523 96.4945 2.85012 97.9827 2.48609 99.7493C1.95077 102.105 2.14348 104.417 3.07496 106.666C3.98501 108.936 5.46252 110.702 7.48606 111.976C8.58884 112.672 9.8308 113.197 11.2119 113.561C12.2184 113.786 13.5032 113.957 15.0556 114.107C13.4496 115.948 12.6038 118.1 12.5074 120.574C12.4004 123.229 13.2783 125.445 15.152 127.212C17.4967 129.46 20.4517 129.985 24.0277 128.796C27.1326 127.768 29.5523 125.991 31.2975 123.443C33.1176 120.734 34.4238 117.233 35.2161 112.94C35.2161 112.94 35.2268 112.929 35.2375 112.918V104.771L35.2482 104.76Z" fill="#B8E1F4"/>
<path d="M35.2482 104.771C31.9506 100.777 28.3318 97.6615 24.3703 95.4346C19.2098 92.5224 14.2633 91.6552 9.54172 92.8115C7.73231 93.2504 6.21198 94.0748 4.99143 95.2847C3.68523 96.4945 2.85012 97.9827 2.48609 99.7493C1.95077 102.105 2.14348 104.417 3.07496 106.666C3.98501 108.936 5.46252 110.702 7.48606 111.976C8.58884 112.672 9.8308 113.197 11.2119 113.561C12.2184 113.786 13.5032 113.957 15.0556 114.107C13.4496 115.948 12.6038 118.1 12.5074 120.574C12.4004 123.229 13.2783 125.445 15.152 127.212C17.4967 129.46 20.4517 129.985 24.0277 128.796C27.1326 127.768 29.5523 125.991 31.2975 123.443C33.1176 120.734 34.4238 117.233 35.2161 112.94C35.2161 112.94 35.2268 112.94 35.2375 112.929" stroke="#1E1E1E" stroke-width="1.32" stroke-linecap="round" stroke-linejoin="round"/>
<path d="M35.6636 104.974L35.6208 105.016H35.4281L35.4067 104.974C35.3532 104.909 35.2996 104.834 35.2461 104.76V112.907C35.3317 112.854 35.4388 112.822 35.5566 112.789L35.835 112.929C36.6701 117.275 37.987 120.777 39.7964 123.432C41.5094 125.948 43.9291 127.736 47.0447 128.785C50.5886 129.984 53.5436 129.449 55.9205 127.2C57.7727 125.434 58.6614 123.228 58.565 120.562C58.4365 118.111 57.58 115.948 55.9954 114.096C57.5372 113.967 58.8113 113.785 59.8177 113.55C61.2309 113.207 62.4943 112.672 63.5971 111.965C65.5992 110.691 67.0553 108.924 67.9868 106.655C68.8968 104.406 69.1003 102.104 68.5756 99.7381C68.2116 97.9716 67.3872 96.4833 66.1024 95.2735C64.8391 94.0958 63.308 93.2714 61.4986 92.8003C56.8091 91.6333 51.8948 92.5112 46.7449 95.4234C42.73 97.6932 39.0469 100.873 35.6744 104.963L35.6636 104.974Z" fill="#B8E1F4"/>
<path d="M35.2461 112.918C35.3317 112.864 35.4388 112.822 35.5566 112.789L35.835 112.929C36.6701 117.276 37.987 120.777 39.7964 123.432C41.5094 125.948 43.9291 127.736 47.0447 128.785C50.5886 129.984 53.5436 129.449 55.9205 127.2C57.7727 125.434 58.6614 123.228 58.565 120.562C58.4365 118.111 57.58 115.948 55.9954 114.096C57.5372 113.967 58.8113 113.785 59.8177 113.55C61.2309 113.207 62.4943 112.672 63.5971 111.965C65.5992 110.691 67.0553 108.924 67.9868 106.655C68.8968 104.406 69.1003 102.104 68.5756 99.7381C68.2116 97.9716 67.3872 96.4833 66.1024 95.2735C64.8391 94.0958 63.308 93.2714 61.4986 92.8003C56.8091 91.6333 51.8948 92.5112 46.7449 95.4234C42.73 97.6932 39.0469 100.873 35.6744 104.963L35.6315 105.006H35.4388L35.4174 104.963C35.3639 104.899 35.3103 104.824 35.2568 104.76" stroke="#1E1E1E" stroke-width="1.32" stroke-linecap="round" stroke-linejoin="round"/>
<path d="M46.9255 124.139V131.569C48.2959 132.169 49.1632 133.068 49.5272 134.257C49.7306 134.867 49.7948 135.424 49.7199 135.905L49.645 136.376C49.4522 137.95 48.6599 139.149 47.2574 139.963C46.0582 140.67 44.57 141.066 42.7713 141.141C41.2724 141.216 39.9983 140.959 38.9277 140.359C37.6964 139.728 36.9577 138.743 36.69 137.404C36.5615 136.665 36.5294 135.723 36.5936 134.567C36.69 132.768 36.7328 131.826 36.7328 131.73V124.182L46.9255 124.107V124.139Z" fill="white" stroke="#1E1E1E" stroke-width="1.32" stroke-linecap="round" stroke-linejoin="round"/>
<path d="M24.0981 131.58C22.7277 132.179 21.8605 133.079 21.4964 134.267C21.3251 134.877 21.2716 135.434 21.3358 135.916L21.3787 136.387C21.5714 137.961 22.3744 139.16 23.7877 139.974C24.9975 140.68 26.4964 141.076 28.2737 141.151C29.8047 141.226 31.1002 140.969 32.1709 140.37C33.4022 139.738 34.1302 138.753 34.3657 137.415C34.4942 136.644 34.5263 135.702 34.4835 134.578C34.4086 133.336 34.3657 132.393 34.3657 131.74V124.192L24.0981 124.117V131.548V131.58Z" fill="white"/>
<path d="M24.0991 124.139V131.569C22.7287 132.169 21.8614 133.068 21.4974 134.257C21.3261 134.867 21.2726 135.424 21.3368 135.905L21.3797 136.376C21.5724 137.95 22.3754 139.149 23.7886 139.963C24.9985 140.67 26.4974 141.066 28.2747 141.141C29.8057 141.216 31.1012 140.959 32.1719 140.359C33.4031 139.728 34.1312 138.743 34.3667 137.404C34.4952 136.633 34.5273 135.691 34.4845 134.567C34.4095 133.325 34.3667 132.383 34.3667 131.73V124.182L24.0991 124.107V124.139Z" stroke="#1E1E1E" stroke-width="1.32" stroke-linecap="round" stroke-linejoin="round"/>
<path d="M19.921 114.01L19.8782 114.202C19.8354 114.534 19.7925 114.856 19.7604 115.145C19.8032 114.77 19.8675 114.395 19.921 114.01ZM51.3876 116.847L51.3448 116.14C50.242 117.639 48.6253 118.871 46.484 119.845C43.5718 121.14 39.9316 121.815 35.5526 121.9C31.1415 121.826 27.4906 121.14 24.5784 119.845C22.4585 118.871 20.8418 117.629 19.739 116.14L19.6641 117.136C19.6748 117.982 19.7604 118.774 19.921 119.524C20.5313 122.382 22.1908 124.524 24.8996 125.948C27.7903 127.446 31.3449 128.185 35.5419 128.185C39.7389 128.185 43.2506 127.436 46.12 125.948C48.8288 124.545 50.499 122.404 51.1521 119.524C51.1521 119.502 51.1521 119.481 51.1521 119.449C51.1628 119.427 51.1735 119.395 51.1735 119.352C51.2699 118.881 51.3341 118.389 51.3662 117.864C51.3876 117.532 51.3983 117.2 51.3876 116.847ZM51.409 117.125L51.3876 116.847C51.3876 117.2 51.3876 117.532 51.3662 117.864C51.3876 117.629 51.3983 117.393 51.409 117.136M50.4133 115.573L51.2913 115.145C51.1628 113.967 50.9165 112.714 50.5632 111.387C50.1992 110.145 49.8245 109.053 49.4283 108.132C46.8052 109.502 43.9359 110.519 40.8417 111.173C39.225 111.515 37.4584 111.719 35.5526 111.783C33.604 111.719 31.8374 111.515 30.2636 111.173C27.1587 110.509 24.2893 109.492 21.6448 108.132C21.527 108.432 21.4092 108.721 21.2915 109.01L20.5099 111.397C20.4778 111.494 20.4456 111.59 20.4135 111.676C20.3814 111.836 20.3386 111.997 20.2958 112.147C20.2315 112.447 20.1673 112.736 20.103 113.025C20.0816 113.1 20.0709 113.164 20.0602 113.239L20.0174 113.378V113.421L19.996 113.539L19.9531 113.796L19.9317 114.01C19.8675 114.395 19.814 114.77 19.7711 115.145C20.1994 115.38 20.4992 115.519 20.6705 115.573C23.5505 117.008 27.1587 117.993 31.4841 118.549C32.9616 118.753 34.3106 118.892 35.5205 118.945H35.6169C36.816 118.881 38.1543 118.753 39.6532 118.549C43.9787 118.003 47.5761 117.008 50.4455 115.573H50.4133Z" fill="#4C4C4C"/>
<path d="M24.9755 101.526L23.2945 104.449C23.1982 104.631 23.1018 104.813 23.0162 104.995C23.0055 105.027 22.984 105.049 22.9733 105.07C22.9733 105.102 22.9626 105.134 22.9519 105.167C22.9412 105.188 22.9198 105.209 22.9091 105.242C22.9091 105.263 22.9091 105.274 22.8877 105.284C22.2881 106.526 21.7849 107.715 21.3566 108.85C21.3459 108.903 21.3245 108.957 21.3138 109.01C21.4316 108.732 21.5494 108.432 21.6671 108.132C24.3117 109.503 27.181 110.52 30.2859 111.173C31.8598 111.516 33.6264 111.719 35.575 111.783C37.4807 111.719 39.2366 111.516 40.864 111.173C43.9689 110.509 46.8276 109.492 49.4507 108.132C48.9582 106.901 48.3907 105.67 47.7483 104.449C47.1702 103.304 46.6027 102.329 46.0674 101.526H24.9862M51.3029 115.145L50.425 115.573C47.5663 117.008 43.9689 117.993 39.6328 118.55C38.1338 118.753 36.7955 118.892 35.5964 118.946H35.5C34.2902 118.882 32.9412 118.753 31.4636 118.55C27.1382 118.004 23.5301 117.008 20.65 115.573C20.4787 115.531 20.1789 115.381 19.7507 115.145C19.6864 115.83 19.6543 116.494 19.6543 117.126L19.7292 116.13C20.832 117.629 22.4487 118.86 24.5686 119.835C27.4808 121.13 31.1424 121.805 35.5428 121.89C39.9218 121.815 43.5621 121.13 46.4743 119.835C48.6156 118.86 50.2323 117.618 51.335 116.13L51.3779 116.837C51.3779 116.301 51.3457 115.755 51.2815 115.188C51.2815 115.177 51.2815 115.156 51.2815 115.145H51.3029Z" fill="#F6CB6D"/>
<path d="M51.291 115.145C51.1625 113.967 50.9162 112.715 50.5629 111.387C50.1989 110.145 49.8242 109.053 49.428 108.132M21.2912 109.01L20.5096 111.398C20.4775 111.494 20.4561 111.601 20.4239 111.698C20.3811 111.858 20.3383 112.008 20.3062 112.158C20.2312 112.458 20.167 112.747 20.1027 113.036C20.0813 113.111 20.0706 113.175 20.0599 113.25M20.0278 113.4V113.432L20.0064 113.55M19.9636 113.818L19.9314 114.021C19.8672 114.406 19.8137 114.781 19.7815 115.156C19.7066 115.841 19.6638 116.505 19.6745 117.137M51.3017 115.156C51.3017 115.177 51.3017 115.199 51.3017 115.22C51.3659 115.777 51.398 116.323 51.398 116.858C51.398 117.212 51.398 117.554 51.3766 117.886C51.3445 118.4 51.2803 118.892 51.1946 119.374C51.1946 119.406 51.1732 119.439 51.1732 119.471C51.1732 119.492 51.1732 119.513 51.1625 119.535C50.5201 122.415 48.8392 124.556 46.1304 125.959C43.2718 127.458 39.7386 128.197 35.5523 128.197C31.3661 128.197 27.8008 127.447 24.91 125.959C22.2012 124.546 20.5417 122.404 19.9314 119.535C19.7708 118.796 19.6852 117.993 19.6745 117.147M49.4387 108.154C48.9462 106.923 48.3788 105.691 47.7364 104.471C47.1582 103.325 46.5908 102.351 46.0555 101.548H24.9742L23.2933 104.471C23.1969 104.653 23.1006 104.845 23.0149 105.027C23.0042 105.049 22.9935 105.081 22.9828 105.102C22.9721 105.135 22.9614 105.156 22.9507 105.188C22.94 105.209 22.9293 105.231 22.9186 105.263C22.9186 105.284 22.8972 105.306 22.8865 105.327C22.2869 106.559 21.7837 107.747 21.3661 108.882M21.3661 108.882C21.3447 108.935 21.3233 108.989 21.3019 109.042M21.3661 108.882C21.0342 109.76 20.7558 110.606 20.531 111.43" stroke="#1E1E1E" stroke-width="1.32" stroke-linecap="round" stroke-linejoin="round"/>
<path d="M20.0612 113.239L20.0291 113.389M20.0077 113.539L19.9648 113.807" stroke="black" stroke-width="1.32" stroke-linecap="round" stroke-linejoin="round"/>
<path d="M25.4494 52.5439C22.0554 53.5182 18.9719 54.9422 16.2203 56.8158C12.1304 59.5674 9.08977 62.94 7.10906 66.9442C5.59943 69.9635 4.71079 73.3467 4.44312 77.094C4.18616 80.7771 4.55019 84.2782 5.52449 87.5972L4.83927 90.3809C4.49665 92.6293 4.63584 94.7278 5.26753 96.6549C7.3446 102.79 13.9613 106.162 25.1175 106.783H45.9418C57.098 106.173 63.7147 102.79 65.7918 96.6549C66.4342 94.7171 66.5841 92.6293 66.2414 90.3809L65.5348 87.5972C66.5305 84.246 66.8945 80.745 66.6483 77.094C66.3806 73.3467 65.4813 69.9635 63.9609 66.9442C61.9909 62.9507 58.961 59.5674 54.8711 56.8158C52.0981 54.9422 49.036 53.5182 45.6634 52.5439C42.4086 51.6124 39.036 51.1413 35.5564 51.1306C32.0661 51.1413 28.6935 51.6231 25.4494 52.5439Z" fill="#F6CB6D"/>
<path d="M45.932 106.794C57.0883 106.184 63.7049 102.801 65.782 96.6657C66.4244 94.7278 66.5743 92.64 66.2317 90.3916L65.525 87.6079C66.5208 84.2568 66.8848 80.7557 66.6385 77.1048C66.3709 73.3575 65.4715 69.9742 63.9512 66.955C61.9812 62.9614 58.9512 59.5781 54.8613 56.8265C52.0883 54.9529 49.0262 53.5289 45.6536 52.5546C42.3989 51.6232 39.0263 51.1521 35.5466 51.1414C32.0563 51.1521 28.6837 51.6339 25.4396 52.5546C22.0457 53.5289 18.9622 54.9529 16.2106 56.8265C12.1207 59.5781 9.08001 62.9507 7.09929 66.955C5.58967 69.9742 4.70102 73.3575 4.43336 77.1048C4.1764 80.7879 4.54042 84.2889 5.51472 87.6079L4.8295 90.3916C4.48689 92.64 4.62607 94.7385 5.25776 96.6657C7.33484 102.801 13.9515 106.173 25.1077 106.794" stroke="#1E1E1E" stroke-width="1.32" stroke-linecap="round" stroke-linejoin="round"/>
<path d="M57.6475 90.06C56.9515 89.3641 56.6196 88.9786 56.6518 88.8823C57.4119 84.9958 57.337 81.5911 56.4376 78.6575C55.3991 75.1993 53.5897 72.3942 51.0094 70.2528C49.3392 68.8717 47.3049 67.7582 44.8959 66.9231C42.6262 66.1415 40.1958 65.649 37.6048 65.4563H33.4935C30.881 65.649 28.4292 66.1308 26.1487 66.9231C23.7612 67.7582 21.7162 68.8717 20.0139 70.2528C17.4443 72.3942 15.6563 75.1993 14.6285 78.6575C13.7184 81.5804 13.6328 84.9958 14.3929 88.8823C14.3929 88.9786 14.061 89.3748 13.3972 90.06C12.6692 91.1628 12.1981 92.2763 11.984 93.3897C11.6413 95.1349 11.8662 96.8265 12.6692 98.4646C13.4508 100.049 14.6606 101.355 16.2773 102.362C18.1509 103.497 20.2066 104.375 22.4657 105.006C24.6177 105.606 26.8875 105.991 29.2644 106.163C31.4699 106.355 33.5577 106.441 35.5384 106.441C37.5191 106.441 39.6283 106.345 41.7696 106.163C44.1465 105.991 46.4163 105.606 48.5683 105.006C50.8167 104.375 52.883 103.497 54.7781 102.362C56.3841 101.355 57.5832 100.06 58.3648 98.4646C59.1678 96.8265 59.4034 95.1349 59.0714 93.3897C58.8466 92.2763 58.3755 91.1628 57.6368 90.06H57.6475Z" fill="white"/>
<path d="M59.0822 93.3897C58.8573 92.2763 58.3862 91.1628 57.6475 90.06C56.9515 89.3641 56.6196 88.9786 56.6518 88.8823C57.4119 84.9958 57.337 81.5911 56.4376 78.6575C55.3991 75.1993 53.5897 72.3942 51.0094 70.2528C49.3392 68.8717 47.3049 67.7582 44.8959 66.9231C42.6262 66.1415 40.1958 65.649 37.6048 65.4563H33.4935C30.881 65.649 28.4292 66.1308 26.1487 66.9231C23.7612 67.7582 21.7162 68.8717 20.0139 70.2528C17.4443 72.3942 15.6563 75.1993 14.6285 78.6575C13.7184 81.5804 13.6328 84.9958 14.3929 88.8823C14.3929 88.9786 14.061 89.3748 13.3972 90.06C12.6692 91.1628 12.1981 92.2763 11.984 93.3897C11.6413 95.1349 11.8662 96.8265 12.6692 98.4646C13.4508 100.049 14.6606 101.355 16.2773 102.362C18.1509 103.497 20.2066 104.375 22.4657 105.006C24.6177 105.606 26.8875 105.991 29.2644 106.163C31.4699 106.355 33.5577 106.441 35.5384 106.441C37.5191 106.441 39.6283 106.345 41.7696 106.163C44.1465 105.991 46.4163 105.606 48.5683 105.006C50.8167 104.375 52.8831 103.497 54.7781 102.362C56.3841 101.355 57.5832 100.06 58.3648 98.4646C59.1678 96.8265 59.4034 95.1349 59.0715 93.3897H59.0822Z" stroke="#1E1E1E" stroke-width="1.32" stroke-linecap="round" stroke-linejoin="round"/>
<path d="M23.8475 99.5672C24.8968 98.4644 25.4321 97.1475 25.4321 95.6057C25.4321 94.064 24.9075 92.7578 23.8475 91.6871C22.8197 90.5844 21.567 90.0383 20.0681 90.0383C18.5692 90.0383 17.3165 90.5844 16.2887 91.6871C15.2394 92.7578 14.7041 94.064 14.7041 95.6057C14.7041 97.1475 15.2287 98.4644 16.2887 99.5672C17.3165 100.649 18.5692 101.195 20.0681 101.195C21.567 101.195 22.7876 100.649 23.8475 99.5672Z" fill="#F5CED3"/>
<path d="M54.7889 99.5673C55.8382 98.4645 56.3735 97.1476 56.3735 95.6059C56.3735 94.0641 55.8489 92.7579 54.7889 91.6873C53.7504 90.6166 52.487 90.0813 51.0095 90.0813C49.532 90.0813 48.2472 90.6166 47.2087 91.6873C46.1701 92.7579 45.6455 94.0641 45.6455 95.6059C45.6455 97.1476 46.1701 98.4645 47.2087 99.5673C48.2472 100.649 49.5106 101.195 51.0095 101.195C52.5084 101.195 53.7504 100.649 54.7889 99.5673Z" fill="#F5CED3"/>
<path d="M30.71 94.1389C30.9348 94.4815 31.2881 94.7492 31.7699 94.9205C32.7442 95.3166 33.8684 95.1667 35.1425 94.4708C35.2174 94.4601 35.3031 94.428 35.3994 94.3959C35.5922 94.353 35.7742 94.3745 35.9455 94.4708C37.2196 95.1667 38.3437 95.3166 39.318 94.9205L40.378 94.1389" stroke="#1E1E1E" stroke-width="1.32" stroke-linecap="round" stroke-linejoin="round"/>
<path d="M25.1846 90.3596L25.5165 90.7344C25.7948 91.0127 26.1375 91.2376 26.5336 91.3982C27.7756 91.9228 29.2745 91.7515 31.0197 90.9057" stroke="#1E1E1E" stroke-width="1.32" stroke-linecap="round" stroke-linejoin="round"/>
<path d="M46.1261 90.3596L45.7942 90.7344C45.5158 91.0127 45.1732 91.2376 44.7771 91.3982C43.5351 91.9228 42.0362 91.7515 40.291 90.9057" stroke="#1E1E1E" stroke-width="1.32" stroke-linecap="round" stroke-linejoin="round"/>
<path d="M28.8213 64.2995C28.1896 64.8027 27.6542 65.4665 27.2153 66.3017C26.8084 67.1154 26.5408 67.9505 26.4123 68.807C26.241 70.049 26.3909 71.2802 26.8619 72.5115C27.3223 73.7534 28.0076 74.7491 28.939 75.5093C30.3095 76.6121 32.1082 77.308 34.3458 77.5864C35.5129 77.7256 36.5942 77.6934 37.6006 77.49C38.8747 77.2224 39.7848 76.687 40.3201 75.884C40.6306 75.4772 40.7698 75.0061 40.7163 74.4922C40.6627 73.9783 40.4272 73.5821 39.9882 73.3145C39.7205 73.1432 39.2709 72.9826 38.6392 72.8434C37.5899 72.6506 36.8405 72.3509 36.4229 71.9226C35.9625 71.4622 35.7698 70.8412 35.8341 70.0597C35.8983 69.4173 36.1124 68.7642 36.4764 68.1004C36.8191 67.4365 37.3544 66.8905 38.0824 66.4515C38.9604 65.8734 39.6028 65.6164 39.9989 65.6914C39.5385 64.5137 38.682 63.6357 37.4293 63.0683C36.3587 62.5758 35.1488 62.3723 33.7891 62.458C31.8405 62.5865 30.181 63.1967 28.832 64.2995H28.8213Z" fill="#4FB35B"/>
<path d="M39.9892 65.6914C39.5288 64.5137 38.6723 63.6357 37.4196 63.0683C36.3489 62.5758 35.1391 62.3723 33.7794 62.458C31.8308 62.5865 30.1713 63.1967 28.8222 64.2995C28.1905 64.8027 27.6552 65.4665 27.2162 66.3017C26.8094 67.1154 26.5417 67.9505 26.4132 68.807C26.2419 70.049 26.3918 71.2802 26.8629 72.5115C27.3233 73.7534 28.0085 74.7491 28.94 75.5093C30.3104 76.6121 32.1091 77.308 34.3468 77.5864C35.5138 77.7256 36.5952 77.6934 37.6016 77.49C38.8757 77.2224 39.7858 76.687 40.3211 75.884C40.6316 75.4772 40.7708 75.0061 40.7172 74.4922C40.6637 73.9783 40.4281 73.5821 39.9892 73.3145C39.7215 73.1432 39.2718 72.9826 38.6401 72.8434C37.5909 72.6506 36.8414 72.3509 36.4239 71.9226C35.9635 71.4622 35.7708 70.8412 35.835 70.0597C35.8993 69.4173 36.1134 68.7642 36.4774 68.1004C36.82 67.4365 37.3554 66.8905 38.0834 66.4515C38.9613 65.8734 39.6037 65.6164 39.9999 65.6914H39.9892Z" stroke="#1E1E1E" stroke-width="1.32" stroke-linecap="round" stroke-linejoin="round"/>
<path d="M16.0632 51.3553C16.4379 51.1947 16.7912 50.9806 17.1338 50.7022C17.9154 50.017 18.333 49.1712 18.4186 48.1434C18.5043 47.1155 18.2045 46.2055 17.53 45.4453C16.8662 44.6744 16.0203 44.2462 15.0032 44.1712C13.9861 44.0963 13.0653 44.3853 12.3052 45.0599C11.5343 45.713 11.106 46.5588 11.0311 47.5866C10.9561 48.6144 11.2452 49.5138 11.9197 50.3061C12.5728 51.0662 13.4186 51.4838 14.4572 51.5587C15.0353 51.6016 15.5814 51.5373 16.0846 51.3446L16.0632 51.3553Z" fill="#F6CB6D"/>
<path d="M16.054 51.3765C15.5508 51.5586 15.0048 51.6335 14.4266 51.5907C13.3881 51.5157 12.5423 51.0982 11.8892 50.338C11.2253 49.5457 10.9256 48.6357 11.0005 47.6185C11.0755 46.58 11.5037 45.7342 12.2746 45.0918C13.0348 44.428 13.9341 44.1282 14.9726 44.2031C15.9898 44.2781 16.8356 44.7064 17.4994 45.4772C18.1632 46.2374 18.463 47.1367 18.388 48.1753C18.3131 49.1924 17.8848 50.0489 17.1033 50.7342C16.7714 51.0125 16.4073 51.2267 16.0326 51.3873L16.054 51.3765ZM16.054 51.3765L19.009 58.6998M16.054 51.3765L15.9577 51.1089" stroke="#1E1E1E" stroke-width="1.32" stroke-linecap="round" stroke-linejoin="round"/>
<path d="M54.2398 51.3553C53.8651 51.1947 53.5118 50.9806 53.1692 50.7022C52.3876 50.017 51.9701 49.1712 51.8844 48.1434C51.7988 47.1155 52.0985 46.2055 52.7731 45.4453C53.4369 44.6744 54.2827 44.2462 55.2998 44.1712C56.3169 44.0963 57.2377 44.3853 57.9979 45.0599C58.7687 45.713 59.197 46.5588 59.2719 47.5866C59.3469 48.6144 59.0578 49.5138 58.3833 50.3061C57.7302 51.0662 56.8844 51.4838 55.8458 51.5587C55.2677 51.6016 54.7216 51.5373 54.2184 51.3446L54.2398 51.3553Z" fill="#F6CB6D"/>
<path d="M54.2538 51.3765C54.7571 51.5586 55.3031 51.6335 55.8812 51.5907C56.9198 51.5157 57.7656 51.0982 58.4187 50.338C59.0825 49.5457 59.3823 48.6357 59.3073 47.6185C59.2324 46.58 58.8041 45.7342 58.0333 45.0918C57.2731 44.428 56.3737 44.1282 55.3352 44.2031C54.3181 44.2781 53.4723 44.7064 52.8085 45.4772C52.1446 46.2374 51.8449 47.1367 51.9198 48.1753C51.9948 49.1924 52.423 50.0489 53.2046 50.7342C53.5365 51.0125 53.9005 51.2267 54.2753 51.3873L54.2538 51.3765ZM54.2538 51.3765L51.2988 58.6998M54.2538 51.3765L54.3502 51.1089" stroke="#1E1E1E" stroke-width="1.32" stroke-linecap="round" stroke-linejoin="round"/>
<path d="M45.9458 107.147C44.4897 107.811 43.0551 108.592 41.6418 109.481C39.6932 110.702 38.2478 111.826 37.2949 112.864L40.0679 118.86L42.0486 119.888L43.3334 120.027L45.978 118.046C48.2799 116.365 49.8966 114.856 50.828 113.496C51.7488 112.158 52.0914 110.916 51.8452 109.781C51.5132 108.432 50.6888 107.522 49.3826 107.019C48.2906 106.59 47.1557 106.633 45.9565 107.136L45.9458 107.147Z" fill="white"/>
<path d="M45.9351 107.126C44.479 107.79 43.0443 108.571 41.631 109.46C39.6825 110.68 38.2371 111.805 37.2842 112.843L40.0572 118.839L42.0379 119.867L43.3227 120.006L45.9672 118.025C48.2691 116.344 49.8858 114.835 50.8173 113.475C51.7381 112.137 52.0807 110.895 51.8344 109.76C51.5025 108.411 50.6781 107.501 49.3719 106.997C48.2798 106.569 47.1449 106.612 45.9458 107.115L45.9351 107.126Z" stroke="#1E1E1E" stroke-width="1.32" stroke-linecap="round" stroke-linejoin="round"/>
<path d="M31.1371 115.713C30.3234 117.233 30.1949 118.839 30.7837 120.52C31.3298 122.201 32.4004 123.485 33.985 124.353C35.591 125.188 37.2505 125.37 38.9529 124.92C40.6552 124.449 41.9079 123.453 42.7109 121.933C43.4068 120.648 43.5888 119.246 43.2676 117.736L38.9207 112.918C37.4111 112.383 35.9229 112.383 34.4561 112.918C32.9786 113.443 31.8651 114.374 31.1371 115.723V115.713Z" fill="white"/>
<path d="M38.911 112.897C37.4013 112.362 35.9131 112.362 34.4463 112.897C32.9688 113.422 31.8553 114.353 31.1273 115.702C30.3136 117.223 30.1851 118.829 30.774 120.509C31.32 122.19 32.3907 123.475 33.9752 124.342C35.5812 125.178 37.2407 125.36 38.9431 124.91C40.6454 124.439 41.8981 123.443 42.7011 121.923C43.397 120.638 43.579 119.235 43.2578 117.726" stroke="#1E1E1E" stroke-width="1.32" stroke-linecap="round" stroke-linejoin="round"/>
<path d="M30.5252 118.957L33.9085 113.282C33.0948 112.158 31.7457 110.884 29.84 109.46C28.4695 108.432 27.067 107.49 25.643 106.634C25.0541 106.291 24.3796 106.227 23.598 106.441C22.9342 106.602 22.3026 106.933 21.6923 107.415C21.082 107.876 20.6323 108.507 20.3647 109.289C20.0756 110.038 19.9578 110.809 20.0328 111.612C20.1077 112.972 20.8465 114.278 22.2597 115.531C23.3411 116.494 24.9792 117.908 27.1848 119.781H28.4588L30.5359 118.957H30.5252Z" fill="white"/>
<path d="M25.6439 106.602C27.0679 107.458 28.4705 108.4 29.8409 109.428C31.7467 110.852 33.0957 112.126 33.9094 113.25L30.5261 118.925L28.4491 119.739H27.175C24.9694 117.876 23.3313 116.462 22.25 115.499C20.8367 114.246 20.0979 112.94 20.023 111.58C19.948 110.777 20.0658 110.006 20.3549 109.257C20.6226 108.465 21.0722 107.844 21.6825 107.383C22.2821 106.901 22.9245 106.58 23.5883 106.409C24.3699 106.195 25.0551 106.259 25.6332 106.602H25.6439Z" stroke="#1E1E1E" stroke-width="1.32" stroke-linecap="round" stroke-linejoin="round"/>
<path d="M39.722 116.751C39.1224 115.338 38.116 114.289 36.692 113.614C35.2894 112.929 33.8226 112.779 32.2809 113.154L27.4522 117.49C26.9597 118.871 26.9918 120.273 27.5486 121.708C28.2231 123.314 29.3794 124.438 31.0175 125.091C32.6663 125.723 34.3259 125.712 35.9961 125.038C37.6663 124.342 38.8654 123.186 39.6042 121.569C40.3322 119.952 40.3644 118.346 39.7327 116.751H39.722Z" fill="white"/>
<path d="M32.2818 113.122C33.8236 112.747 35.3011 112.897 36.6929 113.582C38.1169 114.257 39.1233 115.306 39.7229 116.719C40.3653 118.315 40.3225 119.921 39.5944 121.537C38.8557 123.154 37.6565 124.31 35.9863 125.006C34.3161 125.67 32.6566 125.691 31.0078 125.06C29.3696 124.407 28.2133 123.282 27.5388 121.676C26.9821 120.242 26.95 118.828 27.4425 117.458" stroke="#1E1E1E" stroke-width="1.32" stroke-linecap="round" stroke-linejoin="round"/>
<path d="M112.542 127.661C111.674 128.09 111.214 128.7 111.15 129.503C111.021 130.852 110.957 131.676 110.957 131.955C110.957 134.974 111.16 137.286 111.567 138.871C112.006 140.552 113.056 141.815 114.704 142.65C116.085 143.378 117.724 143.7 119.619 143.646C124.083 143.507 126.257 141.751 126.107 138.379C126.064 137.34 125.775 136.194 125.261 134.931L124.533 133.4C124.822 132.576 125.047 131.751 125.197 130.927C125.218 130.852 125.24 130.766 125.24 130.691C125.25 130.67 125.261 130.648 125.261 130.616C125.464 129.642 125.133 128.785 124.265 128.047C123.666 127.511 122.52 127.115 120.818 126.848L120.347 126.805C119.501 126.708 118.441 126.687 117.188 126.73C115.208 126.826 113.655 127.137 112.542 127.672V127.661Z" fill="white"/>
<path d="M125.25 130.68C125.24 130.755 125.218 130.841 125.207 130.916C125.058 131.74 124.833 132.565 124.533 133.389L125.261 134.92C125.786 136.184 126.064 137.329 126.107 138.368C126.246 141.74 124.083 143.485 119.619 143.635C117.734 143.7 116.096 143.368 114.704 142.64C113.056 141.805 112.006 140.552 111.567 138.86C111.16 137.276 110.957 134.963 110.957 131.944" stroke="#1E1E1E" stroke-width="1.32" stroke-linecap="round" stroke-linejoin="round"/>
<path d="M105.787 129.502C105.69 128.667 105.23 128.057 104.395 127.661C103.26 127.126 101.707 126.815 99.7159 126.719C98.4847 126.676 97.4247 126.697 96.5254 126.794L96.0757 126.837C94.4269 127.072 93.2706 127.479 92.6068 128.036C91.7931 128.774 91.4612 129.631 91.6111 130.605C91.6111 130.627 91.6111 130.648 91.6111 130.68C91.6432 130.777 91.6646 130.873 91.686 130.959C91.9108 131.847 92.1357 132.661 92.3712 133.389L91.6432 134.92C91.14 136.183 90.8616 137.329 90.7974 138.368C90.6582 141.74 92.8102 143.485 97.2641 143.635C99.1485 143.699 100.787 143.368 102.178 142.639C103.849 141.804 104.898 140.552 105.337 138.86C105.733 137.361 105.926 135.059 105.926 131.944C105.926 131.398 105.883 130.573 105.787 129.492V129.502Z" fill="white"/>
<path d="M91.6442 130.68C91.6656 130.777 91.6978 130.884 91.7192 130.98C91.9333 131.858 92.1581 132.672 92.3937 133.4L91.6656 134.931C91.1624 136.194 90.8841 137.34 90.8198 138.378C90.6806 141.751 92.8327 143.496 97.2866 143.646C99.1709 143.71 100.809 143.378 102.201 142.65C103.871 141.815 104.92 140.563 105.359 138.871C105.755 137.372 105.948 135.07 105.948 131.954" stroke="#1E1E1E" stroke-width="1.32" stroke-linecap="round" stroke-linejoin="round"/>
<path d="M94.0248 102.126C91.6479 106.516 90.4167 109.182 90.3203 110.124V119.192C90.4488 123.603 90.8878 127.426 91.6372 130.691L103.821 130.948L105.074 131.28C106.123 131.515 107.247 131.623 108.425 131.612C110.331 131.623 111.873 131.408 113.05 130.948L125.256 130.691C125.995 127.436 126.434 123.603 126.573 119.192L126.551 110.413L126.509 113.55C126.444 110.327 125.224 106.516 122.847 102.126L119.282 96.5585C117.643 96.2908 114.025 96.1624 108.425 96.1624C104.945 96.1624 102.087 96.2373 99.8599 96.3765L97.5901 96.5692L94.0248 102.137V102.126Z" fill="white"/>
<path d="M97.5911 96.5477L99.8608 96.355C102.099 96.2158 104.946 96.1409 108.426 96.1409C114.026 96.1409 117.644 96.2694 119.283 96.537M126.574 109.353V110.402V119.171C126.435 123.582 125.996 127.404 125.257 130.67M113.051 130.927C111.874 131.387 110.332 131.601 108.426 131.59C107.248 131.601 106.124 131.494 105.075 131.258L103.822 130.927M91.6382 130.67C90.878 127.415 90.4391 123.582 90.3213 119.171V110.102" stroke="#1E1E1E" stroke-width="1.32" stroke-linecap="round" stroke-linejoin="round"/>
<path d="M126.712 101.912C126.327 100.894 125.995 100.252 125.738 99.9844L117.397 108.817C113.789 112.436 111.016 115.937 109.078 119.342C107.89 121.43 107.579 123.26 108.157 124.834C108.468 125.734 109.003 126.505 109.731 127.126C110.481 127.747 111.337 128.164 112.29 128.378C115.309 129.063 118.511 127.436 121.894 123.507C126.123 117.907 128.072 112.372 127.729 106.901C127.611 105.113 127.269 103.453 126.701 101.922L126.712 101.912Z" fill="white"/>
<path d="M125.75 99.9739C126.007 100.242 126.339 100.873 126.725 101.901C127.292 103.432 127.635 105.081 127.753 106.88C128.095 112.351 126.157 117.897 121.917 123.486C118.534 127.426 115.333 129.042 112.314 128.357C111.361 128.143 110.504 127.725 109.755 127.104C109.016 126.473 108.491 125.712 108.181 124.813C107.603 123.239 107.913 121.408 109.102 119.321C111.04 115.916 113.813 112.415 117.421 108.796" stroke="#1E1E1E" stroke-width="1.32" stroke-linecap="round" stroke-linejoin="round"/>
<path d="M91.436 101.751C91.2005 101.997 90.9007 102.65 90.5474 103.721C90.0549 105.273 89.7979 106.933 89.7765 108.7C89.6801 114.181 91.8643 119.631 96.3396 125.048C99.8514 128.849 103.117 130.327 106.158 129.47C107.1 129.235 107.924 128.785 108.652 128.132C109.359 127.468 109.851 126.687 110.13 125.766C110.611 124.138 110.226 122.318 108.973 120.305C106.875 117.008 103.952 113.635 100.183 110.188L91.4467 101.762L91.436 101.751Z" fill="white"/>
<path d="M91.4057 101.762C91.1702 102.008 90.8704 102.661 90.5171 103.732C90.0246 105.284 89.7676 106.944 89.7462 108.71C89.6499 114.192 91.834 119.642 96.3094 125.059C99.8211 128.86 103.087 130.338 106.127 129.481C107.069 129.245 107.894 128.796 108.622 128.143C109.329 127.479 109.821 126.697 110.099 125.777C110.581 124.149 110.196 122.329 108.943 120.316C106.845 117.019 103.922 113.646 100.153 110.198" stroke="#1E1E1E" stroke-width="1.32" stroke-linecap="round" stroke-linejoin="round"/>
<path d="M150.238 61.0556C149.746 60.7986 149.211 60.5845 148.611 60.3918C146.009 59.5245 143.429 59.6102 140.849 60.6487L130.892 64.6102L131.555 67.062C131.994 69.1819 132.187 71.4409 132.123 73.8392C132.187 76.2482 131.994 78.518 131.555 80.6379C131.331 81.7085 131.116 82.5437 130.892 83.1432L140.849 87.1047C143.461 88.1004 146.052 88.1646 148.611 87.3188L150.238 86.7085C151.341 86.2053 152.315 85.6164 153.161 84.9419C154.211 84.1068 155.078 83.186 155.763 82.1796C156.545 81.0769 157.166 79.7814 157.604 78.2824C158.001 76.9013 158.193 75.4238 158.193 73.8499C158.193 72.3082 158.001 70.8414 157.604 69.4602C157.198 67.9827 156.577 66.6658 155.763 65.5202C155.056 64.4924 154.189 63.593 153.161 62.8007C152.315 62.1262 151.341 61.5374 150.238 61.0556Z" fill="#EE9CA5"/>
<path d="M132.103 73.8392C132.168 76.2482 131.975 78.518 131.536 80.6379C131.311 81.7085 131.097 82.5437 130.872 83.1432L140.829 87.1047C143.442 88.1004 146.033 88.1646 148.591 87.3188L150.219 86.7085C151.322 86.2053 152.296 85.6164 153.142 84.9419C154.191 84.1068 155.058 83.186 155.743 82.1796C156.525 81.0769 157.146 79.7814 157.585 78.2824C157.981 76.9013 158.174 75.4238 158.174 73.8499C158.174 72.3082 157.981 70.8414 157.585 69.4602C157.178 67.9827 156.557 66.6658 155.743 65.5202C155.037 64.4924 154.17 63.593 153.142 62.8007C152.296 62.1262 151.322 61.5374 150.219 61.0556C149.726 60.7986 149.191 60.5845 148.591 60.3918C145.99 59.5245 143.409 59.6102 140.829 60.6487L130.872 64.6102L131.536 67.062C131.975 69.1819 132.168 71.4409 132.103 73.8392ZM132.103 73.8392H140.84" stroke="#B34E58" stroke-width="1.32" stroke-linecap="round" stroke-linejoin="round"/>
<path d="M130.881 83.1645L129.607 85.3807C128.376 87.1901 126.898 88.9139 125.175 90.552C123.537 92.2865 121.802 93.764 119.982 94.9845C119.083 95.5948 118.355 96.0231 117.787 96.2586L122.016 106.098C123.119 108.668 124.886 110.552 127.327 111.762C127.969 112.072 128.515 112.308 128.954 112.447C130.068 112.854 131.17 113.143 132.262 113.293C133.601 113.464 134.864 113.443 136.042 113.218C137.444 112.961 138.804 112.458 140.121 111.708C141.363 111.002 142.541 110.091 143.633 108.989C144.682 107.982 145.592 106.805 146.352 105.477C147.059 104.171 147.551 102.822 147.819 101.441C148.044 100.177 148.076 98.9138 147.937 97.6398C147.776 96.5263 147.498 95.4128 147.091 94.31L146.384 92.704C145.185 90.2843 143.312 88.5071 140.742 87.3722L130.903 83.1431L130.881 83.1645Z" fill="#EE9CA5"/>
<path d="M125.165 90.552C123.527 92.2865 121.792 93.764 119.972 94.9845C119.073 95.5948 118.345 96.0231 117.777 96.2586L122.006 106.098C123.109 108.668 124.876 110.552 127.317 111.762C127.959 112.072 128.505 112.308 128.944 112.447C130.058 112.854 131.161 113.143 132.253 113.293C133.591 113.464 134.854 113.443 136.032 113.218C137.435 112.961 138.794 112.458 140.111 111.708C141.353 111.002 142.531 110.091 143.623 108.989C144.672 107.982 145.582 106.805 146.342 105.477C147.049 104.171 147.542 102.822 147.809 101.441C148.034 100.177 148.066 98.9138 147.927 97.6398C147.766 96.5263 147.488 95.4128 147.081 94.31L146.375 92.704C145.175 90.2843 143.302 88.5071 140.732 87.3722L130.893 83.1431L129.619 85.3593C128.388 87.1687 126.91 88.8925 125.186 90.5306L131.375 96.7404" stroke="#B34E58" stroke-width="1.32" stroke-linecap="round" stroke-linejoin="round"/>
<path d="M87.3311 85.3918L86.0356 83.1755L76.2177 87.4046C73.6374 88.5074 71.7531 90.2847 70.5539 92.7365C70.2434 93.3682 70.0079 93.9035 69.8687 94.3425C69.4404 95.4453 69.1621 96.5587 69.0229 97.6722C68.8623 99.0213 68.8944 100.295 69.0978 101.473C69.3655 102.908 69.8687 104.246 70.6075 105.509C71.3676 106.848 72.267 108.015 73.3269 109.021C74.3226 110.07 75.4896 110.98 76.8387 111.741C78.1128 112.479 79.4725 112.983 80.9179 113.25C82.0635 113.475 83.3054 113.497 84.6438 113.325C85.7787 113.165 86.8921 112.886 87.9949 112.479C88.4339 112.34 88.9692 112.105 89.6009 111.794C92.0527 110.584 93.83 108.689 94.9328 106.13L99.1298 96.2911C98.5837 96.0555 97.845 95.6273 96.9349 95.017C95.1576 93.7857 93.4339 92.3082 91.7636 90.5845C90.0185 88.9464 88.541 87.2226 87.3311 85.4132V85.3918Z" fill="#EE9CA5"/>
<path d="M91.7734 90.5523C90.0282 88.9142 88.5507 87.1905 87.3409 85.3811L86.0454 83.1648L76.2275 87.3939C73.6472 88.4967 71.7628 90.274 70.5637 92.7258C70.2532 93.3574 70.0176 93.8928 69.8785 94.3317C69.4502 95.4345 69.1718 96.548 69.0326 97.6615C68.872 99.0105 68.9042 100.285 69.1076 101.462C69.3753 102.897 69.8785 104.235 70.6172 105.499C71.3774 106.837 72.2767 108.004 73.3367 109.01C74.3324 110.06 75.4994 110.97 76.8484 111.73C78.1225 112.469 79.4823 112.972 80.9276 113.24C82.0732 113.464 83.3152 113.486 84.6535 113.314C85.7884 113.154 86.9019 112.876 88.0047 112.469C88.4437 112.329 88.979 112.094 89.6107 111.783C92.0625 110.574 93.8398 108.679 94.9425 106.12L99.1395 96.2803C98.5935 96.0448 97.8547 95.6165 96.9447 95.0063C95.1674 93.775 93.4436 92.2975 91.7734 90.5737L85.5636 96.7835" stroke="#B34E58" stroke-width="1.32" stroke-linecap="round" stroke-linejoin="round"/>
<path d="M76.0478 60.6487C73.4783 59.6102 70.898 59.5245 68.307 60.3918L66.6582 61.0556C65.6089 61.5481 64.6239 62.1262 63.7353 62.8007C62.7289 63.5823 61.8616 64.4924 61.1336 65.5202C60.2985 66.7943 59.6989 68.1112 59.3135 69.4602C58.9173 70.8414 58.7246 72.3082 58.7246 73.8499C58.7246 75.3917 58.9173 76.9013 59.3135 78.2824C59.6882 79.6636 60.2985 80.9698 61.1336 82.1796C61.8402 83.186 62.7075 84.1068 63.7353 84.9419C64.6346 85.6164 65.6089 86.2053 66.6582 86.7085L68.307 87.3188C70.8873 88.1646 73.4676 88.1004 76.0478 87.1047L86.0049 83.1432C85.7801 82.5437 85.5767 81.7085 85.3626 80.6379C84.9557 78.518 84.7737 76.2482 84.8165 73.8392C84.7737 71.4516 84.945 69.1926 85.3626 67.062L86.0049 64.6102L76.0478 60.6487Z" fill="#EE9CA5"/>
<path d="M84.8361 73.8392C84.7932 71.4516 84.9645 69.1926 85.3821 67.062L86.0245 64.6102L76.0674 60.6487C73.4978 59.6102 70.9175 59.5245 68.3265 60.3918L66.6777 61.0556C65.6285 61.5481 64.6435 62.1262 63.7548 62.8007C62.7484 63.5823 61.8812 64.4924 61.1531 65.5202C60.318 66.7943 59.7184 68.1112 59.333 69.4602C58.9369 70.8414 58.7441 72.3082 58.7441 73.8499C58.7441 75.3917 58.9369 76.9013 59.333 78.2824C59.7077 79.6636 60.318 80.9698 61.1531 82.1796C61.8598 83.186 62.727 84.1068 63.7548 84.9419C64.6542 85.6164 65.6285 86.2053 66.6777 86.7085L68.3265 87.3188C70.9068 88.1646 73.4871 88.1004 76.0674 87.1047L86.0245 83.1432C85.7996 82.5437 85.5962 81.7085 85.3821 80.6379C84.9752 78.518 84.7932 76.2482 84.8361 73.8392ZM84.8361 73.8392H76.0567" stroke="#B34E58" stroke-width="1.32" stroke-linecap="round" stroke-linejoin="round"/>
<path d="M121.718 105.52L117.703 96.3127C117.125 96.5055 116.3 96.6982 115.251 96.9016C113.131 97.2978 110.861 97.4691 108.452 97.4262C106.065 97.4691 103.806 97.2978 101.675 96.9016L99.2019 96.3127L95.2084 105.52C94.202 107.94 94.127 110.338 94.9943 112.715L95.6045 114.225C96.097 115.221 96.6859 116.131 97.3711 116.966C98.1741 117.897 99.0842 118.7 100.112 119.396C101.215 120.135 102.51 120.692 104.009 121.077C105.476 121.473 106.954 121.644 108.442 121.602C109.919 121.644 111.397 121.473 112.853 121.077C114.298 120.702 115.604 120.146 116.771 119.396C117.821 118.689 118.731 117.876 119.491 116.966C120.198 116.131 120.786 115.221 121.257 114.225C121.493 113.786 121.718 113.283 121.921 112.715C122.767 110.338 122.703 107.94 121.707 105.52H121.718Z" fill="#EE9CA5"/>
<path d="M108.452 97.4262C106.065 97.4691 103.806 97.2978 101.675 96.9016L99.2019 96.3127L95.2084 105.52C94.202 107.94 94.127 110.338 94.9943 112.715L95.6045 114.225C96.097 115.221 96.6859 116.131 97.3711 116.966C98.1741 117.897 99.0842 118.7 100.112 119.396C101.215 120.135 102.51 120.692 104.009 121.077C105.476 121.473 106.954 121.644 108.442 121.602C109.919 121.644 111.397 121.473 112.853 121.077C114.298 120.702 115.604 120.146 116.771 119.396C117.821 118.689 118.731 117.876 119.491 116.966C120.198 116.131 120.786 115.221 121.257 114.225C121.493 113.786 121.718 113.283 121.921 112.715C122.767 110.338 122.703 107.94 121.707 105.52L117.692 96.3127C117.114 96.5055 116.29 96.6982 115.24 96.9016C113.12 97.2978 110.851 97.4691 108.442 97.4262V106.259" stroke="#B34E58" stroke-width="1.32" stroke-linecap="round" stroke-linejoin="round"/>
<path d="M116.792 30.0816C115.646 29.2786 114.34 28.6683 112.873 28.2401C111.471 27.8653 110.004 27.6726 108.462 27.6726C106.92 27.6726 105.422 27.8653 104.03 28.2401C102.52 28.7111 101.225 29.3214 100.133 30.0816C99.201 30.724 98.291 31.6019 97.3916 32.7047C96.6957 33.5505 96.1068 34.5248 95.625 35.6276L95.0148 37.2336C94.1475 39.8139 94.2225 42.4156 95.2289 45.028L99.2225 54.9637L101.696 54.2998C103.816 53.893 106.075 53.711 108.473 53.7538C110.882 53.711 113.152 53.8823 115.272 54.2998C116.321 54.5247 117.145 54.7388 117.723 54.9637L121.738 45.028C122.734 42.4156 122.798 39.8246 121.953 37.2336C121.749 36.6554 121.524 36.1201 121.289 35.6276C120.796 34.5248 120.207 33.5505 119.522 32.7047C118.687 31.6233 117.788 30.7454 116.803 30.0816H116.792Z" fill="#EE9CA5"/>
<path d="M108.451 53.7538C110.86 53.711 113.13 53.8823 115.25 54.2998C116.299 54.5247 117.124 54.7388 117.702 54.9637L121.717 45.028C122.713 42.4156 122.777 39.8246 121.931 37.2336C121.728 36.6554 121.503 36.1201 121.267 35.6276C120.775 34.5248 120.186 33.5505 119.501 32.7047C118.666 31.6233 117.766 30.7454 116.781 30.0816C115.636 29.2786 114.329 28.6683 112.863 28.2401C111.46 27.8653 109.993 27.6726 108.451 27.6726C106.91 27.6726 105.411 27.8653 104.019 28.2401C102.509 28.7111 101.214 29.3214 100.122 30.0816C99.1903 30.724 98.2802 31.6019 97.3809 32.7047C96.685 33.5505 96.0961 34.5248 95.6143 35.6276L95.004 37.2336C94.1368 39.8139 94.2117 42.4156 95.2182 45.028L99.2117 54.9637L101.685 54.2998C103.805 53.893 106.064 53.711 108.462 53.7538V45.0173" stroke="#B34E58" stroke-width="1.32" stroke-linecap="round" stroke-linejoin="round"/>
<path d="M76.8273 39.5247C75.4783 40.2849 74.3006 41.1842 73.3156 42.2442C72.2128 43.347 71.3135 44.514 70.5961 45.756C69.8252 47.0729 69.322 48.4433 69.0865 49.8352C68.8831 51.0022 68.8617 52.2548 69.0116 53.6146C69.1507 54.7174 69.4398 55.8201 69.8574 56.9229C69.9965 57.3619 70.2321 57.8972 70.5426 58.5289C71.7417 60.9807 73.6261 62.758 76.2064 63.8608L86.0243 68.0577C86.292 67.5117 86.7202 66.7729 87.3198 65.8629C88.5296 64.0856 90.0071 62.3618 91.7523 60.6916C93.4225 58.9572 95.1463 57.4796 96.9236 56.2591L99.1184 54.9636L94.9214 45.1457C93.7865 42.5654 92.0093 40.681 89.5896 39.4819L87.9836 38.7967C86.8808 38.3684 85.7673 38.09 84.6324 37.9509C83.3583 37.8117 82.1164 37.8438 80.9065 38.0686C79.4719 38.3042 78.1121 38.7967 76.8273 39.5354V39.5247Z" fill="#EE9CA5"/>
<path d="M91.7728 60.6916C93.443 58.9572 95.1668 57.4796 96.9441 56.2591L99.1389 54.9636L94.942 45.1457C93.8071 42.5654 92.0298 40.681 89.6101 39.4819L88.0041 38.7967C86.9013 38.3684 85.7878 38.09 84.6529 37.9509C83.3789 37.8117 82.1369 37.8438 80.9271 38.0686C79.4924 38.3042 78.1326 38.7967 76.8479 39.5354C75.4988 40.2956 74.3211 41.195 73.3361 42.2549C72.2333 43.3577 71.334 44.5247 70.6166 45.7667C69.8458 47.0836 69.3425 48.454 69.107 49.8459C68.9036 51.0129 68.8822 52.2655 69.0321 53.6253C69.1712 54.7281 69.4603 55.8308 69.8779 56.9336C70.0171 57.3726 70.2526 57.9079 70.5631 58.5396C71.7622 60.9914 73.6466 62.7687 76.2269 63.8715L86.0448 68.0684C86.3125 67.5224 86.7407 66.7837 87.3403 65.8736C88.5501 64.0963 90.0276 62.3725 91.7728 60.7023L85.563 54.4925" stroke="#B34E58" stroke-width="1.32" stroke-linecap="round" stroke-linejoin="round"/>
<path d="M136.023 38.0579C134.781 37.8331 133.518 37.8009 132.244 37.9401C131.162 38.0793 130.06 38.3684 128.936 38.7859L127.308 39.4712C124.899 40.6703 123.133 42.5547 121.998 45.1349L117.769 54.9529L119.963 56.2484C121.784 57.4796 123.518 58.9571 125.156 60.6809C126.891 62.3511 128.368 64.0749 129.589 65.8521C130.199 66.7622 130.627 67.501 130.863 68.047L140.702 63.85C143.272 62.7151 145.145 60.9378 146.344 58.5181L147.051 56.9122C147.458 55.8094 147.747 54.7066 147.897 53.6038C148.036 52.3298 148.004 51.0664 147.779 49.8244C147.544 48.454 147.051 47.0942 146.312 45.7452C145.606 44.5033 144.696 43.3255 143.593 42.2335C142.49 41.1307 141.323 40.2313 140.081 39.514C138.732 38.7752 137.362 38.2827 136.002 38.0472L136.023 38.0579Z" fill="#EE9CA5"/>
<path d="M125.167 60.6918C126.901 62.3621 128.379 64.0858 129.599 65.8631C130.21 66.7732 130.638 67.5119 130.873 68.0579L140.713 63.861C143.282 62.7261 145.156 60.9488 146.355 58.5291L147.062 56.9231C147.469 55.8203 147.758 54.7176 147.908 53.6148C148.047 52.3407 148.015 51.0773 147.79 49.8354C147.554 48.4649 147.062 47.1052 146.323 45.7562C145.616 44.5142 144.706 43.3365 143.603 42.2444C142.501 41.1416 141.334 40.2423 140.092 39.5249C138.743 38.7862 137.372 38.2937 136.013 38.0581C134.771 37.8333 133.507 37.8012 132.233 37.9404C131.152 38.0796 130.049 38.3686 128.925 38.7862L127.297 39.4714C124.888 40.6705 123.122 42.5549 121.987 45.1352L117.758 54.9531L119.953 56.2486C121.773 57.4799 123.507 58.9574 125.145 60.6811L131.334 54.4713" stroke="#B34E58" stroke-width="1.32" stroke-linecap="round" stroke-linejoin="round"/>
<path d="M115.871 54.3103C113.451 53.6786 110.978 53.3574 108.462 53.3574C105.946 53.3574 103.462 53.6786 101.053 54.3103C95.657 55.7343 91.3101 58.2396 88.0232 61.8263C85.368 64.792 83.4408 68.2931 82.2631 72.3402C82.1667 72.6614 82.0811 72.9826 82.0061 73.3145C81.0746 76.9333 80.8712 80.5628 81.3958 84.1923C81.9312 88.0039 83.2802 91.3764 85.4536 94.2993C87.6378 97.1901 90.5178 99.5241 94.0938 101.291C98.7726 103.55 103.558 104.674 108.473 104.674C113.387 104.674 118.194 103.55 122.82 101.291C126.428 99.5241 129.308 97.1901 131.481 94.2993C133.665 91.3764 135.025 88.0146 135.56 84.1923C136.085 80.5628 135.871 76.9333 134.95 73.3145C134.854 72.9826 134.757 72.6507 134.672 72.3402C133.505 68.2931 131.578 64.792 128.89 61.8263C125.667 58.2396 121.331 55.7343 115.882 54.3103H115.871Z" fill="white"/>
<path d="M128.869 61.8263C125.646 58.2396 121.31 55.7343 115.86 54.3103C113.441 53.6786 110.967 53.3574 108.451 53.3574C105.935 53.3574 103.451 53.6786 101.042 54.3103C95.6462 55.7343 91.2994 58.2396 88.0125 61.8263C85.3572 64.792 83.43 68.2931 82.2523 72.3402C82.156 72.6614 82.0703 72.9826 81.9954 73.3145C81.0639 76.9333 80.8605 80.5628 81.3851 84.1923C81.9204 88.0039 83.2694 91.3764 85.4429 94.2993C87.627 97.1901 90.5071 99.5241 94.0831 101.291C98.7619 103.55 103.548 104.674 108.462 104.674C113.376 104.674 118.184 103.55 122.809 101.291C126.417 99.5241 129.297 97.1901 131.47 94.2993C133.655 91.3764 135.014 88.0146 135.55 84.1923C136.074 80.5628 135.86 76.9333 134.939 73.3145C134.843 72.9826 134.747 72.6507 134.661 72.3402C133.494 68.2931 131.567 64.792 128.879 61.8263H128.869Z" stroke="#1E1E1E" stroke-width="1.38" stroke-linecap="round" stroke-linejoin="round"/>
<path d="M94.4376 94.428C95.4868 94.428 96.3968 94.0533 97.157 93.2931C97.8958 92.5544 98.2705 91.655 98.2705 90.6058C98.2705 89.5565 97.8958 88.6572 97.157 87.9398C96.3968 87.1797 95.4975 86.8049 94.4376 86.8049C93.3776 86.8049 92.489 87.1797 91.7716 87.9398C91.0114 88.6679 90.6367 89.5565 90.6367 90.6058C90.6367 91.655 91.0114 92.5544 91.7716 93.2931C92.4997 94.0533 93.3883 94.428 94.4376 94.428Z" fill="#F5CED3"/>
<path d="M125.165 93.2936C125.893 92.5548 126.246 91.6555 126.246 90.6063C126.246 89.557 125.882 88.6577 125.165 87.9403C124.405 87.1802 123.505 86.8054 122.445 86.8054C121.385 86.8054 120.497 87.1802 119.758 87.9403C118.998 88.6684 118.623 89.557 118.623 90.6063C118.623 91.6555 118.998 92.5548 119.758 93.2936C120.497 94.0538 121.396 94.4285 122.445 94.4285C123.495 94.4285 124.405 94.0538 125.165 93.2936Z" fill="#F5CED3"/>
<path d="M111.502 89.6101C111.224 90.3916 110.646 90.9484 109.778 91.2589C109.586 91.3659 109.147 91.4516 108.461 91.4944C107.787 91.4516 107.337 91.3659 107.112 91.2589C106.588 91.0662 106.149 90.7343 105.796 90.2632L105.399 89.5994" stroke="#1E1E1E" stroke-width="1.32" stroke-linecap="round" stroke-linejoin="round"/>
<path d="M98.0264 86.4729L98.3583 86.8476C98.6366 87.126 98.9792 87.3508 99.3754 87.5114C100.617 88.0361 102.116 87.8648 103.861 87.0189" stroke="#1E1E1E" stroke-width="1.32" stroke-linecap="round" stroke-linejoin="round"/>
<path d="M118.966 86.4729L118.634 86.8476C118.356 87.126 118.013 87.3508 117.617 87.5114C116.375 88.0361 114.876 87.8648 113.131 87.0189" stroke="#1E1E1E" stroke-width="1.32" stroke-linecap="round" stroke-linejoin="round"/>
<path d="M107.031 104.149C105.254 104.588 102.931 105.231 100.072 106.076C99.6439 107.768 98.3699 110.166 96.25 113.261C99.2692 112.415 101.785 111.109 103.798 109.331C105.179 108.079 106.25 106.687 106.989 105.166C107.128 104.802 107.149 104.471 107.031 104.149ZM100.072 106.076C100.072 106.076 100.072 106.002 100.094 105.959C99.5155 105.456 98.7553 104.92 97.8238 104.353C95.9395 103.282 94.0872 102.693 92.2778 102.575C89.5262 103.325 87.2243 104.567 85.3828 106.323C85.3721 106.333 85.3507 106.355 85.34 106.387C87.0851 106.376 88.7768 106.708 90.4149 107.383C91.1965 107.715 91.8281 108.057 92.2778 108.4C95.2007 107.5 97.8024 106.73 100.061 106.076M92.2778 108.4C92.1493 108.443 92.0209 108.475 91.9031 108.518L82.5348 111.419C82.6312 111.633 82.8025 111.837 83.0488 112.019C84.2907 112.897 85.7682 113.507 87.4599 113.839C89.9759 114.331 92.8239 114.16 96.0037 113.314C96.0787 113.303 96.1643 113.282 96.2393 113.25C98.3592 110.156 99.6332 107.757 100.061 106.066C97.7917 106.719 95.2007 107.49 92.2778 108.389C92.2885 108.4 92.3099 108.411 92.3206 108.432C91.8924 109.963 90.811 111.794 89.0658 113.892C90.811 111.783 91.9031 109.963 92.3206 108.432C92.3099 108.421 92.2885 108.411 92.2778 108.389M91.9031 108.507C92.0316 108.464 92.16 108.432 92.2778 108.389C91.8174 108.047 91.1965 107.704 90.4149 107.372C88.7768 106.687 87.0851 106.355 85.34 106.376C84.1087 107.554 83.1665 108.86 82.5027 110.306C82.3421 110.723 82.3528 111.098 82.5241 111.43L91.8924 108.528M92.5776 102.479C92.4705 102.501 92.3635 102.543 92.2671 102.575C94.0765 102.693 95.9288 103.293 97.8131 104.353C98.7446 104.909 99.494 105.445 100.083 105.959C100.072 106.002 100.061 106.034 100.061 106.076C102.92 105.231 105.243 104.599 107.021 104.149C107.01 104.106 106.989 104.074 106.978 104.032C106.807 103.635 106.496 103.346 106.057 103.186C104.44 102.533 102.695 102.094 100.822 101.88C98.1022 101.569 95.3506 101.762 92.5883 102.458L92.5776 102.479Z" fill="#4FB35B"/>
<path d="M92.2752 102.565C94.0846 102.683 95.9368 103.272 97.8212 104.342C98.7526 104.91 99.5128 105.445 100.091 105.948M100.08 105.948C100.059 105.991 100.059 106.066 100.059 106.066C102.918 105.22 105.241 104.588 107.018 104.139M82.5215 111.409L91.8897 108.507C92.0182 108.464 92.1467 108.432 92.2645 108.389C91.8041 108.047 91.1831 107.704 90.4015 107.372C88.7634 106.687 87.0718 106.355 85.3266 106.376M89.0525 113.903C90.7977 111.794 91.8897 109.974 92.3073 108.443C92.2966 108.432 92.2752 108.421 92.2645 108.4C95.1874 107.501 97.7891 106.73 100.048 106.077C99.6199 107.768 98.3458 110.167 96.2259 113.261" stroke="#37773E" stroke-width="1.32" stroke-linecap="round" stroke-linejoin="round"/>
<path d="M106.975 105.156C107.114 104.792 107.136 104.46 107.018 104.139C107.007 104.096 106.986 104.064 106.975 104.021C106.804 103.625 106.493 103.336 106.054 103.175C104.438 102.522 102.692 102.083 100.819 101.869C98.0993 101.558 95.3477 101.751 92.5854 102.447C92.4783 102.468 92.3712 102.511 92.2749 102.543C89.5233 103.293 87.2214 104.535 85.3799 106.291C85.3691 106.301 85.3477 106.323 85.337 106.355C84.1058 107.533 83.1636 108.839 82.4998 110.284C82.3392 110.702 82.3499 111.076 82.5212 111.408C82.6176 111.622 82.7889 111.826 83.0351 112.008C84.2771 112.886 85.7546 113.496 87.4462 113.828C89.9623 114.321 92.8102 114.149 95.9901 113.303C96.065 113.293 96.1507 113.271 96.2256 113.239C99.2449 112.393 101.761 111.087 103.774 109.31C105.155 108.057 106.226 106.665 106.964 105.145L106.975 105.156Z" stroke="#1E1E1E" stroke-width="1.32" stroke-linecap="round" stroke-linejoin="round"/>
<path d="M126.667 107.394L124.825 108.39C127.77 109.289 131.025 110.295 134.601 111.43C134.761 111.098 134.75 110.724 134.579 110.306C133.915 108.861 132.984 107.555 131.774 106.377C129.997 106.366 128.294 106.698 126.678 107.373M124.74 108.411L124.836 108.368C121.924 107.469 119.322 106.698 117.02 106.045C117.277 107.094 117.984 108.582 119.172 110.51C119.751 111.495 120.318 112.415 120.875 113.25C120.939 113.272 121.003 113.293 121.089 113.315C124.269 114.161 127.127 114.332 129.676 113.839C131.389 113.518 132.845 112.908 134.044 112.019C134.311 111.837 134.504 111.634 134.611 111.42C131.035 110.285 127.78 109.268 124.836 108.379L124.74 108.422C125.179 109.974 126.271 111.794 128.016 113.882C126.271 111.784 125.179 109.964 124.74 108.422M116.999 105.959C116.999 105.959 116.999 106.024 117.02 106.056C119.322 106.709 121.924 107.48 124.836 108.379L126.678 107.383C128.294 106.698 129.997 106.366 131.774 106.388C131.742 106.366 131.72 106.345 131.699 106.323C129.858 104.578 127.566 103.336 124.836 102.597C123.016 102.694 121.164 103.283 119.29 104.364C118.348 104.91 117.588 105.445 116.999 105.97M110.104 104.15C109.965 104.493 109.975 104.846 110.125 105.188C110.853 106.709 111.913 108.101 113.316 109.353C115.318 111.131 117.834 112.437 120.864 113.283C120.318 112.437 119.751 111.527 119.162 110.542C117.984 108.615 117.267 107.126 117.01 106.077C114.29 105.274 111.978 104.632 110.093 104.15M124.825 102.608C124.718 102.565 124.601 102.533 124.494 102.512C121.721 101.805 118.98 101.602 116.26 101.912C114.387 102.126 112.641 102.555 111.025 103.218C110.618 103.379 110.329 103.657 110.147 104.064C110.136 104.086 110.115 104.128 110.104 104.161C111.988 104.642 114.301 105.285 117.02 106.088C117.01 106.045 116.999 106.013 116.999 105.991C117.577 105.467 118.348 104.942 119.29 104.385C121.164 103.304 123.016 102.715 124.836 102.619L124.825 102.608Z" fill="#4FB35B"/>
<path d="M120.851 113.272C120.305 112.426 119.737 111.516 119.149 110.531C117.971 108.604 117.253 107.116 116.997 106.066M116.997 106.066C114.277 105.263 111.964 104.621 110.08 104.139M116.997 106.066C116.997 106.066 116.975 105.991 116.975 105.97C117.553 105.445 118.324 104.921 119.266 104.364C121.14 103.283 122.992 102.694 124.812 102.597M128.003 113.893C126.258 111.794 125.166 109.974 124.727 108.432L124.823 108.39M124.823 108.39C121.911 107.49 119.309 106.719 117.007 106.066M124.823 108.39L126.665 107.394C128.281 106.709 129.984 106.377 131.761 106.398M134.598 111.441C131.022 110.306 127.767 109.289 124.823 108.4" stroke="#37773E" stroke-width="1.32" stroke-linecap="round" stroke-linejoin="round"/>
<path d="M110.112 105.178C109.941 104.792 109.952 104.407 110.134 104.032C110.305 103.636 110.594 103.347 111.012 103.186C112.628 102.533 114.374 102.094 116.247 101.88C118.967 101.57 121.718 101.773 124.481 102.48C127.361 103.218 129.759 104.492 131.675 106.302C132.917 107.49 133.881 108.818 134.555 110.285C134.855 110.97 134.673 111.537 134.009 112.008C132.81 112.908 131.354 113.507 129.641 113.829C127.093 114.321 124.224 114.15 121.054 113.304C117.928 112.458 115.337 111.13 113.292 109.321C111.89 108.068 110.83 106.677 110.102 105.156L110.112 105.178Z" stroke="#1E1E1E" stroke-width="1.32" stroke-linecap="round" stroke-linejoin="round"/>
<path d="M112.297 108.121C113.336 107.254 113.849 106.194 113.849 104.942C113.849 103.689 113.336 102.64 112.297 101.762C111.269 100.884 110.027 100.445 108.539 100.445C107.051 100.445 105.809 100.884 104.781 101.762C103.742 102.64 103.229 103.7 103.229 104.942C103.229 106.184 103.742 107.254 104.781 108.121C105.809 108.999 107.051 109.438 108.539 109.438C110.027 109.438 111.269 108.999 112.297 108.121ZM108.453 102.479C108.882 102.479 109.246 102.608 109.567 102.875C109.899 103.111 110.059 103.421 110.059 103.796C110.059 104.171 109.899 104.492 109.567 104.76C109.256 104.995 108.882 105.124 108.453 105.124C108.025 105.124 107.64 105.006 107.34 104.76C107.029 104.492 106.869 104.171 106.869 103.796C106.869 103.421 107.029 103.111 107.34 102.875C107.64 102.608 108.004 102.479 108.453 102.479Z" fill="#F6CB6D"/>
<path d="M109.556 102.875C109.246 102.608 108.871 102.479 108.443 102.479C108.015 102.479 107.629 102.608 107.329 102.875C107.019 103.111 106.858 103.421 106.858 103.796C106.858 104.171 107.019 104.492 107.329 104.76C107.629 104.995 107.993 105.124 108.443 105.124C108.893 105.124 109.235 105.006 109.556 104.76C109.888 104.492 110.049 104.171 110.049 103.796C110.049 103.421 109.888 103.111 109.556 102.875Z" fill="white"/>
<path d="M113.86 104.921C113.86 106.173 113.346 107.233 112.308 108.1C111.28 108.978 110.038 109.417 108.55 109.417C107.062 109.417 105.82 108.978 104.792 108.1C103.753 107.233 103.239 106.173 103.239 104.921C103.239 103.668 103.753 102.619 104.792 101.741C105.82 100.863 107.062 100.424 108.55 100.424C110.038 100.424 111.28 100.863 112.308 101.741C113.346 102.619 113.86 103.679 113.86 104.921Z" stroke="#1E1E1E" stroke-width="1.32" stroke-linecap="round" stroke-linejoin="round"/>
</svg>
