<svg width="340" height="376" viewBox="0 0 340 376" fill="none" xmlns="http://www.w3.org/2000/svg">
<path d="M8.79688 227.196L34.0432 245.645L67.0577 216.515L121.92 250.5" stroke="#3E8BFD" stroke-opacity="0.25"/>
<circle cx="8.79709" cy="226.71" r="6.29709" fill="white" stroke="#3E8BFD"/>
<circle cx="8.79683" cy="226.71" r="2.91304" fill="#3E8BFD"/>
<circle cx="34.529" cy="245.645" r="4.84057" fill="white" stroke="#3E8BFD"/>
<circle cx="34.5291" cy="245.645" r="2.28882" fill="#3E8BFD"/>
<circle cx="66.574" cy="216.514" r="4.84057" fill="white" stroke="#3E8BFD"/>
<circle cx="66.574" cy="216.514" r="2.28882" fill="#3E8BFD"/>
<path d="M331.659 180.587L302.043 157.768L257.862 191.754" stroke="#3E8BFD" stroke-opacity="0.25"/>
<circle cx="302.044" cy="157.768" r="7.26811" fill="white" stroke="#3E8BFD"/>
<circle cx="302.043" cy="157.769" r="3.32919" fill="#3E8BFD"/>
<circle cx="332.144" cy="181.073" r="4.35507" fill="white" stroke="#3E8BFD"/>
<circle cx="332.145" cy="181.073" r="2.08074" fill="#3E8BFD"/>
<path d="M22.5901 186.41C31.3787 195.199 45.6213 195.199 54.4099 186.41C63.1985 177.622 63.1985 163.379 54.4099 154.591C45.6213 145.802 31.3787 145.802 22.5901 154.591C13.8015 163.379 13.8015 177.622 22.5901 186.41ZM46.6394 162.361C51.1345 166.856 51.1345 174.145 46.6394 178.64C42.1443 183.135 34.8557 183.135 30.3606 178.64C25.8655 174.145 25.8655 166.856 30.3606 162.361C34.8557 157.866 42.1443 157.866 46.6394 162.361Z" fill="#4A93FF"/>
<mask id="mask0_7761_13752" style="mask-type:alpha" maskUnits="userSpaceOnUse" x="15" y="147" width="47" height="47">
<path d="M22.5901 186.41C31.3787 195.199 45.6213 195.199 54.4099 186.41C63.1985 177.622 63.1985 163.379 54.4099 154.591C45.6213 145.802 31.3787 145.802 22.5901 154.591C13.8015 163.379 13.8015 177.622 22.5901 186.41ZM46.6394 162.361C51.1345 166.856 51.1345 174.145 46.6394 178.64C42.1443 183.135 34.8557 183.135 30.3606 178.64C25.8655 174.145 25.8655 166.856 30.3606 162.361C34.8557 157.866 42.1443 157.866 46.6394 162.361Z" fill="white"/>
</mask>
<g mask="url(#mask0_7761_13752)">
<rect x="56.7969" y="188.797" width="25.875" height="27" transform="rotate(-135 56.7969 188.797)" fill="#55BC61"/>
</g>
<mask id="mask1_7761_13752" style="mask-type:alpha" maskUnits="userSpaceOnUse" x="15" y="147" width="47" height="47">
<path d="M22.5901 186.41C31.3787 195.199 45.6213 195.199 54.4099 186.41C63.1985 177.622 63.1985 163.379 54.4099 154.591C45.6213 145.802 31.3787 145.802 22.5901 154.591C13.8015 163.379 13.8015 177.622 22.5901 186.41ZM46.6394 162.361C51.1345 166.856 51.1345 174.145 46.6394 178.64C42.1443 183.135 34.8557 183.135 30.3606 178.64C25.8655 174.145 25.8655 166.856 30.3606 162.361C34.8557 157.866 42.1443 157.866 46.6394 162.361Z" fill="#43C7F5"/>
</mask>
<g mask="url(#mask1_7761_13752)">
<path d="M73.502 171.296C62.0999 170.766 39.2161 169.625 38.8979 169.307L57.9898 150.215L73.502 171.296Z" fill="#FFD22E"/>
</g>
<path d="M166.549 297.331C190.869 301.803 197.946 298.414 198.444 296.161C227.825 295.083 285.374 294.622 280.513 301.402C274.436 309.877 132.958 315.584 103.471 303.256C73.9847 290.928 136.148 291.742 166.549 297.331Z" fill="#E1E1E1"/>
<path d="M172.838 239.578C171.706 234.451 167.755 230.954 162.707 229.687C147.844 225.957 133.476 237.525 125.693 247.03L125.637 247.096L125.508 247.068L125.38 247.096L125.324 247.03C117.541 237.525 103.173 225.957 88.3093 229.687C83.2611 230.954 79.3119 234.451 78.1783 239.578C76.6969 246.28 79.5336 253.353 85.3438 257.046C88.8231 259.259 92.5744 259.792 96.2236 260.082C91.9266 265.027 90.6775 273.512 96.3045 278.806C103.693 285.756 115.137 279.626 119.409 273.394C122.528 268.844 124.081 263.579 125.057 258.426C125.057 258.426 125.247 258.227 125.508 258.222C125.771 258.227 125.96 258.426 125.96 258.426C126.935 263.578 128.488 268.844 131.608 273.394C135.881 279.626 147.323 285.756 154.713 278.806C160.34 273.512 159.091 265.029 154.794 260.082C158.443 259.792 162.194 259.259 165.674 257.046C171.484 253.352 174.32 246.28 172.84 239.578H172.838Z" fill="#B8E1F4"/>
<path d="M104.151 282.669C100.945 282.669 98.071 281.546 95.764 279.377C90.2059 274.149 90.867 266.116 94.7073 260.735C91.5958 260.417 88.159 259.767 84.9214 257.709C78.8616 253.855 75.843 246.501 77.4094 239.406C78.551 234.239 82.5546 230.319 88.1166 228.922C102.201 225.39 116.574 235.341 125.508 246.017C134.492 235.305 148.835 225.395 162.899 228.922C168.463 230.319 172.466 234.239 173.608 239.406C175.176 246.5 172.157 253.854 166.096 257.709C162.858 259.767 159.422 260.417 156.31 260.735C160.15 266.115 160.811 274.149 155.253 279.377C152.584 281.888 149.151 282.999 145.329 282.586C139.118 281.917 133.526 277.582 130.958 273.838C128.472 270.211 126.724 265.837 125.509 260.169C124.293 265.838 122.545 270.211 120.059 273.838C117.492 277.582 111.899 281.918 105.688 282.586C105.168 282.642 104.655 282.669 104.151 282.669ZM94.0608 229.768C92.2091 229.768 90.352 229.984 88.5015 230.449C83.4559 231.716 79.974 235.104 78.9479 239.746C77.5236 246.198 80.2634 252.883 85.767 256.382C89.213 258.574 93.0042 259.036 96.2856 259.297C96.5817 259.321 96.8392 259.509 96.952 259.784C97.0648 260.058 97.0131 260.372 96.8179 260.597C92.7679 265.258 91.6276 273.326 96.8445 278.233C99.202 280.451 102.114 281.395 105.519 281.024C110.98 280.435 116.313 276.517 118.758 272.95C121.346 269.176 123.101 264.514 124.283 258.28C124.311 258.133 124.381 257.995 124.485 257.886C124.555 257.812 124.931 257.446 125.496 257.437C126.087 257.446 126.462 257.813 126.533 257.886C126.636 257.996 126.707 258.133 126.735 258.28C127.915 264.514 129.67 269.175 132.258 272.95C134.705 276.517 140.037 280.437 145.498 281.024C148.895 281.395 151.815 280.451 154.173 278.233C159.39 273.326 158.248 265.258 154.198 260.597C154.003 260.373 153.951 260.059 154.064 259.784C154.177 259.509 154.434 259.321 154.73 259.297C158.013 259.036 161.803 258.574 165.249 256.382C170.754 252.883 173.494 246.196 172.068 239.746C171.043 235.104 167.56 231.716 162.514 230.449C148.92 227.033 134.894 237.033 126.302 247.527C126.123 247.745 125.785 247.911 125.508 247.871C125.236 247.92 124.956 247.817 124.777 247.604C117.298 238.472 105.813 229.768 94.0595 229.768H94.0608Z" fill="#1E1E1E"/>
<path d="M142.285 243.928C145.578 244.65 152.783 246.653 156.422 249.332L154.335 258.503L151.863 260.552L150.155 261.133C147.308 259.915 144.444 258.763 141.6 257.538C139.522 256.644 137.669 255.336 136.782 253.187C135.926 251.114 135.974 248.626 137.23 246.722C138.28 245.129 140.23 243.476 142.283 243.928H142.285Z" fill="white"/>
<path d="M150.157 261.919C150.051 261.919 149.946 261.898 149.846 261.855C148.507 261.283 147.163 260.724 145.82 260.166C144.308 259.538 142.796 258.908 141.289 258.259C138.62 257.11 136.908 255.549 136.055 253.487C135.052 251.056 135.25 248.297 136.572 246.29C137.747 244.509 139.991 242.615 142.454 243.161C143.464 243.382 152.429 245.415 156.89 248.699C157.142 248.884 157.26 249.201 157.19 249.506L155.103 258.677C155.064 258.845 154.971 258.997 154.837 259.107L152.366 261.156C152.291 261.217 152.208 261.264 152.117 261.295L150.409 261.877C150.327 261.904 150.24 261.919 150.154 261.919H150.157ZM141.601 244.641C140.186 244.641 138.754 245.842 137.89 247.154C136.849 248.733 136.706 250.93 137.513 252.887C138.201 254.551 139.641 255.837 141.913 256.816C143.413 257.463 144.92 258.088 146.425 258.715C147.68 259.236 148.936 259.758 150.189 260.292L151.472 259.855L153.627 258.068L155.537 249.671C152.009 247.299 145.513 245.44 142.116 244.697C141.945 244.658 141.774 244.641 141.601 244.641Z" fill="#1E1E1E"/>
<path d="M154.185 249.859C158.044 247.503 163.03 248.116 165.893 251.506C169.07 255.266 168.433 261.02 164.468 264.358C160.504 267.696 154.715 267.352 151.537 263.592C150.145 261.943 149.485 259.912 149.517 257.869" fill="white"/>
<path d="M158.264 267.439C158.062 267.439 157.861 267.432 157.659 267.421C154.999 267.264 152.611 266.083 150.934 264.098C149.475 262.372 148.692 260.155 148.728 257.856C148.734 257.421 149.066 257.098 149.528 257.082C149.964 257.088 150.31 257.446 150.303 257.881C150.273 259.801 150.925 261.648 152.138 263.084C153.534 264.737 155.528 265.72 157.753 265.851C159.988 265.98 162.196 265.24 163.959 263.756C165.72 262.272 166.827 260.23 167.074 258.004C167.32 255.792 166.687 253.664 165.29 252.012C162.703 248.95 158.206 248.326 154.595 250.529C154.225 250.757 153.739 250.639 153.512 250.269C153.285 249.898 153.402 249.415 153.773 249.188C158.05 246.578 163.401 247.338 166.494 250.998C168.171 252.983 168.933 255.533 168.641 258.176C168.349 260.804 167.046 263.213 164.974 264.957C163.06 266.568 160.699 267.437 158.265 267.437L158.264 267.439Z" fill="#1E1E1E"/>
<path d="M109.153 274.381V285.015C104.479 287.023 105.205 291.214 105.205 291.214C105.213 291.447 105.231 291.68 105.262 291.911C105.882 296.743 110.598 298.485 115.094 298.702C118.981 298.89 123.104 297.447 123.849 293.367C124.332 290.714 123.847 287.958 123.847 285.287C123.847 283.07 123.847 280.853 123.847 278.635V274.516L109.154 274.38L109.153 274.381Z" fill="white"/>
<path d="M115.711 299.505C115.49 299.505 115.272 299.498 115.056 299.489C108.906 299.191 105.051 296.465 104.48 292.013C104.449 291.774 104.429 291.536 104.419 291.295C104.164 289.678 104.692 286.338 108.364 284.514V274.383C108.364 274.173 108.448 273.972 108.598 273.823C108.748 273.676 108.963 273.58 109.159 273.595L123.853 273.732C124.285 273.736 124.633 274.087 124.633 274.518V285.288C124.633 286.153 124.688 287.056 124.739 287.929C124.85 289.755 124.962 291.646 124.623 293.509C123.81 297.96 119.457 299.504 115.711 299.505ZM109.941 275.175V285.015C109.941 285.329 109.754 285.613 109.464 285.737C105.446 287.464 105.959 290.938 105.981 291.085C106 291.395 106.016 291.605 106.042 291.813C106.702 296.958 112.618 297.797 115.131 297.919C118.518 298.083 122.395 296.938 123.072 293.228C123.379 291.552 123.271 289.758 123.166 288.024C123.112 287.129 123.057 286.202 123.057 285.289V275.298L109.94 275.176L109.941 275.175Z" fill="#1E1E1E"/>
<path d="M141.863 274.381V285.015C146.537 287.023 145.81 291.214 145.81 291.214C145.803 291.447 145.784 291.68 145.753 291.911C145.134 296.743 140.417 298.485 135.921 298.702C132.034 298.89 127.911 297.447 127.167 293.367C126.683 290.714 127.168 287.958 127.168 285.287C127.168 283.07 127.168 280.853 127.168 278.635V274.516L141.861 274.38L141.863 274.381Z" fill="white"/>
<path d="M135.305 299.505C131.559 299.505 127.207 297.962 126.394 293.509C126.054 291.646 126.167 289.757 126.277 287.929C126.329 287.057 126.384 286.154 126.384 285.288V274.518C126.384 274.087 126.731 273.736 127.164 273.732L141.858 273.596H141.864C142.071 273.596 142.27 273.678 142.419 273.824C142.568 273.972 142.653 274.172 142.653 274.383V284.514C146.326 286.338 146.854 289.678 146.598 291.295C146.589 291.536 146.567 291.775 146.537 292.013C145.965 296.465 142.111 299.191 135.961 299.489C135.745 299.5 135.526 299.505 135.305 299.505ZM127.959 275.297V285.288C127.959 286.2 127.903 287.128 127.85 288.025C127.747 289.759 127.639 291.552 127.945 293.228C128.622 296.937 132.483 298.081 135.885 297.919C138.398 297.797 144.315 296.958 144.974 291.813C145.001 291.606 145.018 291.397 145.026 291.189C145.026 291.153 145.031 291.119 145.037 291.083C145.059 290.941 145.572 287.467 141.554 285.739C141.264 285.616 141.077 285.331 141.077 285.017V275.177L127.959 275.298V275.297Z" fill="#1E1E1E"/>
<path d="M92.4326 253.595C92.4326 253.595 105 265.853 112.054 256.053C112.054 256.053 114.918 251.614 110.023 248.764C110.023 248.764 102.573 243.642 100.596 241.179L92.4326 253.595Z" fill="white"/>
<path d="M91.7369 253.961C91.6069 253.713 91.6148 253.407 91.7754 253.163L99.9392 240.747C100.077 240.537 100.308 240.405 100.56 240.393C100.813 240.382 101.054 240.492 101.212 240.688C103.095 243.032 110.397 248.066 110.47 248.116C112.113 249.071 113.162 250.352 113.53 251.887C114.106 254.287 112.772 256.39 112.716 256.479C110.911 258.99 108.633 260.365 105.926 260.601C99.1773 261.189 92.1777 254.443 91.883 254.157C91.8232 254.099 91.7741 254.033 91.7369 253.961ZM100.699 242.458L93.46 253.468C95.0994 254.919 100.693 259.48 105.793 259.035C108.021 258.84 109.912 257.682 111.415 255.594C111.415 255.594 112.419 253.968 111.996 252.24C111.728 251.141 110.93 250.199 109.627 249.441C109.303 249.221 103.336 245.108 100.7 242.457L100.699 242.458Z" fill="#1E1E1E"/>
<path d="M110.409 242.08C109.529 243.441 108.743 244.861 108.001 246.294C106.352 249.477 104.947 252.795 103.979 256.225C102.925 259.96 102.325 263.977 103.147 267.808C103.999 271.79 106.561 275.034 110.307 276.975C114.94 279.375 120.287 280.186 125.509 280.166C130.731 280.186 136.078 279.375 140.711 276.975C144.458 275.034 147.019 271.79 147.871 267.808C148.691 263.977 148.091 259.96 147.038 256.225C146.071 252.795 144.665 249.477 143.016 246.294C142.274 244.861 141.488 243.441 140.608 242.08H110.41H110.409Z" fill="#F6CB6D"/>
<path d="M147.038 256.223C146.587 254.627 146.035 253.058 145.415 251.513C141.563 253.536 137.296 254.994 133.074 255.886C130.57 256.414 128.039 256.699 125.509 256.771C122.978 256.7 120.447 256.416 117.943 255.886C113.722 254.994 109.454 253.536 105.602 251.513C104.982 253.058 104.429 254.627 103.979 256.223C103.49 257.955 103.108 259.748 102.91 261.556C103.324 261.782 103.744 261.998 104.17 262.204C108.979 264.528 114.374 265.724 119.686 266.437C121.595 266.693 123.533 266.922 125.461 266.978C125.477 266.978 125.493 266.978 125.509 266.978C125.524 266.978 125.54 266.978 125.556 266.978C127.484 266.922 129.423 266.693 131.331 266.437C136.644 265.724 142.038 264.529 146.847 262.204C147.272 261.998 147.693 261.782 148.107 261.556C147.91 259.749 147.527 257.955 147.038 256.223Z" fill="#4C4C4C"/>
<path d="M148.154 262.97C145.713 266.244 139.57 270.96 125.509 271.208C111.449 270.96 105.306 266.244 102.865 262.97C102.821 263.432 102.794 263.896 102.778 264.36C102.797 265.517 102.903 266.669 103.146 267.806C103.998 271.788 106.56 275.032 110.306 276.973C114.939 279.373 120.286 280.184 125.508 280.164C130.73 280.184 136.077 279.373 140.71 276.973C144.457 275.032 147.018 271.788 147.87 267.806C148.113 266.671 148.219 265.517 148.238 264.36C148.222 263.896 148.195 263.432 148.152 262.97H148.154Z" fill="#4C4C4C"/>
<path d="M125.688 280.951C125.567 280.951 125.444 280.951 125.321 280.951C119.32 280.951 114.144 279.848 109.943 277.671C105.961 275.607 103.273 272.163 102.374 267.972C101.64 264.542 101.916 260.629 103.219 256.011C104.138 252.757 105.473 249.459 107.3 245.931C108.184 244.226 108.962 242.866 109.746 241.653C109.981 241.288 110.47 241.185 110.835 241.419C111.2 241.655 111.306 242.142 111.07 242.507C110.313 243.676 109.561 244.995 108.699 246.655C106.922 250.087 105.625 253.287 104.735 256.438C103.504 260.804 103.235 264.471 103.915 267.643C104.713 271.368 107.112 274.433 110.669 276.276C114.686 278.358 119.653 279.354 125.506 279.379C131.337 279.387 136.331 278.358 140.348 276.276C143.906 274.433 146.304 271.368 147.101 267.643C147.78 264.469 147.512 260.804 146.28 256.438C145.391 253.287 144.094 250.087 142.317 246.655C141.458 244.995 140.704 243.677 139.946 242.507C139.71 242.142 139.814 241.655 140.181 241.419C140.546 241.185 141.033 241.288 141.269 241.653C142.055 242.866 142.833 244.226 143.716 245.931C145.544 249.459 146.879 252.757 147.796 256.011C149.1 260.629 149.376 264.541 148.642 267.972C147.745 272.163 145.056 275.608 141.074 277.671C136.871 279.848 131.696 280.951 125.689 280.951H125.688Z" fill="#1E1E1E"/>
<path d="M101.743 171.547C101.453 171.547 101.173 171.386 101.036 171.108L95.8734 160.638C95.6809 160.249 95.8415 159.777 96.2318 159.586C96.6207 159.393 97.0933 159.554 97.2858 159.944L102.448 170.414C102.641 170.803 102.48 171.275 102.09 171.466C101.978 171.521 101.86 171.547 101.742 171.547H101.743Z" fill="#1E1E1E"/>
<path d="M94.4124 161.11C97.3471 161.11 99.7261 158.735 99.7261 155.805C99.7261 152.876 97.3471 150.501 94.4124 150.501C91.4777 150.501 89.0986 152.876 89.0986 155.805C89.0986 158.735 91.4777 161.11 94.4124 161.11Z" fill="#F6CB6D"/>
<path d="M94.4125 161.897C92.7824 161.897 91.2505 161.264 90.0983 160.112C88.946 158.962 88.3115 157.433 88.3115 155.805C88.3115 154.178 88.946 152.649 90.0983 151.499C91.2505 150.349 92.781 149.715 94.4098 149.715H94.4125C97.7762 149.715 100.513 152.448 100.513 155.807C100.513 159.166 97.7762 161.897 94.4111 161.897H94.4125ZM94.4125 151.288C93.2045 151.288 92.0682 151.759 91.2133 152.611C90.3584 153.464 89.8872 154.598 89.8872 155.805C89.8872 157.013 90.3571 158.147 91.212 159C92.0669 159.854 93.2032 160.324 94.4125 160.324C96.908 160.324 98.939 158.298 98.939 155.807C98.939 153.316 96.908 151.288 94.4138 151.288H94.4125Z" fill="#1E1E1E"/>
<path d="M149.273 171.547C149.156 171.547 149.038 171.521 148.925 171.466C148.535 171.275 148.374 170.802 148.567 170.414L153.729 159.944C153.922 159.554 154.394 159.393 154.783 159.586C155.173 159.777 155.334 160.25 155.142 160.638L149.979 171.108C149.842 171.386 149.562 171.547 149.272 171.547H149.273Z" fill="#1E1E1E"/>
<path d="M156.603 161.11C159.538 161.11 161.917 158.735 161.917 155.806C161.917 152.876 159.538 150.501 156.603 150.501C153.668 150.501 151.289 152.876 151.289 155.806C151.289 158.735 153.668 161.11 156.603 161.11Z" fill="#F6CB6D"/>
<path d="M156.604 161.897C153.24 161.897 150.503 159.166 150.502 155.807C150.502 152.449 153.239 149.716 156.603 149.716H156.606C158.234 149.716 159.766 150.349 160.917 151.499C162.069 152.65 162.704 154.179 162.705 155.806C162.705 159.164 159.968 161.897 156.604 161.897ZM152.078 155.807C152.078 158.298 154.109 160.325 156.604 160.325C159.1 160.325 161.129 158.297 161.129 155.806C161.129 154.599 160.658 153.465 159.803 152.611C158.948 151.758 157.814 151.289 156.606 151.289H156.604C154.109 151.289 152.078 153.316 152.078 155.807Z" fill="#1E1E1E"/>
<path d="M140.426 243.852C178.753 241.71 168.458 216.428 168.458 216.428C171.228 207.024 170.632 195.721 166.213 186.913C163.261 181.027 158.604 176.111 153.164 172.439C145.103 166.996 135.282 164.339 125.507 164.328C115.733 164.34 105.911 166.997 97.8498 172.439C92.4099 176.111 87.7546 181.027 84.801 186.913C80.382 195.722 79.7859 207.025 82.5563 216.428C82.5563 216.428 72.2607 241.71 110.588 243.852" fill="#F6CB6D"/>
<path d="M140.426 244.639C140.011 244.639 139.664 244.316 139.641 243.897C139.617 243.463 139.948 243.093 140.383 243.068C153.676 242.326 162.462 238.731 166.496 232.384C171.068 225.192 167.761 216.808 167.728 216.725C167.661 216.561 167.652 216.378 167.703 216.208C170.516 206.66 169.675 195.57 165.51 187.267C162.759 181.784 158.338 176.882 152.724 173.091C145.123 167.959 135.456 165.126 125.507 165.115C115.559 165.126 105.894 167.959 98.2933 173.091C92.6809 176.881 88.2591 181.782 85.5074 187.267C81.3418 195.57 80.5016 206.66 83.3144 216.208C83.3635 216.378 83.3556 216.562 83.2892 216.725C83.2547 216.808 79.9494 225.192 84.5211 232.384C88.5565 238.731 97.3415 242.326 110.635 243.068C111.069 243.093 111.402 243.463 111.377 243.897C111.353 244.332 110.984 244.673 110.546 244.638C96.7057 243.864 87.4985 240.019 83.1804 233.21C78.5954 225.981 81.1547 217.965 81.7281 216.395C78.898 206.538 79.7994 195.131 84.0989 186.561C86.9715 180.836 91.5738 175.727 97.4105 171.787C105.269 166.481 115.249 163.553 125.509 163.541C135.771 163.553 145.749 166.481 153.608 171.787C159.445 175.728 164.047 180.837 166.918 186.561C171.218 195.131 172.12 206.538 169.289 216.395C169.862 217.965 172.422 225.981 167.837 233.21C163.519 240.019 154.311 243.864 140.471 244.638C140.457 244.638 140.442 244.638 140.426 244.638V244.639Z" fill="#1E1E1E"/>
<path d="M159.235 219.002C158.904 217.187 158.183 215.447 157.184 213.896C157.037 213.667 155.73 212.281 155.769 212.06C156.822 206.252 156.736 200.933 155.452 196.35C154.085 191.467 151.507 186.857 147.699 183.459C142.792 179.082 135.738 176.638 128.432 176.123C127.46 176.054 126.485 176.029 125.508 176.029C124.531 176.029 123.555 176.056 122.583 176.123C115.277 176.638 108.223 179.082 103.317 183.459C99.5071 186.858 96.9292 191.468 95.5632 196.35C94.2796 200.933 94.1946 206.252 95.246 212.06C95.2858 212.281 93.9783 213.667 93.8309 213.896C92.8327 215.447 92.1119 217.187 91.78 219.002C90.7858 224.436 93.4261 229.738 97.9407 232.749C100.661 234.561 103.675 235.9 106.8 236.846C109.958 237.802 113.228 238.367 116.513 238.657C119.451 238.917 122.474 239.057 125.506 239.068C128.538 239.057 131.564 238.917 134.5 238.657C137.784 238.367 141.055 237.802 144.213 236.846C147.338 235.9 150.353 234.561 153.072 232.749C157.587 229.738 160.228 224.436 159.233 219.002H159.235Z" fill="white"/>
<path d="M125.511 239.856C122.474 239.845 119.425 239.705 116.445 239.441C112.893 239.127 109.572 238.507 106.573 237.599C103.2 236.577 100.148 235.165 97.5051 233.404C92.5457 230.096 89.9944 224.389 91.0059 218.862C91.3457 217.006 92.0931 215.143 93.1696 213.473C93.2241 213.388 93.4139 213.159 93.6515 212.885C93.8573 212.649 94.2449 212.2 94.4267 211.951C93.39 206.058 93.5174 200.742 94.8051 196.14C96.3037 190.786 99.0661 186.2 102.792 182.874C107.615 178.571 114.624 175.896 122.527 175.341C123.443 175.276 124.418 175.244 125.507 175.244C126.597 175.244 127.57 175.276 128.488 175.341C136.391 175.897 143.4 178.573 148.223 182.874C151.949 186.199 154.711 190.785 156.21 196.14C157.499 200.74 157.626 206.059 156.59 211.951C156.771 212.201 157.16 212.65 157.366 212.887C157.602 213.16 157.792 213.388 157.847 213.474C158.922 215.144 159.671 217.007 160.01 218.864C161.022 224.392 158.471 230.099 153.511 233.405C150.867 235.169 147.817 236.579 144.442 237.6C141.443 238.508 138.124 239.128 134.57 239.442C131.59 239.706 128.542 239.845 125.51 239.857L125.511 239.856ZM125.509 176.817C124.457 176.817 123.519 176.846 122.64 176.91C115.083 177.441 108.407 179.976 103.844 184.048C100.34 187.171 97.7414 191.5 96.3223 196.564C95.0812 200.999 94.9803 206.167 96.0223 211.923C96.1126 212.418 95.8113 212.796 94.8436 213.914C94.6789 214.104 94.5409 214.26 94.4865 214.336C93.5294 215.822 92.859 217.489 92.555 219.144C91.6564 224.054 93.9422 229.137 98.3785 232.096C100.894 233.774 103.804 235.118 107.029 236.095C109.923 236.971 113.138 237.57 116.583 237.876C119.519 238.136 122.522 238.274 125.51 238.284C128.492 238.274 131.494 238.136 134.431 237.876C137.875 237.571 141.09 236.972 143.984 236.095C147.21 235.118 150.12 233.774 152.635 232.096C157.071 229.14 159.357 224.054 158.459 219.144C158.156 217.489 157.486 215.822 156.521 214.322C156.474 214.26 156.336 214.104 156.173 213.914C155.205 212.796 154.902 212.42 154.993 211.923C156.036 206.165 155.935 200.999 154.693 196.562C153.275 191.498 150.674 187.17 147.173 184.047C142.609 179.975 135.933 177.44 128.376 176.908C127.496 176.846 126.557 176.816 125.507 176.816L125.509 176.817Z" fill="#1E1E1E"/>
<path d="M131.862 176.511C130.458 172.957 126.486 171.682 123.013 171.914C120.486 172.084 117.9 172.895 115.898 174.507C114.005 176.033 112.776 178.575 112.446 180.972C111.964 184.469 113.336 188.348 116.071 190.573C118.219 192.321 121.081 193.187 123.758 193.526C126.494 193.872 130.616 193.681 132.345 191.096C132.736 190.512 132.971 189.804 132.913 189.101C132.777 187.41 131.262 187.076 129.9 186.767C128.802 186.518 127.608 186.298 126.782 185.453C125.354 183.99 125.878 181.601 126.802 179.989C127.363 179.01 128.177 178.182 129.136 177.603C129.781 177.213 131.06 176.344 131.862 176.512V176.511Z" fill="#4FB35B"/>
<path d="M125.789 194.438C124.878 194.438 124.115 194.364 123.658 194.307C121.365 194.016 118.099 193.239 115.573 191.182C112.707 188.85 111.137 184.704 111.665 180.866C112.045 178.121 113.477 175.451 115.403 173.896C117.376 172.307 120.06 171.324 122.96 171.131C126.386 170.895 130.963 172.097 132.595 176.223C132.701 176.492 132.65 176.797 132.463 177.018C132.277 177.238 131.987 177.343 131.7 177.282C131.299 177.2 130.185 177.878 129.769 178.137L129.542 178.276C128.689 178.79 127.978 179.516 127.484 180.38C126.645 181.843 126.277 183.811 127.345 184.904C127.951 185.527 128.874 185.732 129.851 185.951L130.073 186.001C131.457 186.315 133.515 186.781 133.698 189.038C133.765 189.874 133.517 190.761 133 191.535C131.375 193.963 128.104 194.439 125.789 194.439V194.438ZM123.783 172.676C123.539 172.676 123.3 172.684 123.066 172.7C120.486 172.873 118.116 173.732 116.393 175.121C114.766 176.432 113.553 178.716 113.226 181.081C112.769 184.395 114.113 187.965 116.568 189.964C118.807 191.785 121.767 192.483 123.856 192.747C126.727 193.107 130.29 192.752 131.689 190.66C132.011 190.18 132.166 189.649 132.127 189.165C132.046 188.169 131.304 187.893 129.747 187.541L129.506 187.486C128.401 187.24 127.15 186.96 126.216 186.002C124.464 184.207 125.068 181.431 126.117 179.599C126.745 178.505 127.646 177.583 128.727 176.931L128.939 176.8C129.417 176.504 130.038 176.121 130.675 175.895C129.214 173.523 126.271 172.676 123.782 172.676H123.783Z" fill="#1E1E1E"/>
<path d="M103.344 229.508C107.581 229.508 111.016 225.949 111.016 221.559C111.016 217.168 107.581 213.609 103.344 213.609C99.106 213.609 95.6709 217.168 95.6709 221.559C95.6709 225.949 99.106 229.508 103.344 229.508Z" fill="#F5CED3"/>
<path d="M147.674 229.511C151.911 229.511 155.346 225.952 155.346 221.562C155.346 217.171 151.911 213.612 147.674 213.612C143.436 213.612 140.001 217.171 140.001 221.562C140.001 225.952 143.436 229.511 147.674 229.511Z" fill="#F5CED3"/>
<path d="M137.242 216.487C139.446 216.487 141.233 214.29 141.233 211.579C141.233 208.868 139.446 206.671 137.242 206.671C135.038 206.671 133.252 208.868 133.252 211.579C133.252 214.29 135.038 216.487 137.242 216.487Z" fill="#1E1E1E"/>
<path d="M138.086 211.312C138.83 211.312 139.432 210.711 139.432 209.969C139.432 209.227 138.83 208.625 138.086 208.625C137.343 208.625 136.74 209.227 136.74 209.969C136.74 210.711 137.343 211.312 138.086 211.312Z" fill="white"/>
<path d="M113.775 216.485C115.979 216.485 117.766 214.288 117.766 211.577C117.766 208.866 115.979 206.669 113.775 206.669C111.572 206.669 109.785 208.866 109.785 211.577C109.785 214.288 111.572 216.485 113.775 216.485Z" fill="#1E1E1E"/>
<path d="M114.619 211.31C115.363 211.31 115.965 210.709 115.965 209.967C115.965 209.225 115.363 208.623 114.619 208.623C113.876 208.623 113.273 209.225 113.273 209.967C113.273 210.709 113.876 211.31 114.619 211.31Z" fill="white"/>
<path d="M94.2939 254.063C91.0895 253.99 88.0297 252.244 86.4421 249.229C84.1031 244.792 85.8434 239.285 90.3275 236.93C94.8116 234.575 100.343 236.265 102.682 240.704C103.37 242.009 103.705 243.407 103.721 244.79" fill="white"/>
<path d="M85.7453 249.596C83.2085 244.781 85.0988 238.788 89.9599 236.235C94.8223 233.683 100.841 235.524 103.378 240.339C104.109 241.728 104.489 243.223 104.507 244.782C104.513 245.216 104.164 245.572 103.728 245.577C103.294 245.581 102.936 245.236 102.932 244.8C102.917 243.49 102.597 242.237 101.983 241.071C99.8494 237.023 94.7852 235.478 90.6913 237.627C86.5988 239.775 85.0046 244.817 87.1364 248.865C88.5342 251.518 91.2834 253.209 94.3086 253.278C94.744 253.287 95.0892 253.647 95.0772 254.082C95.0679 254.515 94.7068 254.86 94.2714 254.849C90.6741 254.768 87.4046 252.755 85.7413 249.596H85.7453Z" fill="#1E1E1E"/>
<path d="M128.126 221.413C129.079 224.256 129.627 228.053 126.984 230.203C126.389 230.686 125.639 231.003 124.871 230.994C122.438 230.964 121.224 228.414 121.285 226.301C121.336 224.574 121.692 222.869 122.475 221.319L124.944 220.525L128.126 221.413Z" fill="#FDE5EA"/>
<path d="M128.805 221.978C127.902 222.072 126.789 221.88 125.497 221.134C125.488 221.135 125.331 221.09 125.226 221.141C122.169 222.698 120.198 221.347 119.586 220.413C119.382 220.1 119.469 219.683 119.782 219.479C120.096 219.274 120.514 219.362 120.718 219.675C120.831 219.841 121.949 221.294 124.636 219.925C125.372 219.59 126.06 219.907 126.134 219.945C128.79 221.476 129.976 220.081 130.103 219.915C130.329 219.623 130.751 219.561 131.047 219.782C131.343 220.004 131.408 220.42 131.19 220.718C130.816 221.231 129.993 221.855 128.804 221.978H128.805Z" fill="#1E1E1E"/>
<path d="M125.265 231.65C125.131 231.665 124.997 231.67 124.863 231.668C123.806 231.655 122.853 231.238 122.108 230.463C121.139 229.454 120.565 227.852 120.611 226.281C120.667 224.331 121.092 222.558 121.872 221.015C122.039 220.681 122.447 220.547 122.78 220.715C123.113 220.884 123.247 221.289 123.08 221.622C122.39 222.989 122.014 224.569 121.962 226.319C121.928 227.522 122.367 228.781 123.084 229.526C123.581 230.041 124.183 230.308 124.879 230.316C125.447 230.324 126.042 230.096 126.557 229.677C128.913 227.761 128.361 224.241 127.483 221.626C127.365 221.272 127.556 220.889 127.909 220.771C128.265 220.653 128.646 220.844 128.766 221.196C130.218 225.527 129.749 228.821 127.409 230.724C126.764 231.248 126.014 231.568 125.262 231.646L125.265 231.65Z" fill="#1E1E1E"/>
<path d="M102.189 232.07L98.4103 230.771C98.2592 230.719 98.0945 230.799 98.0425 230.95L89.6393 255.297C89.5873 255.448 89.6676 255.613 89.8187 255.664L93.5976 256.964C93.7487 257.016 93.9134 256.936 93.9655 256.785L102.369 232.438C102.421 232.287 102.34 232.122 102.189 232.07Z" fill="#E1354E"/>
<path d="M105.866 233.402C116.122 233.402 124.437 225.103 124.437 214.864C124.437 204.626 116.122 196.326 105.866 196.326C95.6094 196.326 87.2949 204.626 87.2949 214.864C87.2949 225.103 95.6094 233.402 105.866 233.402Z" stroke="#666666" stroke-width="3" stroke-miterlimit="10"/>
<path opacity="0.3" d="M105.751 231.034C114.776 231.034 122.092 223.731 122.092 214.722C122.092 205.713 114.776 198.41 105.751 198.41C96.7262 198.41 89.4102 205.713 89.4102 214.722C89.4102 223.731 96.7262 231.034 105.751 231.034Z" fill="#F4F4F4"/>
<path d="M228.006 275.957C227.787 275.981 227.568 276.009 227.35 276.039C225.652 276.279 223.725 276.617 222.392 277.766C221.359 278.656 220.746 280.067 220.977 281.444C221.283 282.802 221.637 284.131 222.045 285.4C222.045 285.4 213.7 299.526 229.061 300.009C233.842 300.158 239.226 298.419 240.59 293.199C241.417 290.032 241.454 286.574 241.454 283.346C241.454 282.173 241.313 281.011 241.207 279.845C241.096 278.611 240.338 277.735 239.23 277.208C237.178 276.231 234.814 275.983 232.564 275.863C231.072 275.783 229.522 275.79 228.006 275.956V275.957Z" fill="white"/>
<path d="M229.609 300.805C229.416 300.805 229.225 300.802 229.035 300.797C224.382 300.651 221.299 299.263 219.869 296.669C217.574 292.509 220.421 286.727 221.19 285.313C220.837 284.182 220.512 282.964 220.224 281.69C220.128 281.266 220.394 280.846 220.818 280.75C221.244 280.652 221.665 280.921 221.761 281.342C222.067 282.695 222.415 283.98 222.795 285.16C222.863 285.373 222.837 285.606 222.723 285.8C222.687 285.861 219.105 292.029 221.251 295.913C222.394 297.983 225.03 299.096 229.084 299.223C233.462 299.379 238.574 297.8 239.826 293C240.601 290.032 240.665 286.739 240.665 283.346C240.665 282.911 241.018 282.56 241.452 282.56C241.886 282.56 242.239 282.912 242.239 283.346C242.239 286.845 242.172 290.248 241.349 293.396C239.919 298.872 234.452 300.802 229.607 300.802L229.609 300.805Z" fill="#1E1E1E"/>
<path d="M262.105 275.957C262.324 275.981 262.543 276.009 262.76 276.039C264.458 276.279 266.386 276.617 267.718 277.766C268.751 278.656 269.364 280.067 269.133 281.444C268.827 282.802 268.474 284.131 268.065 285.4C268.065 285.4 276.41 299.526 261.049 300.009C256.268 300.158 250.884 298.419 249.52 293.199C248.693 290.032 248.656 286.574 248.656 283.346C248.656 282.173 248.797 281.011 248.903 279.845C249.015 278.611 249.773 277.735 250.88 277.208C252.932 276.231 255.296 275.983 257.546 275.863C259.038 275.783 260.589 275.79 262.105 275.956V275.957Z" fill="white"/>
<path d="M260.499 300.805C255.654 300.805 250.188 298.875 248.758 293.399C247.936 290.249 247.867 286.848 247.867 283.348C247.867 282.913 248.22 282.562 248.654 282.562C249.088 282.562 249.442 282.915 249.442 283.348C249.442 286.742 249.505 290.034 250.28 293.003C251.532 297.801 256.647 299.384 261.022 299.225C265.078 299.098 267.712 297.985 268.855 295.915C271.001 292.03 267.419 285.863 267.383 285.802C267.27 285.609 267.244 285.375 267.313 285.162C267.693 283.984 268.04 282.7 268.347 281.344C268.443 280.922 268.865 280.653 269.289 280.752C269.714 280.849 269.98 281.269 269.884 281.693C269.595 282.969 269.27 284.185 268.916 285.316C269.685 286.73 272.532 292.511 270.239 296.672C268.809 299.264 265.725 300.652 261.073 300.799C260.883 300.805 260.692 300.807 260.499 300.807V300.805Z" fill="#1E1E1E"/>
<path d="M232.789 232.414C232.053 232.234 215.736 232.653 207.418 255.08C205.958 259.813 204.92 266.482 208.926 270.423C210.863 272.329 213.694 273.303 216.383 272.681C219.091 272.056 221.056 269.693 222.3 267.327C225.154 261.899 227.026 256.08 228.567 249.232" fill="white"/>
<path d="M214.745 273.652C212.446 273.652 210.121 272.702 208.375 270.983C204.136 266.814 205.105 259.908 206.667 254.848C215.515 230.985 232.816 231.603 232.978 231.65C233.4 231.754 233.659 232.179 233.555 232.602C233.454 233.011 233.049 233.262 232.638 233.186C232.264 233.148 216.39 233.156 208.157 255.352C206.74 259.953 205.804 266.247 209.481 269.862C211.313 271.666 213.89 272.45 216.208 271.915C218.975 271.276 220.776 268.536 221.604 266.96C224.225 261.974 226.136 256.454 227.801 249.06C227.896 248.634 228.313 248.366 228.742 248.465C229.167 248.56 229.434 248.98 229.338 249.404C227.641 256.939 225.687 262.579 222.999 267.692C221.835 269.909 219.772 272.706 216.563 273.447C215.967 273.584 215.357 273.652 214.745 273.652Z" fill="#1E1E1E"/>
<path d="M251.61 281.905C251.61 281.905 249.093 282.9 245.034 282.854C240.973 282.9 238.458 281.905 238.458 281.905L220.994 281.517C218.458 270.343 219.159 257.042 219.159 257.042C219.445 245.956 229.499 232.776 229.499 232.776C229.499 232.776 233.054 232.199 245.035 232.199C257.017 232.199 260.571 232.776 260.571 232.776C260.571 232.776 270.625 245.956 270.911 257.042H270.953C270.953 257.042 271.653 270.347 269.117 281.522L251.611 281.905H251.61Z" fill="white"/>
<path d="M220.991 282.303C220.632 282.303 220.306 282.055 220.224 281.69C217.694 270.541 218.363 257.135 218.371 257.001C218.394 256.567 218.755 256.22 219.199 256.257C219.635 256.279 219.968 256.65 219.945 257.083C219.939 257.216 219.282 270.41 221.761 281.343C221.857 281.767 221.591 282.187 221.167 282.284C221.108 282.297 221.05 282.304 220.993 282.304L220.991 282.303Z" fill="#1E1E1E"/>
<path d="M269.116 282.308C269.059 282.308 269.001 282.302 268.942 282.288C268.518 282.192 268.252 281.771 268.348 281.347C270.829 270.414 270.173 257.215 270.165 257.082C270.142 256.649 270.475 256.278 270.911 256.255C271.329 256.22 271.715 256.566 271.739 257C271.746 257.134 272.416 270.544 269.885 281.695C269.801 282.059 269.477 282.307 269.118 282.307L269.116 282.308Z" fill="#1E1E1E"/>
<path d="M245.314 283.642H244.737C240.756 283.642 238.273 282.679 238.167 282.637C237.764 282.476 237.566 282.022 237.725 281.618C237.884 281.215 238.34 281.015 238.746 281.174C238.77 281.183 241.212 282.099 245.025 282.068C248.897 282.124 251.298 281.184 251.322 281.174C251.728 281.017 252.184 281.216 252.343 281.618C252.502 282.021 252.304 282.476 251.901 282.637C251.795 282.679 249.311 283.642 245.314 283.642Z" fill="#1E1E1E"/>
<path d="M260.57 233.563C260.529 233.563 260.486 233.561 260.445 233.553C260.409 233.547 256.759 232.987 245.033 232.987C233.308 232.987 229.658 233.547 229.622 233.553C229.193 233.623 228.788 233.33 228.719 232.902C228.65 232.474 228.941 232.071 229.37 232.001C229.517 231.977 233.124 231.414 245.032 231.414C256.941 231.414 260.547 231.977 260.695 232.001C261.123 232.071 261.414 232.474 261.345 232.902C261.283 233.288 260.948 233.563 260.568 233.563H260.57Z" fill="#1E1E1E"/>
<path d="M264.329 139.483C264.06 138.689 263.753 137.907 263.404 137.145C262.724 135.657 261.889 134.239 260.884 132.946C259.776 131.519 258.462 130.255 256.976 129.221C255.276 128.038 253.37 127.174 251.377 126.617C249.33 126.045 247.188 125.784 245.056 125.789C242.925 125.785 240.782 126.046 238.735 126.617C236.741 127.174 234.835 128.039 233.136 129.221C231.651 130.255 230.336 131.519 229.228 132.946C228.223 134.238 227.386 135.657 226.708 137.145C226.36 137.907 226.052 138.689 225.783 139.483C224.562 143.086 224.722 147.011 226.115 150.551L231.807 164.759C231.807 164.759 236.826 162.863 245.056 163.076C253.288 162.863 258.305 164.759 258.305 164.759L263.997 150.551C265.39 147.011 265.552 143.086 264.329 139.483Z" fill="#EE9CA5"/>
<path d="M258.305 165.545C258.212 165.545 258.119 165.529 258.028 165.494C257.979 165.476 253.014 163.648 245.076 163.862C237.078 163.654 232.133 165.477 232.084 165.494C231.682 165.644 231.235 165.447 231.075 165.05L225.383 150.843C223.899 147.068 223.776 142.945 225.035 139.23C225.317 138.4 225.638 137.589 225.99 136.818C226.719 135.223 227.597 133.757 228.605 132.462C229.784 130.945 231.156 129.637 232.684 128.576C234.413 127.373 236.377 126.458 238.522 125.858C240.58 125.284 242.733 124.982 245.057 125.001C247.291 125.03 249.529 125.284 251.588 125.858C253.733 126.458 255.697 127.371 257.426 128.576C258.954 129.637 260.327 130.945 261.506 132.462C262.512 133.757 263.392 135.221 264.121 136.817C264.472 137.589 264.794 138.4 265.075 139.228C266.335 142.944 266.213 147.066 264.73 150.837L259.037 165.049C258.913 165.357 258.618 165.543 258.305 165.543V165.545ZM244.998 126.575C242.882 126.575 240.847 126.844 238.947 127.374C236.973 127.925 235.169 128.764 233.586 129.867C232.188 130.838 230.931 132.036 229.849 133.427C228.917 134.625 228.102 135.986 227.424 137.47C227.093 138.193 226.792 138.955 226.528 139.733C225.386 143.098 225.5 146.838 226.847 150.262L232.262 163.777C233.961 163.259 238.497 162.122 245.076 162.288C251.624 162.121 256.152 163.259 257.849 163.777L263.265 150.258C264.609 146.838 264.723 143.098 263.582 139.733C263.318 138.955 263.016 138.193 262.686 137.47C262.007 135.986 261.191 134.626 260.261 133.427C259.179 132.036 257.922 130.838 256.525 129.867C254.941 128.764 253.137 127.925 251.164 127.374C249.245 126.839 247.151 126.533 245.057 126.575H244.998Z" fill="#B34E58"/>
<path d="M245.055 163.89C244.619 163.89 244.268 163.537 244.268 163.104V150.562C244.268 150.128 244.621 149.776 245.055 149.776C245.489 149.776 245.842 150.129 245.842 150.562V163.104C245.842 163.539 245.489 163.89 245.055 163.89Z" fill="#B34E58"/>
<path d="M225.781 252.33C226.051 253.067 226.358 253.792 226.707 254.498C227.386 255.878 228.221 257.195 229.226 258.393C230.335 259.716 231.649 260.889 233.134 261.847C234.835 262.944 236.741 263.746 238.733 264.263C240.78 264.793 242.923 265.035 245.055 265.031C247.185 265.035 249.329 264.793 251.376 264.263C253.37 263.746 255.276 262.944 256.975 261.847C258.459 260.889 259.775 259.715 260.883 258.393C261.888 257.193 262.724 255.878 263.403 254.498C263.75 253.791 264.058 253.066 264.328 252.33C265.549 248.988 265.388 245.346 263.996 242.062L258.304 228.883C258.304 228.883 253.285 230.643 245.055 230.444C236.823 230.641 231.805 228.883 231.805 228.883L226.113 242.062C224.721 245.346 224.559 248.988 225.781 252.33Z" fill="#EE9CA5"/>
<path d="M245.109 265.82H244.999C242.745 265.82 240.57 265.552 238.535 265.025C236.394 264.469 234.432 263.623 232.707 262.508C231.177 261.52 229.802 260.306 228.622 258.899C227.612 257.693 226.729 256.329 225.999 254.847C225.646 254.128 225.323 253.373 225.041 252.601C223.772 249.129 223.895 245.278 225.387 241.757L231.08 228.573C231.244 228.194 231.671 228.006 232.064 228.142C232.113 228.159 237.062 229.851 245.035 229.659C253.04 229.842 257.993 228.159 258.043 228.142C258.434 228.006 258.864 228.194 259.027 228.573L264.719 241.752C266.214 245.278 266.337 249.129 265.068 252.601C264.786 253.373 264.464 254.13 264.11 254.847C263.378 256.331 262.497 257.694 261.487 258.899C260.307 260.306 258.933 261.521 257.402 262.508C255.675 263.623 253.713 264.469 251.574 265.025C249.539 265.552 247.364 265.82 245.108 265.82H245.109ZM245.054 264.247C247.21 264.28 249.258 264.002 251.179 263.503C253.157 262.991 254.964 262.212 256.549 261.187C257.947 260.285 259.202 259.176 260.28 257.888C261.209 256.779 262.022 255.521 262.697 254.151C263.027 253.483 263.327 252.779 263.59 252.06C264.722 248.963 264.609 245.521 263.271 242.367L257.862 229.841C256.19 230.318 251.649 231.382 245.036 231.229C238.462 231.381 233.92 230.318 232.249 229.841L226.837 242.372C225.501 245.521 225.388 248.963 226.521 252.06C226.784 252.779 227.085 253.483 227.413 254.151C228.087 255.522 228.899 256.779 229.829 257.888C230.907 259.174 232.164 260.285 233.56 261.187C235.145 262.212 236.952 262.991 238.93 263.503C240.834 263.996 242.877 264.247 245 264.247H245.052H245.054Z" fill="#B34E58"/>
<path d="M245.055 243.865C244.619 243.865 244.268 243.513 244.268 243.079V230.539C244.268 230.104 244.621 229.753 245.055 229.753C245.489 229.753 245.842 230.105 245.842 230.539V243.079C245.842 243.514 245.489 243.865 245.055 243.865Z" fill="#B34E58"/>
<path d="M218.068 142.672C217.315 142.301 216.544 141.966 215.758 141.672C214.223 141.099 212.628 140.686 211.002 140.482C209.207 140.255 207.382 140.29 205.6 140.606C203.56 140.969 201.601 141.703 199.797 142.717C197.943 143.757 196.244 145.085 194.74 146.593C193.23 148.094 191.901 149.792 190.858 151.64C189.842 153.441 189.107 155.398 188.743 157.434C188.424 159.212 188.391 161.034 188.618 162.825C188.823 164.449 189.237 166.041 189.81 167.573C190.104 168.358 190.439 169.128 190.812 169.879C192.501 173.288 195.396 175.951 198.887 177.472L212.975 183.501C212.975 183.501 215.182 178.618 221.152 172.958C226.822 166.998 231.714 164.796 231.714 164.796L225.674 150.733C224.151 147.246 221.484 144.356 218.068 142.672Z" fill="#EE9CA5"/>
<path d="M212.974 184.288C212.87 184.288 212.765 184.268 212.665 184.224L198.576 178.196C194.853 176.576 191.846 173.747 190.105 170.23C189.717 169.445 189.369 168.645 189.072 167.851C188.457 166.21 188.042 164.552 187.836 162.926C187.596 161.023 187.64 159.13 187.967 157.297C188.338 155.223 189.08 153.192 190.171 151.256C191.216 149.402 192.566 147.646 194.184 146.036C195.791 144.426 197.55 143.079 199.41 142.033C201.351 140.943 203.387 140.202 205.462 139.834C207.298 139.508 209.196 139.464 211.101 139.702C212.732 139.908 214.392 140.323 216.034 140.937C216.821 141.23 217.622 141.577 218.416 141.967C221.939 143.704 224.772 146.707 226.394 150.418L232.435 164.486C232.604 164.879 232.426 165.335 232.036 165.513C231.988 165.534 227.2 167.74 221.722 173.5C215.901 179.018 213.713 183.776 213.692 183.825C213.561 184.116 213.274 184.288 212.974 184.288ZM208.691 141.122C207.695 141.122 206.707 141.209 205.738 141.38C203.837 141.719 201.968 142.4 200.181 143.402C198.448 144.377 196.804 145.638 195.296 147.147C193.779 148.656 192.517 150.298 191.542 152.027C190.537 153.808 189.855 155.672 189.517 157.573C189.217 159.249 189.177 160.985 189.397 162.729C189.587 164.234 189.973 165.771 190.545 167.299C190.824 168.044 191.151 168.795 191.516 169.532C193.093 172.716 195.822 175.281 199.2 176.751L212.602 182.486C213.436 180.921 215.834 176.911 220.608 172.387C225.116 167.647 229.129 165.256 230.695 164.425L224.947 151.043C223.477 147.674 220.908 144.95 217.718 143.376C216.972 143.009 216.219 142.683 215.481 142.408C213.953 141.837 212.412 141.452 210.902 141.261C210.162 141.168 209.423 141.12 208.69 141.12L208.691 141.122Z" fill="#B34E58"/>
<path d="M221.172 173.765C220.97 173.765 220.769 173.689 220.615 173.535L211.73 164.666C211.422 164.359 211.422 163.862 211.73 163.554C212.038 163.247 212.536 163.247 212.844 163.554L221.728 172.423C222.036 172.731 222.036 173.227 221.728 173.535C221.574 173.689 221.373 173.765 221.171 173.765H221.172Z" fill="#B34E58"/>
<path d="M272.042 250.968C272.794 251.339 273.566 251.675 274.351 251.969C275.886 252.541 277.481 252.955 279.108 253.159C280.902 253.385 282.728 253.351 284.509 253.034C286.549 252.671 288.509 251.937 290.313 250.923C292.166 249.883 293.865 248.555 295.369 247.047C296.879 245.546 298.208 243.849 299.252 242C300.267 240.199 301.002 238.242 301.366 236.207C301.685 234.429 301.718 232.607 301.491 230.815C301.287 229.192 300.872 227.599 300.299 226.067C300.006 225.283 299.67 224.513 299.297 223.762C297.608 220.352 294.713 217.69 291.222 216.169L277.134 210.14C277.134 210.14 274.927 215.023 268.957 220.682C263.287 226.642 258.396 228.845 258.396 228.845L264.435 242.908C265.958 246.394 268.625 249.284 272.042 250.968Z" fill="#EE9CA5"/>
<path d="M281.417 254.091C280.618 254.091 279.815 254.04 279.008 253.939C277.378 253.734 275.719 253.319 274.075 252.705C273.273 252.406 272.472 252.059 271.692 251.673C268.169 249.935 265.335 246.933 263.713 243.222L257.672 229.153C257.503 228.76 257.681 228.304 258.072 228.126C258.119 228.105 262.907 225.9 268.386 220.139C274.207 214.621 276.394 209.863 276.416 209.813C276.592 209.424 277.049 209.245 277.444 209.415L291.532 215.442C295.256 217.063 298.263 219.892 300.004 223.41C300.392 224.193 300.74 224.994 301.037 225.789C301.652 227.431 302.067 229.087 302.273 230.714C302.513 232.617 302.469 234.511 302.141 236.342C301.771 238.414 301.029 240.447 299.938 242.384C298.89 244.242 297.539 245.998 295.925 247.603C294.316 249.215 292.557 250.563 290.699 251.606C288.758 252.696 286.723 253.437 284.647 253.805C283.588 253.993 282.507 254.089 281.417 254.089V254.091ZM259.412 229.214L265.159 242.598C266.63 245.965 269.2 248.689 272.389 250.265C273.122 250.626 273.873 250.951 274.626 251.233C276.154 251.803 277.695 252.189 279.204 252.379C280.951 252.599 282.689 252.558 284.368 252.26C286.27 251.921 288.139 251.241 289.925 250.238C291.657 249.266 293.301 248.005 294.81 246.493C296.326 244.987 297.588 243.346 298.564 241.614C299.569 239.832 300.251 237.966 300.59 236.068C300.89 234.393 300.929 232.658 300.709 230.913C300.519 229.406 300.133 227.869 299.561 226.343C299.282 225.597 298.955 224.845 298.59 224.11C297.013 220.924 294.284 218.36 290.906 216.889L277.504 211.154C276.67 212.719 274.272 216.729 269.498 221.253C264.99 225.994 260.977 228.385 259.411 229.216L259.412 229.214Z" fill="#B34E58"/>
<path d="M277.822 230.317C277.621 230.317 277.419 230.24 277.265 230.086L268.38 221.217C268.072 220.91 268.072 220.413 268.38 220.106C268.688 219.798 269.186 219.798 269.494 220.106L278.379 228.974C278.687 229.282 278.687 229.779 278.379 230.086C278.225 230.24 278.023 230.317 277.821 230.317H277.822Z" fill="#B34E58"/>
<path d="M187.615 177.581C186.82 177.85 186.037 178.156 185.274 178.504C183.783 179.183 182.363 180.016 181.067 181.019C179.637 182.126 178.371 183.438 177.336 184.92C176.15 186.618 175.285 188.521 174.727 190.51C174.154 192.553 173.892 194.692 173.898 196.82C173.894 198.947 174.155 201.087 174.727 203.13C175.285 205.12 176.152 207.023 177.336 208.719C178.371 210.201 179.637 211.514 181.067 212.62C182.361 213.623 183.783 214.458 185.274 215.135C186.037 215.482 186.82 215.79 187.615 216.059C191.225 217.278 195.157 217.118 198.703 215.728L212.936 210.046C212.936 210.046 211.037 205.035 211.25 196.82C211.037 188.603 212.936 183.594 212.936 183.594L198.703 177.912C195.157 176.522 191.225 176.36 187.615 177.581Z" fill="#EE9CA5"/>
<path d="M192.652 217.667C190.85 217.667 189.064 217.381 187.362 216.805C186.535 216.526 185.722 216.206 184.947 215.853C183.349 215.126 181.881 214.247 180.585 213.243C179.067 212.068 177.756 210.696 176.691 209.17C175.485 207.443 174.569 205.482 173.969 203.342C173.394 201.291 173.105 199.095 173.11 196.818C173.105 194.546 173.394 192.35 173.969 190.299C174.569 188.159 175.485 186.198 176.691 184.471C177.756 182.945 179.067 181.573 180.585 180.398C181.882 179.393 183.35 178.515 184.947 177.789C185.72 177.436 186.534 177.116 187.363 176.836C191.085 175.577 195.216 175.7 198.992 177.18L213.228 182.864C213.627 183.023 213.824 183.471 213.673 183.871C213.655 183.92 211.831 188.859 212.038 196.8C211.832 204.781 213.656 209.719 213.673 209.769C213.824 210.169 213.627 210.618 213.228 210.776L198.996 216.458C196.943 217.262 194.788 217.666 192.652 217.666V217.667ZM192.654 177.548C191.024 177.548 189.407 177.806 187.868 178.327C187.088 178.59 186.325 178.891 185.6 179.221C184.114 179.897 182.752 180.711 181.55 181.642C180.158 182.721 178.958 183.974 177.983 185.371C176.879 186.953 176.039 188.754 175.487 190.724C174.95 192.636 174.681 194.689 174.686 196.82C174.682 198.956 174.952 201.006 175.487 202.919C176.039 204.89 176.879 206.69 177.983 208.272C178.958 209.669 180.159 210.923 181.55 212.001C182.75 212.932 184.114 213.746 185.6 214.422C186.326 214.754 187.09 215.053 187.868 215.315C191.238 216.458 194.983 216.345 198.417 214.997L211.955 209.592C211.436 207.897 210.292 203.368 210.463 196.801C210.292 190.267 211.436 185.745 211.955 184.051L198.411 178.645C196.55 177.915 194.594 177.548 192.654 177.548Z" fill="#B34E58"/>
<path d="M211.278 197.607H198.715C198.28 197.607 197.928 197.254 197.928 196.821C197.928 196.388 198.281 196.035 198.715 196.035H211.278C211.713 196.035 212.065 196.388 212.065 196.821C212.065 197.254 211.712 197.607 211.278 197.607Z" fill="#B34E58"/>
<path d="M302.495 216.06C303.29 215.791 304.073 215.485 304.836 215.137C306.327 214.458 307.748 213.625 309.043 212.622C310.473 211.515 311.739 210.203 312.775 208.721C313.96 207.023 314.825 205.12 315.383 203.131C315.956 201.088 316.218 198.949 316.213 196.821C316.217 194.694 315.955 192.554 315.383 190.511C314.825 188.521 313.959 186.618 312.775 184.922C311.739 183.44 310.473 182.127 309.043 181.021C307.749 180.018 306.327 179.183 304.836 178.506C304.073 178.159 303.29 177.851 302.495 177.582C298.885 176.363 294.954 176.523 291.407 177.913L277.174 183.595C277.174 183.595 279.073 188.606 278.86 196.821C279.073 205.038 277.174 210.047 277.174 210.047L291.407 215.729C294.954 217.119 298.885 217.281 302.495 216.06Z" fill="#EE9CA5"/>
<path d="M297.455 217.667C295.321 217.667 293.168 217.265 291.118 216.462L276.881 210.778C276.483 210.619 276.285 210.171 276.437 209.771C276.455 209.722 278.279 204.784 278.072 196.842C278.278 188.86 276.454 183.923 276.437 183.874C276.285 183.473 276.483 183.024 276.881 182.867L291.114 177.185C294.895 175.7 299.024 175.58 302.746 176.839C303.576 177.118 304.39 177.439 305.162 177.791C306.758 178.518 308.226 179.395 309.524 180.401C311.043 181.576 312.352 182.947 313.419 184.474C314.626 186.202 315.54 188.163 316.14 190.302C316.715 192.352 317.005 194.547 316.999 196.825C317.003 199.1 316.715 201.295 316.14 203.345C315.54 205.483 314.626 207.444 313.419 209.172C312.352 210.699 311.043 212.07 309.526 213.246C308.229 214.25 306.761 215.127 305.164 215.856C304.387 216.209 303.575 216.529 302.748 216.809C301.045 217.384 299.258 217.671 297.457 217.671L297.455 217.667ZM278.154 209.592L291.698 214.999C295.126 216.341 298.87 216.452 302.241 215.315C303.019 215.053 303.782 214.754 304.508 214.422C305.995 213.745 307.357 212.93 308.558 212.001C309.949 210.923 311.151 209.669 312.125 208.273C313.229 206.689 314.07 204.888 314.622 202.919C315.157 201.007 315.428 198.957 315.422 196.824C315.426 194.686 315.157 192.636 314.622 190.724C314.07 188.755 313.229 186.954 312.125 185.371C311.149 183.974 309.949 182.721 308.557 181.642C307.355 180.712 305.992 179.897 304.507 179.221C303.782 178.89 303.02 178.589 302.239 178.327C298.866 177.187 295.12 177.3 291.692 178.645L278.152 184.05C278.671 185.745 279.815 190.274 279.644 196.841C279.815 203.374 278.671 207.898 278.152 209.591L278.154 209.592Z" fill="#B34E58"/>
<path d="M291.394 197.607H278.831C278.396 197.607 278.044 197.254 278.044 196.821C278.044 196.388 278.397 196.035 278.831 196.035H291.394C291.829 196.035 292.181 196.388 292.181 196.821C292.181 197.254 291.828 197.607 291.394 197.607Z" fill="#B34E58"/>
<path d="M190.811 223.76C190.439 224.511 190.104 225.281 189.809 226.065C189.235 227.597 188.821 229.19 188.617 230.813C188.39 232.605 188.424 234.427 188.742 236.205C189.105 238.242 189.841 240.197 190.856 241.998C191.898 243.848 193.228 245.544 194.739 247.046C196.243 248.553 197.943 249.88 199.795 250.921C201.599 251.935 203.56 252.669 205.599 253.032C207.38 253.35 209.205 253.383 211 253.157C212.626 252.953 214.222 252.539 215.756 251.967C216.542 251.674 217.313 251.339 218.066 250.966C221.482 249.281 224.148 246.391 225.672 242.906L231.712 228.843C231.712 228.843 226.821 226.64 221.151 220.68C215.18 215.021 212.974 210.138 212.974 210.138L198.886 216.167C195.393 217.687 192.498 220.349 190.811 223.76Z" fill="#EE9CA5"/>
<path d="M208.692 254.091C207.602 254.091 206.521 253.995 205.462 253.807C203.386 253.438 201.351 252.697 199.41 251.608C197.552 250.565 195.793 249.217 194.182 247.602C192.569 245.997 191.217 244.241 190.17 242.385C189.078 240.448 188.337 238.415 187.966 236.342C187.639 234.509 187.595 232.615 187.835 230.715C188.041 229.088 188.456 227.431 189.071 225.789C189.368 224.994 189.716 224.194 190.104 223.411C191.845 219.893 194.852 217.064 198.57 215.446L212.664 209.415C213.06 209.247 213.514 209.423 213.692 209.814C213.714 209.862 215.922 214.64 221.694 220.11C227.202 225.899 231.99 228.104 232.038 228.126C232.428 228.303 232.606 228.759 232.437 229.153L226.397 243.216C224.772 246.931 221.94 249.934 218.417 251.671C217.635 252.057 216.833 252.404 216.034 252.703C214.389 253.317 212.73 253.732 211.1 253.937C210.294 254.038 209.49 254.089 208.69 254.089L208.692 254.091ZM212.604 211.152L199.197 216.889C195.822 218.358 193.094 220.922 191.517 224.107C191.152 224.843 190.827 225.595 190.547 226.339C189.975 227.866 189.589 229.404 189.399 230.91C189.177 232.655 189.218 234.388 189.518 236.064C189.858 237.963 190.539 239.827 191.544 241.611C192.52 243.343 193.782 244.982 195.295 246.487C196.807 248.002 198.451 249.262 200.183 250.235C201.968 251.237 203.837 251.918 205.74 252.257C207.42 252.556 209.158 252.596 210.903 252.376C212.413 252.185 213.954 251.801 215.483 251.23C216.233 250.949 216.986 250.624 217.72 250.261C220.91 248.687 223.478 245.963 224.953 242.59L230.698 229.211C229.13 228.379 225.114 225.984 220.582 221.219C215.832 216.719 213.437 212.713 212.605 211.15L212.604 211.152Z" fill="#B34E58"/>
<path d="M212.288 230.316C212.086 230.316 211.884 230.239 211.73 230.085C211.422 229.778 211.422 229.281 211.73 228.973L220.615 220.105C220.923 219.797 221.42 219.797 221.728 220.105C222.036 220.412 222.036 220.909 221.728 221.216L212.844 230.085C212.69 230.239 212.488 230.316 212.286 230.316H212.288Z" fill="#B34E58"/>
<path d="M299.3 169.88C299.671 169.129 300.007 168.359 300.302 167.574C300.875 166.042 301.289 164.45 301.494 162.826C301.721 161.035 301.686 159.213 301.369 157.435C301.005 155.398 300.27 153.442 299.254 151.641C298.212 149.791 296.882 148.095 295.372 146.594C293.868 145.086 292.167 143.76 290.315 142.718C288.511 141.704 286.551 140.97 284.512 140.607C282.73 140.289 280.905 140.256 279.111 140.483C277.484 140.687 275.889 141.1 274.354 141.673C273.568 141.965 272.797 142.301 272.045 142.673C268.629 144.359 265.962 147.249 264.438 150.734L258.398 164.797C258.398 164.797 263.29 166.999 268.96 172.959C274.93 178.619 277.137 183.502 277.137 183.502L291.225 177.473C294.717 175.953 297.612 173.291 299.3 169.88Z" fill="#EE9CA5"/>
<path d="M277.136 184.288C276.836 184.288 276.55 184.115 276.417 183.825C276.396 183.777 274.187 178.999 268.415 173.529C262.907 167.74 258.119 165.535 258.072 165.514C257.681 165.336 257.503 164.88 257.672 164.487L263.711 150.424C265.334 146.707 268.168 143.705 271.691 141.967C272.484 141.577 273.284 141.23 274.075 140.935C275.716 140.321 277.375 139.906 279.008 139.701C280.913 139.462 282.81 139.505 284.646 139.832C286.722 140.202 288.758 140.943 290.697 142.032C292.559 143.077 294.317 144.425 295.926 146.037C297.542 147.644 298.892 149.399 299.938 151.256C301.029 153.19 301.771 155.223 302.141 157.297C302.468 159.128 302.513 161.022 302.273 162.926C302.067 164.552 301.652 166.208 301.037 167.851C300.74 168.645 300.392 169.445 300.004 170.23C298.263 173.747 295.256 176.576 291.538 178.195L277.444 184.225C277.343 184.268 277.239 184.289 277.135 184.289L277.136 184.288ZM259.414 164.426C260.981 165.258 264.998 167.654 269.53 172.417C274.28 176.917 276.674 180.923 277.507 182.487L290.914 176.751C294.287 175.282 297.016 172.717 298.593 169.533C298.958 168.796 299.283 168.045 299.563 167.3C300.136 165.772 300.522 164.235 300.712 162.73C300.932 160.983 300.892 159.249 300.592 157.574C300.252 155.675 299.57 153.809 298.567 152.028C297.592 150.298 296.328 148.657 294.814 147.151C293.305 145.639 291.661 144.378 289.926 143.403C288.141 142.4 286.272 141.72 284.37 141.381C282.69 141.083 280.953 141.042 279.206 141.262C277.694 141.453 276.154 141.838 274.627 142.408C273.885 142.685 273.133 143.01 272.389 143.377C269.2 144.951 266.63 147.675 265.156 151.048L259.411 164.426H259.414Z" fill="#B34E58"/>
<path d="M268.939 173.765C268.737 173.765 268.535 173.689 268.381 173.535C268.073 173.227 268.073 172.731 268.381 172.423L277.266 163.554C277.574 163.247 278.072 163.247 278.38 163.554C278.688 163.862 278.688 164.359 278.38 164.666L269.495 173.535C269.341 173.689 269.139 173.765 268.938 173.765H268.939Z" fill="#B34E58"/>
<path d="M202.384 157.956C204.887 157.956 206.916 155.931 206.916 153.432C206.916 150.934 204.887 148.908 202.384 148.908C199.882 148.908 197.853 150.934 197.853 153.432C197.853 155.931 199.882 157.956 202.384 157.956Z" fill="#F8D5D8"/>
<path d="M274.277 171.348C269.421 165.781 262.76 162.115 255.656 160.154C252.229 159.208 248.643 158.766 245.056 158.773C241.468 158.766 237.882 159.208 234.456 160.154C227.352 162.115 220.692 165.781 215.835 171.348C208.046 180.277 204.735 192.925 206.297 204.578C207.825 215.964 214.29 224.74 224.5 229.932C231.144 233.31 238.101 234.973 245.056 234.966C252.01 234.973 258.968 233.311 265.611 229.932C275.823 224.739 282.288 215.964 283.815 204.578C285.377 192.925 282.066 180.277 274.277 171.348Z" fill="white"/>
<path d="M245.094 235.752H245.014C237.845 235.752 230.823 234.029 224.142 230.632C213.508 225.225 207.067 216.253 205.515 204.682C203.862 192.36 207.498 179.706 215.239 170.833C219.89 165.499 226.462 161.545 234.244 159.397C237.63 158.463 241.238 157.989 244.968 157.989H245.145C248.872 157.989 252.479 158.463 255.865 159.397C263.646 161.545 270.219 165.501 274.87 170.833C282.612 179.706 286.246 192.36 284.593 204.682C283.042 216.252 276.601 225.227 265.967 230.632C259.287 234.029 252.264 235.752 245.094 235.752ZM245.054 234.179H245.093C252.014 234.179 258.796 232.515 265.253 229.231C275.405 224.069 281.554 215.508 283.034 204.473C284.627 192.592 281.132 180.401 273.683 171.864C269.235 166.765 262.928 162.978 255.445 160.912C252.171 160.008 248.669 159.527 245.057 159.56C241.47 159.523 237.94 160.008 234.664 160.912C227.183 162.978 220.876 166.765 216.427 171.864C208.978 180.401 205.483 192.592 207.076 204.473C208.558 215.508 214.705 224.07 224.857 229.231C231.314 232.515 238.097 234.179 245.016 234.179H245.054Z" fill="#1E1E1E"/>
<path d="M256.325 203.277C258.38 203.277 260.047 201.227 260.047 198.698C260.047 196.17 258.38 194.12 256.325 194.12C254.269 194.12 252.603 196.17 252.603 198.698C252.603 201.227 254.269 203.277 256.325 203.277Z" fill="#1E1E1E"/>
<path d="M257.112 198.45C257.805 198.45 258.366 197.889 258.366 197.198C258.366 196.506 257.805 195.945 257.112 195.945C256.419 195.945 255.857 196.506 255.857 197.198C255.857 197.889 256.419 198.45 257.112 198.45Z" fill="white"/>
<path d="M233.783 203.277C235.838 203.277 237.505 201.227 237.505 198.698C237.505 196.17 235.838 194.12 233.783 194.12C231.727 194.12 230.061 196.17 230.061 198.698C230.061 201.227 231.727 203.277 233.783 203.277Z" fill="#1E1E1E"/>
<path d="M234.57 198.45C235.263 198.45 235.824 197.889 235.824 197.198C235.824 196.506 235.263 195.945 234.57 195.945C233.877 195.945 233.315 196.506 233.315 197.198C233.315 197.889 233.877 198.45 234.57 198.45Z" fill="white"/>
<path d="M265.088 211.796C268.101 211.796 270.543 209.358 270.543 206.351C270.543 203.344 268.101 200.906 265.088 200.906C262.076 200.906 259.634 203.344 259.634 206.351C259.634 209.358 262.076 211.796 265.088 211.796Z" fill="#F5CED3"/>
<path d="M225.02 211.796C228.032 211.796 230.474 209.358 230.474 206.351C230.474 203.344 228.032 200.906 225.02 200.906C222.007 200.906 219.565 203.344 219.565 206.351C219.565 209.358 222.007 211.796 225.02 211.796Z" fill="#F5CED3"/>
<path d="M245.059 208.371C244.207 208.366 243.408 208.246 242.86 208.041C240.75 207.255 239.963 205.325 239.93 205.242C239.769 204.84 239.967 204.381 240.372 204.222C240.775 204.06 241.233 204.261 241.394 204.663C241.398 204.673 241.971 206.031 243.41 206.569C243.781 206.707 244.413 206.795 245.059 206.798C245.696 206.795 246.327 206.707 246.697 206.569C248.136 206.032 248.708 204.677 248.714 204.663C248.874 204.261 249.331 204.06 249.736 204.222C250.141 204.382 250.338 204.84 250.178 205.242C250.145 205.325 249.357 207.254 247.248 208.041C246.7 208.246 245.901 208.366 245.058 208.371H245.059Z" fill="#1E1E1E"/>
<path d="M247.332 233.759C246.818 232.473 247.389 231.005 248.642 230.41C251.942 228.846 259.023 226.483 268.029 229.201C277.624 232.096 281.35 239.236 282.579 242.468C282.978 243.516 282.671 244.689 281.819 245.419C279.424 247.466 273.551 250.86 263.128 247.595C252.802 244.36 248.768 237.357 247.332 233.759Z" fill="#4FB35B"/>
<path d="M282.477 245.121C282.385 245.121 282.292 245.105 282.202 245.072C281.961 244.983 257.962 236.089 247.163 232.841C246.746 232.717 246.511 232.278 246.636 231.862C246.762 231.446 247.201 231.209 247.617 231.336C258.464 234.597 282.509 243.508 282.75 243.597C283.158 243.748 283.366 244.201 283.215 244.608C283.097 244.925 282.796 245.12 282.477 245.12V245.121Z" fill="#37773E"/>
<path d="M273.129 249.408C272.881 249.408 272.635 249.291 272.482 249.073C272.324 248.847 268.622 243.525 267.658 239.499C267.591 239.218 267.684 238.921 267.9 238.729C268.074 238.575 272.216 234.945 278.453 235.114C278.889 235.126 279.231 235.489 279.218 235.922C279.206 236.356 278.842 236.698 278.408 236.686C273.794 236.527 270.4 238.789 269.316 239.606C270.384 243.295 273.738 248.12 273.774 248.17C274.024 248.527 273.936 249.017 273.579 249.266C273.441 249.362 273.284 249.408 273.129 249.408Z" fill="#37773E"/>
<path d="M262.839 248.17C262.57 248.17 262.309 248.034 262.162 247.787C261.965 247.459 257.338 239.689 256.444 235.257C256.394 235.007 256.468 234.75 256.642 234.564C256.856 234.336 261.954 228.98 268.472 228.726C268.904 228.684 269.273 229.047 269.29 229.48C269.307 229.915 268.969 230.279 268.533 230.296C263.474 230.494 259.204 234.27 258.08 235.351C259.118 239.597 263.469 246.904 263.514 246.979C263.737 247.353 263.615 247.835 263.241 248.058C263.115 248.133 262.975 248.169 262.837 248.169L262.839 248.17Z" fill="#37773E"/>
<path d="M271.32 249.748C268.904 249.748 266.106 249.352 262.893 248.345C252.365 245.047 248.167 237.973 246.6 234.05C245.932 232.38 246.681 230.468 248.305 229.699C251.805 228.039 259.054 225.671 268.259 228.45C278.284 231.475 282.129 239.068 283.317 242.19C283.83 243.536 283.434 245.075 282.332 246.017C280.453 247.623 276.91 249.748 271.318 249.748H271.32ZM259.78 228.744C254.939 228.744 251.176 230.08 248.98 231.121C248.105 231.536 247.703 232.567 248.063 233.468C249.526 237.132 253.459 243.743 263.364 246.845C273.284 249.956 278.864 246.911 281.306 244.824C281.914 244.303 282.125 243.488 281.842 242.75C280.737 239.843 277.155 232.78 267.801 229.957C264.899 229.081 262.203 228.745 259.779 228.745L259.78 228.744Z" fill="#1E1E1E"/>
<path d="M242.776 233.76C243.289 232.474 242.719 231.006 241.465 230.411C238.165 228.847 231.085 226.484 222.078 229.202C212.483 232.097 208.757 239.237 207.528 242.469C207.13 243.517 207.436 244.69 208.289 245.42C210.683 247.467 216.556 250.861 226.979 247.596C237.305 244.361 241.339 237.358 242.776 233.76Z" fill="#4FB35B"/>
<path d="M207.63 245.121C207.31 245.121 207.01 244.925 206.892 244.61C206.741 244.202 206.948 243.75 207.357 243.599C207.598 243.51 231.644 234.599 242.49 231.338C242.907 231.209 243.347 231.448 243.471 231.864C243.596 232.28 243.361 232.717 242.944 232.843C232.146 236.091 208.147 244.983 207.905 245.074C207.815 245.107 207.722 245.123 207.63 245.123V245.121Z" fill="#37773E"/>
<path d="M216.978 249.408C216.823 249.408 216.665 249.362 216.528 249.266C216.171 249.017 216.084 248.527 216.333 248.17C216.368 248.12 219.722 243.297 220.789 239.608C219.701 238.79 216.284 236.545 211.698 236.686C211.256 236.696 210.9 236.355 210.888 235.923C210.875 235.488 211.217 235.126 211.653 235.114C217.888 234.958 222.033 238.575 222.206 238.729C222.422 238.921 222.515 239.218 222.447 239.499C221.484 243.525 217.78 248.848 217.624 249.073C217.471 249.291 217.227 249.408 216.977 249.408H216.978Z" fill="#37773E"/>
<path d="M227.269 248.171C227.131 248.171 226.991 248.135 226.865 248.059C226.491 247.837 226.369 247.354 226.592 246.981C226.637 246.905 230.988 239.6 232.026 235.353C230.899 234.272 226.618 230.495 221.573 230.298C221.137 230.282 220.799 229.916 220.816 229.481C220.833 229.047 221.22 228.682 221.634 228.727C228.152 228.982 233.25 234.337 233.464 234.566C233.638 234.751 233.712 235.01 233.662 235.259C232.768 239.69 228.141 247.46 227.944 247.789C227.797 248.035 227.536 248.172 227.267 248.172L227.269 248.171Z" fill="#37773E"/>
<path d="M218.789 249.749C213.198 249.749 209.655 247.625 207.775 246.017C206.673 245.074 206.278 243.537 206.79 242.191C207.978 239.067 211.825 231.476 221.848 228.451C231.053 225.673 238.301 228.043 241.803 229.7C243.425 230.469 244.173 232.381 243.507 234.051C241.939 237.974 237.739 245.047 227.214 248.346C224.003 249.351 221.205 249.749 218.789 249.749ZM230.327 228.745C227.902 228.745 225.208 229.08 222.305 229.956C212.951 232.78 209.369 239.844 208.263 242.75C207.982 243.489 208.192 244.304 208.8 244.824C211.244 246.912 216.824 249.954 226.741 246.844C236.646 243.742 240.58 237.131 242.043 233.469C242.403 232.566 242 231.534 241.126 231.121C238.93 230.081 235.165 228.744 230.326 228.744L230.327 228.745Z" fill="#1E1E1E"/>
<path d="M245.054 240.968C249.292 240.968 252.728 237.539 252.728 233.308C252.728 229.077 249.292 225.647 245.054 225.647C240.816 225.647 237.38 229.077 237.38 233.308C237.38 237.539 240.816 240.968 245.054 240.968Z" fill="#F6CB6D"/>
<path d="M245.054 241.753C240.388 241.753 236.593 237.965 236.593 233.307C236.593 228.649 240.388 224.859 245.054 224.859C249.72 224.859 253.515 228.649 253.515 233.307C253.515 237.965 249.72 241.753 245.054 241.753ZM245.054 226.432C241.257 226.432 238.168 229.516 238.168 233.307C238.168 237.098 241.257 240.18 245.054 240.18C248.85 240.18 251.939 237.097 251.939 233.307C251.939 229.517 248.85 226.432 245.054 226.432Z" fill="#1E1E1E"/>
<path d="M244.916 233.613C246.172 233.613 247.19 232.597 247.19 231.343C247.19 230.09 246.172 229.073 244.916 229.073C243.661 229.073 242.643 230.09 242.643 231.343C242.643 232.597 243.661 233.613 244.916 233.613Z" fill="white"/>
<path d="M266.813 262.84C267.549 263.081 284.155 263.771 294.229 240.635C296.056 235.731 297.593 228.752 293.81 224.307C291.98 222.158 289.174 220.932 286.397 221.401C283.6 221.874 281.434 224.237 279.999 226.653C276.707 232.194 274.383 238.215 272.321 245.35" fill="white"/>
<path d="M288.132 220.489C287.511 220.446 286.887 220.474 286.271 220.579C282.958 221.139 280.659 223.954 279.315 226.217C276.216 231.435 273.821 237.263 271.551 245.114C271.424 245.554 271.664 246.018 272.089 246.148C272.515 246.283 272.959 246.027 273.088 245.585C275.316 237.879 277.657 232.175 280.68 227.086C281.636 225.478 283.667 222.706 286.522 222.222C288.919 221.818 291.479 222.826 293.207 224.859C296.68 228.938 295.272 235.526 293.482 240.336C283.457 263.352 267.169 262.078 267.018 262.03C266.597 261.891 266.166 262.14 266.029 262.579C265.894 263.018 266.146 263.492 266.568 263.631C266.728 263.689 284.259 265.547 294.961 240.972C296.929 235.688 298.416 228.453 294.412 223.75C292.762 221.811 290.47 220.645 288.134 220.485L288.132 220.489Z" fill="#1E1E1E"/>
<path d="M277.578 217.674L273.353 220.029C273.226 220.1 273.18 220.26 273.251 220.386L288.077 246.888C288.147 247.015 288.308 247.06 288.434 246.989L292.66 244.634C292.787 244.563 292.832 244.403 292.761 244.277L277.936 217.775C277.865 217.648 277.705 217.603 277.578 217.674Z" fill="#E1354E"/>
<path d="M265.322 222.77C277.351 222.77 287.102 213.036 287.102 201.029C287.102 189.022 277.351 179.288 265.322 179.288C253.294 179.288 243.543 189.022 243.543 201.029C243.543 213.036 253.294 222.77 265.322 222.77Z" stroke="#666666" stroke-width="3" stroke-miterlimit="10"/>
<path opacity="0.3" d="M265.108 220.146C275.692 220.146 284.272 211.582 284.272 201.016C284.272 190.451 275.692 181.886 265.108 181.886C254.524 181.886 245.943 190.451 245.943 201.016C245.943 211.582 254.524 220.146 265.108 220.146Z" fill="#F4F4F4"/>
<path d="M326.973 275.919C327.035 275.452 327.067 274.984 327.067 274.5C327.067 274.016 327.02 273.548 326.973 273.081L329.462 271.081C330.01 270.629 330.166 269.839 329.806 269.21L327.599 265.274C327.254 264.645 326.503 264.387 325.861 264.661L323.638 265.581C323.2 265.758 322.699 265.694 322.308 265.419C321.963 265.194 321.603 264.968 321.243 264.774C320.821 264.548 320.507 264.161 320.445 263.677L320.1 261.242C320.007 260.532 319.412 260 318.707 260H314.293C313.588 260 313.009 260.532 312.9 261.242L312.555 263.677C312.493 264.161 312.179 264.548 311.757 264.774C311.381 264.968 311.037 265.194 310.692 265.419C310.301 265.694 309.8 265.758 309.362 265.581L307.139 264.661C306.481 264.387 305.746 264.661 305.401 265.274L303.194 269.21C302.849 269.839 302.99 270.629 303.538 271.081L306.027 273.081C305.965 273.548 305.933 274.032 305.933 274.5C305.933 274.968 305.98 275.452 306.027 275.919L303.538 277.919C302.99 278.371 302.834 279.161 303.194 279.79L305.401 283.726C305.746 284.355 306.497 284.613 307.139 284.339L309.362 283.419C309.8 283.242 310.285 283.306 310.692 283.581C311.037 283.823 311.397 284.032 311.757 284.226C312.179 284.452 312.493 284.839 312.555 285.323L312.9 287.758C312.993 288.468 313.588 289 314.293 289H318.707C319.412 289 319.991 288.468 320.1 287.758L320.445 285.323C320.507 284.839 320.821 284.435 321.243 284.226C321.603 284.032 321.963 283.823 322.308 283.581C322.699 283.306 323.2 283.226 323.638 283.419L325.861 284.339C326.503 284.613 327.254 284.339 327.599 283.726L329.806 279.79C330.151 279.161 330.01 278.371 329.462 277.919L326.973 275.919ZM320.163 278.484C318.018 280.694 314.559 280.694 312.414 278.484C310.27 276.274 310.27 272.71 312.414 270.5C314.559 268.29 318.018 268.29 320.163 270.5C322.308 272.71 322.308 276.274 320.163 278.484Z" fill="#3E8BFD"/>
</svg>
