<svg width="80" height="81" viewBox="0 0 80 81" fill="none" xmlns="http://www.w3.org/2000/svg">
<g clip-path="url(#clip0_8819_19310)">
<path d="M35.0572 71.1516L37.4767 66.3039L34.8825 61.229C32.1835 61.0893 28.1306 61.8055 22.7326 63.3865C20.4966 61.5959 18.4265 61.1155 16.5136 61.9453C14.9413 62.6178 13.9019 63.8407 13.3866 65.6051C13.1944 66.2951 13.1769 67.0987 13.3254 68.0071C13.5089 68.9504 13.8233 69.6667 14.26 70.1558C15.02 71.0555 15.8847 71.6669 16.8455 71.9901C18.3391 72.4792 19.9026 72.2434 21.536 71.2739C23.4314 71.0555 27.9385 71.0118 35.0572 71.1603V71.1516Z" fill="white"/>
<path d="M34.8728 61.2095C32.1738 61.0697 28.1209 61.786 22.7229 63.3669C20.4868 61.5763 18.4167 61.0959 16.5038 61.9257C14.9316 62.5983 13.8922 63.8211 13.3768 65.5855C13.1847 66.2756 13.1672 67.0792 13.3157 67.9876C13.4991 68.9309 13.8135 69.6472 14.2503 70.1363C15.0102 71.036 15.8749 71.6474 16.8357 71.9706C18.3294 72.4597 19.8929 72.2239 21.5262 71.2543C23.4216 71.036 27.9287 70.9923 35.0474 71.1408" stroke="#1D1E1D" stroke-linecap="round" stroke-linejoin="round"/>
<path d="M58.535 86.9947C58.1507 86.3396 57.2161 85.3351 55.7137 83.9987C53.8882 82.3741 52.8662 81.4482 52.6478 81.2211L51.1629 79.7362C50.6738 79.2383 50.1061 79.0374 49.4597 79.151C48.6037 79.3082 47.6691 79.7886 46.6646 80.6097C46.0881 81.0377 45.5903 81.5181 45.1535 82.0421L44.9701 82.278C44.3063 83.1514 43.9743 83.9026 43.9831 84.5315C44.0005 85.5098 44.2801 86.2348 44.8391 86.7239C45.2758 87.0383 46.0532 87.7721 47.1625 88.9163C48.4028 90.1654 49.1103 90.9864 49.3025 91.3795C49.0928 93.1701 49.8615 94.5763 51.6171 95.5808C53.53 96.6639 55.5128 96.4368 57.5742 94.8908C58.9106 93.8601 59.6181 92.611 59.7054 91.1524C59.7928 89.8596 59.3997 88.4796 58.535 87.0121V86.9947Z" fill="white"/>
<path d="M49.2849 91.3698C49.0753 93.1604 49.8439 94.5667 51.5996 95.5712C53.5125 96.6543 55.4952 96.4272 57.5566 94.8811C58.893 93.8504 59.6005 92.6014 59.6878 91.1427C59.7752 89.85 59.3821 88.4699 58.5174 87.0025C58.1331 86.3474 57.1985 85.3429 55.6961 84.0065C53.8706 82.3819 52.8486 81.456 52.6303 81.2289L51.1454 79.744C50.6562 79.2461 50.0885 79.0452 49.4421 79.1588C48.5861 79.316 47.6515 79.7964 46.647 80.6175C46.0705 81.0455 45.5727 81.5259 45.1359 82.05L44.9525 82.2858C44.2887 83.1593 43.9568 83.9104 43.9655 84.5393C43.983 85.5176 44.2625 86.2426 44.8215 86.7317C45.2582 87.0462 46.0356 87.7799 47.1449 88.9241C48.3852 90.1732 49.0927 90.9942 49.2849 91.3873V91.3698ZM49.2849 91.3698L49.4771 90.7147" stroke="#1D1E1D" stroke-linecap="round" stroke-linejoin="round"/>
<path d="M36.0084 60.668H34.3226C33.6675 61.655 32.9338 62.9215 32.1214 64.4501C30.4619 67.5072 29.2128 70.4158 28.3568 73.1672C26.9418 77.7704 27.0466 81.9543 28.68 85.7102L29.4224 85.6141C30.0863 85.5442 30.8899 85.5529 31.8245 85.6316C33.3094 85.7364 34.078 85.7276 34.1304 85.6141C34.6283 86.1731 35.4581 86.5749 36.6373 86.7933C37.4146 87.0204 38.2357 87.1601 39.1179 87.2125C40.5242 87.3348 42.6991 87.1164 45.6514 86.5749L49.8615 85.7975C52.7352 85.1686 54.421 84.6009 54.9276 84.0943L55.2682 83.5527C56.9103 80.7052 56.989 77.2288 55.5128 73.1148C55.4953 72.6432 55.4691 72.1977 55.4342 71.7522C54.2288 68.5379 53.0671 65.9612 51.9316 64.0395L50.4467 61.8996C49.2326 61.62 46.5511 61.3143 42.3934 60.9999C39.8254 60.8165 37.7029 60.7029 36.0258 60.6767L36.0084 60.668Z" fill="white"/>
<path d="M28.6702 85.7024C27.0369 81.9465 26.932 77.7713 28.3471 73.1594C29.203 70.408 30.4608 67.4994 32.1117 64.4423C32.924 62.905 33.6577 61.6472 34.3128 60.6602H35.9986C37.6844 60.6864 39.8069 60.7912 42.3661 60.9833C46.5151 61.3065 49.2054 61.6035 50.4195 61.883L51.9044 64.023C53.0399 65.9446 54.2103 68.5126 55.407 71.7357C55.5642 72.1375 55.7214 72.548 55.8699 72.976C56.7346 75.3955 57.0141 77.6141 56.6909 79.6493C56.4901 80.9944 56.0096 82.2959 55.2497 83.5362L54.9091 84.0777M45.6329 86.5584C42.6806 87.1086 40.5057 87.3183 39.0994 87.196C38.2172 87.1436 37.3874 87.0038 36.6188 86.7767C35.4483 86.5496 34.6098 86.1566 34.1119 85.5975" stroke="#1D1E1D" stroke-linecap="round" stroke-linejoin="round"/>
<path d="M33.4578 80.9129C32.9862 80.1617 32.497 79.5415 31.9729 79.0262L31.7109 78.7641C31.0995 78.1789 30.4444 77.7247 29.7456 77.4015C28.8197 76.9648 28.086 76.9386 27.5445 77.3404C27.4484 77.4103 27.3523 77.4976 27.265 77.6024C26.3828 78.4846 25.3521 79.5765 24.1816 80.8867C23.7274 80.4761 23.1597 80.1879 22.4784 80.0219C21.0634 79.6725 19.692 80.0656 18.3731 81.2011C17.3948 82.0571 17.0018 83.2799 17.1677 84.8696C17.3162 86.3807 17.9276 87.918 19.0107 89.4728C19.8405 90.6345 20.8275 91.4468 21.9718 91.901C23.2907 92.3989 24.6708 92.329 26.0945 91.7001C27.3873 91.1149 29.1604 89.9707 31.4052 88.2762C32.4184 87.4726 33.3355 86.7301 34.1479 86.0314C34.3226 85.8829 34.4623 85.7256 34.5671 85.5509C34.8292 85.1579 34.934 84.7037 34.8641 84.1883C34.7593 83.2799 34.2789 82.1881 33.4404 80.9041L33.4578 80.9129Z" fill="white"/>
<path d="M27.5523 77.3506C27.4562 77.4205 27.3601 77.5078 27.2728 77.6126C26.3906 78.4948 25.3599 79.5867 24.1895 80.8969C23.7352 80.4863 23.1675 80.1981 22.4862 80.0321C21.0712 79.6827 19.6998 80.0758 18.3809 81.2113C17.4026 82.0673 17.0096 83.2901 17.1755 84.8798C17.324 86.3909 17.9355 87.9282 19.0185 89.483C19.8483 90.6447 20.8354 91.457 21.9796 91.9112C23.2985 92.4091 24.6786 92.3392 26.1023 91.7103C27.3951 91.1251 29.1682 89.9809 31.413 88.2864C32.4262 87.4828 33.3433 86.7403 34.1557 86.0416C34.3304 85.8931 34.4701 85.7358 34.5837 85.5611" stroke="#1D1E1D" stroke-linecap="round" stroke-linejoin="round"/>
<path d="M45.9741 61.7184C45.2142 61.9018 44.7513 62.0678 44.5679 62.2162L50.8393 70.1124C51.1363 70.4006 51.7827 70.9421 52.7697 71.7195C53.8877 72.6017 54.7001 73.2743 55.2067 73.7372C55.8443 74.9077 56.5693 75.7375 57.3728 76.2266C57.9319 76.5847 58.6481 76.8118 59.539 76.8904C60.3776 76.969 61.1549 76.8904 61.8799 76.6721C62.6573 76.4362 63.3299 76.0082 63.9151 75.4055C64.4304 74.8291 64.806 74.1914 65.0244 73.4927C65.4524 72.0602 65.3214 70.715 64.6139 69.466C63.8802 68.1995 62.7883 67.3959 61.3296 67.0465C57.3816 63.64 53.451 61.7882 49.5379 61.4913C48.2801 61.3865 47.0922 61.4563 45.9829 61.7096L45.9741 61.7184Z" fill="white"/>
<path d="M44.5679 62.2143C44.7513 62.0659 45.2142 61.8999 45.9741 61.7165C47.0834 61.4632 48.2714 61.3933 49.5291 61.4981C53.4335 61.7951 57.3641 63.6468 61.3209 67.0533C62.7796 67.4027 63.8714 68.2063 64.6051 69.4728C65.3126 70.7306 65.4437 72.0757 65.0157 73.4995C64.7973 74.1983 64.4304 74.8359 63.9064 75.4124C63.3211 76.0151 62.6398 76.4343 61.8712 76.6789C61.1462 76.8973 60.3688 76.9671 59.5303 76.8973C58.6394 76.8187 57.9144 76.6003 57.3641 76.2334C56.5605 75.7443 55.8356 74.9232 55.1979 73.7441C54.6913 73.2811 53.879 72.6086 52.761 71.7264C51.7739 70.9402 51.1363 70.4074 50.8306 70.1192" stroke="#1D1E1D" stroke-linecap="round" stroke-linejoin="round"/>
<path d="M18.4593 42.0204C19.6298 41.7147 21.3592 41.5924 23.6565 41.6623C24.7832 41.7147 25.7964 41.7933 26.6874 41.8981C26.6175 40.1075 26.731 38.413 27.0193 36.8145L27.4385 34.9977L21.4204 32.124C20.512 31.7834 19.3677 31.6087 17.9877 31.6C16.5989 31.5912 15.4459 31.7484 14.5288 32.0804C14.1357 32.2114 13.7426 32.3773 13.3583 32.5608C12.5547 32.9364 11.8472 33.3906 11.2445 33.9146C10.4934 34.5261 9.8732 35.2161 9.37532 35.9673C8.7639 36.8669 8.34464 37.8452 8.1088 38.9021C7.83803 39.8804 7.70701 40.981 7.71574 42.2038C7.75941 43.3917 7.91664 44.4748 8.17868 45.4618C8.51933 46.5624 8.98226 47.5232 9.55875 48.3355C10.0916 49.1042 10.7379 49.7767 11.4804 50.3532C12.1879 50.8773 12.8954 51.3053 13.6204 51.6285C14.1619 51.8556 14.5637 52.0128 14.8345 52.0827C15.7691 52.3797 16.922 52.5107 18.2934 52.467C19.6647 52.3971 20.809 52.1788 21.7174 51.8119L27.6482 48.7723C27.4735 48.3268 27.2988 47.7154 27.1416 46.938C26.8184 45.357 26.6612 43.6712 26.6699 41.8894C25.779 41.7933 24.7745 41.7147 23.639 41.6535C21.3418 41.5836 19.6123 41.7059 18.4419 42.0116L18.4593 42.0204Z" fill="#E598A1"/>
<path d="M18.4335 42.0126C19.6039 41.7068 21.3334 41.5846 23.6306 41.6544C24.7573 41.7069 25.7706 41.7855 26.6615 41.8903C26.5916 40.0997 26.7052 38.4052 26.9934 36.8067L27.4127 34.9899L21.3945 32.1162C20.4861 31.7756 19.3419 31.6009 17.9618 31.5921C16.573 31.5834 15.42 31.7406 14.5029 32.0725C14.1098 32.2036 13.7168 32.3695 13.3324 32.553C12.5289 32.9285 11.8213 33.3827 11.2187 33.9068C10.4675 34.5182 9.84732 35.2083 9.34944 35.9595C8.73802 36.8591 8.31876 37.8374 8.08292 38.8943C7.81215 39.8726 7.68113 40.9731 7.68986 42.196C7.73354 43.3839 7.89076 44.467 8.1528 45.454C8.49345 46.5546 8.95638 47.5154 9.53287 48.3277C10.0657 49.0964 10.712 49.7689 11.4632 50.3454C12.1707 50.8695 12.8782 51.2975 13.6032 51.6207C14.1448 51.8478 14.5466 52.005 14.8173 52.0749C15.7519 52.3718 16.9049 52.5029 18.2762 52.4592C19.6476 52.3893 20.7918 52.1709 21.7002 51.8041L27.631 48.7644C27.4563 48.319 27.2817 47.7075 27.1244 46.9302C26.8012 45.3492 26.644 43.6634 26.6528 41.8815" stroke="#AB4C55" stroke-linecap="round" stroke-linejoin="round"/>
<path d="M27.3434 50.3532L26.4699 48.7285C23.2206 50.1872 21.1156 51.2616 20.146 51.9516C19.2638 52.598 18.5825 53.1832 18.1021 53.6985C17.4121 54.406 16.8968 55.1572 16.5561 55.9695C16.3552 56.546 16.2242 56.9478 16.1543 57.1836C15.901 57.9785 15.7263 58.7996 15.6215 59.6468C15.5691 60.5902 15.604 61.5248 15.735 62.4681C15.9272 63.525 16.2679 64.5295 16.7483 65.4728C17.2112 66.4074 17.8052 67.2634 18.5301 68.0583C19.2638 68.8531 20.0325 69.5082 20.8361 70.0236C21.6484 70.5564 22.5306 70.9145 23.4827 71.1067C24.8278 71.3774 26.4 71.3687 28.1994 71.0804C28.9156 70.9756 29.6319 70.7573 30.3394 70.4341C30.68 70.2769 31.0119 70.1022 31.3438 69.9013C32.8899 68.9929 34.0166 67.5779 34.7416 65.6475L37.3271 58.2842C36.5672 58.092 35.7112 57.7863 34.7766 57.3583C32.8287 56.5198 31.3176 55.4454 30.2345 54.1353C29.3873 54.5108 28.5313 55.0262 27.6491 55.6551C25.876 56.9303 24.854 58.1881 24.5745 59.4372C24.8453 58.1881 25.876 56.9216 27.6491 55.6551C28.5313 55.0175 29.3873 54.5108 30.2345 54.1353C29.0816 52.9299 28.1208 51.6634 27.3434 50.3444V50.3532Z" fill="#E598A1"/>
<path d="M30.217 54.144C31.3001 55.4455 32.8112 56.5198 34.759 57.3671C35.7023 57.7951 36.5496 58.1095 37.3095 58.2929L34.724 65.6562C33.9991 67.5779 32.8636 68.9929 31.3263 69.91C30.9943 70.1109 30.6537 70.2856 30.3218 70.4428C29.6055 70.7747 28.898 70.9931 28.1818 71.0892C26.3825 71.3774 24.8102 71.3862 23.4651 71.1154C22.513 70.9232 21.6308 70.5651 20.8185 70.0323C20.0236 69.5082 19.255 68.8531 18.5126 68.067C17.7876 67.2721 17.1936 66.4074 16.7307 65.4815C16.2503 64.5382 15.9096 63.5337 15.7175 62.4768C15.5865 61.5335 15.5515 60.5989 15.6039 59.6555C15.7087 58.8083 15.8834 57.9872 16.1367 57.1924C16.1979 56.9565 16.3376 56.5547 16.5385 55.9783C16.8879 55.1659 17.4033 54.406 18.0846 53.7073C18.5737 53.1919 19.255 52.6067 20.1285 51.9603C21.098 51.2616 23.2031 50.1872 26.4523 48.7285L27.3258 50.3532C28.1032 51.6808 29.064 52.9473 30.217 54.144ZM30.217 54.144C29.3697 54.5196 28.5137 55.0349 27.6315 55.6638C25.8584 56.9391 24.8364 58.1969 24.5569 59.4459" stroke="#AB4C55" stroke-linecap="round" stroke-linejoin="round"/>
<path d="M29.8311 29.4267C30.8793 28.1252 32.3642 26.9984 34.277 26.0464C35.2378 25.5747 36.0851 25.2428 36.8188 25.0506L33.9888 17.7747C33.2114 15.8618 32.0497 14.473 30.4862 13.617C30.1106 13.4161 29.7612 13.2501 29.4293 13.1278C28.783 12.8483 28.0754 12.6562 27.2981 12.5513C25.4987 12.2893 23.9178 12.3242 22.5464 12.6562C21.6992 12.8483 20.8432 13.2326 19.9784 13.8179C19.1923 14.3157 18.4499 14.997 17.7336 15.8618C16.9825 16.7614 16.406 17.6436 16.0129 18.5346C15.5674 19.5041 15.2705 20.5086 15.122 21.5655C14.991 22.5088 14.9735 23.4434 15.0958 24.3606C15.1919 25.1292 15.384 25.9503 15.6897 26.8325L16.1352 28.0291C16.7466 29.3655 17.9869 30.667 19.8387 31.9248C20.8344 32.5886 22.9744 33.6105 26.2499 34.9732L27.0622 33.3136C27.8134 31.951 28.7393 30.6582 29.8486 29.4267C29.1323 28.955 28.3899 28.3348 27.6125 27.5749C26.0228 26.1075 25.0795 24.7536 24.765 23.5133C25.0795 24.7536 26.0315 26.0988 27.6125 27.5749C28.3899 28.3348 29.1323 28.955 29.8486 29.4267M18.3014 19.443C18.3014 18.7704 18.5023 18.2114 18.9303 17.7572C19.367 17.2855 19.8824 17.0497 20.485 17.0497C21.0965 17.0497 21.638 17.2593 22.0922 17.6786C22.529 18.1415 22.7298 18.7005 22.7124 19.3381C22.7298 20.002 22.5377 20.561 22.1272 21.0065C21.7079 21.4781 21.1838 21.7227 20.5549 21.7402C19.9522 21.7402 19.4369 21.5218 19.0002 21.0851C18.5547 20.6309 18.3189 20.0893 18.3014 19.443Z" fill="#E598A1"/>
<path d="M18.9043 17.7585C18.485 18.2127 18.2754 18.7805 18.2754 19.4443C18.2929 20.082 18.5287 20.6322 18.9742 21.0864C19.4022 21.5232 19.9262 21.7415 20.5289 21.7415C21.1578 21.7241 21.6819 21.4795 22.1012 21.0078C22.5117 20.5624 22.7039 20.0121 22.6864 19.3395C22.7126 18.6931 22.503 18.1429 22.0662 17.6799C21.612 17.2607 21.0705 17.0423 20.4591 17.051C19.8564 17.051 19.341 17.2869 18.9043 17.7585Z" fill="#F6D3D6"/>
<path d="M29.815 29.4159C30.8631 28.1145 32.348 26.9877 34.2609 26.0356C35.2217 25.5639 36.069 25.232 36.8027 25.0399L33.9727 17.7639C33.1953 15.851 32.0336 14.4622 30.4701 13.6062C30.0945 13.4053 29.7451 13.2394 29.4132 13.1171C28.7668 12.8376 28.0593 12.6454 27.2819 12.5406C25.4826 12.2786 23.9016 12.3135 22.5303 12.6454C21.683 12.8376 20.8271 13.2219 19.9623 13.8071C19.1762 14.305 18.4338 14.9863 17.7175 15.851C16.9663 16.7507 16.3899 17.6329 15.9968 18.5238C15.5513 19.4934 15.2544 20.5066 15.1059 21.5547C14.9748 22.4981 14.9574 23.4327 15.0797 24.3498C15.1757 25.1185 15.3679 25.9395 15.6736 26.8217L16.1191 28.0184C16.7305 29.3548 17.9708 30.6562 19.8226 31.914C20.8183 32.5779 22.9583 33.5998 26.2338 34.9624L27.0461 33.3028C27.7973 31.9402 28.7232 30.6475 29.8325 29.4159H29.815ZM29.815 29.4159C29.0988 28.9442 28.3563 28.3241 27.5789 27.5642C25.9892 26.0968 25.0459 24.7429 24.7314 23.5026" stroke="#AB4C55" stroke-linecap="round" stroke-linejoin="round"/>
<path d="M49.5216 8.28091C48.8752 7.49479 48.1939 6.8659 47.4602 6.39423C46.5431 5.77407 45.5648 5.3286 44.5166 5.04909C43.4772 4.78706 42.3854 4.66477 41.2237 4.69097C40.1406 4.69097 39.0575 4.85693 37.9657 5.15391C36.9175 5.45089 35.948 5.92256 35.0483 6.56019C34.3583 7.04933 33.7032 7.70442 33.0743 8.52548C32.5589 9.23299 32.1309 9.96669 31.7816 10.7441C31.6418 11.0585 31.4933 11.4691 31.3273 11.9582C30.6024 15.1638 30.9343 18.317 32.3406 21.4091C33.0393 22.9551 33.808 24.1779 34.664 25.0864L36.4983 24.5797C37.7473 24.309 39.0662 24.1517 40.4376 24.1081C40.3153 23.4879 40.2192 22.7542 40.1668 21.8982C40.0096 20.2124 40.0707 18.7712 40.3502 17.592C40.0707 18.7799 40.0096 20.2124 40.1668 21.8982C40.2279 22.7542 40.3153 23.4879 40.4376 24.1081C40.7957 24.0993 41.1625 24.0906 41.5207 24.0906C43.3113 24.0207 45.0058 24.1255 46.6042 24.405C47.3903 24.5623 48.0018 24.7195 48.4385 24.8593L51.2773 17.4348C52.0022 15.4695 52.0197 13.5392 51.3384 11.6437C51.1899 11.1983 51.024 10.8052 50.858 10.4558C50.4649 9.65225 50.0195 8.92727 49.5216 8.28091Z" fill="#E598A1"/>
<path d="M40.4356 24.0964C40.7937 24.0876 41.1606 24.0789 41.5187 24.0789C43.3093 24.009 45.0038 24.1138 46.6023 24.3933C47.3884 24.5506 47.9998 24.7078 48.4365 24.8475L51.2753 17.4231C52.0003 15.4578 52.0178 13.5274 51.3364 11.632C51.188 11.1866 51.022 10.7935 50.856 10.4441C50.463 9.64053 50.0175 8.91555 49.5196 8.26919C48.8733 7.48307 48.192 6.85418 47.4583 6.38251C46.5411 5.76235 45.5629 5.31688 44.5147 5.03738C43.4753 4.77534 42.3834 4.65305 41.2217 4.67926C40.1386 4.67926 39.0555 4.84521 37.9637 5.14219C36.9156 5.43917 35.946 5.91084 35.0463 6.54847C34.3563 7.03761 33.7012 7.69271 33.0723 8.51376C32.557 9.22127 32.129 9.95498 31.7796 10.7324C31.6398 11.0468 31.4914 11.4573 31.3254 11.9465C30.6004 15.1521 30.9323 18.3053 32.3386 21.3973C33.0374 22.9434 33.806 24.1662 34.662 25.0746L36.4963 24.568C37.7454 24.2973 39.0643 24.14 40.4356 24.0964ZM40.4356 24.0964C40.3133 23.4762 40.2173 22.7425 40.1648 21.8865C40.0076 20.2007 40.0688 18.7595 40.3483 17.5803" stroke="#AB4C55" stroke-linecap="round" stroke-linejoin="round"/>
<path d="M69.6624 20.7458C69.4702 19.7151 69.0859 18.7019 68.5094 17.7149C67.9155 16.7279 67.2342 15.8719 66.4481 15.1469C65.6183 14.3171 64.7361 13.662 63.8189 13.1641C62.8756 12.64 61.8536 12.2907 60.7531 12.1072C59.7661 11.9762 58.8315 11.9675 57.9405 12.081C57.1981 12.1858 56.3858 12.3955 55.4948 12.7099C55.1018 12.8671 54.7087 13.068 54.3069 13.2951C51.9748 14.256 49.9745 16.3959 48.3062 19.6976L46.5156 24.3183L48.5857 25.5586C50.2366 26.6329 51.6865 27.8034 52.9268 29.0524L52.9443 29.0699C54.2458 30.2665 55.3551 31.5331 56.2809 32.8782C56.7439 33.542 57.0758 34.0748 57.2767 34.4766L64.5439 31.2623C66.4481 30.3714 67.8281 29.0175 68.6841 27.2182C68.8763 26.86 69.0422 26.4582 69.182 26.0215C69.4877 25.1743 69.6799 24.3357 69.7672 23.5147C69.8633 22.5975 69.8284 21.6804 69.6537 20.7545L69.6624 20.7458Z" fill="#E598A1"/>
<path d="M52.9452 29.0612C54.2467 30.2578 55.356 31.5243 56.2819 32.8695C56.7448 33.5333 57.0767 34.0661 57.2776 34.4679L64.5448 31.2536C66.449 30.3626 67.8291 29.0088 68.6851 27.2094C68.8772 26.8513 69.0432 26.4495 69.1829 26.0128C69.4886 25.1655 69.6808 24.327 69.7682 23.5059C69.8642 22.5888 69.8293 21.6717 69.6546 20.7458C69.4624 19.7151 69.0781 18.7019 68.5016 17.7149C67.9077 16.7279 67.2264 15.8719 66.4403 15.1469C65.6105 14.3171 64.7283 13.662 63.8111 13.1641C62.8678 12.64 61.8458 12.2907 60.7453 12.1072C59.7583 11.9762 58.8236 11.9675 57.9327 12.081C57.1903 12.1858 56.378 12.3955 55.487 12.7099C55.094 12.8672 54.7009 13.068 54.2991 13.2951C51.967 14.256 49.9667 16.3959 48.2984 19.6976L46.5078 24.3183L48.5779 25.5586C50.2288 26.6329 51.6787 27.8034 52.919 29.0524L52.9365 29.0699L52.9452 29.0612ZM52.9452 29.0612L54.5087 26.9823C55.7665 25.4101 56.9282 24.196 57.9939 23.3487" stroke="#AB4C55" stroke-linecap="round" stroke-linejoin="round"/>
<path d="M75.9944 47.331C76.5883 46.4575 77.0251 45.4793 77.2958 44.3874C77.5666 43.4179 77.6976 42.3348 77.6889 41.1294C77.6539 39.8978 77.4967 38.7973 77.1997 37.8277C76.9115 36.7883 76.4486 35.8275 75.8197 34.954C75.2607 34.1854 74.5968 33.5128 73.8282 32.9188C73.1818 32.4297 72.4481 32.0017 71.6358 31.6436L70.3955 31.1894C66.9453 30.246 63.7309 30.5343 60.7524 32.0366C59.8178 32.4734 58.9706 33.0324 58.1932 33.6962L57.3022 34.5173L57.7914 36.3516C58.132 37.95 58.2893 39.6358 58.2631 41.4176C58.3417 43.1908 58.2368 44.8678 57.9311 46.4401C57.8089 47.2349 57.6604 47.8551 57.4769 48.3005L58.3941 49.1216C59.1977 49.733 60.0711 50.2658 61.0145 50.7113C64.0541 52.1088 67.2859 52.2835 70.7099 51.2441L71.8978 50.72C72.6665 50.3619 73.3914 49.9077 74.0728 49.3662C74.8501 48.7635 75.479 48.0822 75.9769 47.331H75.9944Z" fill="#E598A1"/>
<path d="M58.2805 41.4176C58.3591 43.1908 58.2543 44.8678 57.9486 46.4401C57.8263 47.2349 57.6778 47.8551 57.4944 48.3005L58.4115 49.1216C59.2151 49.733 60.0886 50.2658 61.0319 50.7113C64.0716 52.1088 67.3034 52.2835 70.7274 51.2441L71.9153 50.72C72.6839 50.3619 73.4089 49.9077 74.0902 49.3662C74.8676 48.7635 75.4965 48.0822 75.9944 47.331C76.5883 46.4575 77.0251 45.4793 77.2958 44.3874C77.5666 43.4179 77.6976 42.3348 77.6889 41.1294C77.654 39.8978 77.4967 38.7973 77.1997 37.8277C76.9115 36.7883 76.4486 35.8275 75.8197 34.954C75.2607 34.1854 74.5968 33.5128 73.8282 32.9188C73.1818 32.4297 72.4481 32.0017 71.6358 31.6436L70.3955 31.1894C66.9453 30.246 63.7309 30.5343 60.7524 32.0366C59.8178 32.4734 58.9706 33.0324 58.1932 33.6962L57.3022 34.5173L57.7914 36.3516C58.132 37.95 58.2893 39.6358 58.2631 41.4176H58.2805ZM58.2805 41.4176L64.7791 41.3128" stroke="#AB4C55" stroke-linecap="round" stroke-linejoin="round"/>
<path d="M67.2594 67.4019C68.0892 66.5721 68.7443 65.6899 69.2247 64.7553C69.775 63.777 70.1243 62.7638 70.2816 61.7069C70.4301 60.7461 70.4388 59.8115 70.3078 58.8943C70.2117 58.1082 69.9933 57.2959 69.6352 56.4486C69.5304 56.0818 69.3557 55.68 69.1111 55.2432C68.2115 53.4614 66.7877 52.1687 64.8486 51.3651L57.4941 48.3604C57.2932 48.7883 56.9875 49.3474 56.5682 50.0287C55.6947 51.3563 54.6204 52.6491 53.3451 53.8894L53.3276 53.9068L55.2493 56.1604C56.6468 57.8025 57.7561 58.8681 58.5597 59.366C57.7474 58.8769 56.6468 57.8025 55.2493 56.1604L53.3276 53.9068C52.1223 55.2258 50.8645 56.3351 49.563 57.2609L47.9209 58.2392L51.1527 65.5064C52.0349 67.4019 53.38 68.7819 55.1969 69.6467C55.5462 69.8388 55.948 70.0048 56.3935 70.1445C57.232 70.4502 58.0531 70.6424 58.8654 70.721C59.8786 70.8346 60.8132 70.8084 61.6692 70.6249C62.6999 70.4328 63.6957 70.0485 64.6652 69.472C65.6522 68.8955 66.5257 68.2054 67.2769 67.4019H67.2594Z" fill="#E598A1"/>
<path d="M53.3203 53.9068C52.1149 55.2258 50.8571 56.3351 49.5557 57.2609L47.9136 58.2392L51.1454 65.5064C52.0276 67.4019 53.3727 68.7819 55.1895 69.6467C55.5389 69.8388 55.9407 70.0048 56.3862 70.1445C57.2247 70.4502 58.0458 70.6424 58.8581 70.721C59.8713 70.8346 60.8059 70.8084 61.6619 70.6249C62.6926 70.4328 63.6883 70.0485 64.6579 69.472C65.6449 68.8955 66.5183 68.2054 67.2695 67.4019C68.0993 66.5721 68.7544 65.6899 69.2348 64.7553C69.7851 63.777 70.1345 62.7638 70.2917 61.7069C70.4402 60.7461 70.4489 59.8115 70.3179 58.8943C70.2218 58.1082 70.0035 57.2959 69.6454 56.4486C69.5405 56.0818 69.3658 55.68 69.1213 55.2432C68.2216 53.4614 66.7979 52.1687 64.8588 51.3651L57.5042 48.3604C57.3033 48.7883 56.9976 49.3474 56.5783 50.0287C55.7049 51.3563 54.6305 52.6491 53.3553 53.8894L53.3378 53.9068H53.3203ZM53.3203 53.9068L55.2419 56.1604C56.6395 57.8025 57.7488 58.8681 58.5524 59.366" stroke="#AB4C55" stroke-linecap="round" stroke-linejoin="round"/>
<path d="M46.3323 58.2754C45.9305 58.4413 45.3453 58.6073 44.5767 58.782C43.0743 59.0964 41.4671 59.2449 39.7639 59.2187C39.4058 59.2275 39.0476 59.2449 38.6982 59.2537L38.4886 61.4985C38.3925 63.193 38.5061 64.6255 38.8293 65.8134C38.5061 64.6342 38.3925 63.193 38.4886 61.4985L38.6982 59.2537C37.3706 59.2537 36.1041 59.1489 34.8987 58.9305L33.143 58.5112C32.3482 59.3672 31.6319 60.5202 31.0118 61.9701C29.7627 64.87 29.5443 67.7961 30.3305 70.7485C30.4527 71.124 30.61 71.4996 30.8109 71.8577C31.1952 72.6177 31.6319 73.2902 32.1123 73.8755C32.6801 74.583 33.3264 75.1682 34.0427 75.6311C34.9074 76.1727 35.8595 76.5832 36.8814 76.8627C37.9034 77.116 38.9516 77.2295 40.0346 77.2033C41.0129 77.2033 42.0611 77.0549 43.1791 76.7666C44.1661 76.4871 45.0745 76.0504 45.9218 75.4739C46.673 74.9498 47.3193 74.3384 47.8434 73.6309C48.35 72.9933 48.7518 72.3119 49.0663 71.5782C49.241 71.2201 49.3807 70.8445 49.4855 70.4427C50.0882 68.7045 50.0096 66.9227 49.2584 65.0971L46.3148 58.2754H46.3323Z" fill="#E598A1"/>
<path d="M38.7066 59.2341C39.0559 59.2254 39.4053 59.2167 39.7722 59.1992C41.4754 59.2254 43.0739 59.0856 44.585 58.7625C45.3536 58.5878 45.9301 58.4218 46.3406 58.2559L49.2842 65.0776C50.0354 66.9032 50.114 68.685 49.5113 70.4232C49.4065 70.8163 49.2667 71.2006 49.092 71.5587C48.7776 72.2924 48.3758 72.9737 47.8692 73.6113C47.3451 74.3189 46.6987 74.9303 45.9476 75.4544C45.1003 76.0308 44.1919 76.4676 43.2049 76.7471C42.0869 77.0353 41.0387 77.1838 40.0604 77.1838C38.9773 77.2013 37.9292 77.0877 36.9072 76.8432C35.8853 76.5637 34.9419 76.1531 34.0685 75.6116C33.3522 75.1486 32.7146 74.5634 32.1381 73.8559C31.6577 73.2707 31.221 72.5981 30.8366 71.8382C30.6358 71.4801 30.4785 71.1045 30.3562 70.7289C29.5614 67.7679 29.7885 64.8418 31.0375 61.9506C31.6577 60.5007 32.3739 59.3477 33.1688 58.4917L34.9245 58.911C36.1298 59.1206 37.3964 59.2254 38.724 59.2341H38.7066ZM38.7066 59.2341L38.4969 61.4789C38.4008 63.1735 38.5144 64.6059 38.8376 65.7939" stroke="#AB4C55" stroke-linecap="round" stroke-linejoin="round"/>
<path d="M36.0079 22.6456C31.99 23.816 28.8019 25.8162 26.4435 28.6288C24.4607 30.9435 23.0632 33.6774 22.2509 36.8306C21.4473 39.8877 21.2639 42.9536 21.7181 46.0195C22.1723 48.963 23.2292 51.5485 24.8887 53.7933C26.5396 55.9944 28.7058 57.7501 31.3786 59.069C34.8375 60.746 38.4274 61.5671 42.1309 61.5409C45.8169 61.4448 49.3719 60.5102 52.7784 58.7371C55.425 57.3395 57.5388 55.514 59.1023 53.2605C60.6833 50.972 61.6528 48.3429 62.0109 45.3906C62.3778 42.316 62.107 39.2501 61.2161 36.2105C60.2815 33.1009 58.8053 30.4194 56.7876 28.1659C54.3332 25.4407 51.0839 23.554 47.0398 22.4971C45.2579 22.0429 43.4062 21.842 41.4933 21.8769C39.5979 21.9031 37.7636 22.1652 36.0079 22.6543V22.6456Z" fill="white"/>
<path d="M56.7784 28.158C54.3239 25.4328 51.0746 23.5462 47.0305 22.4893C45.2486 22.0351 43.3969 21.8342 41.484 21.8691C39.5886 21.8953 37.7543 22.1574 35.9986 22.6465C31.9807 23.8169 28.7926 25.8172 26.4342 28.6297C24.4515 30.9444 23.0539 33.6783 22.2416 36.8315C21.438 39.8887 21.2546 42.9545 21.7088 46.0204C22.163 48.964 23.2199 51.5494 24.8795 53.7942C26.5303 55.9953 28.6965 57.751 31.3693 59.0699C34.8282 60.747 38.4181 61.568 42.1216 61.5418C45.8076 61.4457 49.3626 60.5111 52.7692 58.738C55.4157 57.3405 57.5295 55.5149 59.093 53.2614C60.674 50.9729 61.6435 48.3438 62.0017 45.3915C62.3685 42.3169 62.0977 39.251 61.2068 36.2114C60.2722 33.1019 58.7961 30.4203 56.7784 28.1668V28.158Z" stroke="#1D1E1D" stroke-linecap="round" stroke-linejoin="round"/>
<path d="M25.0112 47.3318C25.0374 48.1092 25.2732 48.7643 25.7274 49.3058C26.2078 49.8648 26.7581 50.1269 27.387 50.1182C28.0334 50.1182 28.5749 49.8299 29.0117 49.2622C29.4659 48.7119 29.693 48.0393 29.6755 47.2532C29.658 46.4671 29.4309 45.7945 28.9767 45.253C28.4963 44.6939 27.946 44.4319 27.3171 44.4406C26.6708 44.4406 26.1292 44.7289 25.6925 45.2966C25.2208 45.8469 24.9937 46.5282 25.0112 47.3318Z" fill="#F3CCD0"/>
<path d="M49.6952 48.964C50.2455 48.405 50.5163 47.7324 50.4988 46.9376C50.4988 46.1514 50.2106 45.4789 49.6341 44.9286C49.0925 44.387 48.4112 44.125 47.6076 44.125C46.8303 44.1687 46.1752 44.4482 45.6423 44.981C45.0921 45.5575 44.8213 46.23 44.8213 47.0074C44.8475 47.7935 45.1357 48.4574 45.6773 48.9989C46.2363 49.5492 46.9089 49.82 47.7037 49.8025C48.4898 49.785 49.1537 49.5055 49.6952 48.964Z" fill="#F3CCD0"/>
<path d="M44.5763 42.6222C44.5676 41.9671 44.3667 41.3994 43.9823 40.9364C43.598 40.4735 43.1351 40.2464 42.6023 40.2551C42.0695 40.2639 41.6153 40.5084 41.2397 40.9801C40.8728 41.443 40.6981 42.0108 40.7069 42.6659C40.7156 43.321 40.9165 43.8887 41.3008 44.3517C41.6851 44.7971 42.1481 45.0242 42.6809 45.033C43.2137 45.0242 43.6679 44.7797 44.0435 44.308C44.4016 43.8189 44.5763 43.2598 44.5763 42.6222Z" fill="#1D1E1D"/>
<path d="M43.6853 41.8572C43.6853 41.6738 43.6154 41.5165 43.4844 41.3855C43.3621 41.272 43.2048 41.2108 43.0214 41.1934C42.838 41.1934 42.6895 41.2632 42.576 41.3855C42.4449 41.5078 42.3838 41.665 42.3838 41.8485C42.3838 42.0319 42.4537 42.1891 42.5847 42.3201C42.707 42.4511 42.8642 42.5123 43.0476 42.5123C43.231 42.5123 43.3883 42.4424 43.5193 42.3114C43.6328 42.1891 43.6853 42.0319 43.6853 41.8485V41.8572Z" fill="white"/>
<path d="M32.8636 42.7708C32.8723 42.1244 32.6889 41.5742 32.2958 41.1112C31.9115 40.6483 31.4486 40.4212 30.9158 40.4299C30.3829 40.4387 29.9287 40.6832 29.5532 41.1549C29.1863 41.6178 29.0029 42.1856 28.9941 42.8494C29.0029 43.5045 29.2038 44.0723 29.5881 44.5352C29.9724 44.9807 30.4354 45.2078 30.9682 45.2165C31.501 45.2078 31.9552 44.9632 32.3308 44.4915C32.6889 44.0024 32.8636 43.4346 32.8549 42.7795L32.8636 42.7708Z" fill="#1D1E1D"/>
<path d="M31.9976 42.0262C31.9802 41.6069 31.7618 41.3886 31.3338 41.3711C30.9145 41.3886 30.6962 41.6069 30.6787 42.0349C30.6787 42.2184 30.7486 42.3756 30.8796 42.5066C31.0019 42.6376 31.1591 42.6988 31.3425 42.6988C31.526 42.6988 31.6832 42.6289 31.8142 42.4979C31.9452 42.3756 32.0064 42.2184 32.0064 42.0349L31.9976 42.0262Z" fill="white"/>
<path d="M27.6496 47.9786L28.4532 46.5374M25.7979 47.9436L26.6451 46.5024M48.1323 47.5506L48.9796 46.1268M46.0185 47.3759L46.8396 45.9521" stroke="#DE858E" stroke-linecap="round" stroke-linejoin="round"/>
<path d="M39.597 45.7422C38.1383 46.1265 36.4613 46.1964 34.5571 45.9693L34.7842 48.118C35.2035 49.5243 36.0333 50.1707 37.2911 50.0746C38.6275 49.996 39.4136 49.2535 39.6669 47.8472L39.6057 45.7422H39.597Z" fill="#FBE4E8"/>
<path d="M39.597 45.7314C38.1383 46.1158 36.4613 46.1856 34.5571 45.9585L34.7842 48.1073C35.2035 49.5135 36.0333 50.1599 37.2911 50.0638C38.6275 49.9852 39.4136 49.2428 39.6669 47.8365L39.6057 45.7314H39.597Z" stroke="#1D1E1D" stroke-linecap="round" stroke-linejoin="round"/>
<path d="M50.9452 62.7171L49.6437 63.6081C51.7662 64.3593 54.1071 65.2065 56.6663 66.1498C56.6925 66.0974 56.7013 66.0363 56.7187 65.9839C56.7712 65.7568 56.7537 65.5122 56.6663 65.2677L56.6489 65.2502C56.6489 65.2502 56.6227 65.2065 56.6227 65.189C56.1597 63.9138 55.4784 62.7608 54.5788 61.7389C53.3122 61.7738 52.0981 62.097 50.9539 62.7084M46.8835 67.9492C45.3026 65.2502 44.3592 63.1451 44.0623 61.6428C42.0882 60.9789 40.4199 60.4461 39.0573 60.0443C39.0311 60.1142 39.0224 60.1841 39.0311 60.2452L39.0748 60.8654C39.0748 60.8654 39.0748 60.8916 39.101 60.9003V60.9178C39.6251 62.2455 40.4024 63.4683 41.4419 64.5689C42.9006 66.1236 44.7174 67.2504 46.8923 67.9492M52.0282 68.4558C50.7443 66.5866 49.9319 64.9881 49.5913 63.643L49.6699 63.5993C47.5823 62.8482 45.7218 62.1931 44.071 61.634C44.3767 63.1364 45.32 65.2414 46.8923 67.9405C46.9447 67.9492 46.9971 67.9667 47.0582 67.9929C49.338 68.6916 51.3906 68.8139 53.2074 68.3684C54.4303 68.054 55.461 67.5125 56.282 66.7263C56.4742 66.5429 56.6052 66.342 56.6838 66.1324C54.1333 65.189 51.7924 64.333 49.6612 63.5906L49.5826 63.6343C49.9319 64.9794 50.7443 66.5778 52.0195 68.4471M49.8708 58.5769C49.7572 58.542 49.6612 58.507 49.5651 58.4808C48.2724 58.5857 46.9622 59.1185 45.6258 60.0967L44.0361 61.5292C44.0361 61.5292 44.0448 61.5904 44.0623 61.6253C45.7044 62.1843 47.5736 62.8307 49.6612 63.5906L50.9626 62.6997C52.1156 62.0882 53.321 61.7563 54.5875 61.7301C54.5875 61.7127 54.5875 61.7039 54.5613 61.6952C54.4739 61.5904 54.3866 61.503 54.2993 61.4157C54.142 61.2497 53.9848 61.1012 53.8276 60.9702L49.8708 58.5944M49.3118 58.411C47.329 57.8083 45.3637 57.6598 43.4159 57.9568C42.0882 58.1664 40.8654 58.5769 39.7299 59.1796C39.4242 59.3456 39.2058 59.5989 39.0748 59.9308V59.9483C39.0748 59.9483 39.0573 60.0094 39.0398 60.0531C40.4024 60.4549 42.0795 60.9877 44.0448 61.6515C44.0273 61.6166 44.0186 61.5816 44.0186 61.5554L45.6083 60.123C46.9447 59.1447 48.2636 58.6119 49.5476 58.507C49.4952 58.4808 49.4428 58.4634 49.4079 58.4546L49.303 58.4197L49.3118 58.411Z" fill="#50AB5A"/>
<path d="M51.9841 68.4574C50.7001 66.5882 49.8878 64.9898 49.5472 63.6446L49.6258 63.601C47.5382 62.8498 45.6777 62.1947 44.0269 61.6357C44.3326 63.138 45.2759 65.2431 46.8482 67.9421M49.617 63.5922L50.9185 62.7013C52.0715 62.0899 53.2768 61.758 54.5434 61.7318M39.0132 60.0372C40.3758 60.439 42.0441 60.9718 44.0181 61.6357C44.0181 61.6357 43.9919 61.5658 43.9919 61.5396L45.5816 60.1071C46.918 59.1288 48.237 58.596 49.521 58.4912M56.6309 66.1515C54.0804 65.2081 51.7395 64.3522 49.6083 63.6097" stroke="#35733D" stroke-linecap="round" stroke-linejoin="round"/>
<path d="M39.0557 60.8954V60.8779C39.0557 60.8779 39.0295 60.8517 39.0295 60.843L38.9858 60.2228C38.9858 60.1529 38.9858 60.0918 39.012 60.0219C39.0208 59.9782 39.0295 59.9433 39.047 59.9171V59.8996C39.1693 59.5677 39.3876 59.3231 39.6933 59.1485C40.8288 58.5458 42.0604 58.144 43.3794 57.9343C45.3272 57.6374 47.2925 57.7946 49.2752 58.3885L49.3801 58.4235C49.3801 58.4235 49.4674 58.4497 49.5198 58.4759C49.6159 58.5108 49.7207 58.5458 49.8255 58.572C51.5899 59.2795 52.9088 60.0743 53.7823 60.9478C53.9395 61.0875 54.0968 61.236 54.254 61.3933C54.3413 61.4806 54.4287 61.5767 54.516 61.6728C54.5335 61.6815 54.5335 61.699 54.5422 61.7077C55.4419 62.7297 56.1232 63.8826 56.5861 65.1579C56.5861 65.1753 56.5949 65.1928 56.6123 65.219L56.6298 65.2365C56.7172 65.4811 56.7346 65.7256 56.6822 65.9527C56.6735 66.0051 56.656 66.0575 56.6298 66.1187C56.5512 66.3283 56.4202 66.5205 56.228 66.7126C55.3982 67.49 54.3763 68.0403 53.1534 68.3548C51.3366 68.8002 49.284 68.6779 47.0042 67.9792C46.9518 67.953 46.8907 67.9442 46.8383 67.9268C44.6634 67.2367 42.8465 66.11 41.3879 64.5465C40.3484 63.4372 39.5711 62.223 39.047 60.8954H39.0557Z" stroke="#1D1E1D" stroke-linecap="round" stroke-linejoin="round"/>
<path d="M36.7504 60.9475C36.8377 60.6243 36.829 60.2836 36.7416 59.943C36.6368 59.6285 36.4796 59.384 36.2525 59.218C35.414 58.6765 34.5056 58.3183 33.5273 58.1437C32.1298 57.8816 30.7147 58.0738 29.291 58.7201C27.8149 59.384 26.592 60.5282 25.6312 62.1441C25.011 63.201 24.5306 64.3889 24.19 65.6991C24.0415 66.2843 24.155 66.7909 24.5132 67.2189C25.1595 67.9876 25.9107 68.5117 26.7929 68.7912C28.1031 69.2104 29.5792 69.0357 31.2126 68.2671C32.8198 67.4985 34.1387 66.3018 35.1781 64.6772C35.9031 63.5417 36.4272 62.3013 36.7504 60.9562V60.9475Z" fill="#50AB5A"/>
<path d="M28.226 63.0352C27.3788 62.4413 26.5141 62.1618 25.6231 62.2142M28.2348 63.044C28.6366 63.3322 28.9598 63.6292 29.1956 63.9174C30.7067 63.1051 32.0343 62.4063 33.1873 61.8124M33.1873 61.8124C33.1961 61.7687 33.2048 61.7338 33.1961 61.7076C32.8991 61.2446 32.506 60.7817 32.0169 60.3275C31.0386 59.3754 30.0865 58.8775 29.1432 58.8164M33.1873 61.8124C32.9952 63.2973 32.3663 65.3936 31.2919 68.1013M33.1873 61.8124C34.646 61.0525 35.8252 60.476 36.7161 60.0655M24.2256 66.6426L29.0034 64.0048C29.0646 63.9698 29.1345 63.9436 29.1956 63.9087L29.2131 63.9262C29.0296 65.2888 28.4881 66.9221 27.6059 68.8176" stroke="#35733D" stroke-linecap="round" stroke-linejoin="round"/>
<path d="M36.7328 60.9201C36.8202 60.5969 36.8114 60.2563 36.7241 59.9156C36.6193 59.6012 36.462 59.3566 36.2349 59.1907C35.3964 58.6491 34.488 58.291 33.5097 58.1163C32.1122 57.8543 30.6972 58.0464 29.2734 58.6928C27.7973 59.3566 26.5744 60.5009 25.6136 62.1168C24.9935 63.1737 24.513 64.3616 24.1724 65.6718C24.0239 66.257 24.1375 66.7636 24.4956 67.1916C25.1419 67.9602 25.8931 68.4843 26.7753 68.7638C28.0855 69.1831 29.5617 69.0084 31.195 68.2398C32.8022 67.4711 34.1211 66.2745 35.1606 64.6498C35.8855 63.5143 36.4096 62.274 36.7328 60.9289V60.9201Z" stroke="#1D1E1D" stroke-linecap="round" stroke-linejoin="round"/>
<path d="M40.6736 57.8437C39.8875 57.0838 38.9442 56.7082 37.8436 56.7169C36.7343 56.7257 35.7997 57.1275 35.0398 57.9136C34.2624 58.7172 33.8956 59.6605 33.9305 60.7436C33.9392 61.8704 34.341 62.8137 35.1271 63.5736C35.9307 64.3336 36.8741 64.7179 37.9572 64.7266C39.0665 64.7004 40.0011 64.2899 40.761 63.4863C41.5209 62.7089 41.8965 61.7656 41.8878 60.6388C41.879 59.5382 41.4772 58.6124 40.6736 57.8525M36.6295 59.7217C36.6208 59.3723 36.7343 59.084 36.9702 58.8569C37.1973 58.6298 37.468 58.5163 37.7912 58.5163C38.1231 58.5163 38.4114 58.6386 38.6385 58.8569C38.8656 59.084 38.9879 59.3548 38.9966 59.678C39.0228 60.0012 38.9005 60.2807 38.6559 60.5253C38.4288 60.7524 38.1668 60.8746 37.8611 60.8834C37.5292 60.8834 37.2409 60.7611 37.0138 60.5427C36.7867 60.3244 36.6557 60.0448 36.6382 59.7217H36.6295Z" fill="#EEC56B"/>
<path d="M36.97 58.8387C36.7342 59.0658 36.6206 59.354 36.6294 59.7034C36.6556 60.0266 36.7779 60.2974 37.005 60.5245C37.2321 60.7516 37.5203 60.8651 37.8522 60.8651C38.1579 60.8651 38.4287 60.7428 38.6471 60.507C38.9004 60.2624 39.0139 59.9829 38.9877 59.6598C38.979 59.3366 38.8567 59.0658 38.6296 58.8387C38.4025 58.6116 38.1143 58.498 37.7823 58.498C37.4592 58.498 37.1884 58.6029 36.9613 58.8387H36.97Z" fill="white"/>
<path d="M41.8682 60.6232C41.877 61.7499 41.5014 62.6933 40.7415 63.4707C39.9815 64.2742 39.0469 64.6848 37.9376 64.711C36.8545 64.711 35.9112 64.3267 35.1076 63.558C34.3215 62.7981 33.9197 61.8548 33.911 60.728C33.876 59.6449 34.2429 58.7016 35.0203 57.898C35.7802 57.1118 36.7148 56.7101 37.8241 56.7013C38.9247 56.6926 39.868 57.0682 40.6541 57.8281C41.4577 58.588 41.8595 59.5139 41.8682 60.6144V60.6232Z" stroke="#1D1E1D" stroke-linecap="round" stroke-linejoin="round"/>
</g>
<defs>
<clipPath id="clip0_8819_19310">
<rect width="80" height="80" fill="white" transform="translate(0 0.5)"/>
</clipPath>
</defs>
</svg>
