<svg width="100" height="80" viewBox="0 0 100 80" fill="none" xmlns="http://www.w3.org/2000/svg">
<path d="M38.7345 3.57879L34.2207 3.00635L36.9645 9.88889H41.8205L38.7279 3.57879H38.7345Z" fill="#A8DCDC"/>
<path d="M34.2266 3L38.7404 3.57245L41.8329 9.88254H36.9769L34.2331 3H34.2266Z" stroke="#5EC4B8" stroke-linecap="round" stroke-linejoin="round"/>
<path d="M8.33641 38.159L6.21112 32.5924H2L3.59891 38.159H8.33641Z" fill="#F26767"/>
<path d="M2 32.5924H6.21112L8.33641 38.159H3.59891L2 32.5924Z" stroke="#DF3E3E" stroke-linecap="round" stroke-linejoin="round"/>
<path d="M9.69147 65.7288L12.4419 60.715L8.12546 62.327L5.55273 66.8145L9.69147 65.7288Z" fill="#6799CC"/>
<path d="M8.12546 62.3333L12.4419 60.7212L9.69147 65.7351L5.55273 66.8207L8.12546 62.3333Z" stroke="#1961AA" stroke-linecap="round" stroke-linejoin="round"/>
<path d="M82.7738 66.5249C81.7341 66.8407 80.8524 66.9263 80.1287 66.7881C79.5167 67.9922 78.6613 69.0779 77.5625 70.032C78.6877 70.4004 79.9247 70.532 81.2867 70.4202C82.2474 68.9595 82.7409 67.6632 82.7672 66.5249H82.7738Z" fill="#FBF06E"/>
<path d="M80.1348 66.7946C80.8585 66.9327 81.7337 66.8472 82.7799 66.5314C82.747 67.6697 82.2535 68.9659 81.2994 70.4267C79.9374 70.5385 78.7004 70.4135 77.5752 70.0384C78.674 69.0778 79.5294 67.9987 80.1413 66.7946H80.1348Z" stroke="#FFCD34" stroke-linecap="round" stroke-linejoin="round"/>
<path d="M23.0488 16.2479L19.5154 14.5109L14.791 20.2025L19.3311 22.433L23.0422 16.2479H23.0488Z" fill="#FDDE68"/>
<path d="M19.5146 14.5107L23.048 16.2478L19.337 22.4329L14.7969 20.2023L19.5212 14.5107H19.5146Z" stroke="#FCB12E" stroke-linecap="round" stroke-linejoin="round"/>
<path d="M12.186 45.4758H9.21194L7.20508 48.7526H10.8569L12.186 45.4758Z" fill="#8ECB88"/>
<path d="M9.21194 45.4758H12.186L10.8569 48.7526H7.20508L9.21194 45.4758Z" stroke="#50B95E" stroke-linecap="round" stroke-linejoin="round"/>
<path d="M66.8197 9.34933L65.3129 5.15137L62.1875 6.49366L63.6943 10.9153L66.8197 9.34275V9.34933Z" fill="#0DB14B" fill-opacity="0.5"/>
<path d="M62.1875 6.49989L65.3129 5.15759L66.8197 9.35555L63.6943 10.9281L62.1875 6.50647V6.49989Z" stroke="#0DB14B" stroke-linecap="round" stroke-linejoin="round"/>
<path d="M91.993 35.7378H89.2953L87.4727 38.7185H90.7889L91.993 35.7378Z" fill="#F26767"/>
<path d="M89.3011 35.7378H91.9989L90.7948 38.7185H87.4785L89.3011 35.7378Z" stroke="#DF3E3E" stroke-linecap="round" stroke-linejoin="round"/>
<path d="M82.2734 26.1441L86.4977 25.6901L82.9841 21.1763H78.2334L82.28 26.1441H82.2734Z" fill="#A8DCDC"/>
<path d="M78.2341 21.1826H82.9848L86.4984 25.6964L82.2742 26.1504L78.2275 21.1826H78.2341Z" stroke="#5EC4B8" stroke-linecap="round" stroke-linejoin="round"/>
<path d="M93.0258 53.8385L90.1899 49.8577L84.9062 54.6281L86.6565 58.3983L93.0258 53.8385Z" fill="#F285B2"/>
<path d="M84.9121 54.6217L90.1957 49.8513L93.0317 53.8321L86.6624 58.392L84.9121 54.6217Z" stroke="#EF4C8B" stroke-linecap="round" stroke-linejoin="round"/>
<path d="M54.6593 15.3663C53.9157 14.8465 53.0669 14.4451 52.1129 14.1688C51.2048 13.9253 50.2508 13.8003 49.2506 13.8003C48.2505 13.8003 47.2767 13.9253 46.3686 14.1688C45.3882 14.478 44.546 14.8728 43.842 15.3663C43.2366 15.7874 42.6444 16.3533 42.0654 17.0639C41.618 17.6166 41.2298 18.2483 40.9139 18.9655L40.5125 20.0051C39.9533 21.683 39.9993 23.3674 40.6507 25.0584L43.2432 31.5067L44.8487 31.079C46.2305 30.8158 47.6912 30.6974 49.244 30.7237C50.81 30.6908 52.2774 30.8093 53.6591 31.079C54.3434 31.2238 54.8764 31.362 55.2515 31.5067L57.8571 25.0584C58.5019 23.3608 58.548 21.6764 57.9953 20.0051C57.8637 19.6301 57.7189 19.2813 57.5676 18.9655C57.2517 18.2483 56.8701 17.6166 56.4161 17.0639C55.8765 16.3599 55.2844 15.794 54.6527 15.3663H54.6593Z" fill="#EE9CA5"/>
<path d="M49.2369 30.7299C50.8029 30.697 52.2703 30.8155 53.652 31.0853C54.3363 31.23 54.8693 31.3682 55.2444 31.5129L57.85 25.0647C58.4948 23.3671 58.5409 21.6826 57.9882 20.0113C57.8566 19.6363 57.7118 19.2875 57.5605 18.9717C57.2446 18.2545 56.863 17.6228 56.409 17.0701C55.8694 16.3661 55.2773 15.8002 54.6456 15.3725C53.9021 14.8527 53.0533 14.4513 52.0992 14.175C51.1912 13.9315 50.2371 13.8065 49.2369 13.8065C48.2368 13.8065 47.263 13.9315 46.355 14.175C45.3746 14.4842 44.5323 14.879 43.8283 15.3725C43.2229 15.7936 42.6308 16.3595 42.0517 17.0701C41.6043 17.6228 41.2161 18.2545 40.9002 18.9717L40.4989 20.0113C39.9396 21.6892 39.9856 23.3736 40.6371 25.0647L43.2295 31.5129L44.835 31.0853C46.2168 30.8221 47.6775 30.7036 49.2304 30.7299H49.2369ZM49.2369 30.7299V25.0581" stroke="#B34E58" stroke-linecap="round" stroke-linejoin="round"/>
<path d="M28.7207 21.492C27.839 21.9855 27.0823 22.5711 26.4374 23.2554C25.7202 23.9726 25.1346 24.7293 24.674 25.5387C24.174 26.394 23.845 27.2823 23.6936 28.1903C23.562 28.947 23.5423 29.7629 23.6476 30.6446C23.7397 31.3618 23.9239 32.0725 24.2003 32.7897C24.2924 33.0726 24.4372 33.4213 24.6477 33.8293C25.4242 35.4216 26.648 36.5797 28.3259 37.2903L34.7018 40.0144C34.8728 39.6591 35.1558 39.1787 35.544 38.5865C36.3336 37.4351 37.2877 36.3165 38.426 35.2308C39.5116 34.1056 40.6302 33.145 41.7817 32.3488L43.2095 31.5066L40.4855 25.1307C39.7485 23.4528 38.597 22.229 37.0245 21.4526L35.9848 21.0051C35.2676 20.7288 34.5438 20.5445 33.8069 20.4524C32.9778 20.3603 32.1751 20.3866 31.3855 20.5314C30.4577 20.6827 29.5695 20.9985 28.7338 21.4789L28.7207 21.492Z" fill="#EE9CA5"/>
<path d="M38.407 35.2371C39.4926 34.112 40.6112 33.1513 41.7627 32.3552L43.1905 31.5129L40.4664 25.1371C39.7295 23.4592 38.578 22.2353 37.0054 21.4589L35.9658 21.0115C35.2486 20.7351 34.5248 20.5509 33.7879 20.4588C32.9588 20.3666 32.1561 20.393 31.3665 20.5377C30.4387 20.6891 29.5504 21.0049 28.7148 21.4852C27.8331 21.9787 27.0764 22.5643 26.4316 23.2486C25.7144 23.9658 25.1288 24.7225 24.6682 25.5318C24.1681 26.3872 23.8391 27.2755 23.6878 28.1835C23.5562 28.9402 23.5364 29.7561 23.6417 30.6378C23.7338 31.355 23.9181 32.0657 24.1944 32.7829C24.2866 33.0658 24.4313 33.4145 24.6419 33.8225C25.4183 35.4148 26.6421 36.5729 28.32 37.2835L34.6959 40.0076C34.867 39.6522 35.1499 39.1719 35.5381 38.5797C36.3277 37.4282 37.2818 36.3097 38.4201 35.224L38.407 35.2371ZM38.407 35.2371L34.3801 31.2103" stroke="#B34E58" stroke-linecap="round" stroke-linejoin="round"/>
<path d="M67.1472 20.5448C66.3379 20.4 65.522 20.3737 64.6929 20.4658C63.9889 20.558 63.2717 20.7422 62.5479 21.0186L61.4885 21.466C59.9225 22.2424 58.7776 23.4663 58.0407 25.1441L55.2969 31.52L56.7247 32.3622C57.9091 33.1584 59.0342 34.1191 60.0936 35.2442C61.2188 36.3299 62.1794 37.4485 62.9756 38.6C63.377 39.1922 63.6467 39.6659 63.8046 40.0278L70.1937 37.3037C71.8584 36.5668 73.0823 35.4153 73.8587 33.8427L74.3193 32.8031C74.5825 32.0859 74.7667 31.3753 74.872 30.6581C74.9641 29.829 74.9378 29.0131 74.793 28.2038C74.6417 27.3155 74.3258 26.4338 73.8455 25.5521C73.3849 24.7428 72.7993 23.9861 72.0821 23.2689C71.3649 22.5517 70.6082 21.9661 69.7989 21.5055C68.9172 21.0251 68.0355 20.7093 67.1472 20.558V20.5448Z" fill="#EE9CA5"/>
<path d="M60.0877 35.2373C61.2129 36.323 62.1736 37.4416 62.9697 38.593C63.3711 39.1852 63.6409 39.659 63.7988 40.0209L70.1878 37.2968C71.8525 36.5598 73.0764 35.4084 73.8528 33.8358L74.3134 32.7962C74.5766 32.079 74.7608 31.3683 74.8661 30.6511C74.9582 29.8221 74.9319 29.0062 74.7872 28.1968C74.6358 27.3086 74.32 26.4269 73.8397 25.5451C73.3791 24.7358 72.7935 23.9791 72.0763 23.2619C71.3591 22.5447 70.6024 21.9591 69.793 21.4985C68.9113 21.0182 68.0296 20.7024 67.1414 20.551C66.332 20.4063 65.5161 20.38 64.6871 20.4721C63.983 20.5642 63.2658 20.7484 62.542 21.0248L61.4827 21.4722C59.9167 22.2486 58.7718 23.4725 58.0348 25.1504L55.291 31.5263L56.7188 32.3685C57.9032 33.1646 59.0284 34.1253 60.0877 35.2505V35.2373ZM60.0877 35.2373L64.1015 31.2104" stroke="#B34E58" stroke-linecap="round" stroke-linejoin="round"/>
<path d="M76.3664 37.7643C76.0505 37.5998 75.6952 37.455 75.307 37.3366C73.6226 36.7773 71.9447 36.83 70.2668 37.5077L63.7988 40.0804L64.2265 41.6727C64.5095 43.0545 64.6345 44.5152 64.595 46.0681C64.6345 47.6341 64.516 49.1014 64.2265 50.4832C64.0818 51.1806 63.9436 51.7202 63.7988 52.1084L70.2668 54.6811C71.9644 55.326 73.6423 55.372 75.307 54.8193L76.3664 54.4179C77.0836 54.089 77.7152 53.7073 78.268 53.2665C78.9523 52.7269 79.5116 52.1281 79.9524 51.4767C80.4656 50.7595 80.8604 49.9173 81.1499 48.9501C81.4066 48.0486 81.5316 47.088 81.5316 46.0681C81.5316 45.068 81.4066 44.1205 81.1499 43.219C80.8867 42.2583 80.4854 41.403 79.9524 40.6594C79.4918 39.9949 78.9325 39.4093 78.268 38.896C77.7152 38.4552 77.0836 38.0801 76.3664 37.7643Z" fill="#EE9CA5"/>
<path d="M64.595 46.0681C64.6345 47.6341 64.516 49.1014 64.2265 50.4832C64.0818 51.1806 63.9436 51.7202 63.7988 52.1084L70.2668 54.6811C71.9644 55.326 73.6423 55.372 75.307 54.8193L76.3664 54.4179C77.0836 54.089 77.7152 53.7073 78.268 53.2665C78.9523 52.7269 79.5116 52.1281 79.9524 51.4767C80.4656 50.7595 80.8604 49.9173 81.1499 48.9501C81.4066 48.0486 81.5316 47.088 81.5316 46.0681C81.5316 45.0482 81.4066 44.1205 81.1499 43.219C80.8867 42.2583 80.4854 41.403 79.9524 40.6594C79.4918 39.9949 78.9325 39.4093 78.268 38.896C77.7152 38.4552 77.0836 38.0801 76.3664 37.7643C76.0505 37.5998 75.6952 37.455 75.307 37.3366C73.6226 36.7773 71.9381 36.83 70.2668 37.5077L63.7988 40.0804L64.2265 41.6727C64.5095 43.0545 64.6345 44.5152 64.595 46.0681ZM64.595 46.0681H70.2668" stroke="#B34E58" stroke-linecap="round" stroke-linejoin="round"/>
<path d="M63.8046 52.1216L62.9756 53.5626C62.1794 54.7404 61.2188 55.8589 60.0936 56.9183C59.0342 58.0435 57.9091 59.0041 56.7247 59.8003C56.1457 60.2017 55.6653 60.4714 55.2969 60.6294L58.0407 67.0184C58.7579 68.6831 59.9028 69.907 61.4885 70.6965C61.9096 70.9005 62.2584 71.0519 62.5479 71.144C63.2717 71.4072 63.9889 71.5914 64.6929 71.6967C65.5615 71.8085 66.3774 71.7954 67.1472 71.6506C68.0552 71.4861 68.9369 71.1571 69.7989 70.6702C70.6082 70.2096 71.3649 69.624 72.0821 68.9068C72.7664 68.2554 73.352 67.4921 73.8455 66.6236C74.3061 65.7748 74.6219 64.8997 74.793 64.0048C74.9378 63.1889 74.9641 62.3664 74.872 61.5374C74.7667 60.8136 74.589 60.0898 74.3193 59.3792L73.8587 58.3396C73.0823 56.767 71.865 55.6155 70.1937 54.8785L63.8046 52.1347V52.1216Z" fill="#EE9CA5"/>
<path d="M60.0877 56.9115C59.0284 58.0367 57.9032 58.9973 56.7188 59.7935C56.1398 60.1948 55.6595 60.4646 55.291 60.6225L58.0348 67.0116C58.752 68.6763 59.8969 69.9002 61.4827 70.6897C61.9038 70.8937 62.2525 71.0451 62.542 71.1372C63.2658 71.4004 63.983 71.5846 64.6871 71.6899C65.5556 71.8017 66.3715 71.7886 67.1414 71.6438C68.0494 71.4793 68.9311 71.1503 69.793 70.6634C70.6024 70.2028 71.3591 69.6172 72.0763 68.9C72.7606 68.2486 73.3462 67.4853 73.8397 66.6168C74.3003 65.768 74.6161 64.8929 74.7872 63.998C74.9319 63.1821 74.9582 62.3596 74.8661 61.5306C74.7608 60.8068 74.5832 60.083 74.3134 59.3724L73.8528 58.3327C73.0764 56.7602 71.8591 55.6087 70.1878 54.8717L63.7988 52.1279L62.9697 53.5689C62.1736 54.7467 61.2129 55.8653 60.0877 56.9247V56.9115ZM60.0877 56.9115L64.1015 60.9384" stroke="#B34E58" stroke-linecap="round" stroke-linejoin="round"/>
<path d="M35.5381 53.5624L34.6959 52.1215L28.32 54.8653C26.6421 55.5825 25.4183 56.7339 24.6419 58.3263C24.4379 58.7342 24.2866 59.083 24.1944 59.3659C23.9181 60.0831 23.7338 60.8003 23.6417 61.5241C23.5364 62.4058 23.5562 63.2217 23.6878 63.9915C23.8589 64.9193 24.1879 65.7944 24.6682 66.6103C25.1617 67.4789 25.7473 68.2421 26.4316 68.8935C27.0764 69.5778 27.8331 70.1635 28.7148 70.6569C29.5439 71.1373 30.4256 71.4663 31.3665 71.6373C32.11 71.7821 32.9193 71.7953 33.7879 71.6834C34.5248 71.5781 35.2486 71.4005 35.9658 71.1307C36.2488 71.0386 36.5975 70.8938 37.0054 70.6833C38.5978 69.8937 39.7558 68.6698 40.4664 67.0051L43.1905 60.6161C42.8352 60.4647 42.3549 60.1884 41.7627 59.787C40.6112 58.9908 39.4926 58.0302 38.407 56.905C37.2752 55.8457 36.3146 54.7271 35.525 53.5493L35.5381 53.5624Z" fill="#EE9CA5"/>
<path d="M38.4064 56.9117C37.2747 55.8524 36.314 54.7338 35.5245 53.556L34.6822 52.115L28.3063 54.8588C26.6285 55.576 25.4046 56.7275 24.6282 58.3198C24.4242 58.7278 24.2729 59.0765 24.1808 59.3594C23.9044 60.0766 23.7202 60.7938 23.6281 61.5176C23.5228 62.3993 23.5425 63.2152 23.6741 63.9851C23.8452 64.9128 24.1742 65.788 24.6545 66.6039C25.148 67.4724 25.7336 68.2357 26.4179 68.8871C27.0627 69.5714 27.8194 70.157 28.7011 70.6505C29.5302 71.1308 30.4119 71.4598 31.3528 71.6309C32.0963 71.7756 32.9057 71.7888 33.7742 71.6769C34.5112 71.5717 35.2349 71.394 35.9521 71.1242C36.2351 71.0321 36.5838 70.8874 36.9918 70.6768C38.5841 69.8872 39.7422 68.6634 40.4528 66.9986L43.1768 60.6096C42.8215 60.4583 42.3412 60.1819 41.749 59.7805C40.5975 58.9844 39.479 58.0237 38.3933 56.8986L38.4064 56.9117ZM38.4064 56.9117L34.3796 60.9386" stroke="#B34E58" stroke-linecap="round" stroke-linejoin="round"/>
<path d="M28.1884 37.4879C26.5236 36.8167 24.8458 36.7575 23.1613 37.3168L22.0888 37.7445C21.4045 38.0603 20.7728 38.442 20.1872 38.8762C19.5358 39.3895 18.97 39.9751 18.5028 40.6396C17.9632 41.4687 17.5684 42.3175 17.325 43.1992C17.0684 44.1006 16.9434 45.0482 16.9434 46.0483C16.9434 47.0484 17.0684 48.0288 17.325 48.9303C17.5684 49.8317 17.9632 50.6739 18.5028 51.4569C18.9634 52.1084 19.5227 52.7071 20.1872 53.2467C20.7663 53.6875 21.4045 54.0692 22.0888 54.3981L23.1613 54.7995C24.8392 55.3522 26.5105 55.3062 28.1884 54.6613L34.6564 52.0886C34.5116 51.7004 34.3734 51.1608 34.2418 50.4634C33.9786 49.0816 33.8602 47.6143 33.8865 46.0483C33.8536 44.4954 33.9721 43.0281 34.2418 41.6529L34.6564 40.0606L28.1884 37.4879Z" fill="#EE9CA5"/>
<path d="M33.8865 46.0483C33.8536 44.4954 33.9721 43.0281 34.2418 41.6529L34.6564 40.0606L28.1884 37.4879C26.5236 36.8167 24.8458 36.7575 23.1613 37.3168L22.0888 37.7445C21.4045 38.0603 20.7728 38.442 20.1872 38.8762C19.5358 39.3895 18.97 39.9751 18.5028 40.6396C17.9632 41.4687 17.5684 42.3175 17.325 43.1992C17.0684 44.1006 16.9434 45.0482 16.9434 46.0483C16.9434 47.0484 17.0684 48.0288 17.325 48.9303C17.5684 49.8317 17.9632 50.6739 18.5028 51.4569C18.9634 52.1084 19.5227 52.7071 20.1872 53.2467C20.7663 53.6875 21.4045 54.0692 22.0888 54.3981L23.1613 54.7995C24.8392 55.3522 26.5105 55.3062 28.1884 54.6613L34.6564 52.0886C34.5116 51.7004 34.3734 51.1608 34.2418 50.4634C33.9786 49.0816 33.8602 47.6143 33.8865 46.0483ZM33.8865 46.0483H28.1884" stroke="#B34E58" stroke-linecap="round" stroke-linejoin="round"/>
<path d="M57.8639 66.6303L55.2583 60.6558C54.8832 60.7808 54.3503 60.9058 53.666 61.0374C52.2842 61.294 50.8169 61.4059 49.2509 61.373C47.698 61.4059 46.2307 61.294 44.8555 61.0374L43.25 60.6558L40.6576 66.6303C40.0062 68.2029 39.9601 69.7623 40.5194 71.302L40.9208 72.2824C41.2366 72.9272 41.6182 73.5194 42.0722 74.059C42.592 74.6643 43.1842 75.1907 43.8488 75.6381C44.566 76.1185 45.4082 76.4803 46.3755 76.7238C47.323 76.9804 48.2836 77.0923 49.2575 77.0594C50.2181 77.0923 51.1722 76.9804 52.1197 76.7238C53.0606 76.4803 53.9094 76.1185 54.6661 75.6381C55.3504 75.1775 55.936 74.6511 56.4295 74.059C56.8901 73.5194 57.2717 72.9272 57.581 72.2824C57.7323 71.9995 57.8771 71.6705 58.0087 71.302C58.5614 69.7623 58.5153 68.2029 57.8705 66.6303H57.8639Z" fill="#EE9CA5"/>
<path d="M49.2382 61.3728C47.6853 61.4057 46.218 61.2939 44.8428 61.0373L43.2373 60.6556L40.6449 66.6302C39.9935 68.2027 39.9474 69.7622 40.5067 71.3019L40.9081 72.2823C41.2239 72.9271 41.6055 73.5193 42.0595 74.0588C42.5794 74.6642 43.1715 75.1906 43.8361 75.638C44.5533 76.1183 45.3955 76.4802 46.3628 76.7237C47.3103 76.9803 48.2709 77.0922 49.2448 77.0593C50.2054 77.0922 51.1595 76.9803 52.107 76.7237C53.0479 76.4802 53.8967 76.1183 54.6534 75.638C55.3377 75.1774 55.9233 74.651 56.4168 74.0588C56.8774 73.5193 57.259 72.9271 57.5683 72.2823C57.7196 71.9993 57.8644 71.6703 57.996 71.3019C58.5487 69.7622 58.5026 68.2027 57.8578 66.6302L55.2522 60.6556C54.8771 60.7807 54.3442 60.9057 53.6598 61.0373C52.2781 61.2939 50.8108 61.4057 49.2448 61.3728H49.2382ZM49.2382 61.3728V67.1039" stroke="#B34E58" stroke-linecap="round" stroke-linejoin="round"/>
<path d="M54.0865 29.447C52.514 29.0193 50.9085 28.8021 49.2767 28.8021C47.6449 28.8021 46.0262 29.0193 44.4668 29.447C40.9597 30.4076 38.1435 32.0986 36.0051 34.52C34.2811 36.5203 33.031 38.8891 32.2677 41.6131C31.5242 44.2714 31.3334 46.9362 31.7018 49.6142C32.0506 52.187 32.9257 54.4636 34.3404 56.431C35.7616 58.3852 37.6303 59.9578 39.9464 61.1488C42.9797 62.6687 46.092 63.432 49.2767 63.432C52.4613 63.432 55.5868 62.6687 58.5938 61.1488C60.9362 59.9512 62.8049 58.3786 64.2195 56.431C65.6408 54.457 66.5225 52.187 66.8712 49.6142C67.2397 46.9362 67.0423 44.2714 66.2922 41.6131C65.5355 38.8825 64.2853 36.5203 62.5351 34.52C60.4427 32.0986 57.6265 30.4076 54.0931 29.447H54.0865Z" fill="white"/>
<path d="M62.5219 34.5138C60.4295 32.0924 57.6134 30.4014 54.08 29.4407C52.5074 29.013 50.9019 28.7959 49.2701 28.7959C47.6383 28.7959 46.0196 29.013 44.4602 29.4407C40.9531 30.4014 38.1369 32.0924 36.0051 34.5138C34.2811 36.5141 33.031 38.8828 32.2677 41.6069C31.5242 44.2652 31.3334 46.93 31.7018 49.608C32.0506 52.1808 32.9257 54.4574 34.3404 56.4248C35.7616 58.379 37.6303 59.9516 39.9464 61.1425C42.9797 62.6625 46.092 63.4258 49.2767 63.4258C52.4613 63.4258 55.5868 62.6625 58.5938 61.1425C60.9362 59.945 62.8049 58.3724 64.2195 56.4248C65.6408 54.4508 66.5225 52.1808 66.8712 49.608C67.2397 46.93 67.0423 44.2652 66.2922 41.6069C65.5355 38.8763 64.2853 36.5141 62.5351 34.5138H62.5219Z" stroke="#1E1E1E" stroke-linecap="round" stroke-linejoin="round"/>
<path d="M43.8021 63.5178C43.8021 63.5178 43.8021 63.4586 43.8153 63.4257C43.4403 63.0375 42.9468 62.6295 42.3414 62.2018C41.1176 61.3859 39.9134 60.9319 38.7422 60.8398C36.9525 61.4123 35.4655 62.3663 34.2679 63.7021C34.2548 63.7152 34.2482 63.7284 34.235 63.7481C35.3668 63.735 36.4656 63.9916 37.5315 64.5114C38.0448 64.768 38.4461 65.0246 38.7422 65.2944C40.6438 64.6101 42.3283 64.0179 43.7956 63.5178M48.3159 62.0439C47.1645 62.3795 45.6577 62.873 43.7956 63.5178C43.5192 64.8141 42.6901 66.6498 41.315 69.0186C43.2758 68.3738 44.9076 67.3736 46.217 66.0182C47.1184 65.0575 47.8027 63.9981 48.283 62.8335C48.3752 62.5572 48.3883 62.3005 48.3159 62.0505M38.7422 65.301C38.6633 65.3339 38.5777 65.3602 38.4988 65.3931L32.419 67.6171C32.4782 67.7816 32.59 67.9329 32.7545 68.0777C33.5639 68.7488 34.518 69.216 35.6168 69.4726C37.2486 69.8477 39.0975 69.7161 41.1636 69.0712C41.2163 69.0581 41.2689 69.0449 41.315 69.0252C42.6967 66.6564 43.5192 64.8206 43.7956 63.5244C42.3217 64.0245 40.6372 64.6167 38.7422 65.301C38.7554 65.3141 38.762 65.3207 38.7751 65.3339C38.4988 66.5051 37.7947 67.9 36.663 69.5187C37.7947 67.9066 38.4988 66.5117 38.7751 65.3339C38.762 65.3207 38.7554 65.3141 38.7422 65.301ZM38.4988 65.3931C38.5777 65.3602 38.6633 65.3339 38.7422 65.301C38.4461 65.0378 38.0448 64.7746 37.5315 64.518C36.4722 63.9981 35.3733 63.7415 34.235 63.7547C33.4389 64.6561 32.8269 65.6563 32.3992 66.7551C32.294 67.0709 32.3005 67.3605 32.4124 67.6105L38.4922 65.3865M38.9396 60.7609C38.8672 60.7806 38.8014 60.8069 38.7422 60.8398C39.9134 60.9319 41.1176 61.3859 42.3414 62.2018C42.9468 62.6295 43.4337 63.0375 43.8153 63.4257C43.8021 63.4586 43.8021 63.4849 43.8021 63.5178C45.6577 62.873 47.1645 62.3861 48.3225 62.0439C48.3094 62.011 48.3028 61.9847 48.2896 61.9518C48.1778 61.6426 47.9804 61.432 47.6908 61.307C46.6381 60.8069 45.5063 60.4713 44.2891 60.3134C42.5191 60.0765 40.7425 60.2279 38.9396 60.7609Z" fill="#4FB35B"/>
<path d="M38.7419 60.8331C39.9132 60.9252 41.1173 61.3793 42.3411 62.1952C42.9465 62.6229 43.44 63.0308 43.815 63.419M43.8084 63.419C43.7953 63.4519 43.7953 63.5111 43.7953 63.5111C45.6508 62.8663 47.1576 62.3794 48.3157 62.0372M32.4121 67.5972L38.4919 65.3732C38.5709 65.3403 38.6564 65.314 38.7354 65.2811C38.4393 65.0179 38.0379 64.7547 37.5247 64.4981C36.4653 63.9783 35.3665 63.7217 34.2282 63.7348M36.6495 69.4922C37.7813 67.8802 38.4853 66.4852 38.7617 65.3074L38.7288 65.2745C40.6304 64.5902 42.3148 63.998 43.7821 63.498C43.5058 64.7942 42.6767 66.63 41.3015 68.9987" stroke="#37773E" stroke-linecap="round" stroke-linejoin="round"/>
<path d="M59.8106 65.3274L59.8699 65.2945C57.9814 64.6102 56.2904 64.018 54.7968 63.5179C54.9613 64.3273 55.4219 65.4656 56.1917 66.9329C56.5668 67.6896 56.9352 68.387 57.2971 69.0319C57.3366 69.0516 57.3827 69.0648 57.4353 69.0779C59.5014 69.7227 61.3569 69.8543 63.0085 69.4793C64.1204 69.2358 65.068 68.7687 65.8444 68.0844C66.0155 67.9396 66.1405 67.7883 66.2128 67.6238C63.8967 66.7552 61.778 65.9788 59.8699 65.2945L59.8106 65.3274C60.0936 66.5118 60.8042 67.9067 61.9425 69.5122C60.8108 67.9067 60.1001 66.5118 59.8106 65.3274ZM61.0674 64.5312L59.8699 65.2945C61.778 65.9788 63.8967 66.7552 66.2128 67.6238C66.3181 67.3672 66.3115 67.0842 66.1997 66.7684C65.772 65.663 65.1601 64.6628 64.3771 63.768C63.2256 63.7548 62.1202 64.0114 61.0674 64.5312ZM54.7836 63.4455C54.7836 63.4455 54.7836 63.4916 54.7968 63.5245C56.2904 64.0246 57.9749 64.6168 59.8699 65.3011L61.0674 64.5378C62.1202 64.018 63.2256 63.7614 64.3771 63.7745C64.3573 63.7548 64.3442 63.7416 64.331 63.7285C63.1335 62.3928 61.653 61.4387 59.8699 60.8794C58.6855 60.9518 57.4879 61.3992 56.2707 62.2283C55.6587 62.6494 55.1652 63.0573 54.7836 63.4521M50.3093 62.0572C50.2172 62.3204 50.2238 62.5902 50.3225 62.8534C50.7896 64.018 51.4805 65.0774 52.3885 66.038C53.6848 67.3935 55.3166 68.4002 57.2905 69.0384C56.9352 68.3936 56.5668 67.6961 56.1851 66.9395C55.4219 65.4656 54.9547 64.3272 54.7902 63.5245C53.0202 62.9126 51.5266 62.4191 50.3027 62.0506M59.8633 60.8728C59.7909 60.8399 59.7185 60.8136 59.6461 60.7939C57.8498 60.2543 56.0667 60.0964 54.2967 60.3333C53.0794 60.4978 51.9477 60.8268 50.8949 61.3268C50.6317 61.4518 50.4409 61.6624 50.329 61.9717C50.3159 61.9914 50.3093 62.0177 50.2961 62.0506C51.52 62.4191 53.0202 62.906 54.7836 63.5245C54.7705 63.4916 54.7705 63.4653 54.7705 63.4455C55.1455 63.0442 55.6456 62.6362 56.2575 62.2217C57.4748 61.3926 58.6723 60.9452 59.8567 60.8728H59.8633Z" fill="#4FB35B"/>
<path d="M57.2906 69.0318C56.9352 68.387 56.5668 67.6895 56.1851 66.9329C55.4219 65.459 54.9547 64.3206 54.7902 63.5179M54.7902 63.5179C53.0202 62.906 51.5266 62.4125 50.3027 62.044M54.7902 63.5179C54.7902 63.5179 54.777 63.4587 54.777 63.4389C55.1521 63.0376 55.6522 62.6296 56.2641 62.2151C57.4814 61.386 58.6789 60.9386 59.8633 60.8662M54.7902 63.5179C56.2838 64.018 57.9749 64.6102 59.8633 65.2945M59.8633 65.2945L61.0608 64.5312C62.1136 64.0114 63.219 63.7548 64.3705 63.7679M59.8633 65.2945L59.8041 65.3274C60.0936 66.5117 60.8042 67.9067 61.9359 69.5122M59.8633 65.2945C61.7714 65.9788 63.8902 66.7552 66.2063 67.6237" stroke="#37773E" stroke-linecap="round" stroke-linejoin="round"/>
<path d="M48.2838 62.8269C48.3759 62.5506 48.389 62.294 48.3167 62.0439C48.3035 62.011 48.2969 61.9847 48.2838 61.9518C48.1719 61.6426 47.9745 61.432 47.685 61.307C46.6322 60.8069 45.5005 60.4779 44.2832 60.3134C42.5132 60.0765 40.7366 60.2279 38.9338 60.7609C38.8614 60.7806 38.7956 60.8069 38.7364 60.8398C36.9466 61.4123 35.4596 62.3663 34.2621 63.7021C34.2489 63.7152 34.2423 63.7284 34.2292 63.7481C33.433 64.6496 32.8211 65.6497 32.3934 66.7485C32.2881 67.0644 32.2947 67.3539 32.4065 67.6039C32.4658 67.7684 32.5776 67.9197 32.7421 68.0645C33.5514 68.7357 34.5055 69.2028 35.6043 69.4594C37.2362 69.8345 39.0851 69.7029 41.1512 69.0581C41.2038 69.0449 41.2565 69.0317 41.3025 69.012C43.2633 68.3672 44.8951 67.367 46.2045 66.0116C47.106 65.0509 47.7903 63.9916 48.2706 62.8269H48.2838Z" stroke="#1E1E1E" stroke-linecap="round" stroke-linejoin="round"/>
<path d="M50.3231 62.8402C50.2112 62.5441 50.2178 62.2546 50.3363 61.9651C50.4481 61.6558 50.6389 61.4453 50.9021 61.3202C51.9549 60.8202 53.0866 60.4846 54.3039 60.3267C56.0739 60.0898 57.8505 60.2477 59.6534 60.7873C61.522 61.3466 63.0815 62.327 64.3251 63.7153C65.1344 64.6233 65.7529 65.6432 66.1937 66.7618C66.3846 67.2816 66.2727 67.7225 65.8384 68.0778C65.062 68.7621 64.1145 69.2292 63.0025 69.4727C61.351 69.8477 59.4889 69.7162 57.4294 69.0713C55.3962 68.4265 53.7183 67.4132 52.3892 66.0248C51.4812 65.0642 50.7903 64.0048 50.3231 62.8402Z" stroke="#1E1E1E" stroke-linecap="round" stroke-linejoin="round"/>
<path d="M40.1569 52.8914C40.8412 52.8914 41.4268 52.648 41.9203 52.1545C42.4006 51.6741 42.6375 51.0951 42.6375 50.4108C42.6375 49.7265 42.4006 49.1475 41.9203 48.6803C41.4268 48.1868 40.8412 47.9434 40.1569 47.9434C39.4726 47.9434 38.8936 48.1868 38.4264 48.6803C37.9329 49.1475 37.6895 49.7265 37.6895 50.4108C37.6895 51.0951 37.9329 51.6741 38.4264 52.1545C38.8936 52.648 39.4726 52.8914 40.1569 52.8914Z" fill="#F5CED3"/>
<path d="M60.1073 52.1545C60.5745 51.6741 60.8113 51.0951 60.8113 50.4108C60.8113 49.7265 60.5745 49.1475 60.1073 48.6803C59.6138 48.1868 59.0282 47.9434 58.3439 47.9434C57.6596 47.9434 57.0806 48.1868 56.6002 48.6803C56.1067 49.1475 55.8633 49.7265 55.8633 50.4108C55.8633 51.0951 56.1067 51.6741 56.6002 52.1545C57.0806 52.648 57.6596 52.8914 58.3439 52.8914C59.0282 52.8914 59.6138 52.648 60.1073 52.1545Z" fill="#F5CED3"/>
<path d="M51.2516 49.7789C51.0673 50.2922 50.6989 50.6475 50.133 50.8515C50.0146 50.9238 49.7251 50.9699 49.271 51.0028C48.8302 50.9699 48.5341 50.9238 48.3959 50.8515C48.0669 50.733 47.7774 50.5159 47.534 50.2L47.2773 49.7789" stroke="#1E1E1E" stroke-linecap="round" stroke-linejoin="round"/>
<path d="M44.1383 44.8639C43.6777 44.8639 43.2829 45.0679 42.9408 45.4758C42.6118 45.8772 42.4473 46.3575 42.4473 46.93C42.4473 47.5024 42.6118 47.9959 42.9408 48.417C43.2763 48.8184 43.6777 49.0158 44.1383 49.0158C44.5989 49.0158 44.9937 48.8184 45.3358 48.417C45.6648 47.9959 45.8293 47.5024 45.8293 46.93C45.8293 46.3575 45.6648 45.8706 45.3358 45.4758C45.0003 45.0679 44.5989 44.8639 44.1383 44.8639ZM44.4936 45.6732C44.6581 45.6732 44.7963 45.7324 44.9081 45.8443C45.02 45.9561 45.0792 46.0877 45.0792 46.2457C45.0792 46.4102 45.02 46.5483 44.9081 46.6602C44.7963 46.7721 44.6581 46.8313 44.4936 46.8313C44.3423 46.8313 44.2107 46.7721 44.0922 46.6602C43.9804 46.5483 43.9212 46.4102 43.9212 46.2457C43.9212 46.0943 43.9804 45.9627 44.0922 45.8443C44.2041 45.7324 44.3357 45.6732 44.4936 45.6732Z" fill="#1E1E1E"/>
<path d="M44.9079 45.8444C44.796 45.7326 44.6578 45.6733 44.4933 45.6733C44.342 45.6733 44.2104 45.7326 44.092 45.8444C43.9801 45.9563 43.9209 46.0879 43.9209 46.2458C43.9209 46.4103 43.9801 46.5485 44.092 46.6603C44.2038 46.7722 44.3354 46.8314 44.4933 46.8314C44.6578 46.8314 44.796 46.7722 44.9079 46.6603C45.0197 46.5485 45.079 46.4103 45.079 46.2458C45.079 46.0945 45.0197 45.9629 44.9079 45.8444Z" fill="white"/>
<path d="M51.7642 65.0837C52.4354 64.4191 52.7775 63.6098 52.7775 62.6491C52.7775 61.6885 52.442 60.8857 51.7642 60.2146C51.0997 59.5434 50.2904 59.2013 49.3297 59.2013C48.369 59.2013 47.5597 59.5369 46.8951 60.2146C46.224 60.8857 45.8818 61.7016 45.8818 62.6491C45.8818 63.5966 46.2174 64.4191 46.8951 65.0837C47.5597 65.7548 48.369 66.097 49.3297 66.097C50.2904 66.097 51.0997 65.7614 51.7642 65.0837ZM49.2639 60.7607C49.5402 60.7607 49.7771 60.866 49.9811 61.07C50.1982 61.2542 50.3035 61.4911 50.3035 61.774C50.3035 62.057 50.1982 62.307 49.9811 62.511C49.7771 62.6952 49.5337 62.7873 49.2639 62.7873C48.9941 62.7873 48.7375 62.6952 48.5467 62.511C48.3427 62.307 48.2374 62.0635 48.2374 61.774C48.2374 61.4845 48.3427 61.2542 48.5467 61.07C48.7375 60.866 48.981 60.7607 49.2639 60.7607Z" fill="#F6CB6D"/>
<path d="M49.981 61.0701C49.777 60.8661 49.5335 60.7609 49.2638 60.7609C48.994 60.7609 48.7374 60.8661 48.5466 61.0701C48.3426 61.2544 48.2373 61.4912 48.2373 61.7742C48.2373 62.0571 48.3426 62.3071 48.5466 62.5111C48.7374 62.6953 48.9808 62.7875 49.2638 62.7875C49.5467 62.7875 49.777 62.6953 49.981 62.5111C50.1981 62.3071 50.3034 62.0637 50.3034 61.7742C50.3034 61.4847 50.1981 61.2544 49.981 61.0701Z" fill="white"/>
<path d="M52.758 62.6427C52.758 63.6033 52.4224 64.4127 51.7447 65.0772C51.0801 65.7484 50.2708 66.0905 49.3102 66.0905C48.3495 66.0905 47.5402 65.7549 46.8756 65.0772C46.2045 64.4127 45.8623 63.6033 45.8623 62.6427C45.8623 61.682 46.1979 60.8793 46.8756 60.2081C47.5402 59.537 48.3495 59.1948 49.3102 59.1948C50.2708 59.1948 51.0801 59.5304 51.7447 60.2081C52.4159 60.8793 52.758 61.6952 52.758 62.6427Z" stroke="#1E1E1E" stroke-linecap="round" stroke-linejoin="round"/>
<path d="M53.1652 45.4758C52.8493 45.8772 52.6914 46.3575 52.6914 46.93C52.6914 47.5024 52.8493 47.9959 53.1652 48.417C53.5007 48.8184 53.9021 49.0158 54.3627 49.0158C54.8233 49.0158 55.2444 48.8184 55.5734 48.417C55.8892 47.9959 56.0471 47.5024 56.0471 46.93C56.0471 46.3575 55.8892 45.8706 55.5734 45.4758C55.2444 45.0679 54.843 44.8639 54.3627 44.8639C53.9021 44.8639 53.5073 45.0679 53.1652 45.4758ZM54.1785 46.2391C54.1785 46.0877 54.2311 45.9561 54.3298 45.8377C54.4351 45.7259 54.5601 45.6666 54.7114 45.6666C54.8759 45.6666 55.0141 45.7259 55.126 45.8377C55.2378 45.9496 55.297 46.0812 55.297 46.2391C55.297 46.4102 55.2378 46.5483 55.126 46.6536C55.0207 46.7655 54.8891 46.8247 54.7114 46.8247C54.5601 46.8247 54.4285 46.7655 54.3298 46.6536C54.2245 46.5418 54.1785 46.4036 54.1785 46.2391Z" fill="#1E1E1E"/>
<path d="M54.3301 45.8444C54.2248 45.9563 54.1787 46.0879 54.1787 46.2458C54.1787 46.4103 54.2314 46.5485 54.3301 46.6603C54.4353 46.7722 54.5603 46.8314 54.7117 46.8314C54.8828 46.8314 55.0209 46.7722 55.1262 46.6603C55.2381 46.555 55.2973 46.4234 55.2973 46.2458C55.2973 46.0945 55.2381 45.9629 55.1262 45.8444C55.0144 45.7326 54.8762 45.6733 54.7117 45.6733C54.5603 45.6733 54.4287 45.7326 54.3301 45.8444Z" fill="white"/>
<path d="M37.7886 55.3612C37.1696 55.2392 36.5584 55.275 35.9538 55.4556C35.3641 55.6547 34.8596 55.9913 34.4391 56.4525C33.7083 57.2789 33.4452 58.4525 33.6372 59.981C33.9587 62.4955 34.7676 65.2827 36.0638 68.3427L36.3266 69.0521C36.5554 69.6061 36.8129 70.1112 37.1054 70.5669C38.0302 72.0155 39.0919 72.6456 40.2976 72.4631C41.0929 72.3444 41.7373 71.8034 42.2322 70.8532L42.7187 69.4478C43.3467 66.8403 43.2307 63.8974 42.3782 60.6319C41.3465 57.4289 39.8194 55.6784 37.7892 55.3677L37.7886 55.3612Z" fill="white"/>
<path d="M42.3708 60.6196C41.3391 57.4166 39.812 55.6661 37.7817 55.3554C37.1628 55.2334 36.5516 55.2693 35.947 55.4499C35.3572 55.6489 34.8527 55.9856 34.4322 56.4468C33.7014 57.2731 33.4383 58.4467 33.6304 59.9753C33.9519 62.4898 34.7607 65.277 36.0569 68.3369L36.3198 69.0464C36.5486 69.6004 36.806 70.1055 37.0986 70.5611C38.0234 72.0098 39.0851 72.6399 40.2908 72.4574C41.086 72.3387 41.7305 71.7977 42.2254 70.8474L42.7118 69.4421C43.3399 66.8345 43.2238 63.8917 42.3714 60.6262L42.3708 60.6196Z" stroke="#1E1E1E" stroke-linecap="round" stroke-linejoin="round"/>
<path d="M59.7603 55.5051C60.3777 55.3755 60.9893 55.4039 61.5961 55.5771C62.1882 55.769 62.6968 56.0994 63.1229 56.5554C63.8638 57.3728 64.1412 58.5431 63.9678 60.0739C63.6771 62.5921 62.9023 65.389 61.6437 68.4645L61.3895 69.1771C61.1675 69.7339 60.9162 70.2421 60.6292 70.7013C59.7222 72.1611 58.6683 72.8042 57.4605 72.6364C56.6639 72.5275 56.0128 71.9944 55.5064 71.0502L55.0028 69.6509C54.3429 67.0513 54.423 64.1072 55.2354 60.8315C56.2279 57.6162 57.7335 55.8471 59.7598 55.5117L59.7603 55.5051Z" fill="white"/>
<path d="M55.2428 60.8191C56.2353 57.6037 57.7409 55.8347 59.7672 55.4993C60.3846 55.3697 60.9962 55.3981 61.603 55.5712C62.1951 55.7631 62.7037 56.0936 63.1298 56.5495C63.8706 57.3669 64.148 58.5372 63.9747 60.068C63.6839 62.5862 62.9092 65.3831 61.6505 68.4587L61.3964 69.1713C61.1743 69.728 60.9231 70.2362 60.6361 70.6955C59.7291 72.1553 58.6752 72.7983 57.4673 72.6306C56.6707 72.5216 56.0197 71.9885 55.5132 71.0444L55.0096 69.6451C54.3497 67.0454 54.4298 64.1014 55.2423 60.8257L55.2428 60.8191Z" stroke="#1E1E1E" stroke-linecap="round" stroke-linejoin="round"/>
</svg>
