<svg width="100" height="80" viewBox="0 0 100 80" fill="none" xmlns="http://www.w3.org/2000/svg">
<path d="M36.3327 54.9159L37.1619 54.4228C38.3162 54.2385 40.8255 54.1464 44.6788 54.1464C47.0904 54.1464 49.0686 54.1951 50.6131 54.2981L52.1794 54.4228L53.957 58.0755C55.2739 61.04 56.2332 63.8148 56.8239 66.4053C57.8048 70.8005 57.4092 74.6755 55.6262 78.0193L54.965 77.8676C54.3634 77.7646 53.4853 76.774 52.6128 76.774C51.2308 76.774 50.5999 76.9596 49.516 77.2902H48.4837C47.7575 77.4527 46.7214 76.7903 45.9031 76.774C44.5862 76.7957 43.0977 76.5722 42.2902 76.2579L32.9999 75.2256C31.6721 73.6919 30.2249 74.9085 29.8293 73.2827C29.2982 70.9306 29.6667 68.3347 30.9349 65.4894C31.3522 61.8204 32.5174 58.8776 34.4305 56.6719C35.0212 55.9782 35.6553 55.3929 36.3327 54.9214V54.9159Z" fill="white"/>
<path d="M52.1787 54.4173L50.6125 54.2926C49.0679 54.1896 47.0898 54.1409 44.6781 54.1409C40.8248 54.1409 38.3156 54.233 37.1612 54.4173L36.332 54.9104C35.6546 55.3819 35.0205 55.9618 34.4298 56.6609C32.5167 58.8721 31.3515 61.8095 30.9342 65.4785C29.666 68.3237 29.2975 70.9197 29.8286 73.2718" stroke="#1E1E1E" stroke-linecap="round" stroke-linejoin="round"/>
<path d="M66.4868 14.2478C67.2292 14.1232 67.9229 14.0798 68.5733 14.1232C70.3184 14.2749 71.7383 14.6218 72.833 15.1637C73.6026 15.516 74.318 16.0254 74.9737 16.6866C75.6078 17.3532 76.1606 18.1228 76.6213 18.9953C77.0819 19.8407 77.4234 20.7512 77.6564 21.7159C77.8894 22.6697 77.9707 23.6507 77.9003 24.6641C77.8623 25.4716 77.6943 26.3279 77.3854 27.2221C77.1578 27.905 76.8326 28.6095 76.4045 29.3412L75.7379 30.3383C74.9304 31.4548 73.5647 32.4032 71.6353 33.1836C70.611 33.5901 68.4757 34.1049 65.2349 34.7227L64.823 33.0589C64.384 31.7041 63.7879 30.3438 63.0237 28.9889C63.7608 28.6962 64.5574 28.2789 65.4137 27.737C67.1154 26.7073 68.2319 25.6613 68.763 24.5937C68.2264 25.6559 67.11 26.7073 65.4137 27.737C64.5574 28.2789 63.7608 28.6962 63.0237 28.9889C62.3083 27.6015 61.1811 26.2954 59.6311 25.076C58.8507 24.4907 58.1461 24.0246 57.5066 23.6832L61.4737 17.6133C62.5143 16.0362 63.8312 14.9957 65.43 14.4971L66.4759 14.2478H66.4868Z" fill="#EE9CA5"/>
<path d="M63.0345 28.9725C62.3192 27.5851 61.1919 26.279 59.6419 25.0596C58.8615 24.4743 58.157 24.0083 57.5175 23.6668L61.4846 17.597C62.5251 16.0199 63.842 14.9793 65.4408 14.4807L66.4868 14.2314C67.2292 14.1068 67.9229 14.0634 68.5733 14.1068C70.3184 14.2585 71.7383 14.6054 72.833 15.1473C73.6026 15.4996 74.318 16.009 74.9737 16.6702C75.6078 17.3368 76.1606 18.1064 76.6213 18.9789C77.0819 19.8244 77.4234 20.7349 77.6564 21.6995C77.8894 22.6534 77.9707 23.6343 77.9003 24.6478C77.8623 25.4553 77.6943 26.3115 77.3854 27.2058C77.1578 27.8886 76.8326 28.5932 76.4045 29.3248L75.7379 30.322C74.9304 31.4384 73.5647 32.3868 71.6353 33.1672C70.611 33.5737 68.4757 34.0886 65.2349 34.7064L64.823 33.0426C64.384 31.6877 63.7879 30.3274 63.0237 28.9725H63.0345ZM63.0345 28.9725C63.7716 28.6799 64.5683 28.2626 65.4245 27.7206C67.1263 26.6909 68.2427 25.6449 68.7738 24.5773" stroke="#B34E58" stroke-linecap="round" stroke-linejoin="round"/>
<path d="M17.017 33.5358C16.9574 32.5386 17.0495 31.5198 17.2826 30.4846C17.5156 29.4495 17.8733 28.4848 18.3611 27.6015C18.8271 26.7018 19.4287 25.9106 20.1712 25.2277C20.8161 24.6478 21.5369 24.1763 22.3336 23.797C23.0544 23.4339 23.8131 23.1954 24.6044 23.0708C24.9729 22.9732 25.3685 22.9082 25.7966 22.8702C29.1134 22.6643 31.9857 23.5314 34.4083 25.4608C35.1778 26.0515 35.8444 26.7235 36.4243 27.4714L37.0801 28.4036L36.2563 29.9644C35.6547 31.3355 35.1941 32.8367 34.8798 34.4626C34.4624 36.0667 34.2348 37.6167 34.1915 39.1179C34.1806 39.8604 34.2077 40.4403 34.2673 40.863L33.2756 41.4267C32.4301 41.8656 31.5359 42.1908 30.5875 42.4076C27.5688 43.1013 24.6098 42.6406 21.6995 41.0256C21.331 40.798 21.0004 40.5649 20.7077 40.3319C20.052 39.8496 19.4721 39.2968 18.9735 38.6844C18.4153 38.0124 17.9654 37.2699 17.6349 36.4624C17.2609 35.5302 17.055 34.5547 17.0225 33.5413L17.017 33.5358Z" fill="#EE9CA5"/>
<path d="M34.8802 34.4464C34.4629 36.0506 34.2353 37.6006 34.1919 39.1018C34.1811 39.8442 34.2082 40.4241 34.2678 40.8469L33.276 41.4105C32.4306 41.8495 31.5364 42.1746 30.5879 42.3914C27.5693 43.0797 24.6102 42.6245 21.6999 41.0094C21.3314 40.7818 21.0008 40.5488 20.7082 40.3157C20.0524 39.8334 19.4725 39.2806 18.9739 38.6682C18.4157 37.9962 17.9659 37.2537 17.6353 36.4462C17.2614 35.5141 17.0554 34.5385 17.0229 33.5251C16.9633 32.5279 17.0554 31.509 17.2884 30.4739C17.5215 29.4388 17.8792 28.4741 18.3669 27.5907C18.833 26.6911 19.4346 25.8998 20.1771 25.217C20.822 24.6371 21.5428 24.1656 22.3394 23.7862C23.0602 23.4231 23.819 23.1847 24.6102 23.06C24.9787 22.9625 25.3744 22.8974 25.8025 22.8595C29.1193 22.6535 31.9916 23.5207 34.4141 25.45C35.1837 26.0407 35.8503 26.7128 36.4302 27.4607L37.0859 28.3928L36.2622 29.9536C35.6606 31.3248 35.1999 32.826 34.8856 34.4518L34.8802 34.4464ZM34.8802 34.4464L28.9892 33.1132" stroke="#B34E58" stroke-linecap="round" stroke-linejoin="round"/>
<path d="M42.8841 8.90955L43.8705 9.61951C45.8053 10.9473 47.2143 13.2668 48.0977 16.5836L48.8564 21.1577L46.7157 21.8676C45.0032 22.5396 43.464 23.3363 42.1037 24.2522L41.0578 22.0519C40.2177 20.3827 39.3994 19.0711 38.5973 18.1173C39.3994 19.0766 40.2177 20.3881 41.0578 22.0519L42.1037 24.2522C40.673 25.1139 39.4102 26.0515 38.3263 27.0595C37.7681 27.5852 37.3671 28.0188 37.1232 28.3602L31.1238 24.0192C29.5684 22.8811 28.5712 21.3961 28.1376 19.5697L27.9046 18.372C27.7908 17.5699 27.7691 16.7841 27.8396 16.0145C27.9317 15.1366 28.1485 14.2911 28.4899 13.489C28.8747 12.5677 29.4112 11.7277 30.0995 10.9581C30.8257 10.1669 31.617 9.51654 32.4732 9.01252C33.3133 8.44889 34.2454 8.01533 35.2697 7.71184C36.2452 7.41918 37.237 7.29454 38.2288 7.34331C39.1013 7.38125 39.9468 7.54925 40.7759 7.84191C41.513 8.11288 42.2175 8.47057 42.8896 8.91497L42.8841 8.90955Z" fill="#EE9CA5"/>
<path d="M42.11 24.2415C40.6793 25.1032 39.4165 26.0407 38.3326 27.0488C37.7744 27.5745 37.3734 28.008 37.1295 28.3495L31.1301 24.0084C29.5747 22.8703 28.5775 21.3854 28.1439 19.559L27.9109 18.3613C27.7971 17.5592 27.7754 16.7734 27.8459 16.0038C27.938 15.1258 28.1548 14.2804 28.4962 13.4783C28.881 12.557 29.4175 11.717 30.1058 10.9474C30.832 10.1561 31.6233 9.50579 32.4795 9.00178C33.3196 8.43815 34.2517 8.00459 35.276 7.7011C36.2515 7.40844 37.2433 7.28379 38.2351 7.33257C39.1076 7.37051 39.9531 7.53851 40.7822 7.83116C41.5193 8.10214 42.2238 8.45983 42.8959 8.90423L43.8822 9.61419C45.817 10.942 47.2261 13.2615 48.1094 16.5783L48.8682 21.1523L46.7275 21.8623C45.0149 22.5343 43.4757 23.331 42.1155 24.2469L42.11 24.2415ZM42.11 24.2415L41.0641 22.0411C40.224 20.3719 39.4057 19.0604 38.6036 18.1066" stroke="#B34E58" stroke-linecap="round" stroke-linejoin="round"/>
<path d="M46.857 8.72546C47.0792 8.35693 47.3068 8.02634 47.5507 7.73369C48.0113 7.09419 48.5533 6.5143 49.1874 5.99403C49.8702 5.43581 50.6073 4.99141 51.4094 4.6554C52.3578 4.27062 53.3279 4.06468 54.3359 4.02674C55.3439 3.98338 56.3628 4.07552 57.3979 4.30856C58.4331 4.54159 59.3923 4.89386 60.2703 5.36536C61.1699 5.83144 61.9612 6.43843 62.6386 7.19174C63.2239 7.83666 63.7063 8.56288 64.0856 9.35954C64.4 10.0912 64.6438 10.8499 64.8118 11.6303C64.9094 11.9988 64.9744 12.3945 65.0124 12.8226C65.0666 15.8846 64.1561 18.6811 62.2809 21.2174C61.3542 22.4856 60.4166 23.4503 59.4736 24.106L57.9074 23.3094C56.8235 22.8216 55.6529 22.426 54.401 22.1225C54.6286 21.586 54.8616 20.9411 55.1055 20.1932C54.8616 20.9465 54.6286 21.5914 54.401 22.1225C54.0758 22.0358 53.7452 21.9653 53.4146 21.9003C51.8104 21.4938 50.255 21.2771 48.7538 21.2391C48.0168 21.2066 47.4315 21.2229 46.9979 21.2825L45.8219 13.9716C45.54 12.0639 45.8815 10.3134 46.8516 8.71462L46.857 8.72546Z" fill="#EE9CA5"/>
<path d="M54.4118 22.117C54.0866 22.0303 53.756 21.9598 53.4254 21.8948C51.8213 21.4883 50.2659 21.2715 48.7647 21.2336C48.0276 21.2011 47.4423 21.2173 47.0087 21.277L45.8327 13.966C45.5509 12.0584 45.8923 10.3079 46.8624 8.7091C47.0846 8.34058 47.3122 8.00999 47.5561 7.71733C48.0168 7.07783 48.5587 6.49794 49.1928 5.97767C49.8757 5.41946 50.6127 4.97506 51.4148 4.63905C52.3632 4.25426 53.3333 4.04832 54.3413 4.01038C55.3494 3.96703 56.3682 4.05916 57.4034 4.2922C58.4385 4.52524 59.3977 4.87751 60.2757 5.349C61.1753 5.81508 61.9666 6.42207 62.644 7.17538C63.2293 7.8203 63.7117 8.54652 64.0856 9.34319C64.4 10.0748 64.6438 10.8336 64.8118 11.614C64.9094 11.9825 64.9744 12.3781 65.0124 12.8063C65.0666 15.8683 64.1561 18.6648 62.2809 21.1957C61.3542 22.4638 60.4166 23.4285 59.4736 24.0843L57.9074 23.2876C56.8235 22.7998 55.6529 22.4042 54.401 22.1007L54.4118 22.117ZM54.4118 22.117C54.6394 21.5804 54.8725 20.9355 55.1163 20.1876C55.5553 18.6648 55.7667 17.3424 55.745 16.226" stroke="#B34E58" stroke-linecap="round" stroke-linejoin="round"/>
<path d="M71.6676 22.854C71.3641 22.3338 71.2829 21.781 71.4129 21.1957C71.543 20.6158 71.8573 20.1606 72.3505 19.8191C72.822 19.4885 73.3423 19.3801 73.9005 19.5102C74.4587 19.6349 74.8868 19.9546 75.1795 20.4586C75.4721 20.9735 75.5534 21.5208 75.4234 22.1007C75.2933 22.6806 74.979 23.1521 74.4966 23.4936C74.0143 23.8133 73.494 23.9109 72.9358 23.7862C72.3776 23.6616 71.9549 23.3472 71.6676 22.854Z" fill="#F8D5D8"/>
<path d="M70.9685 42.6188C69.3589 41.8167 66.8768 41.2531 63.5167 40.9334C63.9123 39.3238 64.1345 37.7684 64.1778 36.2726L64.1345 34.5167L70.1881 33.0534C71.0877 32.9125 72.1608 32.9721 73.4019 33.2322C74.6538 33.4815 75.6726 33.8446 76.4585 34.3161C76.8161 34.5546 77.1359 34.7822 77.4177 35.0044C78.041 35.4488 78.5938 35.9908 79.0815 36.6248C79.6451 37.3294 80.0841 38.0664 80.3876 38.836C80.7399 39.7356 80.9404 40.7057 80.9838 41.7517C81.0271 42.7597 80.935 43.7786 80.7019 44.8137C80.4689 45.8489 80.1166 46.8081 79.6451 47.6861C79.152 48.6128 78.5558 49.4041 77.8513 50.0652C77.2389 50.6397 76.5289 51.1166 75.716 51.5014C75.0115 51.8428 74.2744 52.0976 73.5157 52.2602C73.1634 52.336 72.7732 52.4065 72.3505 52.4715C71.44 52.5582 70.3669 52.4444 69.1259 52.1192C67.8902 51.832 66.8984 51.4255 66.1451 50.9107L61.3109 46.9707C61.5494 46.613 61.8095 46.0982 62.1022 45.4207C62.7037 44.0496 63.1752 42.5484 63.5112 40.9279C66.8659 41.2477 69.3481 41.8059 70.9631 42.6134L70.9685 42.6188Z" fill="#EE9CA5"/>
<path d="M70.9744 42.6082C69.3648 41.8061 66.8826 41.2425 63.5225 40.9227C63.9181 39.3131 64.1403 37.7577 64.1837 36.262L64.1403 34.506L70.1939 33.0428C71.0936 32.9019 72.1666 32.9615 73.4077 33.2216C74.6596 33.4709 75.6785 33.834 76.4643 34.3055C76.822 34.544 77.1418 34.7716 77.4236 34.9938C78.0468 35.4382 78.5996 35.9801 79.0874 36.6142C79.651 37.3188 80.09 38.0558 80.3935 38.8254C80.7457 39.725 80.9463 40.6951 80.9896 41.7411C81.033 42.7491 80.9408 43.768 80.7078 44.8031C80.4748 45.8382 80.1225 46.7975 79.651 47.6755C79.1578 48.6022 78.5617 49.3934 77.8571 50.0546C77.2447 50.6291 76.5348 51.106 75.7218 51.4908C75.0173 51.8322 74.2803 52.0869 73.5215 52.2495C73.1693 52.3254 72.7791 52.3959 72.3563 52.4609C71.4458 52.5476 70.3728 52.4338 69.1317 52.1086C67.8961 51.8214 66.9043 51.4149 66.151 50.9001L61.3168 46.9601C61.5552 46.6024 61.8154 46.0875 62.108 45.4101C62.7096 44.039 63.1811 42.5378 63.5171 40.9173" stroke="#B34E58" stroke-linecap="round" stroke-linejoin="round"/>
<path d="M70.1671 59.1973C70.0641 60.1295 69.8473 60.9749 69.5276 61.7391C69.1591 62.6604 68.6659 63.5058 68.0426 64.2646C67.4682 64.9962 66.7636 65.6736 65.929 66.3023C65.1378 66.8876 64.3086 67.3428 63.4523 67.6626C62.5743 67.9878 61.7072 68.1449 60.8618 68.1287C59.5394 68.1287 58.1087 67.8252 56.5749 67.2074C55.8975 66.9472 55.2905 66.6166 54.7431 66.2102L53.9031 65.5327C52.6783 64.373 51.9304 62.8717 51.6703 61.0183L50.7002 53.832C51.4156 53.8266 52.2502 53.7128 53.2148 53.4906C55.1334 53.0624 56.7159 52.3741 57.9623 51.4203C58.6452 51.9189 59.3281 52.5422 60.0109 53.2846C59.3281 52.5422 58.6452 51.9243 57.9623 51.4203C59.2305 50.5424 60.3523 49.5777 61.3387 48.5209L62.4226 47.2094C65.089 49.1441 66.7962 50.5261 67.5386 51.3553C68.9585 52.9053 69.7877 54.3469 70.0153 55.6909L70.1888 56.8778C70.2592 57.7232 70.2538 58.4982 70.1671 59.1973Z" fill="#EE9CA5"/>
<path d="M57.9623 51.4093C56.7213 52.3632 55.1388 53.0569 53.2148 53.4796C52.2502 53.7018 51.4156 53.8156 50.7002 53.821L51.6703 61.0073C51.9304 62.8608 52.6783 64.362 53.9031 65.5218L54.7431 66.1992C55.2905 66.6057 55.9029 66.9362 56.5749 67.1964C58.1141 67.8142 59.5394 68.1231 60.8618 68.1177C61.7072 68.1285 62.5689 67.9768 63.4523 67.6516C64.3086 67.3319 65.1378 66.8766 65.929 66.2913C66.7636 65.6627 67.4682 64.9852 68.0426 64.2536C68.6659 63.4948 69.1591 62.6494 69.5276 61.7281C69.8473 60.9639 70.0587 60.1131 70.1671 59.1863C70.2538 58.4818 70.2592 57.7068 70.1888 56.8668L70.0153 55.6799C69.7823 54.3359 68.9585 52.8943 67.5386 51.3443C66.7907 50.5151 65.089 49.1331 62.4226 47.1984L61.3387 48.5099C60.3578 49.5667 59.2305 50.5314 57.9623 51.4093ZM57.9623 51.4093C58.6452 51.9079 59.3281 52.5312 60.0109 53.2736C61.3712 54.764 62.0649 56.1135 62.0866 57.3112" stroke="#B34E58" stroke-linecap="round" stroke-linejoin="round"/>
<path d="M42.1693 53.6856C42.565 53.7886 43.1286 53.8808 43.8494 53.962C45.2639 54.1355 46.7651 54.1355 48.3422 53.9675C48.6673 53.9512 48.9925 53.9349 49.3068 53.9133L49.6916 55.9781C49.9301 57.5498 49.9518 58.883 49.7567 59.9885C49.9518 58.8884 49.9301 57.5498 49.6916 55.9781L49.3068 53.9133C50.5371 53.7995 51.7023 53.5989 52.797 53.3009L54.3903 52.786C54.5909 52.9757 54.8402 53.2358 55.1382 53.561C55.7127 54.2439 56.2113 54.9972 56.6449 55.8155C58.0539 58.3898 58.5092 61.0779 58.0106 63.8798C57.8697 64.3621 57.7559 64.7198 57.6583 64.9528C57.3819 65.679 57.0405 66.3402 56.634 66.9364C56.1734 67.6138 55.6097 68.2045 54.9486 68.7085C54.2007 69.3047 53.3769 69.7654 52.4664 70.0905C51.6047 70.3886 50.64 70.5783 49.5724 70.6596C48.5048 70.7409 47.5347 70.6921 46.6404 70.5241C45.7137 70.3344 44.8303 70.0038 43.9849 69.5215C43.2695 69.1313 42.6246 68.6327 42.0447 68.0203C41.5624 67.4892 41.1234 66.8876 40.7277 66.2101C40.5164 65.8145 40.3538 65.4785 40.2508 65.2021C39.5409 63.6142 39.4704 61.9613 40.0395 60.2378L42.1693 53.6965V53.6856Z" fill="#EE9CA5"/>
<path d="M49.3176 53.9025C49.0032 53.9242 48.6781 53.9459 48.3529 53.9567C46.7758 54.1247 45.28 54.1193 43.8601 53.9513C43.1393 53.87 42.5757 53.7779 42.1801 53.6749L40.0502 60.2162C39.4812 61.9396 39.5516 63.5926 40.2616 65.1805C40.3645 65.4623 40.5217 65.7983 40.7385 66.1885C41.1395 66.866 41.5785 67.4675 42.0554 67.9987C42.6353 68.6111 43.2802 69.1151 43.9956 69.4999C44.8411 69.9822 45.7244 70.3128 46.6512 70.5025C47.5454 70.6705 48.5209 70.7193 49.5831 70.638C50.6562 70.5567 51.6209 70.3724 52.4772 70.0689C53.3876 69.7437 54.2114 69.2831 54.9593 68.6869C55.6205 68.1883 56.1787 67.5976 56.6448 66.9148C57.0512 66.3186 57.3927 65.6628 57.6691 64.9312C57.7666 64.6982 57.8804 64.3405 58.0213 63.8582C58.5199 61.0508 58.0647 58.3628 56.6556 55.7939C56.2275 54.9756 55.7234 54.2223 55.149 53.5394C54.8455 53.2142 54.5962 52.9541 54.4011 52.7644L52.8077 53.2793C51.713 53.5773 50.5478 53.7779 49.3176 53.8917V53.9025ZM49.3176 53.9025L49.7024 55.9673C49.9408 57.539 49.9625 58.8722 49.7674 59.9778" stroke="#B34E58" stroke-linecap="round" stroke-linejoin="round"/>
<path d="M20.0851 50.6454C20.1285 49.762 20.2965 48.9057 20.5891 48.0711C20.8493 47.3774 21.207 46.6729 21.6622 45.9684L22.383 44.9983C23.5644 43.5242 25.1036 42.6137 26.995 42.2668L34.2788 40.9282C34.3547 41.3455 34.5281 41.9037 34.8099 42.6029C35.3519 44.0065 36.0889 45.3939 37.0157 46.765L34.8479 48.5047C33.2491 49.7241 32.0406 50.4828 31.2222 50.7646C32.0406 50.4774 33.2491 49.7241 34.8479 48.5047L37.0157 46.765C37.8449 48.1904 38.7824 49.4477 39.823 50.5424L41.1074 51.7456L36.7664 57.7287C35.6283 59.295 34.1433 60.2976 32.3115 60.7311L31.1138 60.9479C30.3117 61.0726 29.5205 61.0888 28.7401 61.0075C27.8675 60.9154 27.0329 60.6986 26.2308 60.3626C25.3095 59.9887 24.4695 59.4521 23.7162 58.7584C22.9249 58.0431 22.2692 57.2572 21.7489 56.3955C21.169 55.4905 20.7355 54.5583 20.4482 53.5991C20.1664 52.5802 20.0418 51.5938 20.0797 50.64L20.0851 50.6454Z" fill="#EE9CA5"/>
<path d="M37.0157 46.7542C37.8449 48.1796 38.7824 49.4369 39.823 50.5316L41.1074 51.7348L36.7664 57.7179C35.6283 59.2841 34.1433 60.2868 32.3115 60.7203L31.1138 60.9371C30.3117 61.0618 29.5205 61.078 28.7401 60.9967C27.8675 60.9046 27.0329 60.6878 26.2308 60.3518C25.3095 59.9778 24.4695 59.4413 23.7162 58.7476C22.9249 58.0322 22.2692 57.2464 21.7489 56.3847C21.169 55.4796 20.7355 54.5475 20.4482 53.5882C20.1664 52.5694 20.0418 51.583 20.0797 50.6292C20.1231 49.7458 20.2911 48.8895 20.5837 48.0549C20.8439 47.3612 21.2015 46.6567 21.6568 45.9521L22.3776 44.982C23.559 43.5079 25.0982 42.5975 26.9896 42.2506L34.2734 40.912C34.3493 41.3293 34.5227 41.8875 34.8045 42.5866C35.3465 43.9903 36.0835 45.3777 37.0103 46.7488L37.0157 46.7542ZM37.0157 46.7542L34.8479 48.4939C33.2491 49.7133 32.0406 50.472 31.2222 50.7538" stroke="#B34E58" stroke-linecap="round" stroke-linejoin="round"/>
<path d="M53.8818 19.8354C55.6974 20.2472 57.3124 20.8488 58.7269 21.64C62.1574 23.4773 64.6775 25.8889 66.2871 28.8859C67.6312 31.3735 68.3845 34.1266 68.5416 37.1453C68.688 40.0718 68.2544 42.8845 67.2464 45.578C66.2817 48.1686 64.8347 50.3201 62.9108 52.0381C60.9868 53.7398 58.6673 54.9375 55.9521 55.6204C52.4836 56.5038 49.0802 56.5688 45.7471 55.8155C42.4141 55.0622 39.3684 53.5393 36.6044 51.2469C34.4583 49.4638 32.8866 47.3882 31.8786 45.0198C30.876 42.6461 30.4912 40.0772 30.7243 37.3187C30.9735 34.4518 31.7973 31.7258 33.201 29.1515C34.6426 26.4905 36.496 24.3227 38.756 22.6535C41.5253 20.6483 44.8475 19.5535 48.7279 19.3747C50.3429 19.2663 52.0609 19.418 53.8764 19.8299L53.8818 19.8354Z" fill="white"/>
<path d="M38.777 22.6595C41.5464 20.6543 44.8686 19.5595 48.7489 19.3807C50.3639 19.2723 52.0819 19.424 53.8975 19.8359C55.713 20.2478 57.328 20.8494 58.7425 21.6406C62.1731 23.4778 64.6931 25.8895 66.3027 28.8865C67.6468 31.3686 68.4001 34.1272 68.5573 37.1458C68.7036 40.0724 68.27 42.8851 67.262 45.5786C66.2973 48.1691 64.8503 50.3207 62.9264 52.0387C61.0025 53.7404 58.6829 54.9381 55.9677 55.621C52.4992 56.5044 49.0958 56.5694 45.7682 55.8161C42.4352 55.0628 39.3894 53.5399 36.6255 51.2474C34.4793 49.4644 32.9077 47.3887 31.8996 45.0204C30.897 42.6467 30.5123 40.0778 30.7453 37.3193C30.9946 34.4523 31.8184 31.7263 33.222 29.1521C34.6636 26.4911 36.5171 24.3233 38.777 22.6541V22.6595Z" stroke="#1E1E1E" stroke-linecap="round" stroke-linejoin="round"/>
<path d="M57.9129 38.9499C58.3518 38.5923 58.8125 38.4676 59.2948 38.576C59.7772 38.6844 60.1403 38.9933 60.3896 39.5082C60.6389 40.023 60.6985 40.5704 60.563 41.1503C60.4221 41.7464 60.1294 42.2233 59.6905 42.581C59.2515 42.9116 58.7908 43.0254 58.3085 42.917C57.8261 42.8086 57.463 42.5106 57.2137 42.0228C56.9644 41.508 56.9102 40.9552 57.0511 40.359C57.1812 39.7791 57.4685 39.313 57.9074 38.9554M58.0809 40.2994C58.1621 40.4295 58.2922 40.5216 58.4656 40.5595C58.6174 40.5921 58.7637 40.5704 58.9155 40.4837C59.0564 40.3915 59.1485 40.2615 59.1864 40.088C59.219 39.9309 59.1864 39.7791 59.0997 39.6382C59.0022 39.5082 58.8775 39.4214 58.7258 39.3889C58.5524 39.3456 58.4006 39.3672 58.2651 39.4485C58.1134 39.5407 58.0267 39.6653 57.9941 39.8225C57.9508 39.9959 57.9833 40.1531 58.0809 40.294M49.7782 37.1127C50.0004 37.6276 50.0491 38.175 49.9136 38.7548C49.7727 39.351 49.4963 39.8279 49.079 40.1856C48.6292 40.5162 48.1686 40.63 47.6862 40.5216C47.1985 40.4132 46.8299 40.1097 46.5806 39.6165C46.3422 39.1125 46.288 38.5597 46.4289 37.9636C46.559 37.3837 46.8408 36.9122 47.2743 36.5491C47.7133 36.2022 48.1794 36.083 48.6672 36.186C49.1495 36.2944 49.518 36.6033 49.7727 37.1181M48.4558 37.2428C48.3799 37.1127 48.2661 37.026 48.1089 36.9935C47.9409 36.9501 47.7838 36.9718 47.6375 37.0531C47.4965 37.1452 47.4098 37.2699 47.3773 37.4271C47.334 37.6005 47.3611 37.7576 47.4532 37.8986C47.5507 38.0286 47.6862 38.1208 47.8488 38.1587C48.006 38.1912 48.1469 38.1695 48.2715 38.0828C48.4233 37.9907 48.5154 37.8606 48.5588 37.6872C48.5913 37.53 48.5588 37.3783 48.4612 37.2374L48.4558 37.2428Z" fill="#1E1E1E"/>
<path d="M58.4711 40.554C58.2977 40.5107 58.1676 40.4239 58.0863 40.2939C57.9888 40.153 57.9562 39.9958 57.9996 39.8224C58.0321 39.6652 58.1242 39.5406 58.2706 39.4484C58.4006 39.3671 58.5578 39.3455 58.7312 39.3888C58.883 39.4213 59.0022 39.5026 59.1052 39.6381C59.1973 39.779 59.2244 39.9308 59.1919 40.0879C59.1485 40.2614 59.0618 40.3968 58.9209 40.4836C58.7692 40.5649 58.6228 40.5919 58.4711 40.5594M48.1198 36.9934C48.277 37.0259 48.3908 37.1072 48.4667 37.2427C48.5642 37.3836 48.5967 37.5353 48.5642 37.6925C48.5209 37.8659 48.4287 38.0014 48.277 38.0881C48.1523 38.1694 48.0114 38.1965 47.8543 38.164C47.6863 38.1207 47.5562 38.0339 47.4586 37.9039C47.3665 37.763 47.3448 37.6058 47.3828 37.4324C47.4153 37.2752 47.502 37.1506 47.6429 37.0584C47.7946 36.9771 47.9518 36.9555 48.1144 36.9988L48.1198 36.9934Z" fill="white"/>
<path d="M63.777 45.6973C63.609 46.4018 63.2622 46.9492 62.731 47.3394C62.2162 47.7621 61.6634 47.9084 61.0673 47.7729C60.4874 47.6429 60.0484 47.2689 59.7503 46.6674C59.4522 46.0875 59.3872 45.4425 59.5498 44.7434C59.707 44.0335 60.0484 43.459 60.5687 43.0309C61.0998 42.6407 61.6526 42.5106 62.2324 42.6461C62.8286 42.7761 63.2676 43.1284 63.5494 43.7029C63.8583 44.3261 63.9288 44.9927 63.7716 45.7027M40.9988 42.4347C40.6032 41.8277 40.4839 41.1774 40.6519 40.4728C40.8091 39.7629 41.1993 39.1993 41.8226 38.7928C42.4295 38.4188 43.0961 38.3159 43.8224 38.4839C44.5269 38.6411 45.0688 39.0204 45.4482 39.6166C45.8438 40.2561 45.9685 40.9281 45.8113 41.6435C45.6433 42.348 45.2531 42.8845 44.6299 43.2585C44.0175 43.6541 43.3563 43.7787 42.6517 43.6216C41.9418 43.4644 41.389 43.0688 40.9988 42.4401V42.4347Z" fill="#F5CED3"/>
<path d="M61.1103 63.8906C61.0182 64.0694 60.8827 64.2157 60.7093 64.335C59.9885 64.9149 59.1972 65.2454 58.3301 65.3213C57.0511 65.4514 55.7504 65.0124 54.4172 63.999C54.3793 63.9719 54.3522 63.9448 54.3251 63.9285C53.8969 61.2242 53.7289 59.1647 53.8156 57.7611C54.7641 58.5198 55.8534 59.4195 57.0728 60.46C57.0619 60.4654 57.0457 60.4763 57.0348 60.4817C56.9536 61.7607 57.127 63.3378 57.5551 65.2075C57.127 63.3378 56.9536 61.7661 57.0348 60.4817C57.0457 60.4763 57.0619 60.4654 57.0728 60.46C57.1161 60.4925 57.1649 60.525 57.2028 60.5684L61.1049 63.8851M58.1187 59.8476C59.0075 59.452 59.8584 59.3598 60.6768 59.5766C61.0453 60.6443 61.2404 61.7824 61.2729 62.9963C61.3 63.3486 61.2404 63.6467 61.1049 63.8851L57.2028 60.5684C57.1595 60.525 57.1161 60.4925 57.0728 60.46C57.3546 60.2378 57.7014 60.0373 58.1242 59.8476M50.8999 55.512C51.6587 56.0485 52.6342 56.8018 53.8211 57.7611C53.7344 59.1647 53.9024 61.2242 54.3305 63.9285C53.0678 62.9205 52.1302 61.5981 51.5178 59.9614C51.1005 58.8287 50.8566 57.6148 50.7861 56.3195C50.7753 56.0323 50.8187 55.7667 50.9054 55.512M53.8319 57.6527C53.8265 57.6852 53.8211 57.7177 53.8211 57.7611C52.6342 56.8018 51.6587 56.0539 50.8999 55.512C50.9216 55.4632 50.9433 55.4199 50.9596 55.3819C51.1167 55.0947 51.3173 54.905 51.5557 54.8237C52.4337 54.466 53.3279 54.3034 54.2438 54.3305C55.5662 54.3685 56.8072 54.8129 57.9616 55.6746C58.0266 55.7179 58.0862 55.7667 58.1513 55.8101C57.2516 55.7017 56.2599 55.9727 55.1705 56.6284C54.634 56.959 54.1842 57.295 53.8265 57.6473M53.8156 57.7557C53.8156 57.7123 53.8156 57.6798 53.8265 57.6473C54.1896 57.3004 54.634 56.959 55.1705 56.6284C56.2599 55.9727 57.257 55.7017 58.1513 55.8101C59.2948 56.6989 60.1294 57.9291 60.6659 59.5062C60.6713 59.5279 60.6768 59.5495 60.6822 59.5712C59.8638 59.3544 59.0075 59.4466 58.1242 59.8422C57.7069 60.0319 57.3546 60.2324 57.0728 60.4546C55.8534 59.414 54.7641 58.5144 53.8156 57.7557Z" fill="#4FB35B"/>
<path d="M60.6935 59.5712C59.8751 59.3544 59.0243 59.4466 58.1355 59.8422C57.7128 60.0319 57.3659 60.2324 57.0841 60.4546M57.0841 60.4546C55.8647 59.4141 54.7754 58.5144 53.827 57.7557M57.0841 60.4546C57.1274 60.4871 57.1708 60.5196 57.2142 60.563L61.1162 63.8797M57.0841 60.4546C57.0733 60.46 57.057 60.4709 57.0462 60.4763C56.9649 61.7553 57.1383 63.3324 57.5664 65.2021M53.827 57.7557C53.827 57.7123 53.827 57.6798 53.8378 57.6473C54.2009 57.3005 54.6453 56.959 55.1818 56.6284C56.2712 55.9727 57.2684 55.7017 58.1626 55.8101M53.827 57.7557C52.6401 56.7964 51.6646 56.0485 50.9058 55.5066M54.331 63.9231C53.9028 61.2188 53.7348 59.1593 53.8215 57.7557" stroke="#37773E" stroke-linecap="round" stroke-linejoin="round"/>
<path d="M50.7922 56.3141C50.7868 55.9781 50.8464 55.6637 50.9711 55.3819C51.1283 55.0947 51.3288 54.905 51.5672 54.8237C52.4452 54.466 53.3394 54.3034 54.2553 54.3305C55.5777 54.3685 56.8187 54.8129 57.9731 55.6746C59.2033 56.5742 60.1084 57.8478 60.6774 59.5062C61.0514 60.5955 61.2519 61.7607 61.2898 62.9909C61.3332 63.5762 61.1435 64.0206 60.7208 64.3241C60 64.904 59.2088 65.2346 58.3416 65.3105C57.0626 65.4405 55.7619 65.0016 54.4287 63.9881C53.1172 62.9801 52.1471 61.6306 51.5239 59.9506C51.1066 58.8179 50.8627 57.6039 50.7922 56.3087V56.3141Z" stroke="#1E1E1E" stroke-linecap="round" stroke-linejoin="round"/>
<path d="M40.2021 60.7581C42.1585 58.5903 43.4321 56.8614 44.0174 55.5662C45.9251 55.3386 47.5347 55.1651 48.8516 55.0567C48.8733 55.3331 48.8029 55.5987 48.6403 55.8588C47.8978 56.9698 46.9657 57.9183 45.8438 58.7041C44.2234 59.8476 42.3428 60.5359 40.2075 60.7635M34.3924 53.6477C35.5522 53.8916 36.5981 54.4118 37.5249 55.2193L38.5112 56.2924L38.5654 56.3358C38.0072 57.5118 36.9666 58.8125 35.4492 60.2378C36.9666 58.8071 38.0072 57.5064 38.5654 56.3358L38.5112 56.2924C40.5706 56.0052 42.4024 55.7613 44.0174 55.5716C43.4321 56.8669 42.1585 58.5957 40.2021 60.7635C40.1587 60.7635 40.11 60.7689 40.0558 60.7798C37.8554 60.9965 35.9803 60.7201 34.4249 59.9452C33.3572 59.4303 32.5064 58.7312 31.8831 57.8424C31.5471 57.3492 31.5417 56.856 31.8669 56.3791C32.5335 55.3223 33.3735 54.4118 34.387 53.6477M44.0662 55.4741C44.05 55.5012 44.0337 55.5337 44.012 55.5716C42.397 55.7613 40.5598 55.9997 38.5058 56.2924L37.5194 55.2193C36.5927 54.4118 35.5467 53.8861 34.387 53.6477C34.4141 53.6314 34.4303 53.6206 34.4412 53.6152C35.9424 52.4879 37.6441 51.8267 39.5409 51.637C40.717 51.9947 41.828 52.748 42.8685 53.8807L44.0662 55.4741ZM44.012 55.5716C44.0337 55.5337 44.05 55.5012 44.0662 55.4741L42.8685 53.8807C41.828 52.7426 40.717 51.9947 39.5409 51.637C39.6385 51.6262 39.7306 51.6154 39.8173 51.6045C41.7304 51.4419 43.5405 51.6804 45.2531 52.3307C46.4129 52.7697 47.4588 53.3767 48.3964 54.1409C48.6457 54.336 48.7974 54.5961 48.8462 54.9321C48.8462 54.9755 48.8462 55.0188 48.8462 55.0567C47.5293 55.1706 45.9197 55.3386 44.012 55.5662V55.5716Z" fill="#4FB35B"/>
<path d="M44.034 55.5608C45.9416 55.3332 47.5512 55.1597 48.8682 55.0514M44.034 55.5608C44.0556 55.5228 44.0719 55.4903 44.0882 55.4632L42.8904 53.8699C41.8499 52.7318 40.7389 51.9839 39.5629 51.6262M44.034 55.5608C43.4486 56.8561 42.1751 58.5849 40.2186 60.7527M44.034 55.5608C42.4189 55.7505 40.5817 55.9889 38.5277 56.2816M38.5277 56.2816L37.5414 55.2085C36.6146 54.401 35.5687 53.8753 34.4089 53.6369M38.5277 56.2816L38.5819 56.3249C38.0237 57.4956 36.9832 58.7962 35.4657 60.227M38.5277 56.2816C36.4846 56.5634 34.2246 56.8886 31.7533 57.2517" stroke="#37773E" stroke-linecap="round" stroke-linejoin="round"/>
<path d="M48.6676 55.8319C48.8302 55.5771 48.9007 55.3062 48.879 55.0298C48.879 54.9864 48.879 54.9431 48.879 54.9051C48.8302 54.5691 48.6785 54.3036 48.4292 54.1139C47.4916 53.3443 46.4456 52.7427 45.2858 52.3038C43.5787 51.6534 41.7686 51.415 39.8555 51.5775C39.7688 51.5884 39.6767 51.5992 39.5791 51.6101C37.6823 51.7997 35.9805 52.4555 34.4793 53.5828C34.4685 53.5882 34.4468 53.6044 34.4251 53.6153C33.4117 54.3794 32.5717 55.2953 31.9051 56.3467C31.5745 56.8291 31.5799 57.3168 31.9213 57.81C32.55 58.6934 33.3954 59.3979 34.4631 59.9073C36.0185 60.6769 37.8936 60.9533 40.0885 60.7419C40.1427 60.7311 40.1915 60.7311 40.2349 60.7257C42.3701 60.4981 44.2507 59.8098 45.8712 58.6663C46.993 57.8804 47.9252 56.9374 48.6676 55.8264V55.8319Z" stroke="#1E1E1E" stroke-linecap="round" stroke-linejoin="round"/>
<path d="M52.9228 53.8809C53.4756 54.7372 53.6328 55.6694 53.4052 56.6774C53.1775 57.6854 52.6302 58.4496 51.7685 58.9807C50.9013 59.5281 49.9638 59.6906 48.9557 59.463C47.9694 59.2408 47.1998 58.6935 46.6524 57.8263C46.0888 56.9755 45.9208 56.0487 46.1484 55.0407C46.376 54.0327 46.9288 53.2631 47.8014 52.7266C48.6685 52.1792 49.5952 52.0166 50.5816 52.2388C51.5679 52.461 52.3646 53.0138 52.912 53.8809H52.9228Z" fill="#F6CB6D"/>
<path d="M46.1641 55.0297C45.9364 56.0377 46.1044 56.9645 46.6681 57.8153C47.2154 58.6825 47.985 59.2298 48.9714 59.452C49.9794 59.6797 50.917 59.5171 51.7841 58.9697C52.6458 58.444 53.1932 57.6744 53.4208 56.6664C53.6484 55.6584 53.4858 54.7262 52.9385 53.8699C52.3911 53.0028 51.6107 52.4554 50.6081 52.2278C49.6217 52.0056 48.695 52.1682 47.8278 52.7156C46.9499 53.2521 46.4025 54.0217 46.1749 55.0297H46.1641Z" stroke="#1E1E1E" stroke-linecap="round" stroke-linejoin="round"/>
<path d="M51.1125 55.2031C51.0474 55.4849 50.8848 55.7017 50.6193 55.8589C50.3808 56.0377 50.1099 56.0919 49.8118 56.0215C49.5137 55.9564 49.2807 55.7884 49.1235 55.5174C48.9718 55.2627 48.9284 54.9972 48.988 54.7154C49.053 54.4173 49.2156 54.1788 49.4649 54.0054C49.7196 53.8428 50.0015 53.794 50.2995 53.8645C50.5976 53.9295 50.8198 54.0921 50.9607 54.3468C51.1287 54.6178 51.1829 54.8996 51.1125 55.1977V55.2031Z" fill="white"/>
<path d="M54.0977 43.6811L50.1685 42.2286" stroke="#1E1E1E" stroke-linecap="round" stroke-linejoin="round"/>
<path d="M63.6415 48.9385L66.877 49.5509L63.5277 67.1806L60.2922 66.5682L63.6415 48.9385Z" fill="#FFCD05"/>
<path d="M63.9452 47.3397L67.1807 47.9521L66.8772 49.5509L63.6417 48.9385L63.9452 47.3397Z" fill="white"/>
<path d="M67.7227 45.0852L67.1753 47.9521L63.9398 47.3397L64.4872 44.4728L67.7227 45.0852Z" fill="#F06697"/>
<path d="M67.1919 47.9464L67.7393 45.0794L64.5038 44.467L63.9564 47.334M67.1919 47.9464L66.8884 49.5451M67.1919 47.9464L63.9564 47.334M63.9564 47.334L63.6529 48.9327M63.6529 48.9327L60.3037 66.5624L63.5391 67.1748L66.8884 49.5451M63.6529 48.9327L66.8884 49.5451M62.84 61.9179L64.9753 50.6724" stroke="#1E1E1E" stroke-linecap="round" stroke-linejoin="round"/>
<path d="M63.9616 60.3735C62.8777 60.715 61.9076 60.612 61.0459 60.0646C60.1842 59.5173 59.6856 58.6827 59.5447 57.5608C59.3929 56.4444 59.6476 55.3659 60.3034 54.3308C60.9592 53.2957 61.8317 52.6074 62.9156 52.266C63.9887 51.9245 64.9534 52.0275 65.8096 52.5749C66.6713 53.1222 67.1754 53.9568 67.3271 55.0733C67.468 56.1951 67.2079 57.2736 66.5521 58.3087C65.8963 59.3438 65.0292 60.0321 63.9562 60.3681L63.9616 60.3735Z" fill="white"/>
<path d="M60.3146 54.336C59.6588 55.3711 59.4041 56.4496 59.5559 57.566C59.6968 58.6879 60.1954 59.5225 61.0571 60.0698C61.9188 60.6172 62.8889 60.7202 63.9728 60.3787C65.0458 60.0373 65.9075 59.349 66.5687 58.3193C67.2245 57.2842 67.4846 56.2057 67.3437 55.0839C67.192 53.9675 66.6825 53.1329 65.8262 52.5855C64.9645 52.0381 63.9999 51.9351 62.9322 52.2766C61.8483 52.618 60.9812 53.3063 60.32 54.3414L60.3146 54.336Z" stroke="#1E1E1E" stroke-linecap="round" stroke-linejoin="round"/>
<path d="M54.1679 55.2791L54.2817 55.1924L54.3792 55.1057L71.5049 54.7317C71.6295 54.7426 71.7542 54.7643 71.8788 54.8076C71.9493 54.8347 72.0035 54.8618 72.0523 54.8943C72.1769 54.981 72.2257 55.1003 72.204 55.2412L63.1317 71.8954L44.8138 73.4345C44.7 73.4616 44.6078 73.4345 44.5428 73.3478C44.5211 73.3207 44.5103 73.2882 44.5049 73.2502C44.4452 73.0822 44.5265 72.795 44.7433 72.394L53.8156 55.7398C53.8969 55.5826 54.0161 55.4309 54.1787 55.2791M53.0839 54.4228L54.2871 55.1924L54.1733 55.2791C54.0161 55.4309 53.8969 55.5826 53.8102 55.7398L44.7379 72.394C44.5211 72.795 44.4452 73.0822 44.4994 73.2502C44.4019 73.0822 44.2827 72.9088 44.1363 72.7408C43.8057 72.3343 43.4697 72.1447 43.1283 72.1718C43.0362 72.2043 42.9765 72.1718 42.9549 72.085C42.9115 71.9008 43.0687 71.4889 43.4264 70.844L52.7371 53.8267L70.1392 53.5774L70.6594 53.7129C71.1093 53.9188 71.5699 54.3144 72.0523 54.8943C72.0035 54.8618 71.9493 54.8347 71.8788 54.8076C71.7542 54.7643 71.6295 54.7426 71.5049 54.7317L54.3792 55.1057L54.2817 55.1924L53.0785 54.4228H53.0839Z" fill="white"/>
<path d="M53.0784 54.4228L54.2761 55.1924L54.1732 55.2791C54.016 55.4309 53.8968 55.5826 53.8101 55.7398L44.7378 72.394C44.521 72.795 44.4397 73.0822 44.4939 73.2557C44.4018 73.0822 44.2826 72.9088 44.1417 72.7408C43.8111 72.3343 43.4751 72.1447 43.1336 72.1718C43.0415 72.2043 42.9819 72.1718 42.9602 72.085C42.9168 71.9008 43.074 71.4889 43.4317 70.844L52.7424 53.8267L70.1445 53.5774L70.6648 53.7129C71.1146 53.9188 71.5752 54.3144 72.0576 54.8943C72.0088 54.8618 71.9546 54.8347 71.8842 54.8076C71.7595 54.7643 71.6349 54.7426 71.5102 54.7317L54.3845 55.1057L54.2816 55.1924M72.063 54.8943C72.1876 54.981 72.2364 55.1003 72.2147 55.2412L63.1425 71.8954L44.8245 73.4345C44.7107 73.4616 44.6186 73.4345 44.5535 73.3478C44.5319 73.3207 44.521 73.2936 44.5102 73.2557" stroke="#1E1E1E" stroke-linecap="round" stroke-linejoin="round"/>
<path d="M68.9743 55.6908C69.4729 55.6908 69.8956 55.5173 70.2424 55.1705C70.5893 54.8236 70.7627 54.4009 70.7627 53.9023C70.7627 53.4037 70.5893 52.981 70.2424 52.6342C69.8956 52.2873 69.4729 52.1139 68.9743 52.1139C68.4757 52.1139 68.0529 52.2873 67.7061 52.6342C67.4568 52.8835 67.2942 53.1761 67.2292 53.5067" stroke="#1E1E1E" stroke-linecap="round" stroke-linejoin="round"/>
<path d="M66.3025 55.2646H66.4C66.8986 55.2646 67.3214 55.0912 67.6682 54.7443C68.0151 54.3975 68.1885 53.9748 68.1885 53.4762C68.1885 52.9776 68.0151 52.5549 67.6682 52.208C67.3214 51.8612 66.8986 51.6877 66.4 51.6877C65.9014 51.6877 65.4787 51.8612 65.1319 52.208C64.9042 52.4356 64.7525 52.6958 64.6712 52.9884" stroke="#1E1E1E" stroke-linecap="round" stroke-linejoin="round"/>
<path d="M63.5283 55.6799C63.9402 55.642 64.2979 55.4686 64.5959 55.1705C64.9428 54.8236 65.1162 54.4009 65.1162 53.9023C65.1162 53.4037 64.9428 52.981 64.5959 52.6342C64.2491 52.2873 63.8264 52.1139 63.3278 52.1139C62.8292 52.1139 62.4065 52.2873 62.0596 52.6342C61.7669 52.9268 61.5989 53.2682 61.5502 53.6639" stroke="#1E1E1E" stroke-linecap="round" stroke-linejoin="round"/>
<path d="M60.5202 55.6908C61.0134 55.6908 61.4307 55.5119 61.7776 55.1705C62.1244 54.8236 62.2979 54.4009 62.2979 53.9023C62.2979 53.4037 62.1244 52.981 61.7776 52.6342C61.4307 52.2873 61.008 52.1139 60.5094 52.1139C60.0108 52.1139 59.5881 52.2873 59.2412 52.6342C58.9594 52.916 58.7914 53.2466 58.7372 53.6259" stroke="#1E1E1E" stroke-linecap="round" stroke-linejoin="round"/>
<path d="M57.5507 55.6854C57.594 55.6854 57.6428 55.6908 57.6862 55.6908C58.1848 55.6908 58.6075 55.5173 58.9543 55.1705C59.3012 54.8236 59.4746 54.4009 59.4746 53.9023C59.4746 53.4037 59.3012 52.981 58.9543 52.6342C58.6075 52.2873 58.1848 52.1139 57.6862 52.1139C57.1876 52.1139 56.7648 52.2873 56.418 52.6342C56.185 52.8672 56.0278 53.1382 55.9519 53.4417" stroke="#1E1E1E" stroke-linecap="round" stroke-linejoin="round"/>
<path d="M55.0683 55.6799C55.4802 55.642 55.8379 55.4686 56.136 55.1705C56.4828 54.8236 56.6562 54.4009 56.6562 53.9023C56.6562 53.4037 56.4828 52.981 56.136 52.6342C55.7891 52.2873 55.3664 52.1139 54.8678 52.1139C54.3692 52.1139 53.9465 52.2873 53.5996 52.6342C53.2907 52.9431 53.1173 53.3116 53.0848 53.7397" stroke="#1E1E1E" stroke-linecap="round" stroke-linejoin="round"/>
<path d="M41.7688 62.1022C42.457 62.3786 44.1804 62.6604 46.939 62.9477C49.6975 63.2295 51.3288 63.8365 51.8382 64.7632C52.3422 65.69 52.5699 66.492 52.5102 67.1749C52.4127 67.8361 52.1688 68.4431 51.7894 68.9904C50.6351 70.703 48.4293 71.3967 45.1776 71.077C45.0476 71.0553 44.9175 71.0336 44.7928 71.0011C39.6172 70.0202 35.6555 68.0583 32.9133 65.1209C35.3521 63.7498 37.5253 62.3841 39.4275 61.0292C40.3001 61.4627 41.0805 61.8204 41.7742 62.0968L41.7688 62.1022Z" fill="white"/>
<path d="M32.9024 65.1262C35.6501 68.0636 39.6063 70.0255 44.7765 71.0118C44.9066 71.0389 45.0367 71.0606 45.1667 71.0877C48.4184 71.402 50.6242 70.7029 51.7785 68.9958C52.1579 68.4484 52.4018 67.8414 52.4993 67.1802C52.559 66.5028 52.3368 65.6953 51.8273 64.7685C51.3179 63.8418 49.6866 63.2348 46.9227 62.953C44.1641 62.6658 42.4407 62.384 41.7524 62.1076C41.0642 61.8312 40.2837 61.4735 39.4112 61.0399" stroke="#1E1E1E" stroke-linecap="round" stroke-linejoin="round"/>
</svg>
