<svg width="316" height="142" viewBox="0 0 316 142" fill="none" xmlns="http://www.w3.org/2000/svg">
<g clip-path="url(#clip0_7737_14744)">
<path d="M190.891 130.358C208.911 133.835 214.148 131.229 214.515 129.491C236.277 128.692 278.903 128.402 275.31 133.627C270.818 140.158 166.031 144.401 144.176 134.857C122.321 125.313 168.367 126.011 190.891 130.358Z" fill="black" fill-opacity="0.1"/>
<path d="M222.717 104.688C219.814 103.727 216.626 104.897 215.263 107.573C213.75 110.542 215.055 114.239 218.179 115.83C221.304 117.423 225.062 116.307 226.575 113.338C227.238 112.036 227.36 110.595 227.024 109.253" fill="white"/>
<path d="M221.17 117.14C220.058 117.14 218.945 116.873 217.915 116.349C216.271 115.511 215.034 114.113 214.434 112.412C213.829 110.7 213.939 108.888 214.745 107.309C216.228 104.397 219.661 103.062 222.901 104.136C223.206 104.237 223.371 104.566 223.27 104.871C223.169 105.176 222.838 105.343 222.535 105.24C219.843 104.35 217.003 105.441 215.781 107.837C215.123 109.128 215.034 110.616 215.531 112.024C216.032 113.441 217.066 114.609 218.444 115.312C219.821 116.014 221.374 116.164 222.815 115.736C224.247 115.312 225.398 114.366 226.056 113.074C226.628 111.95 226.772 110.643 226.459 109.395C226.382 109.082 226.57 108.767 226.882 108.688C227.196 108.609 227.509 108.799 227.588 109.111C227.969 110.632 227.793 112.227 227.093 113.602C226.288 115.181 224.887 116.334 223.146 116.852C222.499 117.044 221.835 117.139 221.17 117.139V117.14Z" fill="#1E1E1E"/>
<path d="M231.359 99.4369C230.645 99.2523 229.866 99.2483 229.066 99.4723C227.74 99.8446 226.594 100.661 225.431 101.363C224.593 101.87 223.774 102.411 222.997 103.007C222.789 103.167 220.935 104.569 221.049 104.803L223.835 110.531L225.777 111.503C226.525 111.577 227.002 111.702 227.646 111.235C229.27 110.055 231.22 109.447 232.778 108.153C234.169 106.997 235.004 105.429 234.797 103.589C234.567 101.546 233.174 99.9065 231.359 99.436V99.4369Z" fill="white"/>
<path d="M226.625 112.158C226.404 112.158 226.184 112.133 225.961 112.108L225.719 112.081C225.648 112.075 225.58 112.055 225.516 112.023L223.574 111.052C223.46 110.994 223.367 110.902 223.311 110.786C221.319 106.691 220.722 105.463 220.543 105.049L220.526 105.057C220.279 104.552 220.523 104.165 222.608 102.571C223.359 101.993 224.173 101.443 225.129 100.865C225.336 100.74 225.545 100.61 225.752 100.48C226.73 99.8692 227.741 99.2385 228.908 98.9113C229.781 98.6657 230.656 98.654 231.504 98.872C233.566 99.4055 235.121 101.275 235.374 103.522C235.588 105.427 234.797 107.23 233.148 108.599C232.251 109.344 231.24 109.87 230.262 110.377C229.453 110.796 228.689 111.193 227.986 111.704C227.491 112.064 227.053 112.156 226.624 112.156L226.625 112.158ZM225.944 110.935L226.091 110.951C226.658 111.015 226.916 111.044 227.303 110.764C228.077 110.202 228.915 109.766 229.727 109.344C230.692 108.843 231.604 108.37 232.406 107.704C233.352 106.919 234.434 105.578 234.219 103.652C234.02 101.881 232.812 100.413 231.213 99.9989C230.567 99.8319 229.897 99.8427 229.223 100.031C228.217 100.314 227.278 100.9 226.37 101.468C226.157 101.6 225.945 101.732 225.732 101.861C224.813 102.417 224.035 102.942 223.351 103.468C222.343 104.238 221.9 104.642 221.71 104.834C222.205 105.853 223.872 109.278 224.27 110.099L225.943 110.935H225.944ZM221.572 104.548C221.572 104.548 221.572 104.55 221.574 104.55C221.574 104.55 221.574 104.548 221.572 104.548Z" fill="#1E1E1E"/>
<path d="M222.604 104.807C219.701 103.847 216.513 105.017 215.149 107.693C213.637 110.662 214.942 114.358 218.066 115.95C221.19 117.542 224.949 116.426 226.462 113.457C227.125 112.156 227.247 110.715 226.911 109.373" fill="white"/>
<path d="M221.055 117.259C219.943 117.259 218.83 116.992 217.801 116.469C216.156 115.631 214.92 114.233 214.319 112.531C213.714 110.82 213.824 109.007 214.63 107.429C216.113 104.517 219.545 103.183 222.785 104.255C223.091 104.357 223.256 104.686 223.155 104.99C223.054 105.296 222.726 105.462 222.42 105.36C219.727 104.47 216.887 105.561 215.666 107.956C215.008 109.248 214.918 110.735 215.415 112.143C215.917 113.561 216.951 114.729 218.328 115.431C219.706 116.134 221.259 116.284 222.7 115.856C224.131 115.431 225.283 114.485 225.941 113.193C226.513 112.069 226.656 110.763 226.344 109.513C226.266 109.202 226.455 108.885 226.767 108.808C227.075 108.73 227.395 108.919 227.472 109.231C227.853 110.752 227.677 112.347 226.977 113.722C226.173 115.301 224.772 116.454 223.031 116.972C222.384 117.163 221.72 117.258 221.054 117.258L221.055 117.259Z" fill="#1E1E1E"/>
<path d="M252.528 116.906C253.788 116.821 255.053 116.838 256.296 117.068C257.783 117.343 259.76 118.491 259.008 120.317C258.802 121.231 258.564 122.124 258.289 122.979C258.289 122.979 263.932 132.547 253.546 132.874C250.314 132.976 246.673 131.797 245.752 128.262C245.193 126.116 245.167 123.774 245.167 121.588C245.167 121.588 245.266 120.198 245.266 120.196C245.438 117.795 248.462 117.385 250.342 117.135C251.065 117.039 251.795 116.955 252.528 116.906Z" fill="white"/>
<path d="M253.177 133.462C249.881 133.462 246.163 132.145 245.189 128.41C244.631 126.27 244.585 123.963 244.585 121.589C244.585 121.268 244.845 121.008 245.167 121.008C245.488 121.008 245.748 121.268 245.748 121.589C245.748 123.884 245.791 126.11 246.314 128.116C247.154 131.337 250.583 132.385 253.527 132.293C256.249 132.208 258.017 131.462 258.782 130.078C260.218 127.472 257.811 123.318 257.786 123.276C257.702 123.133 257.683 122.96 257.734 122.802C257.988 122.015 258.223 121.147 258.432 120.226C258.504 119.912 258.823 119.717 259.128 119.786C259.442 119.858 259.638 120.17 259.568 120.483C259.372 121.345 259.155 122.162 258.92 122.916C259.457 123.912 261.356 127.816 259.803 130.637C258.828 132.408 256.729 133.357 253.565 133.458C253.437 133.461 253.308 133.463 253.177 133.463V133.462Z" fill="#1E1E1E"/>
<path d="M231.206 116.583C231.057 116.6 230.909 116.617 230.762 116.639C229.613 116.802 228.31 117.03 227.41 117.809C226.711 118.412 226.297 119.368 226.453 120.3C226.66 121.221 226.899 122.12 227.176 122.979C227.176 122.979 221.533 132.547 231.919 132.874C235.151 132.976 238.792 131.797 239.713 128.262C240.272 126.116 240.298 123.774 240.298 121.588C240.298 120.793 240.202 120.006 240.131 119.217C240.055 118.382 239.543 117.788 238.795 117.431C237.408 116.769 235.809 116.601 234.287 116.519C233.278 116.465 232.23 116.47 231.206 116.582V116.583Z" fill="white"/>
<path d="M232.29 133.462C232.159 133.462 232.03 133.46 231.901 133.457C228.737 133.356 226.638 132.407 225.662 130.635C224.11 127.814 226.009 123.91 226.545 122.915C226.309 122.156 226.092 121.338 225.897 120.478C225.825 120.165 226.023 119.853 226.336 119.782C226.653 119.71 226.961 119.907 227.033 120.221C227.241 121.14 227.476 122.009 227.73 122.801C227.781 122.959 227.762 123.132 227.678 123.275C227.654 123.316 225.247 127.47 226.684 130.076C227.447 131.461 229.216 132.207 231.939 132.292C234.871 132.384 238.312 131.337 239.152 128.115C239.673 126.109 239.716 123.884 239.716 121.588C239.716 121.267 239.977 121.007 240.298 121.007C240.619 121.007 240.88 121.267 240.88 121.588C240.88 123.962 240.833 126.269 240.276 128.408C239.303 132.144 235.584 133.461 232.289 133.461L232.29 133.462Z" fill="#1E1E1E"/>
<path d="M239.812 121.013C241.115 121.256 243.175 121.428 245.713 120.945L239.812 121.013Z" fill="white"/>
<path d="M259.008 120.317C259.887 116.419 259.768 112.419 259.369 108.47C258.701 101.855 257.481 95.5789 254.551 89.5676H226.715C226.715 89.5676 225.22 96.4258 225.293 103.856L225.222 103.772C225.222 103.772 224.751 112.742 226.451 120.299C226.451 120.299 243.204 121.79 259.007 120.316L259.008 120.317Z" fill="white"/>
<path d="M226.463 120.931C226.197 120.931 225.958 120.747 225.897 120.478C224.185 112.919 224.638 103.833 224.642 103.743C224.659 103.421 224.923 103.164 225.253 103.191C225.574 103.208 225.821 103.482 225.804 103.803C225.799 103.892 225.356 112.822 227.031 120.219C227.103 120.533 226.905 120.844 226.592 120.916C226.549 120.926 226.505 120.931 226.462 120.931H226.463Z" fill="#1E1E1E"/>
<path d="M259.001 120.935C258.958 120.935 258.915 120.93 258.871 120.92C258.558 120.848 258.362 120.537 258.432 120.224C260.101 112.86 257.843 100.372 257.82 100.247C257.762 99.9311 257.971 99.6275 258.287 99.5696C258.601 99.5086 258.906 99.7199 258.965 100.036C259.061 100.558 261.289 112.883 259.568 120.481C259.507 120.751 259.266 120.934 259.001 120.934V120.935Z" fill="#1E1E1E"/>
<path d="M242.519 121.842C239.836 121.842 238.16 121.194 238.057 121.153C237.759 121.034 237.614 120.697 237.731 120.398C237.85 120.099 238.189 119.954 238.485 120.071C238.522 120.086 242.042 121.427 247.01 120.052C247.323 119.965 247.64 120.148 247.726 120.457C247.811 120.767 247.63 121.088 247.32 121.174C245.508 121.676 243.884 121.843 242.519 121.843V121.842Z" fill="#1E1E1E"/>
<path d="M233.168 87.8172L230.172 97.0498C229.443 99.2965 229.534 101.728 230.51 103.898C232.048 107.319 235.443 111.612 242.796 111.55C244.499 111.535 246.217 111.26 247.82 110.716C249.09 110.285 250.287 109.667 251.336 108.862C252.25 108.159 253.043 107.32 253.693 106.39C254.283 105.549 254.756 104.636 255.124 103.688C255.312 103.202 255.473 102.705 255.609 102.203C256.224 99.9252 255.922 97.5085 254.839 95.3836L250.101 86.1687C250.101 86.1687 243.66 89.8291 233.169 87.8162L233.168 87.8172Z" fill="#EE9CA5"/>
<path d="M242.634 112.133C235.149 112.133 231.622 107.794 229.978 104.138C228.959 101.872 228.832 99.2915 229.616 96.8718L232.614 87.6382C232.704 87.3583 232.982 87.1863 233.277 87.2463C243.408 89.1904 249.749 85.699 249.811 85.6636C249.949 85.586 250.114 85.5664 250.265 85.6125C250.416 85.6577 250.543 85.7628 250.615 85.9033L255.353 95.1182C256.521 97.4082 256.81 99.9782 256.168 102.355C256.024 102.886 255.854 103.405 255.664 103.898C255.265 104.924 254.762 105.875 254.168 106.723C253.471 107.719 252.637 108.593 251.687 109.323C250.616 110.146 249.377 110.799 248.004 111.266C246.383 111.817 244.583 112.116 242.797 112.13C242.742 112.13 242.687 112.13 242.633 112.13L242.634 112.133ZM233.564 88.4821L230.724 97.2304C230.028 99.376 230.14 101.659 231.04 103.66C232.542 107.002 235.774 110.969 242.637 110.969C242.688 110.969 242.738 110.969 242.789 110.969C244.452 110.955 246.126 110.677 247.631 110.167C248.882 109.741 250.008 109.148 250.979 108.402C251.834 107.745 252.587 106.956 253.215 106.059C253.756 105.285 254.215 104.417 254.579 103.479C254.756 103.025 254.912 102.545 255.045 102.054C255.612 99.9556 255.353 97.6813 254.318 95.6507L249.845 86.9506C248.097 87.7709 242.261 90.0274 233.564 88.4831V88.4821Z" fill="#B24D57"/>
<path d="M242.893 96.2322C242.593 96.2322 242.338 96.0024 242.314 95.6968L241.423 84.7156C241.396 84.3953 241.635 84.1143 241.955 84.0888C242.28 84.0633 242.557 84.301 242.582 84.6213L243.473 95.6025C243.5 95.9228 243.261 96.2037 242.941 96.2293C242.925 96.2313 242.909 96.2313 242.893 96.2313V96.2322Z" fill="#B24D57"/>
<path d="M245.444 45.1752L247.985 35.2716C248.604 32.8617 248.393 30.2987 247.312 28.0578C245.609 24.5251 242.008 20.1682 234.667 20.6142C232.967 20.7173 231.263 21.0975 229.69 21.7547C228.443 22.2764 227.276 22.9896 226.269 23.8944C225.39 24.6843 224.64 25.6107 224.036 26.6255C223.488 27.545 223.06 28.5333 222.739 29.554C222.574 30.0766 222.437 30.6091 222.327 31.1455C221.824 33.5828 222.244 36.1194 223.43 38.3062L228.613 47.7913C228.613 47.7913 234.866 43.5935 245.444 45.1761V45.1752Z" fill="#EE9CA5"/>
<path d="M228.613 48.3718C228.567 48.3718 228.52 48.3659 228.475 48.3541C228.317 48.3158 228.181 48.2116 228.103 48.0682L222.918 38.5831C221.647 36.2381 221.235 33.5552 221.756 31.0265C221.871 30.4665 222.016 29.9115 222.183 29.378C222.529 28.2758 222.984 27.2492 223.534 26.3267C224.179 25.2431 224.968 24.2784 225.879 23.4601C226.91 22.5346 228.116 21.7802 229.465 21.2163C231.06 20.5502 232.846 20.1405 234.632 20.0315C242.22 19.5815 246.004 24.0033 247.836 27.8042C248.958 30.1315 249.21 32.8341 248.548 35.4159L246.007 45.3194C245.932 45.6092 245.65 45.789 245.356 45.7507C235.16 44.226 228.999 48.2332 228.937 48.2735C228.84 48.3384 228.727 48.3718 228.613 48.3718ZM235.688 21.1642C235.367 21.1642 235.039 21.174 234.703 21.1946C233.046 21.2949 231.391 21.6731 229.915 22.291C228.687 22.8038 227.591 23.4886 226.658 24.3265C225.835 25.0663 225.12 25.9396 224.535 26.923C224.031 27.7689 223.613 28.713 223.295 29.7288C223.138 30.2249 223.005 30.7416 222.897 31.2633C222.431 33.5238 222.803 35.9267 223.942 38.029L228.835 46.9817C230.563 46.016 236.27 43.3537 245.011 44.5276L247.422 35.129C248.017 32.8135 247.792 30.3919 246.789 28.3131C245.192 25.0014 241.983 21.1662 235.689 21.1662L235.688 21.1642Z" fill="#B24D57"/>
<path d="M236.904 46.1858C236.614 46.1858 236.364 45.9697 236.327 45.6749L235.236 36.8432C235.197 36.5239 235.424 36.2341 235.742 36.1948C236.064 36.1565 236.352 36.3824 236.39 36.7007L237.482 45.5325C237.521 45.8518 237.294 46.1416 236.976 46.1809C236.951 46.1838 236.928 46.1858 236.904 46.1858Z" fill="#B24D57"/>
<path d="M217.461 60.7688L207.679 58.2587C205.298 57.6477 202.768 57.8559 200.553 58.9228C197.064 60.6057 192.761 64.163 193.201 71.4131C193.303 73.093 193.679 74.7748 194.328 76.329C194.843 77.5609 195.548 78.7133 196.441 79.7075C197.221 80.5759 198.137 81.3176 199.139 81.9139C200.047 82.4543 201.023 82.8777 202.031 83.195C202.548 83.3571 203.073 83.4926 203.604 83.6017C206.011 84.0988 208.516 83.6842 210.677 82.5122L220.045 77.3929C220.045 77.3929 215.898 71.2166 217.462 60.7688H217.461Z" fill="#EE9CA5"/>
<path d="M205.629 84.3896C204.91 84.3896 204.192 84.3178 203.486 84.1724C202.928 84.0575 202.381 83.916 201.857 83.751C200.772 83.4081 199.757 82.9592 198.841 82.4149C197.768 81.7764 196.815 80.9954 196.008 80.0965C195.094 79.0777 194.348 77.8861 193.792 76.5539C193.134 74.9782 192.729 73.2128 192.621 71.4484C192.165 63.9439 196.546 60.2097 200.301 58.3992C202.599 57.291 205.27 57.0415 207.824 57.6948L217.607 60.2048C217.896 60.2795 218.083 60.5595 218.038 60.8552C216.525 70.9621 220.488 77.0088 220.529 77.0687C220.62 77.2043 220.65 77.3723 220.61 77.5314C220.572 77.6906 220.468 77.8252 220.323 77.9047L210.955 83.024C209.293 83.9268 207.457 84.3915 205.629 84.3915V84.3896ZM205.004 58.5014C203.544 58.5014 202.108 58.8206 200.807 59.4474C197.372 61.1028 193.365 64.5176 193.783 71.3767C193.882 73.0124 194.256 74.6471 194.865 76.104C195.37 77.3153 196.047 78.3959 196.874 79.3174C197.602 80.1299 198.465 80.8343 199.437 81.4139C200.274 81.9129 201.206 82.3246 202.206 82.6389C202.692 82.7922 203.202 82.9238 203.722 83.0319C205.955 83.4936 208.326 83.1252 210.399 81.9994L219.235 77.1709C218.278 75.4556 215.657 69.8225 216.813 61.202L207.535 58.8216C206.698 58.6075 205.848 58.5004 205.005 58.5004L205.004 58.5014Z" fill="#B24D57"/>
<path d="M209.706 70.7804C209.416 70.7804 209.166 70.5642 209.129 70.2695C209.09 69.9502 209.317 69.6604 209.635 69.6211L219.253 68.4324C219.579 68.3912 219.862 68.6201 219.901 68.9384C219.941 69.2576 219.714 69.5474 219.396 69.5867L209.778 70.7754C209.753 70.7784 209.73 70.7804 209.706 70.7804Z" fill="#B24D57"/>
<path d="M260.918 73.0112L270.818 75.5517C273.228 76.1696 275.789 75.9594 278.029 74.8787C281.56 73.1762 285.916 69.5757 285.471 62.2382C285.368 60.5386 284.988 58.8361 284.331 57.2633C283.811 56.0166 283.097 54.8505 282.193 53.8436C281.404 52.9643 280.477 52.2148 279.463 51.6106C278.543 51.0634 277.556 50.6351 276.535 50.3148C276.012 50.1507 275.481 50.0142 274.944 49.9032C272.507 49.4002 269.972 49.8197 267.786 51.0064L258.305 56.1876C258.305 56.1876 262.501 62.4386 260.919 73.0122L260.918 73.0112Z" fill="#EE9CA5"/>
<path d="M273.525 76.4772C272.574 76.4772 271.615 76.3573 270.673 76.1157L260.772 73.5752C260.484 73.5005 260.297 73.2205 260.341 72.9248C261.873 62.6931 257.861 56.5718 257.82 56.5119C257.729 56.3763 257.699 56.2083 257.739 56.0492C257.777 55.89 257.881 55.7554 258.026 55.6758L267.507 50.4947C269.85 49.2234 272.534 48.8118 275.061 49.3325C275.627 49.4504 276.182 49.5928 276.71 49.7589C277.808 50.1047 278.834 50.5585 279.76 51.1097C280.846 51.7571 281.809 52.5459 282.626 53.4546C283.55 54.4832 284.305 55.6896 284.868 57.0384C285.534 58.6329 285.943 60.4189 286.052 62.2029C286.513 69.7939 282.082 73.5703 278.283 75.4024C276.806 76.1137 275.177 76.4762 273.525 76.4762V76.4772ZM261.566 72.5771L270.962 74.9879C273.276 75.5832 275.698 75.3573 277.776 74.3542C281.253 72.6773 285.311 69.2202 284.889 62.2736C284.789 60.6183 284.411 58.962 283.793 57.4864C283.281 56.2584 282.596 55.164 281.759 54.2317C281.022 53.4095 280.148 52.6952 279.164 52.1088C278.315 51.6038 277.372 51.1863 276.36 50.868C275.869 50.7137 275.352 50.5792 274.825 50.4701C272.564 50.0045 270.163 50.3748 268.063 51.5154L259.114 56.4058C260.08 58.1338 262.739 63.8386 261.567 72.5751L261.566 72.5771Z" fill="#B24D57"/>
<path d="M259.786 64.5821C259.496 64.5821 259.246 64.366 259.21 64.0713C259.17 63.752 259.397 63.4622 259.715 63.4229L269.162 62.2558C269.49 62.2175 269.771 62.4435 269.811 62.7618C269.85 63.081 269.623 63.3708 269.305 63.4101L259.858 64.5772C259.833 64.5802 259.81 64.5821 259.786 64.5821Z" fill="#B24D57"/>
<path d="M250.316 86.5359L255.488 95.2773C256.746 97.4041 258.693 99.0565 261.028 99.8719C264.705 101.157 270.295 101.687 275.138 96.2194C276.26 94.9521 277.189 93.4893 277.832 91.9224C278.342 90.6806 278.66 89.3593 278.732 88.0173C278.795 86.8453 278.671 85.6674 278.384 84.5298C278.122 83.4993 277.728 82.5051 277.237 81.5629C276.986 81.0796 276.708 80.61 276.408 80.1552C275.049 78.0902 272.973 76.6038 270.604 75.9004L260.302 72.8795C260.302 72.8795 258.857 80.22 250.317 86.5368L250.316 86.5359Z" fill="#EE9CA5"/>
<path d="M265.811 101.313C263.991 101.313 262.291 100.929 260.835 100.42C258.411 99.5735 256.334 97.8523 254.986 95.5731L249.815 86.8327C249.664 86.5763 249.731 86.2462 249.969 86.0684C258.233 79.9559 259.715 72.8375 259.729 72.7657C259.76 72.6046 259.858 72.4661 259.998 72.3806C260.138 72.2962 260.307 72.2726 260.463 72.3197L270.766 75.3406C273.307 76.0941 275.482 77.6905 276.893 79.8341C277.205 80.3096 277.494 80.7998 277.751 81.292C278.28 82.3068 278.682 83.3472 278.945 84.3856C279.254 85.6037 279.378 86.8366 279.312 88.0489C279.238 89.4223 278.921 90.7997 278.369 92.1436C277.717 93.7331 276.75 95.2745 275.572 96.6047C272.404 100.182 268.934 101.314 265.811 101.314V101.313ZM251.081 86.6883L255.988 94.9807C257.196 97.0241 259.054 98.5655 261.218 99.322C264.84 100.586 270.117 101.008 274.701 95.8325C275.794 94.5986 276.69 93.1702 277.294 91.7005C277.796 90.4794 278.084 89.2288 278.15 87.9861C278.21 86.8907 278.098 85.7757 277.818 84.6714C277.578 83.7215 277.208 82.7656 276.72 81.8303C276.481 81.3725 276.213 80.9167 275.922 80.4736C274.662 78.559 272.715 77.1325 270.439 76.4566L260.719 73.6067C260.181 75.5037 258.039 81.3765 251.083 86.6883H251.081Z" fill="#B24D57"/>
<path d="M263.153 85.5525C263.028 85.5525 262.903 85.5122 262.796 85.4297L255.878 80.0324C255.625 79.8349 255.58 79.4685 255.777 79.215C255.975 78.9616 256.34 78.9154 256.595 79.1138L263.513 84.5111C263.766 84.7086 263.811 85.075 263.614 85.3285C263.499 85.4759 263.327 85.5525 263.154 85.5525H263.153Z" fill="#B24D57"/>
<path d="M219.551 77.9872L210.872 83.1212C208.76 84.3708 207.121 86.3042 206.311 88.6207C205.036 92.2723 204.509 97.8228 209.938 102.631C211.196 103.745 212.649 104.667 214.205 105.306C215.438 105.813 216.749 106.127 218.082 106.2C219.246 106.263 220.415 106.14 221.545 105.853C222.568 105.594 223.556 105.203 224.491 104.715C224.971 104.465 225.437 104.19 225.889 103.892C227.94 102.543 229.415 100.482 230.114 98.1293L233.113 87.9006C233.113 87.9006 225.824 86.4673 219.553 77.9872H219.551Z" fill="#EE9CA5"/>
<path d="M218.68 106.799C218.47 106.799 218.26 106.794 218.051 106.782C216.687 106.709 215.318 106.393 213.983 105.846C212.405 105.198 210.873 104.237 209.552 103.067C203.933 98.0911 204.389 92.3608 205.762 88.4302C206.602 86.0233 208.313 83.9613 210.576 82.6213L219.255 77.4863C219.511 77.335 219.842 77.4018 220.019 77.6405C226.069 85.819 233.155 87.3162 233.225 87.3299C233.386 87.3614 233.525 87.4596 233.61 87.5991C233.695 87.7396 233.718 87.9076 233.671 88.0648L230.671 98.2935C229.923 100.817 228.338 102.978 226.209 104.379C225.737 104.69 225.249 104.978 224.761 105.232C223.75 105.759 222.717 106.158 221.689 106.417C220.69 106.67 219.68 106.798 218.681 106.798L218.68 106.799ZM219.399 78.7546L211.169 83.6243C209.141 84.8238 207.611 86.6678 206.861 88.8153C205.606 92.4089 205.188 97.649 210.324 102.198C211.548 103.282 212.966 104.171 214.425 104.77C215.638 105.268 216.879 105.554 218.112 105.62C219.201 105.681 220.305 105.568 221.401 105.29C222.342 105.051 223.291 104.685 224.222 104.201C224.675 103.964 225.128 103.698 225.569 103.407C227.469 102.157 228.884 100.224 229.554 97.9654L232.382 88.3182C230.495 87.7828 224.669 85.6539 219.398 78.7536L219.399 78.7546Z" fill="#B24D57"/>
<path d="M221.021 90.7733C220.896 90.7733 220.771 90.733 220.665 90.6505C220.411 90.453 220.366 90.0866 220.563 89.8331L226.902 81.7087C227.099 81.4552 227.465 81.409 227.719 81.6075C227.973 81.8049 228.018 82.1714 227.82 82.4248L221.482 90.5493C221.367 90.6967 221.195 90.7733 221.022 90.7733H221.021Z" fill="#B24D57"/>
<path d="M258.966 55.6719L267.645 50.5379C269.757 49.2882 271.397 47.3549 272.206 45.0384C273.481 41.3868 274.008 35.8362 268.579 31.0284C267.322 29.9143 265.869 28.9919 264.313 28.3533C263.08 27.8464 261.768 27.532 260.435 27.4593C259.271 27.3964 258.102 27.5192 256.972 27.8061C255.949 28.0655 254.961 28.4564 254.026 28.9437C253.546 29.1942 253.08 29.4693 252.628 29.767C250.578 31.1158 249.102 33.1769 248.404 35.5297L245.404 45.7585C245.404 45.7585 252.693 47.1918 258.964 55.6719H258.966Z" fill="#EE9CA5"/>
<path d="M258.966 56.2535C258.786 56.2535 258.611 56.171 258.498 56.0177C252.448 47.8392 245.363 46.343 245.292 46.3293C245.131 46.2978 244.993 46.1996 244.908 46.0601C244.824 45.9196 244.8 45.7516 244.847 45.5944L247.847 35.3657C248.596 32.8419 250.181 30.6806 252.31 29.2797C252.785 28.9663 253.272 28.6805 253.758 28.427C254.768 27.9004 255.802 27.5016 256.83 27.2422C258.036 26.9357 259.26 26.811 260.466 26.8778C261.832 26.9514 263.2 27.2668 264.534 27.815C266.113 28.4624 267.645 29.4241 268.965 30.5922C274.585 35.57 274.129 41.2994 272.755 45.229C271.915 47.6359 270.205 49.6989 267.94 51.0379L259.262 56.1729C259.17 56.2279 259.067 56.2545 258.966 56.2545V56.2535ZM246.134 45.342C248.021 45.8774 253.848 48.0052 259.118 54.9056L267.348 50.0359C269.377 48.8364 270.906 46.9924 271.657 44.8449C272.912 41.2512 273.33 36.0121 268.194 31.4626C266.97 30.379 265.552 29.489 264.092 28.8897C262.88 28.3916 261.639 28.1058 260.405 28.039C259.315 27.982 258.209 28.092 257.116 28.369C256.175 28.6078 255.226 28.9742 254.296 29.4585C253.846 29.6933 253.393 29.9605 252.949 30.2523C251.049 31.5029 249.633 33.4353 248.963 35.6948L246.135 45.342H246.134Z" fill="#B24D57"/>
<path d="M252.458 50.4712C252.333 50.4712 252.207 50.4309 252.101 50.3484C251.848 50.1509 251.802 49.7845 252 49.531L257.497 42.4833C257.695 42.2288 258.06 42.1836 258.315 42.3821C258.568 42.5795 258.613 42.946 258.416 43.1994L252.918 50.2472C252.803 50.3945 252.632 50.4712 252.459 50.4712H252.458Z" fill="#B24D57"/>
<path d="M228.202 47.123L223.031 38.3816C221.773 36.2547 219.825 34.6023 217.491 33.7869C213.814 32.5019 208.223 31.9714 203.381 37.4395C202.259 38.7067 201.33 40.1695 200.686 41.7365C200.177 42.9782 199.859 44.2996 199.787 45.6415C199.724 46.8135 199.847 47.9914 200.135 49.129C200.397 50.1596 200.791 51.1538 201.282 52.0959C201.533 52.5792 201.811 53.0488 202.111 53.5037C203.47 55.5687 205.545 57.055 207.915 57.7584L218.217 60.7793C218.217 60.7793 219.661 53.4388 228.201 47.122L228.202 47.123Z" fill="#EE9CA5"/>
<path d="M218.217 61.364C218.162 61.364 218.107 61.3562 218.054 61.3404L207.752 58.3196C205.21 57.5661 203.035 55.9697 201.624 53.8261C201.312 53.3506 201.023 52.8604 200.767 52.3682C200.238 51.3553 199.836 50.315 199.572 49.2746C199.264 48.0564 199.14 46.8245 199.206 45.6122C199.28 44.2378 199.598 42.8595 200.149 41.5176C200.8 39.93 201.768 38.3877 202.946 37.0565C207.958 31.3959 213.727 31.8586 217.684 33.2399C220.106 34.0867 222.183 35.8079 223.532 38.087L228.703 46.8274C228.854 47.0839 228.788 47.4139 228.549 47.5918C220.311 53.6856 218.804 60.8237 218.789 60.8954C218.757 61.0565 218.659 61.195 218.52 61.2795C218.427 61.3355 218.322 61.364 218.217 61.364ZM212.746 33.5208C209.887 33.5208 206.714 34.5563 203.817 37.8277C202.725 39.0626 201.828 40.491 201.224 41.9597C200.723 43.1808 200.435 44.4304 200.368 45.6751C200.309 46.7705 200.421 47.8845 200.701 48.9887C200.942 49.9407 201.312 50.8956 201.799 51.8298C202.038 52.2876 202.306 52.7435 202.597 53.1865C203.857 55.1012 205.804 56.5277 208.081 57.2036L217.801 60.0535C218.338 58.1575 220.48 52.2837 227.436 46.9719L222.53 38.6794C221.32 36.636 219.463 35.0946 217.299 34.3382C215.966 33.8725 214.409 33.5208 212.745 33.5208H212.746Z" fill="#B24D57"/>
<path d="M222.618 53.937C222.493 53.937 222.368 53.8967 222.262 53.8142L215.47 48.5171C215.217 48.3197 215.172 47.9532 215.369 47.6998C215.566 47.4463 215.932 47.4001 216.186 47.5986L222.978 52.8957C223.231 53.0931 223.276 53.4596 223.079 53.713C222.964 53.8604 222.792 53.937 222.619 53.937H222.618Z" fill="#B24D57"/>
<path d="M208.332 45.0197C209.967 45.0197 211.292 43.6944 211.292 42.0597C211.292 40.425 209.967 39.0997 208.332 39.0997C206.697 39.0997 205.372 40.425 205.372 42.0597C205.372 43.6944 206.697 45.0197 208.332 45.0197Z" fill="#F9D4D8"/>
<path d="M241.723 91.6859C237.496 92.0729 233.165 91.5012 228.895 89.9519C221.859 87.3977 216.965 82.2175 215.061 74.9458C213.113 67.5041 214.244 59.027 218.577 52.605C220.967 49.0625 224.399 46.4218 228.221 44.5375C232.867 42.2466 238.314 41.3948 243.44 42.1533C248.202 42.8576 252.814 44.7045 256.408 47.9307C262.174 53.105 265.335 61.0517 265.256 68.7439C265.179 76.2602 261.693 82.4758 255.491 86.6658C251.203 89.5629 246.531 91.2448 241.723 91.6859Z" fill="white"/>
<path d="M239.146 92.3862C235.657 92.3862 232.154 91.7545 228.697 90.499C221.349 87.8318 216.439 82.5042 214.499 75.094C212.434 67.2073 213.777 58.6781 218.094 52.2807C220.373 48.9022 223.694 46.122 227.963 44.0168C232.733 41.6659 238.261 40.8004 243.525 41.5784C248.753 42.3526 253.343 44.3999 256.797 47.4994C262.541 52.654 265.92 60.5997 265.838 68.7516C265.76 76.4124 262.294 82.7744 255.816 87.149C251.462 90.0903 246.738 91.8115 241.776 92.2673C240.901 92.3479 240.024 92.3872 239.146 92.3872V92.3862ZM239.708 42.4626C235.831 42.4626 231.945 43.3507 228.479 45.0601C224.393 47.074 221.224 49.7225 219.06 52.931C214.928 59.0563 213.643 67.2309 215.624 74.7993C217.463 81.8234 222.121 86.8739 229.094 89.4046C233.258 90.9175 237.489 91.4922 241.669 91.1061C246.433 90.669 250.974 89.0136 255.164 86.1833C261.311 82.0317 264.599 75.9988 264.674 68.7369C264.753 60.914 261.517 53.2985 256.019 48.3639C252.735 45.4167 248.355 43.4676 243.355 42.7288C242.148 42.55 240.928 42.4616 239.708 42.4616V42.4626Z" fill="#1E1E1E"/>
<path d="M247.359 70.107C248.691 69.9425 249.607 68.4781 249.404 66.8363C249.202 65.1945 247.957 63.997 246.625 64.1615C245.293 64.326 244.377 65.7903 244.58 67.4321C244.783 69.0739 246.027 70.2715 247.359 70.107Z" fill="#1E1E1E"/>
<path d="M247.383 66.9063C247.835 66.9063 248.202 66.5395 248.202 66.087C248.202 65.6345 247.835 65.2677 247.383 65.2677C246.93 65.2677 246.563 65.6345 246.563 66.087C246.563 66.5395 246.93 66.9063 247.383 66.9063Z" fill="white"/>
<path d="M232.747 71.9107C234.079 71.7462 234.995 70.2819 234.792 68.6401C234.589 66.9982 233.345 65.8007 232.013 65.9652C230.681 66.1297 229.765 67.594 229.968 69.2358C230.17 70.8776 231.415 72.0752 232.747 71.9107Z" fill="#1E1E1E"/>
<path d="M232.771 68.7119C233.224 68.7119 233.591 68.3451 233.591 67.8926C233.591 67.4401 233.224 67.0732 232.771 67.0732C232.319 67.0732 231.952 67.4401 231.952 67.8926C231.952 68.3451 232.319 68.7119 232.771 68.7119Z" fill="white"/>
<path d="M236.441 72.0839C236.441 72.0839 239.839 73.2166 243.181 71.0641C243.224 71.0366 243.901 73.026 243.931 73.1596C244.61 76.151 242.383 78.7327 239.258 77.9694C237.331 77.4988 236.646 75.4486 236.473 73.6852C236.421 73.1566 236.397 72.6144 236.441 72.0839Z" fill="#FFE6EA"/>
<path d="M240.253 78.6717C239.877 78.6717 239.496 78.6265 239.12 78.5342C237.298 78.0892 236.153 76.3876 235.894 73.741C235.83 73.0976 235.819 72.5396 235.861 72.0356C235.875 71.8715 235.957 71.7212 236.088 71.621C236.219 71.5208 236.389 71.4796 236.548 71.511C236.579 71.5159 239.666 72.0651 242.935 70.5365C243.211 70.4068 243.544 70.5139 243.693 70.784C243.722 70.839 243.742 70.895 243.754 70.953C243.805 71.1072 243.985 71.5631 244.127 71.9256C244.231 72.1889 244.316 72.4079 244.331 72.458C244.617 73.3245 244.694 74.2214 244.555 75.0496C244.352 76.2688 243.691 77.3013 242.696 77.9565C241.982 78.4261 241.13 78.6707 240.254 78.6707L240.253 78.6717ZM237.001 72.739C237.004 73.0121 237.02 73.3068 237.052 73.6271C237.173 74.8541 237.636 76.9741 239.396 77.4034C240.345 77.6353 241.291 77.4879 242.054 76.9839C242.776 76.5085 243.256 75.753 243.407 74.8571C243.515 74.2136 243.452 73.5102 243.225 72.8215C243.208 72.7704 243.133 72.5789 243.043 72.349C242.968 72.1584 242.902 71.9914 242.846 71.844C240.36 72.853 238.092 72.8333 237.001 72.737V72.739Z" fill="#1E1E1E"/>
<path d="M253.288 74.9546C255.255 74.9546 256.85 73.3597 256.85 71.3924C256.85 69.425 255.255 67.8302 253.288 67.8302C251.32 67.8302 249.726 69.425 249.726 71.3924C249.726 73.3597 251.32 74.9546 253.288 74.9546Z" fill="#F6CED2"/>
<path d="M227.315 78.164C229.282 78.164 230.877 76.5692 230.877 74.6019C230.877 72.6345 229.282 71.0397 227.315 71.0397C225.348 71.0397 223.753 72.6345 223.753 74.6019C223.753 76.5692 225.348 78.164 227.315 78.164Z" fill="#F6CED2"/>
<path d="M240.352 91.5527C240.377 90.647 239.694 89.8738 238.792 89.7923C236.417 89.5762 231.542 89.7235 226.636 93.4242C221.409 97.3666 220.739 102.591 220.716 104.852C220.708 105.585 221.162 106.238 221.85 106.492C223.78 107.209 228.147 107.968 233.798 103.611C239.395 99.295 240.285 94.0844 240.353 91.5518L240.352 91.5527Z" fill="#4FB35B"/>
<path d="M221.201 106.557C221.037 106.557 220.875 106.488 220.759 106.354C220.55 106.11 220.579 105.742 220.822 105.533C220.95 105.423 233.676 94.5255 239.588 90.0752C239.845 89.8826 240.211 89.9347 240.403 90.1901C240.597 90.4465 240.545 90.812 240.288 91.0055C234.405 95.4332 221.707 106.307 221.58 106.416C221.47 106.511 221.335 106.557 221.2 106.557H221.201Z" fill="#35763E"/>
<path d="M227.901 107.081C227.852 107.081 227.802 107.075 227.753 107.062C227.442 106.98 227.257 106.662 227.337 106.351C227.348 106.312 228.298 102.649 228.135 100.157C227.249 99.8964 224.709 99.3345 221.992 100.424C221.691 100.542 221.354 100.398 221.235 100.101C221.115 99.8021 221.259 99.4632 221.558 99.3433C225.359 97.8206 228.751 99.1262 228.893 99.1822C229.093 99.2608 229.232 99.4425 229.258 99.6547C229.578 102.356 228.508 106.473 228.463 106.645C228.394 106.907 228.158 107.08 227.901 107.08V107.081Z" fill="#35763E"/>
<path d="M233.929 103.998C233.893 103.998 233.857 103.995 233.821 103.988C233.504 103.929 233.297 103.624 233.356 103.308C233.367 103.252 234.372 97.842 234.063 95.0019C233.086 94.5775 229.673 93.2758 226.597 94.2739C226.288 94.3722 225.963 94.2051 225.863 93.8996C225.765 93.5931 225.932 93.265 226.237 93.1658C230.315 91.8454 234.675 93.9929 234.859 94.0863C235.026 94.1708 235.144 94.3309 235.172 94.5166C235.628 97.451 234.546 103.276 234.499 103.522C234.447 103.802 234.203 103.997 233.928 103.997L233.929 103.998Z" fill="#35763E"/>
<path d="M225.07 107.635C223.632 107.635 222.471 107.345 221.646 107.038C220.731 106.699 220.123 105.817 220.133 104.847C220.156 102.651 220.801 97.0966 226.285 92.9597C231.317 89.1637 236.312 88.982 238.845 89.2128C240.048 89.3219 240.967 90.3573 240.934 91.5696C240.86 94.3429 239.881 99.6567 234.152 104.073C230.547 106.852 227.434 107.635 225.07 107.635ZM237.36 90.3112C234.802 90.3112 230.911 90.9281 226.986 93.8891C221.914 97.7155 221.318 102.835 221.297 104.86C221.292 105.349 221.588 105.776 222.051 105.948C224.008 106.674 228.089 107.278 233.441 103.152C238.788 99.029 239.701 94.1062 239.769 91.5392C239.785 90.9389 239.333 90.4271 238.739 90.3731C238.341 90.3367 237.878 90.3121 237.36 90.3121V90.3112Z" fill="#1E1E1E"/>
<path d="M244.249 91.049C243.44 90.6413 243.082 89.6746 243.437 88.8415C244.371 86.6469 246.808 82.4225 252.39 79.8536C258.337 77.1166 263.256 78.9989 265.26 80.0491C265.909 80.39 266.269 81.0973 266.167 81.8233C265.885 83.8637 264.486 88.0684 257.974 90.9842C251.523 93.8714 246.511 92.1896 244.249 91.05V91.049Z" fill="#4FB35B"/>
<path d="M243.553 90.7876C243.333 90.7876 243.123 90.6628 243.024 90.4497C242.89 90.1579 243.017 89.8121 243.308 89.6775C250.028 86.5761 265.65 80.5255 265.807 80.4645C266.109 80.3496 266.444 80.497 266.56 80.7976C266.676 81.0972 266.527 81.4342 266.227 81.5501C266.07 81.611 250.481 87.6488 243.796 90.7346C243.717 90.7709 243.634 90.7886 243.552 90.7886L243.553 90.7876Z" fill="#35763E"/>
<path d="M263.309 87.7365C263.264 87.7365 263.218 87.7316 263.171 87.7208C262.997 87.6785 258.865 86.6726 256.636 85.1105C256.462 84.9877 256.367 84.7785 256.393 84.5663C256.411 84.414 256.865 80.8086 260.007 78.1817C260.253 77.9754 260.62 78.0078 260.827 78.2544C261.034 78.5009 261.001 78.8684 260.755 79.0747C258.508 80.953 257.801 83.4562 257.611 84.36C259.729 85.6843 263.406 86.5792 263.445 86.589C263.758 86.6647 263.95 86.9781 263.875 87.2915C263.81 87.5587 263.571 87.7375 263.31 87.7375L263.309 87.7365Z" fill="#35763E"/>
<path d="M257.741 91.5876C257.683 91.5876 257.623 91.5797 257.564 91.5601C257.326 91.4844 251.682 89.6797 249.313 87.8898C249.163 87.7758 249.076 87.597 249.082 87.4094C249.088 87.2041 249.257 82.3451 252.353 79.3783C252.583 79.1563 252.952 79.1631 253.176 79.397C253.398 79.6288 253.39 79.9972 253.157 80.2202C250.816 82.464 250.352 86.0812 250.265 87.1412C252.622 88.7573 257.863 90.4332 257.918 90.4509C258.225 90.5492 258.394 90.8753 258.296 91.1818C258.218 91.4284 257.989 91.5876 257.741 91.5876Z" fill="#35763E"/>
<path d="M250.849 93.1709C247.809 93.1709 245.44 92.3005 243.987 91.5686C242.904 91.0234 242.428 89.7247 242.901 88.6126C243.897 86.2745 246.421 81.9588 252.147 79.323C258.387 76.4515 263.585 78.5125 265.53 79.5323C266.39 79.9822 266.877 80.9351 266.744 81.9018C266.424 84.2085 264.892 88.5232 258.212 91.5136C255.48 92.7367 252.997 93.1709 250.849 93.1709ZM244.511 90.5293C246.806 91.6846 251.575 93.2092 257.737 90.4516C263.904 87.6911 265.305 83.8106 265.592 81.7437C265.66 81.2544 265.423 80.7907 264.991 80.5638C263.199 79.6246 258.407 77.7247 252.634 80.382C247.263 82.8538 244.903 86.8855 243.973 89.0694C243.739 89.6176 243.975 90.2601 244.512 90.5293H244.511Z" fill="#1E1E1E"/>
<path d="M241.647 95.7744C244.415 95.7744 246.659 93.5304 246.659 90.7622C246.659 87.994 244.415 85.75 241.647 85.75C238.879 85.75 236.635 87.994 236.635 90.7622C236.635 93.5304 238.879 95.7744 241.647 95.7744Z" fill="#F6CA6B"/>
<path d="M241.644 96.3588C240.844 96.3588 240.048 96.1849 239.302 95.8401C237.945 95.2133 236.913 94.0964 236.398 92.6935C235.332 89.7984 236.82 86.5771 239.715 85.5112C242.603 84.4472 245.831 85.9346 246.896 88.8297C247.412 90.2316 247.352 91.7504 246.726 93.1061C246.099 94.4618 244.982 95.4943 243.579 96.0111C242.949 96.2429 242.295 96.3578 241.644 96.3578V96.3588ZM241.642 86.3325C241.135 86.3325 240.62 86.4199 240.117 86.6056C237.825 87.4494 236.646 90.0007 237.491 92.2937C237.9 93.4038 238.715 94.2889 239.79 94.785C240.865 95.2802 242.066 95.3303 243.178 94.9196C244.288 94.5109 245.173 93.6946 245.669 92.6198C246.165 91.5461 246.214 90.3426 245.804 89.2325C245.146 87.4435 243.446 86.3325 241.642 86.3325Z" fill="#1E1E1E"/>
<path d="M239.845 91.5649C240.665 91.5649 241.33 90.8999 241.33 90.0795C241.33 89.2591 240.665 88.5941 239.845 88.5941C239.024 88.5941 238.359 89.2591 238.359 90.0795C238.359 90.8999 239.024 91.5649 239.845 91.5649Z" fill="white"/>
<path d="M258.595 99.8732C258.644 99.8663 258.697 99.8496 258.754 99.8202C258.957 99.715 259.15 99.5038 259.323 99.3574C259.986 98.7965 260.614 98.1943 261.211 97.5636C263.101 95.5664 264.689 93.2548 265.744 90.7094C266.408 89.1061 266.853 87.4124 267.03 85.6844L266.628 84.6715L264.588 82.4415L260.255 80.9119L257.833 80.7203L257.585 83.4819C256.711 89.0727 253.848 92.5641 253.848 92.5641C253.848 92.5641 255.729 94.9759 256.402 98.4861C256.479 98.8869 256.896 98.8908 257.217 98.9478C257.495 98.9959 257.772 99.1089 257.969 99.3181C258.157 99.5195 258.24 99.9213 258.594 99.8722L258.595 99.8732Z" fill="white"/>
<path d="M258.601 100.516C258.421 100.516 258.242 100.431 258.129 100.274C257.941 100.014 258 99.6493 258.26 99.4616C258.333 99.4096 265.506 94.141 266.435 85.766L266.126 84.986L264.257 82.9416L260.133 81.4867L258.362 81.3462L258.164 83.535C257.271 89.2555 254.596 92.5446 254.482 92.6821C254.278 92.9306 253.911 92.965 253.664 92.7597C253.416 92.5563 253.381 92.1889 253.584 91.9414C253.61 91.9099 256.174 88.7417 257.009 83.3925L257.252 80.6693C257.281 80.353 257.565 80.128 257.877 80.1408L260.299 80.3314C260.35 80.3363 260.4 80.3461 260.447 80.3628L264.781 81.8924C264.871 81.9238 264.952 81.9779 265.016 82.0486L267.056 84.2796C267.104 84.3307 267.14 84.3916 267.167 84.4565L267.57 85.4693C267.604 85.5567 267.618 85.6501 267.608 85.7434C266.688 94.7294 259.257 100.178 258.94 100.405C258.837 100.479 258.718 100.515 258.6 100.515L258.601 100.516Z" fill="#1E1E1E"/>
<path d="M258.652 84.2403C256.101 81.6968 255.699 77.6061 257.873 74.5892C260.285 71.2421 264.953 70.4837 268.301 72.8955C271.648 75.3073 272.407 79.9757 269.995 83.3237C268.938 84.7914 267.446 85.761 265.823 86.1844" fill="white"/>
<path d="M265.823 86.7651C265.564 86.7651 265.329 86.5912 265.261 86.3299C265.179 86.0184 265.366 85.7011 265.676 85.6196C267.221 85.2168 268.587 84.2806 269.523 82.9818C271.743 79.901 271.042 75.5873 267.961 73.3661C264.879 71.1449 260.565 71.8463 258.345 74.9281C256.357 77.6877 256.659 81.4306 259.062 83.8277C259.29 84.0546 259.29 84.423 259.064 84.6509C258.837 84.8789 258.469 84.8789 258.241 84.6529C255.43 81.8511 255.076 77.4755 257.401 74.2483C259.996 70.6468 265.04 69.8275 268.641 72.423C272.244 75.0195 273.062 80.0612 270.467 83.6626C269.372 85.1805 267.776 86.2758 265.97 86.7464C265.921 86.7592 265.872 86.7651 265.823 86.7651Z" fill="#1E1E1E"/>
<path d="M163.889 106.022C164.521 109.368 165.528 112.789 167.551 115.744C170.321 119.792 177.741 123.773 182.533 119.259C186.181 115.821 185.372 110.309 182.585 107.098C184.951 106.909 187.383 106.563 189.638 105.126C193.406 102.727 195.245 98.1325 194.284 93.7795C193.549 90.4492 190.988 88.1779 187.716 87.3546C178.078 84.931 168.762 92.4454 163.716 98.6198L163.623 98.7524C163.623 98.7524 163.566 98.7475 163.568 98.7524L163.476 98.6198C158.429 92.4454 149.113 84.932 139.476 87.3546C136.203 88.1779 133.642 90.4492 132.908 93.7795C131.948 98.1335 133.787 102.727 137.553 105.126C139.81 106.563 142.241 106.909 144.607 107.098C141.821 110.31 141.011 115.822 144.659 119.259C149.45 123.773 156.869 119.792 159.641 115.744C161.664 112.788 162.67 109.368 163.303 106.022C163.303 106.022 163.584 105.717 163.889 106.022Z" fill="#B7E1F5"/>
<path d="M177.445 121.842C177.115 121.842 176.78 121.823 176.44 121.787C172.39 121.35 168.743 118.519 167.069 116.074C165.499 113.779 164.382 111.026 163.595 107.489C162.808 111.026 161.691 113.778 160.12 116.074C158.446 118.519 154.799 121.35 150.75 121.787C148.243 122.06 146.006 121.329 144.259 119.683C140.662 116.293 141.05 111.102 143.495 107.581C141.501 107.37 139.308 106.937 137.239 105.617C133.284 103.098 131.314 98.2916 132.337 93.6546C133.084 90.2693 135.698 87.7042 139.332 86.7906C148.469 84.4928 157.786 90.9285 163.596 97.8544C169.434 90.9069 178.741 84.5006 187.856 86.7906C191.49 87.7042 194.105 90.2703 194.852 93.6536C195.874 98.2916 193.905 103.098 189.95 105.617C187.88 106.936 185.688 107.369 183.694 107.581C186.14 111.102 186.528 116.293 182.929 119.683C181.419 121.106 179.539 121.843 177.443 121.843L177.445 121.842ZM163.601 105.304C163.784 105.304 164.05 105.359 164.3 105.61C164.383 105.693 164.439 105.799 164.461 105.914C165.225 109.954 166.359 112.974 168.032 115.417C169.609 117.72 173.046 120.25 176.566 120.63C178.744 120.867 180.621 120.262 182.134 118.836C185.486 115.678 184.75 110.482 182.145 107.48C182.001 107.314 181.963 107.081 182.046 106.879C182.13 106.675 182.319 106.536 182.538 106.519C184.658 106.35 187.106 106.052 189.326 104.637C192.87 102.38 194.635 98.0676 193.717 93.9061C193.058 90.9186 190.819 88.7367 187.574 87.9213C178.791 85.708 169.723 92.1918 164.166 98.99L164.101 99.0873C163.986 99.2533 163.796 99.3496 163.592 99.3359C163.584 99.3359 163.576 99.3359 163.567 99.3359C163.377 99.3359 163.199 99.2425 163.091 99.0863L162.998 98.9537C157.467 92.1899 148.404 85.7119 139.617 87.9204C136.373 88.7358 134.135 90.9177 133.474 93.9061C132.557 98.0666 134.321 102.379 137.866 104.636C140.085 106.051 142.533 106.349 144.653 106.518C144.872 106.536 145.063 106.675 145.145 106.878C145.228 107.08 145.19 107.314 145.046 107.479C142.442 110.481 141.706 115.677 145.058 118.836C146.571 120.262 148.452 120.867 150.625 120.629C154.145 120.25 157.582 117.72 159.159 115.416C160.831 112.973 161.967 109.953 162.73 105.913C162.751 105.807 162.8 105.708 162.874 105.628C162.922 105.575 163.183 105.312 163.581 105.304H163.6H163.601Z" fill="#1E1E1E"/>
<path d="M172.235 97.631C172.95 97.4463 173.729 97.4424 174.528 97.6664C175.855 98.0387 177.001 98.8551 178.163 99.5575C179.001 100.064 179.821 100.605 180.598 101.201C180.806 101.361 182.66 102.763 182.546 102.997L179.76 108.725L177.817 109.697C177.07 109.772 176.592 109.896 175.949 109.429C174.325 108.249 172.375 107.641 170.817 106.347C169.426 105.192 168.591 103.623 168.798 101.783C169.028 99.7402 170.421 98.1006 172.235 97.6301V97.631Z" fill="white"/>
<path d="M176.968 110.353C176.539 110.353 176.101 110.261 175.607 109.901C174.903 109.391 174.14 108.995 173.331 108.574C172.353 108.066 171.342 107.542 170.444 106.796C168.795 105.427 168.004 103.624 168.219 101.719C168.472 99.4723 170.027 97.6028 172.089 97.0693C172.936 96.8512 173.811 96.863 174.684 97.1086C175.852 97.4348 176.862 98.0664 177.841 98.6775C178.048 98.8072 178.256 98.9369 178.465 99.0626C179.418 99.6393 180.231 100.188 180.952 100.743C183.071 102.362 183.315 102.75 183.068 103.255L183.051 103.247C182.872 103.661 182.274 104.888 180.283 108.983C180.227 109.098 180.135 109.191 180.02 109.249L178.077 110.221C178.014 110.252 177.946 110.272 177.875 110.279L177.634 110.305C177.41 110.33 177.191 110.355 176.969 110.355L176.968 110.353ZM172.381 98.1951C170.781 98.6097 169.574 100.077 169.375 101.849C169.158 103.773 170.241 105.114 171.188 105.9C171.99 106.566 172.901 107.04 173.867 107.541C174.679 107.962 175.517 108.397 176.291 108.96C176.677 109.24 176.936 109.212 177.503 109.147L177.65 109.131L179.322 108.295C179.721 107.474 181.389 104.045 181.882 103.031C181.695 102.84 181.26 102.443 180.277 101.692C179.555 101.137 178.777 100.612 177.862 100.058C177.648 99.9291 177.436 99.7974 177.224 99.6648C176.316 99.097 175.376 98.5115 174.371 98.2285C173.697 98.0409 173.027 98.0291 172.381 98.1961V98.1951ZM182.02 102.747L182.018 102.749C182.018 102.749 182.018 102.747 182.02 102.747Z" fill="#1E1E1E"/>
<path d="M180.991 103.003C183.894 102.042 187.082 103.212 188.445 105.888C189.958 108.857 188.653 112.554 185.528 114.145C182.404 115.738 178.646 114.622 177.133 111.653C176.47 110.351 176.348 108.91 176.684 107.568" fill="white"/>
<path d="M182.539 115.455C181.874 115.455 181.209 115.359 180.562 115.168C178.821 114.651 177.42 113.498 176.616 111.918C175.915 110.544 175.74 108.948 176.121 107.428C176.198 107.115 176.518 106.925 176.826 107.004C177.139 107.082 177.328 107.398 177.25 107.71C176.937 108.958 177.081 110.266 177.652 111.39C178.311 112.681 179.462 113.628 180.893 114.052C182.335 114.481 183.889 114.33 185.265 113.628C186.642 112.925 187.677 111.757 188.178 110.339C188.675 108.932 188.586 107.444 187.927 106.152C186.706 103.756 183.868 102.665 181.173 103.556C180.868 103.657 180.539 103.491 180.438 103.187C180.337 102.882 180.503 102.552 180.808 102.452C184.051 101.379 187.48 102.713 188.964 105.625C189.769 107.204 189.879 109.017 189.274 110.727C188.673 112.429 187.437 113.827 185.793 114.665C184.764 115.19 183.65 115.456 182.538 115.456L182.539 115.455Z" fill="#1E1E1E"/>
<path d="M152.659 116.536V123.739C149.625 125.098 150.096 127.938 150.096 127.938C150.102 128.096 150.113 128.253 150.133 128.41C150.536 131.684 153.596 132.862 156.515 133.01C159.038 133.137 161.714 132.16 162.196 129.396C162.51 127.6 162.195 125.733 162.195 123.924V116.629L152.659 116.537V116.536Z" fill="white"/>
<path d="M156.917 133.601C156.772 133.601 156.628 133.597 156.487 133.59C152.457 133.387 149.931 131.524 149.557 128.481C149.535 128.307 149.521 128.132 149.515 127.957C149.343 126.944 149.669 124.642 152.079 123.375V116.537C152.079 116.382 152.14 116.233 152.251 116.123C152.361 116.015 152.498 115.939 152.666 115.955L162.202 116.048C162.522 116.05 162.779 116.311 162.779 116.629V123.923C162.779 124.508 162.813 125.12 162.848 125.71C162.919 126.95 162.992 128.231 162.77 129.497C162.239 132.545 159.378 133.602 156.917 133.602V133.601ZM153.242 117.123V123.739C153.242 123.969 153.107 124.176 152.898 124.27C150.304 125.432 150.667 127.819 150.672 127.842C150.684 128.058 150.694 128.199 150.712 128.337C151.135 131.786 154.932 132.347 156.547 132.428C158.699 132.534 161.191 131.773 161.625 129.295C161.823 128.162 161.756 127.003 161.685 125.776C161.651 125.169 161.615 124.541 161.615 123.922V117.205L153.242 117.123Z" fill="#1E1E1E"/>
<path d="M174.244 116.536V123.739C177.278 125.098 176.807 127.937 176.807 127.937C176.801 128.096 176.789 128.253 176.77 128.41C176.367 131.683 173.307 132.862 170.388 133.01C167.865 133.137 165.189 132.16 164.707 129.396C164.392 127.599 164.708 125.733 164.708 123.923C164.708 122.421 164.708 120.92 164.708 119.418V116.629L174.244 116.537V116.536Z" fill="white"/>
<path d="M169.987 133.601C167.526 133.601 164.667 132.544 164.133 129.495C163.912 128.231 163.986 126.949 164.056 125.709C164.091 125.119 164.125 124.508 164.125 123.922V116.628C164.125 116.309 164.382 116.049 164.702 116.046L174.238 115.954H174.243C174.396 115.954 174.544 116.015 174.653 116.122C174.764 116.232 174.826 116.38 174.826 116.536V123.374C177.235 124.641 177.561 126.946 177.381 128.032C177.383 128.131 177.369 128.306 177.346 128.481C176.972 131.522 174.446 133.385 170.417 133.589C170.275 133.596 170.131 133.6 169.986 133.6L169.987 133.601ZM165.289 117.205V123.922C165.289 124.541 165.253 125.169 165.219 125.776C165.148 127.004 165.081 128.162 165.28 129.295C165.712 131.773 168.193 132.536 170.358 132.428C171.971 132.346 175.768 131.784 176.192 128.338C176.21 128.198 176.221 128.058 176.224 127.918C176.247 127.747 176.574 125.421 174.006 124.27C173.797 124.176 173.662 123.969 173.662 123.739V117.123L165.289 117.205Z" fill="#1E1E1E"/>
<path d="M177.929 108.999C174.827 110.573 171.348 111.383 167.922 111.865C166.691 112.038 165.441 112.193 164.198 112.232C161.628 112.309 159.065 111.944 156.551 111.445C153.73 110.885 150.775 110.057 148.242 108.583C148.233 108.683 148.22 108.783 148.211 108.885C149.854 111.161 153.967 114.829 163.418 114.829H163.522C173.059 114.829 177.158 111.094 178.77 108.824C178.763 108.736 178.749 108.649 178.74 108.561C178.473 108.715 178.202 108.861 177.928 109.001L177.929 108.999Z" fill="#F6CA6B"/>
<path d="M169.046 104.719C171.768 104.115 174.521 103.128 177.005 101.757C176.545 100.555 176.026 99.374 175.457 98.2217C174.979 97.2511 174.472 96.2893 173.904 95.3678H153.076C152.764 95.8757 152.473 96.3974 152.191 96.9229C151.327 98.5351 150.564 100.204 149.92 101.916C150.452 102.194 150.993 102.46 151.535 102.707C157.002 105.202 163.145 106.029 169.045 104.719H169.046Z" fill="#F6CA6B"/>
<path d="M148.242 108.582C150.775 110.057 153.73 110.884 156.55 111.444C159.065 111.944 161.627 112.308 164.197 112.231C165.441 112.193 166.691 112.038 167.922 111.864C171.348 111.382 174.827 110.571 177.928 108.998C178.202 108.858 178.474 108.712 178.741 108.558C178.614 107.334 178.367 106.12 178.052 104.947C177.761 103.866 177.405 102.803 177.005 101.756C174.521 103.127 171.769 104.114 169.046 104.718C163.146 106.028 157.003 105.201 151.536 102.706C150.993 102.459 150.454 102.194 149.921 101.915C149.855 102.091 149.784 102.265 149.72 102.442C149.009 104.419 148.45 106.484 148.242 108.581V108.582Z" fill="#4B4B4B"/>
<path d="M163.522 114.827H163.418C153.968 114.827 149.855 111.159 148.212 108.883C148.187 109.18 148.168 109.479 148.16 109.778C148.084 112.196 148.591 114.678 150.118 116.612C151.26 118.06 152.857 119.059 154.567 119.707C157.551 120.839 160.998 121.149 164.167 121.162C167.535 121.176 170.983 120.626 173.971 119.001C176.388 117.686 178.039 115.488 178.589 112.792C178.856 111.486 178.889 110.149 178.771 108.821C177.159 111.091 173.059 114.826 163.522 114.826V114.827Z" fill="#4B4B4B"/>
<path d="M164.282 121.745H164.166C160.177 121.73 156.97 121.24 154.361 120.252C152.361 119.495 150.781 118.391 149.662 116.974C148.209 115.133 147.488 112.639 147.579 109.761C147.651 107.489 148.172 105.031 149.173 102.247C149.842 100.386 150.686 98.5038 151.68 96.649C152.024 96.0075 152.303 95.5173 152.583 95.0634C152.751 94.7903 153.109 94.7048 153.384 94.8728C153.657 95.0418 153.742 95.4004 153.574 95.6735C153.307 96.1067 153.039 96.5763 152.707 97.1982C151.739 99.0028 150.919 100.833 150.27 102.64C149.31 105.307 148.811 107.649 148.744 109.796C148.687 111.61 148.959 114.203 150.577 116.252C151.563 117.501 152.975 118.481 154.775 119.164C157.252 120.102 160.325 120.566 164.172 120.581H164.284C167.978 120.581 171.145 119.878 173.695 118.491C175.972 117.252 177.509 115.187 178.02 112.677C178.459 110.531 178.286 108.053 177.492 105.099C176.918 102.964 176.083 100.799 174.939 98.4792C174.387 97.3583 173.9 96.4663 173.412 95.6735C173.244 95.4004 173.329 95.0418 173.603 94.8728C173.878 94.7048 174.235 94.7903 174.403 95.0634C174.912 95.8896 175.413 96.8111 175.983 97.9644C177.161 100.353 178.022 102.588 178.617 104.797C179.459 107.93 179.637 110.583 179.162 112.91C178.58 115.762 176.837 118.108 174.252 119.513C171.53 120.994 168.176 121.745 164.284 121.745H164.282Z" fill="#1E1E1E"/>
<path d="M173.167 98.1769C198.118 100.044 193.615 82.8033 193.615 82.8033C196.206 76.9502 196.783 69.5822 194.676 63.5041C192.051 55.9318 185.454 50.1572 178.08 47.3633C169.693 44.1862 159.797 44.2884 151.726 48.329C147.898 50.2446 144.472 53.0327 142.063 56.5929C138.458 61.9205 137.113 69.1883 138.104 75.511C138.104 75.511 129.302 91.0044 153.888 95.6443" fill="#F6CA6B"/>
<path d="M177.012 98.9549C175.843 98.9549 174.62 98.9067 173.341 98.8114C173.02 98.7869 172.779 98.5079 172.803 98.1876C172.828 97.8673 173.115 97.6404 173.427 97.6502C182.065 98.2966 188.031 96.7209 191.162 92.9661C194.707 88.7153 193.284 83.0606 193.27 83.0036C193.236 82.8759 193.247 82.7413 193.301 82.6205C195.924 76.6937 196.325 69.4622 194.343 63.7486C191.937 56.807 185.861 50.9047 178.091 47.9614C169.533 44.7195 159.855 45.0712 152.203 48.9045C148.264 50.8762 144.998 53.6662 142.761 56.973C139.373 61.9822 137.892 69.0712 138.895 75.4745C138.915 75.6042 138.89 75.7378 138.826 75.8518C138.797 75.9028 135.965 81.0202 138.294 86.0314C140.354 90.461 145.71 93.5212 154.213 95.1255C154.53 95.1854 154.737 95.4899 154.678 95.8053C154.617 96.1216 154.31 96.3299 153.998 96.27C145.096 94.5901 139.456 91.3069 137.234 86.5098C134.889 81.4475 137.187 76.4825 137.717 75.4608C136.73 68.8276 138.287 61.5127 141.8 56.3207C144.149 52.8489 147.566 49.9233 151.684 47.8622C159.621 43.8874 169.647 43.518 178.504 46.8729C186.594 49.937 192.927 56.1036 195.445 63.3664C197.498 69.2903 197.112 76.7605 194.445 82.9113C194.691 84.0361 195.629 89.4256 192.056 93.7108C189.151 97.1954 184.099 98.9529 177.013 98.9529L177.012 98.9549Z" fill="#1E1E1E"/>
<path d="M154.5 47.7894C154.258 47.7894 154.032 47.6372 153.949 47.3945L151.648 40.6052C151.543 40.3006 151.707 39.9705 152.011 39.8674C152.314 39.7632 152.646 39.9263 152.749 40.2309L155.051 47.0202C155.155 47.3248 154.991 47.6549 154.687 47.758C154.625 47.7796 154.562 47.7894 154.499 47.7894H154.5Z" fill="#1E1E1E"/>
<path d="M151.18 40.7937C153.093 40.7937 154.644 39.2429 154.644 37.3298C154.644 35.4167 153.093 33.8658 151.18 33.8658C149.267 33.8658 147.716 35.4167 147.716 37.3298C147.716 39.2429 149.267 40.7937 151.18 40.7937Z" fill="#F6CA6B"/>
<path d="M151.182 41.3753C151.007 41.3753 150.831 41.3636 150.653 41.341C149.581 41.2005 148.629 40.6503 147.971 39.7937C147.313 38.937 147.028 37.875 147.169 36.8033C147.31 35.7315 147.86 34.7795 148.717 34.1213C149.573 33.4631 150.639 33.1743 151.707 33.3197C152.779 33.4601 153.731 34.0093 154.389 34.866C155.047 35.7226 155.332 36.7856 155.191 37.8564C154.923 39.89 153.181 41.3744 151.182 41.3744V41.3753ZM151.177 34.4484C149.754 34.4484 148.513 35.5065 148.323 36.9545C148.222 37.7179 148.426 38.4743 148.894 39.0844C149.363 39.6954 150.042 40.0864 150.805 40.1866C152.383 40.3959 153.831 39.2799 154.038 37.7051C154.138 36.9418 153.935 36.1853 153.466 35.5752C152.998 34.9642 152.319 34.5732 151.556 34.473C151.429 34.4563 151.302 34.4484 151.178 34.4484H151.177Z" fill="#1E1E1E"/>
<path d="M185.611 51.8762C185.5 51.8762 185.388 51.8448 185.288 51.778C185.021 51.6002 184.949 51.2386 185.127 50.9714L189.105 45.0063C189.283 44.7391 189.643 44.6674 189.912 44.8452C190.179 45.023 190.252 45.3845 190.073 45.6517L186.095 51.6169C185.983 51.7849 185.798 51.8762 185.61 51.8762H185.611Z" fill="#1E1E1E"/>
<path d="M191.372 46.073C193.285 46.073 194.836 44.5222 194.836 42.6091C194.836 40.696 193.285 39.1451 191.372 39.1451C189.459 39.1451 187.908 40.696 187.908 42.6091C187.908 44.5222 189.459 46.073 191.372 46.073Z" fill="#F6CA6B"/>
<path d="M191.374 46.6548C191.199 46.6548 191.022 46.643 190.844 46.6204C189.772 46.4799 188.82 45.9297 188.162 45.0731C187.504 44.2164 187.219 43.1545 187.361 42.0827C187.501 41.0109 188.051 40.0589 188.908 39.4007C189.765 38.7425 190.831 38.4537 191.898 38.5991C192.97 38.7396 193.922 39.2887 194.58 40.1454C195.239 41.002 195.523 42.065 195.382 43.1358C195.115 45.1694 193.372 46.6538 191.374 46.6538V46.6548ZM191.365 39.7269C190.734 39.7269 190.125 39.9332 189.617 40.3232C189.006 40.7918 188.615 41.4706 188.515 42.234C188.415 42.9973 188.618 43.7537 189.087 44.3638C189.555 44.9749 190.234 45.3658 190.997 45.4661C192.577 45.6743 194.022 44.5593 194.231 42.9845C194.331 42.2212 194.127 41.4647 193.659 40.8547C193.19 40.2436 192.511 39.8526 191.748 39.7524C191.62 39.7357 191.494 39.7279 191.366 39.7279L191.365 39.7269Z" fill="#1E1E1E"/>
<path d="M167.672 52.8766C162.906 52.5897 158.14 53.5741 154.597 55.9908C151.846 57.8681 149.788 60.6336 148.49 63.6781C147.271 66.5359 146.764 69.9723 146.95 73.8223C146.957 73.9687 145.994 74.7556 145.879 74.8912C145.102 75.8107 144.489 76.8756 144.119 78.0221C143.015 81.4556 144.271 85.1121 146.933 87.4443C148.536 88.8491 150.371 89.971 152.311 90.8483C154.271 91.7354 156.336 92.3779 158.434 92.8455C162.67 93.7876 167.241 94.4036 171.584 94.4056C173.703 94.4065 175.829 94.216 177.898 93.7503C179.507 93.3878 181.081 92.8553 182.562 92.1244C185.736 90.5585 187.893 87.3509 187.712 83.7485C187.653 82.545 187.334 81.3573 186.821 80.2688C186.746 80.1077 186.018 79.0998 186.063 78.9603C187.237 75.29 187.634 71.8388 187.195 68.763C186.727 65.4857 185.453 62.283 183.281 59.7593C179.737 55.644 173.705 53.241 167.672 52.8766Z" fill="white"/>
<path d="M171.598 94.9879H171.586C167.518 94.986 162.926 94.4417 158.309 93.4141C156.035 92.9082 153.937 92.2235 152.072 91.3796C149.973 90.4286 148.114 89.2527 146.552 87.8822C143.608 85.3025 142.436 81.3621 143.568 77.8441C143.947 76.6642 144.593 75.5128 145.436 74.5147C145.481 74.4636 145.624 74.3291 145.805 74.1679C145.949 74.0392 146.219 73.7986 146.362 73.6522C146.196 69.753 146.732 66.3205 147.957 63.449C149.387 60.097 151.569 57.3522 154.271 55.5092C157.765 53.123 162.542 51.9853 167.708 52.2928C174.259 52.6887 180.246 55.3363 183.723 59.3769C185.857 61.8545 187.258 65.0709 187.773 68.6773C188.215 71.767 187.847 75.2211 186.678 78.9463C186.779 79.1251 186.978 79.4277 187.084 79.5898C187.217 79.7902 187.321 79.9572 187.35 80.0181C187.906 81.2 188.234 82.479 188.296 83.7169C188.481 87.4077 186.333 90.912 182.822 92.6439C181.36 93.365 179.748 93.9279 178.028 94.315C176.056 94.76 173.893 94.986 171.599 94.986L171.598 94.9879ZM166.043 53.4088C161.753 53.4088 157.851 54.4767 154.926 56.472C152.409 58.1902 150.369 60.7611 149.026 63.9068C147.851 66.6644 147.348 69.9908 147.533 73.7946C147.549 74.1552 147.317 74.3801 146.579 75.0383C146.46 75.1444 146.359 75.2319 146.317 75.2771C145.579 76.1504 145.009 77.1643 144.675 78.2007C143.686 81.2776 144.723 84.7337 147.318 87.0069C148.794 88.3017 150.556 89.4158 152.552 90.3196C154.343 91.131 156.365 91.7902 158.561 92.2785C163.097 93.2884 167.601 93.8228 171.586 93.8248H171.598C173.806 93.8248 175.883 93.6087 177.771 93.1833C179.4 92.8159 180.925 92.2844 182.305 91.6036C185.398 90.0779 187.294 87.0059 187.132 83.7788C187.077 82.6912 186.788 81.5634 186.295 80.5182C186.273 80.4769 186.198 80.3669 186.111 80.2333C185.566 79.4061 185.399 79.1281 185.509 78.7833C186.67 75.1553 187.043 71.8112 186.619 68.8463C186.135 65.459 184.829 62.4489 182.84 60.1393C179.563 56.3335 173.879 53.8352 167.638 53.458C167.101 53.4255 166.569 53.4098 166.043 53.4098V53.4088Z" fill="#1E1E1E"/>
<path d="M156.326 81.3653C156.699 78.5228 154.781 75.927 152.043 75.5674C149.304 75.2078 146.781 77.2206 146.408 80.0631C146.035 82.9056 147.953 85.5015 150.691 85.861C153.43 86.2206 155.953 84.2078 156.326 81.3653Z" fill="#F6CED2"/>
<path d="M184.972 85.1286C185.346 82.2861 183.428 79.6903 180.689 79.3307C177.951 78.9711 175.428 80.9839 175.055 83.8264C174.681 86.669 176.599 89.2648 179.338 89.6243C182.076 89.9839 184.599 87.9711 184.972 85.1286Z" fill="#F6CED2"/>
<path d="M173.628 53.8577C173.023 51.438 170.57 50.3318 168.307 50.1874C166.659 50.0823 164.919 50.3888 163.488 51.2632C162.135 52.0903 161.124 53.6317 160.707 55.1554C160.098 57.3776 160.656 60.0055 162.234 61.6776C163.473 62.991 165.25 63.7956 166.95 64.2426C168.689 64.6994 171.369 64.9254 172.706 63.3978C173.009 63.0529 173.22 62.6148 173.242 62.154C173.297 61.0479 172.347 60.703 171.493 60.3877C170.805 60.1332 170.051 59.8896 169.59 59.2717C168.791 58.2038 169.333 56.7007 170.067 55.736C170.513 55.1495 171.11 54.6819 171.778 54.3891C172.228 54.1917 173.141 53.6278 173.626 53.8577H173.628Z" fill="#4FB35B"/>
<path d="M169.453 65.1594C168.315 65.1594 167.289 64.9324 166.804 64.8057C165.337 64.4196 163.28 63.6337 161.812 62.0766C160.143 60.3073 159.474 57.4642 160.146 55.0013C160.629 53.2399 161.794 51.617 163.185 50.7662C164.608 49.8968 166.445 49.4822 168.345 49.607C170.712 49.7573 173.492 50.9155 174.194 53.7154C174.249 53.9335 174.172 54.1643 173.999 54.3068C173.827 54.4473 173.591 54.4777 173.388 54.3873C173.203 54.3422 172.573 54.6506 172.339 54.7666C172.217 54.8275 172.107 54.8815 172.015 54.9218C171.431 55.1782 170.919 55.581 170.533 56.0879C170.048 56.7264 169.401 58.0429 170.058 58.9231C170.385 59.3612 170.955 59.5695 171.557 59.7896L171.698 59.8416C172.584 60.1688 173.902 60.656 173.825 62.1827C173.797 62.7446 173.556 63.3124 173.145 63.781C172.198 64.8627 170.752 65.1594 169.452 65.1594H169.453ZM167.691 50.7495C166.237 50.7495 164.87 51.1012 163.792 51.7584C162.644 52.4618 161.676 53.8215 161.269 55.3088C160.698 57.3945 161.257 59.7925 162.658 61.2779C163.939 62.6346 165.78 63.3321 167.1 63.6789C168.904 64.1534 171.208 64.2271 172.27 63.0138C172.509 62.7417 172.648 62.4253 172.663 62.1247C172.694 61.5156 172.274 61.2956 171.309 60.939L171.156 60.883C170.456 60.6256 169.661 60.3348 169.127 59.6196C168.125 58.2776 168.759 56.4985 169.608 55.3825C170.113 54.7184 170.783 54.1909 171.547 53.8559C171.625 53.8215 171.719 53.7743 171.822 53.7232C172.116 53.5778 172.463 53.4059 172.817 53.3047C172.006 51.6101 170.009 50.8772 168.272 50.7672C168.078 50.7554 167.884 50.7485 167.692 50.7485L167.691 50.7495Z" fill="#1E1E1E"/>
<path d="M176.701 77.4681C176.931 75.7133 175.963 74.1392 174.539 73.9522C173.114 73.7651 171.773 75.036 171.542 76.7908C171.312 78.5456 172.28 80.1198 173.704 80.3068C175.129 80.4938 176.47 79.2229 176.701 77.4681Z" fill="#1E1E1E"/>
<path d="M174.807 77.0402C175.291 77.0402 175.684 76.6474 175.684 76.1629C175.684 75.6784 175.291 75.2856 174.807 75.2856C174.322 75.2856 173.93 75.6784 173.93 76.1629C173.93 76.6474 174.322 77.0402 174.807 77.0402Z" fill="white"/>
<path d="M161.535 75.4757C161.765 73.7209 160.797 72.1468 159.373 71.9597C157.948 71.7727 156.607 73.0436 156.376 74.7984C156.146 76.5532 157.114 78.1273 158.538 78.3144C159.963 78.5014 161.304 77.2305 161.535 75.4757Z" fill="#1E1E1E"/>
<path d="M159.639 75.0483C160.124 75.0483 160.516 74.6555 160.516 74.171C160.516 73.6865 160.124 73.2937 159.639 73.2937C159.154 73.2937 158.762 73.6865 158.762 74.171C158.762 74.6555 159.154 75.0483 159.639 75.0483Z" fill="white"/>
<path d="M168.195 80.9856C168.755 83.5074 168.884 86.8112 166.429 88.4165C165.875 88.778 165.205 88.9813 164.55 88.9047C162.471 88.6611 161.662 86.3662 161.904 84.5625C162.101 83.086 162.559 81.6575 163.368 80.3991L165.552 79.9393L168.195 80.9856Z" fill="#FFE6EA"/>
<path d="M168.727 81.5299C167.947 81.5299 167.011 81.2656 165.971 80.5101C165.963 80.5101 165.834 80.4581 165.739 80.4915C162.984 81.5515 161.419 80.2184 160.979 79.3627C160.831 79.0758 160.944 78.7261 161.23 78.5787C161.517 78.4314 161.867 78.5444 162.014 78.8302C162.096 78.9815 162.921 80.3284 165.344 79.3951C166.005 79.1741 166.564 79.5071 166.625 79.5464C168.76 81.0966 169.9 80.0062 170.023 79.8765C170.242 79.6466 170.609 79.6319 170.843 79.848C171.077 80.0651 171.096 80.4266 170.881 80.6624C170.515 81.0681 169.756 81.5289 168.726 81.5289L168.727 81.5299Z" fill="#1E1E1E"/>
<path d="M164.829 89.5029C164.713 89.5029 164.598 89.4961 164.483 89.4833C163.581 89.3772 162.802 88.9351 162.235 88.2032C161.496 87.2523 161.148 85.8278 161.328 84.4848C161.551 82.8187 162.073 81.3382 162.88 80.0837C163.054 79.8126 163.415 79.734 163.684 79.9088C163.954 80.0827 164.032 80.4433 163.859 80.7124C163.144 81.8225 162.682 83.1429 162.481 84.6391C162.344 85.6677 162.607 86.7856 163.153 87.488C163.531 87.9743 164.024 88.2563 164.618 88.326C165.103 88.384 165.633 88.2415 166.111 87.9291C168.299 86.4978 168.143 83.4317 167.627 81.1113C167.557 80.7979 167.755 80.4865 168.069 80.4167C168.383 80.348 168.694 80.5444 168.764 80.8588C169.617 84.701 168.921 87.4821 166.748 88.9037C166.15 89.2957 165.479 89.502 164.828 89.502L164.829 89.5029Z" fill="#1E1E1E"/>
<path d="M137.313 86.7256C138.802 89.8251 140.506 92.8902 142.84 95.4395C144.906 97.6951 148.624 100.894 151.952 99.7365C153.586 99.1687 154.544 97.6803 154.193 95.9552C153.667 93.3647 151.295 91.4568 149.939 89.3024C148.704 87.3396 147.929 84.9995 147.244 82.799" fill="white"/>
<path d="M150.474 100.565C147.277 100.565 144.142 97.7236 142.412 95.8335C139.856 93.0425 138.065 89.6345 136.79 86.9771C136.651 86.6873 136.772 86.3396 137.063 86.201C137.356 86.0606 137.701 86.1843 137.839 86.4742C139.08 89.0588 140.819 92.3695 143.271 95.0466C144.753 96.6646 148.547 100.307 151.763 99.1874C153.18 98.6952 153.909 97.4721 153.625 96.0712C153.304 94.4935 152.181 93.123 151.095 91.7978C150.52 91.0954 149.924 90.3684 149.449 89.6129C148.189 87.6088 147.396 85.2334 146.691 82.9729C146.596 82.6664 146.766 82.3402 147.074 82.2449C147.383 82.1477 147.708 82.3215 147.802 82.6281C148.484 84.8149 149.248 87.1088 150.435 88.994C150.871 89.6886 151.417 90.3546 151.996 91.061C153.172 92.4953 154.388 93.9797 154.766 95.8404C155.168 97.816 154.115 99.6029 152.145 100.287C151.592 100.479 151.033 100.566 150.476 100.566L150.474 100.565Z" fill="#1E1E1E"/>
<path d="M139.118 87.4232C135.421 86.8279 132.597 83.6233 132.597 79.7585C132.597 75.4704 136.072 71.9946 140.361 71.9946C144.649 71.9946 148.124 75.4704 148.124 79.7585C148.124 81.6379 147.456 83.362 146.344 84.7049" fill="white"/>
<path d="M139.118 88.0047C139.087 88.0047 139.056 88.0028 139.025 87.9969C134.963 87.3436 132.015 83.8786 132.015 79.7575C132.015 75.1559 135.759 71.411 140.361 71.411C144.964 71.411 148.708 75.1549 148.708 79.7575C148.708 81.6958 148.028 83.5849 146.794 85.0752C146.588 85.3218 146.221 85.3552 145.974 85.1528C145.727 84.9475 145.692 84.5811 145.896 84.3325C146.958 83.0505 147.542 81.4256 147.542 79.7575C147.542 75.7974 144.32 72.5752 140.359 72.5752C136.398 72.5752 133.177 75.7974 133.177 79.7575C133.177 83.3039 135.713 86.2855 139.209 86.8475C139.526 86.8985 139.742 87.1972 139.691 87.5145C139.646 87.8004 139.397 88.0037 139.117 88.0037L139.118 88.0047Z" fill="#1E1E1E"/>
<path d="M125.874 81.8195C125.584 81.8195 125.334 81.6034 125.297 81.3096C123.257 64.8643 129.043 58.5867 129.29 58.3284C129.512 58.0946 129.88 58.0877 130.113 58.3087C130.345 58.5307 130.354 58.8972 130.134 59.13C130.078 59.1909 124.488 65.3319 126.453 81.1662C126.492 81.4855 126.265 81.7763 125.948 81.8156C125.923 81.8185 125.9 81.8205 125.875 81.8205L125.874 81.8195Z" fill="#1E1E1E"/>
<path d="M122.565 85.7894C122.35 85.7894 122.143 85.6695 122.041 85.4632C118.799 78.8477 120.373 69.3892 120.441 68.9894C120.495 68.673 120.798 68.4638 121.113 68.5139C121.429 68.5689 121.642 68.8695 121.588 69.1858C121.573 69.2801 120.012 78.6758 123.088 84.9504C123.228 85.2392 123.109 85.588 122.82 85.7294C122.738 85.7697 122.65 85.7884 122.565 85.7884V85.7894Z" fill="#1E1E1E"/>
<path d="M292.073 88.3622C291.92 88.3622 291.768 88.3022 291.653 88.1843C291.43 87.9545 291.437 87.5861 291.667 87.3631C291.711 87.3198 296.07 82.903 294.482 71.9423C294.435 71.624 294.655 71.3293 294.974 71.2831C295.29 71.2419 295.588 71.457 295.633 71.7753C297.315 83.3804 292.675 88.0075 292.477 88.1991C292.364 88.3081 292.218 88.3622 292.073 88.3622Z" fill="#1E1E1E"/>
<path d="M289.681 84.406C289.589 84.406 289.494 84.3844 289.407 84.3373C289.124 84.186 289.017 83.8333 289.168 83.5504C289.203 83.4846 292.64 76.8789 290.005 68.1267C289.912 67.8192 290.087 67.495 290.394 67.4027C290.699 67.3054 291.026 67.4842 291.118 67.7917C293.899 77.0243 290.345 83.8146 290.193 84.0995C290.088 84.295 289.887 84.406 289.68 84.406H289.681Z" fill="#1E1E1E"/>
<g clip-path="url(#clip1_7737_14744)">
<path d="M295.41 15.81C297.53 14.67 298.41 12.06 297.35 9.86003C296.29 7.67003 293.71 6.72003 291.49 7.67003C291.56 5.26003 289.74 3.20003 287.31 3.01003C284.88 2.83003 282.77 4.60003 282.48 6.99003C280.43 5.73003 277.73 6.27003 276.36 8.28003C274.99 10.29 275.46 13 277.39 14.45C275.27 15.59 274.39 18.2 275.45 20.4C276.51 22.59 279.09 23.54 281.31 22.59C281.24 25 283.06 27.06 285.49 27.25C287.92 27.44 290.03 25.66 290.32 23.27C292.37 24.53 295.07 23.99 296.44 21.98C297.81 19.97 297.34 17.26 295.41 15.81Z" fill="#FEDD64"/>
<path d="M286.4 19.67C288.908 19.67 290.94 17.6373 290.94 15.13C290.94 12.6226 288.908 10.59 286.4 10.59C283.893 10.59 281.86 12.6226 281.86 15.13C281.86 17.6373 283.893 19.67 286.4 19.67Z" fill="white"/>
</g>
<g clip-path="url(#clip2_7737_14744)">
<path d="M136.008 28.5605C137.775 27.6207 138.508 25.469 137.625 23.6553C136.742 21.8499 134.592 21.0667 132.742 21.8499C132.8 19.8631 131.283 18.1648 129.258 18.0082C127.233 17.8598 125.475 19.319 125.233 21.2893C123.525 20.2506 121.275 20.6957 120.133 22.3528C118.992 24.0098 119.383 26.244 120.992 27.4393C119.225 28.3792 118.492 30.5309 119.375 32.3445C120.258 34.15 122.408 34.9332 124.258 34.15C124.2 36.1368 125.717 37.8351 127.742 37.9917C129.767 38.1483 131.525 36.6809 131.767 34.7106C133.475 35.7493 135.725 35.3041 136.867 33.6471C138.008 31.99 137.617 29.7559 136.008 28.5605Z" fill="#FEDD64"/>
<path d="M128.5 31.7428C130.59 31.7428 132.283 30.0671 132.283 28C132.283 25.9329 130.59 24.2572 128.5 24.2572C126.411 24.2572 124.717 25.9329 124.717 28C124.717 30.0671 126.411 31.7428 128.5 31.7428Z" fill="white"/>
</g>
<g clip-path="url(#clip3_7737_14744)">
<path d="M308.532 40.9201C309.834 40.2152 310.374 38.6015 309.724 37.2412C309.073 35.8871 307.488 35.2997 306.125 35.8871C306.168 34.397 305.051 33.1233 303.559 33.0058C302.067 32.8945 300.771 33.9889 300.593 35.4667C299.334 34.6876 297.676 35.0215 296.835 36.2643C295.994 37.5071 296.282 39.1827 297.467 40.0792C296.166 40.7841 295.625 42.3978 296.276 43.7581C296.927 45.1122 298.511 45.6996 299.874 45.1122C299.831 46.6023 300.949 47.876 302.441 47.9935C303.933 48.1109 305.229 47.0104 305.407 45.5326C306.666 46.3117 308.324 45.9778 309.165 44.735C310.006 43.4922 309.717 41.8166 308.532 40.9201Z" fill="#FEDD64"/>
<path d="M303 43.3071C304.539 43.3071 305.787 42.0503 305.787 40.5C305.787 38.9496 304.539 37.6929 303 37.6929C301.46 37.6929 300.212 38.9496 300.212 40.5C300.212 42.0503 301.46 43.3071 303 43.3071Z" fill="white"/>
</g>
</g>
<defs>
<clipPath id="clip0_7737_14744">
<rect width="316" height="142" fill="white"/>
</clipPath>
<clipPath id="clip1_7737_14744">
<rect width="22.8" height="24.26" fill="white" transform="translate(275 3)"/>
</clipPath>
<clipPath id="clip2_7737_14744">
<rect width="19" height="20" fill="white" transform="translate(119 18)"/>
</clipPath>
<clipPath id="clip3_7737_14744">
<rect width="14" height="15" fill="white" transform="translate(296 33)"/>
</clipPath>
</defs>
</svg>
