<svg width="90" height="186" viewBox="0 0 90 186" fill="none" xmlns="http://www.w3.org/2000/svg">
<g clip-path="url(#clip0_7752_14909)">
<path d="M62.0369 20.9467C61.319 19.5243 60.3544 18.2028 59.1206 16.9932C57.9204 15.8621 56.552 14.8765 55.0154 14.0478C53.4787 13.219 51.8748 12.5918 50.2708 12.2111C48.5098 11.8639 46.8722 11.7743 45.3805 11.9423C44.1018 12.0879 42.7222 12.4687 41.2304 13.0734C40.0751 13.5438 38.9647 14.2046 37.8767 15.0333L36.3961 16.2989C34.1304 18.4044 32.8068 21.0363 32.3918 24.1833L31.001 36.2564L33.8387 36.9395C36.183 37.6787 38.5384 38.7203 40.9051 40.053C43.3391 41.3073 45.5038 42.7073 47.4106 44.264C48.3416 45.048 49.0482 45.7199 49.5081 46.2463L58.8963 38.4963C61.2966 36.4244 62.7772 33.8709 63.3268 30.8358C63.4389 30.1415 63.5062 29.4919 63.5399 28.8759C63.652 27.5096 63.5847 26.2216 63.3492 25.0009C63.1024 23.4666 62.6762 22.1114 62.0481 20.9243L62.0369 20.9467Z" fill="#EE9CA5"/>
<path d="M40.9046 40.0642C43.3386 41.3185 45.5034 42.7184 47.4102 44.2752C48.3411 45.0591 49.0478 45.7311 49.5076 46.2575L58.8958 38.5074C61.2961 36.4355 62.7767 33.882 63.3263 30.847C63.4385 30.1526 63.5057 29.503 63.5394 28.8871C63.6516 27.5207 63.5843 26.2328 63.3487 25.0121C63.102 23.4777 62.6757 22.1226 62.0476 20.9354C61.3298 19.5131 60.3651 18.1916 59.1313 16.982C57.9312 15.8509 56.5628 14.8653 55.0261 14.0366C53.467 13.1966 51.8855 12.5806 50.2816 12.1998C48.5206 11.8527 46.883 11.7631 45.3912 11.931C44.1125 12.0766 42.7329 12.4574 41.2411 13.0622C40.0858 13.5326 38.9754 14.1933 37.8874 15.0221L36.4068 16.2876C34.1411 18.3932 32.8176 21.025 32.4026 24.1721L31.0117 36.2451L33.8495 36.9283C36.1937 37.6675 38.5492 38.709 40.9158 40.0418L40.9046 40.0642ZM40.9046 40.0642L45.6267 31.351" stroke="#B34E58" stroke-width="1.38" stroke-linecap="round" stroke-linejoin="round"/>
<path d="M16.9916 8.79523C15.2306 8.81763 13.5706 9.08641 12.0115 9.60159C10.3178 10.1056 8.78114 10.7887 7.40152 11.6399C5.92095 12.5471 4.67592 13.6334 3.67766 14.8989C2.84764 15.9517 2.14101 17.1948 1.56897 18.6284C1.10909 19.8043 0.80625 21.0587 0.626787 22.3802C0.525839 22.8954 0.469757 23.5562 0.447324 24.3513C0.312727 27.4424 1.24369 30.2423 3.229 32.7397L10.7665 42.2369C11.3273 41.8337 12.1573 41.3298 13.2565 40.7474C15.4325 39.6274 17.844 38.7091 20.4911 37.9811C23.0933 37.1523 25.617 36.6036 28.0622 36.346L30.956 36.234L32.0665 24.1609C32.3244 20.9691 31.5729 18.1244 29.8008 15.6269L28.5669 14.0814C27.6921 13.0622 26.7274 12.1775 25.6731 11.4271C24.4729 10.5983 23.2167 9.95997 21.8819 9.53439C20.3229 8.99682 18.6965 8.75043 17.014 8.78403L16.9916 8.79523Z" fill="#EE9CA5"/>
<path d="M20.4687 37.9699C23.0709 37.1411 25.5946 36.5923 28.0398 36.3347L30.9336 36.2228L32.044 24.1497C32.3132 20.9578 31.5505 18.1132 29.7783 15.6157L28.5445 14.0702C27.6696 13.051 26.705 12.1662 25.6507 11.4159C24.4505 10.5871 23.1943 9.94874 21.8595 9.52316C20.3004 8.98559 18.674 8.7392 16.9916 8.7728C15.2306 8.7952 13.5706 9.06398 12.0115 9.57916C10.3178 10.0831 8.78114 10.7663 7.40152 11.6175C5.92095 12.5246 4.67592 13.611 3.67766 14.8765C2.84764 15.9293 2.14101 17.1724 1.56897 18.6059C1.10909 19.7819 0.80625 21.0362 0.626787 22.3578C0.525839 22.873 0.469757 23.5337 0.447324 24.3289C0.312727 27.4199 1.24369 30.2198 3.229 32.7173L10.7665 42.2145C11.3273 41.8113 12.1573 41.3073 13.2565 40.7249C15.4325 39.605 17.844 38.6866 20.4911 37.9587L20.4687 37.9699ZM20.4687 37.9699L17.6197 28.4167" stroke="#B34E58" stroke-width="1.38" stroke-linecap="round" stroke-linejoin="round"/>
<path d="M76.9541 39.3026C75.8324 38.4067 74.5986 37.6899 73.2414 37.1411C72.0749 36.6931 70.8299 36.3796 69.4839 36.2004L67.4874 35.9988C64.4365 35.8868 61.6436 36.8163 59.1199 38.7875L49.5859 46.3023L51.0777 48.7886C52.233 50.9949 53.164 53.414 53.8706 56.0235C54.7006 58.6217 55.2502 61.1416 55.5082 63.5831C55.6316 64.8263 55.654 65.7894 55.598 66.4614L67.7117 67.5813C70.886 67.8389 73.7237 67.0774 76.2362 65.3078L77.8177 64.0871C78.8272 63.2135 79.7021 62.2616 80.4536 61.2536C81.2836 60.0553 81.9229 58.7785 82.3828 57.4234C82.8876 55.9339 83.1343 54.3099 83.1343 52.5628C83.1007 50.9389 82.8315 49.2814 82.3267 47.5902C81.822 45.8991 81.1378 44.3648 80.2853 42.9873C79.3319 41.5201 78.2327 40.2994 76.9989 39.325L76.9541 39.3026Z" fill="#EE9CA5"/>
<path d="M53.8482 56.0123C54.6782 58.6106 55.2278 61.1305 55.4858 63.572C55.6092 64.8151 55.6316 65.7783 55.5755 66.4502L67.6893 67.5702C70.8636 67.8278 73.7013 67.0662 76.2138 65.2967L77.7953 64.0759C78.8048 63.2024 79.6797 62.2504 80.4312 61.2425C81.2612 60.0441 81.9005 58.7674 82.3604 57.4122C82.8652 55.9227 83.1119 54.2988 83.1119 52.5517C83.0783 50.9277 82.8091 49.2702 82.3043 47.5791C81.7996 45.888 81.1154 44.3536 80.2629 42.9761C79.3095 41.509 78.2103 40.2882 76.9765 39.3139C75.8549 38.4179 74.6211 37.7011 73.2639 37.1524C72.0974 36.7044 70.8523 36.3908 69.5064 36.2116L67.5098 36.01C64.459 35.898 61.6661 36.8276 59.1424 38.7987L49.6084 46.3135L51.1002 48.7998C52.2555 51.0061 53.1864 53.4252 53.8931 56.0347L53.8482 56.0123ZM53.8482 56.0123L63.3822 53.1564" stroke="#B34E58" stroke-width="1.38" stroke-linecap="round" stroke-linejoin="round"/>
<path d="M76.808 73.4499C76.4603 72.9348 76.0341 72.4196 75.5406 71.9156C73.4095 69.6533 70.7848 68.343 67.6442 67.9846L55.5417 66.5623L54.8799 69.3733C54.1733 71.7364 53.1414 74.0883 51.7842 76.4402C50.5504 78.8817 49.1259 81.032 47.5444 82.9135C46.748 83.8655 46.075 84.571 45.5254 85.0526L53.332 94.393C55.4071 96.7897 57.9532 98.2568 60.9816 98.7944L62.9445 99.0632C64.3129 99.1528 65.614 99.0968 66.8254 98.8728C68.3284 98.6152 69.6968 98.156 70.9194 97.5176C72.299 96.8457 73.6226 95.8825 74.8676 94.6282C76.0117 93.4634 77.0099 92.0859 77.8624 90.518C78.6924 88.9836 79.2869 87.4157 79.6458 85.8142C80.0384 84.1119 80.1393 82.4767 79.9374 80.8864C79.7804 79.4865 79.4103 78.1089 78.8158 76.7762C78.3335 75.645 77.6717 74.5363 76.8305 73.4499H76.808Z" fill="#EE9CA5"/>
<path d="M51.7617 76.4177C50.5279 78.8592 49.1034 81.0095 47.5219 82.8911C46.7255 83.843 46.0525 84.5486 45.5029 85.0302L53.3096 94.3705C55.3846 96.7672 57.9307 98.2344 60.9592 98.7719L62.9221 99.0407C64.2905 99.1303 65.5916 99.0743 66.8029 98.8503C68.306 98.5927 69.6744 98.1336 70.897 97.4952C72.2766 96.8232 73.6001 95.8601 74.8451 94.6057C75.9892 93.441 76.9875 92.0634 77.8399 90.4955C78.6699 88.9612 79.2644 87.3932 79.6233 85.7917C80.0159 84.0894 80.1169 82.4543 79.915 80.8639C79.7579 79.464 79.3878 78.0865 78.7933 76.7537C78.311 75.6226 77.6492 74.5138 76.808 73.4275C76.4603 72.9123 76.0341 72.3971 75.5406 71.8932C73.4094 69.6309 70.7848 68.3205 67.6442 67.9621L55.5416 66.5398L54.8799 69.3509C54.1732 71.714 53.1413 74.0659 51.7841 76.4177H51.7617ZM51.7617 76.4177L60.4881 81.1327" stroke="#B34E58" stroke-width="1.38" stroke-linecap="round" stroke-linejoin="round"/>
<path d="M45.4926 85.075L43.0137 86.5981C40.8041 87.7404 38.3926 88.6588 35.7791 89.3644C33.2106 90.2043 30.6756 90.7531 28.1856 90.9883C26.9518 91.1115 25.9984 91.1451 25.303 91.0779L24.2038 103.185C23.9121 106.343 24.6636 109.176 26.447 111.707C26.9181 112.368 27.3444 112.894 27.7033 113.275C28.6006 114.283 29.5428 115.168 30.541 115.907C31.7861 116.803 33.0535 117.464 34.3546 117.878C35.8913 118.382 37.5289 118.617 39.2562 118.573C40.8826 118.539 42.5426 118.27 44.2363 117.766C45.8403 117.329 47.3769 116.646 48.8463 115.728C50.2595 114.81 51.4709 113.723 52.4916 112.491C53.3889 111.349 54.118 110.106 54.6676 108.762C55.1163 107.564 55.4303 106.298 55.621 104.976L55.778 102.994C55.8902 99.9255 54.9705 97.1368 53.03 94.6281L45.4813 85.0973L45.4926 85.075Z" fill="#EE9CA5"/>
<path d="M35.7899 89.342C33.2213 90.1819 30.6864 90.7307 28.1963 90.9659C26.9625 91.0891 26.0091 91.1227 25.3137 91.0555L24.2145 103.162C23.9229 106.32 24.6744 109.154 26.4578 111.685C26.9289 112.346 27.3551 112.872 27.714 113.253C28.6113 114.261 29.5535 115.146 30.5518 115.885C31.7968 116.781 33.0643 117.441 34.3654 117.856C35.902 118.36 37.5396 118.595 39.267 118.55C40.8933 118.517 42.5534 118.248 44.2471 117.744C45.851 117.307 47.3877 116.624 48.857 115.706C50.2703 114.787 51.4817 113.701 52.5024 112.469C53.3997 111.327 54.1287 110.083 54.6784 108.739C55.127 107.541 55.4411 106.276 55.6317 104.954L55.7888 102.972C55.9009 99.9031 54.9812 97.1144 53.0408 94.6057L45.4921 85.075L43.0133 86.5981C40.8036 87.7404 38.3921 88.6588 35.7787 89.3644L35.7899 89.342ZM35.7899 89.342L38.6164 98.8727" stroke="#B34E58" stroke-width="1.38" stroke-linecap="round" stroke-linejoin="round"/>
<path d="M24.248 102.434L25.2126 91.0779C24.5284 90.9547 23.6086 90.7083 22.4421 90.3388C20.1091 89.5884 17.7424 88.5356 15.3646 87.1805C12.953 85.9374 10.7883 84.5486 8.87024 83.0031L6.71669 81.0768L-2.24525 88.1101C-4.56705 89.9804 -5.93546 92.3435 -6.35047 95.1769L-6.55236 97.0137C-6.59723 98.268 -6.5075 99.4999 -6.26073 100.698C-5.95789 102.053 -5.4868 103.364 -4.83625 104.607C-4.14083 105.94 -3.14257 107.194 -1.85267 108.381C-0.60765 109.568 0.783189 110.531 2.29741 111.293C3.75555 112.144 5.31463 112.76 6.98588 113.163C8.6347 113.567 10.2499 113.712 11.809 113.611C13.2447 113.477 14.5906 113.152 15.8357 112.648C16.9909 112.2 18.0789 111.607 19.0884 110.867C19.5595 110.554 20.053 110.173 20.569 109.714C22.7001 107.799 23.9339 105.368 24.248 102.412V102.434Z" fill="#EE9CA5"/>
<path d="M15.3646 87.1693C12.953 85.9261 10.7883 84.5374 8.87024 82.9919L6.71669 81.0656L-2.24525 88.0988C-4.56705 89.9691 -5.93546 92.3322 -6.35047 95.1657L-6.55236 97.0024C-6.59723 98.2568 -6.5075 99.4887 -6.26073 100.687C-5.95789 102.042 -5.4868 103.353 -4.83625 104.596C-4.14083 105.928 -3.14257 107.183 -1.85268 108.37C-0.60765 109.557 0.783189 110.52 2.29741 111.282C3.75555 112.133 5.31463 112.749 6.98588 113.152C8.6347 113.555 10.2499 113.701 11.809 113.6C13.2447 113.466 14.5906 113.141 15.8357 112.637C16.9909 112.189 18.0789 111.595 19.0884 110.856C19.5595 110.543 20.053 110.162 20.569 109.703C22.7001 107.788 23.9339 105.357 24.248 102.401L25.2126 91.0443C24.5284 90.9211 23.6086 90.6747 22.4421 90.3051C20.1091 89.5548 17.7424 88.502 15.3646 87.1469V87.1693ZM15.3646 87.1693L10.5864 95.9833" stroke="#B34E58" stroke-width="1.38" stroke-linecap="round" stroke-linejoin="round"/>
<path d="M25.2237 94.5609C24.2703 93.7657 23.5973 93.3065 23.1935 93.1833L19.7725 106.533C18.1797 112.11 17.3497 117.117 17.3049 121.552C17.2712 124.273 17.9778 126.255 19.4136 127.51C20.2211 128.227 21.1633 128.697 22.2513 128.921C23.3393 129.123 24.4161 129.067 25.4816 128.753C28.8578 127.779 31.1459 124.396 32.3349 118.629C33.4565 110.744 32.3349 104.181 28.9812 98.9399C27.882 97.2264 26.6257 95.7704 25.2237 94.5609Z" fill="white"/>
<path d="M23.171 93.1833C23.5748 93.2953 24.2478 93.7545 25.2012 94.5609C26.6033 95.7704 27.8595 97.2264 28.9587 98.9399C32.3124 104.181 33.4341 110.755 32.3124 118.629C31.1123 124.396 28.8353 127.767 25.4592 128.753C24.3936 129.067 23.3168 129.123 22.2288 128.921C21.1521 128.697 20.1987 128.227 19.3911 127.51C17.9554 126.267 17.2487 124.284 17.2824 121.552C17.3273 117.105 18.1573 112.099 19.75 106.533" stroke="#1E1E1E" stroke-width="1.38" stroke-linecap="round" stroke-linejoin="round"/>
<path d="M1.73667 122.078C0.637462 122.033 -0.158904 122.392 -0.652428 123.164C-1.50488 124.452 -2.02083 125.225 -2.16665 125.516C-3.80425 128.529 -4.84738 130.948 -5.29604 132.751C-5.76713 134.666 -5.39698 136.492 -4.19682 138.217C-3.20978 139.684 -1.75164 140.904 0.177589 141.856C4.72025 144.13 7.83842 143.547 9.50967 140.109C10.0256 139.045 10.3621 137.746 10.5191 136.212L10.6201 134.286C11.3604 133.636 12.0334 132.93 12.6503 132.18C12.7064 132.113 12.7624 132.034 12.8297 131.967C12.8522 131.934 12.8634 131.911 12.8634 131.9C13.5925 131.038 13.7271 130.007 13.2672 128.798C12.9643 127.935 12.0334 126.916 10.4743 125.74L10.0256 125.438C9.22926 124.889 8.18613 124.296 6.90745 123.657C4.87728 122.683 3.14995 122.156 1.74789 122.089L1.73667 122.078Z" fill="white"/>
<path d="M12.8073 131.956C12.7512 132.023 12.6951 132.102 12.6278 132.169C12.0221 132.919 11.3491 133.614 10.5976 134.274L10.4967 136.201C10.3397 137.735 9.99195 139.034 9.48721 140.098C7.80474 143.536 4.69779 144.119 0.155127 141.845C-1.76288 140.893 -3.22102 139.672 -4.21928 138.205C-5.41944 136.481 -5.78959 134.655 -5.3185 132.74C-4.86984 130.937 -3.82671 128.518 -2.18911 125.505" stroke="#1E1E1E" stroke-width="1.38" stroke-linecap="round" stroke-linejoin="round"/>
<path d="M25.8636 102.165L25.3139 94.6842C23.8222 93.5306 20.2778 91.4475 14.6808 88.4237C11.2037 86.5422 8.30982 85.075 5.99923 84.0111L3.63256 82.9807L-2.94027 86.6205C-7.68483 89.7228 -10.9712 92.8587 -12.7771 96.0505L-15.8728 101.65C-18.1273 106.119 -19.7649 110.173 -20.7744 113.835L-8.73917 120.678L-7.66239 121.686C-6.73143 122.493 -5.67708 123.209 -4.48814 123.825C-2.59256 124.867 -0.932529 125.483 0.491959 125.662L12.83 131.99C15.3313 129.134 17.8438 125.55 20.3675 121.227L23.3959 115.582L23.3511 115.56C25.0335 112.301 25.8748 107.844 25.8748 102.177L25.8636 102.165Z" fill="white"/>
<path d="M23.3735 115.56L20.345 121.205C17.8213 125.528 15.3089 129.111 12.8076 131.967M0.469499 125.64C-0.954989 125.46 -2.61502 124.844 -4.5106 123.803C-5.69954 123.176 -6.75389 122.47 -7.68485 121.664L-8.76163 120.656M-20.7969 113.813C-19.7874 110.151 -18.161 106.096 -15.8953 101.628L-12.7996 96.0281M3.6101 82.9695L5.97677 83.9998C8.28736 85.0638 11.1812 86.5421 14.6583 88.4124C20.2553 91.4363 23.7997 93.5306 25.2915 94.6729" stroke="#1E1E1E" stroke-width="1.38" stroke-linecap="round" stroke-linejoin="round"/>
<path d="M52.2894 83.7422C55.0823 79.9456 57.0003 75.6786 58.0546 70.9524C59.165 66.1254 59.2099 61.444 58.178 56.9306C56.9778 51.4653 54.0616 46.5263 49.4292 42.1137C47.3541 40.1426 45.0548 38.4851 42.5311 37.1299C39.9962 35.7636 37.3491 34.7444 34.6123 34.0949C28.4096 32.6613 22.6555 32.9189 17.3502 34.8676C13.0318 36.4915 9.13973 39.0898 5.67385 42.6513C2.30892 46.1231 -0.203569 50.0765 -1.8636 54.4891C-3.47877 58.7337 -4.01716 62.9559 -3.47877 67.1558C-2.91795 71.3332 -1.33643 75.3202 1.25457 79.0944C4.65315 83.9438 8.80323 87.6956 13.7048 90.3499C18.6401 93.0266 24.0576 94.4377 29.9574 94.6169C34.5562 94.7177 38.7399 93.8553 42.5086 92.0186C46.3447 90.1707 49.6086 87.4156 52.2782 83.7534L52.2894 83.7422Z" fill="white"/>
<path d="M58.178 56.9306C56.9778 51.4653 54.0616 46.5263 49.4292 42.1137C47.3541 40.1426 45.0548 38.4851 42.5311 37.1299C39.9962 35.7636 37.3491 34.7444 34.6123 34.0949C28.4096 32.6613 22.6555 32.9189 17.3502 34.8676C13.0318 36.4915 9.13973 39.0898 5.67385 42.6513C2.30892 46.1231 -0.203569 50.0765 -1.8636 54.4891C-3.47877 58.7337 -4.01716 62.9559 -3.47877 67.1558C-2.91795 71.3332 -1.33643 75.3202 1.25457 79.0944C4.65315 83.9438 8.80324 87.6956 13.7048 90.3499C18.6401 93.0266 24.0576 94.4377 29.9574 94.6169C34.5562 94.7177 38.7399 93.8553 42.5086 92.0186C46.3447 90.1707 49.6087 87.4156 52.2782 83.7534C55.0711 79.9568 56.9891 75.6898 58.0434 70.9636C59.1538 66.1366 59.1987 61.4552 58.1668 56.9418L58.178 56.9306Z" stroke="#1E1E1E" stroke-width="1.38" stroke-linecap="round" stroke-linejoin="round"/>
<path d="M8.4551 66.607C9.50945 67.1782 10.6199 67.2902 11.7864 66.943C12.9305 66.607 13.7829 65.9127 14.3549 64.8599C14.927 63.8072 15.0392 62.7208 14.6914 61.6009C14.3437 60.4361 13.6483 59.5737 12.594 59.0026C11.5396 58.4314 10.4516 58.3306 9.31877 58.689C8.17469 59.0026 7.31102 59.6857 6.73899 60.7385C6.16695 61.7912 6.066 62.8888 6.41371 64.0311C6.72777 65.1735 7.41197 66.0359 8.46632 66.607H8.4551Z" fill="#F5CED3"/>
<path d="M39.7834 82.0735C40.9051 81.7263 41.7575 81.032 42.3296 79.9792C42.9016 78.9265 43.0138 77.8401 42.6885 76.7314C42.3408 75.5666 41.6454 74.7043 40.591 74.1331C39.5367 73.5619 38.4375 73.4611 37.2934 73.8083C36.1493 74.1219 35.2856 74.8051 34.7136 75.8578C34.1416 76.9106 34.0406 78.0081 34.3883 79.1505C34.7136 80.304 35.409 81.1664 36.4634 81.7375C37.5177 82.3087 38.6281 82.4207 39.7946 82.0735H39.7834Z" fill="#F5CED3"/>
<path d="M21.6125 74.6034C22.3753 75.0402 23.2501 74.9954 24.2484 74.4578C25.2579 73.9539 26.0991 73.1139 26.7721 71.938C27.4451 70.762 27.7592 69.6085 27.7031 68.4773C27.6582 67.3574 27.2544 66.5846 26.4917 66.1478C25.729 65.711 24.8541 65.7446 23.8446 66.2486C22.8464 66.775 22.0051 67.6262 21.3321 68.8021C20.6591 69.978 20.3451 71.1204 20.3899 72.2291C20.446 73.3715 20.8498 74.1555 21.6125 74.5922V74.6034Z" fill="#FDE5EA"/>
<path d="M26.7946 71.9492C26.1216 73.1252 25.2803 73.9651 24.2709 74.4691C23.2726 74.9955 22.3977 75.0515 21.635 74.6147C20.8723 74.1779 20.4685 73.3939 20.4124 72.2516C20.3675 71.1316 20.6816 69.9893 21.3546 68.8246C22.0276 67.6598 22.8688 66.7974 23.8671 66.2711C24.8766 65.7671 25.7514 65.7335 26.5142 66.1703C27.2769 66.6071 27.6694 67.3798 27.7255 68.4998C27.7816 69.6421 27.4675 70.7957 26.7946 71.9604V71.9492Z" stroke="#1E1E1E" stroke-width="1.38" stroke-linecap="round" stroke-linejoin="round"/>
<path d="M21.2758 57.569C20.5691 57.1882 19.784 57.1658 18.9203 57.513C18.0903 57.849 17.4285 58.465 16.9575 59.3385C16.4864 60.2121 16.3181 61.1192 16.4751 62.0264C16.6658 62.9223 17.1145 63.5607 17.8211 63.9415C18.5277 64.3223 19.3129 64.3447 20.1541 64.0199C21.0066 63.6503 21.6684 63.0231 22.1507 62.1384C22.633 61.2536 22.7788 60.3801 22.6105 59.4953C22.4311 58.5881 21.9936 57.9386 21.2758 57.5578M21.1412 59.1033C21.3879 59.2377 21.5562 59.4393 21.6347 59.7081C21.7132 59.9769 21.6908 60.2233 21.5674 60.4585C21.4328 60.7048 21.2309 60.8728 20.9617 60.9512C20.6925 61.0296 20.4345 61.0072 20.1878 60.8616C19.9522 60.7384 19.7952 60.5369 19.7167 60.2681C19.6382 59.9993 19.6606 59.7417 19.8064 59.4953C19.9298 59.2601 20.1317 59.1033 20.4009 59.0249C20.6701 58.9465 20.9169 58.9689 21.1524 59.0921L21.1412 59.1033Z" fill="#1E1E1E"/>
<path d="M21.635 59.7193C21.5565 59.4505 21.3882 59.2489 21.1415 59.1145C20.9059 58.9913 20.6592 58.9577 20.39 59.0473C20.1208 59.1257 19.9301 59.2825 19.7955 59.5177C19.6609 59.7641 19.6273 60.0329 19.7058 60.2905C19.7843 60.5593 19.9413 60.7496 20.1769 60.884C20.4236 61.0184 20.6928 61.052 20.9508 60.9736C21.22 60.8952 21.4219 60.7272 21.5565 60.4809C21.6799 60.2457 21.7135 59.9993 21.6238 59.7305L21.635 59.7193Z" fill="white"/>
<path d="M34.6567 66.0246C33.8379 66.3718 33.1873 66.9877 32.7163 67.8725C32.2452 68.7573 32.0657 69.642 32.2115 70.5492C32.4022 71.4451 32.8509 72.0835 33.5575 72.4643C34.2641 72.8451 35.0829 72.8899 35.9242 72.5539C36.7654 72.1731 37.4159 71.5459 37.8983 70.6612C38.3806 69.7764 38.5376 68.9029 38.3806 68.0293C38.2123 67.1333 37.7637 66.4838 37.0234 66.0806C36.3167 65.6998 35.5316 65.6774 34.6679 66.0246M35.5877 68.0405C35.711 67.8053 35.9017 67.6485 36.1597 67.5589C36.4065 67.4693 36.6532 67.4917 36.8888 67.6149C37.1355 67.7493 37.3038 67.9509 37.3823 68.2197C37.4608 68.4885 37.4384 68.7349 37.315 68.9701C37.1692 69.2388 36.9673 69.4068 36.7093 69.4628C36.4625 69.5524 36.2046 69.5188 35.9354 69.3732C35.6998 69.25 35.554 69.0484 35.4867 68.7909C35.4194 68.5333 35.4643 68.2757 35.5989 68.0293L35.5877 68.0405Z" fill="#1E1E1E"/>
<path d="M36.1486 67.5589C35.9019 67.6485 35.7112 67.8053 35.5766 68.0405C35.442 68.2869 35.4084 68.5445 35.4644 68.8021C35.5317 69.0597 35.6775 69.25 35.9131 69.3844C36.1823 69.53 36.4403 69.5524 36.687 69.474C36.945 69.4068 37.1469 69.25 37.2927 68.9813C37.4161 68.7461 37.4497 68.4997 37.36 68.2309C37.2815 67.9621 37.1132 67.7605 36.8665 67.6261C36.6309 67.5029 36.3842 67.4805 36.1374 67.5701L36.1486 67.5589Z" fill="white"/>
<path d="M5.16886 85.9597C5.16886 85.9597 5.22494 85.8702 5.26981 85.8366C5.01183 84.9294 4.59682 83.8878 4.02478 82.7231C2.8134 80.4496 1.34405 78.7473 -0.38328 77.6273C-3.61362 77.0226 -6.69814 77.2465 -9.65928 78.3105C-9.68171 78.3105 -9.71536 78.3329 -9.74901 78.3553C-7.99924 79.2848 -6.51867 80.584 -5.31852 82.2751C-4.74648 83.0927 -4.34268 83.8318 -4.10714 84.4814C-0.607611 85.0078 2.47691 85.5006 5.15764 85.9597M13.3456 87.4605C11.293 87.0237 8.55622 86.5197 5.15764 85.9597C3.65464 87.7293 0.850529 89.8572 -3.24347 92.3547C0.31214 92.993 3.66586 92.8138 6.80646 91.8171C8.99367 91.0891 10.9341 90.0252 12.6502 88.6364C13.0204 88.2892 13.2559 87.8973 13.3456 87.4605ZM-4.10714 84.4814C-4.25295 84.459 -4.40998 84.4366 -4.5558 84.4142L-15.7722 82.7679C-15.8171 83.0703 -15.7722 83.3951 -15.6376 83.7534C-14.9534 85.4558 -13.8767 86.9677 -12.3849 88.278C-10.1865 90.2156 -7.22531 91.5483 -3.51267 92.2763C-3.42294 92.2987 -3.33321 92.3211 -3.24347 92.3323C0.850529 89.8348 3.65464 87.7069 5.15764 85.9373C2.47691 85.4782 -0.607611 84.9966 -4.10714 84.459C-4.10714 84.4814 -4.09592 84.5038 -4.08471 84.5262C-4.08471 84.5038 -4.09592 84.4814 -4.10714 84.459M-4.5558 84.3918C-4.40998 84.4142 -4.25295 84.4366 -4.10714 84.459C-4.34268 83.8094 -4.74648 83.0703 -5.31852 82.2527C-6.51867 80.5728 -7.99924 79.2624 -9.74901 78.3329C-11.7231 79.0497 -13.5065 80.08 -15.0768 81.4239C-15.503 81.8271 -15.7274 82.2751 -15.7722 82.7567L-4.5558 84.403M-0.0131369 77.6609C-0.136518 77.6273 -0.259899 77.6161 -0.38328 77.6161C1.34405 78.7361 2.8134 80.4272 4.02478 82.7119C4.59682 83.8766 5.01183 84.907 5.26981 85.8253C5.22494 85.8589 5.19129 85.9037 5.16886 85.9485C8.56744 86.5085 11.293 87.0013 13.3569 87.4493C13.3569 87.3933 13.3793 87.3373 13.3905 87.2813C13.469 86.7213 13.3456 86.2173 13.0092 85.7918C11.809 84.1454 10.3396 82.6895 8.60109 81.4352C6.07739 79.5984 3.20598 78.3441 -0.0019207 77.6721L-0.0131369 77.6609Z" fill="#4FB35B"/>
<path d="M4.01334 82.6895C2.80197 80.416 1.33261 78.7137 -0.39472 77.5938M4.01334 82.6783C4.58538 83.8431 5.00039 84.8846 5.25837 85.7918C5.2135 85.8254 5.15742 85.915 5.15742 85.915C8.556 86.4749 11.2816 86.9677 13.3454 87.4157M-15.7725 82.7343L-4.55602 84.3806C-4.41021 84.403 -4.25318 84.4254 -4.10736 84.4478C-4.34291 83.7983 -4.7467 83.0591 -5.31874 82.2415C-6.5189 80.5616 -7.99947 79.2513 -9.74923 78.3217M-10.826 89.1964C-7.73027 87.6621 -5.48699 86.1054 -4.08493 84.5262C-4.08493 84.5038 -4.09615 84.4814 -4.10736 84.459C-0.607834 84.9854 2.47669 85.4782 5.15742 85.9374C3.65442 87.7069 0.850304 89.8348 -3.2437 92.3323" stroke="#37773E" stroke-width="1.38" stroke-linecap="round" stroke-linejoin="round"/>
<path d="M12.6502 88.6028C13.0204 88.2556 13.2559 87.8636 13.3456 87.4268C13.3456 87.3708 13.3681 87.3148 13.3793 87.2588C13.4578 86.6988 13.3344 86.1949 12.9979 85.7693C11.7978 84.123 10.3284 82.667 8.58987 81.4127C6.06617 79.576 3.19476 78.3216 -0.0131388 77.6497C-0.13652 77.6161 -0.2599 77.6049 -0.383281 77.6049C-3.61362 77.0001 -6.69814 77.2241 -9.65928 78.288C-9.68171 78.288 -9.71536 78.3104 -9.74901 78.3328C-11.7231 79.0496 -13.5065 80.0799 -15.0768 81.4239C-15.503 81.8271 -15.7274 82.275 -15.7722 82.7566C-15.8171 83.059 -15.7722 83.3838 -15.6376 83.7422C-14.9534 85.4445 -13.8767 86.9564 -12.3849 88.2668C-10.1865 90.2043 -7.22531 91.537 -3.51267 92.265C-3.42294 92.2874 -3.33321 92.3098 -3.24347 92.321C0.312137 92.9594 3.66585 92.7802 6.80646 91.7834C8.99366 91.0554 10.9341 89.9915 12.6502 88.6028Z" stroke="#1E1E1E" stroke-width="1.38" stroke-linecap="round" stroke-linejoin="round"/>
<path d="M28.3091 102.053H28.4324C26.0882 99.4326 23.9795 97.1143 22.1064 95.1096C21.6802 96.4872 21.4558 98.6263 21.411 101.527C21.3661 103.005 21.3437 104.383 21.3549 105.671C21.3997 105.738 21.4558 105.794 21.5343 105.861C24.1702 108.571 26.9294 110.319 29.7896 111.114C31.7076 111.662 33.5471 111.73 35.3193 111.326C35.7007 111.248 36.026 111.114 36.2727 110.923C33.4238 107.664 30.8215 104.708 28.4437 102.065H28.3203C27.7707 104.125 27.7034 106.858 28.1184 110.263C27.7146 106.858 27.7819 104.125 28.3203 102.065M30.9225 101.885L28.4437 102.065C30.8103 104.708 33.4238 107.653 36.2727 110.923C36.6429 110.621 36.8784 110.173 36.9682 109.591C37.2261 107.541 37.1252 105.492 36.6653 103.453C34.8931 102.479 32.9863 101.953 30.9337 101.874M22.1737 94.9752C22.1737 94.9752 22.14 95.0536 22.1288 95.1096C24.0132 97.1143 26.1219 99.4326 28.4549 102.065L30.9337 101.885C32.9863 101.964 34.8931 102.49 36.6653 103.464C36.6541 103.42 36.6429 103.375 36.6317 103.352C35.9026 100.306 34.4108 97.6071 32.1451 95.2664C30.2607 94.3929 28.0399 94.0793 25.4825 94.3481C24.1926 94.4825 23.0822 94.6953 22.1737 94.9976M16.4421 89.1291C16.0831 89.4651 15.87 89.8683 15.8027 90.3723C15.556 92.5562 15.7354 94.7624 16.3299 96.9911C17.1936 100.161 18.876 103.061 21.3773 105.682C21.3661 104.394 21.3773 103.016 21.4334 101.538C21.4783 98.6375 21.7138 96.4984 22.1288 95.1208C19.9192 92.7129 18.0236 90.7082 16.4421 89.1291ZM32.1451 95.2664C32.0554 95.1544 31.9768 95.0648 31.8759 94.9752C29.5541 92.6458 26.9407 90.9322 24.0244 89.8235C22.0166 89.0619 19.9977 88.6251 17.9563 88.5243C17.4403 88.4907 16.9805 88.6587 16.543 89.0395C16.5094 89.0619 16.4757 89.0955 16.4309 89.1291C18.0124 90.7194 19.908 92.7129 22.1176 95.1208C22.1176 95.0648 22.14 95.02 22.1625 94.9864C23.071 94.6841 24.1814 94.4713 25.4713 94.3369C28.0287 94.0793 30.2495 94.3817 32.1339 95.2552L32.1451 95.2664Z" fill="#4FB35B"/>
<path d="M21.3434 105.637C21.3322 104.349 21.3434 102.972 21.3995 101.493C21.4444 98.5927 21.6799 96.4536 22.0949 95.0761M22.0949 95.0761C19.8853 92.6682 17.9897 90.6635 16.4082 89.0844M22.0949 95.0761C22.0949 95.0761 22.1174 94.9753 22.1398 94.9417C23.0483 94.6393 24.1588 94.4265 25.4487 94.2921C28.006 94.0345 30.2269 94.3369 32.1112 95.2105M22.0949 95.0649C23.9681 97.0808 26.0768 99.3991 28.421 102.02L30.8998 101.841C32.9525 101.919 34.8592 102.445 36.6314 103.42M28.0957 110.229C27.6919 106.824 27.7592 104.092 28.2976 102.031H28.421C30.7877 104.674 33.4011 107.631 36.2501 110.89" stroke="#37773E" stroke-width="1.38" stroke-linecap="round" stroke-linejoin="round"/>
<path d="M15.7691 90.3275C15.8476 89.7787 16.0943 89.3307 16.5206 88.9947C16.9468 88.6139 17.4179 88.4459 17.9338 88.4795C19.9752 88.5803 21.9942 89.0171 24.0019 89.7787C26.9182 90.8874 29.5316 92.601 31.8534 94.9304C34.265 97.3495 35.8465 100.149 36.6092 103.319C37.0915 105.391 37.2037 107.474 36.9457 109.557C36.8111 110.52 36.2615 111.091 35.3081 111.293C33.5471 111.696 31.6964 111.629 29.7784 111.08C26.9182 110.285 24.159 108.538 21.5231 105.828C18.9321 103.151 17.1935 100.183 16.3074 96.9463C15.713 94.7176 15.5335 92.5114 15.7803 90.3275H15.7691Z" stroke="#1E1E1E" stroke-width="1.38" stroke-linecap="round" stroke-linejoin="round"/>
<path d="M16.1156 94.9753C17.7083 94.5162 18.8972 93.553 19.7048 92.0747C20.5012 90.6187 20.6582 89.0844 20.1759 87.4829C19.716 85.8926 18.7514 84.7054 17.2708 83.899C15.7903 83.0927 14.2648 82.9471 12.6721 83.4287C11.0682 83.899 9.87921 84.8734 9.08284 86.3293C8.28648 87.7853 8.12944 89.3308 8.61175 90.9211C9.07162 92.5115 10.0362 93.6986 11.5168 94.505C12.9974 95.3113 14.5228 95.4569 16.1156 94.9753ZM15.8688 86.2509C16.295 86.4749 16.5754 86.8333 16.7212 87.3261C16.9007 87.7853 16.8671 88.2332 16.6315 88.6812C16.396 89.1292 16.0258 89.4092 15.5211 89.5436C15.05 89.6556 14.6125 89.5996 14.1863 89.3644C13.7601 89.1292 13.4573 88.782 13.3114 88.3452C13.1656 87.8637 13.2105 87.4045 13.4573 86.9565C13.704 86.5085 14.0517 86.2397 14.5116 86.1277C14.9827 85.971 15.4313 86.0158 15.88 86.2509H15.8688Z" fill="#F6CB6D"/>
<path d="M16.7208 87.326C16.5749 86.8444 16.2945 86.486 15.8683 86.2508C15.4421 86.0157 14.971 85.9709 14.4999 86.1277C14.0288 86.2396 13.6811 86.5196 13.4456 86.9564C13.21 87.3932 13.1651 87.8524 13.2997 88.3451C13.4456 88.7931 13.7372 89.1291 14.1746 89.3643C14.6121 89.5995 15.0495 89.6555 15.5094 89.5435C16.0141 89.4091 16.3843 89.1179 16.6198 88.6811C16.8553 88.2444 16.889 87.7964 16.7095 87.326H16.7208Z" fill="white"/>
<path d="M19.6941 92.041C18.8977 93.5194 17.6975 94.4825 16.1048 94.9417C14.5233 95.4233 12.9866 95.2665 11.5061 94.4713C10.0255 93.6762 9.06088 92.4778 8.60101 90.8875C8.1187 89.3084 8.27573 87.774 9.0721 86.2957C9.86847 84.8398 11.0574 83.8654 12.6614 83.395C14.2429 82.9135 15.7795 83.0702 17.2601 83.8654C18.7407 84.6606 19.7053 85.8589 20.1652 87.4492C20.6362 89.0508 20.4792 90.5739 19.6941 92.041Z" stroke="#1E1E1E" stroke-width="1.38" stroke-linecap="round" stroke-linejoin="round"/>
<path d="M38.3251 164.681C38.2578 162.967 37.7531 161.31 36.7997 159.72C34.2984 155.62 30.2156 152.809 24.5401 151.264C20.1208 150.066 15.2865 149.73 10.0485 150.267H9.98116L9.84657 150.133V150.088C10.3625 144.869 9.98116 140.053 8.72492 135.641C7.10976 129.985 4.22713 125.919 0.0770473 123.444C-1.51569 122.492 -3.1645 122.011 -4.88062 122.011C-6.65282 121.955 -8.2792 122.425 -9.77099 123.411C-11.8012 124.699 -13.2705 126.468 -14.1903 128.708C-15.1324 130.948 -15.3231 133.222 -14.7847 135.54C-14.4931 136.794 -13.9772 138.037 -13.2593 139.258C-12.6985 140.12 -11.9245 141.14 -10.9151 142.327C-13.3378 142.506 -15.4465 143.435 -17.2411 145.115C-19.1816 146.918 -20.1013 149.091 -20.0116 151.645C-19.9331 154.87 -18.2057 157.312 -14.8408 158.958C-11.9358 160.403 -8.97462 160.828 -5.9574 160.257C-2.77193 159.619 0.593002 158.062 4.15983 155.576C4.272 155.598 4.38416 155.643 4.49632 155.71L4.59727 156.012C2.15209 159.664 0.637869 163.057 0.054615 166.193C-0.494991 169.172 -0.0351181 172.117 1.43424 175.029C3.10549 178.344 5.56189 180.035 8.81465 180.114C11.3608 180.17 13.5256 179.218 15.3202 177.28C16.9466 175.455 17.8439 173.338 18.0233 170.919C19.2011 171.905 20.233 172.666 21.1079 173.204C22.3529 173.943 23.6091 174.458 24.8878 174.727C27.1872 175.22 29.4641 174.996 31.7074 174.044C33.9283 173.092 35.678 171.602 36.9567 169.575C37.9325 168.074 38.3924 166.45 38.3251 164.692V164.681Z" fill="#B8E1F4"/>
<path d="M36.9674 169.553C37.9433 168.052 38.4031 166.428 38.3358 164.67C38.2686 162.956 37.7638 161.299 36.8104 159.708C34.3091 155.609 30.2264 152.798 24.5508 151.253C20.1316 150.054 15.2973 149.718 10.0592 150.256H9.9919L9.85731 150.122V150.077C10.3733 144.858 9.99191 140.042 8.73566 135.629C7.1205 129.974 4.23787 125.908 0.08779 123.433C-1.50494 122.481 -3.15376 122 -4.86988 122C-6.64207 121.944 -8.26846 122.414 -9.76025 123.4C-11.7904 124.687 -13.2598 126.457 -14.1795 128.697C-15.1217 130.937 -15.3124 133.21 -14.774 135.529C-14.4824 136.783 -13.9664 138.026 -13.2486 139.247C-12.6877 140.109 -11.9138 141.128 -10.9043 142.315C-13.3271 142.495 -15.4358 143.424 -17.2304 145.104C-19.1708 146.907 -20.0906 149.08 -20.0009 151.633C-19.9223 154.859 -18.195 157.3 -14.8301 158.947C-11.925 160.391 -8.96388 160.817 -5.94666 160.246C-2.76119 159.607 0.603745 158.051 4.17057 155.564C4.28274 155.587 4.3949 155.632 4.50707 155.699L4.60801 156.001C2.16283 159.652 0.648611 163.046 0.0653566 166.182C-0.484249 169.161 -0.0243754 172.106 1.44498 175.018C3.11623 178.333 5.57263 180.024 8.8254 180.103C11.3715 180.159 13.5363 179.207 15.3309 177.269C16.9573 175.444 17.8546 173.327 18.0341 170.908C19.2118 171.893 20.2437 172.655 21.1186 173.192C22.3636 173.932 23.6199 174.447 24.8986 174.716C27.1979 175.208 29.4749 174.984 31.7182 174.032C33.939 173.08 35.6888 171.591 36.9674 169.564V169.553Z" stroke="#1E1E1E" stroke-width="1.38" stroke-linecap="round" stroke-linejoin="round"/>
<path d="M66.4563 121.484C66.6133 121.988 66.9162 122.459 67.3424 122.884C68.0714 123.59 68.9463 123.948 69.9782 123.959C70.9877 123.948 71.8402 123.579 72.5468 122.851C73.2759 122.112 73.646 121.238 73.646 120.241C73.6348 119.222 73.2647 118.36 72.5356 117.643C71.8177 116.915 70.9429 116.557 69.9222 116.568C68.9239 116.568 68.049 116.937 67.3199 117.677C66.6133 118.404 66.2544 119.267 66.2432 120.286C66.2432 120.712 66.3105 121.115 66.4338 121.473L66.4563 121.484Z" fill="#F6CB6D"/>
<path d="M66.4564 121.484C66.6135 121.988 66.9163 122.459 67.3425 122.884C68.0716 123.59 68.9465 123.948 69.9784 123.959C70.9879 123.948 71.8403 123.579 72.547 122.851C73.276 122.112 73.6462 121.238 73.6462 120.241C73.635 119.222 73.2648 118.36 72.5358 117.643C71.8179 116.915 70.943 116.557 69.9223 116.568C68.9241 116.568 68.0492 116.937 67.3201 117.677C66.6135 118.404 66.2546 119.267 66.2433 120.286C66.2433 120.712 66.3106 121.115 66.434 121.473L66.6808 121.395M58.9639 124.038L66.434 121.462" stroke="#1E1E1E" stroke-width="1.38" stroke-linecap="round" stroke-linejoin="round"/>
<path d="M42.9576 89.9242C42.9576 88.9051 42.5987 88.0427 41.8808 87.3371C41.1405 86.6092 40.2657 86.2508 39.2674 86.262C38.2467 86.2732 37.3718 86.654 36.6428 87.3931C35.9361 88.1211 35.5884 88.9834 35.5996 89.9802C35.5772 90.977 35.9361 91.8393 36.6764 92.5673C37.0802 92.9817 37.5289 93.2729 38.0448 93.4632C38.4262 93.5752 38.8412 93.6424 39.2898 93.6424C40.3105 93.6424 41.1742 93.2841 41.8808 92.5673C42.6099 91.8281 42.9688 90.9546 42.9576 89.9354V89.9242Z" fill="#F6CB6D"/>
<path d="M38.0335 93.4632C37.5176 93.2841 37.0689 92.9817 36.6651 92.5673C35.9248 91.8393 35.5659 90.977 35.5883 89.9802C35.5771 88.9722 35.9248 88.1099 36.6315 87.3931C37.3605 86.654 38.2354 86.2844 39.2561 86.262C40.2656 86.2508 41.1293 86.6092 41.8695 87.3371C42.5986 88.0427 42.9575 88.9163 42.9463 89.9242C42.9575 90.9434 42.5986 91.8169 41.8695 92.5561C41.1629 93.2841 40.288 93.6424 39.2785 93.6312C38.8299 93.6312 38.4149 93.564 38.0335 93.4521M38.0335 93.4521L35.5547 100.911M38.0335 93.4521L38.1233 93.1833" stroke="#1E1E1E" stroke-width="1.38" stroke-linecap="round" stroke-linejoin="round"/>
<path d="M-8.31257 146.336H-8.30136C-8.22284 146.291 -8.15554 146.235 -8.08824 146.168C-8.15554 146.235 -8.23406 146.291 -8.32379 146.336M-2.79409 143.021C-2.79409 143.021 -2.89503 143.055 -2.9399 143.077L-3.0072 143.111C-2.9399 143.088 -2.8726 143.055 -2.79409 143.021ZM12.6734 169.833L12.8529 169.62L12.4715 170.001C12.5388 169.933 12.6061 169.877 12.6734 169.833ZM12.8529 169.62L13.3127 169.082C11.4844 169.373 9.4767 169.105 7.27828 168.298C4.31714 167.178 1.26627 165.118 -1.88555 162.116C-4.94764 158.98 -7.05633 155.945 -8.21163 153C-9.03043 150.827 -9.31084 148.834 -9.04164 147.008L-9.78193 147.658C-10.3652 148.274 -10.8587 148.89 -11.2625 149.517C-12.8328 151.969 -13.1581 154.635 -12.2271 157.524C-11.2288 160.604 -9.24354 163.606 -6.27118 166.54C-3.31004 169.463 -0.292818 171.401 2.76927 172.341C5.66311 173.237 8.34384 172.901 10.8115 171.322C10.8115 171.322 10.8339 171.311 10.8563 171.3C10.8788 171.277 10.9012 171.266 10.9348 171.255C11.3274 170.964 11.72 170.65 12.0901 170.325L12.2359 170.213L12.4491 170.001L12.8304 169.62M16.0608 165.196C16.6777 164.065 17.1712 163.034 17.5413 162.105C14.726 161.231 11.9892 159.955 9.34211 158.252C7.95127 157.368 6.56043 156.281 5.18081 154.993C3.84605 153.582 2.74684 152.216 1.87196 150.872C0.144625 148.24 -1.17892 145.518 -2.08745 142.707C-2.2557 142.786 -2.41273 142.853 -2.56976 142.92L-2.78287 143.01H-2.79409C-2.8726 143.055 -2.9399 143.088 -3.0072 143.111L-5.16075 144.219C-5.25048 144.264 -5.34022 144.32 -5.42995 144.387C-5.56454 144.455 -5.69914 144.533 -5.82252 144.623C-6.09172 144.779 -6.33848 144.936 -6.58524 145.093C-6.64132 145.126 -6.69741 145.16 -6.7647 145.205L-6.8993 145.306H-6.91052L-7.01147 145.384L-7.24701 145.552L-7.56107 145.765C-7.56107 145.765 -7.66202 145.832 -7.70689 145.877L-8.03216 146.146L-8.07703 146.168C-8.14433 146.235 -8.21163 146.291 -8.29014 146.347C-8.16676 146.795 -8.05459 147.098 -7.96486 147.254C-6.93295 150.278 -5.07102 153.493 -2.40151 156.897C-1.50419 158.073 -0.640527 159.103 0.167057 159.999L0.234355 160.067C1.12045 160.862 2.16358 161.702 3.36374 162.598C6.80719 165.23 10.0487 167.044 13.066 168.029L13.9857 168.343C14.726 167.425 15.4214 166.372 16.0944 165.185L16.0608 165.196Z" fill="#4C4C4C"/>
<path d="M4.90012 140.367L1.66979 141.263C1.46789 141.33 1.27721 141.397 1.07532 141.464C1.05288 141.464 1.03045 141.475 1.00802 141.498C0.985585 141.498 0.963153 141.498 0.929503 141.52C0.895854 141.531 0.87342 141.543 0.862204 141.554C0.83977 141.554 0.817338 141.554 0.783689 141.576C-0.416471 141.991 -1.5269 142.45 -2.54759 142.931C-2.39056 142.864 -2.23353 142.797 -2.06529 142.719C-1.15675 145.53 0.166784 148.251 1.89412 150.883C2.769 152.227 3.86821 153.604 5.20297 155.004C6.59381 156.292 7.98465 157.379 9.36427 158.263C12.0226 159.966 14.7482 161.243 17.5635 162.116C18.0682 160.895 18.5281 159.641 18.9319 158.331C19.3245 157.11 19.6161 156.035 19.7956 155.094L4.90012 140.378M13.9854 168.365L13.0657 168.052C10.0373 167.066 6.80692 165.252 3.36347 162.62C2.16331 161.724 1.12018 160.873 0.234083 160.089L0.166785 160.022C-0.640799 159.126 -1.50447 158.095 -2.40178 156.92C-5.07129 153.504 -6.93322 150.289 -7.96513 147.277C-8.05487 147.12 -8.15582 146.818 -8.29041 146.37C-8.8288 146.806 -9.32232 147.243 -9.75977 147.691L-9.01948 147.042C-9.28868 148.867 -9.01948 150.861 -8.18946 153.033C-7.03417 155.979 -4.92548 159.014 -1.86339 162.15C1.28843 165.151 4.3393 167.212 7.30044 168.332C9.49886 169.138 11.5066 169.396 13.3349 169.116L12.875 169.653C13.2452 169.273 13.6041 168.869 13.9518 168.433C13.9742 168.41 13.9854 168.399 13.9967 168.388L13.9854 168.365Z" fill="#F6CB6D"/>
<path d="M13.9857 168.354C14.726 167.436 15.4214 166.383 16.0944 165.196C16.7113 164.065 17.2048 163.034 17.575 162.105M-2.54732 142.92L-2.76044 143.01H-2.77165C-2.85017 143.055 -2.91747 143.088 -2.98477 143.111L-5.13832 144.219C-5.22805 144.264 -5.31779 144.32 -5.40752 144.387C-5.54211 144.455 -5.67671 144.533 -5.80009 144.623C-6.06929 144.779 -6.31605 144.936 -6.56281 145.093C-6.61889 145.126 -6.67497 145.16 -6.74227 145.205M-6.87687 145.306H-6.88809L-6.98903 145.384M-7.22458 145.552L-7.53864 145.765C-7.53864 145.765 -7.63959 145.832 -7.68445 145.877L-8.00973 146.146L-8.0546 146.168C-8.12189 146.224 -8.20041 146.28 -8.27893 146.347M13.9969 168.354C13.9857 168.365 13.9521 168.399 13.9521 168.399C13.6044 168.836 13.2454 169.239 12.8753 169.62M12.2808 170.213L12.4827 170.001M12.1238 170.325L12.2696 170.213M10.9685 171.266C11.3611 170.975 11.7536 170.661 12.1238 170.337M10.8788 171.322C10.8788 171.322 10.9236 171.288 10.9573 171.277M10.8227 171.344C10.8227 171.344 10.8451 171.333 10.8675 171.322M10.8115 171.344C8.34384 172.924 5.66311 173.26 2.76927 172.364C-0.292819 171.423 -3.31004 169.485 -6.27118 166.562C-9.24354 163.628 -11.2288 160.627 -12.2271 157.547C-13.1581 154.657 -12.8328 151.992 -11.2625 149.539M-11.2513 149.528C-10.8475 148.901 -10.354 148.285 -9.77071 147.669C-9.33327 147.221 -8.83975 146.784 -8.30136 146.347M12.4603 170.012C12.5949 169.877 12.7295 169.743 12.8529 169.62M17.5638 162.105C18.0685 160.884 18.5284 159.63 18.9322 158.319C19.3247 157.099 19.6164 156.024 19.7958 155.083L4.90039 140.367L1.67006 141.263L1.07559 141.464C1.07559 141.464 1.03072 141.475 1.00829 141.498C0.985855 141.498 0.963423 141.498 0.929774 141.52C0.896124 141.543 0.87369 141.543 0.862473 141.554C0.84004 141.554 0.817608 141.554 0.783959 141.576C-0.416201 141.991 -1.52663 142.45 -2.54732 142.931M-2.78287 143.032C-2.78287 143.032 -2.88382 143.066 -2.92868 143.088L-2.99598 143.122" stroke="#1E1E1E" stroke-width="1.38" stroke-linecap="round" stroke-linejoin="round"/>
<path d="M42.3298 103.263C39.2453 101.583 36.0711 100.441 32.8183 99.8359C27.9952 98.9175 23.4974 99.1863 19.2913 100.62C16.1058 101.695 13.111 103.465 10.3069 105.917C7.55887 108.336 5.36045 111.069 3.73407 114.093L1.3001 115.582C-0.516966 116.926 -1.88537 118.505 -2.79391 120.309C-5.62045 126.087 -3.29864 133.098 4.16029 141.319L18.8763 155.856C27.1876 163.214 34.2316 165.454 39.9856 162.564C41.7915 161.646 43.3618 160.28 44.6965 158.443L46.1434 155.979C49.1831 154.31 51.8975 152.093 54.2754 149.338C56.7093 146.504 58.4366 143.491 59.4686 140.3C60.8706 136.1 61.0949 131.609 60.1303 126.804C59.4798 123.545 58.3133 120.398 56.6084 117.363C54.9595 114.429 52.9069 111.752 50.4618 109.311C47.9829 106.88 45.2686 104.864 42.3298 103.252V103.263Z" fill="#F6CB6D"/>
<path d="M18.887 155.844C27.1984 163.203 34.2423 165.442 39.9963 162.553C41.8022 161.635 43.3725 160.268 44.7072 158.432L46.1542 155.968C49.1938 154.299 51.9082 152.081 54.2861 149.326C56.72 146.493 58.4474 143.48 59.4793 140.288C60.8814 136.089 61.1057 131.598 60.1411 126.793C59.4905 123.534 58.324 120.387 56.6191 117.352C54.9703 114.418 52.9177 111.741 50.4725 109.299C47.9937 106.869 45.2793 104.853 42.3406 103.24C39.2561 101.561 36.0818 100.418 32.829 99.8134C28.006 98.8951 23.5082 99.1638 19.302 100.597C16.1165 101.673 13.1217 103.442 10.3176 105.895C7.56961 108.314 5.37119 111.047 3.7448 114.07L1.31084 115.56C-0.506224 116.904 -1.87463 118.483 -2.78316 120.286C-5.60971 126.065 -3.2879 133.076 4.17103 141.296" stroke="#1E1E1E" stroke-width="1.38" stroke-linecap="round" stroke-linejoin="round"/>
<path d="M46.1429 116.579L43.2267 113.712C41.2414 112.021 39.1551 110.677 36.9567 109.68C34.6349 108.639 32.3467 108.045 30.1034 107.911C26.6824 107.754 23.3063 108.627 19.9862 110.542C17.126 112.122 14.5126 114.653 12.1235 118.147C12.0674 118.225 11.5402 118.293 10.542 118.337C9.18476 118.673 8.01825 119.188 7.03121 119.872C5.46091 120.958 4.33926 122.403 3.66627 124.217C3.03815 125.987 2.92599 127.812 3.32978 129.682C3.78966 131.844 4.57481 133.949 5.68524 135.999C6.7508 137.981 8.07434 139.852 9.63342 141.632C11.0355 143.323 12.4375 144.858 13.8396 146.235C15.2753 147.635 16.8232 149.013 18.4944 150.357C20.289 151.902 22.1734 153.201 24.1587 154.232C26.2225 155.329 28.3537 156.113 30.5521 156.572C32.4252 156.92 34.2423 156.763 36.0033 156.102C37.7979 155.43 39.2448 154.299 40.3328 152.731C41.0058 151.745 41.4993 150.569 41.8022 149.214C41.8358 148.206 41.9031 147.669 41.9929 147.635C45.4587 145.194 47.9712 142.562 49.5191 139.74C51.4034 136.38 52.2223 132.986 51.9979 129.537C51.8745 127.331 51.2689 125.079 50.1921 122.772C49.1826 120.6 47.8254 118.528 46.1317 116.579H46.1429Z" fill="white"/>
<path d="M40.344 152.742C41.017 151.757 41.5105 150.581 41.8134 149.226C41.847 148.218 41.9143 147.68 42.0041 147.646C45.47 145.205 47.9824 142.573 49.5303 139.751C51.4147 136.391 52.2335 132.997 52.0091 129.548C51.8858 127.342 51.2801 125.091 50.2033 122.784C49.1938 120.611 47.8366 118.539 46.1429 116.59L43.2267 113.723C41.2414 112.032 39.1551 110.688 36.9567 109.691C34.6349 108.65 32.3467 108.056 30.1034 107.922C26.6824 107.765 23.3063 108.639 19.9862 110.554C17.126 112.133 14.5126 114.664 12.1235 118.158C12.0674 118.237 11.5402 118.304 10.542 118.349C9.18476 118.685 8.01825 119.2 7.03121 119.883C5.46091 120.969 4.33926 122.414 3.66627 124.228C3.03815 125.998 2.92599 127.823 3.32978 129.694C3.78966 131.855 4.57481 133.961 5.68524 136.01C6.7508 137.992 8.07434 139.863 9.63342 141.643C11.0355 143.335 12.4375 144.869 13.8396 146.246C15.2753 147.646 16.8232 149.024 18.4944 150.368C20.289 151.913 22.1734 153.213 24.1587 154.243C26.2225 155.34 28.3537 156.124 30.5521 156.584C32.4252 156.931 34.2423 156.774 36.0033 156.113C37.7979 155.441 39.2448 154.31 40.3328 152.742H40.344Z" stroke="#1E1E1E" stroke-width="1.38" stroke-linecap="round" stroke-linejoin="round"/>
<path d="M11.3953 132.191C12.9095 132.146 14.2106 131.586 15.2874 130.5C16.3642 129.414 16.9026 128.126 16.9138 126.625C16.9586 125.135 16.4539 123.87 15.3996 122.817C14.3452 121.764 13.0665 121.283 11.5748 121.35C10.083 121.372 8.79308 121.921 7.7163 123.007C6.63952 124.094 6.08991 125.393 6.05626 126.916C6.02262 128.394 6.52735 129.66 7.5817 130.701C8.63604 131.743 9.88107 132.225 11.3953 132.191Z" fill="#F5CED3"/>
<path d="M33.2777 153.795C34.7919 153.75 36.093 153.19 37.1698 152.104C38.2466 151.017 38.785 149.729 38.7962 148.229C38.8074 146.75 38.2915 145.496 37.2483 144.455C36.2052 143.413 34.9265 142.909 33.4347 142.931C31.9542 142.965 30.6755 143.525 29.5987 144.611C28.5219 145.698 27.9611 146.997 27.9275 148.498C27.905 149.987 28.421 151.253 29.4753 152.305C30.5297 153.358 31.7859 153.828 33.2889 153.795H33.2777Z" fill="#F5CED3"/>
<path d="M20.009 139.908C20.6484 140.501 21.5233 140.647 22.6113 140.356C23.6992 140.087 24.7087 139.448 25.6285 138.452C26.5482 137.455 27.109 136.402 27.3109 135.282C27.5128 134.185 27.2885 133.334 26.6492 132.751C26.0098 132.158 25.135 132.001 24.047 132.27C22.959 132.572 21.9495 133.21 21.0297 134.207C20.11 135.204 19.5492 136.245 19.3473 137.343C19.1454 138.463 19.3697 139.325 20.009 139.919V139.908Z" fill="#FDE5EA"/>
<path d="M25.6392 138.452C24.7195 139.448 23.71 140.076 22.622 140.356C21.534 140.658 20.6591 140.501 20.0198 139.908C19.3804 139.314 19.1561 138.463 19.358 137.332C19.5599 136.234 20.1207 135.193 21.0405 134.196C21.9602 133.199 22.9697 132.561 24.0577 132.258C25.1457 131.99 26.0206 132.146 26.6599 132.74C27.2992 133.333 27.5236 134.173 27.3217 135.271C27.1198 136.391 26.559 137.455 25.6392 138.44V138.452Z" stroke="#1E1E1E" stroke-width="1.38" stroke-linecap="round" stroke-linejoin="round"/>
<path d="M31.1354 136.424C30.4849 137.085 30.1035 137.836 30.0026 138.698C29.9241 139.538 30.1484 140.221 30.6756 140.747C31.2139 141.274 31.9094 141.498 32.773 141.431C33.6367 141.319 34.3882 140.927 35.0388 140.277C35.6893 139.628 36.0931 138.844 36.1716 138.004C36.2613 137.152 36.037 136.447 35.4762 135.898C34.9154 135.349 34.2536 135.159 33.4012 135.26C32.5599 135.349 31.8084 135.741 31.1354 136.413M34.3209 138.9C34.0405 138.9 33.8162 138.788 33.6255 138.608C33.4572 138.44 33.3675 138.228 33.3563 137.948C33.3563 137.701 33.446 137.488 33.6367 137.298C33.8274 137.108 34.0405 137.018 34.2873 137.018C34.5789 137.018 34.8032 137.096 34.9715 137.264C35.1621 137.455 35.2519 137.69 35.2519 137.97C35.2519 138.205 35.1397 138.418 34.9602 138.597C34.7808 138.776 34.5677 138.888 34.3321 138.9H34.3209Z" fill="#1E1E1E"/>
<path d="M33.6251 138.62C33.8158 138.81 34.0514 138.9 34.3206 138.911C34.5561 138.9 34.758 138.799 34.9487 138.608C35.1394 138.418 35.2291 138.205 35.2403 137.981C35.2403 137.69 35.1394 137.455 34.9599 137.276C34.7917 137.108 34.5673 137.029 34.2757 137.029C34.0289 137.029 33.8158 137.13 33.6251 137.309C33.4345 137.488 33.3447 137.712 33.3447 137.959C33.3559 138.239 33.4457 138.452 33.6139 138.62H33.6251Z" fill="white"/>
<path d="M21.2095 130.018C22.0732 129.906 22.8247 129.514 23.4752 128.865C24.1258 128.215 24.5296 127.431 24.6081 126.591C24.6866 125.729 24.4623 125.023 23.9127 124.486C23.3631 123.948 22.6789 123.735 21.804 123.814C20.9627 123.903 20.2112 124.295 19.5383 124.967C18.8877 125.628 18.5063 126.379 18.4054 127.241C18.3381 128.103 18.5849 128.798 19.112 129.324C19.6504 129.85 20.3458 130.074 21.2095 130.007M23.6659 126.535C23.6659 126.782 23.5762 126.994 23.3855 127.185C23.1948 127.375 22.9817 127.465 22.7349 127.465C22.4657 127.465 22.2414 127.375 22.0507 127.185C21.8713 127.006 21.7815 126.793 21.7815 126.524C21.7815 126.278 21.8713 126.065 22.062 125.875C22.2526 125.684 22.4657 125.595 22.7125 125.595C22.9929 125.583 23.2172 125.662 23.3967 125.841C23.5874 126.031 23.6771 126.255 23.6659 126.535Z" fill="#1E1E1E"/>
<path d="M23.3852 127.185C23.5759 126.994 23.6656 126.782 23.6656 126.535C23.6656 126.255 23.5871 126.031 23.3964 125.841C23.217 125.662 22.9926 125.583 22.7122 125.595C22.4655 125.595 22.2523 125.695 22.0617 125.875C21.871 126.054 21.7812 126.278 21.7812 126.524C21.7812 126.793 21.871 127.006 22.0504 127.185C22.2411 127.375 22.4655 127.465 22.7346 127.465C22.9814 127.465 23.1945 127.364 23.3852 127.185Z" fill="white"/>
<path d="M40.703 109.669C39.9066 109.579 39.0654 109.68 38.1681 109.96C37.3044 110.251 36.5305 110.655 35.8463 111.17C34.8592 111.931 34.0965 112.906 33.5693 114.104C33.0197 115.302 32.8178 116.489 32.9412 117.665C33.1431 119.401 33.9282 121.148 35.3079 122.907C36.0369 123.825 36.8221 124.553 37.6745 125.113C38.7625 125.819 39.772 126.065 40.7142 125.875C41.2189 125.807 41.6452 125.572 41.9704 125.169C42.2957 124.766 42.4079 124.318 42.2733 123.825C42.206 123.512 41.9929 123.097 41.6564 122.548C41.0395 121.675 40.7366 120.947 40.7366 120.353C40.7366 119.715 41.0282 119.133 41.6227 118.629C42.1162 118.214 42.7219 117.901 43.4398 117.688C44.1464 117.464 44.9091 117.453 45.7279 117.643C46.7599 117.845 47.388 118.113 47.6123 118.449C48.117 117.296 48.117 116.086 47.6235 114.798C47.2085 113.712 46.4907 112.715 45.4812 111.83C44.0118 110.554 42.4191 109.837 40.6918 109.669H40.703Z" fill="#4FB35B"/>
<path d="M47.6235 118.438C48.1283 117.285 48.1283 116.075 47.6347 114.787C47.2197 113.701 46.5019 112.704 45.4924 111.819C44.023 110.543 42.4303 109.826 40.703 109.658C39.9066 109.568 39.0654 109.669 38.1681 109.949C37.3044 110.24 36.5305 110.643 35.8463 111.158C34.8592 111.92 34.0965 112.894 33.5693 114.093C33.0197 115.291 32.8178 116.478 32.9412 117.654C33.1431 119.39 33.9282 121.137 35.3079 122.896C36.0369 123.814 36.8221 124.542 37.6745 125.102C38.7625 125.807 39.772 126.054 40.7142 125.863C41.2189 125.796 41.6452 125.561 41.9704 125.158C42.2957 124.755 42.4079 124.307 42.2733 123.814C42.206 123.5 41.9929 123.086 41.6564 122.537C41.0395 121.664 40.7366 120.936 40.7366 120.342C40.7366 119.704 41.0283 119.121 41.6227 118.617C42.1162 118.203 42.7219 117.889 43.4398 117.677C44.1464 117.453 44.9091 117.441 45.7279 117.632C46.7599 117.833 47.388 118.102 47.6123 118.438H47.6235Z" stroke="#1E1E1E" stroke-width="1.38" stroke-linecap="round" stroke-linejoin="round"/>
</g>
<path d="M10.8713 167.408L10.2432 173.947C11.4433 174.609 13.2155 175.181 15.5261 175.652C17.1974 175.989 18.8462 176.247 20.495 176.404C21.168 176.46 21.8073 176.224 22.413 175.708C22.9402 175.282 23.3776 174.721 23.7141 174.026C24.073 173.353 24.1964 172.601 24.1067 171.771C24.0506 170.975 23.8263 170.235 23.4225 169.539C22.7831 168.339 21.5606 167.487 19.7547 166.96C18.3751 166.556 16.3 165.972 13.5184 165.232L12.3855 165.782L10.8713 167.397V167.408Z" fill="white"/>
<path d="M20.5057 176.426C18.8569 176.258 17.1969 176.011 15.5368 175.675C13.215 175.204 11.4541 174.632 10.2539 173.97L10.882 167.431L12.3962 165.815L13.5291 165.266C16.3108 166.017 18.3858 166.589 19.7654 166.993C21.5713 167.52 22.7939 168.384 23.4332 169.573C23.837 170.257 24.0726 171.009 24.1174 171.805C24.2072 172.635 24.0726 173.375 23.7249 174.06C23.3884 174.755 22.9509 175.305 22.4237 175.742C21.8068 176.258 21.1675 176.494 20.5057 176.437V176.426Z" stroke="#1E1E1E" stroke-width="1.38" stroke-linecap="round" stroke-linejoin="round"/>
<path d="M11.1627 173.14L13.664 167.184C13.5294 165.737 12.9013 164.481 11.7796 163.426C10.4897 162.271 8.9755 161.744 7.22574 161.856C5.47597 161.991 3.9954 162.709 2.77281 164.01C1.57265 165.344 0.978179 166.892 1.00061 168.664C1.03426 170.425 1.68481 171.895 2.94106 173.05C4.08513 174.071 5.43111 174.587 6.99019 174.587C8.53806 174.609 9.9289 174.127 11.1515 173.129L11.1627 173.14Z" fill="white"/>
<path d="M11.1847 173.151C9.95089 174.149 8.57126 174.632 7.02339 174.609C5.46431 174.609 4.10712 174.093 2.97426 173.073C1.71802 171.906 1.07868 170.448 1.03381 168.687C1.01138 166.926 1.60585 165.367 2.80601 164.032C4.0286 162.72 5.50917 162.002 7.25894 161.879C9.0087 161.766 10.5341 162.282 11.8128 163.449C12.9232 164.503 13.5514 165.759 13.6972 167.206" stroke="#1E1E1E" stroke-width="1.38" stroke-linecap="round" stroke-linejoin="round"/>
<defs>
<clipPath id="clip0_7752_14909">
<rect width="76" height="186" fill="white" transform="translate(13.3838)"/>
</clipPath>
</defs>
</svg>
