<svg width="170" height="170" viewBox="0 0 170 170" fill="none" xmlns="http://www.w3.org/2000/svg">
<path d="M112.212 150.6L112.109 150.662L112.151 150.683C112.151 150.683 112.182 150.631 112.212 150.611M101.002 109.909L95.7052 113.444C91.9133 116.391 90.3162 117.071 90.9138 115.474L85.8338 127.045C84.2264 130.971 83.1342 134.516 82.5571 137.679L83.8555 140.647L85.6484 141.1C87.194 141.543 90.1925 142.522 94.6336 144.037C99.0747 145.562 104 148.148 109.41 151.816L112.109 150.652L112.212 150.59C114.119 148.024 115.963 144.84 117.766 141.059L121.187 133.269L119.889 136.051C121.095 133.186 121.496 129.364 121.084 124.572L120.105 118.287C118.766 117.421 115.623 115.906 110.698 113.742C107.637 112.403 105.103 111.352 103.073 110.6L101.002 109.899V109.909Z" fill="white"/>
<path d="M100.992 109.89L103.063 110.591C105.093 111.343 107.628 112.394 110.688 113.733C115.624 115.897 118.757 117.412 120.096 118.277M122.415 130.447L121.178 133.26L117.757 141.05C115.954 144.831 114.109 148.015 112.203 150.581M82.5479 137.66C83.1352 134.496 84.2274 130.941 85.8246 127.026L90.9045 115.454M83.8462 140.637L85.6391 141.091C87.1847 141.534 90.1832 142.513 94.6243 144.028C99.0654 145.553 103.991 148.139 109.4 151.807M112.1 150.643L112.203 150.581M112.203 150.581C112.203 150.581 112.152 150.632 112.141 150.653" stroke="#1E1E1E" stroke-linecap="round" stroke-linejoin="round"/>
<path d="M145.962 53.4365C145.261 52.2825 144.344 51.2417 143.221 50.2938C142.129 49.4179 140.913 48.6863 139.553 48.0887C138.182 47.4807 136.801 47.0789 135.421 46.8728C133.906 46.7079 132.525 46.7388 131.278 46.9861C130.207 47.1922 129.073 47.6147 127.847 48.2329C126.909 48.7172 126.013 49.3458 125.158 50.1289L123.993 51.3036C122.231 53.2407 121.294 55.5592 121.17 58.2486L120.84 68.5424L123.282 68.9236C125.312 69.3873 127.373 70.0983 129.465 71.0669C131.608 71.9531 133.535 72.9938 135.246 74.1788C136.09 74.7764 136.729 75.2916 137.152 75.7141L144.53 68.5115C146.415 66.5949 147.477 64.3383 147.734 61.7314C147.775 61.144 147.796 60.5876 147.775 60.0621C147.775 58.8977 147.631 57.8158 147.353 56.7957C147.033 55.518 146.58 54.3948 145.972 53.4365H145.962Z" fill="#EE9CA5"/>
<path d="M129.445 71.0464C131.588 71.9326 133.515 72.9733 135.225 74.1582C136.07 74.7559 136.709 75.2711 137.132 75.6936L144.509 68.491C146.395 66.5744 147.456 64.3178 147.714 61.7108C147.755 61.1235 147.776 60.5671 147.755 60.0416C147.755 58.8772 147.611 57.7953 147.333 56.7752C147.013 55.4974 146.56 54.3743 145.952 53.416C145.251 52.2619 144.334 51.2212 143.211 50.2732C142.119 49.3974 140.903 48.6658 139.543 48.0682C138.172 47.4602 136.792 47.0584 135.411 46.8523C133.896 46.6874 132.515 46.7183 131.269 46.9656C130.197 47.1717 129.064 47.5942 127.837 48.2124C126.9 48.6967 126.003 49.3253 125.148 50.1084L123.984 51.2831C122.222 53.2202 121.284 55.5387 121.16 58.228L120.831 68.5219L123.273 68.9031C125.303 69.3668 127.363 70.0778 129.455 71.0464H129.445ZM129.445 71.0464L132.825 63.3492" stroke="#B34E58" stroke-linecap="round" stroke-linejoin="round"/>
<path d="M107.101 46.2829C105.618 46.4271 104.237 46.7672 102.949 47.3133C101.547 47.8594 100.301 48.5395 99.1981 49.3638C98.0028 50.2294 97.0342 51.2392 96.282 52.3726C95.6534 53.3206 95.1382 54.4232 94.757 55.67C94.4581 56.6901 94.283 57.772 94.2315 58.9055C94.1902 59.3485 94.1799 59.905 94.2108 60.585C94.3139 63.2126 95.2928 65.5104 97.1372 67.4785L104.165 74.9799C104.618 74.5987 105.278 74.1247 106.153 73.5476C107.905 72.4451 109.883 71.5074 112.068 70.714C114.211 69.8382 116.303 69.1993 118.343 68.8077L120.775 68.5089L120.878 58.2357C120.878 55.5257 120.043 53.1764 118.374 51.1774L117.22 49.9512C116.416 49.1474 115.54 48.4674 114.592 47.9006C113.521 47.2824 112.418 46.8393 111.264 46.5611C109.914 46.2108 108.523 46.118 107.101 46.2726V46.2829Z" fill="#EE9CA5"/>
<path d="M112.059 70.7045C114.202 69.8286 116.294 69.1898 118.334 68.7982L120.766 68.4994L120.869 58.2262C120.869 55.5162 120.035 53.1668 118.365 51.1678L117.211 49.9416C116.407 49.1379 115.532 48.4578 114.584 47.8911C113.512 47.2729 112.409 46.8298 111.255 46.5516C109.906 46.2012 108.515 46.1085 107.093 46.2631C105.609 46.4073 104.228 46.7474 102.94 47.2935C101.539 47.8396 100.292 48.5197 99.1893 49.344C97.994 50.2095 97.0254 51.2194 96.2732 52.3528C95.6446 53.3008 95.1294 54.4033 94.7482 55.6501C94.4494 56.6702 94.2742 57.7522 94.2227 58.8856C94.1814 59.3287 94.1711 59.8851 94.2021 60.5652C94.3051 63.1928 95.284 65.4906 97.1284 67.4587L104.156 74.9601C104.609 74.5788 105.269 74.1049 106.145 73.5278C107.896 72.4253 109.875 71.4876 112.059 70.6942V70.7045ZM112.059 70.7045L108.989 62.8321" stroke="#B34E58" stroke-linecap="round" stroke-linejoin="round"/>
<path d="M159.822 67.9021C158.812 67.222 157.72 66.7068 156.545 66.3358C155.535 66.037 154.453 65.8619 153.309 65.8103L151.609 65.7794C149.023 65.9031 146.735 66.882 144.736 68.7161L137.214 75.7332L138.647 77.7219C139.78 79.5148 140.728 81.4829 141.501 83.6365C142.377 85.7798 143.016 87.8715 143.407 89.9117C143.593 90.9524 143.685 91.7665 143.685 92.3435L153.979 92.4465C156.679 92.4465 159.018 91.6016 161.017 89.9323L162.264 88.7886C163.047 87.9745 163.727 87.1193 164.294 86.2022C164.912 85.1306 165.365 84.0075 165.654 82.8328C165.973 81.5345 166.076 80.1434 165.942 78.6699C165.798 77.2995 165.458 75.9187 164.912 74.5173C164.366 73.116 163.686 71.8692 162.861 70.7666C161.955 69.592 160.945 68.6337 159.832 67.8918L159.822 67.9021Z" fill="#EE9CA5"/>
<path d="M141.48 83.6254C142.356 85.7687 142.995 87.8604 143.386 89.9006C143.572 90.9413 143.664 91.7554 143.664 92.3324L153.958 92.4354C156.658 92.4354 158.997 91.5905 160.996 89.9212L162.243 88.7775C163.026 87.9634 163.706 87.1082 164.273 86.1911C164.891 85.1195 165.344 83.9963 165.633 82.8217C165.952 81.5233 166.055 80.1323 165.921 78.6588C165.777 77.2883 165.437 75.9076 164.891 74.5062C164.345 73.1049 163.665 71.8581 162.84 70.7555C161.934 69.5808 160.924 68.6226 159.811 67.891C158.801 67.2109 157.709 66.6957 156.534 66.3247C155.524 66.0259 154.442 65.8507 153.299 65.7992L151.598 65.7683C149.012 65.892 146.725 66.8709 144.726 68.705L137.204 75.7221L138.636 77.7108C139.769 79.5037 140.717 81.4718 141.49 83.6254H141.48ZM141.48 83.6254L149.332 80.5548" stroke="#B34E58" stroke-linecap="round" stroke-linejoin="round"/>
<path d="M162.066 96.7752C161.736 96.3631 161.344 95.9612 160.891 95.5593C158.944 93.787 156.625 92.87 153.946 92.7875L143.632 92.4269L143.261 94.8484C142.828 96.8886 142.117 98.9494 141.138 101.031C140.262 103.174 139.221 105.101 138.006 106.801C137.398 107.656 136.882 108.306 136.46 108.749L143.704 116.096C145.62 117.981 147.877 119.042 150.463 119.29L152.133 119.383C153.297 119.362 154.389 119.228 155.399 118.96C156.646 118.63 157.769 118.156 158.758 117.528C159.881 116.858 160.922 115.951 161.891 114.807C162.777 113.736 163.519 112.51 164.127 111.129C164.724 109.769 165.116 108.409 165.301 107.028C165.518 105.565 165.476 104.174 165.209 102.844C164.982 101.67 164.57 100.536 163.972 99.444C163.488 98.5166 162.849 97.6305 162.066 96.7752Z" fill="#EE9CA5"/>
<path d="M141.139 101.021C140.263 103.164 139.222 105.091 138.006 106.791C137.398 107.646 136.883 108.295 136.46 108.739L143.704 116.085C145.621 117.971 147.877 119.032 150.464 119.28L152.133 119.372C153.297 119.352 154.39 119.218 155.399 118.95C156.646 118.62 157.769 118.146 158.759 117.518C159.882 116.848 160.922 115.941 161.891 114.797C162.777 113.726 163.519 112.5 164.127 111.119C164.725 109.759 165.116 108.398 165.302 107.018C165.518 105.555 165.477 104.163 165.209 102.834C164.982 101.66 164.57 100.526 163.973 99.4339C163.488 98.5065 162.849 97.6203 162.066 96.7651C161.737 96.3529 161.345 95.9511 160.892 95.5492C158.944 93.7769 156.626 92.8598 153.947 92.7774L143.632 92.4167L143.261 94.8382C142.828 96.8784 142.117 98.9393 141.139 101.021ZM141.139 101.021L148.836 104.4" stroke="#B34E58" stroke-linecap="round" stroke-linejoin="round"/>
<path d="M136.46 108.771L134.482 110.234C132.699 111.357 130.731 112.295 128.567 113.068C126.455 113.964 124.363 114.593 122.271 114.964C121.241 115.159 120.437 115.252 119.84 115.242L119.757 125.546C119.737 128.235 120.561 130.585 122.241 132.594C122.684 133.12 123.075 133.532 123.415 133.831C124.24 134.624 125.105 135.304 126.002 135.86C127.114 136.53 128.227 136.994 129.361 137.262C130.69 137.581 132.081 137.664 133.544 137.509C134.915 137.365 136.295 137.025 137.697 136.479C139.016 135.994 140.262 135.314 141.447 134.428C142.581 133.552 143.529 132.553 144.302 131.44C144.982 130.42 145.507 129.317 145.878 128.143C146.177 127.102 146.352 126.01 146.414 124.887V123.197C146.301 120.6 145.332 118.302 143.508 116.314L136.471 108.781L136.46 108.771Z" fill="#EE9CA5"/>
<path d="M128.557 113.056C126.445 113.953 124.353 114.581 122.262 114.952C121.231 115.148 120.428 115.241 119.83 115.231L119.747 125.535C119.727 128.224 120.551 130.573 122.231 132.583C122.674 133.108 123.065 133.52 123.405 133.819C124.23 134.613 125.095 135.293 125.992 135.849C127.105 136.519 128.217 136.983 129.351 137.251C130.68 137.57 132.071 137.652 133.534 137.498C134.905 137.354 136.286 137.014 137.687 136.467C139.006 135.983 140.253 135.303 141.438 134.417C142.571 133.541 143.519 132.542 144.292 131.429C144.972 130.409 145.498 129.306 145.868 128.131C146.167 127.091 146.342 125.998 146.404 124.875V123.185C146.291 120.589 145.322 118.291 143.499 116.302L136.461 108.77L134.482 110.233C132.7 111.356 130.732 112.294 128.568 113.067L128.557 113.056ZM128.557 113.056L131.608 120.918" stroke="#B34E58" stroke-linecap="round" stroke-linejoin="round"/>
<path d="M97.2326 93.8673L96.944 91.4149L86.6605 91.3325C83.9608 91.3016 81.6115 92.1362 79.6022 93.8364C79.0767 94.2692 78.6748 94.6504 78.376 94.9905C77.5723 95.7942 76.8922 96.6597 76.3358 97.5974C75.6763 98.7309 75.2023 99.854 74.9241 100.977C74.6047 102.337 74.5325 103.718 74.6974 105.119C74.8417 106.593 75.192 107.974 75.7278 109.272C76.1915 110.581 76.8716 111.838 77.7783 113.023C78.613 114.166 79.6228 115.135 80.7872 115.939C81.7145 116.578 82.7965 117.083 84.0433 117.443C85.1046 117.742 86.1968 117.927 87.32 117.989C87.7631 118.031 88.3195 118.041 88.9996 118.01C91.6271 117.897 93.9249 116.918 95.893 115.084L103.405 108.036C103.013 107.613 102.529 106.954 101.962 106.067C100.87 104.295 99.922 102.327 99.1285 100.153C98.2218 98.0302 97.5829 95.9488 97.2223 93.8776L97.2326 93.8673Z" fill="#EE9CA5"/>
<path d="M99.1296 100.132C98.2228 98.0096 97.5839 95.9282 97.2233 93.8571L96.9348 91.4047L86.6512 91.3222C83.9516 91.2913 81.6022 92.126 79.5929 93.8261C79.0674 94.2589 78.6655 94.6402 78.3667 94.9802C77.563 95.7839 76.8829 96.6495 76.3265 97.5872C75.667 98.7206 75.193 99.8438 74.9148 100.967C74.5954 102.327 74.5233 103.708 74.6881 105.109C74.8324 106.583 75.1827 107.963 75.7185 109.262C76.1822 110.57 76.8623 111.827 77.7691 113.012C78.6037 114.156 79.6135 115.125 80.7779 115.929C81.7052 116.567 82.7872 117.072 84.034 117.433C85.0953 117.732 86.1876 117.917 87.3107 117.979C87.7538 118.02 88.3102 118.031 88.9903 118C91.6178 117.886 93.9157 116.907 95.8838 115.073L103.395 108.025C103.004 107.603 102.52 106.943 101.953 106.057C100.861 104.285 99.9127 102.317 99.1193 100.143L99.1296 100.132ZM99.1296 100.132L91.2572 103.203" stroke="#B34E58" stroke-linecap="round" stroke-linejoin="round"/>
<path d="M96.8381 67.6668C94.9834 65.7605 92.7371 64.6889 90.1198 64.4416L88.4093 64.3798C87.2965 64.4004 86.2043 64.5343 85.1532 64.7816C83.9579 65.0804 82.8451 65.5441 81.8147 66.1727C80.5885 66.9764 79.5478 67.8935 78.6925 68.9445C77.8064 70.0161 77.0748 71.2217 76.4771 72.5819C75.8795 73.942 75.4673 75.3434 75.2819 76.7241C75.0758 78.0946 75.1067 79.465 75.3746 80.8561C75.6116 82.0205 76.0135 83.1642 76.5905 84.2977C77.116 85.2457 77.7549 86.1421 78.4865 86.9871L79.7023 88.172C81.6498 89.9237 83.9476 90.8511 86.6061 90.9851L96.9103 91.3457C96.9515 90.7378 97.0854 89.9134 97.3121 88.8933C97.7758 86.8634 98.4868 84.8026 99.4657 82.6902C100.352 80.5676 101.382 78.651 102.567 76.9302L104.082 75.0136L96.8381 67.6668Z" fill="#EE9CA5"/>
<path d="M99.4657 82.6709C100.352 80.5483 101.382 78.6317 102.567 76.9109L104.082 74.9944L96.8381 67.6475C94.9834 65.7412 92.7371 64.6696 90.1198 64.4223L88.4093 64.3605C87.2965 64.3811 86.2043 64.515 85.1532 64.7623C83.9579 65.0612 82.8451 65.5248 81.8147 66.1534C80.5885 66.9571 79.5478 67.8742 78.6925 68.9252C77.8064 69.9968 77.0748 71.2024 76.4771 72.5626C75.8692 73.9536 75.4673 75.3241 75.2819 76.7048C75.0758 78.0753 75.1067 79.4457 75.3746 80.8368C75.6116 82.0012 76.0135 83.1449 76.5905 84.2784C77.116 85.2264 77.7549 86.1228 78.4865 86.9678L79.7023 88.1527C81.6498 89.9045 83.9476 90.8318 86.6061 90.9658L96.9103 91.3264C96.9515 90.7185 97.0854 89.8941 97.3121 88.874C97.7758 86.8441 98.4868 84.7833 99.4657 82.6709ZM99.4657 82.6709L91.7273 79.2706" stroke="#B34E58" stroke-linecap="round" stroke-linejoin="round"/>
<path d="M119.739 124.928L119.77 115.263C119.183 115.201 118.39 115.057 117.38 114.83C115.36 114.356 113.289 113.635 111.187 112.656C109.064 111.77 107.137 110.75 105.417 109.575L103.459 108.091L96.3799 114.655C94.5561 116.396 93.5669 118.488 93.402 120.92L93.3608 122.486C93.4021 123.548 93.5772 124.578 93.8657 125.588C94.2161 126.721 94.7004 127.783 95.3392 128.792C96.0193 129.874 96.9467 130.863 98.1213 131.781C99.2548 132.698 100.491 133.419 101.831 133.955C103.119 134.573 104.479 134.985 105.922 135.202C107.344 135.428 108.714 135.439 110.023 135.243C111.228 135.026 112.341 134.666 113.351 134.15C114.299 133.687 115.175 133.11 115.968 132.419C116.349 132.121 116.731 131.76 117.133 131.348C118.802 129.586 119.667 127.442 119.729 124.918L119.739 124.928Z" fill="#EE9CA5"/>
<path d="M111.177 112.646C109.054 111.76 107.127 110.74 105.406 109.565L103.449 108.081L96.3697 114.645C94.5459 116.386 93.5567 118.478 93.3918 120.91L93.3506 122.476C93.3918 123.537 93.567 124.568 93.8555 125.577C94.2058 126.711 94.6901 127.772 95.329 128.782C96.0091 129.864 96.9364 130.853 98.1111 131.77C99.2446 132.687 100.481 133.409 101.821 133.944C103.109 134.563 104.469 134.975 105.911 135.191C107.333 135.418 108.704 135.428 110.012 135.232C111.218 135.016 112.331 134.655 113.341 134.14C114.289 133.677 115.164 133.1 115.958 132.409C116.339 132.11 116.72 131.75 117.122 131.338C118.792 129.576 119.657 127.432 119.719 124.918L119.75 115.253C119.162 115.191 118.369 115.047 117.359 114.82C115.34 114.346 113.268 113.625 111.166 112.646H111.177ZM111.177 112.646L107.756 120.425" stroke="#B34E58" stroke-linecap="round" stroke-linejoin="round"/>
<path d="M136.79 72.206C134.915 70.6809 132.864 69.4341 130.639 68.4655C128.413 67.497 126.105 66.8169 123.725 66.4665C118.397 65.6834 113.565 66.2914 109.216 68.311C105.682 70.0009 102.58 72.4636 99.9116 75.7094C97.315 78.8727 95.4705 82.3761 94.368 86.2299C93.3067 89.9291 93.1418 93.5355 93.8837 97.0596C94.6462 100.553 96.2434 103.809 98.6854 106.807C101.9 110.682 105.661 113.567 109.989 115.473C114.348 117.39 119.016 118.204 123.992 117.925C127.877 117.699 131.36 116.679 134.441 114.875C137.542 113.041 140.098 110.486 142.107 107.199C144.199 103.788 145.528 100.048 146.085 95.9982C146.682 91.8456 146.394 87.8889 145.219 84.1278C143.818 79.594 141.005 75.6166 136.78 72.206H136.79Z" fill="white"/>
<path d="M145.22 84.1182C143.819 79.5844 141.006 75.607 136.781 72.1963C134.906 70.6713 132.855 69.4245 130.63 68.4559C128.394 67.477 126.096 66.8072 123.716 66.4569C118.388 65.6738 113.556 66.2817 109.207 68.3013C105.673 69.9912 102.572 72.4539 99.9028 75.6997C97.3062 78.8631 95.4617 82.3665 94.3592 86.2202C93.2979 89.9194 93.133 93.5259 93.8749 97.0499C94.6374 100.543 96.2346 103.799 98.6766 106.798C101.892 110.672 105.653 113.557 109.98 115.463C114.339 117.38 119.007 118.194 123.984 117.916C127.868 117.689 131.351 116.669 134.432 114.866C137.534 113.032 140.089 110.476 142.098 107.189C144.19 103.779 145.519 100.038 146.076 95.9886C146.673 91.836 146.385 87.8792 145.21 84.1182H145.22Z" stroke="#1E1E1E" stroke-linecap="round" stroke-linejoin="round"/>
<path d="M103.901 95.7121C104.829 96.1243 105.777 96.1346 106.735 95.7636C107.673 95.403 108.342 94.7538 108.755 93.8264C109.167 92.8991 109.177 91.9717 108.806 91.0443C108.435 90.086 107.786 89.406 106.848 88.9938C105.911 88.5816 104.994 88.5713 104.056 88.9629C103.108 89.3132 102.438 89.9418 102.026 90.8692C101.614 91.7965 101.604 92.7342 101.985 93.6822C102.335 94.6302 102.964 95.2999 103.891 95.7121H103.901Z" fill="#F5CED3"/>
<path d="M131.425 106.617C132.353 106.246 133.012 105.597 133.425 104.669C133.837 103.742 133.857 102.815 133.497 101.898C133.126 100.939 132.477 100.259 131.539 99.8471C130.601 99.435 129.674 99.4247 128.726 99.8059C127.778 100.156 127.108 100.785 126.696 101.712C126.284 102.64 126.273 103.577 126.655 104.525C127.015 105.473 127.654 106.153 128.592 106.565C129.53 106.978 130.467 106.988 131.425 106.617Z" fill="#F5CED3"/>
<path d="M117.566 101.434C119.153 101.558 120.678 100.043 122.131 96.9C119.431 96.189 117.35 95.0968 115.897 93.6439C114.393 96.0139 113.816 97.7347 114.145 98.796C114.29 99.3936 114.578 99.8882 115.021 100.28C115.166 100.496 115.557 100.774 116.206 101.104C116.897 101.351 117.36 101.465 117.577 101.434H117.566Z" fill="#FDE5EA"/>
<path d="M122.119 96.8905C120.666 100.033 119.152 101.548 117.555 101.424C117.338 101.455 116.875 101.342 116.184 101.095C115.535 100.765 115.143 100.487 114.999 100.27C114.556 99.8787 114.268 99.3841 114.123 98.7865C113.783 97.7251 114.371 96.0044 115.875 93.6344C117.338 95.0976 119.42 96.1795 122.109 96.8905H122.119Z" stroke="#1E1E1E" stroke-linecap="round" stroke-linejoin="round"/>
<path d="M113.915 91.5306C114.173 90.5105 114.152 89.7067 113.833 89.1194C113.791 88.9442 113.596 88.7485 113.245 88.5218C112.843 88.4187 112.555 88.3981 112.39 88.4806C112.019 88.5733 111.607 88.8721 111.154 89.3564L110.597 90.0365" stroke="#1E1E1E" stroke-linecap="round" stroke-linejoin="round"/>
<path d="M128.124 97.742C128.381 96.7219 128.361 95.9182 128.041 95.3308C128 95.1557 127.804 94.9599 127.454 94.7332C127.052 94.6302 126.763 94.6095 126.599 94.692C126.228 94.7847 125.815 95.0835 125.362 95.5678L124.806 96.2479" stroke="#1E1E1E" stroke-linecap="round" stroke-linejoin="round"/>
<path d="M125.948 128.87C130.894 130.724 136.54 130.508 142.888 128.221C147.473 126.211 149.863 123.718 150.08 120.75C150.152 119.812 150.018 118.906 149.668 118.05C149.307 117.185 148.751 116.474 147.998 115.928C146.71 114.959 144.938 114.732 142.692 115.237C139.013 116.051 133.717 117.041 126.782 118.195L120.188 125.088C120.342 125.397 120.847 125.871 121.682 126.52C122.908 127.468 124.33 128.251 125.958 128.87H125.948Z" fill="white"/>
<path d="M120.168 125.069C120.323 125.378 120.827 125.852 121.662 126.501C122.888 127.449 124.31 128.232 125.938 128.85C130.884 130.705 136.531 130.489 142.878 128.201C147.464 126.192 149.854 123.698 150.071 120.731C150.143 119.793 150.009 118.886 149.658 118.031C149.298 117.166 148.741 116.455 147.989 115.908C146.701 114.94 144.929 114.713 142.683 115.218C139.004 116.032 133.708 117.021 126.773 118.175" stroke="#1E1E1E" stroke-linecap="round" stroke-linejoin="round"/>
<path d="M89.3908 112.788C84.62 110.522 80.8486 106.317 78.0871 100.156C76.3457 95.4569 76.4694 92.005 78.4581 89.7999C79.0866 89.0889 79.8285 88.5634 80.6838 88.2233C81.5596 87.8833 82.4561 87.7906 83.3732 87.9451C84.96 88.1924 86.3614 89.3053 87.5566 91.2837C89.5247 94.4986 92.5026 98.9912 96.4903 104.772L96.1194 114.303C95.7897 114.406 95.0993 114.375 94.0483 114.221C92.5129 113.994 90.957 113.52 89.3908 112.788Z" fill="white"/>
<path d="M96.1492 114.302C95.8194 114.405 95.1291 114.374 94.078 114.22C92.5427 113.993 90.9868 113.519 89.4206 112.787C84.6497 110.52 80.8784 106.316 78.1169 100.165C76.3755 95.4661 76.4992 92.0142 78.4879 89.8092C79.1164 89.0982 79.8583 88.5727 80.7136 88.2326C81.5894 87.8926 82.4859 87.7998 83.4029 87.9544C84.9898 88.2017 86.3911 89.3146 87.5864 91.293C89.5545 94.5078 92.5324 99.0004 96.5201 104.781" stroke="#1E1E1E" stroke-linecap="round" stroke-linejoin="round"/>
<path d="M109.53 112.998C107.758 112.772 105.429 112.535 102.523 112.298C101.38 113.895 99.1643 115.883 95.8773 118.284C98.9273 118.583 101.74 118.192 104.316 117.13C106.109 116.368 107.675 115.337 109.025 114.039C109.314 113.72 109.479 113.369 109.53 112.998ZM102.523 112.298C102.523 112.298 102.565 112.215 102.596 112.184C102.317 111.432 101.895 110.587 101.328 109.639C100.153 107.795 98.7933 106.465 97.258 105.641C94.4862 105.353 91.8999 105.754 89.4784 106.857C89.4578 106.857 89.4372 106.878 89.4062 106.898C90.9519 107.558 92.2914 108.557 93.4249 109.897C93.9607 110.546 94.3625 111.144 94.5995 111.679C97.5877 111.885 100.226 112.081 102.523 112.277M94.5995 111.679C94.4656 111.679 94.3419 111.669 94.208 111.659L84.6251 111.051C84.6148 111.308 84.6766 111.587 84.8106 111.875C85.501 113.266 86.5211 114.472 87.8709 115.471C89.8596 116.955 92.4563 117.882 95.6403 118.233C95.7124 118.253 95.7948 118.264 95.8773 118.264C99.1643 115.873 101.38 113.874 102.523 112.277C100.226 112.081 97.5877 111.875 94.5995 111.679C94.5995 111.7 94.6201 111.721 94.6201 111.741C93.5485 113.173 91.7556 114.647 89.262 116.162C91.7659 114.647 93.5485 113.173 94.6201 111.741C94.6201 111.721 94.5995 111.7 94.5995 111.679ZM94.208 111.659C94.3419 111.659 94.4656 111.669 94.5995 111.679C94.3522 111.144 93.9607 110.546 93.4249 109.897C92.2914 108.557 90.9519 107.558 89.4062 106.898C87.7885 107.64 86.3562 108.64 85.1197 109.876C84.79 110.247 84.6251 110.639 84.6251 111.051L94.208 111.659ZM97.5671 105.641C97.4538 105.631 97.3507 105.621 97.2477 105.631C98.783 106.455 100.143 107.784 101.318 109.629C101.885 110.566 102.297 111.422 102.585 112.174C102.554 112.205 102.523 112.246 102.513 112.287C105.419 112.524 107.758 112.751 109.52 112.988C109.52 112.936 109.52 112.895 109.53 112.844C109.561 112.359 109.417 111.947 109.108 111.618C107.974 110.309 106.635 109.186 105.089 108.238C102.833 106.867 100.329 106.002 97.5671 105.651V105.641Z" fill="#4FB35B"/>
<path d="M101.329 109.638C100.155 107.793 98.7947 106.464 97.2593 105.64M102.597 112.172C102.319 111.42 101.896 110.575 101.329 109.627M102.587 112.172C102.556 112.203 102.514 112.286 102.514 112.286C105.42 112.523 107.759 112.749 109.521 112.986M84.6265 111.049L94.2093 111.657C94.3433 111.657 94.4669 111.667 94.6009 111.678M94.6009 111.678C94.3536 111.142 93.962 110.544 93.4262 109.895C92.2928 108.556 90.9532 107.556 89.4076 106.897M94.6009 111.678C94.6009 111.698 94.6215 111.719 94.6215 111.74C93.5499 113.172 91.7672 114.645 89.2633 116.16M94.6009 111.678C97.5891 111.884 100.227 112.08 102.525 112.275C101.381 113.873 99.1656 115.861 95.8786 118.262" stroke="#37773E" stroke-linecap="round" stroke-linejoin="round"/>
<path d="M109.028 114.036C109.316 113.717 109.481 113.366 109.533 112.995C109.533 112.944 109.533 112.903 109.543 112.851C109.574 112.367 109.43 111.955 109.121 111.625C107.987 110.316 106.648 109.193 105.102 108.245C102.845 106.875 100.341 106.009 97.5799 105.659C97.4665 105.649 97.3635 105.638 97.2604 105.649C94.4886 105.36 91.9023 105.762 89.4808 106.864C89.4602 106.864 89.4396 106.885 89.4087 106.906C87.7909 107.648 86.3587 108.647 85.1222 109.884C84.7924 110.255 84.6276 110.646 84.6276 111.058C84.6173 111.316 84.6791 111.594 84.813 111.883C85.5034 113.274 86.5235 114.479 87.8734 115.479C89.8621 116.963 92.4587 117.89 95.6324 118.24C95.7045 118.261 95.787 118.271 95.8694 118.271C98.9194 118.57 101.732 118.178 104.308 117.117C106.101 116.355 107.668 115.324 109.017 114.026L109.028 114.036Z" stroke="#1E1E1E" stroke-linecap="round" stroke-linejoin="round"/>
<path d="M125.351 123.975L123.269 124.305C125.454 126.376 127.865 128.684 130.492 131.25C130.781 130.961 130.946 130.57 130.987 130.075C131.059 128.323 130.832 126.602 130.307 124.913C128.751 124.212 127.102 123.903 125.361 123.975M123.176 124.305H123.279C121.126 122.244 119.178 120.43 117.458 118.864C117.2 120.059 117.149 121.883 117.313 124.336C117.375 125.582 117.458 126.757 117.561 127.839C117.602 127.89 117.653 127.942 117.726 127.983C120.147 130.085 122.589 131.373 125.052 131.847C126.711 132.177 128.267 132.115 129.73 131.641C130.049 131.548 130.307 131.414 130.503 131.239C127.875 128.684 125.464 126.365 123.279 124.294H123.176C122.857 126.077 122.991 128.395 123.568 131.25C122.981 128.395 122.857 126.087 123.176 124.305ZM117.478 118.751C117.478 118.751 117.458 118.813 117.458 118.864C119.178 120.43 121.126 122.244 123.279 124.294L125.361 123.965C127.102 123.882 128.751 124.191 130.307 124.902C130.286 124.861 130.276 124.83 130.276 124.81C129.452 122.285 127.999 120.111 125.928 118.287C124.279 117.679 122.383 117.576 120.24 117.968C119.158 118.174 118.241 118.431 117.489 118.74M112.244 114.186C111.966 114.495 111.811 114.856 111.79 115.278C111.739 117.143 112.038 118.988 112.697 120.832C113.645 123.449 115.273 125.778 117.561 127.829C117.458 126.747 117.375 125.572 117.313 124.325C117.149 121.873 117.2 120.049 117.458 118.854C115.428 116.968 113.686 115.412 112.244 114.186ZM125.917 118.287C125.835 118.205 125.752 118.122 125.67 118.06C123.558 116.257 121.229 114.979 118.684 114.248C116.932 113.743 115.201 113.516 113.47 113.568C113.037 113.568 112.656 113.753 112.316 114.104C112.285 114.124 112.264 114.155 112.233 114.186C113.676 115.412 115.417 116.968 117.447 118.854C117.447 118.802 117.458 118.771 117.468 118.74C118.22 118.421 119.137 118.163 120.219 117.968C122.362 117.566 124.258 117.679 125.907 118.287H125.917Z" fill="#4FB35B"/>
<path d="M117.551 127.831C117.448 126.749 117.366 125.574 117.304 124.327C117.139 121.875 117.191 120.051 117.448 118.856M117.448 118.856C115.418 116.97 113.677 115.414 112.234 114.188M117.448 118.856C117.448 118.856 117.459 118.773 117.469 118.742C118.221 118.423 119.138 118.165 120.22 117.969C122.363 117.568 124.259 117.681 125.908 118.289M123.559 131.252C122.971 128.397 122.848 126.089 123.167 124.307H123.27C121.117 122.246 119.169 120.432 117.448 118.866M130.298 124.904C128.742 124.193 127.093 123.884 125.352 123.966L123.27 124.296C125.455 126.367 127.866 128.686 130.493 131.241" stroke="#37773E" stroke-linecap="round" stroke-linejoin="round"/>
<path d="M111.778 115.273C111.799 114.799 111.984 114.408 112.324 114.098C112.664 113.748 113.046 113.573 113.479 113.563C115.21 113.511 116.941 113.738 118.692 114.243C121.227 114.974 123.556 116.252 125.679 118.055C127.884 119.931 129.409 122.187 130.274 124.815C130.831 126.525 131.068 128.277 130.996 130.07C130.944 130.894 130.532 131.42 129.728 131.646C128.265 132.11 126.709 132.182 125.05 131.852C122.577 131.378 120.135 130.09 117.724 127.988C115.354 125.907 113.674 123.527 112.706 120.848C112.046 119.003 111.737 117.148 111.799 115.294L111.778 115.273Z" stroke="#1E1E1E" stroke-linecap="round" stroke-linejoin="round"/>
<path d="M112.396 119.157C113.705 118.662 114.653 117.755 115.22 116.457C115.786 115.159 115.817 113.86 115.302 112.552C114.808 111.243 113.901 110.295 112.602 109.728C111.304 109.151 109.995 109.131 108.697 109.646C107.378 110.161 106.441 111.058 105.874 112.346C105.307 113.634 105.276 114.953 105.791 116.251C106.286 117.559 107.193 118.507 108.491 119.074C109.789 119.641 111.098 119.672 112.396 119.157ZM111.582 111.799C111.953 111.964 112.221 112.243 112.376 112.644C112.561 113.026 112.561 113.407 112.396 113.788C112.231 114.169 111.933 114.448 111.521 114.592C111.129 114.716 110.758 114.705 110.377 114.54C109.995 114.375 109.717 114.097 109.563 113.737C109.408 113.335 109.418 112.943 109.583 112.552C109.748 112.16 110.037 111.903 110.418 111.779C110.799 111.614 111.191 111.624 111.582 111.789V111.799Z" fill="#F6CB6D"/>
<path d="M112.375 112.655C112.22 112.253 111.952 111.975 111.582 111.81C111.211 111.645 110.809 111.635 110.417 111.8C110.026 111.924 109.747 112.181 109.583 112.573C109.418 112.964 109.407 113.356 109.562 113.758C109.716 114.118 109.984 114.386 110.376 114.561C110.767 114.737 111.128 114.747 111.52 114.613C111.932 114.469 112.22 114.19 112.396 113.809C112.571 113.428 112.56 113.036 112.375 112.665V112.655Z" fill="white"/>
<path d="M115.209 116.448C114.632 117.746 113.694 118.653 112.385 119.147C111.087 119.663 109.778 119.642 108.48 119.065C107.182 118.488 106.275 117.55 105.78 116.242C105.265 114.943 105.286 113.635 105.863 112.336C106.43 111.048 107.367 110.142 108.686 109.637C109.985 109.121 111.293 109.142 112.591 109.719C113.89 110.296 114.797 111.234 115.291 112.542C115.806 113.861 115.775 115.16 115.209 116.448Z" stroke="#1E1E1E" stroke-linecap="round" stroke-linejoin="round"/>
<path d="M73.0453 132.832C72.9937 134.646 73.3235 136.222 74.0345 137.562C74.8485 139.138 76.0644 140.127 77.6924 140.55C79.2484 140.931 81.4741 141.096 84.3798 141.065H84.4313C84.7508 141.045 85.5236 140.983 86.7395 140.869C87.5123 140.797 88.0893 140.344 88.4706 139.509C88.9858 138.438 89.2846 136.944 89.3567 135.048C89.3773 133.821 89.3361 132.801 89.2434 131.987L89.2022 131.524C88.9343 129.906 88.5427 128.803 88.0275 128.226C87.2959 127.392 86.4613 127.082 85.5339 127.278C85.5236 127.278 85.4927 127.278 85.4618 127.278C85.3999 127.309 85.3278 127.33 85.2454 127.33C84.4416 127.495 83.6482 127.721 82.8651 128.02L81.3813 127.319C80.1654 126.835 79.0526 126.578 78.0531 126.536C74.8073 126.433 73.138 128.535 73.0556 132.822L73.0453 132.832Z" fill="white"/>
<path d="M85.4422 127.279C85.3804 127.31 85.3082 127.33 85.2258 127.33C84.4221 127.495 83.6286 127.722 82.8455 128.02L81.3617 127.32C80.1458 126.836 79.033 126.578 78.0335 126.537C74.7877 126.434 73.1287 128.536 73.036 132.822C72.9845 134.636 73.3142 136.212 74.0252 137.552C74.8392 139.128 76.0551 140.118 77.6831 140.54C79.2391 140.921 81.4648 141.086 84.3705 141.055H84.4221H85.2464C86.0089 141.096 86.8332 141.199 87.7091 141.364" stroke="#1E1E1E" stroke-linecap="round" stroke-linejoin="round"/>
<path d="M122.25 154.486C120.951 155.753 119.56 156.567 118.097 156.948C116.386 157.412 114.831 157.185 113.429 156.279C112.1 155.392 110.462 153.867 108.524 151.704L108.493 151.662C108.287 151.425 107.813 150.807 107.072 149.828C106.598 149.21 106.546 148.478 106.896 147.633C107.339 146.531 108.236 145.305 109.586 143.955C110.482 143.11 111.255 142.45 111.914 141.966L112.285 141.688C113.656 140.791 114.738 140.338 115.511 140.328C116.623 140.307 117.417 140.709 117.901 141.523C117.911 141.523 117.932 141.554 117.953 141.575C117.973 141.636 118.004 141.709 118.066 141.77C118.488 142.471 118.859 143.213 119.169 143.986L120.694 144.604C121.868 145.181 122.816 145.82 123.517 146.531C125.784 148.849 125.372 151.497 122.27 154.465L122.25 154.486Z" fill="white"/>
<path d="M117.953 141.573C117.973 141.635 118.004 141.707 118.066 141.769C118.488 142.469 118.859 143.211 119.168 143.984L120.693 144.602C121.868 145.179 122.816 145.818 123.517 146.529C125.784 148.847 125.371 151.496 122.27 154.463C120.972 155.731 119.581 156.545 118.117 156.926C116.407 157.39 114.851 157.163 113.45 156.256C112.12 155.37 110.482 153.845 108.545 151.681L108.514 151.64L107.957 151.042C107.411 150.506 106.773 149.971 106.062 149.435" stroke="#1E1E1E" stroke-linecap="round" stroke-linejoin="round"/>
<path d="M69.4539 83.3033C67.9907 82.5202 66.3627 82.1389 64.5595 82.1493C59.9123 82.2317 55.5536 84.2719 51.4938 88.2596C48.3304 91.3612 45.6926 95.2355 43.5802 99.8827L43.5493 99.9342L43.3741 99.9857L43.3432 99.9445C39.2216 96.9769 35.0072 94.9367 30.7 93.8342C25.177 92.4122 20.365 92.8346 16.2639 95.0913C14.6874 95.9465 13.4818 97.1006 12.6472 98.5328C11.7301 99.9857 11.3282 101.573 11.4313 103.304C11.524 105.632 12.2762 107.724 13.6982 109.589C15.1099 111.465 16.9234 112.753 19.1285 113.422C20.3238 113.793 21.6118 113.968 22.9925 113.968C23.9817 113.927 25.2182 113.773 26.702 113.515C25.6716 115.627 25.414 117.843 25.9395 120.161C26.4959 122.665 27.8664 124.499 30.0509 125.664C32.7918 127.168 35.6769 126.921 38.6961 124.922C41.3236 123.201 43.1268 120.934 44.116 118.131C45.1361 115.164 45.4762 111.578 45.1465 107.394C45.2186 107.312 45.3113 107.24 45.4144 107.178L45.7132 107.24C47.5679 111.073 49.67 113.999 52.0193 116.019C54.245 117.936 56.9344 118.987 60.0875 119.193C63.6733 119.419 66.2906 118.193 67.9392 115.514C69.2272 113.412 69.4952 111.135 68.7429 108.693C68.0114 106.446 66.6821 104.654 64.7449 103.324C66.1463 102.819 67.2901 102.335 68.1659 101.871C69.3921 101.202 70.4328 100.398 71.2778 99.4602C72.8131 97.7806 73.7405 95.7713 74.0393 93.4323C74.3278 91.1139 73.9362 88.9191 72.8646 86.8582C72.0918 85.3126 70.948 84.138 69.4539 83.3239V83.3033Z" fill="#B8E1F4"/>
<path d="M72.8548 86.8275C72.082 85.2819 70.9383 84.1072 69.4442 83.2932C67.981 82.5101 66.3529 82.1288 64.5497 82.1391C59.9025 82.2216 55.5439 84.2618 51.484 88.2495C48.3207 91.351 45.6828 95.2254 43.5705 99.8726L43.5395 99.9241L43.3644 99.9756L43.3335 99.9344C39.2118 96.9668 34.9974 94.9266 30.6903 93.824C25.1673 92.402 20.3552 92.8245 16.2542 95.0811C14.6776 95.9364 13.472 97.0904 12.6374 98.5227C11.7203 99.9756 11.3185 101.562 11.4215 103.294C11.5143 105.622 12.2665 107.714 13.6884 109.579C15.1001 111.454 16.9136 112.742 19.1187 113.412C20.314 113.783 21.602 113.958 22.9828 113.958C23.972 113.917 25.2085 113.763 26.6923 113.505C25.6619 115.617 25.4042 117.833 25.9298 120.151C26.4862 122.655 27.8566 124.489 30.0411 125.654C32.782 127.158 35.6672 126.911 38.6863 124.912C41.3138 123.191 43.1171 120.924 44.1063 118.121C45.1264 115.154 45.4664 111.568 45.1367 107.384C45.2088 107.302 45.3016 107.23 45.4046 107.168L45.7034 107.23C47.5582 111.063 49.6602 113.989 52.0096 116.009C54.2352 117.925 56.9246 118.976 60.0777 119.183C63.6635 119.409 66.2808 118.183 67.9295 115.504C69.2175 113.402 69.4854 111.125 68.7332 108.683C68.0016 106.436 66.6724 104.643 64.7352 103.314C66.1365 102.809 67.2803 102.325 68.1562 101.861C69.3823 101.191 70.4231 100.388 71.268 99.4501C72.8033 97.7705 73.7307 95.7612 74.0295 93.4222C74.318 91.1037 73.9265 88.9089 72.8548 86.8481V86.8275Z" stroke="#1E1E1E" stroke-linecap="round" stroke-linejoin="round"/>
<path d="M70.674 109.218C70.231 109.043 69.7054 108.991 69.0769 109.053C67.8816 109.146 66.8615 109.775 66.0166 110.939L59.0304 109.414L57.0107 119.017L64.1103 120.563C64.203 120.584 65.0789 120.821 66.7482 121.274C67.8198 121.573 68.7059 121.727 69.4272 121.769C70.7359 121.789 71.8178 121.295 72.6627 120.264C73.4459 119.378 73.9508 118.224 74.1878 116.802C74.4763 115.102 74.4144 113.618 73.992 112.34C73.5077 110.857 72.5494 109.867 71.1068 109.362L70.674 109.198V109.218Z" fill="white"/>
<path d="M59.0103 109.424L65.9965 110.949C66.8415 109.784 67.8616 109.156 69.0569 109.063C69.6751 109.001 70.2109 109.053 70.654 109.228L71.0868 109.393C72.5294 109.898 73.4877 110.887 73.9719 112.371C74.3944 113.638 74.4562 115.122 74.1677 116.832C73.9307 118.254 73.4258 119.408 72.6427 120.294C71.7978 121.315 70.7262 121.819 69.4072 121.799C68.6859 121.768 67.7895 121.603 66.7281 121.304C65.0589 120.851 64.183 120.614 64.0903 120.593L56.9907 119.048L59.0103 109.444V109.424Z" stroke="#1E1E1E" stroke-linecap="round" stroke-linejoin="round"/>
<path d="M25.3461 121.571C25.6449 121.2 26.0777 120.891 26.6444 120.633C27.7263 120.118 28.9319 120.149 30.2405 120.736L35.5369 115.924L42.0903 123.23L36.7115 128.114C36.6394 128.176 36.0006 128.815 34.7847 130.051C34.0119 130.835 33.3112 131.432 32.7032 131.813C31.5801 132.494 30.3951 132.597 29.1483 132.123C28.0252 131.752 27.0153 130.999 26.1086 129.887C25.006 128.557 24.3157 127.238 24.0478 125.93C23.7283 124.405 24.0581 123.065 25.0576 121.911L25.3461 121.551V121.571Z" fill="white"/>
<path d="M35.5671 115.945L30.2707 120.757C28.9621 120.169 27.7565 120.128 26.6746 120.654C26.1079 120.901 25.6751 121.22 25.3763 121.591L25.0878 121.952C24.0883 123.106 23.7482 124.446 24.078 125.971C24.3459 127.279 25.0362 128.598 26.1388 129.927C27.0456 131.04 28.0657 131.792 29.1785 132.163C30.4253 132.627 31.6103 132.524 32.7334 131.854C33.3414 131.463 34.0318 130.875 34.8149 130.092C36.0308 128.866 36.6696 128.217 36.7417 128.155L42.1205 123.271L35.5671 115.965V115.945Z" stroke="#1E1E1E" stroke-linecap="round" stroke-linejoin="round"/>
<path d="M49.2083 125.942C49.5277 126.117 49.8678 126.179 50.2181 126.138C50.5891 126.117 50.9085 125.983 51.1661 125.736C51.9904 125.025 52.5572 124.252 52.8663 123.397C53.1342 122.758 53.0415 122.171 52.5881 121.635C52.1656 121.109 51.6298 120.924 50.9703 121.068L48.3325 121.625C47.6627 121.759 47.2299 122.119 47.0341 122.727C46.8074 123.356 46.9208 123.922 47.3639 124.427C47.9203 125.056 48.5385 125.561 49.2083 125.942Z" fill="white"/>
<path d="M47.3531 124.406C47.9096 125.034 48.5278 125.539 49.1976 125.92C49.517 126.096 49.857 126.157 50.2074 126.116C50.5783 126.096 50.8978 125.962 51.1554 125.714C51.9797 125.003 52.5464 124.23 52.8555 123.375C53.1235 122.736 53.0307 122.149 52.5773 121.613C52.1549 121.088 51.619 120.902 50.9596 121.046L48.3217 121.603C47.652 121.737 47.2192 122.098 47.0234 122.705C46.7967 123.334 46.9101 123.901 47.3531 124.406Z" stroke="#1E1E1E" stroke-linecap="round" stroke-linejoin="round"/>
<path d="M31.6285 114.428H31.6492C31.6285 114.314 31.6079 114.201 31.5873 114.087C31.6079 114.201 31.6285 114.314 31.6285 114.428ZM31.5564 108.194C31.5358 108.245 31.5255 108.297 31.5255 108.338V108.41C31.5255 108.348 31.5461 108.266 31.5564 108.194ZM61.5415 108.389L61.4487 108.132L61.593 108.678C61.5724 108.575 61.5518 108.482 61.5415 108.389ZM61.4487 108.132L61.2324 107.483C60.5832 109.141 59.3776 110.697 57.6362 112.14C55.256 114.067 52.0308 115.612 47.9915 116.767C43.8802 117.787 40.3046 118.065 37.2752 117.591C35.0598 117.21 33.2463 116.468 31.8552 115.355L32.0407 116.293C32.2674 117.076 32.5456 117.797 32.8753 118.446C34.1634 120.96 36.2345 122.527 39.0991 123.176C42.1594 123.845 45.6525 123.66 49.5578 122.609C53.4527 121.568 56.544 119.992 58.8315 117.89C60.9954 115.911 62.0258 113.51 61.9021 110.666C61.9021 110.656 61.9021 110.636 61.9021 110.615C61.9021 110.584 61.9021 110.553 61.9021 110.522C61.8506 110.048 61.7785 109.574 61.6857 109.1L61.6651 108.915L61.6033 108.678L61.459 108.132M59.3364 103.268C58.6872 102.207 58.069 101.29 57.4713 100.527C55.3693 102.454 52.9581 104.113 50.2378 105.494C48.8159 106.215 47.229 106.844 45.4773 107.379C43.6432 107.802 41.9636 108.06 40.4077 108.121C37.3577 108.276 34.4416 108.049 31.6389 107.441C31.6285 107.616 31.6079 107.792 31.5873 107.946L31.5564 108.163V108.183C31.5564 108.266 31.5461 108.338 31.5255 108.4L31.4019 110.739C31.4019 110.831 31.4019 110.934 31.4122 111.037C31.4122 111.182 31.4122 111.326 31.4122 111.481C31.4122 111.779 31.4122 112.068 31.4328 112.346C31.4328 112.408 31.4328 112.48 31.4328 112.552L31.4534 112.707V112.727L31.4637 112.841L31.4946 113.119L31.5255 113.49C31.5255 113.552 31.5255 113.613 31.5461 113.675L31.577 114.067C31.6079 114.18 31.6285 114.294 31.6389 114.407C32.0819 114.52 32.3807 114.582 32.5559 114.582C35.5853 115.2 39.1815 115.221 43.3444 114.654C44.7663 114.479 46.0544 114.263 47.1981 114.026L47.2908 114.005C48.3831 113.644 49.6093 113.191 50.9385 112.624C54.8232 111.037 57.9247 109.214 60.2226 107.173L60.9335 106.565C60.5214 105.504 59.9856 104.402 59.3158 103.258L59.3364 103.268Z" fill="#4C4C4C"/>
<path d="M33.0918 100.466L32.2674 103.609C32.2262 103.804 32.185 104.01 32.1438 104.206C32.1335 104.227 32.1335 104.247 32.1438 104.278C32.1335 104.299 32.1232 104.32 32.1129 104.361C32.1129 104.392 32.1129 104.423 32.1129 104.433C32.1026 104.454 32.0923 104.474 32.082 104.515C31.845 105.721 31.6801 106.875 31.5977 107.957C31.6183 107.792 31.6389 107.627 31.6492 107.452C34.4519 108.07 37.368 108.297 40.418 108.132C41.9636 108.06 43.6535 107.813 45.4876 107.39C47.2393 106.854 48.8262 106.226 50.2482 105.505C52.9685 104.113 55.3796 102.465 57.4817 100.538C56.7089 99.5178 55.8742 98.5183 54.9881 97.5395C54.1637 96.6121 53.4012 95.8496 52.7005 95.2313L33.1021 100.476M61.253 107.493L61.4694 108.142C61.3354 107.648 61.1706 107.153 60.9748 106.648C60.9748 106.617 60.9645 106.597 60.9542 106.586L60.2432 107.194C57.9351 109.235 54.8438 111.058 50.9591 112.645C49.6196 113.212 48.4037 113.665 47.3115 114.026L47.2187 114.047C46.075 114.294 44.7973 114.5 43.365 114.675C39.2021 115.242 35.606 115.221 32.5766 114.603C32.4014 114.603 32.1026 114.541 31.6595 114.428C31.7625 115.087 31.8862 115.716 32.0407 116.303L31.8553 115.366C33.2566 116.478 35.0598 117.231 37.2752 117.602C40.3047 118.076 43.8699 117.797 47.9916 116.777C52.0411 115.613 55.256 114.067 57.6362 112.151C59.3776 110.708 60.5832 109.163 61.2324 107.493H61.253Z" fill="#F6CB6D"/>
<path d="M60.9336 106.559C60.5214 105.498 59.9856 104.395 59.3158 103.251C58.6667 102.19 58.0484 101.273 57.4508 100.51C56.678 99.4904 55.8433 98.4909 54.9572 97.512C54.1328 96.5846 53.3703 95.8221 52.6697 95.2039L33.0712 100.449L32.2468 103.591C32.2056 103.787 32.1644 103.993 32.1232 104.189C32.1129 104.21 32.1129 104.23 32.1232 104.261C32.1129 104.282 32.1026 104.302 32.0923 104.344C32.082 104.385 32.0923 104.405 32.0923 104.416C32.082 104.436 32.0717 104.457 32.0614 104.498C31.8244 105.704 31.6595 106.858 31.5771 107.94L31.5462 108.156V108.177C31.5462 108.259 31.5359 108.331 31.5153 108.393L31.3916 110.732C31.3916 110.825 31.3916 110.928 31.4019 111.031C31.4019 111.175 31.4019 111.32 31.4019 111.474C31.4019 111.773 31.4019 112.061 31.4225 112.34C31.4225 112.401 31.4225 112.474 31.4225 112.546M31.4431 112.7V112.721L31.4534 112.834M31.4843 113.112L31.5153 113.483C31.5153 113.545 31.5153 113.607 31.5359 113.669L31.5874 114.071C31.608 114.174 31.6183 114.287 31.6389 114.4C31.7419 115.06 31.8656 115.688 32.0202 116.276C32.2468 117.059 32.5251 117.78 32.8548 118.429M60.9233 106.559C60.9336 106.569 60.9439 106.621 60.9439 106.621C61.1397 107.126 61.3045 107.62 61.4385 108.115C61.4797 108.29 61.5312 108.476 61.5827 108.661L61.6446 108.898M61.6549 108.898L61.6755 109.084C61.7682 109.558 61.8403 110.032 61.8919 110.506C61.8919 110.536 61.8919 110.598 61.8919 110.598C61.8919 110.619 61.8919 110.65 61.8919 110.65M61.8816 110.65C62.0052 113.494 60.9748 115.895 58.8109 117.873C56.5234 119.975 53.4322 121.552 49.5372 122.592M49.5475 122.592C45.6422 123.643 42.1491 123.829 39.0888 123.159C36.2242 122.51 34.1531 120.944 32.8651 118.429M31.5462 108.187C31.5256 108.239 31.5153 108.29 31.5153 108.331V108.403" stroke="#1E1E1E" stroke-linecap="round" stroke-linejoin="round"/>
<path d="M31.4214 112.567L31.442 112.721M31.4523 112.855L31.4832 113.133" stroke="black" stroke-linecap="round" stroke-linejoin="round"/>
<path d="M20.3173 51.0481C17.4013 52.7998 14.8974 54.8915 12.8056 57.313C9.68347 60.8885 7.70507 64.7835 6.86014 68.9979C6.21097 72.1819 6.22128 75.5513 6.91166 79.096C7.59173 82.5788 8.80762 85.7421 10.5387 88.5861L10.6005 91.3476C10.8375 93.5218 11.497 95.4383 12.5583 97.0767C16.0205 102.26 23.0067 103.754 33.5376 101.549L52.8887 96.3657C63.1105 93.0169 68.4171 88.2357 68.819 82.012C68.9323 80.0542 68.551 78.0655 67.6752 76.0665L66.3254 73.6554C66.4078 70.2962 65.8823 66.9474 64.7385 63.6191C63.5535 60.2085 61.8843 57.2821 59.7101 54.8503C56.8868 51.6251 53.2288 49.2448 48.7362 47.6992C45.6965 46.6482 42.4919 46.0918 39.1121 46.0197C35.856 45.9681 32.5999 46.37 29.3644 47.2149C26.1186 48.1011 23.1098 49.3788 20.3277 51.0481H20.3173Z" fill="#F6CB6D"/>
<path d="M52.8584 96.3565C63.0801 93.0077 68.3868 88.2266 68.7886 82.0029C68.902 80.0451 68.5207 78.0564 67.6449 76.0574L66.295 73.6462C66.3775 70.2871 65.8519 66.9382 64.7082 63.61C63.5232 60.1993 61.8539 57.2729 59.6798 54.8411C56.8564 51.616 53.1985 49.2357 48.7059 47.6901C45.6661 46.639 42.4615 46.0826 39.0818 46.0105C35.8257 45.959 32.5696 46.3608 29.3341 47.2058C26.0883 48.0919 23.0794 49.3696 20.2973 51.0389C17.3813 52.7906 14.8773 54.8824 12.7856 57.3038C9.66345 60.8794 7.68506 64.7743 6.84012 68.9887C6.19095 72.1727 6.20126 75.5422 6.89164 79.0868C7.57171 82.5696 8.7876 85.733 10.5187 88.5769L10.5805 91.3384C10.8175 93.5126 11.477 95.4292 12.5383 97.0675C16.0005 102.251 22.9867 103.745 33.5175 101.54" stroke="#1E1E1E" stroke-linecap="round" stroke-linejoin="round"/>
<path d="M40.4864 54.019C38.168 53.7923 35.7774 53.9056 33.3147 54.3693L29.4919 55.3894C27.1116 56.2344 24.9684 57.3266 23.0621 58.6868C21.0631 60.0984 19.4556 61.7162 18.2398 63.5297C16.4262 66.3015 15.5092 69.5473 15.4885 73.2774C15.4267 76.4305 16.2614 79.8618 18.0131 83.561C18.0337 83.6537 17.8379 84.1277 17.4051 84.9932C17.0239 86.2709 16.8796 87.4971 16.9723 88.6615C17.1166 90.5059 17.7864 92.1443 18.9713 93.5766C20.1254 94.9779 21.5989 95.9671 23.3712 96.5648C25.4217 97.2346 27.5753 97.6158 29.8319 97.6776C31.9958 97.7395 34.2112 97.5643 36.4678 97.1521C38.5698 96.7915 40.5379 96.369 42.3824 95.8744C44.2577 95.3695 46.164 94.7616 48.1012 94.0403C50.265 93.2778 52.264 92.3195 54.1085 91.186C56.0354 90.001 57.7149 88.5997 59.1678 86.9819C60.394 85.5909 61.1565 83.9937 61.4656 82.2008C61.7748 80.3667 61.5378 78.6047 60.765 76.9354C60.2601 75.8741 59.5182 74.8952 58.5393 73.9781C57.7046 73.4526 57.2925 73.1332 57.3028 73.0404C56.9627 68.96 55.9838 65.5699 54.3661 62.8702C52.4701 59.6656 50.0384 57.3163 47.0708 55.8222C45.1439 54.8433 42.9594 54.256 40.4967 54.0293L40.4864 54.019Z" fill="white"/>
<path d="M60.7454 76.9143C60.2405 75.853 59.4986 74.8741 58.5197 73.9571C57.6851 73.4315 57.2729 73.1121 57.2832 73.0194C56.9432 68.9389 55.9643 65.5489 54.3465 62.8492C52.4505 59.6446 50.0188 57.2953 47.0512 55.8012C45.1243 54.8223 42.9398 54.2349 40.4771 54.0082C38.1587 53.7815 35.7681 53.8949 33.3054 54.3586L29.4826 55.3787C27.1023 56.2236 24.9591 57.3159 23.0528 58.676C21.0538 60.0877 19.4464 61.7054 18.2305 63.519C16.4169 66.2908 15.4999 69.5366 15.4793 73.2667C15.4174 76.4197 16.2521 79.851 18.0038 83.5502C18.0244 83.6429 17.8286 84.1169 17.3958 84.9825C17.0146 86.2602 16.8703 87.4864 16.9631 88.6508C17.1073 90.4952 17.7771 92.1336 18.9621 93.5658C20.1161 94.9672 21.5896 95.9564 23.3619 96.554C25.4125 97.2238 27.566 97.6051 29.8226 97.6669C31.9865 97.7287 34.2019 97.5535 36.4585 97.1414C38.5606 96.7807 40.5287 96.3583 42.3731 95.8637C44.2484 95.3588 46.1547 94.7508 48.0919 94.0295C50.2558 93.267 52.2548 92.3087 54.0992 91.1753C56.0261 89.9903 57.7057 88.5889 59.1585 86.9712C60.3847 85.5801 61.1472 83.983 61.4564 82.1901C61.7655 80.3559 61.5285 78.5939 60.7557 76.9246L60.7454 76.9143Z" stroke="#1E1E1E" stroke-linecap="round" stroke-linejoin="round"/>
<path d="M29.5574 91.0945C30.258 89.8065 30.4229 88.4464 30.0417 87.0141C29.6604 85.5818 28.8464 84.4999 27.5996 83.7683C26.3734 82.9955 25.0648 82.7997 23.6737 83.1706C22.2826 83.5416 21.2522 84.3659 20.5721 85.6436C19.8612 86.9007 19.6963 88.2506 20.0775 89.6829C20.4588 91.1151 21.2831 92.2177 22.5299 92.9699C23.7561 93.7221 25.0544 93.9179 26.4455 93.5469C27.8057 93.1863 28.8361 92.3619 29.5471 91.0945H29.5574Z" fill="#F5CED3"/>
<path d="M58.3175 83.3823C59.0182 82.0943 59.1831 80.7342 58.8018 79.3019C58.4206 77.8696 57.6065 76.7877 56.3597 76.0561C55.1232 75.3245 53.8249 75.139 52.4545 75.4997C51.084 75.8603 50.0227 76.6846 49.322 77.9417C48.6213 79.1989 48.4668 80.5384 48.848 81.9707C49.2293 83.4029 50.0433 84.5055 51.2798 85.268C52.5163 86.0202 53.8249 86.2057 55.216 85.8347C56.607 85.4638 57.6272 84.6497 58.3175 83.3823Z" fill="#F5CED3"/>
<path d="M24.8881 55.5422C24.4244 56.1707 24.0946 56.9229 23.8989 57.8091C23.7237 58.6746 23.6825 59.5092 23.7752 60.3336C23.9195 61.5289 24.3728 62.6417 25.1147 63.6618C25.8463 64.7025 26.7428 65.465 27.7938 65.9287C29.3394 66.6088 31.1839 66.8046 33.3375 66.5161C34.4503 66.3615 35.4601 66.0627 36.3463 65.6196C37.4694 65.0529 38.1701 64.3316 38.4689 63.4557C38.6647 62.992 38.6647 62.5284 38.4998 62.0647C38.335 61.601 38.0052 61.2919 37.5209 61.1476C37.2324 61.0549 36.7687 61.0137 36.1505 61.0446C35.1201 61.127 34.3576 61.0343 33.863 60.7457C33.3271 60.4366 32.9871 59.9111 32.8532 59.1589C32.7501 58.5407 32.781 57.8812 32.9562 57.1805C33.1108 56.4798 33.4714 55.8307 34.0381 55.2433C34.7079 54.4808 35.2437 54.0893 35.625 54.0687C34.9037 53.0898 33.8939 52.4818 32.5852 52.2757C31.4724 52.0903 30.2874 52.2036 29.0509 52.6055C27.2683 53.2134 25.8876 54.1923 24.8984 55.5525L24.8881 55.5422Z" fill="#4FB35B"/>
<path d="M35.5951 54.0377C34.8738 53.0588 33.864 52.4508 32.5554 52.2447C31.4426 52.0593 30.2576 52.1726 29.0211 52.5745C27.2385 53.1824 25.8577 54.1613 24.8685 55.5215C24.4048 56.15 24.0751 56.9022 23.8793 57.7884C23.7042 58.6539 23.6629 59.4885 23.7557 60.3129C23.8999 61.5082 24.3533 62.621 25.0952 63.6411C25.8268 64.6818 26.7233 65.4443 27.7743 65.908C29.3199 66.5881 31.1644 66.7839 33.3179 66.4954C34.4308 66.3408 35.4406 66.042 36.3267 65.5989C37.4499 65.0322 38.1506 64.3109 38.4494 63.435C38.6452 62.9713 38.6452 62.5077 38.4803 62.044C38.3051 61.57 37.9857 61.2712 37.5014 61.1269C37.2129 61.0342 36.7492 60.993 36.131 61.0239C35.1005 61.1063 34.338 61.0136 33.8434 60.725C33.3076 60.4159 32.9676 59.8904 32.8336 59.1382C32.7306 58.52 32.7615 57.8605 32.9367 57.1598C33.0912 56.4591 33.4519 55.81 34.0186 55.2226C34.6884 54.4601 35.2242 54.0686 35.6054 54.048L35.5951 54.0377Z" stroke="#1E1E1E" stroke-linecap="round" stroke-linejoin="round"/>
<path d="M42.5286 80.8998L42.1371 81.3944C41.3333 81.9921 40.272 82.126 38.9325 81.7963C38.7676 81.7654 38.5924 81.7963 38.4276 81.8787C38.3451 81.9199 38.273 81.9509 38.2112 81.9818C37.222 82.9297 36.2328 83.3522 35.2436 83.2286C35.0272 83.208 34.8314 83.1667 34.6562 83.0946C34.749 84.2693 34.9551 85.3203 35.2848 86.258C36.2946 89.2668 38.2318 90.4106 41.0963 89.6893C41.9722 89.4214 42.6626 88.834 43.1881 87.9066C44.1361 86.1962 43.9197 83.8571 42.5286 80.8895V80.8998Z" fill="#FDE5EA"/>
<path d="M42.5421 80.889L42.9131 80.4047M34.6698 83.094C34.8449 83.1559 35.0407 83.1971 35.2571 83.228C36.2463 83.3413 37.2355 82.9292 38.2247 81.9812C38.2762 81.9503 38.3483 81.9194 38.4411 81.8782C38.6059 81.7854 38.7811 81.7545 38.946 81.7957C40.2855 82.1255 41.3468 81.9915 42.1506 81.3939L42.5421 80.8993C43.9332 83.8669 44.1496 86.2059 43.2016 87.9164C42.6864 88.8438 41.9857 89.4311 41.1098 89.699C38.2453 90.4203 36.3184 89.2765 35.2983 86.2677C34.9686 85.33 34.7625 84.279 34.6698 83.1043V83.094ZM34.6698 83.094C34.4431 83.0219 34.2576 82.9189 34.103 82.7643" stroke="#1E1E1E" stroke-linecap="round" stroke-linejoin="round"/>
<path d="M42.738 76.6643C42.9647 77.5299 43.4181 78.21 44.0878 78.7252C44.7473 79.2095 45.4274 79.3537 46.1384 79.1682C46.839 78.9828 47.3749 78.5088 47.7355 77.7566C48.0652 76.9838 48.1064 76.1594 47.8798 75.2939C47.6428 74.3974 47.1894 73.7173 46.5299 73.2331C45.8601 72.7385 45.1698 72.5839 44.4382 72.7797C43.7066 72.9754 43.2223 73.4391 42.8925 74.2016C42.5628 74.9538 42.5113 75.7679 42.7483 76.6643M46.3857 75.2218C46.2414 75.4484 46.0456 75.5927 45.7983 75.6648C45.5819 75.7267 45.3552 75.6957 45.1182 75.5618C44.9122 75.4484 44.7782 75.263 44.7164 75.0157C44.6546 74.7684 44.6752 74.5417 44.7885 74.3356C44.9328 74.0986 45.1079 73.944 45.3243 73.8822C45.5716 73.8204 45.8189 73.8513 46.0559 73.9956C46.2414 74.1192 46.3753 74.3047 46.4372 74.552C46.499 74.7993 46.4887 75.026 46.3857 75.2218Z" fill="#1E1E1E"/>
<path d="M45.7887 75.6651C46.036 75.6033 46.2318 75.4487 46.376 75.222C46.4791 75.0262 46.4997 74.7996 46.4276 74.5523C46.3554 74.305 46.2318 74.1195 46.0463 73.9958C45.8093 73.8516 45.562 73.8207 45.3147 73.8825C45.0983 73.9443 44.9129 74.0886 44.7789 74.3359C44.6656 74.5419 44.6346 74.7686 44.7068 75.0159C44.7789 75.2632 44.9129 75.4487 45.1086 75.5621C45.3456 75.6857 45.5723 75.7166 45.7887 75.6651Z" fill="white"/>
<path d="M32.5248 81.8253C32.8545 81.0525 32.8957 80.2282 32.669 79.3626C32.4423 78.4971 31.9786 77.7861 31.3192 77.3018C30.6391 76.8072 29.9384 76.6629 29.2274 76.8484C28.5164 77.0339 27.9909 77.5182 27.6406 78.2807C27.3109 79.0329 27.2593 79.8469 27.4963 80.7434C27.723 81.6089 28.1764 82.289 28.8462 82.8042C29.5366 83.2782 30.2372 83.4225 30.9379 83.237C31.6386 83.0515 32.1744 82.5775 32.5351 81.8253M30.8246 78.0746C31.0307 78.188 31.1646 78.3734 31.2264 78.6207C31.2883 78.868 31.2677 79.0947 31.1543 79.3008C31.0307 79.5275 30.8349 79.6718 30.5876 79.7336C30.3506 79.7954 30.1239 79.7645 29.9075 79.6305C29.7014 79.5172 29.5675 79.3317 29.5056 79.0844C29.4438 78.8371 29.4644 78.6104 29.5778 78.4044C29.7014 78.1674 29.8766 78.0128 30.1136 77.951C30.3609 77.8891 30.5979 77.9201 30.8246 78.0643V78.0746Z" fill="#1E1E1E"/>
<path d="M31.2254 78.6198C31.1636 78.3725 31.0193 78.187 30.8236 78.0736C30.5969 77.9294 30.3599 77.8882 30.1126 77.9603C29.8756 78.0221 29.7004 78.1767 29.5768 78.4137C29.4634 78.6198 29.4325 78.8465 29.5046 79.0938C29.5768 79.3411 29.7107 79.5265 29.9065 79.6399C30.1332 79.7635 30.3599 79.8047 30.5866 79.7429C30.8339 79.6811 31.0193 79.5368 31.1533 79.3101C31.2666 79.1041 31.2975 78.8774 31.2254 78.6301V78.6198Z" fill="white"/>
<path d="M9.3511 43.3025C8.49586 42.8182 7.5994 42.6945 6.66172 42.9521C5.68283 43.1994 4.96154 43.7662 4.48755 44.6317C4.00325 45.4561 3.8796 46.3525 4.13721 47.3211C4.38451 48.2691 4.95123 49.0007 5.81678 49.5159C6.64111 49.9693 7.53758 50.0723 8.50617 49.825C9.04198 49.6808 9.51597 49.4438 9.92814 49.114C10.2167 48.8461 10.464 48.537 10.6803 48.197C11.1543 47.3314 11.2677 46.4246 11.0101 45.4767C10.7628 44.4978 10.2063 43.7765 9.3511 43.3025Z" fill="#F6CB6D"/>
<path d="M9.9177 49.1126C9.50553 49.4424 9.03154 49.6794 8.49573 49.8236C7.51683 50.0709 6.62037 49.9782 5.80635 49.5145C4.9408 48.9993 4.38437 48.2574 4.12677 47.3197C3.87947 46.3408 3.99282 45.4443 4.47711 44.6303C4.9511 43.7648 5.67239 43.2083 6.65129 42.9507C7.59927 42.7034 8.49573 42.8168 9.34067 43.3011C10.1959 43.7751 10.742 44.4964 10.9996 45.4753C11.2469 46.4232 11.1439 47.33 10.6699 48.1956C10.4535 48.5459 10.1959 48.8447 9.9177 49.1126ZM9.9177 49.1126L14.9049 54.8314M9.9177 49.1126L9.73222 48.8962" stroke="#1E1E1E" stroke-linecap="round" stroke-linejoin="round"/>
<path d="M51.0455 37.3856C51.5195 36.52 51.6328 35.6132 51.3752 34.6653C51.1279 33.6864 50.5715 32.9651 49.7163 32.4911C48.8507 31.9862 47.944 31.8728 46.996 32.1408C46.048 32.3881 45.337 32.9445 44.8424 33.7997C44.3375 34.6344 44.2139 35.5411 44.4612 36.52C44.7085 37.468 45.2855 38.1893 46.1613 38.6942C46.522 38.8797 46.8826 39.0136 47.2227 39.096C47.7379 39.1888 48.2737 39.1682 48.8301 39.0239C49.7781 38.756 50.5097 38.2099 51.0249 37.3959L51.0455 37.3856Z" fill="#F6CB6D"/>
<path d="M47.2316 39.0956C47.7468 39.1884 48.2826 39.1678 48.839 39.0235C49.787 38.7556 50.5186 38.2095 51.0338 37.3954C51.5078 36.5299 51.6211 35.6231 51.3635 34.6752C51.1162 33.6963 50.5598 32.975 49.7046 32.501C48.839 31.9961 47.9322 31.8827 46.9843 32.1506C46.0363 32.3979 45.3253 32.9544 44.8307 33.8096C44.3258 34.6442 44.2021 35.551 44.4494 36.5299C44.6967 37.4779 45.2738 38.1992 46.1496 38.7041C46.5103 38.8895 46.8709 39.0235 47.211 39.1059M47.211 39.1059L47.2831 38.8689M47.211 39.1059L45.7272 46.5971" stroke="#1E1E1E" stroke-linecap="round" stroke-linejoin="round"/>
<path d="M55.6858 94.3347C56.881 93.3764 58.1794 92.48 59.5601 91.6453C61.4458 90.5016 63.0429 89.7494 64.3515 89.3784L68.3083 94.3553L68.3289 96.4986L67.8859 97.663L65.0316 99.0746C62.5895 100.321 60.5905 101.053 59.014 101.269C57.4684 101.486 56.2525 101.238 55.3766 100.538C54.3668 99.6723 53.9341 98.5594 54.0783 97.2199C54.1814 96.0967 54.7172 95.1384 55.6652 94.3347H55.6858Z" fill="white"/>
<path d="M55.6867 94.3251C56.882 93.3668 58.1803 92.4703 59.5611 91.6357C61.4468 90.4919 63.0439 89.7397 64.3525 89.3688L68.3093 94.3457L68.3299 96.4889L67.8868 97.6533L65.0326 99.065C62.5905 100.312 60.5915 101.043 59.015 101.26C57.4694 101.476 56.2535 101.229 55.3776 100.528C54.3678 99.6626 53.935 98.5498 54.0793 97.2102C54.1823 96.0871 54.7182 95.1288 55.6661 94.3251H55.6867Z" stroke="#1E1E1E" stroke-linecap="round" stroke-linejoin="round"/>
<path d="M69.4759 85.34C71.1452 85.2988 72.5672 85.8862 73.7522 87.1227C74.9577 88.3282 75.5966 89.8017 75.6584 91.5328C75.679 93.2742 75.1226 94.7786 73.9892 96.046C72.8454 97.3031 71.444 97.942 69.7851 97.9729C68.3734 98.0038 67.0957 97.5608 65.9416 96.6334L63.6953 90.8012C63.8911 89.2762 64.5403 87.9985 65.6325 86.9681C66.7247 85.9274 68.0024 85.3813 69.4759 85.34Z" fill="white"/>
<path d="M63.6865 90.7907C63.8823 89.2657 64.5315 87.988 65.6237 86.9576C66.7159 85.9169 67.9937 85.3708 69.4671 85.3295C71.1364 85.2883 72.5584 85.8757 73.7434 87.1122C74.949 88.3177 75.5878 89.7912 75.6496 91.5223C75.6702 93.2637 75.1138 94.7681 73.9804 96.0355C72.8366 97.2927 71.4352 97.9315 69.7763 97.9624C68.3646 97.9933 67.0869 97.5503 65.9328 96.6229" stroke="#1E1E1E" stroke-linecap="round" stroke-linejoin="round"/>
<path d="M31.5549 100.251C30.0505 99.9319 28.4946 99.7155 26.8871 99.5918C24.682 99.4167 22.92 99.4579 21.5908 99.7155L20.2925 105.939L21.2302 107.866L22.1472 108.711L25.3312 108.69C28.0721 108.711 30.1845 108.464 31.6889 107.948C33.1727 107.444 34.1413 106.681 34.6049 105.661C35.1201 104.435 35.0068 103.25 34.2752 102.116C33.6776 101.158 32.7708 100.54 31.5549 100.251Z" fill="white"/>
<path d="M31.5549 100.242C30.0505 99.9225 28.4946 99.7061 26.8871 99.5824C24.682 99.4073 22.92 99.4485 21.5908 99.7061L20.2925 105.93L21.2302 107.857L22.1472 108.702L25.3312 108.681C28.0721 108.702 30.1845 108.454 31.6889 107.939C33.1727 107.434 34.1413 106.672 34.6049 105.652C35.1201 104.425 35.0068 103.24 34.2752 102.107C33.6776 101.149 32.7708 100.53 31.5549 100.242Z" stroke="#1E1E1E" stroke-linecap="round" stroke-linejoin="round"/>
<path d="M15.2026 98.4021C13.6982 99.1131 12.6883 100.288 12.1731 101.916C11.6373 103.534 11.7301 105.131 12.4513 106.718C13.2139 108.284 14.3885 109.376 15.9754 109.994C17.5622 110.602 19.0975 110.551 20.5916 109.829C21.8693 109.232 22.807 108.253 23.4253 106.903L22.8173 100.69C21.9518 99.4119 20.7977 98.5669 19.3654 98.1342C17.9228 97.6911 16.5318 97.7838 15.2026 98.4021Z" fill="white"/>
<path d="M22.8183 100.667C21.9527 99.3892 20.7987 98.5442 19.3664 98.1115C17.9238 97.6684 16.5328 97.7611 15.2035 98.3794C13.6991 99.0904 12.6893 100.265 12.1741 101.893C11.6383 103.511 11.731 105.108 12.4523 106.695C13.2148 108.261 14.3895 109.353 15.9763 109.972C17.5632 110.579 19.0985 110.528 20.5926 109.807C21.8703 109.209 22.808 108.23 23.4262 106.88" stroke="#1E1E1E" stroke-linecap="round" stroke-linejoin="round"/>
<path d="M34.8146 18.9947C36.4577 18.436 37.3876 16.697 36.9001 15.021C36.4126 13.345 34.6973 12.3719 33.0091 12.7684C33.3431 11.0744 32.3049 9.39841 30.5986 8.97492C28.8923 8.55142 27.1951 9.5606 26.6985 11.2095C25.3985 10.0742 23.4214 10.1373 22.2116 11.3988C21.0019 12.6602 21.0109 14.6336 22.2116 15.886C20.5685 16.4447 19.6387 18.1837 20.1262 19.8597C20.6137 21.5357 22.329 22.5088 24.0172 22.1123C23.6832 23.8063 24.7214 25.4823 26.4277 25.9058C28.134 26.3293 29.8312 25.3291 30.3278 23.6712C31.6278 24.8065 33.6049 24.7434 34.8146 23.4819C36.0244 22.2205 36.0154 20.2471 34.8146 18.9947Z" fill="#FEDD64"/>
<path d="M28.513 20.6976C30.3129 20.6976 31.7721 19.2413 31.7721 17.4448C31.7721 15.6484 30.3129 14.192 28.513 14.192C26.7131 14.192 25.2539 15.6484 25.2539 17.4448C25.2539 19.2413 26.7131 20.6976 28.513 20.6976Z" fill="white"/>
<path d="M133.267 13.6683C134.856 12.9745 135.642 11.1634 135.019 9.53245C134.396 7.90154 132.599 7.07257 130.956 7.6132C131.155 5.89218 129.972 4.31533 128.248 4.036C126.523 3.75668 124.907 4.89201 124.546 6.58599C123.156 5.55879 121.188 5.78405 120.086 7.14465C118.985 8.49624 119.157 10.4605 120.448 11.6139C118.859 12.3077 118.073 14.1188 118.696 15.7497C119.319 17.3807 121.116 18.2096 122.759 17.669C122.56 19.39 123.743 20.9669 125.467 21.2462C127.191 21.5255 128.807 20.3902 129.169 18.6962C130.559 19.7234 132.527 19.4981 133.628 18.1375C134.73 16.786 134.558 14.8217 133.267 13.6683Z" fill="#FEDD64"/>
<path d="M126.857 15.8939C128.657 15.8939 130.116 14.4376 130.116 12.6411C130.116 10.8446 128.657 9.38831 126.857 9.38831C125.057 9.38831 123.598 10.8446 123.598 12.6411C123.598 14.4376 125.057 15.8939 126.857 15.8939Z" fill="white"/>
<path d="M162.842 37.6829C164.756 36.6557 165.551 34.304 164.594 32.3217C163.637 30.3483 161.308 29.4923 159.303 30.3483C159.367 28.1768 157.724 26.3206 155.53 26.1494C153.336 25.9872 151.431 27.5821 151.169 29.7356C149.319 28.6003 146.881 29.0869 145.644 30.898C144.407 32.7091 144.832 35.151 146.574 36.4575C144.66 37.4847 143.866 39.8365 144.823 41.8188C145.78 43.7921 148.109 44.6481 150.113 43.7921C150.05 45.9637 151.693 47.8198 153.887 47.991C156.08 48.1622 157.985 46.5584 158.247 44.4048C160.098 45.5402 162.535 45.0536 163.772 43.2425C165.009 41.4313 164.585 38.9895 162.842 37.6829Z" fill="#FEDD64"/>
<path d="M154.708 41.161C156.972 41.161 158.807 39.3295 158.807 37.0702C158.807 34.8109 156.972 32.9794 154.708 32.9794C152.444 32.9794 150.609 34.8109 150.609 37.0702C150.609 39.3295 152.444 41.161 154.708 41.161Z" fill="white"/>
</svg>
