<svg width="93" height="90" viewBox="0 0 93 90" fill="none" xmlns="http://www.w3.org/2000/svg">
<path d="M20.1988 50.4144C21.1703 49.4187 22.3773 48.7188 23.8099 48.3146C27.4113 47.3386 31.1107 47.9301 34.9083 50.0792C37.5185 51.5678 40.0895 53.7267 42.631 56.556L43.21 68.5928C42.631 70.6137 41.8754 72.3488 40.9334 73.7979C39.5694 75.9667 37.754 77.475 35.4971 78.3425C32.8574 79.3776 30.571 78.9734 28.6379 77.1398C27.1267 75.6907 26.4103 73.8275 26.479 71.5601C26.5477 69.5096 27.2052 67.6957 28.471 66.1184C27.2346 66.0297 26.2141 65.8818 25.4094 65.6748C24.2515 65.4185 23.2408 64.9946 22.3478 64.4228C20.7189 63.3581 19.5217 61.8794 18.7563 59.9768C17.9909 58.0939 17.8045 56.1617 18.2068 54.1605C18.4914 52.6817 19.1586 51.4298 20.189 50.3946L20.1988 50.4144Z" fill="#B8E1F4"/>
<path d="M42.6607 56.5462C40.1192 53.7169 37.5482 51.5481 34.938 50.0694C31.1404 47.9203 27.441 47.3288 23.8397 48.3048C22.407 48.709 21.2 49.4089 20.2286 50.4046C19.1982 51.4397 18.5407 52.6917 18.2464 54.1704C17.844 56.1618 18.0305 58.1038 18.7959 59.9867C19.5613 61.8795 20.7585 63.3582 22.3874 64.4328C23.2705 65.0045 24.2911 65.4284 25.449 65.6847C26.2536 65.8918 27.2742 66.0298 28.5106 66.1284C27.2447 67.6958 26.5873 69.5097 26.5186 71.5701C26.4499 73.8374 27.1662 75.6908 28.6774 77.1498C30.6106 78.9834 32.897 79.3876 35.5366 78.3525C37.7936 77.485 39.6089 75.9767 40.9729 73.8079C41.9052 72.3587 42.6706 70.6237 43.2495 68.6028" stroke="#1E1E1E" stroke-width="1.1" stroke-linecap="round" stroke-linejoin="round"/>
<path d="M56.585 56.9897L56.6536 56.9207C57.4485 56.1912 58.5573 55.6687 59.9998 55.3532C60.3237 55.2941 61.5699 55.1265 63.7385 54.8505C64.4549 54.7815 64.9848 55.018 65.3282 55.5405C65.5245 55.8461 65.7796 56.4376 66.0936 57.315L67.3398 60.3316L66.8885 62.1455L66.2604 63.0623L63.66 63.8017C61.7465 64.2749 60.412 64.4326 59.6466 64.2946C57.998 63.9988 56.7714 63.0229 55.9667 61.3766C55.1228 59.6711 55.3289 58.2121 56.585 56.9995V56.9897Z" fill="white"/>
<path d="M56.6045 56.9798L56.6732 56.9108C57.468 56.1813 58.5769 55.6588 60.0194 55.3433C60.3432 55.2842 61.5894 55.1166 63.7581 54.8406C64.4744 54.7716 65.0043 55.0082 65.3477 55.5306C65.544 55.8362 65.7991 56.4277 66.1131 57.3051L67.3594 60.3217L66.908 62.1356L66.28 63.0524L63.6796 63.7918C61.766 64.265 60.4315 64.4227 59.6661 64.2847C58.0175 63.9889 56.7909 63.013 55.9863 61.3667C55.1424 59.6612 55.3484 58.2022 56.6045 56.9897V56.9798Z" stroke="#1E1E1E" stroke-width="1.1" stroke-linecap="round" stroke-linejoin="round"/>
<path d="M63.6896 57.0489C63.984 55.7378 64.6513 54.683 65.6816 53.8943C66.7218 53.1057 67.8993 52.7508 69.1946 52.8395C70.6273 52.9479 71.8048 53.5887 72.737 54.752C73.6595 55.8955 74.0716 57.2362 73.9637 58.7642C73.8557 60.2627 73.2375 61.5048 72.1188 62.5005C71.0296 63.4863 69.7736 63.9398 68.3507 63.8412C67.0848 63.7328 66.0054 63.23 65.1223 62.323L63.6994 57.0489H63.6896Z" fill="white"/>
<path d="M63.7091 57.0393C64.0035 55.7281 64.6708 54.6733 65.7011 53.8847C66.7413 53.096 67.9188 52.7411 69.2141 52.8298C70.6468 52.9383 71.8244 53.5791 72.7566 54.7423C73.679 55.8859 74.0911 57.2266 73.9832 58.7546C73.8752 60.253 73.257 61.4952 72.1384 62.4908C71.0491 63.4767 69.7931 63.9301 68.3702 63.8315C67.1044 63.7231 66.025 63.2203 65.1418 62.3134" stroke="#1E1E1E" stroke-width="1.1" stroke-linecap="round" stroke-linejoin="round"/>
<path d="M46.497 71.8064C47.8218 71.9937 49.1171 72.2993 50.3927 72.7232C52.9539 73.571 54.1216 74.616 53.8959 75.8581C53.6899 77.1101 52.8165 78.5395 51.2661 80.1365C50.4909 80.9548 49.7451 81.6448 49.0287 82.2067C49.6175 83.8333 49.4016 85.3318 48.4105 86.7021C47.5372 87.8851 46.2811 88.5357 44.613 88.6638C42.9644 88.7723 41.5317 88.2991 40.3247 87.2443C39.157 86.2387 38.4505 85.1051 38.2052 83.8432C37.9598 82.6405 38.1659 81.4871 38.8136 80.3633C39.1178 79.8112 39.6771 79.1507 40.4916 78.3719C41.62 77.2974 42.2382 76.696 42.356 76.558L46.5068 71.8064H46.497Z" fill="white"/>
<path d="M53.9066 75.8383C53.7005 77.0903 52.8272 78.5197 51.2768 80.1168C50.5016 80.935 49.7558 81.6251 49.0394 82.187C49.6282 83.8136 49.4123 85.312 48.4212 86.6823C47.5479 87.8653 46.2918 88.5159 44.6237 88.6441C42.9751 88.7525 41.5424 88.2793 40.3354 87.2245C39.1677 86.219 38.4612 85.0853 38.2159 83.8234C37.9705 82.6207 38.1766 81.4673 38.8243 80.3435C39.1285 79.7914 39.6878 79.131 40.5023 78.3522C41.6307 77.2776 42.2489 76.6763 42.3667 76.5383L46.5175 71.7866C47.8423 71.9739 49.1376 72.2795 50.4132 72.7034C52.9744 73.5512 54.1421 74.5962 53.9164 75.8383H53.9066Z" stroke="#1E1E1E" stroke-width="1.1" stroke-linecap="round" stroke-linejoin="round"/>
<path d="M46.497 71.8064C47.8218 71.9937 49.1171 72.2993 50.3927 72.7232C52.9539 73.571 54.1216 74.616 53.8959 75.8581C53.6899 77.1101 52.8165 78.5395 51.2661 80.1365C50.4909 80.9548 49.7451 81.6448 49.0287 82.2067C49.6175 83.8333 49.4016 85.3318 48.4105 86.7021C47.5372 87.8851 46.2811 88.5357 44.613 88.6638C42.9644 88.7723 41.5317 88.2991 40.3247 87.2443C39.157 86.2387 38.4505 85.1051 38.2052 83.8432C37.9598 82.6405 38.1659 81.4871 38.8136 80.3633C39.1178 79.8112 39.6771 79.1507 40.4916 78.3719C41.62 77.2974 42.2382 76.696 42.356 76.558L46.5068 71.8064H46.497Z" fill="white"/>
<path d="M53.9066 75.8383C53.7005 77.0903 52.8272 78.5197 51.2768 80.1168C50.5016 80.935 49.7558 81.6251 49.0394 82.187C49.6282 83.8136 49.4123 85.312 48.4212 86.6823C47.5479 87.8653 46.2918 88.5159 44.6237 88.6441C42.9751 88.7525 41.5424 88.2793 40.3354 87.2245C39.1677 86.219 38.4612 85.0853 38.2159 83.8234C37.9705 82.6207 38.1766 81.4673 38.8243 80.3435C39.1285 79.7914 39.6878 79.131 40.5023 78.3522C41.6307 77.2776 42.2489 76.6763 42.3667 76.5383L46.5175 71.7866C47.8423 71.9739 49.1376 72.2795 50.4132 72.7034C52.9744 73.5512 54.1421 74.5962 53.9164 75.8383H53.9066Z" stroke="#1E1E1E" stroke-width="1.1" stroke-linecap="round" stroke-linejoin="round"/>
<path d="M31.6706 66.5128C31.651 66.6212 31.6313 66.7296 31.6019 66.8479C31.6215 66.7592 31.6313 66.6803 31.651 66.6212L31.6706 66.5128ZM32.0042 65.4284L31.9355 65.6551C31.9552 65.5664 31.9748 65.4776 32.0042 65.4086V65.4284ZM32.4949 64.1862C32.6323 63.8708 32.7696 63.5652 32.9266 63.2793L32.5243 64.2257C32.5243 64.2257 32.5243 64.1961 32.5047 64.1764M34.0355 61.4654L34.1042 61.3569C34.3397 61.0119 34.5948 60.6669 34.8696 60.3416V60.3613C34.5654 60.726 34.2906 61.0908 34.0355 61.4654ZM60.6774 71.0475L61.1975 68.1788C61.2564 68.1196 61.3054 68.0605 61.3545 68.0013C61.2466 69.1055 61.0209 70.1208 60.6774 71.0574M60.226 72.0728L60.0886 72.3192C60.0886 72.3192 60.0592 72.3784 60.0396 72.4079L56.9093 75.6611C55.9476 76.3216 54.5542 76.8244 52.7192 77.1793C51.208 77.4652 49.7164 77.613 48.2641 77.6328C43.6325 77.6919 40.1489 77.3764 37.8233 76.6864C34.3397 75.6611 32.2888 73.6501 31.6608 70.6532C31.6412 70.5743 31.6313 70.5053 31.6117 70.4264C31.5921 70.318 31.5725 70.2293 31.543 70.1504L31.5921 66.8479C31.6215 66.7296 31.6412 66.6113 31.6608 66.5128C31.6804 66.4635 31.6902 66.4043 31.7099 66.355C31.7099 66.3452 31.7099 66.3255 31.7099 66.3057C31.7197 66.2762 31.7295 66.2466 31.7295 66.217L31.7491 66.148C31.808 65.9804 31.8669 65.8128 31.9257 65.6551L31.9944 65.4284C33.8589 67.1733 36.0569 68.6618 38.5887 69.8842C42.2489 71.5996 46.1249 72.4277 50.2267 72.3685C55.2705 72.3094 58.9209 70.9095 61.1877 68.1887L60.6676 71.0574C60.6185 71.225 60.5596 71.3925 60.4615 71.5503C60.4419 71.6291 60.4223 71.6981 60.3928 71.7573L60.2849 71.9643C60.2849 71.9643 60.2456 72.0333 60.2162 72.0728M42.6414 63.3877C46.8707 64.3933 50.6977 64.6003 54.1224 63.9989C56.9583 63.506 59.0092 62.6977 60.2653 61.5837C60.5204 62.2146 60.7363 62.8357 60.9227 63.437C60.9816 63.6342 61.0209 63.8412 61.0307 64.0482C61.0797 64.3045 61.119 64.551 61.168 64.7974C61.1779 64.8566 61.1877 64.9059 61.1877 64.9552V65.0242C61.2466 65.3396 61.2858 65.6551 61.2956 65.9706C61.3152 66.0001 61.3152 66.0199 61.3152 66.0396C61.3349 66.0691 61.3349 66.0987 61.3152 66.1283C61.3152 66.1579 61.3152 66.1874 61.3152 66.217C61.3152 66.3057 61.3152 66.3945 61.3349 66.493V66.7395C58.5873 69.1942 54.25 70.2293 48.323 69.835C42.1605 69.4012 36.8812 67.5281 32.5047 64.2257L32.907 63.2793C33.221 62.6878 33.5939 62.0864 34.0061 61.4752C34.2612 61.1006 34.536 60.726 34.8402 60.3711C36.685 61.5442 39.2854 62.5596 42.6316 63.3976L42.6414 63.3877Z" fill="#4C4C4C"/>
<path d="M31.8569 65.8128L31.9452 65.6551C31.8863 65.8227 31.8274 65.9903 31.7685 66.148C31.798 66.0297 31.8274 65.9114 31.8569 65.8128ZM60.687 71.0574L60.6674 71.2348C60.6085 71.3433 60.5496 71.4418 60.4908 71.5503C60.5791 71.3827 60.6478 71.2151 60.6968 71.0574M61.3739 66.8479C61.3739 66.8479 61.3739 66.9071 61.3936 66.9367C61.3936 66.9662 61.3936 67.0155 61.3936 67.0747C61.3936 67.0944 61.3936 67.1043 61.3936 67.124C61.3936 67.1535 61.3936 67.1733 61.3936 67.193L61.2169 68.1887C58.9502 70.9194 55.2998 72.3094 50.256 72.3685C46.164 72.4277 42.2781 71.5996 38.6179 69.8843C36.0862 68.6618 33.8881 67.1831 32.0237 65.4284L32.5438 64.2257C36.9203 67.5282 42.1996 69.3913 48.3621 69.835C54.289 70.2293 58.6263 69.1942 61.3739 66.7395V66.8479ZM61.2169 64.9453C61.2169 64.896 61.2169 64.8467 61.1973 64.7876C61.2169 64.8172 61.2169 64.8566 61.2169 64.896V64.9453ZM61.1973 64.7876C61.1482 64.551 61.109 64.2947 61.0599 64.0384C61.0795 64.0679 61.0795 64.0975 61.0795 64.1271C61.1286 64.3045 61.158 64.4918 61.1875 64.6693V64.7777M54.1419 63.9891C50.7172 64.5904 46.9 64.3933 42.6608 63.3779C39.3146 62.5301 36.724 61.5245 34.8694 60.3514C34.9872 60.2035 35.1147 60.0458 35.2521 59.8782C36.1254 58.7938 36.832 57.3052 37.3913 55.4026C43.6028 45.8796 49.6574 45.8106 55.5745 55.1956C56.9091 56.2997 58.1062 57.7094 59.1562 59.4445C60.0688 60.9035 60.6674 62.2343 60.9324 63.4272C60.7557 62.8258 60.53 62.2048 60.2749 61.5738C59.0188 62.6878 56.968 63.4962 54.132 63.9891H54.1419Z" fill="#F6CB6D"/>
<path d="M60.9321 63.4469C60.991 63.6441 61.0302 63.8511 61.04 64.0581M61.197 64.9749V65.0341C61.2559 65.3495 61.2952 65.665 61.305 65.9805C61.3246 66.01 61.3246 66.0298 61.3246 66.0495C61.3442 66.0791 61.3442 66.1086 61.3246 66.1382C61.3246 66.1678 61.3246 66.1974 61.3246 66.2269C61.3246 66.3156 61.3246 66.4044 61.3442 66.503V66.7494M32.5141 64.2356L32.9164 63.2892C33.2304 62.6977 33.6033 62.0964 34.0154 61.4852C34.2706 61.1105 34.5453 60.7359 34.8495 60.381C34.9673 60.2332 35.0948 60.0754 35.2322 59.9078C36.1056 58.8234 36.8121 57.3349 37.3714 55.4322M55.5547 55.2252C56.8892 56.3293 58.0864 57.7391 59.1363 59.4741C60.0489 60.9331 60.6475 62.2639 60.9125 63.4568M61.0204 64.068C61.0204 64.068 61.04 64.1271 61.04 64.1567C61.0891 64.3342 61.1185 64.5215 61.148 64.6989V64.8074C61.148 64.8074 61.1676 64.8764 61.1676 64.9158V64.9749M61.3246 66.7494V66.8578C61.3246 66.8578 61.3246 66.917 61.3442 66.9466C61.3442 66.9761 61.3442 67.0254 61.3442 67.0846C61.3442 67.1043 61.3442 67.1142 61.3442 67.1339C61.3442 67.1634 61.3442 67.1832 61.3442 67.2029L61.1676 68.1986L60.6475 71.0673L60.6279 71.2447C59.9017 73.0093 58.6555 74.4881 56.8892 75.6809M31.9744 65.4383L32.4944 64.2356M56.8892 75.671C55.9275 76.3315 54.5341 76.8343 52.6991 77.1892C51.1879 77.4751 49.6964 77.623 48.2441 77.6427C43.6124 77.7018 40.1288 77.3864 37.8032 76.6963C34.3196 75.671 32.2687 73.66 31.6407 70.6631C31.6211 70.5842 31.6113 70.5152 31.5917 70.4364C31.572 70.3279 31.5524 70.2392 31.523 70.1603L31.572 66.8578C31.6015 66.7395 31.6211 66.6213 31.6407 66.5227C31.6603 66.4734 31.6702 66.4142 31.6898 66.3649C31.6898 66.3551 31.6898 66.3452 31.6898 66.3354C31.6996 66.3058 31.7094 66.2664 31.7094 66.2368L31.729 66.1678C31.7585 66.0495 31.7879 65.941 31.8174 65.8326L31.9057 65.6749L31.9744 65.4481" stroke="#1E1E1E" stroke-width="1.1" stroke-linecap="round" stroke-linejoin="round"/>
<path d="M40.1183 71.8956C41.3547 71.3534 42.7677 71.3436 44.3574 71.8661C45.0247 72.0435 45.7901 72.359 46.6536 72.7927L47.7625 73.3941C48.6162 72.4773 49.5975 71.9449 50.6867 71.8069C51.7956 71.659 52.7965 71.9351 53.6992 72.6153C55.0927 73.6898 55.6422 75.2474 55.3674 77.288C55.1417 79.0625 54.4058 80.6201 53.1595 81.9411C52.1194 83.0649 50.8633 83.755 49.3816 84.031C48.0765 84.2873 46.8008 84.1592 45.5742 83.6465C45.2111 83.4987 44.8088 83.2128 44.3869 82.7988C43.9747 82.3847 43.6705 81.9608 43.4743 81.527C43.3565 81.2609 43.3172 80.837 43.3663 80.2652C43.3663 79.7723 43.3958 79.4075 43.4743 79.2005C43.3958 79.4174 43.3565 79.7723 43.3663 80.2652C43.3172 80.837 43.3565 81.2609 43.4743 81.527C41.1486 80.068 39.5982 78.8259 38.8131 77.7908C38.0281 76.7754 37.773 75.6812 38.0477 74.5278C38.2931 73.2955 38.98 72.4181 40.1281 71.8956H40.1183Z" fill="white"/>
<path d="M43.4752 81.5168C41.1495 80.0578 39.5991 78.8157 38.8141 77.7805C38.029 76.7652 37.7739 75.6709 38.0487 74.5175C38.294 73.2852 38.9809 72.4079 40.129 71.8854C41.3654 71.3432 42.7785 71.3333 44.3682 71.8558C45.0354 72.0332 45.8008 72.3487 46.6644 72.7825L47.7732 73.3838M47.7732 73.3838L47.1059 74.0739M47.7732 73.3838C48.6269 72.467 49.6082 71.9347 50.6974 71.7966C51.8063 71.6488 52.8072 71.9248 53.71 72.605C55.1034 73.6796 55.6529 75.2371 55.3782 77.2778C55.1525 79.0522 54.4165 80.6098 53.1703 81.9308C52.1301 83.0547 50.8741 83.7447 49.3923 84.0208C48.0872 84.2771 46.8116 84.1489 45.5849 83.6363C45.2219 83.4884 44.8195 83.2025 44.3976 82.7885C43.9855 82.3745 43.6813 81.9506 43.485 81.5168C43.3672 81.2506 43.328 80.8267 43.3771 80.2549C43.3771 79.762 43.4065 79.3973 43.485 79.1903" stroke="#1E1E1E" stroke-width="1.1" stroke-linecap="round" stroke-linejoin="round"/>
<path d="M34.7905 6.72308C34.398 6.89067 33.9564 6.95968 33.4756 6.92025C32.6219 6.90053 31.8957 6.56535 31.3069 5.91472C30.7378 5.27393 30.4728 4.52472 30.5219 3.66706C30.5513 2.81925 30.8948 2.09961 31.5424 1.50812C32.1803 0.946204 32.9261 0.680034 33.7798 0.69975C34.6237 0.749041 35.3302 1.09408 35.8993 1.725C36.4685 2.37564 36.7433 3.115 36.7236 3.94308C36.6746 4.80074 36.3311 5.54011 35.6835 6.14145C35.4087 6.39777 35.1143 6.58507 34.7905 6.70337V6.72308Z" fill="#F6CB6D"/>
<path d="M34.7713 6.70331C34.3788 6.8709 33.9372 6.9399 33.4564 6.90047C32.6026 6.88076 31.8765 6.54558 31.2877 5.89494C30.7186 5.25416 30.4536 4.50494 30.5027 3.64728C30.5321 2.79948 30.8756 2.07983 31.5232 1.48834C32.1611 0.926428 32.9068 0.660258 33.7606 0.679974C34.6045 0.729265 35.311 1.0743 35.8801 1.70522C36.4493 2.35586 36.724 3.09522 36.7044 3.92331C36.6554 4.78097 36.3119 5.52033 35.6643 6.12168C35.3895 6.37799 35.0951 6.56529 34.7713 6.68359V6.70331ZM34.7713 6.70331L36.8418 12.7562" stroke="#1E1E1E" stroke-width="1.1" stroke-linecap="round" stroke-linejoin="round"/>
<path d="M66.8293 3.21352C67.3985 3.86416 67.6634 4.60352 67.6144 5.44146C67.5555 6.31884 67.2218 7.04834 66.6135 7.62012C65.9854 8.21161 65.2298 8.48764 64.3565 8.45806C64.013 8.4482 63.6892 8.3792 63.4046 8.25104C62.9631 8.07359 62.5706 7.79756 62.2369 7.40324C61.6481 6.77232 61.3734 6.0231 61.4028 5.15558C61.4323 4.30778 61.7855 3.58813 62.443 2.99664C63.0808 2.42487 63.8168 2.14884 64.6607 2.18827C65.5144 2.23756 66.2406 2.5826 66.8293 3.21352Z" fill="#F6CB6D"/>
<path d="M63.3851 8.23124C63.6795 8.34954 63.9935 8.41855 64.337 8.43827C65.2103 8.46784 65.9659 8.19181 66.5939 7.60032C67.1925 7.02855 67.5261 6.29904 67.5948 5.42167C67.6439 4.59358 67.3789 3.84436 66.8098 3.19373C66.221 2.5628 65.5047 2.21777 64.6412 2.16848C63.7973 2.1389 63.0613 2.40507 62.4235 2.97685C61.7562 3.56834 61.4127 4.28798 61.3833 5.13578C61.3539 5.99344 61.6286 6.74266 62.2174 7.38344C62.551 7.77777 62.9435 8.0538 63.3851 8.23124ZM63.3851 8.23124L61.0987 13.1899" stroke="#1E1E1E" stroke-width="1.1" stroke-linecap="round" stroke-linejoin="round"/>
<path d="M47.9687 9.54232C50.8733 9.67048 53.6896 10.2028 56.4078 11.1196C59.2045 12.0562 61.746 13.3673 64.0324 15.053C67.3589 17.5964 69.7729 20.544 71.2841 23.9155C72.5009 26.6462 73.1485 29.3769 73.2368 32.1076C73.3448 34.9665 72.8345 37.5395 71.6962 39.8364C72.0789 40.3491 72.4028 41.325 72.6481 42.7742C72.9719 44.7655 72.8149 46.609 72.1967 48.2947C70.2832 53.5196 64.3955 56.2996 54.5335 56.6446L37.3022 55.8362C27.3029 53.4111 21.6801 47.6441 20.4437 38.5253C20.0021 35.2721 20.1591 31.8809 20.9245 28.3418C21.5623 25.4632 22.3866 23.2254 23.3679 21.6383C25.6052 18.1485 28.3038 15.4474 31.4733 13.525C33.8971 12.066 36.5368 10.9915 39.4021 10.3113C42.1988 9.66062 45.0543 9.41417 47.9687 9.55218V9.54232Z" fill="#F6CB6D"/>
<path d="M37.2734 55.8069C27.2741 53.3818 21.6513 47.6148 20.4149 38.496C19.9733 35.2428 20.1303 31.8516 20.8957 28.3125C21.5335 25.434 22.3578 23.1962 23.3391 21.609C25.5764 18.1192 28.275 15.4181 31.4445 13.4957C33.8683 12.0367 36.508 10.9622 39.3733 10.282C42.17 9.63132 45.0255 9.38487 47.9399 9.52288C50.8445 9.65104 53.6608 10.1834 56.379 11.1002C59.1757 12.0367 61.7172 13.3478 64.0036 15.0336C67.3301 17.577 69.7441 20.5246 71.2553 23.8961C72.4721 26.6268 73.1197 29.3575 73.208 32.0882C73.316 34.9471 72.8057 37.5201 71.6674 39.817C72.0501 40.3296 72.3739 41.3056 72.6193 42.7547C72.9431 44.7461 72.7861 46.5896 72.1679 48.2753C70.2544 53.5001 64.3667 56.2801 54.5047 56.6252" stroke="#1E1E1E" stroke-width="1.1" stroke-linecap="round" stroke-linejoin="round"/>
<path d="M42.6312 17.5176C44.5839 16.8966 46.6446 16.5614 48.8231 16.5121L50.56 16.5417C51.188 16.5515 51.7375 16.6008 52.2085 16.6895C54.3968 16.9557 56.4379 17.488 58.3219 18.2668C60.2747 19.1048 61.9134 20.1892 63.2578 21.5102C65.3283 23.5804 66.7021 26.1731 67.3988 29.2784C68.0661 32.2654 68.0268 35.351 67.2811 38.5451L67.9385 39.6492C68.4979 40.6941 68.8511 41.7095 68.9885 42.6953C69.2044 44.2727 68.9296 45.781 68.1937 47.2202C67.4381 48.63 66.3685 49.7538 64.9947 50.5917C63.4737 51.5085 61.727 52.238 59.735 52.7704C57.9883 53.214 56.0846 53.4802 54.0239 53.5689C52.4244 53.6281 50.6679 53.628 48.774 53.5492C47.4983 53.49 45.8988 53.3323 43.9952 53.076C37.2537 51.9522 32.8281 48.5511 30.7085 42.8629C28.8343 37.855 29.0992 32.7682 31.5034 27.5927C32.9459 24.7436 34.9085 22.3087 37.4107 20.2878C38.8728 19.1048 40.6097 18.1781 42.6214 17.5176H42.6312Z" fill="white"/>
<path d="M31.4932 27.5731C32.9357 24.7241 34.8982 22.2891 37.4005 20.2682C38.8626 19.0852 40.5995 18.1586 42.6111 17.4981C44.5639 16.877 46.6246 16.5418 48.8031 16.4926L50.5399 16.5221C51.168 16.532 51.7175 16.5813 52.1885 16.67C54.3768 16.9362 56.4178 17.4685 58.3019 18.2473C60.2547 19.0852 61.8934 20.1696 63.2378 21.4906C65.3083 23.5609 66.6821 26.1535 67.3788 29.2589C68.0461 32.2459 68.0068 35.3315 67.261 38.5255L67.9185 39.6296C68.4778 40.6746 68.8311 41.69 68.9685 42.6758C69.1844 44.2531 68.9096 45.7614 68.1736 47.2007C67.4181 48.6104 66.3484 49.7343 64.9746 50.5722C63.4537 51.489 61.707 52.2185 59.715 52.7509C57.9683 53.1945 56.0646 53.4606 54.0039 53.5494C52.4044 53.6085 50.6479 53.6085 48.754 53.5296C47.4783 53.4705 45.8788 53.3128 43.9751 53.0565C37.2337 51.9326 32.8081 48.5316 30.6885 42.8434C28.8143 37.8355 29.0792 32.7487 31.4834 27.5731H31.4932Z" stroke="#1E1E1E" stroke-width="1.1" stroke-linecap="round" stroke-linejoin="round"/>
<path d="M61.403 47.1613C60.7161 46.2149 60.3824 45.1009 60.4315 43.8095C60.4904 42.5082 60.9123 41.4238 61.6973 40.5563C62.4824 39.6987 63.4048 39.2846 64.4547 39.3142C65.5047 39.3733 66.3879 39.8564 67.0944 40.7929C67.7911 41.759 68.1051 42.8828 68.0463 44.1841C67.9678 45.4361 67.5458 46.5106 66.7608 47.388C65.9757 48.2654 65.0631 48.6893 64.023 48.6301C62.9534 48.6104 62.08 48.1175 61.403 47.1514M36.3115 45.929C35.5166 44.9826 35.1339 43.8686 35.183 42.5674C35.2222 41.2858 35.7129 40.2014 36.6451 39.324C37.5479 38.4664 38.6273 38.0622 39.8735 38.1016C41.1198 38.1805 42.1501 38.6931 42.9646 39.6494C43.7791 40.6056 44.1716 41.7294 44.1421 43.011C44.0833 44.2925 43.5926 45.3671 42.68 46.2248C41.7576 47.112 40.6782 47.526 39.432 47.4472C38.1955 47.388 37.1554 46.8754 36.3213 45.9191L36.3115 45.929Z" fill="#F5CED3"/>
<path d="M50.1088 41.3253C50.2952 41.4042 50.4915 41.4732 50.7074 41.5225L51.3354 41.5619C51.826 41.5422 52.3657 41.3845 52.9545 41.0986C53.1017 41.0296 53.2587 41.0099 53.4255 41.0296L53.6316 41.1084C54.1615 41.4338 54.6325 41.6309 55.0545 41.7197L55.2409 41.7591C55.4175 41.7591 55.5843 41.7591 55.7315 41.7394V41.7591C55.9572 43.2378 55.7904 44.687 55.2409 46.1065C54.5736 47.7726 53.5433 48.5514 52.1597 48.4528C50.7564 48.3443 49.8831 47.5261 49.5396 46.0178C49.2354 44.6475 49.4219 43.0801 50.099 41.3253H50.1088Z" fill="#FDE5EA"/>
<path d="M50.6874 41.5126C50.4911 41.4633 50.2949 41.3943 50.1182 41.3154C49.7355 41.1379 49.451 40.9112 49.2743 40.6352M55.7312 41.7294V41.7492C55.9569 43.2279 55.7901 44.677 55.2406 46.0966C54.5733 47.7626 53.5429 48.5414 52.1593 48.4428C50.7561 48.3344 49.8827 47.5162 49.5393 46.0079C49.2351 44.6376 49.4215 43.0701 50.0986 41.3154C50.2851 41.3943 50.4813 41.4633 50.6972 41.5126L51.3252 41.552C51.8159 41.5323 52.3556 41.3745 52.9444 41.0887C53.0915 41.0196 53.2485 40.9999 53.4154 41.0196L53.6214 41.0985C54.1513 41.4238 54.6223 41.621 55.0443 41.7097L55.2307 41.7492C55.4074 41.7492 55.5742 41.7492 55.7214 41.7294M48.0281 38.2594C47.9202 37.9439 47.6945 37.6482 47.351 37.3623C46.9291 36.9778 46.4286 36.7806 45.8595 36.7806C45.31 36.8102 44.7899 37.037 44.3188 37.4707C44.0048 37.7862 43.789 38.0918 43.6614 38.3875M60.8535 39.3142C60.7554 38.91 60.5689 38.565 60.2844 38.2791C59.9213 37.9242 59.4699 37.727 58.9302 37.7073C58.4199 37.6679 57.9489 37.8355 57.5171 38.2101C57.2129 38.4467 56.9971 38.7128 56.8597 38.9889M56.8401 40.9999L56.1532 41.621C56.0158 41.6703 55.8784 41.7196 55.7312 41.759" stroke="#1E1E1E" stroke-width="1.1" stroke-linecap="round" stroke-linejoin="round"/>
<path d="M50.2365 17.4485C49.5594 16.788 49.108 16.4725 48.8824 16.5218C49.2749 15.5853 49.9716 14.9149 50.9921 14.5206C51.8066 14.2249 52.7584 14.146 53.8378 14.2939C55.4275 14.4713 56.7326 15.0431 57.7728 15.9993C58.2634 16.4627 58.6658 17.0542 58.9896 17.7738C59.284 18.4836 59.4606 19.1934 59.5195 19.8933C59.6176 20.9481 59.4508 21.9734 59.0387 22.969C58.6265 23.9844 58.0181 24.8027 57.2429 25.4139C56.1439 26.2715 54.6818 26.7743 52.8566 26.9419C51.8655 27.0306 50.9921 26.9715 50.2365 26.7546C49.2062 26.4884 48.4997 25.9955 48.117 25.2759C47.8618 24.9111 47.7735 24.5266 47.8618 24.1323C47.9109 23.6887 48.1268 23.3535 48.4898 23.1268C48.7057 23.0085 49.0786 22.9 49.5987 22.8015C50.5015 22.624 51.1001 22.4071 51.3944 22.1508C51.7771 21.7565 51.9636 21.234 51.9538 20.5834C51.944 20.0215 51.7968 19.4694 51.5122 18.9075C51.3748 18.5822 50.9529 18.0991 50.2463 17.4485H50.2365Z" fill="#4FB35B"/>
<path d="M48.8721 16.5022C49.2646 15.5656 49.9613 14.8953 50.9819 14.5009C51.7963 14.2052 52.7482 14.1263 53.8276 14.2742C55.4173 14.4517 56.7224 15.0234 57.7625 15.9797C58.2532 16.443 58.6555 17.0345 58.9793 17.7541C59.2737 18.4639 59.4504 19.1737 59.5092 19.8736C59.6074 20.9285 59.4405 21.9537 59.0284 22.9494C58.6163 23.9648 58.0177 24.783 57.2327 25.3942C56.1336 26.2519 54.6715 26.7546 52.8463 26.9222C51.8552 27.011 50.9819 26.9518 50.2263 26.7349C49.1959 26.4688 48.4894 25.9758 48.1067 25.2562C47.8516 24.8914 47.7632 24.507 47.8516 24.1127C47.9006 23.669 48.1165 23.3339 48.4796 23.1071C48.6955 22.9888 49.0684 22.8804 49.5884 22.7818C50.4912 22.6044 51.0898 22.3875 51.3842 22.1312C51.7669 21.7368 51.9533 21.2144 51.9435 20.5637C51.9337 20.0018 51.7865 19.4497 51.5019 18.8878C51.3646 18.5625 50.9426 18.0795 50.2361 17.4288C49.559 16.7683 49.1076 16.4529 48.8819 16.5022H48.8721Z" stroke="#1E1E1E" stroke-width="1.1" stroke-linecap="round" stroke-linejoin="round"/>
<path d="M31.8078 56.7824C34.2512 56.1219 36.5277 56.0134 38.6375 56.4768C39.0889 56.5556 39.501 56.7134 39.8739 56.9401C40.5706 57.3541 41.0809 57.9555 41.4047 58.7244C41.7089 59.4934 41.758 60.3313 41.5519 61.2284C41.1398 62.9832 39.1576 64.1267 35.6151 64.659C33.8586 64.9252 32.1414 65.0139 30.4732 64.9055L29.7961 57.4429C30.6204 57.1471 31.2975 56.9204 31.8176 56.7824H31.8078Z" fill="white"/>
<path d="M39.884 56.9107C39.5111 56.684 39.0989 56.5361 38.6475 56.4474C36.5378 55.9939 34.2612 56.0925 31.8178 56.753C31.2977 56.9009 30.6304 57.1177 29.7964 57.4135L30.4734 64.8761C32.1416 64.9747 33.8589 64.8958 35.6154 64.6297C39.1676 64.0973 41.14 62.9538 41.5522 61.199C41.768 60.3019 41.719 59.464 41.405 58.6951C41.0811 57.9261 40.5709 57.3346 39.8742 56.9107H39.884Z" stroke="#1E1E1E" stroke-width="1.1" stroke-linecap="round" stroke-linejoin="round"/>
<path d="M22.4068 59.8878C22.6521 58.4386 23.3586 57.3049 24.5361 56.4768C25.6156 55.7473 26.8029 55.4713 28.0982 55.6488C29.3739 55.8459 30.4631 56.4276 31.3855 57.3937L32.7495 62.6875C32.4355 63.9296 31.7584 64.8957 30.7281 65.5956C29.5211 66.404 28.2062 66.6505 26.7735 66.335C25.3212 66.0294 24.1633 65.2506 23.3292 63.9888C22.4951 62.7269 22.1811 61.3665 22.4068 59.8878Z" fill="white"/>
<path d="M31.3948 57.3642C30.4724 56.3981 29.3832 55.8165 28.1075 55.6193C26.8122 55.4419 25.615 55.7179 24.5454 56.4474C23.3679 57.2755 22.6614 58.4092 22.416 59.8583C22.1903 61.3371 22.4945 62.6975 23.3384 63.9593C24.1823 65.2212 25.3305 66 26.7828 66.3056C28.2056 66.6309 29.5304 66.3844 30.7373 65.5662C31.7677 64.8663 32.4448 63.9002 32.7588 62.6581" stroke="#1E1E1E" stroke-width="1.1" stroke-linecap="round" stroke-linejoin="round"/>
<path d="M7.16012 26.3279C6.79012 25.906 6.32012 25.6649 5.75012 25.6146C5.20012 25.5845 4.70012 25.7452 4.26012 26.117C3.82012 26.4686 3.57012 26.9206 3.50012 27.4631C3.01012 27.1919 2.49012 27.1115 1.94012 27.212C1.39012 27.3325 0.960119 27.6239 0.650119 28.096C0.330119 28.5481 0.220119 29.0705 0.320119 29.6432C0.400119 30.1957 0.670119 30.6377 1.13012 30.9592C0.630119 31.2304 0.280119 31.6223 0.100119 32.1547C-0.0698809 32.6972 -0.0298808 33.2296 0.230119 33.752C0.470119 34.2543 0.850119 34.616 1.39012 34.8169C1.91012 35.0179 2.43012 34.9978 2.95012 34.7667C2.93012 35.3393 3.12012 35.8316 3.50012 36.2334C3.85012 36.6755 4.32012 36.9065 4.89012 36.9467C5.46012 36.9969 5.96012 36.8463 6.38012 36.4946C6.82012 36.1229 7.07012 35.6608 7.14012 35.0982C7.61012 35.3996 8.12012 35.5001 8.68012 35.3795C9.23012 35.259 9.67012 34.9676 9.99012 34.4954C10.2901 34.0233 10.4001 33.5109 10.3201 32.9483C10.2401 32.4059 9.97012 31.9638 9.51012 31.6022C10.0101 31.3309 10.3501 30.9391 10.5201 30.4067C10.6901 29.8642 10.6501 29.3418 10.4201 28.8395C10.1701 28.3171 9.78012 27.9654 9.26012 27.7746C8.74012 27.5736 8.22012 27.5837 7.70012 27.8047C7.72012 27.2321 7.54012 26.7398 7.17012 26.338M3.23012 31.1501C3.26012 30.5574 3.50012 30.0651 3.94012 29.6833C4.38012 29.3116 4.89012 29.1408 5.48012 29.181C6.07012 29.2313 6.55012 29.4724 6.92012 29.9144C7.31012 30.3665 7.48012 30.8889 7.45012 31.4615C7.40012 32.0542 7.16012 32.5365 6.72012 32.9082C6.27012 33.3 5.74012 33.4607 5.16012 33.4105C4.61012 33.3803 4.13012 33.1292 3.75012 32.6771C3.36012 32.2351 3.20012 31.7328 3.25012 31.1601L3.23012 31.1501Z" fill="#EE9CA5"/>
<path d="M3.94022 29.6733C3.50022 30.0651 3.27022 30.5473 3.23022 31.14C3.18022 31.7126 3.35022 32.225 3.73022 32.657C4.12022 33.1091 4.59022 33.3602 5.14022 33.3903C5.73022 33.4406 6.25022 33.2698 6.70022 32.888C7.14022 32.5163 7.38022 32.0341 7.43022 31.4414C7.46022 30.8688 7.29022 30.3564 6.90022 29.8943C6.53022 29.4522 6.05022 29.2111 5.46022 29.1609C4.87022 29.1308 4.36022 29.2915 3.92022 29.6632L3.94022 29.6733Z" fill="white"/>
<path d="M88.4358 1.94581C87.9484 1.38996 87.3292 1.07233 86.5783 1.00615C85.8538 0.96645 85.1951 1.1782 84.6154 1.66789C84.0358 2.1311 83.7064 2.72666 83.6142 3.44133C82.9687 3.08399 82.2837 2.97811 81.5591 3.11046C80.8345 3.26928 80.2681 3.65308 79.8597 4.27511C79.4381 4.87067 79.2932 5.55887 79.4249 6.31324C79.5303 7.04114 79.886 7.62347 80.492 8.04698C79.8333 8.40431 79.3722 8.92047 79.1351 9.6219C78.9112 10.3366 78.9639 11.038 79.3064 11.7262C79.6225 12.3879 80.1231 12.8644 80.8345 13.1291C81.5196 13.3938 82.2046 13.3673 82.8896 13.0629C82.8633 13.8173 83.1136 14.4658 83.6142 14.9952C84.0753 15.5775 84.6945 15.8819 85.4454 15.9348C86.1963 16.001 86.855 15.8025 87.4083 15.3393C87.9879 14.8496 88.3173 14.2408 88.4095 13.4997C89.0286 13.8967 89.7005 14.029 90.4382 13.8702C91.1628 13.7114 91.7425 13.3276 92.164 12.7056C92.5592 12.0835 92.7041 11.4086 92.5988 10.6674C92.4934 9.95277 92.1377 9.37044 91.5317 8.89399C92.1904 8.53666 92.6383 8.0205 92.8622 7.31907C93.0862 6.6044 93.0335 5.9162 92.7305 5.25447C92.4011 4.56627 91.8874 4.10306 91.2023 3.8516C90.5173 3.58691 89.8322 3.60014 89.1472 3.8913C89.1736 3.13693 88.9364 2.48843 88.449 1.95905M83.2585 8.29844C83.298 7.5176 83.6142 6.86909 84.1939 6.36618C84.7735 5.8765 85.4454 5.65151 86.2226 5.70445C86.9999 5.77062 87.6322 6.08825 88.1197 6.67057C88.6334 7.26613 88.8574 7.95434 88.8179 8.70871C88.752 9.48955 88.4358 10.1248 87.8562 10.6145C87.2634 11.1306 86.5651 11.3424 85.8011 11.2762C85.0765 11.2365 84.4442 10.9057 83.9436 10.3101C83.4298 9.72777 83.219 9.06604 83.2849 8.31167L83.2585 8.29844Z" fill="#EE9CA5"/>
<path d="M84.1941 6.353C83.6145 6.86915 83.3115 7.50441 83.2588 8.28525C83.1929 9.03963 83.4169 9.7146 83.9175 10.2837C84.4313 10.8792 85.0504 11.2101 85.775 11.2498C86.5523 11.316 87.2373 11.091 87.8301 10.5881C88.4098 10.0984 88.7259 9.46314 88.7918 8.6823C88.8313 7.92792 88.6074 7.25295 88.0936 6.64416C87.6062 6.06183 86.9738 5.7442 86.1966 5.67803C85.4193 5.63832 84.7474 5.85008 84.1678 6.33976L84.1941 6.353Z" fill="white"/>
</svg>
