<svg width="80" height="81" viewBox="0 0 80 81" fill="none" xmlns="http://www.w3.org/2000/svg">
<g clip-path="url(#clip0_8819_19249)">
<path d="M62.2932 35.9004L55.4985 36.952" stroke="#AB4C55" stroke-linecap="round" stroke-linejoin="round"/>
<path d="M59.3711 62.0605C58.6154 60.9207 57.5764 60.0013 56.2666 59.3023C52.8535 57.5391 48.8926 57.3187 44.3839 58.6411C40.8701 59.6487 37.4381 61.4245 34.0881 63.9685L34.044 64.0063L33.8928 63.9685V63.9244C33.5465 63.2066 33.1876 62.5139 32.8097 61.8527L32.3438 70.0327C32.413 70.0075 32.4886 69.9949 32.5704 69.9886L32.7594 70.1523C32.6145 73.6598 33.0049 76.6069 33.918 78.9935C34.7807 81.2542 36.3235 83.074 38.5401 84.4594C41.0527 86.0274 43.4267 86.1596 45.6748 84.8498C47.4317 83.836 48.5211 82.2869 48.9304 80.2025C49.2831 78.2945 49.0123 76.4746 48.1181 74.7429C49.3334 74.9318 50.3536 75.0326 51.1785 75.0326C52.3435 75.0137 53.4077 74.8374 54.3837 74.5036C56.1595 73.8739 57.6079 72.7719 58.7414 71.1913C59.8623 69.6171 60.4353 67.8727 60.4731 65.9458C60.5172 64.5227 60.1519 63.2254 59.3774 62.0542L59.3711 62.0605Z" fill="#B5DCEF"/>
<path d="M32.3379 70.0321C32.4072 70.0069 32.4827 69.9943 32.5646 69.988L32.7535 70.1518C32.6087 73.6593 32.9991 76.6063 33.9122 78.993C34.7749 81.2536 36.3177 83.0735 38.5343 84.4589C41.0468 86.0269 43.4209 86.1591 45.6689 84.8493C47.4258 83.8355 48.5152 82.2864 48.9246 80.202C49.2772 78.294 49.0064 76.4741 48.1122 74.7424C49.3276 74.9313 50.3477 75.0321 51.1726 75.0321C52.3376 75.0132 53.4018 74.8368 54.3779 74.5031C56.1537 73.8734 57.602 72.7714 58.7355 71.1908C59.8564 69.6165 60.4294 67.8722 60.4672 65.9453C60.5113 64.5221 60.1461 63.2249 59.3715 62.0536C58.6159 60.9139 57.5768 59.9945 56.267 59.2955C52.854 57.5323 48.8931 57.3119 44.3843 58.6343C40.8705 59.6418 37.4386 61.4176 34.0885 63.9617L34.0444 63.9995L33.8933 63.9617V63.9176C33.5469 63.1997 33.188 62.507 32.8102 61.8458" stroke="#1D1E1D" stroke-linecap="round" stroke-linejoin="round"/>
<path d="M14.5986 51.4621C13.1188 51.6069 11.8342 52.0918 10.7385 52.9167C9.57978 53.7227 8.75485 54.7932 8.27627 56.1345C7.59618 57.9355 7.48913 59.768 7.97401 61.6382C8.4337 63.5211 9.39716 65.0765 10.8581 66.3107C11.6452 66.9719 12.5646 67.5261 13.6225 67.9732C14.3782 68.2565 15.3606 68.5399 16.5696 68.817C15.1024 70.0953 14.1956 71.6948 13.8492 73.6154C13.4714 75.7061 13.9185 77.5448 15.1905 79.1317C16.79 81.1594 19.0633 81.9024 22.0103 81.3546C24.5544 80.8949 26.6513 79.7614 28.3075 77.9478C30.0455 76.0272 31.4623 73.4265 32.5643 70.1394C32.5706 70.1268 32.5895 70.1268 32.6084 70.1268L32.3251 61.9405C30.4548 59.239 28.339 56.9847 25.9712 55.1837C22.237 52.3185 18.4524 51.0842 14.6112 51.4747L14.5986 51.4621Z" fill="#B5DCEF"/>
<path d="M32.3125 61.9464C30.4422 59.2449 28.3264 56.9905 25.9586 55.1895C22.2244 52.3243 18.4399 51.0901 14.5986 51.4805C13.1188 51.6253 11.8342 52.1102 10.7385 52.9352C9.57978 53.7412 8.75485 54.8117 8.27627 56.153C7.59618 57.954 7.48913 59.7864 7.97401 61.6567C8.4337 63.5395 9.39716 65.0949 10.8581 66.3292C11.6452 66.9904 12.5646 67.5445 13.6225 67.9916C14.3782 68.275 15.3606 68.5584 16.5696 68.8354C15.1024 70.1138 14.1956 71.7132 13.8492 73.6339C13.4714 75.7245 13.9185 77.5633 15.1905 79.1502C16.79 81.1778 19.0633 81.9209 22.0103 81.373C24.5544 80.9134 26.6513 79.7799 28.3075 77.9663C30.0455 76.0457 31.4623 73.4449 32.5643 70.1578C32.5706 70.1452 32.5895 70.1452 32.6084 70.1452" stroke="#1D1E1D" stroke-linecap="round" stroke-linejoin="round"/>
<path d="M20.2848 68.9941C20.2848 69.0319 20.2723 69.0634 20.2723 69.0949C20.2848 69.0256 20.3037 68.9563 20.3289 68.8808L20.2848 68.9941ZM20.0582 69.6994L20.0707 69.712C20.1085 69.5671 20.1463 69.4286 20.1967 69.2901C20.1463 69.4286 20.0959 69.5671 20.0582 69.6994ZM22.1803 65.0269C22.1551 65.0647 22.1236 65.0899 22.0984 65.1088L22.0858 65.1654C22.1236 65.1277 22.1551 65.0836 22.1866 65.0269M44.0251 77.4386C44.0251 77.4386 44.0314 77.3882 44.0503 77.3693C44.1825 76.9915 44.2896 76.6136 44.3777 76.2358L44.4344 76.0784C44.4722 75.8643 44.5162 75.6376 44.5603 75.4109L44.6044 74.8567C43.5465 75.8643 42.1107 76.6074 40.3035 77.0796C37.8413 77.6842 34.8942 77.7093 31.4749 77.1615C28.0429 76.494 25.2785 75.455 23.1815 74.0507C21.6513 72.9865 20.5556 71.79 19.9007 70.4676L19.7181 71.2296C19.6174 71.8971 19.5733 72.5394 19.5922 73.1376C19.674 75.4613 20.6816 77.3567 22.6085 78.8428C24.6677 80.4108 27.3376 81.4876 30.6185 82.067C33.893 82.6526 36.7519 82.5582 39.1952 81.7836C41.4999 81.0594 43.0994 79.6174 44.0062 77.4701C44.0125 77.4512 44.0251 77.4386 44.0314 77.426M44.4407 76.0658C44.4659 75.9273 44.5037 75.7761 44.5414 75.625L44.5666 75.3983C44.5225 75.625 44.4785 75.8454 44.4407 76.0658ZM44.7241 74.057C44.787 73.125 44.7681 72.1112 44.6674 71.0281C44.554 70.0079 44.4155 69.1075 44.2455 68.3266C41.9974 69.0319 39.6171 69.4286 37.0982 69.5168C35.7884 69.5608 34.3779 69.479 32.8791 69.2649C31.3615 68.9437 30.0139 68.5407 28.8301 68.0495C26.5001 67.1176 24.3969 65.9274 22.5203 64.4854C22.4448 64.6176 22.3692 64.7372 22.2936 64.8506L22.1929 64.9891V65.0143C22.1677 65.071 22.1299 65.1151 22.0921 65.1528L21.1727 66.8657C21.1476 66.9286 21.1098 67.0042 21.072 67.0924C21.0153 67.1931 20.9712 67.3065 20.9335 67.4324C20.8201 67.6591 20.7194 67.8732 20.6375 68.081C20.6186 68.1251 20.5934 68.1818 20.5682 68.2384L20.5241 68.3644V68.377L20.499 68.4777L20.4171 68.673L20.3478 68.8556C20.3226 68.9248 20.3037 68.9941 20.2911 69.0697L20.2786 69.0823C20.2786 69.0823 20.2786 69.1137 20.2786 69.1263L20.2219 69.2649C20.1715 69.4034 20.1274 69.5483 20.0959 69.6868C20.3856 69.9324 20.5934 70.0835 20.7194 70.1402C22.7785 71.6578 25.4548 72.9361 28.7608 73.9625C29.8943 74.3278 30.927 74.6237 31.859 74.8379H31.9283C32.8791 74.9575 33.9496 75.0457 35.1398 75.0897C38.6032 75.2661 41.5503 74.9953 43.9873 74.2711L44.7366 74.0444L44.7241 74.057Z" fill="#4C4B4C"/>
<path d="M44.6989 74.1323C44.6989 74.1323 44.7115 74.0946 44.7115 74.0757L43.9622 74.3024C41.5252 75.0265 38.5781 75.3036 35.1147 75.121C33.9245 75.0769 32.854 74.9887 31.9031 74.8691H31.8339C30.9019 74.655 29.8692 74.359 28.7357 73.9938C25.436 72.9674 22.7534 71.689 20.6942 70.1714C20.5746 70.1148 20.3668 69.9636 20.0708 69.718C19.9134 70.247 19.7874 70.7571 19.7056 71.2482L19.8882 70.4863C20.5494 71.8087 21.6451 72.9989 23.169 74.0694C25.2659 75.4736 28.0304 76.5127 31.4623 77.1802C34.888 77.728 37.8287 77.6965 40.2909 77.0983C42.1045 76.626 43.5339 75.8829 44.5919 74.8754L44.5478 75.4295C44.6108 75.0139 44.6611 74.5857 44.6863 74.1386M26.0216 59.7874L24.2962 61.8529C24.1954 61.9852 24.0884 62.1174 23.9876 62.2496C23.9813 62.2559 23.975 62.2748 23.975 62.3063C23.9561 62.3126 23.9435 62.3315 23.9309 62.363C23.9058 62.3819 23.8869 62.3945 23.8869 62.4071C23.8806 62.4134 23.868 62.4322 23.8617 62.4637C23.2572 63.2824 22.7282 64.0884 22.2748 64.8692C22.3504 64.7559 22.4259 64.6362 22.5015 64.504C24.378 65.9461 26.4813 67.1362 28.8112 68.0682C29.9888 68.5594 31.3427 68.9624 32.8603 69.2835C34.359 69.4976 35.7633 69.5858 37.0794 69.5354C39.5982 69.4536 41.9786 69.0568 44.2266 68.3453C43.9999 67.3251 43.7292 66.2861 43.408 65.2345C43.1057 64.2647 42.8035 63.4209 42.5012 62.7156C41.374 46.8405 35.8829 45.8645 26.0279 59.7874H26.0216Z" fill="#EEC56B"/>
<path d="M44.2329 68.3453C44.0062 67.3251 43.7354 66.2861 43.4142 65.2345C43.112 64.2647 42.8097 63.4209 42.5075 62.7156C41.3803 46.8405 35.8892 45.8645 26.0341 59.7874L24.3087 61.8529C24.208 61.9852 24.1009 62.1174 24.0002 62.2496C23.9939 62.2559 23.9876 62.2748 23.9876 62.3063C23.9687 62.3126 23.9561 62.3315 23.9435 62.363C23.9183 62.3819 23.8994 62.3945 23.8994 62.4071C23.8931 62.4134 23.8805 62.4322 23.8742 62.4637C23.2697 63.2824 22.7407 64.0884 22.2873 64.8692M44.2392 68.3516C44.4092 69.1324 44.5477 70.0329 44.6611 71.053C44.7618 72.1361 44.7807 73.15 44.7178 74.082C44.7178 74.1008 44.7178 74.1197 44.7052 74.1386C44.68 74.5794 44.6296 75.0139 44.5666 75.4295M44.4407 76.097L44.384 76.2545C44.3021 76.6323 44.1888 77.0101 44.0566 77.388C44.0377 77.4068 44.0314 77.432 44.0314 77.4572C44.0251 77.4635 44.0125 77.4824 44.0062 77.5013C43.0994 79.6549 41.4936 81.0907 39.1952 81.8148C36.7519 82.5894 33.893 82.6839 30.6185 82.0982C27.3376 81.5126 24.6677 80.4358 22.6085 78.8741C20.6816 77.3943 19.6803 75.4925 19.5922 73.1689C19.5733 72.5643 19.6174 71.9283 19.7181 71.2608C19.8 70.7697 19.9259 70.2596 20.0833 69.7306M20.2093 69.3087L20.266 69.1702C20.266 69.1702 20.266 69.145 20.2723 69.1261V69.1135M20.4045 68.7168L20.3352 68.9057M20.4927 68.5153L20.5178 68.4145V68.4019M20.5619 68.276C20.5871 68.2193 20.6123 68.1689 20.6312 68.1186C20.7131 67.9108 20.8138 67.6967 20.9272 67.47C20.9649 67.3503 21.009 67.237 21.0657 67.1299C21.1035 67.0481 21.135 66.9725 21.1664 66.9032L22.0858 65.1904L22.0984 65.1337C22.0984 65.1337 22.1551 65.0896 22.1803 65.0519M22.1803 65.0519V65.0267L22.281 64.8881M22.1803 65.0519C22.1551 65.1085 22.1173 65.1526 22.0795 65.1904M44.4281 76.1096C44.4659 75.8955 44.51 75.6688 44.554 75.4421M20.1967 69.3087C20.1463 69.4473 20.1022 69.5921 20.0707 69.7306M20.3226 68.9057C20.2974 68.975 20.2786 69.0379 20.266 69.1135" stroke="#1D1E1D" stroke-linecap="round" stroke-linejoin="round"/>
<path d="M20.4866 68.5024L20.4048 68.6976M20.5622 68.2568L20.5181 68.3828" stroke="black" stroke-linecap="round" stroke-linejoin="round"/>
<path d="M32.4816 13.5268C32.8028 13.4449 33.1051 13.3253 33.401 13.1553C34.1063 12.7333 34.5534 12.1288 34.7549 11.3417C34.9564 10.5419 34.8494 9.79888 34.4401 9.11879C34.0181 8.41351 33.4136 7.96641 32.6265 7.7649C31.8267 7.56339 31.09 7.67674 30.4162 8.09865C29.7172 8.48907 29.2638 9.0873 29.0623 9.88704C28.8608 10.6742 28.9678 11.4298 29.3772 12.1414C29.7802 12.8215 30.3847 13.2686 31.1781 13.4701C31.6252 13.5898 32.0597 13.6086 32.4816 13.5394V13.5268Z" fill="#EEC56B"/>
<path d="M32.4758 13.5277C32.0539 13.6032 31.6194 13.578 31.1723 13.4584C30.3725 13.2569 29.7743 12.8161 29.3713 12.1297C28.962 11.4181 28.8549 10.6688 29.0564 9.87532C29.2579 9.07558 29.7113 8.48365 30.4103 8.08693C31.0841 7.66502 31.8209 7.55167 32.6206 7.75318C33.4078 7.95469 34.0123 8.40808 34.4342 9.10707C34.8498 9.79346 34.9506 10.5302 34.7491 11.33C34.5475 12.1171 34.0942 12.7216 33.3952 13.1435C33.0992 13.3136 32.7906 13.4332 32.4758 13.5151V13.5277ZM32.4758 13.5277L33.7793 19.6548M32.4758 13.5277L32.4191 13.3136" stroke="#1D1E1D" stroke-linecap="round" stroke-linejoin="round"/>
<path d="M63.0366 22.5311C63.1688 22.8396 63.3326 23.1041 63.5404 23.3371C63.8426 23.6583 64.2142 23.8976 64.6487 24.0676C65.4043 24.3636 66.16 24.3573 66.9031 24.0487C67.6461 23.715 68.1625 23.1734 68.4584 22.4114C68.7544 21.6432 68.7481 20.8938 68.4333 20.1697C68.0932 19.4203 67.5454 18.8913 66.7897 18.5954C66.034 18.2994 65.291 18.3183 64.5668 18.652C63.8049 18.948 63.2759 19.4833 62.9736 20.2515C62.6777 21.0072 62.6966 21.7691 63.0366 22.5311Z" fill="#EEC56B"/>
<path d="M63.5399 23.3371C63.8421 23.6583 64.2137 23.8976 64.6482 24.0676C65.4038 24.3636 66.1595 24.3573 66.9025 24.0487C67.6456 23.715 68.162 23.1734 68.4579 22.4114C68.7539 21.6432 68.7476 20.8938 68.4327 20.1697C68.0927 19.4203 67.5449 18.8913 66.7892 18.5954C66.0335 18.2994 65.2905 18.3183 64.5663 18.652C63.8043 18.948 63.2754 19.4833 62.9731 20.2515C62.6772 21.0072 62.696 21.7691 63.0361 22.5311C63.1683 22.8396 63.3321 23.1041 63.5399 23.3371ZM63.5399 23.3371L63.6973 23.2112M63.5399 23.3371L58.8926 27.5688" stroke="#1D1E1D" stroke-linecap="round" stroke-linejoin="round"/>
<path d="M39.4344 18.8671C36.6258 18.7978 33.9558 19.1379 31.4244 19.8998C27.6713 21.0081 24.5605 22.8406 22.1109 25.3909C20.247 27.3179 18.7671 29.6667 17.6714 32.4374C16.6009 35.1641 16.0405 37.9033 15.9838 40.6489L14.7999 42.5947C14.0002 44.2131 13.6098 45.8377 13.6224 47.4498C13.7294 52.5946 17.9359 56.7255 26.2355 59.8552L42.0036 64.8236C50.5992 67.0213 56.4177 66.0453 59.453 61.8955C60.4038 60.5857 61.0147 59.0366 61.2917 57.2482L61.4177 54.9686C62.9668 52.6701 64.0814 50.1009 64.7677 47.2798C65.4604 44.3768 65.5864 41.6061 65.1519 38.9487C64.6166 35.4538 63.1305 32.1729 60.6872 29.1125C59.0374 27.0345 57.0538 25.2209 54.7364 23.6781C52.4883 22.1983 50.0513 21.0333 47.4254 20.1958C44.7743 19.3709 42.1106 18.9301 39.4344 18.8545V18.8671Z" fill="#EEC56B"/>
<path d="M41.9972 64.8113C50.5928 67.009 56.4114 66.033 59.4466 61.8831C60.3975 60.5733 61.0083 59.0242 61.2854 57.2359L61.4113 54.9563C62.9604 52.6578 64.075 50.0886 64.7614 47.2675C65.4541 44.3645 65.58 41.5938 65.1455 38.9364C64.6103 35.4415 63.1241 32.1606 60.6809 29.1002C59.031 27.0222 57.0474 25.2086 54.7301 23.6658C52.482 22.186 50.045 21.021 47.4191 20.1835C44.768 19.3586 42.1043 18.9178 39.428 18.8422C36.6195 18.7666 33.9495 19.113 31.418 19.8749C27.6649 20.9832 24.5542 22.8157 22.1046 25.366C20.2406 27.293 18.7608 29.6418 17.6651 32.4125C16.5946 35.1392 16.0341 37.8784 15.9774 40.624L14.7936 42.5698C13.9938 44.1882 13.6034 45.8128 13.616 47.4249C13.7231 52.5697 17.9296 56.7006 26.2292 59.8303" stroke="#1D1E1D" stroke-linecap="round" stroke-linejoin="round"/>
<path d="M55.8697 51.7524C55.5297 51.0156 55.3786 50.6126 55.4289 50.5496C56.9969 47.5648 57.8218 44.7752 57.8911 42.1807C57.9982 39.1014 57.3496 36.3811 55.9453 34.0197C55.0385 32.4957 53.7791 31.1104 52.1607 29.8698C50.6431 28.6797 48.924 27.7036 47.0097 26.9291L43.8989 25.953C41.8775 25.487 39.9002 25.3044 37.9796 25.3926C35.9582 25.4933 34.1257 25.9026 32.4822 26.6268C29.9822 27.754 27.9041 29.6117 26.248 32.1935C24.8059 34.366 23.8677 37.1178 23.4395 40.4616C23.4206 40.5372 23.0679 40.7828 22.3878 41.1921C21.5629 41.9226 20.9206 42.7097 20.4672 43.5535C19.7493 44.8948 19.4786 46.3306 19.6612 47.8608C19.8564 49.3532 20.442 50.6945 21.4181 51.8846C22.539 53.27 23.874 54.4854 25.4105 55.5307C26.8903 56.5319 28.5024 57.3883 30.253 58.1062C31.8776 58.7863 33.4393 59.3593 34.938 59.8316C36.4619 60.3165 38.0614 60.7321 39.7302 61.0848C41.5752 61.5067 43.4014 61.7334 45.1898 61.7711C47.0537 61.7963 48.8484 61.5633 50.5738 61.0785C52.0348 60.6503 53.269 59.882 54.2703 58.78C55.2967 57.6276 55.9138 56.2989 56.1153 54.7939C56.2413 53.8368 56.1594 52.8229 55.8697 51.7524Z" fill="white"/>
<path d="M56.1153 54.7939C56.2413 53.8368 56.1594 52.8229 55.8697 51.7524C55.5297 51.0156 55.3786 50.6126 55.4289 50.5496C56.9969 47.5648 57.8218 44.7752 57.8911 42.1807C57.9982 39.1014 57.3496 36.3811 55.9453 34.0197C55.0385 32.4957 53.7791 31.1104 52.1607 29.8698C50.6431 28.6797 48.924 27.7036 47.0097 26.9291L43.8989 25.953C41.8775 25.487 39.9002 25.3044 37.9796 25.3926C35.9582 25.4933 34.1257 25.9026 32.4822 26.6268C29.9822 27.754 27.9041 29.6117 26.248 32.1935C24.8059 34.366 23.8677 37.1178 23.4395 40.4616C23.4206 40.5372 23.0679 40.7828 22.3878 41.1921C21.5629 41.9226 20.9206 42.7097 20.4672 43.5535C19.7493 44.8948 19.4786 46.3306 19.6612 47.8608C19.8564 49.3532 20.442 50.6945 21.4181 51.8846C22.539 53.27 23.874 54.4854 25.4105 55.5307C26.8903 56.5319 28.5024 57.3883 30.253 58.1062C31.8776 58.7863 33.4393 59.3593 34.938 59.8316C36.4619 60.3165 38.0614 60.7321 39.7302 61.0848C41.5752 61.5067 43.4014 61.7334 45.1898 61.7711C47.0537 61.7963 48.8484 61.5633 50.5738 61.0785C52.0348 60.6503 53.269 59.882 54.2703 58.78C55.2967 57.6276 55.9138 56.2989 56.1153 54.7939Z" stroke="#1D1E1D" stroke-linecap="round" stroke-linejoin="round"/>
<path d="M28.0552 50.7494C29.1195 50.1637 29.831 49.2947 30.1963 48.1235C30.5615 46.9522 30.4796 45.8439 29.9318 44.7797C29.4217 43.7029 28.5968 42.985 27.4633 42.6261C26.3298 42.2671 25.2467 42.3868 24.2077 42.9787C23.1561 43.5391 22.4445 44.4019 22.073 45.5668C21.7077 46.7318 21.7896 47.859 22.3248 48.9484C22.8412 50.0126 23.6661 50.7242 24.7933 51.0831C25.9205 51.4421 26.9847 51.3224 28.0426 50.7494H28.0552Z" fill="#F3CCD0"/>
<path d="M51.4874 58.1297C52.5516 57.5441 53.2632 56.6751 53.6285 55.5038C53.9937 54.3389 53.9118 53.2243 53.364 52.16C52.835 51.1021 52.0101 50.3968 50.8892 50.0442C49.7683 49.6916 48.6726 49.7923 47.6273 50.3528C46.5883 50.9132 45.883 51.7822 45.5114 52.9472C45.1399 54.1122 45.2218 55.2393 45.7444 56.3225C46.2734 57.393 47.1046 58.1045 48.2318 58.4635C49.359 58.8224 50.4358 58.7028 51.4811 58.1297H51.4874Z" fill="#F3CCD0"/>
<path d="M38.5084 48.0118C37.4819 48.1881 36.6696 48.0685 36.0651 47.6592C35.555 48.3582 35.1331 49.2083 34.8057 50.2095C34.4404 51.2423 34.2893 52.1805 34.3523 53.0243C34.3963 53.7485 34.5727 54.3908 34.8749 54.945C35.2465 55.581 35.7376 55.9903 36.3485 56.1729C37.8598 56.6704 39.1507 55.9714 40.2086 54.0697C41.1217 52.4513 41.531 50.8959 41.4366 49.4035C40.6494 49.3846 39.8812 48.9942 39.1381 48.2259C39.031 48.1189 38.8925 48.0496 38.7162 48.0244H38.5021L38.5084 48.0118Z" fill="#FBE4E8"/>
<path d="M36.0651 47.6527C36.6696 48.062 37.4819 48.1817 38.5084 48.0054H38.7225C38.8988 48.0368 39.0373 48.1061 39.1444 48.2132C39.8875 48.9814 40.6557 49.3718 41.4429 49.3907C41.4869 49.3907 41.5373 49.3907 41.594 49.3781C42.0159 49.3466 42.3496 49.2396 42.5889 49.0633M36.0651 47.6527C35.9958 47.6023 35.9329 47.552 35.8762 47.5079L35.2591 46.6641M36.0651 47.6527C35.555 48.3517 35.1331 49.2018 34.8057 50.2031C34.4404 51.2358 34.2893 52.1741 34.3523 53.0179C34.3963 53.7421 34.5727 54.3844 34.8749 54.9385C35.2465 55.5745 35.7376 55.9838 36.3485 56.1665C37.8598 56.6639 39.1507 55.9649 40.2086 54.0632C41.1217 52.4448 41.531 50.8894 41.4366 49.397" stroke="#1D1E1D" stroke-linecap="round" stroke-linejoin="round"/>
<path d="M43.6219 46.5553C43.4015 47.2606 43.4078 47.9344 43.6471 48.5893C43.8927 49.219 44.302 49.622 44.875 49.8046C45.4481 49.9873 46.0274 49.8928 46.613 49.5276C47.1861 49.1309 47.5765 48.583 47.8032 47.8777C48.0299 47.1724 48.0236 46.4735 47.778 45.8437C47.5324 45.2014 47.1168 44.7921 46.5186 44.6032C45.9204 44.4143 45.3788 44.5276 44.8121 44.9118C44.2516 45.2833 43.8549 45.8374 43.6219 46.5616M46.7894 47.1661C46.5879 47.2606 46.3864 47.2732 46.1848 47.2102C46.0085 47.1536 45.8637 47.0276 45.7503 46.8387C45.6622 46.6687 45.6496 46.4798 45.7126 46.2783C45.7755 46.0767 45.8952 45.9319 46.0652 45.8375C46.2667 45.7304 46.4619 45.7052 46.6382 45.7619C46.8397 45.8249 46.9972 45.9571 47.1042 46.1649C47.1798 46.3349 47.1861 46.5175 47.1231 46.719C47.0601 46.9206 46.9468 47.0717 46.7894 47.1661Z" fill="#1D1E1D"/>
<path d="M46.185 47.2043C46.3865 47.2673 46.588 47.2547 46.7895 47.1603C46.9469 47.0658 47.0603 46.921 47.1233 46.7132C47.1862 46.5053 47.1799 46.3227 47.1044 46.159C46.9973 45.9575 46.8462 45.819 46.6384 45.756C46.4621 45.6993 46.2668 45.7245 46.0653 45.8316C45.8953 45.9197 45.7757 46.0645 45.7127 46.2724C45.6497 46.4802 45.6623 46.6628 45.7505 46.8328C45.8575 47.0217 46.0024 47.1477 46.185 47.2043Z" fill="white"/>
<path d="M34.226 45.6173C34.7991 45.2206 35.1895 44.6728 35.4162 43.9675C35.6429 43.2622 35.6366 42.5632 35.391 41.9335C35.1328 41.2912 34.7172 40.8756 34.1316 40.693C33.5459 40.5104 32.9792 40.6111 32.3873 40.9889C31.8268 41.3605 31.4301 41.9146 31.1971 42.6388C30.9767 43.3441 30.983 44.0179 31.2223 44.6728C31.4931 45.3088 31.915 45.7181 32.488 45.8944C33.0611 46.077 33.6404 45.9826 34.226 45.6173ZM34.6983 42.2484C34.7865 42.4184 34.7991 42.6073 34.7361 42.8088C34.6731 43.0103 34.5535 43.1552 34.3835 43.2496C34.1945 43.3504 33.9993 43.363 33.7978 43.3C33.6089 43.237 33.4641 43.1174 33.3633 42.9285C33.2752 42.7584 33.2626 42.5695 33.3255 42.368C33.3885 42.1665 33.5082 42.0217 33.6782 41.9272C33.8671 41.8202 34.0623 41.795 34.2512 41.8516C34.4527 41.9146 34.6039 42.0469 34.6983 42.2484Z" fill="#1D1E1D"/>
<path d="M34.7361 42.8151C34.799 42.6136 34.7864 42.4247 34.6983 42.2547C34.6038 42.0532 34.4527 41.9209 34.2512 41.858C34.0623 41.795 33.867 41.8202 33.6781 41.9335C33.5081 42.0217 33.3885 42.1665 33.3255 42.3743C33.2625 42.5821 33.2751 42.7647 33.3633 42.9348C33.464 43.1237 33.6026 43.2496 33.7978 43.3063C33.9993 43.3693 34.1945 43.3504 34.3834 43.2559C34.5534 43.1678 34.6731 43.0229 34.7361 42.8151Z" fill="white"/>
<path d="M44.2202 42.8343L46.1849 42.5635" stroke="#1D1E1D" stroke-linecap="round" stroke-linejoin="round"/>
<path d="M40.5108 24.3471C39.9252 24.599 39.371 25.002 38.861 25.5498C38.3761 26.0914 37.9983 26.677 37.7212 27.3004C37.3308 28.2135 37.1859 29.1959 37.293 30.2349C37.3811 31.2802 37.7023 32.1933 38.2564 32.9679C39.0751 34.0951 40.3093 35.0019 41.9655 35.6882C42.8282 36.0409 43.6657 36.2424 44.478 36.2991C45.5107 36.362 46.3168 36.1416 46.8898 35.6379C47.2173 35.3923 47.4188 35.0648 47.488 34.6555C47.5573 34.2462 47.4566 33.8936 47.1732 33.5976C47.0032 33.4087 46.6946 33.1946 46.2412 32.9553C45.473 32.59 44.9692 32.1996 44.7362 31.784C44.4843 31.3369 44.4591 30.8205 44.6732 30.2349C44.8558 29.7563 45.1581 29.2966 45.5737 28.8684C45.9767 28.4339 46.4994 28.1254 47.148 27.9365C47.9477 27.672 48.483 27.6153 48.7727 27.7601C48.6719 26.7589 48.1933 25.9151 47.3495 25.2161C46.6316 24.6179 45.7437 24.2086 44.6921 23.9882C43.1682 23.6796 41.7765 23.7992 40.5108 24.366V24.3471Z" fill="#50AB5A"/>
<path d="M48.7668 27.7406C48.666 26.7394 48.1875 25.8955 47.3436 25.1966C46.6258 24.5983 45.7379 24.189 44.6863 23.9686C43.1623 23.6601 41.7707 23.7797 40.505 24.3464C39.9193 24.5983 39.3652 25.0014 38.8551 25.5492C38.3702 26.0908 37.9924 26.6764 37.7153 27.2998C37.3249 28.2129 37.1801 29.1952 37.2871 30.2343C37.3753 31.2796 37.6964 32.1927 38.2506 32.9672C39.0692 34.0944 40.3034 35.0012 41.9596 35.6876C42.8223 36.0402 43.6598 36.2417 44.4722 36.2984C45.5049 36.3614 46.3109 36.141 46.884 35.6372C47.2114 35.3916 47.4129 35.0642 47.4822 34.6549C47.5515 34.2456 47.4507 33.8929 47.1673 33.5969C46.9973 33.408 46.6887 33.1939 46.2354 32.9546C45.4671 32.5894 44.9633 32.199 44.7303 31.7834C44.4784 31.3363 44.4533 30.8199 44.6674 30.2343C44.85 29.7557 45.1522 29.296 45.5679 28.8678C45.9709 28.4333 46.4935 28.1247 47.1421 27.9358C47.9419 27.6713 48.4771 27.6147 48.7668 27.7595V27.7406Z" stroke="#1D1E1D" stroke-linecap="round" stroke-linejoin="round"/>
<path d="M49.9262 58.9868C49.9262 59.7361 49.964 60.5359 50.0458 61.3923C48.9061 60.221 48.9312 60.2588 50.1088 61.5119C51.2927 62.7587 52.2687 62.7902 53.0559 61.6064C53.8304 60.4162 54.2145 59.2072 54.2208 57.9855C54.2208 56.7576 53.9816 55.9893 53.4967 55.6871C52.9929 55.3911 52.4639 55.3029 51.9161 55.41C51.3682 55.5359 50.896 55.9767 50.5118 56.7324C50.1214 57.488 49.9262 58.2437 49.9262 58.9868Z" fill="white"/>
<path d="M50.0392 61.3932C49.9573 60.5368 49.9132 59.7371 49.9195 58.9877C49.9195 58.2384 50.1148 57.489 50.5052 56.7333C50.8956 55.9777 51.3616 55.5369 51.9094 55.4109C52.4573 55.3039 52.9862 55.3983 53.49 55.688C53.9749 55.9903 54.2205 56.7585 54.2142 57.9865C54.2142 59.2081 53.8238 60.4109 53.0492 61.6073C52.2684 62.7912 51.286 62.7597 50.1022 61.5129" stroke="#1D1E1D" stroke-linecap="round" stroke-linejoin="round"/>
<path d="M48.125 57.5233C49.7496 57.8508 51.0091 58.6946 51.9033 60.0611C52.6337 61.289 52.8919 62.5736 52.6904 63.9086L52.5833 64.4943C52.4637 64.9728 52.3063 65.4325 52.0985 65.8733C51.4184 67.2902 50.373 68.2537 48.9625 68.7574C47.5897 69.3683 46.2043 69.469 44.8127 69.0723C43.3832 68.6945 42.2686 67.8947 41.4815 66.6794C40.6251 65.3192 40.3921 63.8331 40.7825 62.2273C41.1981 60.6026 42.1112 59.318 43.5281 58.3923C44.9764 57.5107 46.5129 57.2211 48.1313 57.5296L48.125 57.5233Z" fill="white"/>
<path d="M48.9747 68.7525C47.6019 69.3634 46.2165 69.4641 44.8249 69.0674C43.3954 68.6896 42.2808 67.8898 41.4937 66.6745C40.6373 65.3143 40.4043 63.8282 40.7947 62.2224C41.2103 60.5977 42.1234 59.3131 43.5403 58.3875C44.9886 57.5059 46.5251 57.2162 48.1435 57.5247C49.7681 57.8522 51.0276 58.696 51.9218 60.0625C52.6522 61.2904 52.9104 62.5751 52.7089 63.91L52.6018 64.4957C52.4822 64.9743 52.3248 65.434 52.117 65.8748C51.4369 67.2916 50.3915 68.2551 48.981 68.7588L48.9747 68.7525Z" stroke="#1D1E1D" stroke-linecap="round" stroke-linejoin="round"/>
<path d="M15.3358 43.0545C15.2035 43.8228 15.0272 44.6351 14.7942 45.4915C16.1229 44.5281 16.0914 44.5658 14.7061 45.6049C13.327 46.6313 12.3509 46.455 11.7905 45.0759C11.2363 43.6905 11.0663 42.3744 11.2804 41.1213C11.4945 39.8619 11.8661 39.1251 12.395 38.9173C12.9429 38.7221 13.4781 38.741 14.0008 38.9677C14.5172 39.2133 14.9013 39.7674 15.1532 40.6238C15.405 41.4802 15.4617 42.2926 15.3358 43.0608V43.0545Z" fill="white"/>
<path d="M14.8002 45.4793C15.0332 44.6228 15.2095 43.8105 15.3418 43.0423C15.474 42.274 15.411 41.4617 15.1591 40.6053C14.9073 39.7489 14.5231 39.1947 14.0068 38.9491C13.4841 38.7224 12.9488 38.7035 12.401 38.8987C11.8657 39.1065 11.4942 39.8433 11.2864 41.1027C11.0786 42.3559 11.2486 43.672 11.7965 45.0573C12.3569 46.4364 13.333 46.6127 14.712 45.5863" stroke="#1D1E1D" stroke-linecap="round" stroke-linejoin="round"/>
<path d="M16.9669 45.5674L21.2867 47.2739C21.589 50.2776 22.1683 53.0421 23.0247 55.5672C23.8938 58.0987 24.5738 59.7674 25.0713 60.5735L23.9567 62.1225C23.1318 63.3631 22.5084 64.5029 22.0991 65.5419C15.3737 59.1062 11.904 53.0987 11.6836 47.5258C12.9808 44.8873 14.744 44.2324 16.9669 45.5611V45.5674Z" fill="white"/>
<path d="M23.0306 55.5614C22.1742 53.0362 21.5886 50.2718 21.2926 47.268L16.9728 45.5615C14.7499 44.2328 12.9867 44.8814 11.6895 47.5262C11.9036 53.0992 15.3796 59.1067 22.1049 65.5423C22.5205 64.5033 23.1377 63.3635 23.9626 62.123L25.0772 60.5739C24.5797 59.7616 23.8996 58.0928 23.0306 55.5677V55.5614Z" stroke="#1D1E1D" stroke-linecap="round" stroke-linejoin="round"/>
<path d="M21.683 43.7733C22.9173 45.0265 23.5973 46.5252 23.7233 48.2758C23.824 50.0138 23.3329 51.4936 22.2498 52.6964C21.2548 53.7795 20.0269 54.3651 18.547 54.4533C17.0987 54.5603 15.7511 54.1636 14.5169 53.2568C14.0509 49.806 13.1063 47.898 11.6895 47.5327C11.702 46.097 12.1869 44.8249 13.1441 43.7167C14.265 42.5013 15.6504 41.8968 17.3002 41.9094C18.9627 41.9409 20.4236 42.5643 21.683 43.7733Z" fill="white"/>
<path d="M14.5291 53.25C15.7696 54.1568 17.1109 54.5535 18.5592 54.4464C20.0328 54.352 21.267 53.7664 22.262 52.6895C23.3451 51.4805 23.8363 50.007 23.7355 48.2689C23.6096 46.5183 22.9295 45.0196 21.6952 43.7665C20.4358 42.5574 18.9749 41.934 17.3124 41.9025C15.6689 41.8899 14.2835 42.4945 13.1563 43.7098C12.1991 44.8181 11.7143 46.0901 11.7017 47.5259" stroke="#1D1E1D" stroke-linecap="round" stroke-linejoin="round"/>
</g>
<defs>
<clipPath id="clip0_8819_19249">
<rect width="80" height="80" fill="white" transform="translate(0 0.5)"/>
</clipPath>
</defs>
</svg>
