<svg width="136" height="136" viewBox="0 0 136 136" fill="none" xmlns="http://www.w3.org/2000/svg">
<g clip-path="url(#clip0_8447_19071)">
<path d="M87.3964 113.712L86.1267 112.959C84.3591 112.678 80.5169 112.537 74.6165 112.537C70.9237 112.537 67.8947 112.612 65.5295 112.769L63.1312 112.959L60.4093 118.534C58.3927 123.059 56.9239 127.294 56.0193 131.248C54.5173 137.956 55.1231 143.871 57.8533 148.974L58.8657 148.743C59.7869 148.586 60.9155 148.511 62.2516 148.511C64.3677 148.511 66.2515 148.759 67.9112 149.264L69.2224 149.611C70.3345 149.859 71.5129 149.967 72.7659 149.942C74.7825 149.975 76.4173 149.744 77.6538 149.264L93.3881 148.983C95.4212 146.642 96.749 144.226 97.3548 141.745C98.1681 138.155 97.6038 134.193 95.6619 129.85C95.0229 124.25 93.2387 119.758 90.3093 116.392C89.4047 115.333 88.4338 114.44 87.3964 113.72V113.712Z" fill="white"/>
<path d="M63.1317 112.951L65.53 112.761C67.8951 112.604 70.9241 112.529 74.617 112.529C80.5173 112.529 84.3596 112.67 86.1272 112.951L87.3969 113.704C88.4342 114.424 89.4051 115.309 90.3097 116.376C93.2391 119.751 95.0233 124.234 95.6623 129.834C97.6042 134.177 98.1685 138.139 97.3552 141.729C96.7411 144.21 95.4216 146.626 93.3885 148.967M77.6543 149.248C76.4178 149.728 74.7912 149.959 72.7664 149.926C71.5133 149.959 70.3349 149.852 69.2229 149.595L67.9117 149.248M57.862 148.967C55.1401 143.863 54.526 137.957 56.028 131.24" stroke="#1E1E1E" stroke-width="1.2" stroke-linecap="round" stroke-linejoin="round"/>
<path d="M41.223 51.642C40.0861 51.4517 39.0238 51.3855 38.028 51.4517C35.3559 51.6833 33.1816 52.2127 31.5053 53.0399C30.3269 53.5776 29.2315 54.3551 28.2273 55.3643C27.2564 56.3817 26.4099 57.5563 25.7045 58.8881C24.9992 60.1785 24.4763 61.5681 24.1195 63.0405C23.7627 64.4963 23.6382 65.9935 23.7461 67.5404C23.8042 68.7729 24.0614 70.0798 24.5344 71.4446C24.883 72.4869 25.3809 73.5622 26.0365 74.6789L27.0572 76.2009C28.2937 77.9049 30.385 79.3525 33.3393 80.5436C34.9077 81.164 38.1774 81.9498 43.14 82.8928L43.7707 80.3534C44.4429 78.2854 45.3557 76.2092 46.5258 74.1413C45.3972 73.6946 44.1773 73.0576 42.8661 72.2305C40.2603 70.6588 38.5508 69.0624 37.7376 67.4328C38.5591 69.0541 40.2686 70.6588 42.8661 72.2305C44.1773 73.0576 45.3972 73.6946 46.5258 74.1413C47.6212 72.0237 49.3473 70.0302 51.7208 68.169C52.9158 67.2757 53.9946 66.5643 54.9738 66.0432L48.8992 56.7787C47.3059 54.3716 45.2893 52.7835 42.8412 52.0225L41.2396 51.642H41.223Z" fill="#EE9CA5"/>
<path d="M46.5092 74.1168C47.6046 71.9993 49.3308 70.0058 51.7042 68.1446C52.8992 67.2512 53.978 66.5399 54.9572 66.0187L48.8826 56.7543C47.2893 54.3472 45.2727 52.7591 42.8246 51.998L41.223 51.6175C40.0861 51.4273 39.0238 51.3611 38.028 51.4273C35.3559 51.6589 33.1816 52.1883 31.5053 53.0155C30.3269 53.5531 29.2315 54.3307 28.2273 55.3399C27.2564 56.3573 26.4099 57.5319 25.7045 58.8636C24.9992 60.154 24.4763 61.5437 24.1195 63.0161C23.7627 64.4719 23.6382 65.9691 23.7461 67.5159C23.8042 68.7484 24.0614 70.0554 24.5344 71.4202C24.883 72.4625 25.3809 73.5378 26.0365 74.6545L27.0572 76.1765C28.2937 77.8805 30.385 79.3281 33.3393 80.5192C34.9077 81.1396 38.1774 81.9254 43.14 82.8684L43.7707 80.329C44.4429 78.261 45.3557 76.1848 46.5258 74.1168H46.5092ZM46.5092 74.1168C45.3806 73.6702 44.1607 73.0332 42.8495 72.2061C40.2437 70.6344 38.5342 69.038 37.721 67.4084" stroke="#B34E58" stroke-width="1.2" stroke-linecap="round" stroke-linejoin="round"/>
<path d="M116.973 81.08C117.064 79.558 116.923 78.0029 116.566 76.423C116.21 74.8431 115.662 73.3707 114.915 72.0224C114.201 70.6493 113.28 69.4416 112.143 68.3994C111.156 67.5143 110.052 66.7946 108.832 66.2156C107.728 65.6614 106.567 65.2974 105.355 65.1072C104.791 64.9583 104.185 64.859 103.529 64.8011C98.4505 64.4868 94.0522 65.8103 90.3427 68.755C89.1643 69.6567 88.1436 70.6824 87.2556 71.8239L86.2515 73.2466L87.5129 75.6289C88.434 77.7217 89.1394 80.013 89.6207 82.4945C90.2597 84.943 90.6082 87.3087 90.6746 89.6C90.6912 90.7332 90.6497 91.6183 90.5585 92.2635L92.0771 93.1238C93.3717 93.7938 94.741 94.2901 96.1932 94.621C100.816 95.6797 105.347 94.9766 109.803 92.5116C110.367 92.1642 110.874 91.8085 111.322 91.4529C112.326 90.7167 113.214 89.8729 113.977 88.9382C114.832 87.9125 115.521 86.7793 116.027 85.5468C116.6 84.124 116.915 82.6351 116.965 81.0883L116.973 81.08Z" fill="#EE9CA5"/>
<path d="M89.6207 82.4706C90.2597 84.9191 90.6082 87.2848 90.6746 89.5761C90.6912 90.7093 90.6497 91.5944 90.5585 92.2396L92.0771 93.0999C93.3717 93.7699 94.741 94.2662 96.1932 94.5971C100.816 95.6476 105.347 94.9527 109.803 92.4878C110.367 92.1403 110.874 91.7847 111.322 91.429C112.326 90.6928 113.214 89.849 113.977 88.9143C114.832 87.8886 115.521 86.7554 116.027 85.5229C116.6 84.1001 116.915 82.6112 116.965 81.0644C117.056 79.5424 116.915 77.9873 116.558 76.4074C116.201 74.8275 115.654 73.3551 114.907 72.0068C114.193 70.6337 113.272 69.426 112.135 68.3837C111.147 67.4986 110.044 66.779 108.824 66.2C107.72 65.6458 106.558 65.2818 105.347 65.0915C104.782 64.9427 104.177 64.8434 103.521 64.7855C98.4422 64.4712 94.0439 65.7947 90.3344 68.7394C89.156 69.641 88.1353 70.6667 87.2473 71.8083L86.2432 73.231L87.5046 75.6133C88.4257 77.706 89.1311 79.9973 89.6124 82.4789L89.6207 82.4706ZM89.6207 82.4706L98.6413 80.4357" stroke="#B34E58" stroke-width="1.2" stroke-linecap="round" stroke-linejoin="round"/>
<path d="M77.3638 43.4932L75.8535 44.5768C72.8909 46.6034 70.7332 50.1437 69.3806 55.2061L68.2188 62.1875L71.4967 63.2711C74.1191 64.2968 76.4759 65.5127 78.5589 66.9107L80.1605 63.5523C81.4468 61.0046 82.6999 59.0028 83.9281 57.547C82.6999 59.0111 81.4468 61.0129 80.1605 63.5523L78.5589 66.9107C80.7497 68.2259 82.6833 69.6569 84.343 71.1954C85.1978 71.9978 85.8119 72.6596 86.1853 73.1807L95.3719 66.555C97.7536 64.8179 99.2805 62.5514 99.9444 59.7638L100.301 57.9358C100.476 56.7115 100.509 55.5121 100.401 54.3375C100.26 52.9975 99.9278 51.7071 99.405 50.4829C98.8158 49.0767 97.9943 47.7945 96.9403 46.6199C95.8283 45.4122 94.6167 44.4196 93.3055 43.6504C92.0192 42.7901 90.5919 42.1283 89.0234 41.6651C87.5297 41.2184 86.011 41.0282 84.4924 41.1026C83.1563 41.1605 81.8617 41.417 80.592 41.8636C79.4634 42.2772 78.3846 42.8232 77.3555 43.5015L77.3638 43.4932Z" fill="#EE9CA5"/>
<path d="M78.5505 66.895C80.7414 68.2102 82.675 69.6413 84.3347 71.1798C85.1895 71.9822 85.8036 72.6439 86.177 73.1651L95.3636 66.5393C97.7453 64.8023 99.2722 62.5358 99.9361 59.7482L100.293 57.9201C100.467 56.6959 100.5 55.4965 100.393 54.3219C100.251 52.9819 99.9195 51.6915 99.3967 50.4672C98.8075 49.061 97.9859 47.7789 96.932 46.6043C95.82 45.3966 94.6084 44.404 93.2972 43.6347C92.0109 42.7745 90.5836 42.1127 89.0151 41.6495C87.5214 41.2028 86.0027 41.0126 84.4841 41.087C83.148 41.1449 81.8534 41.4013 80.5837 41.848C79.4551 42.2616 78.3763 42.8076 77.3472 43.4858L75.8369 44.5694C72.8743 46.596 70.7166 50.1364 69.364 55.1987L68.2021 62.1801L71.4801 63.2637C74.1025 64.2894 76.4593 65.5054 78.5422 66.9033L78.5505 66.895ZM78.5505 66.895L80.1522 63.5367C81.4385 60.989 82.6916 58.9872 83.9198 57.5314" stroke="#B34E58" stroke-width="1.2" stroke-linecap="round" stroke-linejoin="round"/>
<path d="M71.281 43.2129C70.9407 42.6504 70.5922 42.1458 70.2187 41.6992C69.5134 40.7231 68.6835 39.838 67.7126 39.0439C66.6669 38.1919 65.5383 37.5136 64.3101 37.0008C62.8579 36.4135 61.3724 36.0991 59.8289 36.0412C58.2853 35.9751 56.7252 36.1157 55.1401 36.4714C53.5551 36.8271 52.0862 37.3647 50.7419 38.0844C49.3643 38.7957 48.1527 39.7222 47.1154 40.872C46.2191 41.8563 45.4805 42.9647 44.8996 44.1807C44.4183 45.2974 44.0449 46.4554 43.7876 47.6466C43.6382 48.2091 43.5386 48.8129 43.4805 49.4664C43.3976 54.1399 44.7917 58.4082 47.6631 62.2794C49.0821 64.215 50.5178 65.6874 51.9618 66.6883L54.3601 65.4723C56.0198 64.7278 57.8123 64.124 59.7293 63.6608C59.3807 62.8419 59.0239 61.8575 58.6505 60.716C59.0239 61.8658 59.3807 62.8501 59.7293 63.6608C60.2272 63.5284 60.7334 63.4209 61.2396 63.3216C63.696 62.7013 66.0777 62.3704 68.3765 62.3125C69.5051 62.2628 70.4013 62.2877 71.0652 62.3787L72.866 51.22C73.2975 48.3083 72.7747 45.6365 71.2893 43.1963L71.281 43.2129Z" fill="#EE9CA5"/>
<path d="M59.7122 63.6519C60.2101 63.5196 60.7163 63.412 61.2225 63.3128C63.6789 62.6924 66.0606 62.3615 68.3594 62.3036C69.488 62.254 70.3842 62.2788 71.0481 62.3698L72.8489 51.2111C73.2805 48.2995 72.7576 45.6277 71.2722 43.1875C70.9319 42.625 70.5834 42.1204 70.21 41.6738C69.5046 40.6977 68.6747 39.8126 67.7038 39.0185C66.6581 38.1665 65.5295 37.4882 64.3013 36.9754C62.8491 36.3881 61.3636 36.0738 59.8201 36.0158C58.2765 35.9497 56.7164 36.0903 55.1313 36.446C53.5463 36.8017 52.0774 37.3393 50.7331 38.059C49.3555 38.7704 48.1439 39.6968 47.1066 40.8466C46.2103 41.8309 45.4717 42.9393 44.8991 44.1553C44.4178 45.272 44.0444 46.43 43.7871 47.6212C43.6377 48.1837 43.5381 48.7875 43.4801 49.441C43.3971 54.1145 44.7912 58.3828 47.6626 62.2457C49.0816 64.1813 50.5173 65.6537 51.9613 66.6546L54.3596 65.4386C56.0193 64.6942 57.8118 64.0903 59.7288 63.6271L59.7122 63.6519ZM59.7122 63.6519C59.3636 62.833 59.0068 61.8487 58.6334 60.7072C57.9612 58.3828 57.6375 56.3645 57.6707 54.6605" stroke="#B34E58" stroke-width="1.2" stroke-linecap="round" stroke-linejoin="round"/>
<path d="M33.2892 64.7772C33.7539 63.9831 33.8784 63.1394 33.6792 62.2461C33.48 61.361 32.9987 60.6661 32.2435 60.145C31.5216 59.6404 30.7249 59.475 29.8701 59.6735C29.0154 59.8638 28.3598 60.3518 27.9117 61.1211C27.4635 61.9069 27.339 62.7424 27.5382 63.6274C27.7374 64.5125 28.2187 65.2322 28.9573 65.7533C29.6959 66.2413 30.4925 66.3902 31.3473 66.2C32.202 66.0097 32.8493 65.53 33.2892 64.7772Z" fill="#F8D5D8"/>
<path d="M34.3601 94.9445C36.8248 93.7203 40.6255 92.86 45.7707 92.372C45.1649 89.9153 44.8247 87.5413 44.7583 85.2582L44.8247 82.5782L35.5551 80.3448C34.1775 80.1297 32.5344 80.2207 30.634 80.6178C28.717 80.9983 27.1569 81.5525 25.9536 82.2721C25.4058 82.6361 24.9162 82.9835 24.4847 83.3226C23.5304 84.0009 22.6839 84.8281 21.937 85.7959C21.074 86.8712 20.4018 87.9962 19.9371 89.1708C19.3976 90.5439 19.0906 92.0246 19.0242 93.621C18.9578 95.1596 19.0989 96.7147 19.4557 98.2946C19.8126 99.8745 20.352 101.339 21.074 102.679C21.8291 104.093 22.742 105.301 23.8208 106.31C24.7586 107.187 25.8457 107.915 27.0905 108.502C28.1693 109.023 29.2979 109.412 30.4597 109.66C30.9991 109.776 31.5966 109.883 32.2439 109.983C33.6381 110.115 35.2812 109.941 37.1816 109.445C39.0737 109.007 40.5924 108.386 41.7459 107.6L49.1482 101.587C48.7831 101.041 48.3848 100.255 47.9366 99.221C47.0155 97.1283 46.2935 94.837 45.779 92.3637C40.6421 92.8518 36.8414 93.7037 34.3684 94.9362L34.3601 94.9445Z" fill="#EE9CA5"/>
<path d="M34.3518 94.9279C36.8165 93.7037 40.6172 92.8434 45.7624 92.3554C45.1566 89.8987 44.8164 87.5247 44.75 85.2416L44.8164 82.5616L35.5468 80.3282C34.1692 80.1131 32.5261 80.2041 30.6257 80.6012C28.7087 80.9817 27.1486 81.5359 25.9453 82.2555C25.3975 82.6195 24.9079 82.9669 24.4764 83.306C23.5221 83.9843 22.6756 84.8115 21.9287 85.7793C21.0657 86.8546 20.3935 87.9796 19.9287 89.1542C19.3893 90.5273 19.0823 92.008 19.0159 93.6044C18.9495 95.143 19.0906 96.6981 19.4474 98.278C19.8043 99.8579 20.3437 101.322 21.0657 102.662C21.8208 104.077 22.7337 105.284 23.8125 106.293C24.7503 107.17 25.8374 107.898 27.0822 108.485C28.161 109.007 29.2896 109.395 30.4514 109.643C30.9908 109.759 31.5883 109.867 32.2356 109.966C33.6298 110.098 35.2729 109.925 37.1733 109.428C39.0654 108.99 40.5841 108.37 41.7376 107.584L49.1399 101.57C48.7748 101.024 48.3765 100.238 47.9283 99.2044C47.0072 97.1117 46.2852 94.8204 45.7707 92.3471" stroke="#B34E58" stroke-width="1.2" stroke-linecap="round" stroke-linejoin="round"/>
<path d="M35.5885 120.247C35.7461 121.67 36.0781 122.961 36.5677 124.127C37.132 125.533 37.8872 126.823 38.8415 127.982C39.7212 129.098 40.8 130.132 42.078 131.092C43.2896 131.985 44.5593 132.68 45.8705 133.168C47.2149 133.664 48.5426 133.904 49.8372 133.879C51.8621 133.879 54.0529 133.416 56.4014 132.473C57.4388 132.076 58.3682 131.572 59.2064 130.951L60.4927 129.917C62.3682 128.147 63.5134 125.856 63.9117 123.027L65.3972 112.058C64.3018 112.05 63.0238 111.876 61.5466 111.537C58.6089 110.884 56.1857 109.833 54.277 108.377C53.2314 109.138 52.1857 110.09 51.1401 111.223C52.1857 110.09 53.2314 109.147 54.277 108.377C52.3351 107.037 50.6173 105.565 49.1069 103.952L47.4472 101.95C43.3643 104.903 40.7502 107.013 39.6133 108.278C37.4391 110.644 36.1694 112.844 35.8208 114.896L35.5553 116.707C35.4474 117.997 35.4557 119.18 35.5885 120.247Z" fill="#EE9CA5"/>
<path d="M54.277 108.361C56.1774 109.817 58.6006 110.875 61.5466 111.521C63.0238 111.86 64.3018 112.033 65.3972 112.042L63.9117 123.01C63.5134 125.839 62.3682 128.13 60.4927 129.901L59.2064 130.935C58.3682 131.555 57.4305 132.059 56.4014 132.457C54.0446 133.4 51.8621 133.871 49.8372 133.863C48.5426 133.879 47.2232 133.648 45.8705 133.151C44.5593 132.663 43.2896 131.969 42.078 131.075C40.8 130.116 39.7212 129.082 38.8415 127.965C37.8872 126.807 37.132 125.517 36.5677 124.11C36.0781 122.944 35.7544 121.645 35.5885 120.231C35.4557 119.155 35.4474 117.973 35.5553 116.69L35.8208 114.879C36.1777 112.828 37.4391 110.627 39.6133 108.262C40.7585 106.996 43.3643 104.887 47.4472 101.934L49.1069 103.935C50.609 105.548 52.3351 107.021 54.277 108.361ZM54.277 108.361C53.2314 109.122 52.1857 110.073 51.1401 111.206C49.0572 113.481 47.9949 115.541 47.9617 117.369" stroke="#B34E58" stroke-width="1.2" stroke-linecap="round" stroke-linejoin="round"/>
<path d="M78.4591 111.836C77.8533 111.993 76.9902 112.134 75.8865 112.258C73.7205 112.523 71.4218 112.523 69.0069 112.266C68.509 112.241 68.0111 112.217 67.5298 112.183L66.9406 115.335C66.5754 117.734 66.5422 119.769 66.841 121.456C66.5422 119.777 66.5754 117.734 66.9406 115.335L67.5298 112.183C65.646 112.01 63.8618 111.704 62.1854 111.249L59.7456 110.463C59.4386 110.752 59.0568 111.149 58.6004 111.646C57.7208 112.688 56.9573 113.838 56.2934 115.087C54.1358 119.016 53.4387 123.119 54.2021 127.395C54.4179 128.131 54.5922 128.677 54.7416 129.033C55.1648 130.142 55.6876 131.151 56.31 132.061C57.0154 133.095 57.8784 133.996 58.8909 134.765C60.0361 135.675 61.2975 136.378 62.6917 136.875C64.0111 137.33 65.4883 137.619 67.1231 137.743C68.758 137.867 70.2434 137.793 71.6127 137.536C73.0317 137.247 74.3844 136.742 75.679 136.006C76.7744 135.411 77.762 134.65 78.6499 133.715C79.3885 132.904 80.0607 131.986 80.6665 130.952C80.9901 130.348 81.2391 129.835 81.3968 129.414C82.4839 126.99 82.5918 124.467 81.7204 121.837L78.4591 111.853V111.836Z" fill="#EE9CA5"/>
<path d="M67.5132 112.167C67.9945 112.2 68.4924 112.233 68.9903 112.249C71.4052 112.506 73.6956 112.498 75.8699 112.241C76.9736 112.117 77.8367 111.977 78.4425 111.819L81.7038 121.803C82.5752 124.434 82.4673 126.957 81.3802 129.38C81.2225 129.811 80.9818 130.323 80.6499 130.919C80.0358 131.953 79.3636 132.871 78.6333 133.682C77.7454 134.616 76.7578 135.386 75.6624 135.973C74.3678 136.709 73.0152 137.214 71.5961 137.503C70.2268 137.76 68.7331 137.834 67.1065 137.71C65.4634 137.586 63.9862 137.305 62.6751 136.842C61.2809 136.345 60.0195 135.642 58.8743 134.732C57.8618 133.971 57.0071 133.07 56.2934 132.027C55.671 131.117 55.1482 130.117 54.725 129C54.5756 128.644 54.4013 128.098 54.1855 127.362C53.4221 123.077 54.1192 118.974 56.2768 115.054C56.9324 113.805 57.7042 112.655 58.5838 111.613C59.0485 111.116 59.4303 110.719 59.729 110.43L62.1688 111.216C63.8452 111.67 65.6294 111.977 67.5132 112.15V112.167ZM67.5132 112.167L66.924 115.318C66.5588 117.717 66.5256 119.752 66.8244 121.439" stroke="#B34E58" stroke-width="1.2" stroke-linecap="round" stroke-linejoin="round"/>
<path d="M112.276 107.195C112.209 105.846 111.952 104.539 111.504 103.266C111.106 102.207 110.558 101.131 109.861 100.056L108.757 98.5754C106.948 96.3255 104.591 94.9358 101.695 94.4064L90.5417 92.3633C90.4256 93.0002 90.16 93.8522 89.7285 94.9193C88.8986 97.0617 87.77 99.1792 86.3509 101.272L89.6704 103.927C92.1185 105.788 93.9691 106.946 95.2222 107.377C93.9691 106.938 92.1185 105.788 89.6704 103.927L86.3509 101.272C85.0812 103.447 83.6456 105.367 82.0522 107.037L80.0854 108.874L86.7327 118.006C88.4754 120.396 90.7492 121.927 93.5541 122.588L95.3881 122.919C96.6163 123.11 97.8279 123.134 99.0229 123.01C100.359 122.87 101.637 122.539 102.865 122.026C104.276 121.455 105.562 120.636 106.716 119.578C107.927 118.486 108.932 117.286 109.728 115.971C110.616 114.59 111.28 113.167 111.72 111.703C112.151 110.148 112.342 108.642 112.284 107.186L112.276 107.195Z" fill="#EE9CA5"/>
<path d="M86.3509 101.256C85.0812 103.431 83.6456 105.35 82.0522 107.021L80.0854 108.858L86.7327 117.99C88.4754 120.38 90.7492 121.911 93.5541 122.572L95.3881 122.903C96.6163 123.093 97.8279 123.118 99.0229 122.994C100.359 122.854 101.637 122.523 102.865 122.01C104.276 121.439 105.562 120.62 106.716 119.561C107.927 118.469 108.932 117.27 109.728 115.955C110.616 114.573 111.28 113.151 111.72 111.687C112.151 110.132 112.342 108.626 112.284 107.17C112.218 105.822 111.961 104.515 111.512 103.241C111.114 102.182 110.566 101.107 109.869 100.032L108.766 98.551C106.956 96.3011 104.6 94.9114 101.703 94.382L90.55 92.3389C90.4338 92.9758 90.1683 93.8278 89.7368 94.8949C88.9069 97.0373 87.7783 99.1548 86.3592 101.248L86.3509 101.256ZM86.3509 101.256L89.6704 103.911C92.1185 105.772 93.9691 106.93 95.2222 107.36" stroke="#B34E58" stroke-width="1.2" stroke-linecap="round" stroke-linejoin="round"/>
<path d="M60.5259 60.1698C57.7458 60.7985 55.2728 61.7167 53.1069 62.9244C47.8539 65.7285 43.995 69.4094 41.5303 73.9837C39.4722 77.7805 38.3187 81.9826 38.0781 86.59C37.854 91.0567 38.5179 95.3498 40.0614 99.4609C41.5386 103.415 43.7543 106.699 46.7003 109.321C49.6464 111.918 53.1982 113.746 57.3558 114.789C62.6669 116.137 67.8785 116.236 72.9821 115.086C78.0858 113.937 82.7496 111.612 86.9819 108.113C90.2682 105.392 92.6748 102.224 94.2183 98.6089C95.7536 94.9859 96.3428 91.065 95.9859 86.8547C95.6042 82.4789 94.3428 78.3182 92.1935 74.3891C89.986 70.3276 87.1479 67.0189 83.6874 64.4712C79.4468 61.4106 74.3597 59.7397 68.4179 59.4667C65.9449 59.3013 63.3142 59.5329 60.5342 60.1616L60.5259 60.1698Z" fill="white"/>
<path d="M83.6542 64.479C79.4136 61.4184 74.3265 59.7475 68.3847 59.4746C65.9117 59.3091 63.281 59.5407 60.501 60.1694C57.7209 60.798 55.2479 61.7162 53.082 62.9239C47.829 65.728 43.9701 69.409 41.5054 73.9833C39.4473 77.7718 38.2938 81.9821 38.0532 86.5895C37.8291 91.0563 38.493 95.3493 40.0365 99.4604C41.5137 103.414 43.7294 106.698 46.6754 109.32C49.6215 111.918 53.1733 113.746 57.3309 114.788C62.642 116.136 67.8536 116.236 72.9489 115.086C78.0526 113.936 82.7164 111.612 86.9487 108.113C90.235 105.391 92.6416 102.223 94.1851 98.6084C95.7204 94.9854 96.3096 91.0646 95.9527 86.8542C95.571 82.4784 94.3096 78.3177 92.1603 74.3886C89.9528 70.3272 87.1147 67.0184 83.6542 64.4707V64.479Z" stroke="#1E1E1E" stroke-width="1.2" stroke-linecap="round" stroke-linejoin="round"/>
<path d="M54.351 89.3444C53.6788 88.7985 52.9734 88.6082 52.2349 88.7737C51.4963 88.9391 50.9403 89.4106 50.5585 90.1964C50.1768 90.9822 50.0855 91.8177 50.293 92.7028C50.5087 93.6127 50.9569 94.3406 51.6291 94.8865C52.3012 95.3911 53.0066 95.5648 53.7452 95.3994C54.4838 95.234 55.0398 94.779 55.4215 94.0345C55.8033 93.2487 55.8863 92.405 55.6705 91.4951C55.4713 90.61 55.0315 89.8986 54.3593 89.3527M54.0938 91.4041C53.9693 91.6026 53.7701 91.7432 53.5045 91.8012C53.2722 91.8508 53.0481 91.8177 52.8158 91.6853C52.6 91.5447 52.4589 91.3462 52.4008 91.0815C52.351 90.8416 52.4008 90.61 52.5336 90.3949C52.683 90.1964 52.8739 90.0641 53.1062 90.0144C53.3718 89.9483 53.6041 89.9814 53.8116 90.1054C54.044 90.2461 54.1767 90.4363 54.2265 90.6762C54.2929 90.9409 54.2431 91.1808 54.0938 91.3958M66.8073 86.5403C66.467 87.3261 66.3923 88.1616 66.5998 89.0466C66.8156 89.9565 67.2388 90.6845 67.8778 91.2304C68.5666 91.735 69.272 91.9087 70.0105 91.7432C70.7574 91.5778 71.3217 91.1146 71.7035 90.3619C72.0686 89.5926 72.1516 88.7489 71.9358 87.839C71.7366 86.9539 71.3051 86.2342 70.6412 85.68C69.969 85.1506 69.2554 84.9686 68.5085 85.1258C67.7699 85.2912 67.2056 85.7627 66.8156 86.5486M68.8321 86.7388C68.9483 86.5403 69.1226 86.4079 69.3632 86.3583C69.6205 86.2921 69.8612 86.3252 70.0852 86.4493C70.301 86.5899 70.4338 86.7802 70.4836 87.0201C70.5499 87.2847 70.5084 87.5246 70.3674 87.7397C70.218 87.9382 70.0105 88.0788 69.7616 88.1367C69.5209 88.1864 69.3051 88.1533 69.1143 88.0209C68.8819 87.8803 68.7408 87.6818 68.6745 87.4171C68.6247 87.1772 68.6745 86.9456 68.8238 86.7305L68.8321 86.7388Z" fill="#1E1E1E"/>
<path d="M53.4965 91.7937C53.762 91.7275 53.9612 91.5952 54.0857 91.3966C54.2351 91.1816 54.2849 90.9417 54.2185 90.677C54.1687 90.4371 54.0276 90.2469 53.8035 90.1062C53.6044 89.9822 53.3637 89.9491 53.0981 90.0152C52.8658 90.0649 52.6832 90.189 52.5255 90.3958C52.3845 90.6108 52.343 90.8424 52.3928 91.0823C52.4592 91.347 52.5919 91.5538 52.8077 91.6862C53.0401 91.8102 53.2641 91.8516 53.4965 91.802M69.3469 86.3591C69.1062 86.4087 68.9319 86.5328 68.8158 86.7396C68.6664 86.9547 68.6166 87.1863 68.6664 87.4262C68.7328 87.6909 68.8739 87.8977 69.1062 88.03C69.2971 88.1541 69.5128 88.1955 69.7535 88.1458C70.0108 88.0796 70.2099 87.9473 70.3593 87.7488C70.5004 87.5337 70.5336 87.2938 70.4755 87.0291C70.4257 86.7892 70.2929 86.599 70.0772 86.4584C69.8448 86.3343 69.6041 86.3012 69.3552 86.3674L69.3469 86.3591Z" fill="white"/>
<path d="M45.372 99.6427C45.6293 100.718 46.1604 101.553 46.9736 102.149C47.762 102.794 48.6085 103.018 49.5213 102.811C50.4093 102.612 51.0815 102.041 51.5379 101.123C51.9943 100.238 52.0939 99.2539 51.8449 98.1868C51.6043 97.1032 51.0815 96.2264 50.2848 95.573C49.4715 94.9774 48.6251 94.7789 47.7371 94.9857C46.8243 95.1842 46.1521 95.7218 45.7205 96.5987C45.2475 97.5499 45.1396 98.5673 45.3803 99.6509M80.2512 94.663C80.857 93.7366 81.0395 92.744 80.7823 91.6687C80.5416 90.5851 79.9441 89.7248 78.9898 89.1044C78.0603 88.5336 77.0396 88.3765 75.9276 88.6329C74.8487 88.8728 74.0189 89.4518 73.438 90.3617C72.8322 91.3378 72.6413 92.3635 72.882 93.4554C73.1392 94.5307 73.7367 95.3496 74.6911 95.9204C75.6288 96.5242 76.6413 96.7145 77.7201 96.4746C78.8072 96.2347 79.6537 95.6308 80.2512 94.6713V94.663Z" fill="#F5CED3"/>
<path d="M49.4555 127.411C49.5966 127.684 49.8041 127.908 50.0696 128.09C51.1733 128.975 52.3849 129.479 53.7127 129.595C55.6712 129.794 57.6629 129.124 59.7043 127.577C59.7624 127.535 59.8039 127.494 59.8454 127.469C60.501 123.342 60.7583 120.198 60.6255 118.056C59.1732 119.214 57.5052 120.587 55.638 122.175C55.6546 122.184 55.6795 122.2 55.6961 122.208C55.8206 124.16 55.555 126.568 54.8994 129.421C55.555 126.568 55.8206 124.169 55.6961 122.208C55.6795 122.2 55.6546 122.184 55.638 122.175C55.5716 122.225 55.4969 122.275 55.4388 122.341L49.4638 127.403M54.0364 121.241C52.6754 120.637 51.3725 120.496 50.1194 120.827C49.5551 122.457 49.2564 124.194 49.2066 126.046C49.1651 126.584 49.2564 127.039 49.4638 127.403L55.4388 122.341C55.5052 122.275 55.5716 122.225 55.638 122.175C55.2065 121.836 54.6754 121.53 54.0281 121.241M65.0902 114.623C63.9283 115.442 62.4346 116.592 60.6172 118.056C60.75 120.198 60.4927 123.342 59.8371 127.469C61.7707 125.931 63.2064 123.912 64.1441 121.414C64.7831 119.685 65.1565 117.833 65.2644 115.856C65.281 115.417 65.2146 115.012 65.0819 114.623M60.6006 117.89C60.6089 117.94 60.6172 117.99 60.6172 118.056C62.4346 116.592 63.9283 115.45 65.0902 114.623C65.057 114.549 65.0238 114.482 64.9989 114.425C64.7582 113.986 64.4512 113.697 64.086 113.573C62.7416 113.027 61.3724 112.778 59.9699 112.82C57.945 112.878 56.0446 113.556 54.277 114.871C54.1774 114.937 54.0862 115.012 53.9866 115.078C55.3642 114.913 56.8828 115.326 58.5508 116.327C59.3724 116.832 60.0612 117.345 60.6089 117.882M60.6255 118.048C60.6255 117.981 60.6255 117.932 60.6089 117.882C60.0529 117.353 59.3724 116.832 58.5508 116.327C56.8828 115.326 55.3559 114.913 53.9866 115.078C52.2356 116.435 50.9576 118.312 50.136 120.719C50.1277 120.753 50.1194 120.786 50.1111 120.819C51.3642 120.488 52.6754 120.628 54.0281 121.232C54.6671 121.522 55.2065 121.828 55.638 122.167C57.5052 120.579 59.1732 119.206 60.6255 118.048Z" fill="#4FB35B"/>
<path d="M50.0941 120.818C51.3472 120.487 52.6501 120.628 54.011 121.232C54.6583 121.521 55.1894 121.827 55.621 122.166M55.621 122.166C57.4882 120.578 59.1562 119.205 60.6084 118.047M55.621 122.166C55.5546 122.216 55.4882 122.266 55.4218 122.332L49.4468 127.394M55.621 122.166C55.6376 122.175 55.6625 122.191 55.6791 122.199C55.8035 124.152 55.538 126.559 54.8824 129.413M60.6084 118.047C60.6084 117.981 60.6084 117.931 60.5918 117.882C60.0358 117.352 59.3553 116.831 58.5338 116.327C56.8658 115.326 55.3388 114.912 53.9695 115.077M60.6084 118.047C62.4258 116.583 63.9196 115.441 65.0814 114.614M59.8367 127.46C60.4923 123.333 60.7495 120.189 60.6167 118.047" stroke="#37773E" stroke-width="1.2" stroke-linecap="round" stroke-linejoin="round"/>
<path d="M65.2561 115.846C65.2644 115.334 65.1731 114.854 64.9822 114.424C64.7416 113.985 64.4345 113.696 64.0694 113.572C62.725 113.026 61.3557 112.778 59.9533 112.819C57.9284 112.877 56.028 113.555 54.2604 114.87C52.3766 116.243 50.9907 118.187 50.1194 120.718C49.5468 122.381 49.2397 124.16 49.1816 126.037C49.1152 126.931 49.4057 127.609 50.053 128.072C51.1567 128.957 52.3683 129.462 53.6961 129.578C55.6546 129.776 57.6462 129.106 59.6877 127.559C61.696 126.021 63.1814 123.961 64.1358 121.397C64.7748 119.668 65.1482 117.815 65.2561 115.838V115.846Z" stroke="#1E1E1E" stroke-width="1.2" stroke-linecap="round" stroke-linejoin="round"/>
<path d="M81.4717 122.629C78.4759 119.321 76.5257 116.682 75.6294 114.705C72.7083 114.358 70.2436 114.093 68.227 113.927C68.1939 114.349 68.3017 114.755 68.5507 115.152C69.6876 116.847 71.115 118.295 72.8328 119.494C75.3141 121.24 78.1937 122.29 81.4634 122.638M90.3678 111.777C88.5919 112.149 86.9903 112.943 85.5712 114.176L84.0608 115.813L83.9779 115.88C84.8326 117.675 86.426 119.66 88.7496 121.835C86.426 119.652 84.8326 117.666 83.9779 115.88L84.0608 115.813C80.9074 115.375 78.1024 115.003 75.6294 114.713C76.5257 116.69 78.4759 119.329 81.4717 122.638C81.5381 122.638 81.6127 122.646 81.6957 122.662C85.065 122.993 87.9363 122.571 90.318 121.389C91.9528 120.603 93.2557 119.536 94.2101 118.179C94.7246 117.426 94.7329 116.674 94.235 115.946C93.2142 114.333 91.9279 112.943 90.3761 111.777M75.5547 114.564C75.5796 114.606 75.6045 114.655 75.6377 114.713C78.1107 115.003 80.924 115.367 84.0691 115.813L85.5795 114.176C86.9986 112.943 88.6002 112.141 90.3761 111.777C90.3346 111.752 90.3097 111.735 90.2931 111.727C87.9944 110.007 85.3886 108.997 82.4841 108.708C80.6833 109.254 78.9821 110.404 77.3887 112.132L75.5547 114.564ZM75.6377 114.713C75.6045 114.655 75.5796 114.606 75.5547 114.564L77.3887 112.132C78.9821 110.395 80.6833 109.254 82.4841 108.708C82.3347 108.691 82.1937 108.675 82.0609 108.658C79.1315 108.41 76.3597 108.774 73.7373 109.767C71.9614 110.437 70.3598 111.363 68.9241 112.53C68.5424 112.827 68.31 113.224 68.2353 113.737C68.2353 113.803 68.2353 113.87 68.2353 113.927C70.2519 114.101 72.7166 114.358 75.6377 114.705V114.713Z" fill="#4FB35B"/>
<path d="M75.6045 114.697C72.6834 114.349 70.2187 114.085 68.2021 113.919M75.6045 114.697C75.5713 114.639 75.5464 114.589 75.5215 114.548L77.3555 112.116C78.9489 110.379 80.6501 109.237 82.4509 108.691M75.6045 114.697C76.5008 116.674 78.451 119.312 81.4468 122.621M75.6045 114.697C78.0775 114.986 80.8908 115.35 84.0359 115.797M84.0359 115.797L85.5463 114.159C86.9654 112.927 88.567 112.124 90.3429 111.76M84.0359 115.797L83.953 115.863C84.8077 117.65 86.4011 119.635 88.7247 121.819M84.0359 115.797C87.1645 116.227 90.6251 116.723 94.4092 117.278" stroke="#37773E" stroke-width="1.2" stroke-linecap="round" stroke-linejoin="round"/>
<path d="M68.5092 115.111C68.2602 114.722 68.1524 114.308 68.1855 113.886C68.1855 113.82 68.1855 113.754 68.1855 113.696C68.2602 113.183 68.4926 112.778 68.8743 112.489C70.31 111.314 71.9116 110.396 73.6875 109.726C76.3016 108.733 79.0734 108.369 82.0028 108.617C82.1356 108.634 82.2766 108.65 82.426 108.667C85.3305 108.956 87.9363 109.957 90.235 111.678C90.2516 111.686 90.2848 111.711 90.318 111.728C91.8698 112.894 93.1561 114.292 94.1769 115.896C94.6831 116.633 94.6748 117.377 94.152 118.13C93.1893 119.478 91.8947 120.554 90.2599 121.331C87.8782 122.506 85.0069 122.928 81.6459 122.605C81.5629 122.588 81.4883 122.588 81.4219 122.58C78.1522 122.233 75.2726 121.182 72.7913 119.437C71.0735 118.237 69.6461 116.798 68.5092 115.102V115.111Z" stroke="#1E1E1E" stroke-width="1.2" stroke-linecap="round" stroke-linejoin="round"/>
<path d="M61.9943 112.133C61.1479 113.44 60.9072 114.862 61.2558 116.401C61.6043 117.94 62.4425 119.106 63.762 119.916C65.0897 120.752 66.5254 121 68.069 120.653C69.5793 120.314 70.7577 119.478 71.5959 118.155C72.4589 116.856 72.7162 115.441 72.3676 113.903C72.0191 112.364 71.1726 111.19 69.8366 110.371C68.5088 109.535 67.0897 109.287 65.5794 109.626C64.069 109.966 62.8491 110.809 62.0109 112.133H61.9943Z" fill="#F6CB6D"/>
<path d="M72.3432 113.887C72.6917 115.426 72.4345 116.84 71.5714 118.139C70.7332 119.462 69.5548 120.298 68.0445 120.637C66.5009 120.984 65.0653 120.736 63.7375 119.901C62.418 119.099 61.5798 117.924 61.2313 116.385C60.8828 114.847 61.1317 113.424 61.9699 112.117C62.808 110.794 64.003 109.958 65.5383 109.611C67.0486 109.272 68.4677 109.52 69.7955 110.355C71.1399 111.174 71.978 112.349 72.3266 113.887H72.3432Z" stroke="#1E1E1E" stroke-width="1.2" stroke-linecap="round" stroke-linejoin="round"/>
<path d="M64.7663 114.152C64.8659 114.582 65.1149 114.913 65.5215 115.152C65.8866 115.425 66.3016 115.508 66.758 115.401C67.2144 115.301 67.5713 115.045 67.8119 114.631C68.0443 114.243 68.1107 113.837 68.0194 113.407C67.9198 112.952 67.6709 112.588 67.2891 112.323C66.8991 112.075 66.4675 112.001 66.0111 112.108C65.5547 112.208 65.2145 112.456 64.9987 112.845C64.7414 113.258 64.6584 113.688 64.7663 114.143V114.152Z" fill="white"/>
<path d="M60.1938 96.5655L66.2104 94.3486" stroke="#1E1E1E" stroke-width="1.2" stroke-linecap="round" stroke-linejoin="round"/>
<path d="M45.5803 104.588L40.626 105.523L45.7545 132.431L50.7088 131.496L45.5803 104.588Z" fill="#FFCD05"/>
<path d="M45.1149 102.148L40.1606 103.083L40.6254 105.523L45.5797 104.589L45.1149 102.148Z" fill="white"/>
<path d="M39.3311 98.7072L40.1692 103.083L45.1235 102.148L44.2853 97.7725L39.3311 98.7072Z" fill="#F06697"/>
<path d="M40.1443 103.075L39.3062 98.6994L44.2604 97.7646L45.0986 102.14M40.1443 103.075L40.609 105.515M40.1443 103.075L45.0986 102.14M45.0986 102.14L45.5633 104.581M45.5633 104.581L50.6919 131.489L45.7376 132.423L40.609 105.515M45.5633 104.581L40.609 105.515M46.8081 124.4L43.5385 107.236" stroke="#1E1E1E" stroke-width="1.2" stroke-linecap="round" stroke-linejoin="round"/>
<path d="M45.0907 122.042C46.7505 122.563 48.2359 122.406 49.5554 121.571C50.8749 120.735 51.6383 119.461 51.8541 117.749C52.0865 116.045 51.6964 114.399 50.6923 112.819C49.6882 111.239 48.3521 110.189 46.6924 109.667C45.0492 109.146 43.5721 109.304 42.2609 110.139C40.9497 110.974 40.1696 112.248 39.9373 113.952C39.7215 115.665 40.1198 117.311 41.124 118.891C42.1281 120.47 43.4559 121.521 45.099 122.034L45.0907 122.042Z" fill="white"/>
<path d="M50.6757 112.827C51.6798 114.407 52.0699 116.053 51.8375 117.757C51.6217 119.47 50.8583 120.743 49.5388 121.579C48.2193 122.414 46.7338 122.572 45.0741 122.05C43.431 121.529 42.1115 120.479 41.0991 118.907C40.0949 117.327 39.6966 115.681 39.9124 113.969C40.1447 112.265 40.9248 110.991 42.236 110.156C43.5555 109.32 45.0326 109.163 46.6675 109.684C48.3272 110.205 49.655 111.256 50.6674 112.836L50.6757 112.827Z" stroke="#1E1E1E" stroke-width="1.2" stroke-linecap="round" stroke-linejoin="round"/>
<path d="M60.0854 114.266L59.9112 114.134L59.7618 114.002L33.5381 113.431C33.3472 113.447 33.1564 113.48 32.9655 113.547C32.8576 113.588 32.7746 113.629 32.7 113.679C32.5091 113.811 32.4344 113.993 32.4676 114.208L46.3595 139.628L74.4089 141.977C74.5832 142.018 74.7242 141.977 74.8238 141.844C74.857 141.803 74.8736 141.753 74.8819 141.696C74.9732 141.439 74.8487 141.001 74.5168 140.389L60.6249 114.969C60.5004 114.73 60.3178 114.498 60.0688 114.266M61.7452 112.959L59.9029 114.134L60.0771 114.266C60.3178 114.498 60.5004 114.73 60.6332 114.969L74.5251 140.389C74.857 141.001 74.9732 141.439 74.8902 141.696C75.0396 141.439 75.2222 141.174 75.4462 140.918C75.9524 140.298 76.4669 140.008 76.9898 140.049C77.1308 140.099 77.2221 140.049 77.2553 139.917C77.3217 139.636 77.081 139.007 76.5333 138.023L62.2763 112.049L35.6294 111.669L34.8327 111.876C34.1439 112.19 33.4385 112.794 32.7 113.679C32.7746 113.629 32.8576 113.588 32.9655 113.547C33.1564 113.48 33.3472 113.447 33.5381 113.431L59.7618 114.002L59.9112 114.134L61.7535 112.959H61.7452Z" fill="white"/>
<path d="M61.754 112.959L59.92 114.134L60.0776 114.266C60.3183 114.498 60.5009 114.73 60.6336 114.969L74.5256 140.389C74.8575 141.001 74.982 141.439 74.899 141.704C75.0401 141.439 75.2226 141.174 75.4384 140.918C75.9446 140.298 76.4591 140.008 76.982 140.049C77.123 140.099 77.2143 140.049 77.2475 139.917C77.3139 139.636 77.0732 139.007 76.5255 138.023L62.2685 112.049L35.6216 111.669L34.8249 111.876C34.1361 112.19 33.4307 112.794 32.6921 113.679C32.7668 113.629 32.8498 113.588 32.9577 113.547C33.1486 113.48 33.3394 113.447 33.5303 113.431L59.754 114.002L59.9117 114.134M32.6838 113.679C32.493 113.811 32.4183 113.993 32.4515 114.208L46.3434 139.628L74.3928 141.977C74.567 142.018 74.7081 141.977 74.8077 141.844C74.8409 141.803 74.8575 141.762 74.8741 141.704" stroke="#1E1E1E" stroke-width="1.2" stroke-linecap="round" stroke-linejoin="round"/>
<path d="M37.4138 114.896C36.6504 114.896 36.0031 114.631 35.472 114.102C34.9408 113.572 34.6753 112.927 34.6753 112.166C34.6753 111.405 34.9408 110.76 35.472 110.231C36.0031 109.701 36.6504 109.437 37.4138 109.437C38.1773 109.437 38.8246 109.701 39.3557 110.231C39.7375 110.611 39.9864 111.058 40.086 111.562" stroke="#1E1E1E" stroke-width="1.2" stroke-linecap="round" stroke-linejoin="round"/>
<path d="M41.8869 114.896H41.7376C40.9741 114.896 40.3268 114.631 39.7957 114.102C39.2646 113.572 38.999 112.927 38.999 112.166C38.999 111.405 39.2646 110.76 39.7957 110.231C40.3268 109.701 40.9741 109.437 41.7376 109.437C42.501 109.437 43.1483 109.701 43.6795 110.231C44.028 110.578 44.2604 110.975 44.3848 111.422" stroke="#1E1E1E" stroke-width="1.2" stroke-linecap="round" stroke-linejoin="round"/>
<path d="M45.7538 114.879C45.1231 114.821 44.5754 114.557 44.1189 114.102C43.5878 113.572 43.3223 112.927 43.3223 112.166C43.3223 111.405 43.5878 110.76 44.1189 110.231C44.65 109.701 45.2973 109.437 46.0608 109.437C46.8243 109.437 47.4716 109.701 48.0027 110.231C48.4508 110.677 48.7081 111.198 48.7828 111.802" stroke="#1E1E1E" stroke-width="1.2" stroke-linecap="round" stroke-linejoin="round"/>
<path d="M50.3596 114.896C49.6045 114.896 48.9655 114.623 48.4344 114.102C47.9033 113.572 47.6377 112.927 47.6377 112.166C47.6377 111.405 47.9033 110.76 48.4344 110.231C48.9655 109.701 49.6128 109.437 50.3762 109.437C51.1397 109.437 51.787 109.701 52.3181 110.231C52.7497 110.661 53.0069 111.165 53.0899 111.744" stroke="#1E1E1E" stroke-width="1.2" stroke-linecap="round" stroke-linejoin="round"/>
<path d="M54.9074 114.888C54.8411 114.888 54.7664 114.896 54.7 114.896C53.9365 114.896 53.2892 114.631 52.7581 114.102C52.227 113.572 51.9614 112.927 51.9614 112.166C51.9614 111.405 52.227 110.76 52.7581 110.231C53.2892 109.701 53.9365 109.437 54.7 109.437C55.4635 109.437 56.1107 109.701 56.6419 110.231C56.9987 110.586 57.2394 111 57.3555 111.463" stroke="#1E1E1E" stroke-width="1.2" stroke-linecap="round" stroke-linejoin="round"/>
<path d="M58.7084 114.879C58.0777 114.821 57.53 114.557 57.0735 114.102C56.5424 113.572 56.2769 112.927 56.2769 112.166C56.2769 111.405 56.5424 110.76 57.0735 110.231C57.6046 109.701 58.2519 109.437 59.0154 109.437C59.7789 109.437 60.4262 109.701 60.9573 110.231C61.4303 110.702 61.6959 111.265 61.7457 111.918" stroke="#1E1E1E" stroke-width="1.2" stroke-linecap="round" stroke-linejoin="round"/>
<path d="M79.073 124.681C78.019 125.103 75.3801 125.533 71.1561 125.971C66.9321 126.401 64.4342 127.328 63.6541 128.742C62.8823 130.157 62.5338 131.381 62.6251 132.423C62.7744 133.432 63.1479 134.359 63.7288 135.194C65.4964 137.808 68.8739 138.867 73.8531 138.379C74.0523 138.346 74.2515 138.313 74.4423 138.263C82.3675 136.766 88.4338 133.771 92.6329 129.288C88.8985 127.195 85.5708 125.111 82.658 123.043C81.3219 123.705 80.1269 124.251 79.0647 124.673L79.073 124.681Z" fill="white"/>
<path d="M92.6498 129.297C88.4424 133.78 82.3844 136.774 74.4675 138.28C74.2683 138.321 74.0691 138.354 73.87 138.395C68.8908 138.875 65.5132 137.808 63.7456 135.203C63.1647 134.367 62.7913 133.441 62.6419 132.432C62.5506 131.398 62.8909 130.165 63.6709 128.751C64.451 127.336 66.9489 126.41 71.1812 125.98C75.4052 125.541 78.0442 125.111 79.0981 124.689C80.152 124.267 81.347 123.721 82.6831 123.06" stroke="#1E1E1E" stroke-width="1.2" stroke-linecap="round" stroke-linejoin="round"/>
</g>
<defs>
<clipPath id="clip0_8447_19071">
<rect width="136" height="136" fill="white"/>
</clipPath>
</defs>
</svg>
