<svg width="80" height="81" viewBox="0 0 80 81" fill="none" xmlns="http://www.w3.org/2000/svg">
<g clip-path="url(#clip0_8819_19251)">
<path d="M37.1967 80.2992L37.1191 80.3457L37.1501 80.3612C37.1501 80.3612 37.1734 80.3224 37.1967 80.3069M28.7552 49.6601L24.7673 52.3213C21.9121 54.5403 20.7095 55.0524 21.1595 53.8498L17.3345 62.5628C16.1241 65.5189 15.3017 68.1878 14.8672 70.5698L15.8448 72.8043L17.1948 73.1456C18.3586 73.4793 20.6164 74.2163 23.9604 75.3569C27.3044 76.5052 31.013 78.4526 35.0863 81.2147L37.1191 80.3379L37.1967 80.2914C38.632 78.3595 40.0209 75.9621 41.3786 73.1146L43.9545 67.249L42.9769 69.3439C43.8847 67.187 44.1873 64.3085 43.8769 60.7007L43.1398 55.9679C42.1312 55.3162 39.7648 54.1757 36.0562 52.5463C33.7518 51.5377 31.8432 50.7463 30.3147 50.1799L28.7552 49.6523V49.6601Z" fill="white"/>
<path d="M28.7474 49.6523L30.3069 50.1799C31.8354 50.7463 33.744 51.5377 36.0483 52.5463C39.7648 54.1757 42.1234 55.3162 43.132 55.9679M44.8777 65.1309L43.9467 67.249L41.3708 73.1146C40.013 75.9621 38.6242 78.3595 37.1889 80.2914M14.8594 70.562C15.3016 68.1801 16.124 65.5033 17.3266 62.555L21.1517 53.842M15.837 72.8043L17.187 73.1456C18.3508 73.4793 20.6086 74.2163 23.9526 75.3569C27.2965 76.5052 31.0052 78.4526 35.0785 81.2147M37.1113 80.3379L37.1889 80.2914M37.1889 80.2914C37.1889 80.2914 37.1501 80.3302 37.1423 80.3457" stroke="#1D1E1D" stroke-linecap="round" stroke-linejoin="round"/>
<path d="M62.6076 7.13285C62.08 6.26387 61.3895 5.48025 60.5438 4.76645C59.7213 4.10696 58.8058 3.55609 57.7817 3.10609C56.7498 2.64833 55.7101 2.34574 54.6704 2.19056C53.5299 2.06642 52.4902 2.0897 51.5514 2.27591C50.7445 2.43108 49.8911 2.74919 48.9678 3.21471C48.2618 3.57937 47.5868 4.05265 46.9428 4.64231L46.0661 5.5268C44.7393 6.98543 44.0333 8.73114 43.9402 10.7562L43.6919 18.5071L45.5307 18.7942C47.0592 19.1433 48.6109 19.6786 50.1859 20.408C51.7997 21.0752 53.2506 21.8588 54.5385 22.7511C55.1748 23.2011 55.6558 23.589 55.9739 23.9071L61.5291 18.4838C62.949 17.0407 63.7481 15.3415 63.9421 13.3786C63.9731 12.9363 63.9886 12.5174 63.9731 12.1217C63.9731 11.245 63.8645 10.4303 63.655 9.66218C63.4145 8.7001 63.0731 7.8544 62.6153 7.13285H62.6076Z" fill="#E598A1"/>
<path d="M50.1699 20.3923C51.7837 21.0596 53.2345 21.8432 54.5225 22.7355C55.1587 23.1855 55.6397 23.5734 55.9578 23.8915L61.5131 18.4682C62.9329 17.0251 63.732 15.3259 63.926 13.363C63.957 12.9207 63.9726 12.5017 63.957 12.1061C63.957 11.2293 63.8484 10.4147 63.6389 9.64655C63.3984 8.68448 63.057 7.83878 62.5993 7.11722C62.0717 6.24825 61.3812 5.46462 60.5355 4.75082C59.713 4.09133 58.7975 3.54047 57.7734 3.09046C56.7415 2.6327 55.7018 2.33011 54.6621 2.17494C53.5216 2.0508 52.4819 2.07408 51.5431 2.26028C50.7362 2.41546 49.8828 2.73356 48.9595 3.19909C48.2535 3.56374 47.5785 4.03702 46.9345 4.62668L46.0577 5.51117C44.731 6.96981 44.025 8.71551 43.9319 10.7405L43.6836 18.4915L45.5224 18.7785C47.0509 19.1277 48.6026 19.663 50.1776 20.3923H50.1699ZM50.1699 20.3923L52.7147 14.5966" stroke="#AB4C55" stroke-linecap="round" stroke-linejoin="round"/>
<path d="M33.349 1.74958C32.2318 1.8582 31.1921 2.11424 30.2223 2.52545C29.1671 2.93666 28.2283 3.44873 27.3981 4.06942C26.4981 4.72115 25.7688 5.48151 25.2024 6.33496C24.7291 7.04876 24.3412 7.87894 24.0541 8.81774C23.8291 9.58585 23.6972 10.4005 23.6584 11.254C23.6274 11.5876 23.6197 12.0066 23.6429 12.5186C23.7205 14.4971 24.4576 16.2273 25.8464 17.7092L31.1378 23.3575C31.4792 23.0704 31.9758 22.7135 32.6352 22.2791C33.9542 21.4489 35.4439 20.7428 37.0887 20.1454C38.7025 19.4859 40.2776 19.0049 41.8138 18.7101L43.6448 18.4851L43.7224 10.7497C43.7224 8.70912 43.094 6.94014 41.8371 5.43495L40.9681 4.51167C40.3629 3.90649 39.7034 3.39442 38.9896 2.96769C38.1827 2.50217 37.3525 2.16855 36.4836 1.95906C35.4672 1.69527 34.4197 1.62544 33.349 1.74182V1.74958Z" fill="#E598A1"/>
<path d="M37.0814 20.1376C38.6952 19.4781 40.2702 18.9971 41.8064 18.7023L43.6375 18.4773L43.7151 10.7418C43.7151 8.70131 43.0866 6.93233 41.8297 5.42714L40.9608 4.50386C40.3556 3.89868 39.6961 3.38661 38.9823 2.95988C38.1754 2.49436 37.3452 2.16073 36.4762 1.95125C35.4598 1.68745 34.4124 1.61763 33.3417 1.73401C32.2245 1.84263 31.1848 2.09866 30.215 2.50988C29.1598 2.92109 28.221 3.43316 27.3908 4.05385C26.4908 4.70558 25.7615 5.46593 25.1951 6.31939C24.7218 7.03319 24.3339 7.86337 24.0468 8.80217C23.8218 9.57028 23.6899 10.3849 23.6511 11.2384C23.6201 11.572 23.6123 11.991 23.6356 12.5031C23.7132 14.4815 24.4503 16.2117 25.8391 17.6936L31.1305 23.342C31.4719 23.0549 31.9684 22.698 32.6279 22.2635C33.9469 21.4333 35.4366 20.7273 37.0814 20.1299V20.1376ZM37.0814 20.1376L34.7693 14.21" stroke="#AB4C55" stroke-linecap="round" stroke-linejoin="round"/>
<path d="M73.0426 18.026C72.2822 17.5139 71.4598 17.126 70.5753 16.8467C69.815 16.6217 69.0003 16.4898 68.1391 16.451L66.8589 16.4277C64.9115 16.5208 63.189 17.2579 61.6839 18.639L56.02 23.9226L57.0985 25.4201C57.9519 26.7701 58.6657 28.252 59.2476 29.8735C59.9071 31.4873 60.3882 33.0624 60.683 34.5986C60.8226 35.3822 60.8925 35.9951 60.8925 36.4296L68.6434 36.5072C70.6762 36.5072 72.4374 35.871 73.9426 34.6141L74.8814 33.7529C75.471 33.1399 75.9831 32.496 76.4098 31.8054C76.8754 30.9985 77.2168 30.1529 77.434 29.2684C77.6745 28.2908 77.7521 27.2433 77.6512 26.1339C77.5426 25.1019 77.2866 24.0623 76.8754 23.0071C76.4642 21.9519 75.9521 21.0131 75.3314 20.1829C74.6486 19.2984 73.8883 18.5769 73.0503 18.0183L73.0426 18.026Z" fill="#E598A1"/>
<path d="M59.2326 29.8657C59.892 31.4795 60.3731 33.0545 60.6679 34.5908C60.8076 35.3744 60.8774 35.9873 60.8774 36.4218L68.6283 36.4994C70.6611 36.4994 72.4223 35.8632 73.9275 34.6063L74.8663 33.7451C75.456 33.1321 75.968 32.4882 76.3948 31.7976C76.8603 30.9907 77.2017 30.145 77.4189 29.2605C77.6594 28.283 77.737 27.2355 77.6361 26.126C77.5275 25.0941 77.2715 24.0545 76.8603 22.9993C76.4491 21.9441 75.937 21.0053 75.3163 20.1751C74.6335 19.2906 73.8732 18.5691 73.0353 18.0182C72.2749 17.5061 71.4525 17.1182 70.568 16.8389C69.8076 16.6139 68.993 16.482 68.1318 16.4432L66.8516 16.4199C64.9042 16.513 63.1817 17.2501 61.6765 18.6311L56.0127 23.9148L57.0912 25.4122C57.9446 26.7623 58.6584 28.2442 59.2403 29.8657H59.2326ZM59.2326 29.8657L65.1447 27.5536" stroke="#AB4C55" stroke-linecap="round" stroke-linejoin="round"/>
<path d="M74.7418 39.7664C74.4935 39.456 74.1987 39.1534 73.8573 38.8508C72.3909 37.5163 70.6452 36.8258 68.6279 36.7637L60.8615 36.4922L60.5822 38.3155C60.2563 39.8517 59.7209 41.4034 58.9839 42.9707C58.3244 44.5845 57.5408 46.0354 56.6252 47.3156C56.1675 47.9595 55.7795 48.4483 55.4614 48.7819L60.9158 54.3139C62.3589 55.7337 64.0581 56.5329 66.0055 56.7191L67.2624 56.7889C68.1391 56.7734 68.9615 56.6725 69.7219 56.4708C70.6607 56.2225 71.5064 55.8656 72.2512 55.3924C73.0969 54.888 73.8806 54.2053 74.6099 53.3441C75.2771 52.5371 75.8357 51.6139 76.2935 50.5742C76.7435 49.5501 77.0383 48.5259 77.178 47.4862C77.3409 46.3845 77.3099 45.3371 77.1082 44.3362C76.9375 43.4517 76.6271 42.5983 76.1771 41.7759C75.8125 41.0776 75.3314 40.4103 74.7418 39.7664Z" fill="#E598A1"/>
<path d="M58.9761 42.9629C58.3166 44.5767 57.5329 46.0276 56.6174 47.3077C56.1597 47.9517 55.7717 48.4405 55.4536 48.7741L60.908 54.3061C62.3511 55.7259 64.0502 56.5251 65.9977 56.7113L67.2546 56.7811C68.1313 56.7656 68.9537 56.6647 69.7141 56.463C70.6529 56.2147 71.4986 55.8578 72.2434 55.3845C73.0891 54.8802 73.8727 54.1975 74.6021 53.3362C75.2693 52.5293 75.8279 51.6061 76.2857 50.5664C76.7357 49.5422 77.0305 48.5181 77.1702 47.4784C77.3331 46.3767 77.3021 45.3293 77.1004 44.3284C76.9297 43.4439 76.6193 42.5905 76.1693 41.768C75.8046 41.0698 75.3236 40.4025 74.7339 39.7585C74.4857 39.4482 74.1908 39.1456 73.8495 38.843C72.3831 37.5085 70.6374 36.818 68.6201 36.7559L60.8537 36.4844L60.5743 38.3077C60.2485 39.8439 59.7131 41.3956 58.9761 42.9629ZM58.9761 42.9629L64.7718 45.5077" stroke="#AB4C55" stroke-linecap="round" stroke-linejoin="round"/>
<path d="M55.4531 48.7988L53.9634 49.9006C52.6212 50.7463 51.1393 51.4523 49.5099 52.0342C47.9194 52.7092 46.3444 53.1825 44.7694 53.4618C43.9935 53.6092 43.3883 53.679 42.9383 53.6713L42.8763 61.43C42.8607 63.455 43.4814 65.224 44.7461 66.7369C45.0797 67.1326 45.3746 67.443 45.6306 67.668C46.2513 68.2654 46.903 68.7774 47.578 69.1964C48.416 69.7007 49.2539 70.0499 50.1074 70.2516C51.1082 70.4921 52.1556 70.5542 53.2574 70.4378C54.2893 70.3292 55.329 70.0731 56.3841 69.6619C57.3772 69.2973 58.316 68.7852 59.2083 68.118C60.0617 67.4585 60.7756 66.7059 61.3575 65.8679C61.8695 65.0998 62.2652 64.2696 62.5445 63.3852C62.7695 62.6015 62.9014 61.7791 62.948 60.9334V59.661C62.8626 57.7058 62.1333 55.9756 60.76 54.4782L55.4608 48.8066L55.4531 48.7988Z" fill="#E598A1"/>
<path d="M49.5021 52.0264C47.9116 52.7014 46.3366 53.1747 44.7616 53.454C43.9857 53.6015 43.3805 53.6713 42.9305 53.6635L42.8684 61.4222C42.8529 63.4472 43.4736 65.2162 44.7383 66.7292C45.0719 67.1248 45.3667 67.4352 45.6228 67.6602C46.2435 68.2576 46.8952 68.7697 47.5702 69.1887C48.4082 69.693 49.2461 70.0421 50.0995 70.2438C51.1004 70.4844 52.1478 70.5464 53.2496 70.43C54.2815 70.3214 55.3211 70.0654 56.3763 69.6542C57.3694 69.2895 58.3082 68.7774 59.2005 68.1102C60.0539 67.4507 60.7677 66.6981 61.3496 65.8602C61.8617 65.0921 62.2574 64.2619 62.5367 63.3774C62.7617 62.5938 62.8936 61.7714 62.9402 60.9257V59.6532C62.8548 57.698 62.1255 55.9679 60.7522 54.4704L55.453 48.7988L53.9634 49.9006C52.6211 50.7463 51.1392 51.4523 49.5099 52.0342L49.5021 52.0264ZM49.5021 52.0264L51.7987 57.9463" stroke="#AB4C55" stroke-linecap="round" stroke-linejoin="round"/>
<path d="M25.9165 37.5782L25.6992 35.7316L17.9561 35.6696C15.9233 35.6463 14.1543 36.2747 12.6414 37.5549C12.2457 37.8808 11.9431 38.1679 11.7181 38.4239C11.1129 39.0291 10.6008 39.6808 10.1819 40.3868C9.68531 41.2403 9.32841 42.086 9.11893 42.9317C8.87841 43.9558 8.8241 44.9955 8.94823 46.0507C9.05686 47.1602 9.32065 48.1998 9.7241 49.1774C10.0732 50.1628 10.5853 51.1094 11.2681 52.0016C11.8965 52.8628 12.6569 53.5921 13.5336 54.1973C14.2319 54.6784 15.0466 55.0585 15.9854 55.3301C16.7845 55.5551 17.6069 55.6947 18.4526 55.7413C18.7863 55.7723 19.2052 55.7801 19.7173 55.7568C21.6958 55.6715 23.4259 54.9344 24.9079 53.5533L30.5639 48.2464C30.2691 47.9283 29.9044 47.4317 29.4777 46.7645C28.6553 45.43 27.9415 43.9481 27.3441 42.311C26.6613 40.7127 26.1803 39.1455 25.9087 37.586L25.9165 37.5782Z" fill="#E598A1"/>
<path d="M27.3435 42.2954C26.6608 40.6971 26.1797 39.1299 25.9082 37.5704L25.6909 35.7238L17.9478 35.6618C15.915 35.6385 14.146 36.2669 12.6331 37.5471C12.2374 37.873 11.9348 38.1601 11.7098 38.4161C11.1046 39.0213 10.5925 39.673 10.1736 40.379C9.67701 41.2325 9.32011 42.0782 9.11062 42.9239C8.87011 43.948 8.81579 44.9877 8.93993 46.0429C9.04856 47.1524 9.31235 48.192 9.7158 49.1696C10.0649 50.155 10.577 51.1015 11.2598 51.9938C11.8882 52.855 12.6486 53.5843 13.5253 54.1895C14.2236 54.6705 15.0383 55.0507 15.9771 55.3223C16.7762 55.5473 17.5986 55.6869 18.4443 55.7335C18.7779 55.7645 19.1969 55.7723 19.709 55.749C21.6875 55.6637 23.4176 54.9266 24.8996 53.5455L30.5556 48.2386C30.2608 47.9205 29.8961 47.4239 29.4694 46.7567C28.647 45.4222 27.9332 43.9403 27.3358 42.3032L27.3435 42.2954ZM27.3435 42.2954L21.4159 44.6075" stroke="#AB4C55" stroke-linecap="round" stroke-linejoin="round"/>
<path d="M25.6205 17.849C24.2239 16.4137 22.5325 15.6068 20.5618 15.4206L19.2739 15.374C18.4359 15.3895 17.6135 15.4904 16.8221 15.6766C15.9221 15.9016 15.0842 16.2508 14.3083 16.724C13.385 17.3292 12.6014 18.0197 11.9574 18.8111C11.2902 19.618 10.7393 20.5258 10.2893 21.5499C9.83929 22.5741 9.52894 23.6293 9.38929 24.6689C9.23411 25.7008 9.25739 26.7327 9.45911 27.7802C9.63756 28.6569 9.94015 29.5181 10.3746 30.3716C10.7703 31.0854 11.2514 31.7604 11.8022 32.3966L12.7178 33.2888C14.1842 34.6078 15.9143 35.3061 17.9161 35.407L25.6748 35.6785C25.7058 35.2207 25.8067 34.6 25.9774 33.8319C26.3265 32.3035 26.8618 30.7517 27.5989 29.1612C28.2662 27.5629 29.042 26.1198 29.9343 24.8241L31.0748 23.381L25.6205 17.849Z" fill="#E598A1"/>
<path d="M27.5989 29.1446C28.2662 27.5463 29.042 26.1032 29.9343 24.8075L31.0748 23.3644L25.6205 17.8324C24.2239 16.3971 22.5325 15.5902 20.5618 15.404L19.2739 15.3574C18.4359 15.3729 17.6135 15.4738 16.8221 15.66C15.9221 15.885 15.0842 16.2342 14.3083 16.7074C13.385 17.3126 12.6014 18.0031 11.9574 18.7945C11.2902 19.6014 10.7393 20.5092 10.2893 21.5333C9.83153 22.5808 9.52894 23.6127 9.38929 24.6523C9.23411 25.6842 9.25739 26.7161 9.45911 27.7636C9.63756 28.6403 9.94015 29.5015 10.3746 30.355C10.7703 31.0688 11.2514 31.7438 11.8022 32.38L12.7178 33.2722C14.1842 34.5912 15.9143 35.2895 17.9161 35.3904L25.6748 35.6619C25.7058 35.2041 25.8067 34.5834 25.9774 33.8153C26.3265 32.2869 26.8618 30.7351 27.5989 29.1446ZM27.5989 29.1446L21.7722 26.5842" stroke="#AB4C55" stroke-linecap="round" stroke-linejoin="round"/>
<path d="M42.8613 60.9628L42.8845 53.6852C42.4423 53.6386 41.8449 53.53 41.0845 53.3593C39.5638 53.0024 38.0043 52.4593 36.4216 51.7223C34.8233 51.055 33.3724 50.2869 32.0767 49.4024L30.6025 48.2852L25.2723 53.2274C23.899 54.5387 23.1542 56.1137 23.0301 57.9447L22.999 59.124C23.0301 59.9232 23.162 60.6991 23.3792 61.4594C23.643 62.3129 24.0077 63.112 24.4887 63.8724C25.0008 64.687 25.699 65.4319 26.5835 66.1224C27.437 66.8129 28.368 67.356 29.3767 67.7595C30.3465 68.225 31.3706 68.5353 32.4569 68.6983C33.5276 68.869 34.5595 68.8767 35.5448 68.7293C36.4526 68.5664 37.2905 68.2948 38.0509 67.9069C38.7647 67.5577 39.4242 67.1232 40.0216 66.6034C40.3087 66.3784 40.5957 66.1069 40.8983 65.7965C42.1552 64.4698 42.8069 62.856 42.8535 60.9551L42.8613 60.9628Z" fill="#E598A1"/>
<path d="M36.4137 51.7144C34.8154 51.0472 33.3646 50.2791 32.0689 49.3946L30.5947 48.2773L25.2645 53.2196C23.8912 54.5308 23.1464 56.1059 23.0222 57.9369L22.9912 59.1162C23.0222 59.9154 23.1541 60.6912 23.3714 61.4516C23.6352 62.305 23.9998 63.1042 24.4809 63.8645C24.993 64.6792 25.6912 65.424 26.5757 66.1146C27.4292 66.8051 28.3602 67.3482 29.3689 67.7516C30.3387 68.2172 31.3628 68.5275 32.449 68.6905C33.5197 68.8611 34.5517 68.8689 35.537 68.7215C36.4448 68.5585 37.2827 68.287 38.0431 67.8991C38.7569 67.5499 39.4164 67.1154 40.0138 66.5956C40.3008 66.3706 40.5879 66.099 40.8905 65.7887C42.1474 64.462 42.7991 62.8482 42.8457 60.955L42.869 53.6774C42.4267 53.6308 41.8293 53.5222 41.069 53.3515C39.5482 52.9946 37.9888 52.4515 36.406 51.7144H36.4137ZM36.4137 51.7144L33.8379 57.5723" stroke="#AB4C55" stroke-linecap="round" stroke-linejoin="round"/>
<path d="M55.7018 21.2694C54.2897 20.1211 52.7457 19.1823 51.0698 18.453C49.394 17.7237 47.656 17.2116 45.8638 16.9478C41.8525 16.3582 38.2137 16.8159 34.9395 18.3366C32.2783 19.6091 29.9429 21.4634 27.9334 23.9074C25.9782 26.2893 24.5894 28.9273 23.7593 31.829C22.9601 34.6144 22.836 37.3299 23.3946 39.9834C23.9687 42.6136 25.1713 45.0653 27.0101 47.3231C29.4309 50.2404 32.2628 52.4128 35.5214 53.8482C38.8033 55.2913 42.318 55.9042 46.0655 55.6947C48.9905 55.524 51.6129 54.7559 53.9328 53.3981C56.2682 52.0171 58.1923 50.0929 59.7053 47.6179C61.2803 45.0498 62.2811 42.2334 62.7001 39.1842C63.1501 36.0575 62.9329 33.0781 62.0484 30.2462C60.9932 26.8324 58.8751 23.8376 55.694 21.2694H55.7018Z" fill="white"/>
<path d="M62.0483 30.2384C60.9931 26.8246 58.875 23.8297 55.694 21.2616C54.2819 20.1133 52.7379 19.1745 51.062 18.4452C49.3784 17.7081 47.6482 17.2038 45.8559 16.94C41.8447 16.3504 38.2059 16.8081 34.9317 18.3288C32.2705 19.6013 29.9351 21.4556 27.9256 23.8996C25.9704 26.2815 24.5816 28.9194 23.7514 31.8212C22.9523 34.6066 22.8282 37.3221 23.3868 39.9756C23.9609 42.6058 25.1635 45.0575 27.0023 47.3153C29.423 50.2326 32.255 52.405 35.5136 53.8403C38.7955 55.2835 42.3102 55.8964 46.0577 55.6869C48.9827 55.5162 51.6051 54.7481 53.925 53.3903C56.2603 52.0093 58.1845 50.0851 59.6974 47.6101C61.2725 45.042 62.2733 42.2256 62.6923 39.1764C63.1423 36.0497 62.9251 33.0703 62.0406 30.2384H62.0483Z" stroke="#1D1E1D" stroke-linecap="round" stroke-linejoin="round"/>
<path d="M30.9434 38.9683C31.6417 39.2786 32.3555 39.2864 33.077 39.0071C33.7831 38.7355 34.2874 38.2467 34.5977 37.5485C34.9081 36.8502 34.9158 36.1519 34.6365 35.4536C34.3572 34.732 33.8684 34.22 33.1624 33.9096C32.4563 33.5993 31.7658 33.5915 31.0598 33.8864C30.346 34.1501 29.8416 34.6234 29.5313 35.3217C29.2209 36.02 29.2132 36.726 29.5003 37.4398C29.764 38.1536 30.2373 38.6579 30.9356 38.9683H30.9434Z" fill="#F3CCD0"/>
<path d="M51.6594 47.1761C52.3577 46.8968 52.8543 46.408 53.1646 45.7097C53.475 45.0114 53.4905 44.3132 53.2189 43.6226C52.9396 42.9011 52.4508 42.389 51.7448 42.0787C51.0387 41.7683 50.3404 41.7605 49.6266 42.0476C48.9128 42.3114 48.4085 42.7847 48.0982 43.483C47.7878 44.1813 47.7801 44.8873 48.0671 45.6011C48.3387 46.3149 48.8197 46.827 49.5258 47.1373C50.2318 47.4477 50.9379 47.4554 51.6594 47.1761Z" fill="#F3CCD0"/>
<path d="M41.2241 43.2708C42.4189 43.3639 43.5672 42.2234 44.6612 39.857C42.6284 39.3217 41.0611 38.4992 39.9672 37.4053C38.8344 39.1898 38.3999 40.4855 38.6482 41.2846C38.7568 41.7346 38.974 42.107 39.3077 42.4019C39.4163 42.5648 39.7111 42.7743 40.1999 43.0226C40.7198 43.2088 41.0689 43.2941 41.2318 43.2708H41.2241Z" fill="#FBE4E8"/>
<path d="M44.6537 39.8512C43.5597 42.2176 42.4192 43.3581 41.2166 43.265C41.0537 43.2883 40.7045 43.2029 40.1847 43.0167C39.6959 42.7684 39.4011 42.5589 39.2924 42.396C38.9588 42.1012 38.7416 41.7288 38.633 41.2788C38.3769 40.4796 38.8192 39.1839 39.9519 37.3994C41.0537 38.5011 42.6209 39.3158 44.6459 39.8512H44.6537Z" stroke="#1D1E1D" stroke-linecap="round" stroke-linejoin="round"/>
<path d="M38.4773 35.8183C38.6713 35.0502 38.6558 34.445 38.4152 34.0027C38.3842 33.8708 38.2368 33.7234 37.973 33.5527C37.6704 33.4751 37.4532 33.4596 37.329 33.5217C37.0497 33.5915 36.7394 33.8165 36.398 34.1812L35.979 34.6933" stroke="#1D1E1D" stroke-linecap="round" stroke-linejoin="round"/>
<path d="M49.1765 40.497C49.3705 39.7289 49.355 39.1237 49.1145 38.6814C49.0834 38.5495 48.936 38.4021 48.6722 38.2314C48.3696 38.1539 48.1524 38.1383 48.0282 38.2004C47.7489 38.2702 47.4386 38.4952 47.0972 38.8599L46.6782 39.372" stroke="#1D1E1D" stroke-linecap="round" stroke-linejoin="round"/>
<path d="M47.5397 63.9358C51.2639 65.3324 55.5157 65.1694 60.295 63.447C63.7476 61.9341 65.5477 60.0565 65.7106 57.822C65.7649 57.1159 65.664 56.4332 65.4002 55.7892C65.1287 55.1375 64.7097 54.6021 64.1433 54.1909C63.1735 53.4616 61.839 53.2909 60.1476 53.6711C57.3778 54.284 53.3898 55.0288 48.1682 55.8978L43.2026 61.0884C43.319 61.3211 43.6992 61.678 44.3276 62.1668C45.2509 62.8806 46.3216 63.4703 47.5475 63.9358H47.5397Z" fill="white"/>
<path d="M43.1875 61.0728C43.3039 61.3055 43.6841 61.6624 44.3125 62.1512C45.2358 62.865 46.3065 63.4547 47.5324 63.9202C51.2565 65.3168 55.5083 65.1538 60.2876 63.4314C63.7403 61.9184 65.5403 60.0408 65.7032 57.8063C65.7575 57.1003 65.6567 56.4175 65.3929 55.7736C65.1213 55.1218 64.7023 54.5865 64.136 54.1753C63.1661 53.446 61.8316 53.2753 60.1402 53.6554C57.3704 54.2684 53.3824 55.0132 48.1608 55.8822" stroke="#1D1E1D" stroke-linecap="round" stroke-linejoin="round"/>
<path d="M20.012 51.8232C16.4197 50.1163 13.5801 46.9508 11.5007 42.3111C10.1895 38.7731 10.2826 36.174 11.78 34.5136C12.2533 33.9783 12.812 33.5826 13.4559 33.3265C14.1154 33.0705 14.7904 33.0007 15.4809 33.1171C16.6758 33.3033 17.731 34.1412 18.631 35.6309C20.1129 38.0516 22.3551 41.4344 25.3577 45.787L25.0784 52.9638C24.8302 53.0414 24.3103 53.0181 23.5189 52.9017C22.3629 52.731 21.1913 52.3741 20.012 51.8232Z" fill="white"/>
<path d="M25.1019 52.9638C24.8536 53.0414 24.3338 53.0181 23.5424 52.9018C22.3863 52.7311 21.2148 52.3742 20.0355 51.8233C16.4432 50.1164 13.6035 46.9508 11.5242 42.3189C10.213 38.781 10.3061 36.1818 11.8035 34.5214C12.2768 33.9861 12.8354 33.5904 13.4794 33.3344C14.1388 33.0783 14.8139 33.0085 15.5044 33.1249C16.6992 33.3111 17.7544 34.149 18.6544 35.6387C20.1363 38.0594 22.3786 41.4422 25.3812 45.7948" stroke="#1D1E1D" stroke-linecap="round" stroke-linejoin="round"/>
<path d="M35.1798 51.9798C33.8454 51.8091 32.0919 51.6307 29.9039 51.4522C29.0427 52.6548 27.3746 54.1522 24.8996 55.96C27.1962 56.185 29.3143 55.8902 31.254 55.091C32.604 54.5169 33.7833 53.741 34.7997 52.7634C35.0169 52.5229 35.1411 52.2591 35.1798 51.9798ZM29.9039 51.4522C29.9039 51.4522 29.935 51.3901 29.9583 51.3669C29.7488 50.8005 29.4307 50.1643 29.0039 49.4505C28.1194 48.0617 27.0953 47.0608 25.9392 46.4401C23.8522 46.2228 21.9047 46.5254 20.0814 47.3556C20.0659 47.3556 20.0504 47.3711 20.0271 47.3867C21.1909 47.8832 22.1996 48.6358 23.053 49.6444C23.4565 50.1332 23.7591 50.5832 23.9375 50.9867C26.1875 51.1419 28.1738 51.2893 29.9039 51.4367M23.9375 50.9867C23.8366 50.9867 23.7435 50.9789 23.6427 50.9712L16.4271 50.5134C16.4193 50.7074 16.4659 50.9169 16.5668 51.1341C17.0866 52.1815 17.8547 53.0893 18.8711 53.8419C20.3685 54.9591 22.3237 55.6574 24.7211 55.9212C24.7754 55.9367 24.8375 55.9445 24.8996 55.9445C27.3746 54.1445 29.0427 52.6393 29.9039 51.4367C28.1738 51.2893 26.1875 51.1341 23.9375 50.9867C23.9375 51.0022 23.953 51.0177 23.953 51.0332C23.1461 52.1117 21.7961 53.2212 19.9185 54.3617C21.8039 53.2212 23.1461 52.1117 23.953 51.0332C23.953 51.0177 23.9375 51.0022 23.9375 50.9867ZM23.6427 50.9712C23.7435 50.9712 23.8366 50.9789 23.9375 50.9867C23.7513 50.5832 23.4565 50.1332 23.053 49.6444C22.1996 48.6358 21.1909 47.8832 20.0271 47.3867C18.809 47.9453 17.7306 48.6979 16.7995 49.6289C16.5512 49.9082 16.4271 50.2031 16.4271 50.5134L23.6427 50.9712ZM26.172 46.4401C26.0867 46.4323 26.0091 46.4246 25.9315 46.4323C27.0875 47.053 28.1117 48.0539 28.9962 49.4427C29.4229 50.1487 29.7332 50.7927 29.9505 51.3591C29.9272 51.3824 29.9039 51.4134 29.8962 51.4444C32.0841 51.6229 33.8454 51.7936 35.1721 51.972C35.1721 51.9332 35.1721 51.9022 35.1798 51.8634C35.2031 51.4988 35.0945 51.1884 34.8617 50.9401C34.0083 49.9548 32.9997 49.1091 31.8359 48.3953C30.1367 47.3634 28.2513 46.7116 26.172 46.4479V46.4401Z" fill="#50AB5A"/>
<path d="M29.0114 49.4508C28.1269 48.062 27.1028 47.0611 25.9467 46.4404M29.9657 51.3594C29.7562 50.7931 29.4381 50.1568 29.0114 49.443M29.958 51.3594C29.9347 51.3827 29.9037 51.4448 29.9037 51.4448C32.0916 51.6232 33.8528 51.7939 35.1796 51.9724M16.4346 50.5137L23.6501 50.9715C23.751 50.9715 23.8441 50.9793 23.945 50.987M23.945 50.987C23.7588 50.5836 23.4639 50.1336 23.0605 49.6448C22.207 48.6361 21.1984 47.8835 20.0346 47.387M23.945 50.987C23.945 51.0025 23.9605 51.0181 23.9605 51.0336C23.1536 52.112 21.8113 53.2215 19.926 54.3621M23.945 50.987C26.195 51.1422 28.1812 51.2896 29.9114 51.437C29.0502 52.6396 27.3821 54.1371 24.9071 55.9448" stroke="#35733D" stroke-linecap="round" stroke-linejoin="round"/>
<path d="M34.7997 52.7635C35.0169 52.523 35.1411 52.2592 35.1798 51.9798C35.1798 51.9411 35.1798 51.91 35.1876 51.8712C35.2109 51.5066 35.1023 51.1962 34.8695 50.9479C34.016 49.9626 33.0074 49.1169 31.8436 48.4031C30.1445 47.3712 28.2591 46.7195 26.1798 46.4557C26.0944 46.4479 26.0168 46.4401 25.9392 46.4479C23.8522 46.2307 21.9047 46.5332 20.0814 47.3634C20.0659 47.3634 20.0504 47.3789 20.0271 47.3945C18.809 47.9531 17.7306 48.7057 16.7995 49.6367C16.5512 49.916 16.4271 50.2109 16.4271 50.5212C16.4193 50.7152 16.4659 50.9247 16.5668 51.1419C17.0866 52.1893 17.8547 53.0971 18.8711 53.8497C20.3685 54.9669 22.3237 55.6652 24.7134 55.929C24.7677 55.9445 24.8298 55.9523 24.8918 55.9523C27.1884 56.1773 29.3065 55.8825 31.2462 55.0833C32.5962 54.5092 33.7755 53.7333 34.7919 52.7557L34.7997 52.7635Z" stroke="#1D1E1D" stroke-linecap="round" stroke-linejoin="round"/>
<path d="M47.098 60.2421L45.5308 60.4903C47.1756 62.0498 48.9911 63.7878 50.9696 65.7197C51.1868 65.5024 51.311 65.2076 51.342 64.8352C51.3963 63.5162 51.2256 62.2205 50.8299 60.9481C49.6584 60.4205 48.417 60.1877 47.1058 60.2421M45.4609 60.4903H45.5385C43.9169 58.9386 42.4506 57.5731 41.1549 56.3937C40.9609 57.2938 40.9221 58.667 41.0462 60.5136C41.0928 61.4524 41.1549 62.3369 41.2324 63.1516C41.2635 63.1904 41.3023 63.2292 41.3566 63.2602C43.1799 64.843 45.0187 65.8128 46.873 66.1697C48.1222 66.418 49.2937 66.3714 50.3955 66.0145C50.636 65.9447 50.8299 65.8438 50.9774 65.7119C48.9989 63.7878 47.1834 62.0421 45.5385 60.4826H45.4609C45.2204 61.8248 45.3213 63.5705 45.7558 65.7197C45.3135 63.5705 45.2204 61.8326 45.4609 60.4903ZM41.1704 56.3084C41.1704 56.3084 41.1549 56.3549 41.1549 56.3937C42.4506 57.5731 43.9169 58.9386 45.5385 60.4826L47.1058 60.2343C48.417 60.1722 49.6584 60.405 50.8299 60.9403C50.8144 60.9093 50.8067 60.886 50.8067 60.8705C50.186 58.9696 49.092 57.3325 47.5325 55.9593C46.2911 55.5015 44.8635 55.4239 43.2497 55.7187C42.435 55.8739 41.7445 56.0679 41.1781 56.3006M37.229 52.8713C37.0195 53.1041 36.9031 53.3756 36.8876 53.6937C36.8488 55.098 37.0738 56.4868 37.5703 57.8757C38.2841 59.8464 39.51 61.5998 41.2324 63.1438C41.1549 62.3291 41.0928 61.4447 41.0462 60.5058C40.9221 58.6593 40.9609 57.286 41.1549 56.386C39.6264 54.9661 38.3152 53.7946 37.229 52.8713ZM47.5247 55.9593C47.4627 55.8972 47.4006 55.8351 47.3385 55.7886C45.748 54.4308 43.9945 53.4687 42.0781 52.9179C40.7592 52.5377 39.4557 52.367 38.1522 52.4058C37.8264 52.4058 37.5393 52.5454 37.2833 52.8092C37.26 52.8248 37.2445 52.848 37.2212 52.8713C38.3074 53.7946 39.6186 54.9661 41.1471 56.386C41.1471 56.3472 41.1549 56.3239 41.1626 56.3006C41.729 56.0601 42.4195 55.8662 43.2342 55.7187C44.848 55.4162 46.2756 55.5015 47.517 55.9593H47.5247Z" fill="#50AB5A"/>
<path d="M41.2242 63.1436C41.1466 62.3289 41.0845 61.4444 41.038 60.5056C40.9138 58.6591 40.9526 57.2858 41.1466 56.3858M41.1466 56.3858C39.6181 54.9659 38.3069 53.7944 37.2207 52.8711M41.1466 56.3858C41.1466 56.3858 41.1544 56.3237 41.1621 56.3004C41.7285 56.0599 42.419 55.8659 43.2337 55.7185C44.8475 55.4159 46.2751 55.5013 47.5165 55.959M45.7475 65.7195C45.3053 63.5703 45.2122 61.8324 45.4527 60.4901H45.5303C43.9087 58.9384 42.4423 57.5729 41.1466 56.3935M50.8217 60.9401C49.6501 60.4048 48.4087 60.172 47.0975 60.2341L45.5303 60.4824C47.1751 62.0419 48.9906 63.7876 50.9691 65.7117" stroke="#35733D" stroke-linecap="round" stroke-linejoin="round"/>
<path d="M36.8789 53.6947C36.8944 53.3378 37.0341 53.043 37.2901 52.8102C37.5462 52.5464 37.8332 52.4145 38.1591 52.4068C39.4625 52.368 40.766 52.5387 42.085 52.9188C43.9936 53.4697 45.7471 54.4318 47.3454 55.7895C49.0057 57.2016 50.154 58.9008 50.8057 60.8792C51.2247 62.1672 51.4032 63.4862 51.3489 64.8362C51.3101 65.4569 50.9997 65.8526 50.3945 66.0233C49.2928 66.3724 48.1212 66.4267 46.8721 66.1784C45.01 65.8215 43.1712 64.8517 41.3557 63.2689C39.5712 61.7017 38.3065 59.9094 37.5772 57.8921C37.0806 56.5033 36.8479 55.1068 36.8944 53.7102L36.8789 53.6947Z" stroke="#1D1E1D" stroke-linecap="round" stroke-linejoin="round"/>
<path d="M37.337 56.6278C38.3224 56.2554 39.0361 55.5726 39.4629 54.595C39.8896 53.6252 39.9129 52.6398 39.5249 51.6545C39.1525 50.6691 38.4698 49.9553 37.4922 49.5286C36.5146 49.0941 35.5292 49.0786 34.5516 49.4665C33.5585 49.8545 32.8525 50.5295 32.4257 51.4993C31.999 52.4691 31.9757 53.4623 32.3637 54.4399C32.7361 55.4252 33.4189 56.139 34.3965 56.5657C35.3741 56.9925 36.3594 57.0157 37.337 56.6278ZM36.7241 51.0881C37.0034 51.2122 37.2051 51.4217 37.3215 51.7243C37.4611 52.0114 37.4611 52.2985 37.337 52.5855C37.2129 52.8726 36.9879 53.0821 36.6775 53.1907C36.3827 53.2838 36.1034 53.276 35.8163 53.1519C35.5292 53.0278 35.3197 52.8183 35.2034 52.5467C35.087 52.2441 35.0947 51.9493 35.2189 51.6545C35.343 51.3597 35.5603 51.1657 35.8473 51.0726C36.1344 50.9484 36.4292 50.9562 36.7241 51.0803V51.0881Z" fill="#EEC56B"/>
<path d="M37.3219 51.7235C37.2055 51.4209 37.0038 51.2114 36.7244 51.0873C36.4451 50.9632 36.1425 50.9554 35.8477 51.0795C35.5529 51.1727 35.3434 51.3666 35.2193 51.6615C35.0951 51.9563 35.0874 52.2511 35.2037 52.5537C35.3201 52.8253 35.5218 53.027 35.8167 53.1589C36.1115 53.2908 36.3831 53.2985 36.6779 53.1977C36.9882 53.0891 37.2055 52.8796 37.3374 52.5925C37.4693 52.3054 37.4615 52.0106 37.3219 51.7313V51.7235Z" fill="white"/>
<path d="M39.4549 54.5794C39.0204 55.557 38.3144 56.2398 37.329 56.6122C36.3514 57.0001 35.3661 56.9846 34.3885 56.5501C33.4109 56.1156 32.7281 55.4096 32.3557 54.4242C31.9678 53.4466 31.9833 52.4613 32.4178 51.4837C32.8445 50.5139 33.5505 49.8311 34.5436 49.4509C35.5212 49.063 36.5066 49.0785 37.4842 49.513C38.4618 49.9475 39.1445 50.6535 39.517 51.6389C39.9049 52.632 39.8816 53.6096 39.4549 54.5794Z" stroke="#1D1E1D" stroke-linecap="round" stroke-linejoin="round"/>
<path d="M7.70657 66.9152C7.66778 68.2807 7.91605 69.4678 8.4514 70.4764C9.06434 71.6635 9.97986 72.4083 11.2057 72.7264C12.3773 73.0135 14.0532 73.1376 16.2411 73.1143H16.2799C16.5204 73.0988 17.1023 73.0523 18.0179 72.9669C18.5998 72.9126 19.0343 72.5712 19.3213 71.9428C19.7093 71.1359 19.9343 70.0109 19.9886 68.5833C20.0041 67.66 19.9731 66.8919 19.9032 66.2789L19.8722 65.9298C19.6705 64.7117 19.3756 63.8815 18.9877 63.447C18.4368 62.8186 17.8084 62.5858 17.1101 62.7332C17.1023 62.7332 17.0791 62.7332 17.0558 62.7332C17.0092 62.7565 16.9549 62.772 16.8929 62.772C16.2877 62.8961 15.6903 63.0668 15.1006 63.2918L13.9833 62.7643C13.0678 62.3996 12.2299 62.2056 11.4773 62.1746C9.0333 62.097 7.7764 63.6798 7.71433 66.9074L7.70657 66.9152Z" fill="white"/>
<path d="M17.0402 62.7332C16.9937 62.7565 16.9394 62.772 16.8773 62.772C16.2721 62.8961 15.6747 63.0668 15.085 63.2918L13.9678 62.7643C13.0523 62.3996 12.2143 62.2056 11.4617 62.1746C9.01773 62.097 7.76858 63.6798 7.69876 66.9074C7.65996 68.2729 7.90824 69.46 8.44359 70.4686C9.05653 71.6557 9.97205 72.4005 11.1979 72.7186C12.3695 73.0057 14.0454 73.1299 16.2333 73.1066H16.2721H16.8928C17.4669 73.1376 18.0876 73.2152 18.7471 73.3393" stroke="#1D1E1D" stroke-linecap="round" stroke-linejoin="round"/>
<path d="M44.7546 83.2157C43.777 84.17 42.7296 84.7829 41.6279 85.07C40.3399 85.4192 39.1684 85.2485 38.1132 84.5657C37.1123 83.8985 35.8787 82.7502 34.42 81.1208L34.3968 81.0898C34.2416 80.9114 33.8847 80.4458 33.3261 79.7088C32.9692 79.2432 32.9304 78.6924 33.1942 78.0562C33.5278 77.226 34.2028 76.3027 35.2192 75.2863C35.8942 74.6501 36.4761 74.1535 36.9726 73.7889L37.252 73.5794C38.2839 72.9044 39.0985 72.563 39.6804 72.5553C40.5184 72.5397 41.1158 72.8423 41.4804 73.4553C41.4882 73.4553 41.5037 73.4785 41.5192 73.4941C41.5348 73.5406 41.558 73.5949 41.6046 73.6415C41.9227 74.1691 42.202 74.7277 42.4348 75.3096L43.583 75.7751C44.4675 76.2096 45.1813 76.6906 45.7089 77.226C47.4158 78.9717 47.1055 80.9657 44.7701 83.2002L44.7546 83.2157Z" fill="white"/>
<path d="M41.519 73.4951C41.5345 73.5417 41.5577 73.596 41.6043 73.6425C41.9224 74.1701 42.2017 74.7288 42.4345 75.3107L43.5828 75.7762C44.4673 76.2107 45.1811 76.6917 45.7086 77.227C47.4156 78.9728 47.1052 80.9667 44.7698 83.2012C43.7922 84.1556 42.7448 84.7685 41.6431 85.0556C40.3552 85.4047 39.1836 85.234 38.1284 84.5512C37.1275 83.884 35.8939 82.7357 34.4353 81.1064L34.412 81.0754L33.993 80.6254C33.5818 80.2219 33.1008 79.8185 32.5654 79.415" stroke="#1D1E1D" stroke-linecap="round" stroke-linejoin="round"/>
</g>
<defs>
<clipPath id="clip0_8819_19251">
<rect width="80" height="80" fill="white" transform="translate(0 0.5)"/>
</clipPath>
</defs>
</svg>
