<svg width="171" height="170" viewBox="0 0 171 170" fill="none" xmlns="http://www.w3.org/2000/svg">
<g clip-path="url(#clip0_8447_19560)">
<path d="M137.259 154.617C137.597 155.496 137.935 156.611 138.265 157.947L138.637 158.978C138.4 157.6 137.935 156.147 137.259 154.617ZM134.639 147.831C134.326 147.771 133.786 147.721 133.008 147.679L128.394 142.481C126.653 142.456 122.867 142.895 117.052 143.799C113.435 144.357 110.477 144.881 108.178 145.388L105.854 145.971L103.065 152.31C101.612 156.375 100.8 158.471 100.623 158.589C100.344 161.403 100.784 165.418 101.941 170.64C102.778 175.187 103.851 179.1 105.161 182.371L117.855 180.681L119.216 180.833C120.357 180.909 121.531 180.833 122.765 180.621C124.743 180.334 126.298 179.869 127.439 179.21L140.099 176.979C140.344 173.463 140.183 169.415 139.617 164.826C139.177 162.096 138.729 159.806 138.282 157.947C137.952 156.603 137.614 155.496 137.276 154.617C136.912 152.935 136.465 151.397 135.941 150.003C135.417 148.617 134.986 147.898 134.664 147.831H134.639Z" fill="white"/>
<path d="M134.657 147.839C134.978 147.907 135.4 148.634 135.924 150.02C136.457 151.406 136.896 152.944 137.26 154.625M138.265 157.972C138.722 159.823 139.161 162.113 139.6 164.843C140.167 169.432 140.327 173.48 140.082 176.996M127.422 179.227C126.281 179.886 124.726 180.359 122.749 180.638C121.523 180.858 120.34 180.926 119.199 180.85L117.839 180.697M105.145 182.388C103.843 179.117 102.77 175.213 101.925 170.657C100.767 165.435 100.328 161.412 100.607 158.606L100.59 158.412M137.243 154.634C137.581 155.513 137.919 156.628 138.248 157.981M105.838 145.997L108.162 145.414C110.461 144.907 113.419 144.383 117.036 143.825C122.85 142.921 126.628 142.481 128.377 142.506" stroke="#1E1E1E" stroke-width="1.38" stroke-linecap="round" stroke-linejoin="round"/>
<path d="M114.147 67.5614C112.829 66.9106 111.367 66.488 109.778 66.2768C108.265 66.1077 106.702 66.15 105.104 66.3951C103.507 66.6402 101.978 67.0796 100.583 67.6966C99.0872 68.4318 97.8364 69.2769 96.8307 70.2319C95.9687 71.0517 95.1658 72.1081 94.4052 73.3927C93.8221 74.3899 93.3657 75.497 93.0361 76.714L92.6558 78.4803C92.1741 81.303 92.6558 83.9905 94.1263 86.5343L99.8647 96.2194L102.332 95.1377C104.471 94.3686 106.795 93.8193 109.279 93.4897C111.772 93.0502 114.156 92.8812 116.429 92.9657C117.562 93.0249 118.449 93.1263 119.083 93.2615L121.652 82.2918C122.26 79.4184 121.922 76.714 120.621 74.1617C120.317 73.5871 120.004 73.0715 119.674 72.5983C118.99 71.5334 118.221 70.6122 117.367 69.8432C116.328 68.8459 115.246 68.0853 114.13 67.5529L114.147 67.5614Z" fill="#EE9CA5"/>
<path d="M109.28 93.4814C111.774 93.0419 114.157 92.8729 116.43 92.9574C117.563 93.0166 118.45 93.118 119.084 93.2532L121.653 82.2835C122.261 79.4101 121.923 76.7057 120.622 74.1534C120.318 73.5788 120.005 73.0632 119.675 72.59C118.991 71.5251 118.222 70.6039 117.368 69.8349C116.329 68.8376 115.247 68.077 114.131 67.5531C112.813 66.9023 111.351 66.4797 109.762 66.2685C108.249 66.0994 106.686 66.1417 105.089 66.3868C103.466 66.6403 101.962 67.0713 100.567 67.6883C99.0713 68.4235 97.8206 69.2686 96.8149 70.2236C95.9528 71.0434 95.15 72.0998 94.3894 73.3844C93.8062 74.3816 93.3499 75.4887 93.0203 76.7057L92.64 78.472C92.1582 81.2947 92.64 83.9822 94.1105 86.526L99.8489 96.2111L102.317 95.1294C104.455 94.3603 106.779 93.811 109.264 93.4814H109.28ZM109.28 93.4814L107.878 84.4048" stroke="#B34E58" stroke-width="1.38" stroke-linecap="round" stroke-linejoin="round"/>
<path d="M74.1464 83.7882C72.8618 84.7939 71.7885 85.9179 70.9265 87.1771C69.963 88.4955 69.2109 89.8646 68.67 91.2675C68.0784 92.7634 67.7742 94.2593 67.7573 95.7551C67.7319 96.9974 67.9094 98.3074 68.2897 99.6934C68.6108 100.817 69.0841 101.916 69.701 102.989C69.9208 103.42 70.2419 103.944 70.6729 104.544C72.3125 106.902 74.5605 108.449 77.417 109.176L88.2937 111.965C88.4796 111.348 88.8177 110.519 89.291 109.471C90.2628 107.426 91.5221 105.398 93.0686 103.387C94.5223 101.324 96.0773 99.5075 97.7253 97.944L99.7958 96.2453L93.8546 86.7208C92.2658 84.2192 90.1107 82.5459 87.4063 81.6923L85.6316 81.2359C84.4231 80.9739 83.2145 80.8556 82.0145 80.8894C80.6707 80.9486 79.3861 81.1852 78.1607 81.6078C76.7071 82.0811 75.3718 82.8079 74.1548 83.7798L74.1464 83.7882Z" fill="#EE9CA5"/>
<path d="M93.0529 103.369C94.5065 101.307 96.0615 99.4904 97.7095 97.9269L99.78 96.2282L93.8388 86.7037C92.25 84.2021 90.095 82.5288 87.3906 81.6752L85.6158 81.2188C84.4073 80.9569 83.1988 80.8385 81.9987 80.8723C80.6549 80.9315 79.3704 81.1681 78.1449 81.5907C76.6913 82.064 75.356 82.7908 74.1391 83.7627C72.8545 84.7684 71.7812 85.8924 70.9191 87.1516C69.9557 88.47 69.2035 89.8391 68.6627 91.242C68.0711 92.7378 67.7668 94.2337 67.7499 95.7296C67.7246 96.9719 67.9021 98.2818 68.2824 99.6678C68.6035 100.792 69.0768 101.891 69.6937 102.964C69.9134 103.395 70.2346 103.919 70.6656 104.519C72.3051 106.877 74.5532 108.423 77.4097 109.15L88.2864 111.939C88.4723 111.322 88.8104 110.494 89.2836 109.446C90.2555 107.401 91.5148 105.372 93.0613 103.361L93.0529 103.369ZM93.0529 103.369L85.6074 97.9184" stroke="#B34E58" stroke-width="1.38" stroke-linecap="round" stroke-linejoin="round"/>
<path d="M135.411 72.7677C134.084 72.7424 132.766 72.9029 131.473 73.2494C130.366 73.5706 129.267 74.0439 128.177 74.6608L126.597 75.6327C124.29 77.2638 122.751 79.5118 121.991 82.3683L119.177 93.245L121.67 94.2423C123.766 95.2226 125.802 96.4818 127.78 98.02C129.842 99.4736 131.659 101.029 133.222 102.677C134.008 103.53 134.566 104.215 134.896 104.756L144.446 98.8059C146.93 97.2171 148.595 95.0705 149.449 92.3576L149.93 90.5744C150.176 89.3659 150.294 88.1743 150.285 87.008C150.226 85.6643 149.981 84.3628 149.559 83.1036C149.094 81.7176 148.367 80.3823 147.387 79.0977C146.449 77.923 145.325 76.8497 143.998 75.8778C142.679 74.9143 141.31 74.1622 139.907 73.6213C138.386 73.072 136.89 72.7846 135.428 72.7593L135.411 72.7677Z" fill="#EE9CA5"/>
<path d="M127.754 98.0113C129.816 99.4649 131.633 101.02 133.197 102.668C133.983 103.522 134.54 104.206 134.87 104.747L144.42 98.7973C146.905 97.2085 148.569 95.0618 149.423 92.349L149.905 90.5658C150.15 89.3573 150.268 88.1657 150.26 86.9994C150.201 85.6556 149.955 84.3542 149.533 83.0949C149.068 81.7089 148.341 80.3736 147.361 79.0891C146.423 77.9143 145.299 76.841 143.972 75.8691C142.654 74.9057 141.285 74.1535 139.882 73.6127C138.36 73.0633 136.865 72.776 135.403 72.7506C134.076 72.7253 132.757 72.8859 131.464 73.2324C130.357 73.5535 129.258 74.0268 128.168 74.6437L126.588 75.6156C124.281 77.2467 122.743 79.4947 121.982 82.3512L119.168 93.2279L121.661 94.2252C123.757 95.2055 125.793 96.4647 127.771 98.0029L127.754 98.0113ZM127.754 98.0113L133.18 90.5658" stroke="#B34E58" stroke-width="1.38" stroke-linecap="round" stroke-linejoin="round"/>
<path d="M154.434 98.0455C153.885 97.8595 153.285 97.7243 152.634 97.6229C149.795 97.1412 147.124 97.6483 144.605 99.1357L134.895 104.857L135.977 107.3C136.78 109.438 137.337 111.753 137.65 114.246C138.098 116.74 138.267 119.123 138.157 121.396C138.098 122.546 138.005 123.441 137.87 124.101L148.856 126.619C151.73 127.228 154.434 126.889 156.961 125.596L158.558 124.701C159.623 123.999 160.544 123.23 161.314 122.393C162.277 121.354 163.029 120.264 163.57 119.106C164.212 117.838 164.643 116.385 164.855 114.762C165.041 113.258 165.007 111.694 164.753 110.055C164.508 108.449 164.069 106.962 163.435 105.592C162.776 104.122 161.922 102.854 160.891 101.789C159.995 100.843 158.947 100.04 157.756 99.3892C156.767 98.823 155.66 98.3751 154.434 98.0455Z" fill="#EE9CA5"/>
<path d="M137.64 114.229C138.088 116.722 138.257 119.106 138.147 121.379C138.088 122.528 137.995 123.424 137.86 124.083L148.846 126.602C151.72 127.21 154.416 126.872 156.951 125.579L158.548 124.684C159.613 123.982 160.534 123.213 161.303 122.376C162.267 121.337 163.019 120.247 163.56 119.089C164.202 117.821 164.633 116.368 164.845 114.745C165.03 113.241 164.997 111.677 164.743 110.038C164.498 108.432 164.059 106.944 163.425 105.575C162.766 104.105 161.912 102.837 160.881 101.772C159.985 100.826 158.937 100.023 157.746 99.3721C156.757 98.8059 155.65 98.358 154.424 98.0284C153.875 97.8425 153.275 97.7072 152.624 97.6058C149.785 97.1241 147.114 97.6312 144.595 99.1186L134.885 104.84L135.967 107.282C136.77 109.421 137.327 111.736 137.64 114.229ZM137.64 114.229L146.717 112.826" stroke="#B34E58" stroke-width="1.38" stroke-linecap="round" stroke-linejoin="round"/>
<path d="M137.879 124.134L136.907 126.644C135.926 128.723 134.659 130.751 133.129 132.729C131.709 134.791 130.146 136.608 128.447 138.171C127.61 138.949 126.926 139.515 126.368 139.845L132.335 149.394C133.89 151.879 136.036 153.561 138.758 154.423C139.476 154.643 140.076 154.795 140.558 154.871C141.783 155.116 142.975 155.234 144.124 155.226C145.544 155.192 146.845 154.964 148.037 154.55C149.448 154.06 150.784 153.324 152.034 152.327C153.209 151.389 154.283 150.265 155.254 148.938C156.184 147.721 156.936 146.36 157.511 144.848C158.035 143.377 158.331 141.898 158.381 140.419C158.407 139.076 158.246 137.757 157.891 136.456C157.545 135.323 157.08 134.216 156.471 133.134L155.474 131.579C153.843 129.255 151.603 127.709 148.755 126.94L137.853 124.134H137.879Z" fill="#EE9CA5"/>
<path d="M133.12 132.703C131.701 134.765 130.137 136.582 128.438 138.146C127.602 138.923 126.917 139.49 126.359 139.819L132.326 149.369C133.881 151.854 136.028 153.536 138.749 154.398C139.467 154.617 140.067 154.769 140.549 154.845C141.774 155.091 142.966 155.209 144.115 155.2C145.535 155.167 146.837 154.938 148.028 154.524C149.44 154.034 150.775 153.299 152.026 152.302C153.2 151.364 154.274 150.24 155.246 148.913C156.175 147.696 156.927 146.335 157.502 144.822C158.026 143.352 158.322 141.873 158.373 140.394C158.398 139.05 158.237 137.732 157.882 136.43C157.536 135.298 157.071 134.191 156.463 133.109L155.465 131.554C153.834 129.23 151.595 127.683 148.747 126.914L137.845 124.108L136.873 126.618C135.892 128.697 134.625 130.726 133.095 132.703H133.12ZM133.12 132.703L140.541 138.163" stroke="#B34E58" stroke-width="1.38" stroke-linecap="round" stroke-linejoin="round"/>
<path d="M92.9935 133.43L91.2863 131.334L81.7618 137.301C79.2602 138.856 77.5784 141.011 76.7333 143.749C76.5051 144.451 76.353 145.042 76.277 145.524C76.015 146.733 75.8966 147.933 75.9305 149.116C75.9812 150.544 76.2093 151.862 76.615 153.054C77.1221 154.499 77.8658 155.818 78.8292 157.001C79.8265 158.268 80.9589 159.342 82.2182 160.221C83.4182 161.159 84.7789 161.911 86.3085 162.477C87.7537 163.043 89.2496 163.348 90.7961 163.39C92.0216 163.432 93.3231 163.263 94.6837 162.866C95.8331 162.519 96.9486 162.046 98.0304 161.446C98.4614 161.226 98.9854 160.905 99.5854 160.474C101.943 158.818 103.481 156.57 104.217 153.73L106.997 142.828C106.389 142.668 105.56 142.346 104.512 141.856C102.467 140.867 100.439 139.608 98.4276 138.079C96.3486 136.659 94.54 135.104 92.985 133.422L92.9935 133.43Z" fill="#EE9CA5"/>
<path d="M98.4187 138.07C96.3397 136.65 94.5311 135.095 92.9761 133.413L91.269 131.317L81.7445 137.284C79.2429 138.839 77.5611 140.994 76.716 143.732C76.4878 144.434 76.3357 145.025 76.2596 145.507C75.9976 146.715 75.8793 147.916 75.9131 149.099C75.9638 150.527 76.192 151.845 76.5977 153.037C77.1047 154.482 77.8484 155.801 78.8119 156.984C79.8091 158.251 80.9416 159.325 82.2008 160.204C83.4009 161.142 84.7615 161.894 86.2912 162.46C87.7364 163.026 89.2322 163.331 90.7788 163.373C92.0042 163.415 93.3057 163.246 94.6664 162.849C95.8157 162.502 96.9313 162.029 98.013 161.429C98.4441 161.209 98.968 160.888 99.5681 160.457C101.926 158.801 103.464 156.553 104.199 153.713L106.98 142.811C106.371 142.65 105.543 142.329 104.495 141.839C102.45 140.85 100.422 139.591 98.4102 138.061L98.4187 138.07ZM98.4187 138.07L92.9677 145.515" stroke="#B34E58" stroke-width="1.38" stroke-linecap="round" stroke-linejoin="round"/>
<path d="M77.2663 109.53C74.4351 108.862 71.7392 109.183 69.1785 110.502L67.5643 111.457C66.5502 112.133 65.629 112.893 64.8008 113.738C63.8796 114.719 63.1274 115.8 62.5358 116.975C61.8766 118.437 61.4541 119.899 61.2766 121.361C61.0907 122.866 61.1245 124.412 61.3696 126.018C61.6146 127.624 62.0626 129.162 62.6964 130.531C63.3133 131.908 64.15 133.159 65.2064 134.283C66.1022 135.213 67.1502 136.033 68.3503 136.734C69.3898 137.292 70.4969 137.748 71.6716 138.103L73.4886 138.475C76.3029 138.94 78.9734 138.458 81.5004 137.013L91.2108 131.292C90.8897 130.708 90.5347 129.872 90.1459 128.798C89.3769 126.66 88.8276 124.336 88.4895 121.826C88.0585 119.35 87.881 116.975 87.9655 114.702L88.236 112.048L77.2494 109.53H77.2663Z" fill="#EE9CA5"/>
<path d="M88.4896 121.818C88.0586 119.342 87.8811 116.967 87.9656 114.694L88.236 112.04L77.2495 109.521C74.4183 108.854 71.7224 109.175 69.1616 110.493L67.5475 111.448C66.5333 112.124 65.6121 112.885 64.7839 113.73C63.8627 114.71 63.1106 115.792 62.519 116.967C61.8598 118.429 61.4372 119.891 61.2598 121.353C61.0738 122.857 61.1076 124.404 61.3527 126.01C61.6063 127.641 62.0457 129.145 62.6796 130.523C63.2965 131.9 64.1332 133.151 65.1896 134.275C66.0854 135.205 67.1333 136.024 68.3334 136.726C69.3729 137.284 70.48 137.74 71.6547 138.095L73.4718 138.467C76.286 138.932 78.9566 138.45 81.4835 137.005L91.194 131.283C90.8728 130.7 90.5179 129.863 90.1291 128.79C89.36 126.652 88.8107 124.328 88.4727 121.818H88.4896ZM88.4896 121.818L79.3707 123.229" stroke="#B34E58" stroke-width="1.38" stroke-linecap="round" stroke-linejoin="round"/>
<path d="M131.953 148.82L126.307 139.904C125.732 140.191 124.913 140.529 123.848 140.909C121.701 141.662 119.377 142.203 116.867 142.541C114.391 142.972 112.016 143.158 109.743 143.09L107.072 142.879L104.41 153.079C103.751 155.758 104.064 158.26 105.348 160.592L106.227 162.063C106.895 163.018 107.655 163.871 108.509 164.624C109.489 165.46 110.571 166.153 111.746 166.711C113.005 167.303 114.45 167.674 116.064 167.827C117.645 168.004 119.208 167.945 120.755 167.658C122.301 167.472 123.797 167.049 125.259 166.407C126.704 165.781 127.972 164.995 129.062 164.04C130.043 163.136 130.854 162.147 131.488 161.083C132.088 160.102 132.553 159.063 132.891 157.956C133.068 157.457 133.212 156.899 133.339 156.282C133.837 153.679 133.381 151.195 131.961 148.837L131.953 148.82Z" fill="#EE9CA5"/>
<path d="M116.86 142.524C114.384 142.955 112.009 143.141 109.736 143.073L107.065 142.862L104.403 153.062C103.744 155.741 104.056 158.243 105.341 160.575L106.22 162.046C106.888 163.001 107.648 163.855 108.502 164.607C109.482 165.443 110.564 166.136 111.739 166.694C112.998 167.286 114.443 167.658 116.057 167.81C117.638 167.987 119.201 167.928 120.748 167.641C122.294 167.455 123.79 167.032 125.252 166.39C126.697 165.765 127.965 164.979 129.055 164.024C130.035 163.119 130.847 162.131 131.481 161.066C132.081 160.085 132.546 159.046 132.884 157.939C133.061 157.44 133.205 156.882 133.331 156.265C133.83 153.662 133.374 151.178 131.954 148.82L126.309 139.904C125.734 140.191 124.914 140.529 123.849 140.909C121.703 141.662 119.379 142.203 116.868 142.541L116.86 142.524ZM116.86 142.524L118.28 151.693" stroke="#B34E58" stroke-width="1.38" stroke-linecap="round" stroke-linejoin="round"/>
<path d="M116.674 90.2278C114.055 89.932 111.435 89.9827 108.815 90.3884C106.195 90.794 103.668 91.5377 101.276 92.611C95.9098 95.0112 91.811 98.417 88.9967 102.82C86.7318 106.454 85.3204 110.545 84.7711 115.1C84.2387 119.537 84.5936 123.847 85.8444 128.039C87.036 132.07 89.0052 135.492 91.7518 138.298C94.5069 141.07 97.8874 143.124 101.893 144.468C107.125 146.149 112.288 146.597 117.393 145.811C122.523 145.017 127.306 143.031 131.735 139.853C135.183 137.36 137.794 134.377 139.569 130.912C141.352 127.405 142.206 123.551 142.121 119.342C142.045 114.964 141.082 110.747 139.214 106.682C137.329 102.507 134.743 99.0255 131.447 96.2535C127.5 92.8984 122.573 90.887 116.683 90.2278H116.674Z" fill="white"/>
<path d="M131.42 96.2364C127.474 92.8813 122.547 90.8699 116.656 90.2107C114.036 89.9149 111.416 89.9656 108.796 90.3713C106.168 90.7769 103.65 91.5206 101.258 92.5939C95.8915 94.9941 91.7927 98.3999 88.9784 102.803C86.7135 106.437 85.3021 110.527 84.7528 115.083C84.2204 119.52 84.5753 123.83 85.8261 128.021C87.0177 132.053 88.9869 135.475 91.7335 138.281C94.4886 141.053 97.8691 143.107 101.875 144.451C107.106 146.132 112.27 146.58 117.374 145.794C122.504 145 127.288 143.014 131.716 139.836C135.164 137.343 137.776 134.36 139.55 130.895C141.334 127.388 142.187 123.534 142.103 119.325C142.027 114.947 141.063 110.73 139.196 106.665C137.311 102.49 134.725 99.0084 131.429 96.2364H131.42Z" stroke="#1E1E1E" stroke-width="1.38" stroke-linecap="round" stroke-linejoin="round"/>
<path d="M115.566 143.851C113.8 144.679 111.51 145.837 108.695 147.324C108.577 149.471 107.707 152.606 106.084 156.739C109.067 155.226 111.434 153.215 113.183 150.721C114.383 148.964 115.228 147.096 115.702 145.11C115.778 144.645 115.735 144.222 115.558 143.851M108.687 147.324C108.687 147.273 108.687 147.223 108.687 147.172C107.986 146.648 107.098 146.115 106.033 145.575C103.87 144.569 101.833 144.138 99.9316 144.282C97.2103 145.642 95.0637 147.535 93.4833 149.969C93.4664 149.986 93.4579 150.012 93.4495 150.054C95.2581 149.758 97.0835 149.893 98.909 150.468C99.7879 150.747 100.498 151.068 101.039 151.423C103.912 149.859 106.464 148.49 108.687 147.324ZM101.039 151.423C100.912 151.49 100.794 151.558 100.667 151.634L91.4804 156.696C91.6156 156.942 91.8353 157.161 92.1311 157.347C93.5932 158.226 95.2327 158.733 97.0582 158.868C99.771 159.071 102.695 158.395 105.839 156.857C105.915 156.832 106 156.789 106.076 156.747C107.698 152.614 108.569 149.479 108.687 147.332C106.456 148.499 103.904 149.859 101.039 151.431C101.056 151.448 101.072 151.457 101.098 151.474C100.946 153.417 100.168 155.826 98.7484 158.691C100.16 155.826 100.946 153.426 101.098 151.474C101.081 151.457 101.064 151.448 101.039 151.431M100.667 151.643C100.794 151.575 100.912 151.507 101.039 151.431C100.498 151.076 99.7879 150.764 98.909 150.476C97.0835 149.902 95.2581 149.766 93.4495 150.062C92.3931 151.702 91.6663 153.451 91.2522 155.319C91.1677 155.851 91.2522 156.308 91.4888 156.688L100.675 151.626M100.244 144.113C100.134 144.163 100.033 144.222 99.9485 144.282C101.85 144.138 103.887 144.569 106.05 145.575C107.124 146.115 108.002 146.648 108.704 147.172C108.695 147.223 108.695 147.273 108.704 147.324C111.518 145.837 113.808 144.679 115.575 143.851C115.549 143.8 115.524 143.758 115.507 143.707C115.254 143.242 114.882 142.946 114.392 142.828C112.583 142.287 110.69 142.034 108.704 142.076C105.822 142.135 102.999 142.811 100.253 144.113H100.244Z" fill="#4FB35B"/>
<path d="M99.9224 144.282C101.824 144.138 103.861 144.569 106.024 145.575C107.089 146.116 107.976 146.648 108.678 147.172C108.678 147.223 108.678 147.273 108.678 147.324C111.492 145.837 113.782 144.679 115.549 143.851M91.4712 156.688L100.658 151.626C100.784 151.558 100.903 151.49 101.03 151.414C100.489 151.059 99.7787 150.747 98.8998 150.459C97.0743 149.885 95.2489 149.75 93.4403 150.045M98.7392 158.666C100.151 155.801 100.937 153.4 101.089 151.448C101.072 151.431 101.055 151.423 101.03 151.406C103.903 149.842 106.455 148.473 108.678 147.307C108.56 149.454 107.689 152.589 106.066 156.722" stroke="#37773E" stroke-width="1.38" stroke-linecap="round" stroke-linejoin="round"/>
<path d="M115.693 145.11C115.769 144.645 115.727 144.222 115.55 143.851C115.524 143.8 115.499 143.758 115.482 143.707C115.229 143.242 114.857 142.946 114.366 142.828C112.558 142.287 110.665 142.034 108.679 142.076C105.797 142.135 102.974 142.811 100.228 144.113C100.118 144.163 100.016 144.222 99.9318 144.282C97.2105 145.642 95.0639 147.535 93.4835 149.969C93.4666 149.986 93.4582 150.012 93.4497 150.054C92.3933 151.693 91.6665 153.443 91.2524 155.31C91.1679 155.843 91.2524 156.299 91.4891 156.68C91.6243 156.925 91.844 157.144 92.1398 157.33C93.6019 158.209 95.2414 158.716 97.0669 158.851C99.7797 159.054 102.704 158.378 105.848 156.84C105.924 156.815 106.008 156.772 106.084 156.73C109.068 155.217 111.434 153.206 113.183 150.713C114.383 148.955 115.229 147.087 115.702 145.101L115.693 145.11Z" stroke="#1E1E1E" stroke-width="1.38" stroke-linecap="round" stroke-linejoin="round"/>
<path d="M136.575 144.671L134.851 146.192C138.079 146.817 141.654 147.536 145.576 148.347C145.677 147.916 145.601 147.46 145.339 146.978C144.376 145.321 143.159 143.868 141.68 142.625C139.829 142.896 138.13 143.572 136.575 144.671ZM134.758 146.259L134.851 146.192C131.657 145.566 128.808 145.034 126.298 144.603C126.763 145.854 127.786 147.561 129.375 149.724C130.169 150.84 130.93 151.871 131.657 152.809C131.724 152.834 131.8 152.843 131.885 152.851C135.35 153.367 138.35 153.122 140.911 152.108C142.635 151.44 144.029 150.46 145.102 149.175C145.348 148.905 145.5 148.626 145.576 148.347C141.654 147.527 138.071 146.809 134.851 146.192L134.758 146.259C135.51 148.085 136.989 150.139 139.203 152.429C136.989 150.147 135.51 148.085 134.758 146.259ZM126.248 144.485C126.248 144.485 126.265 144.561 126.29 144.603C128.8 145.034 131.648 145.566 134.843 146.192L136.567 144.671C138.122 143.58 139.82 142.896 141.671 142.625C141.637 142.6 141.604 142.575 141.587 142.566C139.347 140.724 136.727 139.566 133.744 139.11C131.868 139.515 130.059 140.53 128.318 142.161C127.439 142.98 126.746 143.758 126.239 144.493M118.735 143.369C118.65 143.817 118.735 144.24 118.954 144.637C119.994 146.386 121.363 147.916 123.053 149.226C125.462 151.077 128.327 152.277 131.64 152.818C130.904 151.88 130.144 150.848 129.358 149.733C127.769 147.569 126.746 145.862 126.282 144.611C123.298 144.071 120.788 143.656 118.735 143.369ZM133.744 139.118C133.626 139.084 133.499 139.067 133.381 139.051C130.372 138.628 127.482 138.822 124.71 139.634C122.808 140.2 121.076 141.011 119.512 142.068C119.115 142.33 118.87 142.718 118.76 143.234C118.752 143.268 118.735 143.31 118.726 143.361C120.78 143.648 123.298 144.062 126.273 144.603C126.248 144.552 126.231 144.519 126.231 144.485C126.738 143.758 127.431 142.98 128.31 142.152C130.051 140.53 131.859 139.515 133.736 139.101L133.744 139.118Z" fill="#4FB35B"/>
<path d="M131.649 152.809C130.914 151.871 130.154 150.84 129.368 149.725C127.779 147.561 126.756 145.854 126.291 144.603M126.291 144.603C123.308 144.062 120.798 143.648 118.744 143.361M126.291 144.603C126.266 144.553 126.249 144.519 126.249 144.485C126.756 143.758 127.449 142.981 128.328 142.152C130.069 140.53 131.878 139.516 133.754 139.102M139.205 152.421C136.991 150.139 135.512 148.077 134.759 146.251L134.852 146.184M134.852 146.184C131.658 145.558 128.81 145.026 126.3 144.595M134.852 146.184L136.576 144.662C138.131 143.572 139.83 142.888 141.681 142.617M134.852 146.184C138.072 146.801 141.656 147.519 145.577 148.339" stroke="#37773E" stroke-width="1.38" stroke-linecap="round" stroke-linejoin="round"/>
<path d="M118.955 144.628C118.702 144.18 118.643 143.715 118.761 143.225C118.862 142.71 119.116 142.321 119.513 142.059C121.077 140.994 122.809 140.183 124.711 139.625C127.483 138.814 130.373 138.619 133.382 139.042C136.508 139.481 139.247 140.656 141.588 142.566C143.1 143.825 144.351 145.296 145.332 146.986C145.771 147.772 145.695 148.507 145.095 149.183C144.022 150.468 142.627 151.448 140.903 152.116C138.351 153.13 135.342 153.375 131.877 152.86C128.463 152.336 125.522 151.119 123.054 149.225C121.364 147.916 119.995 146.386 118.955 144.636V144.628Z" stroke="#1E1E1E" stroke-width="1.38" stroke-linecap="round" stroke-linejoin="round"/>
<path d="M121.784 147.848C122.697 146.623 123.035 145.237 122.798 143.699C122.561 142.177 121.826 140.96 120.575 140.048C119.35 139.135 117.964 138.797 116.426 139.034C114.888 139.27 113.671 140.014 112.775 141.256C111.862 142.499 111.524 143.885 111.761 145.406C111.997 146.944 112.741 148.161 113.983 149.057C115.209 149.969 116.595 150.307 118.133 150.071C119.671 149.834 120.888 149.09 121.784 147.848ZM116.722 141.552C117.161 141.484 117.575 141.586 117.947 141.865C118.336 142.11 118.564 142.456 118.64 142.913C118.716 143.369 118.598 143.792 118.311 144.172C118.032 144.518 117.668 144.721 117.229 144.789C116.789 144.856 116.367 144.772 116.012 144.527C115.631 144.248 115.412 143.885 115.336 143.428C115.26 142.972 115.369 142.566 115.648 142.228C115.91 141.856 116.265 141.628 116.722 141.56V141.552Z" fill="#F6CB6D"/>
<path d="M117.947 141.865C117.566 141.586 117.161 141.484 116.721 141.552C116.282 141.62 115.901 141.848 115.648 142.22C115.369 142.566 115.259 142.963 115.335 143.42C115.411 143.876 115.631 144.248 116.011 144.518C116.366 144.763 116.772 144.856 117.228 144.78C117.685 144.704 118.031 144.501 118.31 144.163C118.606 143.783 118.716 143.361 118.64 142.904C118.564 142.448 118.335 142.093 117.947 141.856V141.865Z" fill="white"/>
<path d="M122.799 143.673C123.036 145.211 122.698 146.589 121.785 147.823C120.889 149.065 119.672 149.809 118.134 150.045C116.596 150.282 115.218 149.944 113.984 149.031C112.742 148.135 111.998 146.918 111.762 145.38C111.525 143.859 111.863 142.473 112.776 141.231C113.672 139.988 114.889 139.245 116.427 139.008C117.965 138.772 119.343 139.11 120.576 140.022C121.819 140.935 122.562 142.152 122.799 143.673Z" stroke="#1E1E1E" stroke-width="1.38" stroke-linecap="round" stroke-linejoin="round"/>
<path d="M100.209 131.208C101.308 131.039 102.187 130.498 102.846 129.593C103.497 128.706 103.734 127.717 103.565 126.619C103.396 125.52 102.872 124.658 101.984 124.024C101.08 123.365 100.074 123.111 98.984 123.28C97.8938 123.449 97.0233 123.982 96.3979 124.886C95.7303 125.757 95.4767 126.745 95.6457 127.836C95.8148 128.926 96.3556 129.805 97.2515 130.447C98.122 131.115 99.1107 131.368 100.201 131.199L100.209 131.208Z" fill="#F5CED3"/>
<path d="M131.954 125.097C132.588 124.21 132.816 123.221 132.647 122.131C132.478 121.032 131.963 120.17 131.092 119.536C130.188 118.877 129.182 118.624 128.092 118.793C127.002 118.962 126.123 119.502 125.481 120.398C124.813 121.269 124.559 122.258 124.729 123.348C124.898 124.446 125.438 125.317 126.334 125.959C127.222 126.627 128.219 126.872 129.309 126.703C130.399 126.534 131.287 125.993 131.946 125.089L131.954 125.097Z" fill="#F5CED3"/>
<path d="M117.029 122.697L116.742 121.886L110.361 123.052L110.539 123.982C110.716 124.717 110.953 125.368 111.24 125.942C112.145 127.793 113.412 128.503 115.043 128.072C116.674 127.649 117.443 126.492 117.35 124.599C117.325 124.007 117.224 123.373 117.038 122.697H117.029Z" fill="#FDE5EA"/>
<path d="M110.361 123.044L116.742 121.877L117.029 122.689C117.207 123.365 117.317 123.99 117.342 124.59C117.435 126.475 116.666 127.633 115.035 128.064C113.404 128.486 112.144 127.776 111.232 125.934C110.944 125.368 110.716 124.717 110.53 123.973L110.353 123.044H110.361Z" stroke="#1E1E1E" stroke-width="1.38" stroke-linecap="round" stroke-linejoin="round"/>
<path d="M104.599 117.373C103.863 117.482 103.272 117.913 102.841 118.649C102.418 119.367 102.275 120.187 102.418 121.1C102.562 122.012 102.942 122.764 103.568 123.356C104.201 123.914 104.894 124.134 105.63 124.015C106.365 123.897 106.957 123.483 107.396 122.764C107.819 122.012 107.954 121.184 107.81 120.263C107.666 119.342 107.286 118.615 106.669 118.057C106.027 117.482 105.342 117.254 104.607 117.373M105.376 118.581C105.638 118.539 105.875 118.598 106.078 118.75C106.289 118.902 106.407 119.097 106.449 119.35C106.492 119.612 106.433 119.849 106.28 120.052C106.128 120.263 105.926 120.381 105.664 120.423C105.418 120.457 105.19 120.407 104.987 120.254C104.776 120.102 104.658 119.899 104.616 119.638C104.582 119.392 104.632 119.164 104.785 118.961C104.937 118.75 105.131 118.632 105.385 118.59L105.376 118.581Z" fill="#1E1E1E"/>
<path d="M106.069 118.75C105.858 118.598 105.63 118.539 105.368 118.581C105.123 118.615 104.92 118.742 104.768 118.953C104.616 119.164 104.556 119.384 104.599 119.629C104.641 119.891 104.759 120.094 104.971 120.246C105.182 120.398 105.402 120.457 105.647 120.415C105.909 120.373 106.111 120.254 106.264 120.043C106.416 119.832 106.475 119.604 106.433 119.342C106.399 119.097 106.272 118.894 106.061 118.742L106.069 118.75Z" fill="white"/>
<path d="M119.191 116.122C118.785 116.84 118.65 117.652 118.794 118.573C118.938 119.485 119.309 120.246 119.918 120.838C120.552 121.395 121.245 121.615 121.98 121.497C122.715 121.379 123.341 120.956 123.772 120.238C124.177 119.485 124.304 118.657 124.16 117.744C124.017 116.832 123.645 116.088 123.036 115.53C122.411 114.956 121.718 114.727 120.949 114.846C120.214 114.956 119.622 115.387 119.191 116.122ZM121 117.094C120.966 116.849 121.008 116.62 121.143 116.418C121.279 116.215 121.473 116.088 121.718 116.054C121.98 116.012 122.217 116.071 122.42 116.223C122.631 116.375 122.749 116.57 122.791 116.823C122.834 117.102 122.774 117.339 122.622 117.525C122.487 117.728 122.276 117.854 122.005 117.897C121.76 117.93 121.541 117.88 121.355 117.719C121.16 117.567 121.05 117.356 121.008 117.094H121Z" fill="#1E1E1E"/>
<path d="M121.144 116.426C121.008 116.629 120.958 116.857 121 117.102C121.042 117.364 121.152 117.575 121.346 117.727C121.541 117.88 121.752 117.939 121.997 117.905C122.276 117.863 122.479 117.736 122.614 117.533C122.766 117.339 122.825 117.111 122.783 116.832C122.749 116.587 122.622 116.384 122.411 116.232C122.2 116.08 121.972 116.02 121.71 116.063C121.465 116.096 121.27 116.223 121.135 116.426H121.144Z" fill="white"/>
<path d="M91.3465 146.715L91.1352 149.006C91.0169 150.831 91.0507 152.521 91.2282 154.085C91.8113 159.088 93.7382 161.784 97.0003 162.189C100.448 162.612 102.603 161.319 103.457 158.293C103.998 156.383 104.015 153.51 103.499 149.69C103.204 147.484 102.071 145.904 100.11 144.957C99.5019 144.662 98.8427 144.45 98.1328 144.315L97.2623 144.197L91.3549 146.715H91.3465Z" fill="white"/>
<path d="M91.3465 146.715L91.1352 149.006C91.0169 150.831 91.0507 152.521 91.2282 154.085C91.8113 159.088 93.7382 161.784 97.0003 162.189C100.448 162.612 102.603 161.319 103.457 158.293C103.998 156.383 104.015 153.51 103.499 149.69C103.204 147.484 102.071 145.904 100.11 144.957C99.5019 144.662 98.8427 144.45 98.1328 144.315L97.2623 144.197L91.3549 146.715H91.3465Z" stroke="#1E1E1E" stroke-width="1.38" stroke-linecap="round" stroke-linejoin="round"/>
<path d="M142.205 138.636L142.999 140.791C143.582 142.524 143.988 144.163 144.216 145.718C144.951 150.696 143.785 153.806 140.734 155.04C137.514 156.342 135.097 155.649 133.491 152.944C132.469 151.237 131.717 148.473 131.227 144.645C130.939 142.431 131.624 140.622 133.28 139.202C133.787 138.755 134.37 138.383 135.021 138.07L135.832 137.732L142.196 138.636H142.205Z" fill="white"/>
<path d="M142.205 138.619L142.999 140.774C143.582 142.507 143.988 144.146 144.216 145.701C144.952 150.679 143.785 153.789 140.734 155.023C137.515 156.324 135.097 155.631 133.492 152.927C132.469 151.22 131.717 148.456 131.227 144.628C130.939 142.414 131.624 140.605 133.28 139.185C133.788 138.737 134.371 138.366 135.021 138.053L135.833 137.715L142.196 138.619H142.205Z" stroke="#1E1E1E" stroke-width="1.38" stroke-linecap="round" stroke-linejoin="round"/>
<path d="M97.2731 135.76C94.9442 135.572 92.9055 136.229 91.1643 137.724C89.6988 139.103 88.85 140.728 88.6105 142.613L88.5307 143.451C88.5017 144.137 88.5452 144.823 88.6541 145.494C89.0241 147.668 90.0688 149.372 91.7882 150.6C93.4134 151.95 95.2489 152.629 97.2948 152.629C99.3843 152.672 101.198 152.022 102.743 150.679C104.434 149.17 105.326 147.256 105.42 144.938C105.486 142.577 104.738 140.497 103.186 138.699C101.561 136.951 99.5947 135.969 97.2731 135.76Z" fill="white"/>
<path d="M91.7882 150.6C93.4134 151.95 95.2489 152.629 97.2948 152.629C99.3843 152.672 101.198 152.022 102.743 150.679C104.434 149.17 105.326 147.256 105.42 144.938C105.486 142.577 104.738 140.497 103.186 138.699C101.561 136.951 99.5947 135.969 97.2731 135.76C94.9442 135.572 92.9055 136.229 91.1643 137.724C89.6988 139.103 88.85 140.728 88.6105 142.613L88.5307 143.451C88.5017 144.137 88.5452 144.823 88.6541 145.494C89.0241 147.668 90.0688 149.372 91.7882 150.6Z" stroke="#1E1E1E" stroke-width="1.38" stroke-linecap="round" stroke-linejoin="round"/>
<path d="M133.025 130.294C135.129 129.564 137.177 129.665 139.163 130.598C140.857 131.49 142.051 132.76 142.738 134.402L143.023 135.139C143.217 135.754 143.349 136.382 143.418 137.017C143.613 139.072 143.071 140.863 141.794 142.39C140.628 144.005 139.1 145.059 137.205 145.552C135.282 146.093 133.442 145.944 131.685 145.106C129.748 144.147 128.45 142.633 127.784 140.558C127.138 138.443 127.305 136.382 128.297 134.382C129.367 132.409 130.943 131.05 133.025 130.3V130.294Z" fill="white"/>
<path d="M141.794 142.388C140.628 144.004 139.1 145.059 137.205 145.552C135.282 146.093 133.442 145.944 131.685 145.106C129.748 144.146 128.45 142.632 127.784 140.556C127.138 138.44 127.305 136.378 128.297 134.377C129.367 132.403 130.943 131.044 133.025 130.294C135.129 129.564 137.177 129.665 139.163 130.598C140.857 131.49 142.051 132.761 142.738 134.404L143.023 135.141C143.217 135.756 143.349 136.385 143.418 137.02C143.613 139.076 143.071 140.867 141.794 142.395V142.388Z" stroke="#1E1E1E" stroke-width="1.38" stroke-linecap="round" stroke-linejoin="round"/>
<path d="M84.1081 154.989C83.0094 153.519 81.5474 152.361 79.7388 151.533C75.0315 149.437 69.7157 149.437 63.7745 151.533C59.1432 153.164 54.681 155.809 50.3877 159.477L50.3286 159.519L50.1342 159.485L50.1173 159.434C47.3791 154.524 44.1085 150.502 40.297 147.375C35.4206 143.36 30.4006 141.526 25.2285 141.873C23.2509 142 21.5015 142.583 19.9887 143.622C18.3914 144.653 17.2421 146.056 16.5322 147.839C15.5349 150.214 15.3068 152.673 15.8645 155.209C16.397 157.753 17.6139 159.891 19.507 161.598C20.5381 162.528 21.7381 163.314 23.1241 163.947C24.1383 164.37 25.4482 164.793 27.0624 165.232C25.0341 166.863 23.7411 168.967 23.1833 171.545C22.5748 174.317 23.0903 176.802 24.7214 178.999C26.7666 181.796 29.7668 182.903 33.7389 182.312C37.1785 181.813 40.0604 180.393 42.3675 178.044C44.7846 175.542 46.8044 172.111 48.4355 167.75C48.5454 167.7 48.6721 167.674 48.8074 167.666L49.0778 167.869C49.1454 172.585 49.8807 176.497 51.2836 179.624C52.6189 182.582 54.8162 184.906 57.8924 186.597C61.3828 188.507 64.5858 188.507 67.5014 186.588C69.7748 185.084 71.1101 182.929 71.5073 180.123C71.8285 177.52 71.3298 175.103 70.0115 172.855C71.651 173.007 73.0201 173.058 74.1272 172.999C75.6738 172.897 77.0936 172.576 78.3866 172.044C80.7191 171.08 82.5869 169.491 83.9813 167.286C85.3589 165.097 85.9927 162.714 85.8828 160.136C85.8321 158.217 85.2405 156.502 84.1081 154.998V154.989Z" fill="#B8E1F4"/>
<path d="M85.8763 160.127C85.8256 158.209 85.234 156.493 84.1015 154.989C83.0028 153.518 81.5408 152.361 79.7322 151.532C75.0249 149.436 69.7091 149.436 63.7679 151.532C59.1366 153.163 54.6744 155.809 50.3812 159.476L50.322 159.519L50.1276 159.485L50.1107 159.434C47.3725 154.524 44.1019 150.501 40.2904 147.374C35.4141 143.36 30.394 141.526 25.2219 141.864C23.2443 141.991 21.4949 142.574 19.9821 143.614C18.3849 144.645 17.2355 146.048 16.5256 147.831C15.5283 150.206 15.3002 152.665 15.8579 155.2C16.3904 157.744 17.6073 159.882 19.5004 161.589C20.5315 162.519 21.7315 163.305 23.1175 163.939C24.1317 164.361 25.4416 164.784 27.0558 165.223C25.0275 166.854 23.7345 168.959 23.1767 171.536C22.5682 174.308 23.0837 176.793 24.7148 178.99C26.76 181.788 29.7602 182.895 33.7323 182.303C37.1719 181.805 40.0538 180.385 42.3525 178.035C44.7695 175.534 46.7894 172.103 48.4205 167.742C48.5303 167.691 48.6571 167.666 48.7923 167.657L49.0628 167.86C49.1304 172.576 49.8656 176.489 51.2685 179.616C52.6038 182.574 54.8011 184.898 57.8774 186.588C61.3677 188.498 64.5707 188.498 67.4864 186.58C69.7598 185.075 71.0951 182.92 71.4923 180.114C71.8134 177.511 71.3148 175.094 69.9964 172.846C71.636 172.998 73.0051 173.049 74.1122 172.99C75.6587 172.889 77.0785 172.567 78.3716 172.035C80.7041 171.072 82.5718 169.483 83.9663 167.277C85.3438 165.088 85.9777 162.705 85.8678 160.127H85.8763Z" stroke="#1E1E1E" stroke-width="1.35" stroke-linecap="round" stroke-linejoin="round"/>
<path d="M32.1094 166.229C32.1094 166.28 32.0925 166.322 32.0925 166.364C32.1094 166.271 32.1348 166.178 32.1686 166.077L32.1094 166.229ZM31.8052 167.175L31.8221 167.192C31.8728 166.998 31.9235 166.812 31.9911 166.626C31.9235 166.812 31.8559 166.998 31.8052 167.175ZM34.6533 160.905C34.6195 160.955 34.5772 160.989 34.5434 161.014L34.5265 161.09C34.5772 161.04 34.6195 160.981 34.6617 160.905M63.9705 177.562C63.9705 177.562 63.979 177.494 64.0043 177.469C64.1818 176.962 64.3255 176.455 64.4438 175.948L64.5198 175.736C64.5706 175.449 64.6297 175.145 64.6889 174.841L64.748 174.097C63.3282 175.449 61.4014 176.446 58.9759 177.08C55.6714 177.891 51.7163 177.925 47.1272 177.19C42.5213 176.294 38.8113 174.9 35.997 173.015C33.9434 171.587 32.4728 169.981 31.5939 168.206L31.3488 169.229C31.2136 170.125 31.1545 170.987 31.1798 171.79C31.2897 174.908 32.6419 177.452 35.2279 179.446C37.9915 181.551 41.5748 182.996 45.9779 183.774C50.3725 184.559 54.2094 184.433 57.4884 183.393C60.5816 182.421 62.7282 180.486 63.9452 177.604C63.9536 177.579 63.9705 177.562 63.979 177.545M64.5283 175.72C64.5621 175.534 64.6128 175.331 64.6635 175.128L64.6973 174.824C64.6382 175.128 64.579 175.424 64.5283 175.72ZM64.9086 173.024C64.9931 171.773 64.9678 170.412 64.8325 168.959C64.6804 167.589 64.4945 166.381 64.2663 165.333C61.2492 166.28 58.0547 166.812 54.6742 166.93C52.9163 166.989 51.0233 166.88 49.0119 166.592C46.9751 166.161 45.1666 165.62 43.5777 164.961C40.4508 163.71 37.6281 162.113 35.1096 160.178C35.0082 160.355 34.9068 160.516 34.8054 160.668L34.6702 160.854V160.888C34.6364 160.964 34.5856 161.023 34.5349 161.074L33.3011 163.372C33.2673 163.457 33.2165 163.558 33.1658 163.677C33.0898 163.812 33.0306 163.964 32.9799 164.133C32.8278 164.437 32.6926 164.724 32.5827 165.003C32.5574 165.063 32.5235 165.139 32.4897 165.215L32.4306 165.384V165.401L32.3968 165.536L32.2869 165.798L32.194 166.043C32.1601 166.136 32.1348 166.229 32.1179 166.33L32.101 166.347C32.101 166.347 32.101 166.389 32.101 166.406L32.0249 166.592C31.9573 166.778 31.8982 166.973 31.8559 167.158C32.2447 167.488 32.5235 167.691 32.6926 167.767C35.4561 169.804 39.0479 171.519 43.4848 172.897C45.006 173.387 46.392 173.784 47.6428 174.072H47.7357C49.0119 174.232 50.4486 174.35 52.0459 174.41C56.694 174.646 60.6492 174.283 63.9198 173.311L64.9255 173.007L64.9086 173.024Z" fill="#4C4C4C"/>
<path d="M64.8756 173.125C64.8756 173.125 64.8925 173.075 64.8925 173.049L63.8868 173.354C60.6162 174.325 56.6611 174.697 52.0129 174.452C50.4156 174.393 48.9789 174.275 47.7028 174.114H47.6098C46.359 173.827 44.973 173.43 43.4518 172.939C39.0234 171.562 35.4232 169.846 32.6596 167.81C32.499 167.733 32.2201 167.531 31.8229 167.201C31.6117 167.911 31.4426 168.595 31.3328 169.255L31.5778 168.232C32.4652 170.007 33.9357 171.604 35.9809 173.041C38.7952 174.925 42.5053 176.32 47.1112 177.216C51.7086 177.951 55.6554 177.909 58.9598 177.106C61.3937 176.472 63.3122 175.475 64.732 174.123L64.6728 174.866C64.7573 174.309 64.8249 173.734 64.8587 173.134M39.8093 153.873L37.4937 156.645C37.3585 156.823 37.2148 157 37.0796 157.178C37.0711 157.186 37.0627 157.212 37.0627 157.254C37.0373 157.262 37.0204 157.288 37.0035 157.33C36.9697 157.355 36.9444 157.372 36.9444 157.389C36.9359 157.398 36.919 157.423 36.9106 157.465C36.0992 158.564 35.3893 159.646 34.7809 160.694C34.8823 160.541 34.9837 160.381 35.0851 160.203C37.6036 162.139 40.4263 163.736 43.5532 164.987C45.1336 165.646 46.9506 166.187 48.9874 166.618C50.9987 166.905 52.8834 167.024 54.6497 166.956C58.0301 166.846 61.2247 166.314 64.2418 165.359C63.9375 163.99 63.5741 162.595 63.1431 161.184C62.7375 159.882 62.3318 158.75 61.9262 157.803C60.4134 136.498 53.0439 135.188 39.8178 153.873H39.8093Z" fill="#F6CB6D"/>
<path d="M64.2487 165.359C63.9444 163.99 63.581 162.595 63.15 161.184C62.7444 159.882 62.3387 158.75 61.933 157.803C60.4203 136.498 53.0508 135.188 39.8247 153.873L37.509 156.645C37.3738 156.823 37.2301 157 37.0949 157.178C37.0865 157.186 37.078 157.212 37.078 157.254C37.0527 157.262 37.0358 157.288 37.0189 157.33C36.9851 157.355 36.9597 157.372 36.9597 157.389C36.9513 157.398 36.9344 157.423 36.9259 157.465C36.1146 158.564 35.4047 159.646 34.7962 160.694M64.2571 165.367C64.4853 166.415 64.6712 167.624 64.8234 168.993C64.9586 170.446 64.9839 171.807 64.8994 173.058C64.8994 173.083 64.8994 173.108 64.8825 173.134C64.8487 173.725 64.7811 174.309 64.6966 174.866M64.5276 175.762L64.4515 175.973C64.3416 176.48 64.1895 176.988 64.012 177.495C63.9867 177.52 63.9782 177.554 63.9782 177.588C63.9698 177.596 63.9529 177.621 63.9444 177.647C62.7275 180.537 60.5724 182.464 57.4877 183.436C54.2086 184.475 50.3718 184.602 45.9772 183.816C41.5741 183.03 37.9908 181.585 35.2272 179.489C32.6411 177.503 31.2974 174.951 31.1791 171.832C31.1537 171.021 31.2129 170.167 31.3481 169.272C31.458 168.612 31.627 167.928 31.8383 167.218M32.0073 166.652L32.0834 166.466C32.0834 166.466 32.0834 166.432 32.0918 166.407V166.39M32.2693 165.857L32.1763 166.111M32.3876 165.587L32.4214 165.452V165.435M32.4806 165.266C32.5144 165.19 32.5482 165.122 32.5735 165.054C32.6834 164.776 32.8186 164.488 32.9707 164.184C33.0214 164.023 33.0806 163.871 33.1567 163.728C33.2074 163.618 33.2496 163.516 33.2919 163.423L34.5258 161.125L34.5427 161.049C34.5427 161.049 34.6187 160.989 34.6525 160.939M34.6525 160.939V160.905L34.7877 160.719M34.6525 160.939C34.6187 161.015 34.568 161.074 34.5173 161.125M64.5107 175.779C64.5614 175.492 64.6205 175.187 64.6797 174.883M31.9904 166.652C31.9228 166.838 31.8636 167.032 31.8214 167.218M32.1594 166.111C32.1256 166.204 32.1003 166.288 32.0834 166.39" stroke="#1E1E1E" stroke-width="1.35" stroke-linecap="round" stroke-linejoin="round"/>
<path d="M32.3794 165.57L32.2695 165.832M32.4808 165.24L32.4217 165.409" stroke="black" stroke-width="1.35" stroke-linecap="round" stroke-linejoin="round"/>
<path d="M31.2323 94.1911C31.6295 93.9967 31.9929 93.7432 32.331 93.439C33.1339 92.6868 33.548 91.7572 33.5818 90.667C33.6156 89.5598 33.2606 88.6218 32.5254 87.8442C31.7732 87.0414 30.8436 86.6273 29.7534 86.5935C28.6463 86.5597 27.7166 86.9231 26.956 87.6668C26.1532 88.3851 25.7306 89.2979 25.6968 90.3965C25.663 91.4867 26.0179 92.4417 26.7616 93.253C27.4884 94.0305 28.4012 94.4362 29.5083 94.47C30.1252 94.4954 30.6999 94.4024 31.2323 94.1827V94.1911Z" fill="#F6CB6D"/>
<path d="M31.2318 94.191C30.6994 94.4107 30.1247 94.5037 29.5078 94.4783C28.4007 94.4445 27.488 94.0389 26.7611 93.2614C26.0174 92.4501 25.6625 91.4951 25.6963 90.4049C25.7301 89.2978 26.1442 88.385 26.9555 87.6751C27.7161 86.923 28.6542 86.568 29.7529 86.6018C30.8431 86.6356 31.7727 87.0497 32.5249 87.8526C33.2601 88.6301 33.6151 89.5682 33.5813 90.6753C33.5475 91.7655 33.1334 92.6951 32.3305 93.4473C31.9925 93.7515 31.6206 94.0051 31.2318 94.1995M31.2318 94.1995L34.7137 101.856M31.2318 94.1995L31.0966 93.929" stroke="#1E1E1E" stroke-width="1.35" stroke-linecap="round" stroke-linejoin="round"/>
<path d="M73.0137 94.7488C73.3179 95.0784 73.6475 95.3404 74.0109 95.5432C74.5349 95.8137 75.1096 95.9573 75.7434 95.9658C76.8336 95.9996 77.7801 95.6531 78.583 94.9263C79.369 94.1741 79.7831 93.253 79.8169 92.1543C79.8507 91.0472 79.5042 90.1091 78.7774 89.3316C78.0083 88.5372 77.0787 88.1146 75.9885 88.0808C74.8983 88.047 73.9686 88.402 73.208 89.1541C72.3798 89.8725 71.9488 90.7852 71.915 91.8923C71.8812 92.9825 72.2446 93.9375 73.0137 94.7488Z" fill="#F6CB6D"/>
<path d="M74.011 95.5432C74.535 95.8137 75.1097 95.9573 75.7435 95.9658C76.8337 95.9996 77.7803 95.6531 78.5831 94.9263C79.3691 94.1741 79.7832 93.253 79.817 92.1543C79.8508 91.0472 79.5043 90.1091 78.7775 89.3316C78.0085 88.5372 77.0788 88.1146 75.9886 88.0808C74.8984 88.047 73.9688 88.402 73.2082 89.1541C72.38 89.8725 71.9489 90.7852 71.9151 91.8923C71.8813 92.9825 72.2447 93.9375 73.0138 94.7488C73.318 95.0784 73.6476 95.3404 74.011 95.5432ZM74.011 95.5432L74.1463 95.3151M70.0305 102.989L74.0026 95.5432" stroke="#1E1E1E" stroke-width="1.35" stroke-linecap="round" stroke-linejoin="round"/>
<path d="M41.752 98.7795C38.1011 99.7007 34.7713 101.112 31.7796 103.014C27.3258 105.802 23.9791 109.293 21.7311 113.485C20.0155 116.654 18.9506 120.22 18.545 124.201C18.1478 128.114 18.4182 131.858 19.3394 135.424L18.5112 138.365C18.0633 140.748 18.1478 142.979 18.7478 145.067C20.7507 151.676 27.6807 155.496 39.5378 156.535L61.7138 157.253C73.6131 156.983 80.7797 153.619 83.2052 147.154C83.9574 145.118 84.194 142.895 83.8982 140.486L83.239 137.495C84.4137 133.962 84.9208 130.243 84.7856 126.347C84.6335 122.35 83.7884 118.716 82.2671 115.445C80.3065 111.118 77.1964 107.425 72.937 104.349C70.0551 102.261 66.8352 100.639 63.2773 99.481C59.8376 98.3823 56.2712 97.7654 52.5696 97.6217C48.851 97.5203 45.2424 97.909 41.7605 98.7795H41.752Z" fill="#F6CB6D"/>
<path d="M61.6896 157.237C73.5889 156.966 80.7556 153.603 83.1811 147.138C83.9332 145.101 84.1698 142.878 83.8741 140.47L83.2149 137.478C84.3896 133.945 84.8967 130.227 84.7614 126.331C84.6093 122.333 83.7642 118.699 82.243 115.429C80.2823 111.102 77.1722 107.409 72.9128 104.332C70.031 102.245 66.811 100.622 63.2531 99.4644C59.8134 98.3657 56.247 97.7488 52.5454 97.6051C48.8269 97.5037 45.2182 97.8924 41.7363 98.7629C38.0854 99.6841 34.7556 101.095 31.7639 102.997C27.3101 105.786 23.9634 109.276 21.7154 113.468C19.9998 116.637 18.9349 120.204 18.5208 124.184C18.1236 128.097 18.394 131.841 19.3152 135.407L18.487 138.348C18.0391 140.732 18.1236 142.963 18.7236 145.05C20.7266 151.659 27.6566 155.479 39.5136 156.519" stroke="#1E1E1E" stroke-width="1.35" stroke-linecap="round" stroke-linejoin="round"/>
<path d="M74.8883 135.332C74.1784 134.503 73.8404 134.039 73.8826 133.946C74.8292 129.526 74.8799 125.621 74.0348 122.241C73.0629 118.226 71.2374 114.939 68.5668 112.395C66.8428 110.747 64.7131 109.42 62.1777 108.406C59.786 107.417 57.2084 106.775 54.4533 106.471L50.0756 106.335C47.2951 106.471 44.6752 106.944 42.2244 107.755C39.6468 108.609 37.4326 109.809 35.5648 111.347C32.7421 113.713 30.7307 116.857 29.5222 120.795C28.4405 124.125 28.2292 128.021 28.8884 132.5C28.8884 132.602 28.525 133.041 27.7982 133.827C26.9953 135.07 26.446 136.32 26.1671 137.571C25.7276 139.566 25.8967 141.518 26.6826 143.428C27.477 145.287 28.7194 146.808 30.4096 147.991C32.3618 149.377 34.5169 150.459 36.8832 151.262C39.1566 152.023 41.5483 152.547 44.0752 152.834C46.4162 153.121 48.6473 153.299 50.7517 153.366C52.8983 153.443 55.1125 153.4 57.3943 153.257C59.9381 153.13 62.3721 152.766 64.7046 152.166C67.1217 151.524 69.3528 150.578 71.4149 149.318C73.1558 148.237 74.4658 146.8 75.3616 145.008C76.2743 143.149 76.587 141.214 76.3081 139.194C76.1222 137.918 75.649 136.633 74.8883 135.348V135.332Z" fill="white"/>
<path d="M76.3089 139.177C76.123 137.901 75.6497 136.616 74.8891 135.332C74.1792 134.503 73.8411 134.039 73.8834 133.946C74.8299 129.526 74.8806 125.621 74.0355 122.241C73.0636 118.226 71.2381 114.939 68.5676 112.395C66.8435 110.747 64.7138 109.42 62.1784 108.406C59.7868 107.417 57.2091 106.775 54.454 106.471L50.0763 106.335C47.2959 106.471 44.676 106.944 42.2251 107.755C39.6475 108.609 37.4333 109.809 35.5656 111.347C32.7429 113.713 30.7315 116.857 29.523 120.795C28.4412 124.125 28.2299 128.021 28.8891 132.5C28.8891 132.602 28.5257 133.041 27.7989 133.827C26.996 135.07 26.4467 136.32 26.1678 137.571C25.7284 139.566 25.8974 141.518 26.6833 143.428C27.4778 145.287 28.7201 146.808 30.4103 147.991C32.3626 149.377 34.5176 150.459 36.884 151.262C39.1573 152.023 41.549 152.547 44.0759 152.834C46.4169 153.121 48.6481 153.299 50.7524 153.366C52.899 153.443 55.1132 153.4 57.3951 153.257C59.9389 153.13 62.3728 152.766 64.7054 152.166C67.1224 151.524 69.3535 150.578 71.4156 149.318C73.1566 148.237 74.4665 146.8 75.3623 145.008C76.2751 143.149 76.5878 141.214 76.3089 139.194V139.177Z" stroke="#1E1E1E" stroke-width="1.35" stroke-linecap="round" stroke-linejoin="round"/>
<path d="M38.576 144.104C39.7338 142.963 40.3423 141.577 40.393 139.937C40.4437 138.298 39.9282 136.886 38.8464 135.712C37.7985 134.503 36.4717 133.869 34.8828 133.819C33.294 133.768 31.9333 134.309 30.8009 135.45C29.6431 136.557 29.0346 137.926 28.9839 139.566C28.9332 141.205 29.4487 142.633 30.5304 143.842C31.5784 145.033 32.9052 145.659 34.4941 145.71C36.0829 145.76 37.4097 145.228 38.576 144.104Z" fill="#F5CED3"/>
<path d="M71.5346 145.169C72.6925 144.028 73.3009 142.642 73.3517 141.002C73.4024 139.363 72.8868 137.952 71.8051 136.777C70.7318 135.602 69.4134 134.985 67.8415 134.935C66.2695 134.884 64.8835 135.408 63.7426 136.515C62.6017 137.622 62.0017 138.991 61.951 140.631C61.9003 142.27 62.4073 143.698 63.4722 144.907C64.537 146.099 65.8723 146.724 67.4612 146.775C69.05 146.825 70.3937 146.293 71.5431 145.169H71.5346Z" fill="#F5CED3"/>
<path d="M51.1017 136.777C49.8425 137.377 48.7523 137.521 47.8227 137.208C47.4086 138.298 47.1804 139.549 47.1128 140.96C47.0114 142.422 47.155 143.69 47.5438 144.755C47.8649 145.676 48.3213 146.437 48.9129 147.045C49.6228 147.73 50.4087 148.076 51.2623 148.101C53.4005 148.194 54.8118 146.825 55.4964 143.986C56.088 141.56 56.0542 139.405 55.395 137.512C54.3724 137.774 53.2399 137.546 51.9976 136.819C51.8201 136.718 51.6173 136.684 51.3806 136.709L51.1017 136.777Z" fill="#FDE5EA"/>
<path d="M47.8131 137.208C48.7427 137.521 49.8329 137.377 51.0921 136.777L51.371 136.709C51.6077 136.684 51.8189 136.718 51.988 136.819C53.2218 137.546 54.3543 137.774 55.3853 137.512M47.8131 137.208C47.7032 137.174 47.6102 137.132 47.5173 137.09L46.4102 136.228M47.8131 137.208C47.399 138.298 47.1708 139.549 47.1032 140.96C47.0017 142.422 47.1454 143.69 47.5342 144.755C47.8553 145.676 48.3117 146.437 48.9033 147.045C49.6132 147.73 50.3991 148.076 51.2527 148.101C53.3909 148.194 54.8022 146.825 55.4868 143.986C56.0783 141.56 56.0445 139.405 55.3853 137.512M55.3853 137.512C55.4445 137.495 55.5037 137.47 55.5797 137.436C56.1122 137.242 56.5094 136.988 56.7544 136.675" stroke="#1E1E1E" stroke-width="1.35" stroke-linecap="round" stroke-linejoin="round"/>
<path d="M57.1779 133.049C57.1441 134.038 57.4061 134.909 57.947 135.669C58.4963 136.388 59.1724 136.768 59.9753 136.793C60.7782 136.819 61.4965 136.489 62.1219 135.804C62.7135 135.086 63.0262 134.233 63.06 133.244C63.0938 132.255 62.8403 131.351 62.2909 130.624C61.7416 129.889 61.0486 129.5 60.2119 129.474C59.3753 129.449 58.7076 129.787 58.116 130.489C57.5244 131.173 57.2118 132.027 57.1779 133.049ZM61.4965 132.686C61.2683 132.88 61.0148 132.973 60.7359 132.965C60.4824 132.965 60.2542 132.847 60.0429 132.644C59.8654 132.449 59.7809 132.213 59.7894 131.934C59.7978 131.655 59.8992 131.418 60.0852 131.241C60.3133 131.029 60.55 130.928 60.8035 130.937C61.0909 130.945 61.3359 131.063 61.5472 131.291C61.7078 131.477 61.7839 131.722 61.7754 132.001C61.767 132.28 61.674 132.517 61.505 132.694L61.4965 132.686Z" fill="#1E1E1E"/>
<path d="M60.7351 132.965C61.0224 132.973 61.276 132.88 61.4957 132.686C61.6732 132.509 61.7577 132.272 61.7662 131.993C61.7746 131.714 61.6985 131.469 61.538 131.283C61.3267 131.055 61.0816 130.945 60.7943 130.928C60.5407 130.928 60.3041 131.021 60.0759 131.232C59.8815 131.41 59.7886 131.647 59.7801 131.925C59.7717 132.204 59.8562 132.449 60.0337 132.635C60.2449 132.847 60.4731 132.948 60.7267 132.957L60.7351 132.965Z" fill="white"/>
<path d="M44.7017 135.239C45.2933 134.52 45.6059 133.667 45.6398 132.678C45.6736 131.689 45.42 130.785 44.8707 130.058C44.3045 129.314 43.6115 128.934 42.7917 128.909C41.9719 128.883 41.2705 129.221 40.6451 129.923C40.0535 130.607 39.7408 131.461 39.707 132.483C39.6732 133.472 39.9352 134.343 40.4761 135.103C41.0592 135.83 41.7522 136.202 42.5551 136.227C43.3579 136.253 44.0763 135.923 44.7017 135.239ZM44.0932 130.717C44.2707 130.911 44.3552 131.148 44.3467 131.427C44.3383 131.714 44.2369 131.943 44.0509 132.12C43.8396 132.314 43.5946 132.407 43.3157 132.399C43.0452 132.39 42.817 132.281 42.6227 132.078C42.4452 131.883 42.3607 131.647 42.3691 131.368C42.3776 131.089 42.479 130.852 42.6649 130.675C42.8762 130.464 43.1128 130.362 43.3833 130.371C43.6706 130.379 43.9073 130.497 44.1016 130.717H44.0932Z" fill="#1E1E1E"/>
<path d="M44.3462 131.427C44.3547 131.14 44.2702 130.903 44.0927 130.717C43.8983 130.489 43.6617 130.379 43.3743 130.371C43.1039 130.362 42.8673 130.464 42.656 130.675C42.4616 130.852 42.3686 131.089 42.3602 131.368C42.3517 131.647 42.4363 131.892 42.6137 132.078C42.8081 132.289 43.0363 132.39 43.3067 132.399C43.5941 132.407 43.8392 132.314 44.042 132.12C44.2364 131.943 44.3293 131.706 44.3378 131.427H44.3462Z" fill="white"/>
<path d="M56.6099 128.03L59.0438 126.965" stroke="#1E1E1E" stroke-width="1.35" stroke-linecap="round" stroke-linejoin="round"/>
<path d="M45.1496 105.008C44.465 105.524 43.865 106.217 43.3748 107.087C42.91 107.941 42.5973 108.82 42.4367 109.724C42.2086 111.043 42.3269 112.361 42.7832 113.688C43.2227 115.032 43.9326 116.113 44.896 116.95C46.3158 118.167 48.2089 118.97 50.5837 119.35C51.8176 119.545 52.9754 119.545 54.0572 119.359C55.4263 119.114 56.4066 118.581 57.0066 117.744C57.3531 117.322 57.5137 116.832 57.4799 116.274C57.4461 115.716 57.201 115.294 56.7446 114.989C56.4657 114.795 55.9925 114.609 55.3248 114.44C54.2093 114.203 53.4318 113.848 52.9923 113.384C52.519 112.885 52.3331 112.209 52.4261 111.381C52.519 110.696 52.7641 110.012 53.1698 109.319C53.5585 108.626 54.1501 108.059 54.9361 107.611C55.8911 107.02 56.5841 106.775 56.9982 106.876C56.5503 105.6 55.6713 104.645 54.3445 103.994C53.2205 103.437 51.9359 103.175 50.4907 103.217C48.4117 103.284 46.6285 103.884 45.1496 105.008Z" fill="#4FB35B"/>
<path d="M56.9823 106.851C56.5344 105.575 55.6555 104.62 54.3286 103.969C53.2046 103.411 51.92 103.149 50.4749 103.191C48.3959 103.259 46.6127 103.859 45.1337 104.983C44.4492 105.499 43.8491 106.192 43.359 107.062C42.8941 107.916 42.5814 108.795 42.4209 109.699C42.1927 111.017 42.311 112.336 42.7674 113.662C43.2068 115.006 43.9167 116.088 44.8802 116.925C46.3 118.142 48.193 118.944 50.5678 119.325C51.8017 119.519 52.9595 119.519 54.0413 119.333C55.4104 119.088 56.3907 118.556 56.9908 117.719C57.3373 117.296 57.4978 116.806 57.464 116.249C57.4302 115.691 57.1851 115.268 56.7288 114.964C56.4499 114.77 55.9766 114.584 55.309 114.415C54.1934 114.178 53.4159 113.823 52.9764 113.358C52.5032 112.86 52.3172 112.184 52.4102 111.355C52.5032 110.671 52.7482 109.986 53.1539 109.293C53.5427 108.6 54.1342 108.034 54.9202 107.586C55.8752 106.994 56.5682 106.749 56.9823 106.851Z" stroke="#1E1E1E" stroke-width="1.35" stroke-linecap="round" stroke-linejoin="round"/>
<path d="M33.5376 145.718C31.3234 145.54 29.388 146.166 27.7232 147.603C26.3287 148.921 25.5174 150.476 25.2892 152.276L25.2131 153.07C25.1878 153.73 25.2216 154.38 25.323 155.023C25.678 157.102 26.6752 158.724 28.3063 159.907C29.8529 161.201 31.6023 161.843 33.546 161.843C35.5321 161.877 37.2646 161.26 38.7351 159.984C40.3408 158.538 41.1944 156.713 41.2789 154.49C41.3381 152.234 40.6366 150.248 39.1492 148.524C37.6026 146.85 35.7265 145.912 33.5291 145.709L33.5376 145.718Z" fill="white"/>
<path d="M28.3147 159.908C29.8613 161.201 31.6107 161.843 33.5545 161.843C35.5405 161.877 37.273 161.26 38.7435 159.984C40.3493 158.539 41.2028 156.713 41.2874 154.49C41.3465 152.234 40.6451 150.248 39.1576 148.524C37.6111 146.851 35.7349 145.912 33.5376 145.71C31.3234 145.532 29.388 146.158 27.7232 147.594C26.3287 148.913 25.5174 150.468 25.2892 152.268L25.2131 153.062C25.1878 153.721 25.2216 154.372 25.323 155.014C25.678 157.093 26.6752 158.716 28.3063 159.899L28.3147 159.908Z" stroke="#1E1E1E" stroke-width="1.35" stroke-linecap="round" stroke-linejoin="round"/>
<path d="M77.1279 143.022L71.0092 143.554C69.6655 147.18 68.0344 150.4 66.1075 153.223C64.1976 156.045 62.7862 157.871 61.8904 158.691L62.8369 161.023C63.5046 162.874 63.944 164.522 64.1469 165.959C74.8714 160.44 81.2606 154.254 83.3142 147.4C82.486 143.639 80.4154 142.177 77.1195 143.014L77.1279 143.022Z" fill="white"/>
<path d="M66.1173 153.222C68.0357 150.4 69.6668 147.18 71.0106 143.554L77.1292 143.022C80.4252 142.185 82.4873 143.647 83.324 147.408C81.2788 154.254 74.8897 160.44 64.1566 165.967C63.9538 164.522 63.5143 162.874 62.8467 161.031L61.9001 158.699C62.796 157.879 64.2073 156.054 66.1258 153.231L66.1173 153.222Z" stroke="#1E1E1E" stroke-width="1.35" stroke-linecap="round" stroke-linejoin="round"/>
<path d="M71.619 139.05C69.633 140.148 68.2723 141.763 67.554 143.892C66.8694 146.022 67.0384 148.033 68.0441 149.935C68.9822 151.642 70.3851 152.825 72.2613 153.484C74.0952 154.152 75.9629 154.152 77.8475 153.484C79.5462 149.369 81.3717 147.349 83.3155 147.408C83.7549 145.625 83.5352 143.859 82.6478 142.126C81.583 140.199 79.9857 138.94 77.8644 138.348C75.7094 137.782 73.6304 138.01 71.619 139.05Z" fill="white"/>
<path d="M77.848 153.485C75.9634 154.152 74.0957 154.152 72.2618 153.485C70.3856 152.826 68.9827 151.642 68.0446 149.935C67.0305 148.034 66.8699 146.022 67.5545 143.893C68.2728 141.763 69.6335 140.149 71.6195 139.05C73.6309 138.011 75.7183 137.774 77.8649 138.349C79.9947 138.94 81.5919 140.208 82.6483 142.126C83.5357 143.859 83.7554 145.625 83.316 147.408" stroke="#1E1E1E" stroke-width="1.35" stroke-linecap="round" stroke-linejoin="round"/>
<path d="M14.9554 87.3763L15.7678 93.7822L6.00012 89.8882L6.00012 82.9967L14.9554 87.3856L14.9554 87.3763Z" fill="#A8DCDC"/>
<path d="M15.7769 93.7729L14.9644 87.367L6.00915 82.978L6.00915 89.8696L15.7769 93.7636L15.7769 93.7729Z" stroke="#5EC4B8" stroke-width="1.15" stroke-linecap="round" stroke-linejoin="round"/>
<path d="M166 76.955L163.983 78.0942L157.278 71.3894L159.874 69.914L166 76.955Z" fill="#50B95E"/>
<path d="M163.983 78.0942L166 76.955L159.874 69.9047L157.278 71.3801L163.983 78.0942Z" stroke="#20AA4A" stroke-width="1.15" stroke-linecap="round" stroke-linejoin="round"/>
<path d="M151.205 52.1722C150.718 53.7723 150.587 55.1293 150.8 56.2433C148.946 57.1851 147.275 58.5016 145.807 60.1929C145.24 58.4611 145.037 56.5572 145.209 54.4609C147.458 52.9824 149.453 52.2228 151.205 52.1823L151.205 52.1722Z" fill="#FBF06E"/>
<path d="M150.79 56.2329C150.578 55.1189 150.709 53.772 151.196 52.1618C149.444 52.2124 147.449 52.972 145.2 54.4404C145.028 56.5367 145.221 58.4406 145.798 60.1724C147.276 58.4811 148.937 57.1646 150.79 56.2228L150.79 56.2329Z" stroke="#FFCD34" stroke-width="1.15" stroke-linecap="round" stroke-linejoin="round"/>
<path d="M56.0504 60.9696L58.5156 65.9842L50.4381 72.689L47.2725 66.2456L56.0504 60.9789L56.0504 60.9696Z" fill="#FDDE68"/>
<path d="M58.5156 65.9842L56.0504 60.9696L47.2725 66.2364L50.4381 72.6797L58.5156 65.9749L58.5156 65.9842Z" stroke="#FCB12E" stroke-width="0.92" stroke-linecap="round" stroke-linejoin="round"/>
<path d="M144.715 29.35L144.715 33.5708L140.064 36.4189L140.064 31.2363L144.715 29.35Z" fill="#8ECB88"/>
<path d="M144.715 33.5615L144.715 29.3407L140.064 31.227L140.064 36.4097L144.715 33.5615Z" stroke="#50B95E" stroke-width="1.15" stroke-linecap="round" stroke-linejoin="round"/>
<path d="M35.9805 59.5404L33.9634 60.6797L27.2586 53.9749L29.8546 52.4995L35.9805 59.5498L35.9805 59.5404Z" fill="#50B95E"/>
<path d="M33.9727 60.6797L35.9897 59.5404L29.8639 52.4901L27.2679 53.9656L33.9727 60.6704L33.9727 60.6797Z" stroke="#20AA4A" stroke-width="1.15" stroke-linecap="round" stroke-linejoin="round"/>
<path d="M11.0423 56.8312L17 58.9697L15.095 63.4053L8.81978 61.2668L11.0516 56.8312L11.0423 56.8312Z" fill="#92D7EB"/>
<path d="M15.086 63.4053L16.991 58.9697L11.0332 56.8312L8.8014 61.2668L15.0766 63.4053L15.086 63.4053Z" stroke="#30C1D4" stroke-width="1.15" stroke-linecap="round" stroke-linejoin="round"/>
<path d="M103.767 26.2312L103.767 30.0598L99.5369 32.6465L99.5369 27.9401L103.767 26.2312Z" fill="#F26767"/>
<path d="M103.767 30.0505L103.767 26.2219L99.5369 27.9308L99.5369 32.6372L103.767 30.0505Z" stroke="#DF3E3E" stroke-width="1.15" stroke-linecap="round" stroke-linejoin="round"/>
<path d="M118.799 48.5398L119.444 42.5447L125.85 47.5313L125.85 54.2734L118.799 48.5305L118.799 48.5398Z" fill="#A8DCDC"/>
<path d="M125.841 54.2734L125.841 47.5312L119.435 42.5447L118.79 48.5398L125.841 54.2827L125.841 54.2734Z" stroke="#5EC4B8" stroke-width="1.15" stroke-linecap="round" stroke-linejoin="round"/>
<path d="M79.4964 36.9797L85.146 41.0044L78.3758 48.5029L73.0251 46.019L79.4964 36.9797Z" fill="#F285B2"/>
<path d="M78.3849 48.4937L85.155 40.9951L79.5055 36.9704L73.0341 46.0097L78.3849 48.4937Z" stroke="#EF4C8B" stroke-width="1.15" stroke-linecap="round" stroke-linejoin="round"/>
</g>
<defs>
<clipPath id="clip0_8447_19560">
<rect width="170" height="170" fill="white" transform="translate(0.5)"/>
</clipPath>
</defs>
</svg>
