<svg width="209" height="34" viewBox="0 0 209 34" fill="none" xmlns="http://www.w3.org/2000/svg">
<path d="M24.1719 5.19718C24.2961 2.55273 22.4054 0.317437 19.949 0.204507C17.4927 0.091576 15.4007 2.14378 15.2766 4.78822C15.1524 7.43267 17.0431 9.66796 19.4994 9.7809C21.9558 9.89383 24.0478 7.84163 24.1719 5.19718Z" fill="#7ECEF4"/>
<path d="M37.7983 17.2654C38.9726 17.4349 40.098 16.3455 40.3181 14.8203C40.5383 13.2951 39.7799 11.9394 38.6301 11.7458C37.4803 11.5521 36.3305 12.6657 36.1103 14.1909C35.8901 15.716 36.6485 17.0717 37.7983 17.2654Z" fill="#8FC31F"/>
<path d="M32.7578 15.6431C32.7578 15.6431 32.8066 15.7633 32.831 15.8114C32.831 15.7633 32.7822 15.6912 32.7578 15.6431Z" fill="url(#paint0_linear_8762_793)"/>
<path d="M32.9048 16.0547C32.9048 16.0547 32.9048 16.1268 32.9292 16.1509C32.9292 16.1268 32.9292 16.0787 32.9048 16.0547Z" fill="url(#paint1_linear_8762_793)"/>
<path d="M24.8568 18.064C24.8568 17.8219 24.9057 17.604 24.9547 17.4103C24.9547 17.4103 24.9547 17.4103 24.9547 17.4346C24.6122 19.1292 23.0709 21.2111 21.2361 21.5743C15.8785 22.6153 14.0926 17.1198 12.1355 13.4643C11.5728 12.4475 10.374 9.25195 6.82673 9.13091C2.86354 9.00987 -1.2709 12.738 0.3682 19.3713C1.61587 24.4067 8.02548 36.5838 20.8692 33.5093C23.8293 32.8072 26.4225 30.8463 28.4041 28.6675C25.9088 25.4961 24.5877 21.0175 24.8813 18.064H24.8568Z" fill="url(#paint2_linear_8762_793)"/>
<path d="M33.1981 17.5313C33.1981 17.2166 33.1249 16.9019 33.0518 16.5872C33.1249 16.9019 33.1737 17.265 33.1981 17.6523C33.1981 17.6039 33.1981 17.5797 33.1981 17.5313Z" fill="url(#paint3_linear_8762_793)"/>
<path d="M44.8208 19.2986C43.4264 18.5966 42.5456 19.7828 41.9096 21.2838C40.8332 23.8741 38.3623 25.254 36.6009 24.6246C35.3777 24.1888 34.6193 22.9784 34.0566 21.6711C33.3961 20.1217 33.3227 19.3228 33.2003 17.6766C33.2003 17.8703 33.2003 18.064 33.2003 18.2819C33.2003 19.4439 32.5154 21.8406 31.9282 23.2689C31.2921 24.794 30.0445 26.8276 28.3564 28.6675C30.0934 30.8705 32.393 32.4198 35.1085 32.4198C41.0778 32.4198 44.0135 26.7308 45.5058 22.7121C46.3376 20.4122 45.7749 19.7828 44.7964 19.2986H44.8208Z" fill="url(#paint4_linear_8762_793)"/>
<path d="M32.709 15.5706C32.709 15.5706 32.709 15.6187 32.7334 15.6427C32.7334 15.6427 32.7334 15.5946 32.709 15.5706Z" fill="url(#paint5_linear_8762_793)"/>
<path d="M32.8071 15.8126C32.8071 15.8126 32.8803 15.9821 32.9047 16.0547C32.8803 15.9579 32.8315 15.8852 32.8071 15.8126Z" fill="url(#paint6_linear_8762_793)"/>
<path d="M32.9541 16.1515C33.0029 16.2725 33.0273 16.4178 33.0761 16.563C33.0517 16.4178 33.0029 16.2967 32.9541 16.1515Z" fill="url(#paint7_linear_8762_793)"/>
<path d="M33.2497 18.2818C33.2497 18.0639 33.2497 17.8703 33.2497 17.6766C33.2497 17.6766 33.2497 17.6766 33.2497 17.6524C33.2252 17.265 33.1763 16.9019 33.1029 16.5872C33.0785 16.4419 33.0295 16.3209 32.9806 16.1756C32.9806 16.1514 32.9806 16.103 32.9561 16.0788C32.9317 15.982 32.8827 15.9093 32.8583 15.8367C32.8583 15.7883 32.8094 15.7157 32.7849 15.6672C32.7849 15.6672 32.7849 15.6188 32.7604 15.5946C32.6381 15.3283 32.4669 15.0862 32.2956 14.8441C32.2467 14.7957 32.1978 14.7231 32.1488 14.6747C31.5128 13.9968 30.7054 13.6337 29.8737 13.5127C29.6535 13.4884 29.4333 13.4642 29.1887 13.4642C29.1397 13.4642 29.0908 13.4642 29.0419 13.4642C29.0174 13.4642 28.9685 13.4642 28.944 13.4642C28.8462 13.4642 28.7238 13.4642 28.626 13.5127C28.626 13.5127 28.626 13.5127 28.6015 13.5127C28.5281 13.5127 28.4547 13.5369 28.3813 13.5611C27.7942 13.7063 27.1826 13.9968 26.6199 14.481C26.6199 14.481 26.6199 14.481 26.5955 14.481C26.5465 14.5294 26.4976 14.5778 26.4242 14.6505C26.3753 14.6989 26.3019 14.7715 26.253 14.8441C25.6903 15.4736 25.2499 16.3451 25.0298 17.4345C24.9808 17.6524 24.9564 17.8703 24.9319 18.0881C24.6628 21.0658 25.9594 25.5203 28.4547 28.6916C30.1428 26.8275 31.3904 24.8182 32.0265 23.293C32.6136 21.8647 33.2986 19.468 33.2986 18.306L33.2497 18.2818Z" fill="#009E3B"/>
<path d="M52.697 10.4137C52.5502 10.5106 52.4524 10.559 52.4034 10.559C52.3545 10.559 52.3056 10.5106 52.2322 10.4379L51.645 9.66326C51.645 9.66326 51.5227 9.46959 51.5472 9.39696C51.5716 9.32433 51.6206 9.27591 51.7184 9.20329C52.1588 8.91278 52.5257 8.54965 52.8193 8.16231C53.1374 7.77496 53.382 7.36341 53.5777 6.92765C53.7734 6.49189 53.9202 6.03192 54.0425 5.54775C54.1404 5.06357 54.1893 4.57939 54.1893 4.09521C54.1893 3.94996 54.1893 3.87733 54.2382 3.82891C54.2627 3.80471 54.3361 3.7805 54.4584 3.80471L55.5838 3.85312C55.5838 3.85312 55.7305 3.87733 55.7795 3.90154C55.8039 3.92575 55.8284 3.99838 55.8284 4.09521C55.8284 4.74885 55.7795 5.35407 55.6572 5.93509C55.755 6.22559 55.9018 6.49189 56.0975 6.75819C56.2932 7.02449 56.4889 7.26658 56.7091 7.50867C56.9293 7.75075 57.1495 7.94443 57.3696 8.1381C57.5898 8.33177 57.81 8.47702 58.0057 8.59807C58.128 8.67069 58.177 8.74332 58.177 8.79174C58.177 8.81595 58.177 8.86436 58.128 8.91278C58.1036 8.9612 58.0791 9.00962 58.0546 9.03383L57.5898 9.80851C57.5898 9.80851 57.4675 9.95376 57.4186 9.95376C57.3696 9.95376 57.2963 9.92955 57.1739 9.85693C57.0271 9.7843 56.8314 9.66326 56.6602 9.518C56.4645 9.37275 56.2688 9.2275 56.0975 9.05803C55.9018 8.88857 55.7305 8.6949 55.5348 8.47702C55.3636 8.25914 55.1923 8.04126 55.0456 7.79917C54.5073 8.86436 53.749 9.73588 52.7215 10.4137H52.697ZM57.0516 15.6429C56.5379 15.6429 56.0486 15.5702 55.6327 15.4492C55.2168 15.3281 54.8254 15.1587 54.4829 14.9166C54.1648 14.6987 53.9202 14.4324 53.7245 14.1419C53.5532 13.8514 53.4554 13.5125 53.4554 13.1493C53.4554 12.7862 53.5532 12.4957 53.7245 12.181C53.8957 11.8905 54.1648 11.6242 54.4829 11.4063C54.8009 11.1884 55.1923 11.019 55.6327 10.8737C56.073 10.7284 56.5379 10.68 57.0516 10.68C57.5654 10.68 58.0057 10.7527 58.4461 10.8737C58.8864 10.9947 59.2778 11.1642 59.6203 11.3821C59.9628 11.6 60.2075 11.8663 60.4032 12.1568C60.5989 12.4473 60.6968 12.7862 60.6968 13.1251C60.6968 13.4641 60.5989 13.8272 60.4032 14.1177C60.2075 14.4082 59.9384 14.6745 59.6203 14.8924C59.2778 15.1103 58.9109 15.2797 58.4461 15.425C58.0057 15.546 57.5409 15.6186 57.0516 15.6186V15.6429ZM57.0516 12.0841C56.4645 12.0841 55.9997 12.2052 55.6572 12.4231C55.3147 12.6409 55.1434 12.9072 55.1434 13.1978C55.1434 13.4883 55.3147 13.7303 55.6572 13.9482C55.9997 14.1661 56.4645 14.2629 57.0516 14.2629C57.3207 14.2629 57.5898 14.2387 57.8345 14.1661C58.0791 14.1177 58.2748 14.0209 58.4461 13.924C58.6173 13.8272 58.7641 13.7061 58.862 13.5851C58.9598 13.4641 59.0087 13.3188 59.0087 13.1735C59.0087 13.0283 58.9598 12.883 58.862 12.762C58.7641 12.6409 58.6173 12.5199 58.4461 12.3989C58.2748 12.302 58.0546 12.2052 57.8345 12.1568C57.5898 12.0841 57.3452 12.0599 57.0761 12.0599L57.0516 12.0841ZM62.0668 7.84759H60.5989V10.1474C60.5989 10.2927 60.5255 10.3653 60.3787 10.3653H59.18C59.0087 10.3653 58.9354 10.2927 58.9354 10.1232V3.73208C58.9354 3.73208 58.9354 3.58683 58.9843 3.53841C59.0087 3.5142 59.0821 3.48999 59.18 3.48999H60.3787C60.3787 3.48999 60.5255 3.48999 60.55 3.53841C60.5745 3.56262 60.5989 3.63524 60.5989 3.73208V6.39506H62.0668C62.0668 6.39506 62.1891 6.39506 62.238 6.41927C62.2869 6.41927 62.3114 6.5161 62.3114 6.61294V7.55708C62.3114 7.72655 62.238 7.79917 62.0668 7.79917V7.84759Z" fill="#171C61"/>
<path d="M63.6807 10.4382C63.6807 10.4382 63.4849 10.5351 63.4605 10.5109C63.4115 10.4866 63.3626 10.4382 63.3137 10.3656L62.751 9.63933C62.751 9.63933 62.6287 9.49408 62.6042 9.42145C62.5798 9.34882 62.6042 9.2762 62.7265 9.17936C63.1669 8.86465 63.5094 8.50151 63.803 8.11417C64.0965 7.72683 64.3167 7.31528 64.5124 6.87952C64.6837 6.44376 64.8305 6.008 64.9039 5.57224C64.9773 5.11227 65.0262 4.67651 65.0262 4.21654C65.0262 4.0955 65.0262 4.02287 65.0751 3.99866C65.124 3.97445 65.173 3.95024 65.2953 3.95024L66.3962 4.02287C66.3962 4.02287 66.543 4.04708 66.5919 4.0955C66.6163 4.1197 66.6408 4.19233 66.6408 4.28917C66.6408 4.6523 66.6408 4.99122 66.5919 5.33015C66.543 5.66907 66.494 5.98379 66.4206 6.2985C66.6408 6.8311 66.9099 7.26686 67.228 7.62999C67.546 7.99313 67.9129 8.30784 68.2799 8.59835C68.3778 8.67097 68.4022 8.71939 68.4022 8.76781C68.4022 8.81623 68.3778 8.86465 68.3288 8.93727L67.7906 9.78458C67.7906 9.78458 67.6683 9.92984 67.5949 9.92984C67.5215 9.92984 67.4726 9.90563 67.3747 9.833C67.2524 9.76038 67.1301 9.66354 66.9833 9.54249C66.8365 9.42145 66.6897 9.30041 66.543 9.13094C66.3962 8.98569 66.2494 8.81623 66.1026 8.64677C65.9558 8.4773 65.8335 8.28363 65.7112 8.11417C65.4665 8.59835 65.1485 9.0099 64.8305 9.39724C64.488 9.78458 64.121 10.0993 63.7051 10.3898L63.6807 10.4382ZM68.916 15.6189C68.3778 15.6189 67.8885 15.5705 67.3992 15.4495C66.9344 15.3284 66.494 15.1832 66.1515 14.9653C65.7846 14.7474 65.5155 14.5053 65.2953 14.1906C65.0751 13.8759 64.9772 13.537 64.9772 13.1496C64.9772 12.7623 65.0751 12.4476 65.2953 12.1328C65.491 11.8423 65.7846 11.576 66.1515 11.3582C66.5185 11.1403 66.9344 10.9708 67.3992 10.874C67.864 10.7529 68.3778 10.7045 68.916 10.7045C69.4053 10.7045 69.8945 10.7529 70.3838 10.874C70.8486 10.995 71.289 11.1403 71.656 11.3582C72.0229 11.576 72.3165 11.8181 72.5367 12.1328C72.7568 12.4234 72.8792 12.7623 72.8792 13.1496C72.8792 13.537 72.7568 13.8759 72.5367 14.1906C72.3165 14.5053 72.0229 14.7474 71.656 14.9653C71.289 15.1832 70.8731 15.3526 70.3838 15.4495C69.919 15.5705 69.4297 15.6189 68.916 15.6189ZM68.916 12.1086C68.5979 12.1086 68.3044 12.1328 68.0353 12.1813C67.7662 12.2297 67.5215 12.3023 67.3258 12.4234C67.1301 12.5202 66.9833 12.6412 66.861 12.7623C66.7387 12.8833 66.6897 13.0286 66.6897 13.1738C66.6897 13.3191 66.7387 13.4643 66.861 13.5854C66.9833 13.7064 67.1301 13.8275 67.3258 13.9001C67.5215 13.9727 67.7662 14.0696 68.0353 14.118C68.3044 14.1664 68.5979 14.1906 68.916 14.1906C69.1606 14.1906 69.4297 14.1906 69.6988 14.1422C69.9679 14.0938 70.2126 14.0453 70.4328 13.9485C70.6529 13.8517 70.8242 13.7548 70.971 13.6338C71.1178 13.5128 71.1911 13.3433 71.1911 13.1738C71.1911 13.0286 71.1178 12.8833 70.9954 12.7623C70.8731 12.6412 70.7019 12.5202 70.5061 12.4234C70.3104 12.3265 70.0658 12.2539 69.7967 12.1813C69.5276 12.1328 69.234 12.1086 68.9404 12.1086H68.916ZM72.5367 10.4382H71.3624C71.2156 10.4382 71.1422 10.3656 71.1422 10.1961V7.72683H70.286V9.833C70.286 9.833 70.286 10.0025 70.237 10.0267C70.2126 10.0509 70.1636 10.0751 70.0658 10.0751H68.9404C68.9404 10.0751 68.7937 10.0751 68.7447 10.0509C68.7203 10.0509 68.6958 9.95405 68.6958 9.833V3.92603C68.6958 3.92603 68.6958 3.78078 68.7447 3.73236C68.7692 3.70815 68.8426 3.68394 68.9404 3.68394H70.0658C70.2126 3.68394 70.286 3.75657 70.286 3.90182V6.2985H71.1422V3.70815C71.1422 3.70815 71.1422 3.5629 71.1911 3.51448C71.2156 3.49027 71.289 3.46606 71.3869 3.46606H72.5611C72.5611 3.46606 72.7079 3.46606 72.7324 3.51448C72.7568 3.53869 72.7813 3.61132 72.7813 3.70815V10.1719C72.7813 10.1719 72.7813 10.3172 72.7324 10.3656C72.7079 10.3898 72.6345 10.414 72.5611 10.414L72.5367 10.4382Z" fill="#171C61"/>
<path d="M80.5619 6.39518H74.4214C74.2502 6.39518 74.1768 6.29834 74.1768 6.12888V5.42682C74.1768 5.23315 74.2746 5.16053 74.4459 5.16053H80.5864C80.7576 5.16053 80.831 5.25736 80.831 5.42682V6.12888C80.831 6.29834 80.7576 6.39518 80.5864 6.39518H80.5619ZM77.5039 10.5349C77.1614 10.5349 76.8434 10.4865 76.5253 10.3896C76.2073 10.2928 75.9382 10.1476 75.718 9.97809C75.4978 9.80863 75.3021 9.59075 75.1553 9.37287C75.0085 9.13078 74.9351 8.88869 74.9351 8.59819C74.9351 8.30768 75.0085 8.06559 75.1553 7.84771C75.3021 7.62983 75.4734 7.41195 75.718 7.24249C75.9626 7.07303 76.2317 6.92777 76.5253 6.85515C76.8434 6.75831 77.1614 6.70989 77.5039 6.70989C77.8464 6.70989 78.1889 6.75831 78.5069 6.85515C78.8249 6.95198 79.094 7.07303 79.3387 7.24249C79.5833 7.41195 79.7546 7.60562 79.9014 7.84771C80.0481 8.0898 80.1215 8.33189 80.1215 8.59819C80.1215 8.86449 80.0481 9.13078 79.9014 9.37287C79.7546 9.61496 79.5833 9.80863 79.3387 9.97809C79.094 10.1476 78.8249 10.2928 78.5069 10.3896C78.1889 10.4865 77.8464 10.5349 77.5039 10.5349ZM79.0207 4.74897H76.036C76.036 4.74897 75.9137 4.74897 75.8648 4.70056C75.8159 4.65214 75.7914 4.60372 75.7914 4.48268V3.78062C75.7914 3.78062 75.8159 3.58695 75.8648 3.56274C75.9137 3.53853 75.9626 3.51432 76.036 3.51432H79.0207C79.1919 3.51432 79.2898 3.61116 79.2898 3.78062V4.45847C79.2898 4.45847 79.2898 4.62793 79.2408 4.67635C79.1919 4.72477 79.143 4.74897 79.0207 4.74897ZM82.568 15.4009H77.2103C77.0146 15.4009 76.8678 15.4009 76.7455 15.3525C76.6232 15.3283 76.5253 15.2798 76.4764 15.2314C76.403 15.1588 76.3541 15.0862 76.3296 14.9651C76.3051 14.8441 76.2807 14.6988 76.2807 14.5052V11.3096C76.2807 11.1401 76.3541 11.0675 76.5009 11.0675H77.6751C77.6751 11.0675 77.8219 11.0675 77.8708 11.1159C77.8953 11.1401 77.9198 11.2127 77.9198 11.3096V12.0358H81.8585V11.2127C81.8585 11.0433 81.9319 10.9707 82.0787 10.9707H83.2774C83.4242 10.9707 83.4976 11.0433 83.4976 11.2127V14.5536C83.4976 14.8683 83.4487 15.1104 83.3263 15.2314C83.204 15.3525 82.9594 15.4251 82.5924 15.4251L82.568 15.4009ZM77.5283 7.89613C77.1858 7.89613 76.9412 7.96876 76.77 8.13822C76.5987 8.28347 76.5009 8.45293 76.5009 8.59819C76.5009 8.76765 76.5987 8.93711 76.77 9.10657C76.9412 9.27604 77.2103 9.34866 77.5283 9.34866C77.8464 9.34866 78.14 9.27604 78.3112 9.10657C78.4824 8.93711 78.5803 8.79186 78.5803 8.59819C78.5803 8.42873 78.4824 8.28347 78.3112 8.13822C78.14 7.99297 77.8708 7.89613 77.5283 7.89613ZM81.8585 13.2947H77.9198V13.9968C77.9198 13.9968 77.9687 14.1178 78.0421 14.1178H81.7606C81.7606 14.1178 81.8585 14.0694 81.8585 13.9968V13.2947ZM80.7331 9.90547C80.7331 9.90547 80.5864 9.90547 80.5619 9.85705C80.513 9.83284 80.513 9.76021 80.513 9.66338V8.84028C80.513 8.84028 80.513 8.64661 80.5864 8.6224C80.6353 8.6224 80.6842 8.59819 80.7576 8.59819H81.883V7.96876H80.7576C80.5864 7.96876 80.513 7.89613 80.513 7.72667V6.90357C80.513 6.90357 80.513 6.7341 80.5864 6.70989C80.6353 6.68569 80.6842 6.66148 80.7576 6.66148H81.883V3.7322C81.883 3.7322 81.883 3.56274 81.9564 3.53853C82.0053 3.51432 82.0542 3.49011 82.1276 3.49011H83.3263C83.3263 3.49011 83.4976 3.49011 83.4976 3.56274C83.4976 3.61116 83.4976 3.65957 83.4976 3.7322V10.1233C83.4976 10.1233 83.4976 10.2686 83.4487 10.317C83.4242 10.3412 83.3508 10.3654 83.2774 10.3654H82.0787C82.0787 10.3654 81.9319 10.3654 81.9074 10.317C81.883 10.2928 81.8585 10.2202 81.8585 10.1233V9.88126H80.7331V9.90547Z" fill="#171C61"/>
<path d="M91.3499 10.1476C90.6405 10.2928 89.9066 10.4139 89.1726 10.4623C88.4387 10.5107 87.6559 10.5349 86.8241 10.4865C86.4816 10.4865 86.2614 10.3896 86.1391 10.2686C86.0168 10.1476 85.9434 9.92968 85.9434 9.61496V7.2667C85.9434 7.0004 85.9923 6.80673 86.0901 6.70989C86.188 6.61306 86.3837 6.56464 86.6284 6.56464H88.8301C88.8301 6.56464 88.9525 6.56464 88.9769 6.54043C88.9769 6.54043 89.0014 6.4678 89.0014 6.39518V5.59629C89.0014 5.59629 89.0014 5.47524 88.9769 5.45103C88.9769 5.45103 88.9035 5.42682 88.8301 5.42682H86.2369C86.0901 5.42682 85.9923 5.3542 85.9923 5.18473V4.24059C85.9923 4.09533 86.0657 4.02271 86.2369 4.02271H89.8332C90.1757 4.02271 90.3958 4.09533 90.4937 4.21638C90.5915 4.33742 90.6405 4.5553 90.6405 4.89423V7.02461C90.6405 7.38774 90.5671 7.60562 90.4448 7.72667C90.3224 7.84771 90.1267 7.89613 89.8332 7.89613H87.7292C87.7292 7.89613 87.5825 7.94455 87.5825 8.06559V8.98553C87.5825 8.98553 87.6314 9.13078 87.7537 9.15499C88.2919 9.15499 88.8546 9.15499 89.4173 9.10657C89.9799 9.05816 90.5671 8.98553 91.1787 8.86448C91.2521 8.86448 91.301 8.86448 91.3255 8.86448C91.3499 8.86448 91.3744 8.93711 91.3744 9.00974L91.4967 9.90547C91.4967 9.90547 91.4967 10.0507 91.4967 10.0991C91.4723 10.1233 91.4233 10.1476 91.3255 10.1718L91.3499 10.1476ZM94.4569 15.5219H93.2826C93.1114 15.5219 93.038 15.4493 93.038 15.2798V12.98C93.038 12.859 92.989 12.7863 92.8667 12.7863H87.558C87.558 12.7863 87.4357 12.7863 87.3867 12.7379C87.3378 12.7137 87.3134 12.6653 87.3134 12.5684V11.6001C87.3134 11.6001 87.3134 11.4064 87.3867 11.3822C87.4357 11.3822 87.4846 11.358 87.558 11.358H93.8453C94.0165 11.358 94.1633 11.358 94.2856 11.4064C94.408 11.4306 94.4814 11.479 94.5303 11.5517C94.5792 11.6243 94.6281 11.7211 94.6526 11.8422C94.6771 11.9632 94.6771 12.1085 94.6771 12.2779V15.2556C94.6771 15.4251 94.6037 15.4977 94.4569 15.4977V15.5219ZM94.4569 10.6802H93.2581C93.2581 10.6802 93.1114 10.6802 93.0869 10.6317C93.0624 10.5833 93.038 10.5349 93.038 10.4381V8.54977H91.5457C91.5457 8.54977 91.3989 8.54977 91.3744 8.50135C91.3255 8.47714 91.3255 8.40452 91.3255 8.30768V7.38774C91.3255 7.38774 91.3255 7.24249 91.3744 7.19407C91.4233 7.14565 91.4723 7.14565 91.5457 7.14565H93.038V6.24993H91.5457C91.5457 6.24993 91.3989 6.24993 91.3744 6.20151C91.3255 6.1773 91.3255 6.10467 91.3255 6.00784V5.11211C91.3255 5.11211 91.3255 4.94265 91.3744 4.91844C91.4233 4.89423 91.4723 4.87002 91.5457 4.87002H93.038V3.7322C93.038 3.7322 93.038 3.56274 93.1114 3.53853C93.1603 3.51432 93.2092 3.49011 93.2826 3.49011H94.4814C94.4814 3.49011 94.6526 3.49011 94.6526 3.56274C94.6526 3.61116 94.6526 3.65957 94.6526 3.7322V10.4139C94.6526 10.4139 94.6526 10.5591 94.6037 10.6075C94.5792 10.6559 94.5058 10.6559 94.4324 10.6559L94.4569 10.6802Z" fill="#171C61"/>
<path d="M97.784 12.9557C97.784 12.9557 97.5883 13.0525 97.5394 13.0525C97.4904 13.0525 97.417 13.0041 97.3436 12.9072L96.781 12.0357C96.781 12.0357 96.7076 11.8663 96.732 11.7936C96.732 11.721 96.8054 11.6484 96.8788 11.6242C98.0776 10.9221 99.0317 10.099 99.7167 9.15487C100.402 8.23493 100.818 7.21816 100.989 6.10455C100.989 5.93509 100.94 5.83825 100.793 5.83825H97.466C97.466 5.83825 97.2947 5.83825 97.2703 5.78983C97.2703 5.74142 97.2458 5.693 97.2458 5.59616V4.65202C97.2458 4.65202 97.2458 4.48255 97.2947 4.45835C97.3192 4.43414 97.3926 4.40993 97.466 4.40993H101.796C102.188 4.40993 102.457 4.50676 102.579 4.67623C102.701 4.84569 102.775 5.11199 102.75 5.47512C102.701 6.22559 102.555 6.95186 102.31 7.67813C102.065 8.38018 101.723 9.05803 101.307 9.68746C100.891 10.3169 100.377 10.9221 99.7901 11.4547C99.2029 12.0115 98.5424 12.4957 97.784 12.9072V12.9557ZM105.686 15.546H104.487C104.487 15.546 104.34 15.546 104.316 15.4976C104.291 15.4734 104.267 15.4008 104.267 15.3039V3.73208C104.267 3.73208 104.267 3.58683 104.316 3.53841C104.34 3.5142 104.414 3.48999 104.487 3.48999H105.686C105.686 3.48999 105.833 3.48999 105.857 3.53841C105.882 3.56262 105.906 3.63524 105.906 3.73208V15.3039C105.906 15.3039 105.906 15.4734 105.857 15.4976C105.833 15.5218 105.759 15.546 105.686 15.546Z" fill="#171C61"/>
<path d="M117.917 9.49431H107.691C107.691 9.49431 107.52 9.49431 107.496 9.42168C107.471 9.34905 107.471 9.32484 107.471 9.22801V8.33228C107.471 8.33228 107.471 8.16282 107.52 8.1144C107.545 8.06598 107.618 8.06598 107.716 8.06598H114.835C114.859 7.87231 114.908 7.65443 114.933 7.41234C114.957 7.14605 114.982 6.90396 115.006 6.66187C115.006 6.41978 115.031 6.2019 115.055 6.00823C115.055 5.81456 115.055 5.69351 115.055 5.59668C115.055 5.47563 115.055 5.3788 115.006 5.33038C114.982 5.28196 114.884 5.25775 114.737 5.25775H109.355C109.355 5.25775 109.208 5.25775 109.159 5.23354C109.11 5.23354 109.086 5.13671 109.086 5.03987V4.07152C109.086 4.07152 109.086 3.92626 109.159 3.90206C109.208 3.87785 109.257 3.85364 109.355 3.85364H115.862C116.156 3.85364 116.352 3.92626 116.498 4.04731C116.645 4.16835 116.694 4.41044 116.694 4.72516C116.694 5.16092 116.694 5.69351 116.645 6.29873C116.596 6.90396 116.523 7.50918 116.425 8.09019H117.942C117.942 8.09019 118.064 8.09019 118.113 8.13861C118.162 8.18703 118.186 8.23545 118.186 8.35649V9.25222C118.186 9.42168 118.113 9.51852 117.942 9.51852L117.917 9.49431ZM115.667 15.2076H110.015C109.82 15.2076 109.649 15.2076 109.551 15.1592C109.428 15.135 109.33 15.0866 109.282 15.0139C109.208 14.9413 109.159 14.8445 109.135 14.7234C109.11 14.6024 109.11 14.4571 109.11 14.2635V11.5521C109.11 11.1889 109.184 10.9468 109.306 10.8016C109.428 10.6563 109.649 10.6079 109.991 10.6079H115.667C115.862 10.6079 116.034 10.6079 116.132 10.6563C116.254 10.6805 116.352 10.729 116.401 10.8016C116.45 10.8742 116.523 10.971 116.547 11.0921C116.547 11.2131 116.572 11.3826 116.572 11.5521V14.2635C116.572 14.4571 116.572 14.6024 116.523 14.7234C116.498 14.8445 116.45 14.9413 116.376 14.9897C116.303 15.0624 116.229 15.1108 116.107 15.135C115.985 15.1592 115.862 15.1834 115.691 15.1834L115.667 15.2076ZM114.884 12.2299C114.884 12.2299 114.835 12.0847 114.762 12.0847H110.896C110.896 12.0847 110.749 12.1331 110.749 12.2541V13.6582C110.749 13.6582 110.798 13.8035 110.896 13.8035H114.762C114.762 13.8035 114.859 13.8035 114.884 13.8035C114.884 13.8035 114.908 13.7309 114.908 13.6582V12.2541L114.884 12.2299Z" fill="#171C61"/>
<path d="M61.3079 24.5036C61.3079 24.5036 61.2345 24.552 61.2101 24.552H52.4764C52.4764 24.552 52.403 24.552 52.3785 24.5036C52.3541 24.4793 52.3296 24.4309 52.3296 24.4067V23.7289C52.3296 23.7289 52.3785 23.5594 52.4764 23.5594H56.2683V22.4458C56.2683 22.4458 56.3172 22.3005 56.4151 22.3005H57.2958C57.2958 22.3005 57.4426 22.349 57.4426 22.4458V23.5594H61.1856C61.1856 23.5594 61.259 23.5594 61.3079 23.6078C61.3569 23.632 61.3813 23.6805 61.3813 23.7289V24.4067C61.3813 24.4067 61.3813 24.4793 61.3324 24.5036H61.3079ZM53.4794 22.6637C53.4794 22.6637 53.2837 22.6637 53.2592 22.5426L53.0635 21.9374C53.0635 21.9374 53.0635 21.8406 53.088 21.8164C53.1124 21.768 53.1614 21.7437 53.1858 21.7437C53.5283 21.6711 53.8953 21.5985 54.3112 21.4774C54.7271 21.3564 55.094 21.2354 55.4855 21.1143C55.8769 20.9691 56.2439 20.848 56.6108 20.6786C56.9778 20.5333 57.2958 20.3638 57.5894 20.2186C57.6872 20.1702 57.7362 20.1217 57.7606 20.0733C57.7851 20.0249 57.7362 20.0007 57.5894 20.0007H53.9687C53.9687 20.0007 53.8464 19.9523 53.8464 19.8554V19.1534C53.8464 19.1534 53.8953 19.0323 53.9687 19.0323H58.7392C59.0083 19.0323 59.204 19.0808 59.3753 19.1534C59.5465 19.2502 59.6199 19.3713 59.6199 19.5407C59.6199 19.686 59.571 19.8312 59.4731 19.9523C59.3753 20.0733 59.3019 20.1702 59.2529 20.2428C59.1062 20.388 58.9349 20.5333 58.7392 20.6543C58.5435 20.7754 58.3233 20.9448 58.0787 21.0659C58.2499 21.1143 58.4456 21.1627 58.6658 21.2111C58.886 21.2596 59.1062 21.308 59.3263 21.3564C59.5465 21.4048 59.7667 21.4532 59.9869 21.5017C60.207 21.5501 60.4028 21.5743 60.5985 21.5985C60.6474 21.5985 60.6963 21.6227 60.7208 21.6711C60.7453 21.6953 60.7453 21.7437 60.7208 21.8164L60.5251 22.3974C60.5251 22.3974 60.4762 22.47 60.4517 22.4942C60.4272 22.5184 60.3538 22.5426 60.3049 22.5184C60.0603 22.47 59.7667 22.4216 59.4731 22.3732C59.1796 22.3248 58.886 22.2521 58.568 22.1553C58.2499 22.0827 57.9563 21.9858 57.6383 21.9132C57.3447 21.8406 57.0512 21.7437 56.7821 21.6711C56.2928 21.8648 55.779 22.0585 55.2164 22.2279C54.6537 22.3974 54.0665 22.5426 53.4549 22.6637H53.4794ZM60.0113 27.0697C60.0113 27.336 59.9379 27.5781 59.7912 27.8202C59.6444 28.0623 59.4487 28.2317 59.1796 28.4012C58.9104 28.5706 58.568 28.6917 58.1765 28.7885C57.7851 28.8854 57.3447 28.9096 56.831 28.9096C56.3172 28.9096 55.8769 28.8612 55.4855 28.7885C55.094 28.6917 54.7515 28.5706 54.4824 28.4012C54.2133 28.2317 54.0176 28.0381 53.8708 27.8202C53.724 27.6023 53.6507 27.336 53.6507 27.0697C53.6507 26.8034 53.724 26.5613 53.8708 26.3434C54.0176 26.1256 54.2133 25.9319 54.4824 25.7624C54.7515 25.593 55.094 25.4719 55.4855 25.3751C55.8769 25.2782 56.3172 25.2298 56.831 25.2298C57.3447 25.2298 57.7851 25.2782 58.1765 25.3751C58.568 25.4719 58.9104 25.593 59.1796 25.7624C59.4487 25.9319 59.6444 26.1256 59.7912 26.3434C59.9379 26.5613 60.0113 26.8034 60.0113 27.0697ZM56.831 26.174C56.1705 26.174 55.6567 26.2708 55.3142 26.4645C54.9717 26.6581 54.8005 26.8518 54.8005 27.0939C54.8005 27.336 54.9717 27.5297 55.3142 27.7233C55.6567 27.917 56.1705 27.9896 56.831 27.9896C57.4915 27.9896 58.0053 27.8928 58.3478 27.7233C58.6903 27.5539 58.8615 27.336 58.8615 27.0939C58.8615 26.8518 58.6903 26.6581 58.3478 26.4645C58.0053 26.2708 57.4915 26.174 56.831 26.174Z" fill="#171C61"/>
<path d="M67.5695 20.9449C67.5695 20.9449 67.4961 20.9933 67.4716 20.9933H62.1874C62.1874 20.9933 62.114 20.9933 62.065 20.9449C62.0406 20.9207 62.0161 20.8723 62.0161 20.8239V20.2671C62.0161 20.2671 62.0161 20.1944 62.065 20.146C62.0895 20.1218 62.1384 20.0976 62.1874 20.0976H67.4716C67.4716 20.0976 67.545 20.0976 67.5695 20.146C67.5939 20.1944 67.6184 20.2186 67.6184 20.2671V20.8239C67.6184 20.8239 67.6184 20.8965 67.5695 20.9449ZM64.9029 21.308C65.1965 21.308 65.49 21.3565 65.7591 21.4291C66.0282 21.5017 66.2484 21.6228 66.4441 21.768C66.6398 21.9133 66.7866 22.0827 66.9089 22.2764C67.0313 22.4701 67.0802 22.7122 67.0802 22.9542C67.0802 23.1963 67.0313 23.4384 66.9089 23.6321C66.7866 23.8258 66.6398 24.0194 66.4441 24.1647C66.2484 24.3099 66.0282 24.431 65.7591 24.5036C65.49 24.5762 65.2209 24.6247 64.9029 24.6247C64.5848 24.6247 64.3157 24.5762 64.0711 24.5036C63.802 24.431 63.5818 24.3099 63.3861 24.1647C63.1904 24.0194 63.0436 23.85 62.9213 23.6321C62.799 23.4384 62.75 23.1963 62.75 22.9542C62.75 22.7122 62.799 22.4701 62.9213 22.2764C63.0436 22.0827 63.1904 21.8891 63.3861 21.768C63.5818 21.647 63.802 21.5017 64.0711 21.4291C64.3402 21.3565 64.6093 21.308 64.9029 21.308ZM66.2729 19.6618C66.2729 19.6618 66.1995 19.7103 66.1506 19.7103H63.5574C63.5574 19.7103 63.5084 19.7103 63.4595 19.6618C63.4106 19.6134 63.4106 19.5892 63.4106 19.5408V18.984C63.4106 18.984 63.4106 18.8872 63.4595 18.8629C63.5084 18.8387 63.5329 18.8145 63.5574 18.8145H66.1506C66.1506 18.8145 66.2484 18.8145 66.2729 18.8629C66.2973 18.8872 66.3218 18.9356 66.3218 18.984V19.5166C66.3218 19.5166 66.3218 19.5892 66.2729 19.6376V19.6618ZM69.282 28.5223C69.282 28.5223 68.9639 28.6918 68.6948 28.6918H64.3157C64.0222 28.6918 63.802 28.6433 63.7041 28.5223C63.6063 28.4255 63.5329 28.2318 63.5329 27.9413V25.2541C63.5329 25.2541 63.5329 25.1815 63.5818 25.1573C63.6063 25.133 63.6307 25.1088 63.6797 25.1088H64.5604C64.5604 25.1088 64.6338 25.1088 64.6582 25.1573C64.6827 25.1815 64.7072 25.2057 64.7072 25.2541V26.053H68.3034V25.2057C68.3034 25.2057 68.3034 25.133 68.3523 25.1088C68.3768 25.0846 68.4013 25.0604 68.4502 25.0604H69.3554C69.3554 25.0604 69.4287 25.0604 69.4532 25.1088C69.4777 25.133 69.5021 25.1815 69.5021 25.2057V27.9655C69.5021 28.2076 69.4532 28.377 69.3309 28.4981L69.282 28.5223ZM64.9029 22.2038C64.5848 22.2038 64.3402 22.2764 64.12 22.4217C63.9243 22.5669 63.802 22.7606 63.802 22.9785C63.802 23.1963 63.8998 23.39 64.12 23.5353C64.3157 23.6805 64.5848 23.7531 64.9029 23.7531C65.2209 23.7531 65.49 23.6805 65.6857 23.5353C65.8814 23.39 65.9793 23.1963 65.9793 22.9785C65.9793 22.7606 65.8814 22.5669 65.6857 22.4217C65.49 22.2764 65.2209 22.2038 64.9029 22.2038ZM68.2789 27.0213H64.6827V27.5781C64.6827 27.5781 64.7561 27.7476 64.8784 27.7476H68.1077C68.23 27.7476 68.3034 27.6992 68.3034 27.5781V27.0213H68.2789ZM70.8966 22.3006C70.8966 22.3006 70.8232 22.349 70.7987 22.349H69.4532V24.4552C69.4532 24.4552 69.4532 24.5278 69.4043 24.552C69.3798 24.5762 69.3554 24.6005 69.3064 24.6005H68.4013C68.4013 24.6005 68.3279 24.6005 68.3034 24.552C68.2789 24.5278 68.2545 24.4794 68.2545 24.431V18.9114C68.2545 18.9114 68.3034 18.7661 68.3768 18.7661H69.282C69.282 18.7661 69.4043 18.8145 69.4043 18.9114V21.3323H70.7498C70.7498 21.3323 70.8232 21.3323 70.8477 21.3807C70.8721 21.4291 70.8966 21.4291 70.8966 21.4775V22.228C70.8966 22.228 70.8966 22.3006 70.8477 22.3248L70.8966 22.3006Z" fill="#171C61"/>
<path d="M71.487 23.8255C71.7806 23.8255 72.0986 23.8255 72.3922 23.8255H73.3463V21.8162C73.3463 21.8162 73.3952 21.6467 73.4931 21.6467H74.3493C74.3493 21.6467 74.4961 21.6951 74.4961 21.8162V23.8013C74.9609 23.8013 75.4257 23.7529 75.8906 23.7287C76.3554 23.7044 76.7713 23.656 77.1872 23.6076C77.2116 23.6076 77.2606 23.6076 77.285 23.6076C77.3339 23.6076 77.3339 23.656 77.3584 23.7044L77.4073 24.3581C77.4073 24.3581 77.4073 24.4549 77.3829 24.4791C77.3584 24.5033 77.3339 24.5275 77.285 24.5518C76.8202 24.6002 76.3309 24.6486 75.8416 24.697C75.3524 24.7454 74.8141 24.7696 74.3249 24.7938C73.8111 24.7938 73.3218 24.8181 72.857 24.8423C72.3677 24.8423 71.9274 24.8423 71.5359 24.8423C71.487 24.8423 71.4625 24.8423 71.4381 24.7938C71.4136 24.7696 71.3892 24.7212 71.3892 24.6728V23.9949C71.3892 23.9949 71.4381 23.8255 71.5359 23.8255H71.487ZM76.7957 20.1215C76.7957 20.3152 76.7957 20.5331 76.7957 20.7752C76.7957 20.993 76.7713 21.2351 76.7468 21.453C76.7468 21.6709 76.6979 21.8888 76.6734 22.1067C76.649 22.3245 76.6 22.494 76.5756 22.6635C76.5756 22.7119 76.5266 22.7603 76.5022 22.8087C76.4532 22.8571 76.4288 22.8571 76.3798 22.8571L75.597 22.7845C75.597 22.7845 75.4747 22.7119 75.4991 22.5908C75.5236 22.4456 75.5481 22.3003 75.5725 22.1067C75.597 21.913 75.6215 21.7193 75.6459 21.5499C75.6459 21.3562 75.6704 21.1867 75.6949 21.0173C75.7193 20.8478 75.6949 20.7025 75.6949 20.6057C75.6949 20.5089 75.6948 20.4362 75.6215 20.412C75.5725 20.3878 75.4991 20.3636 75.4013 20.3636H72.2454C72.2454 20.3636 72.172 20.3636 72.1475 20.3152C72.1231 20.291 72.0986 20.2668 72.0986 20.2184V19.4679C72.0986 19.4679 72.0986 19.3953 72.1475 19.3711C72.1965 19.3468 72.2209 19.3468 72.2454 19.3468H76.1352C76.3554 19.3468 76.5266 19.3953 76.6245 19.5163C76.7468 19.6374 76.7957 19.831 76.7957 20.0973V20.1215ZM79.2666 28.5946C79.2666 28.5946 79.1932 28.6188 79.1688 28.6188H73.7377C73.4441 28.6188 73.224 28.5704 73.1261 28.4494C73.0283 28.3283 72.9549 28.1347 72.9549 27.8684V25.8348C72.9549 25.8348 72.9549 25.7622 73.0038 25.738C73.0527 25.7138 73.0772 25.6896 73.1016 25.6896H73.9579C73.9579 25.6896 74.0313 25.6896 74.0802 25.738C74.1291 25.7864 74.1291 25.8106 74.1291 25.8348V27.4326C74.1291 27.4326 74.1291 27.5537 74.1781 27.5779C74.2025 27.5779 74.2515 27.6021 74.3249 27.6021H79.1688C79.1688 27.6021 79.2421 27.6021 79.2666 27.6505C79.2911 27.6747 79.3155 27.6989 79.3155 27.7473V28.522C79.3155 28.522 79.3155 28.5946 79.2666 28.6188V28.5946ZM80.3675 23.3171C80.3675 23.3171 80.2941 23.3655 80.2696 23.3655H78.9486V26.0043C78.9486 26.0043 78.8997 26.1495 78.8263 26.1495H77.9211C77.9211 26.1495 77.7988 26.1011 77.7988 26.0043V18.9353C77.7988 18.9353 77.8477 18.79 77.9211 18.79H78.8263C78.8263 18.79 78.9486 18.8385 78.9486 18.9353V22.3487H80.2696C80.2696 22.3487 80.343 22.3487 80.3675 22.3972C80.392 22.4214 80.4164 22.4456 80.4164 22.494V23.2445C80.4164 23.2445 80.4164 23.3171 80.3675 23.3413V23.3171Z" fill="#171C61"/>
<path d="M86.8499 25.9804C86.8499 25.9804 86.752 26.0288 86.7031 26.053C86.5074 26.1014 86.2872 26.1498 86.0426 26.174C85.7979 26.2224 85.5288 26.2467 85.2352 26.2709C84.9417 26.2951 84.6726 26.3193 84.379 26.3435C84.0854 26.3435 83.8163 26.3677 83.5472 26.3919C83.2781 26.4161 83.0335 26.3919 82.8133 26.3919C82.5931 26.3919 82.3974 26.3919 82.2506 26.3919C81.9571 26.3677 81.7613 26.2951 81.639 26.1982C81.5167 26.1014 81.4678 25.9077 81.4678 25.6414V23.0995C81.4678 22.8332 81.5167 22.6637 81.639 22.5427C81.7613 22.4217 81.9326 22.3732 82.1772 22.3732H84.5747C84.5747 22.3732 84.6726 22.3732 84.697 22.349C84.697 22.349 84.7215 22.2764 84.7215 22.228V20.7512C84.7215 20.7512 84.7215 20.6544 84.7215 20.6302C84.7215 20.606 84.6726 20.606 84.5992 20.606H81.7124C81.7124 20.606 81.639 20.606 81.6146 20.5576C81.5901 20.5334 81.5656 20.5092 81.5656 20.4607V19.7345C81.5656 19.7345 81.5656 19.6618 81.6146 19.6376C81.639 19.6134 81.6879 19.5892 81.7124 19.5892H85.2108C85.5044 19.5892 85.6756 19.6376 85.7735 19.7587C85.8469 19.8797 85.8958 20.0492 85.8958 20.3155V22.6637C85.8958 22.93 85.8469 23.1237 85.749 23.2205C85.6511 23.3174 85.4554 23.3658 85.2108 23.3658H82.8378C82.8378 23.3658 82.691 23.4142 82.691 23.5111V25.1815C82.691 25.1815 82.691 25.3025 82.7399 25.3267C82.7644 25.3509 82.8133 25.3751 82.8867 25.3751C83.1803 25.3751 83.4983 25.3751 83.8163 25.3751C84.1344 25.3751 84.4769 25.3509 84.7949 25.3267C85.1129 25.3025 85.431 25.2783 85.749 25.2299C86.067 25.1815 86.3606 25.133 86.6297 25.0846C86.6786 25.0846 86.7276 25.0846 86.7765 25.0846C86.8254 25.1088 86.8499 25.1573 86.8499 25.2057L86.9477 25.8351C86.9477 25.8351 86.9477 25.9319 86.8988 25.9562L86.8499 25.9804ZM88.7092 28.716C88.7092 28.716 88.6602 28.8612 88.5868 28.8612H87.6817C87.6817 28.8612 87.5593 28.8128 87.5593 28.716V18.9114C87.5593 18.9114 87.6083 18.7661 87.6817 18.7661H88.5868C88.5868 18.7661 88.7092 18.8145 88.7092 18.9114V28.716Z" fill="#171C61"/>
<path d="M91.1994 26.513C91.1994 26.513 90.9547 26.6098 90.8569 26.513L90.392 26.053C90.392 26.053 90.2942 25.8351 90.4165 25.7141C90.8324 25.3025 91.2238 24.8425 91.5174 24.3342C91.8354 23.8258 92.0801 23.269 92.2758 22.688C92.3492 22.4217 92.4226 22.1796 92.4715 21.9375C92.5204 21.6954 92.5693 21.4291 92.6183 21.1628C92.6672 20.8965 92.6917 20.6302 92.6917 20.3639C92.6917 20.0734 92.6917 19.7829 92.6917 19.4682C92.6917 19.4198 92.6917 19.3955 92.7406 19.3471C92.7895 19.2987 92.814 19.2987 92.8384 19.2987H93.7436C93.7436 19.2987 93.817 19.3471 93.8415 19.3713C93.8659 19.3955 93.8904 19.444 93.8904 19.4924C93.8904 19.9281 93.8904 20.3155 93.8415 20.6786C93.817 21.0417 93.7681 21.4049 93.7192 21.7438C93.7681 22.0827 93.8904 22.4217 94.0372 22.7606C94.184 23.0995 94.3552 23.4142 94.5509 23.7289C94.7467 24.0437 94.9424 24.3099 95.1625 24.5762C95.3827 24.8425 95.6029 25.0604 95.8231 25.2541C95.9209 25.3509 95.9454 25.4478 95.8231 25.593L95.4072 26.1256C95.4072 26.1256 95.3338 26.1982 95.2604 26.2224C95.187 26.2467 95.1381 26.2225 95.0892 26.1498C94.9179 26.0046 94.7467 25.8593 94.5754 25.6414C94.4042 25.4478 94.2084 25.2299 94.0372 24.9878C93.8659 24.7457 93.7192 24.5036 93.5724 24.2615C93.4256 24.0194 93.3277 23.7774 93.2299 23.5595C93.1076 23.85 92.9608 24.1405 92.814 24.431C92.6672 24.7215 92.496 24.9878 92.3247 25.2299C92.1535 25.472 91.9577 25.7141 91.7865 25.9319C91.5908 26.1498 91.4195 26.3435 91.2238 26.4887L91.1994 26.513ZM98.1472 28.716C98.1472 28.716 98.0982 28.8612 98.0004 28.8612H97.1197C97.1197 28.8612 97.0463 28.8612 97.0218 28.8128C96.9974 28.7886 96.9729 28.7644 96.9729 28.716V18.9114C96.9729 18.9114 96.9729 18.8387 97.0218 18.8145C97.0707 18.7903 97.0952 18.7661 97.1197 18.7661H98.0004C98.0004 18.7661 98.1472 18.8145 98.1472 18.9114V28.716Z" fill="#171C61"/>
<path d="M108.473 26.1014C108.473 26.1014 108.522 26.174 108.522 26.2224V26.9245C108.522 26.9245 108.522 26.9971 108.473 27.0213C108.449 27.0455 108.4 27.0697 108.376 27.0697H99.6419C99.6419 27.0697 99.5685 27.0697 99.544 27.0213C99.5196 26.9971 99.4951 26.9487 99.4951 26.9245V26.2224C99.4951 26.2224 99.544 26.0529 99.6419 26.0529H108.376C108.376 26.0529 108.449 26.0529 108.473 26.1014ZM100.718 24.2615C100.718 24.2615 100.645 24.2615 100.596 24.2615C100.547 24.2615 100.523 24.2131 100.474 24.1646L100.107 23.511C100.107 23.511 100.082 23.4142 100.107 23.3658C100.131 23.3173 100.156 23.2931 100.205 23.2689C100.718 23.0752 101.134 22.8574 101.526 22.6153C101.893 22.3974 102.235 22.1311 102.48 21.8164C102.749 21.5259 102.945 21.187 103.091 20.7996C103.238 20.4123 103.336 19.9765 103.385 19.4681C103.385 19.4197 103.385 19.3713 103.434 19.3229C103.483 19.2745 103.507 19.2502 103.556 19.2502L104.437 19.2987C104.437 19.2987 104.608 19.3955 104.608 19.5408C104.608 19.7344 104.584 19.9039 104.559 20.0491C104.633 20.3881 104.779 20.7028 104.975 21.0175C105.171 21.3322 105.415 21.6227 105.709 21.8648C106.003 22.1311 106.321 22.349 106.688 22.5427C107.03 22.7363 107.421 22.9058 107.788 23.0026C107.837 23.0026 107.862 23.051 107.886 23.0995C107.886 23.1479 107.886 23.1963 107.886 23.2205L107.544 23.8984C107.544 23.8984 107.421 24.0436 107.299 24.0194C106.981 23.9226 106.688 23.8257 106.37 23.6563C106.052 23.511 105.758 23.3173 105.464 23.0995C105.171 22.8816 104.902 22.6637 104.682 22.3974C104.461 22.1311 104.241 21.8648 104.07 21.5743C103.727 22.2037 103.287 22.7363 102.7 23.1721C102.137 23.6078 101.477 23.971 100.718 24.2131V24.2615Z" fill="#171C61"/>
<path d="M113.759 24.0192C113.759 24.0192 113.686 24.0676 113.637 24.0918C113.417 24.1644 113.148 24.2128 112.854 24.2612C112.561 24.3097 112.243 24.3339 111.924 24.3581C111.606 24.3823 111.288 24.4065 110.995 24.4065C110.701 24.4065 110.432 24.4065 110.188 24.4065C109.698 24.3823 109.454 24.116 109.454 23.6318V19.9763C109.454 19.7342 109.503 19.5647 109.6 19.4679C109.698 19.3711 109.87 19.3226 110.139 19.3226H112.903C112.903 19.3226 113.05 19.3711 113.05 19.4679V20.1699C113.05 20.1699 113.05 20.2426 113.001 20.2668C112.976 20.291 112.952 20.3152 112.903 20.3152H110.799C110.677 20.3152 110.603 20.3636 110.603 20.4847V21.4046C110.946 21.4046 111.264 21.4046 111.582 21.4046C111.9 21.4046 112.218 21.4046 112.512 21.3562C112.536 21.3562 112.561 21.3562 112.585 21.3562C112.609 21.3562 112.634 21.4046 112.634 21.4288V22.0824C112.634 22.0824 112.634 22.1793 112.634 22.2035C112.634 22.2277 112.585 22.2519 112.585 22.2519C112.267 22.2761 111.949 22.3003 111.606 22.3003C111.264 22.3003 110.946 22.3003 110.628 22.3003V23.0992C110.628 23.0992 110.628 23.2929 110.677 23.3171C110.726 23.3413 110.799 23.3655 110.921 23.3897C111.068 23.3897 111.24 23.4139 111.484 23.3897C111.704 23.3897 111.949 23.3897 112.194 23.3413C112.438 23.2929 112.683 23.2929 112.903 23.2445C113.148 23.2203 113.343 23.1718 113.49 23.1476C113.539 23.1476 113.588 23.1476 113.613 23.1476C113.661 23.1476 113.686 23.1961 113.686 23.2445L113.808 23.8255C113.808 23.8255 113.808 23.9465 113.759 23.9707V24.0192ZM117.282 28.522C117.282 28.522 116.989 28.6915 116.719 28.6915H111.851C111.558 28.6915 111.337 28.6431 111.239 28.522C111.142 28.401 111.068 28.2073 111.068 27.941V26.1011C111.068 25.8348 111.117 25.6412 111.239 25.5201C111.362 25.3991 111.533 25.3264 111.802 25.3264H116.671C116.964 25.3264 117.184 25.3749 117.282 25.4959C117.38 25.6169 117.453 25.8106 117.453 26.1011V27.9652C117.453 28.2315 117.404 28.4252 117.282 28.5462V28.522ZM116.304 26.44C116.304 26.44 116.304 26.3432 116.279 26.319C116.279 26.319 116.23 26.2948 116.157 26.2948H112.365H112.267C112.267 26.2948 112.243 26.3432 112.243 26.3916V27.5537C112.243 27.5537 112.243 27.6505 112.267 27.6747C112.291 27.6989 112.316 27.6747 112.365 27.6747H116.157C116.157 27.6747 116.255 27.6747 116.279 27.6747C116.304 27.6747 116.304 27.6263 116.304 27.5537V26.4158V26.44ZM114.616 18.9595H115.447C115.447 18.9595 115.57 19.0079 115.57 19.1048V24.6486C115.57 24.6486 115.521 24.7938 115.447 24.7938H114.616C114.616 24.7938 114.469 24.7454 114.469 24.6486V22.3972H113.343C113.343 22.3972 113.27 22.3972 113.246 22.3487C113.221 22.3245 113.197 22.3003 113.197 22.2519V21.5499C113.197 21.5499 113.197 21.4772 113.246 21.453C113.27 21.4288 113.319 21.4046 113.343 21.4046H114.469V19.0805C114.469 19.0805 114.518 18.9353 114.616 18.9353V18.9595ZM116.45 18.79H117.307C117.307 18.79 117.429 18.8385 117.429 18.9353V24.7212C117.429 24.7212 117.38 24.8665 117.307 24.8665H116.426C116.426 24.8665 116.304 24.8181 116.304 24.7212V18.9353C116.304 18.9353 116.353 18.79 116.45 18.79Z" fill="#171C61"/>
<path d="M131.718 7.14587L133.749 20.606H133.798L135.951 7.14587H139.498L141.651 20.606H141.7L143.73 7.14587H147.277L143.926 25.3267H139.791L137.736 12.1329H137.688L135.633 25.3267H131.498L128.146 7.14587H131.694H131.718Z" fill="#171C61"/>
<path d="M149.504 7.14587H153.222V25.3267H149.504V7.14587Z" fill="#171C61"/>
<path d="M165.21 19.5892H165.259V7.14587H168.66V25.3267H164.427L159.902 12.5929H159.853V25.3267H156.452V7.14587H160.733L165.21 19.6135V19.5892Z" fill="#171C61"/>
<path d="M182.042 7.14587V10.1478H175.485V14.4327H181.675V17.4347H175.485V25.3267H171.767V7.14587H182.042Z" fill="#171C61"/>
<path d="M184.364 7.14587H188.082V25.3267H184.364V7.14587Z" fill="#171C61"/>
<path d="M194.321 20.1703C194.321 20.6061 194.346 20.9935 194.419 21.3324C194.492 21.6713 194.615 21.9618 194.81 22.2039C195.006 22.446 195.251 22.6397 195.569 22.7607C195.887 22.906 196.278 22.9544 196.768 22.9544C197.33 22.9544 197.844 22.7607 198.309 22.3976C198.774 22.0344 198.994 21.4776 198.994 20.7029C198.994 20.2914 198.945 19.9525 198.823 19.6378C198.7 19.3472 198.529 19.0809 198.26 18.8389C197.991 18.5968 197.673 18.3789 197.232 18.1852C196.817 17.9915 196.303 17.7979 195.667 17.58C194.835 17.3137 194.125 16.999 193.538 16.6843C192.927 16.3696 192.437 15.9822 192.022 15.5465C191.63 15.1107 191.312 14.6023 191.141 14.0455C190.97 13.4887 190.847 12.8108 190.847 12.0604C190.847 10.2689 191.361 8.91321 192.364 8.04169C193.367 7.17017 194.762 6.71021 196.523 6.71021C197.355 6.71021 198.113 6.80704 198.798 6.9765C199.483 7.14596 200.095 7.43647 200.608 7.84802C201.122 8.23537 201.514 8.76796 201.783 9.37318C202.052 9.97841 202.199 10.7289 202.199 11.6004V12.1088H198.651C198.651 11.2373 198.505 10.5836 198.187 10.0995C197.868 9.63948 197.355 9.39739 196.645 9.39739C196.229 9.39739 195.887 9.44581 195.618 9.56685C195.349 9.6879 195.128 9.83315 194.957 10.0268C194.786 10.2205 194.688 10.4384 194.615 10.7047C194.541 10.971 194.517 11.2131 194.517 11.5036C194.517 12.0604 194.639 12.5445 194.884 12.9077C195.128 13.295 195.642 13.6339 196.425 13.9729L199.287 15.2075C199.997 15.5222 200.56 15.837 201 16.1517C201.44 16.4906 201.807 16.8295 202.076 17.2169C202.345 17.6042 202.517 18.0158 202.639 18.4757C202.761 18.9357 202.786 19.4441 202.786 20.0009C202.786 21.9134 202.223 23.3175 201.098 24.189C199.972 25.0605 198.407 25.4963 196.401 25.4963C194.395 25.4963 192.804 25.0363 191.899 24.1406C190.994 23.2449 190.554 21.9618 190.554 20.2672V19.5167H194.272V20.0493L194.321 20.1703Z" fill="#171C61"/>
<path d="M208.339 11.1405C208.78 12.9078 209 14.6266 209 16.297C209 17.9674 208.78 19.662 208.339 21.4293C207.899 23.1723 207.19 24.988 206.186 26.8279H204.058C204.474 25.9321 204.817 25.0606 205.135 24.2133C205.428 23.366 205.673 22.5429 205.844 21.7198C206.015 20.8967 206.162 20.0252 206.235 19.1537C206.309 18.2579 206.358 17.3138 206.358 16.297C206.358 15.2802 206.309 14.3361 206.235 13.4404C206.162 12.5446 206.015 11.6731 205.844 10.8258C205.673 9.97849 205.428 9.13118 205.135 8.28387C204.841 7.43656 204.474 6.56504 204.058 5.66931H206.186C207.19 7.5334 207.899 9.34906 208.339 11.1163V11.1405Z" fill="#171C61"/>
<path d="M126.043 8.30812C125.749 9.15543 125.505 10.0027 125.334 10.8501C125.162 11.6974 125.016 12.5689 124.942 13.4646C124.869 14.3603 124.82 15.3045 124.82 16.3213C124.82 17.338 124.869 18.2822 124.942 19.1779C125.016 20.0736 125.162 20.921 125.334 21.7441C125.505 22.5672 125.749 23.4145 126.043 24.2376C126.337 25.0849 126.704 25.9564 127.119 26.8521H124.991C123.988 24.988 123.279 23.1966 122.838 21.4535C122.398 19.7105 122.178 17.9917 122.178 16.3213C122.178 14.6509 122.398 12.932 122.838 11.1648C123.279 9.39752 123.988 7.58186 124.991 5.71777H127.119C126.704 6.6135 126.361 7.48502 126.043 8.33233V8.30812Z" fill="#171C61"/>
<defs>
<linearGradient id="paint0_linear_8762_793" x1="32.7578" y1="15.7152" x2="32.8066" y2="15.7152" gradientUnits="userSpaceOnUse">
<stop stop-color="#54C3F1"/>
<stop offset="1" stop-color="#0081CC"/>
</linearGradient>
<linearGradient id="paint1_linear_8762_793" x1="32.9048" y1="16.1028" x2="32.9536" y2="16.1028" gradientUnits="userSpaceOnUse">
<stop stop-color="#54C3F1"/>
<stop offset="1" stop-color="#0081CC"/>
</linearGradient>
<linearGradient id="paint2_linear_8762_793" x1="25.2238" y1="21.5743" x2="-1.54" y2="21.5743" gradientUnits="userSpaceOnUse">
<stop stop-color="#54C3F1"/>
<stop offset="1" stop-color="#0081CC"/>
</linearGradient>
<linearGradient id="paint3_linear_8762_793" x1="33.0518" y1="17.0955" x2="33.1981" y2="17.0955" gradientUnits="userSpaceOnUse">
<stop stop-color="#ABCD03"/>
<stop offset="1" stop-color="#00A73C"/>
</linearGradient>
<linearGradient id="paint4_linear_8762_793" x1="45.2122" y1="25.0361" x2="27.0598" y2="25.0361" gradientUnits="userSpaceOnUse">
<stop stop-color="#ABCD03"/>
<stop offset="1" stop-color="#00A73C"/>
</linearGradient>
<linearGradient id="paint5_linear_8762_793" x1="32.709" y1="15.5946" x2="32.7334" y2="15.5946" gradientUnits="userSpaceOnUse">
<stop stop-color="#ABCD03"/>
<stop offset="1" stop-color="#00A73C"/>
</linearGradient>
<linearGradient id="paint6_linear_8762_793" x1="32.8071" y1="15.9337" x2="32.9047" y2="15.9337" gradientUnits="userSpaceOnUse">
<stop stop-color="#ABCD03"/>
<stop offset="1" stop-color="#00A73C"/>
</linearGradient>
<linearGradient id="paint7_linear_8762_793" x1="32.9541" y1="16.3694" x2="33.0517" y2="16.3694" gradientUnits="userSpaceOnUse">
<stop stop-color="#ABCD03"/>
<stop offset="1" stop-color="#00A73C"/>
</linearGradient>
</defs>
</svg>
