<svg width="210" height="130" viewBox="0 0 210 130" fill="none" xmlns="http://www.w3.org/2000/svg">
<path d="M99.4743 20.0199C103.754 20.216 107.397 16.5782 107.61 11.8882C107.822 7.1804 104.532 3.22157 100.252 3.00757C95.9726 2.81142 92.3294 6.44926 92.1171 11.1392C91.9049 15.8292 95.1944 19.8059 99.4743 20.002V20.0199Z" fill="#6DCFF6"/>
<path d="M131.345 33.2851C133.379 33.5882 135.342 31.6623 135.749 28.9518C136.156 26.2412 134.829 23.816 132.813 23.5128C130.779 23.2097 128.816 25.1356 128.409 27.8462C128.003 30.5567 129.329 32.9819 131.345 33.2851Z" fill="#8DC63F"/>
<path d="M122.555 30.3955C122.59 30.5025 122.643 30.5917 122.678 30.6987C122.643 30.5917 122.608 30.5025 122.555 30.3955Z" fill="url(#paint0_linear_6363_3661)"/>
<path d="M122.839 31.1484C122.839 31.1484 122.874 31.2733 122.892 31.3268C122.874 31.2733 122.857 31.2019 122.839 31.1484Z" fill="url(#paint1_linear_6363_3661)"/>
<path d="M108.795 34.697C108.83 34.2869 108.883 33.8945 108.954 33.5201C108.954 33.5201 108.954 33.5557 108.954 33.5736C108.371 36.5516 105.682 40.2786 102.481 40.9206C93.1256 42.7752 90.0483 33.0029 86.635 26.5297C85.68 24.7108 83.5577 19.04 77.4031 18.8617C70.5058 18.6655 63.2901 25.2457 66.1374 37.0509C68.2951 46.0029 79.4547 67.5981 101.845 62.1235C107.009 60.8574 111.519 57.38 114.967 53.5282C110.617 47.9109 108.335 39.9754 108.83 34.697H108.795Z" fill="url(#paint2_linear_6363_3661)"/>
<path d="M123.35 33.7517C123.315 33.1811 123.226 32.6104 123.103 32.0576C123.226 32.6283 123.332 33.2524 123.368 33.9479C123.368 33.8765 123.368 33.823 123.368 33.7517H123.35Z" fill="url(#paint3_linear_6363_3661)"/>
<path d="M143.582 36.8889C141.159 35.6406 139.603 37.7448 138.524 40.4197C136.667 45.0027 132.352 47.4814 129.275 46.3223C127.152 45.5377 125.808 43.3978 124.853 41.0974C123.704 38.3333 123.58 36.9424 123.368 34C123.385 34.3388 123.403 34.6955 123.403 35.07C123.403 37.1385 122.2 41.4005 121.175 43.9149C120.06 46.6255 117.885 50.2098 114.932 53.5088C117.938 57.3963 121.953 60.1782 126.71 60.1782C137.127 60.1782 142.238 50.1028 144.803 42.9341C146.253 38.8683 145.245 37.727 143.582 36.871V36.8889Z" fill="url(#paint4_linear_6363_3661)"/>
<path d="M122.484 30.2754C122.484 30.2754 122.52 30.3467 122.537 30.4002C122.52 30.3646 122.502 30.3111 122.484 30.2754Z" fill="url(#paint5_linear_6363_3661)"/>
<path d="M122.68 30.7012C122.733 30.8438 122.803 30.9865 122.857 31.147C122.803 30.9865 122.75 30.8438 122.68 30.7012Z" fill="url(#paint6_linear_6363_3661)"/>
<path d="M123.404 35.0699C123.404 34.6954 123.404 34.3388 123.369 34C123.369 33.9821 123.369 33.9643 123.369 33.9465C123.315 33.2688 123.227 32.6269 123.103 32.0562C123.103 32.0562 123.103 32.0562 123.103 32.0384C123.05 31.7887 122.979 31.5569 122.909 31.3251C122.891 31.2716 122.873 31.2002 122.856 31.1467C122.803 30.9863 122.75 30.8436 122.679 30.7009C122.643 30.5939 122.608 30.5048 122.555 30.3978C122.537 30.3621 122.52 30.3086 122.502 30.2729C122.272 29.7915 122.007 29.3635 121.706 28.9533C121.618 28.8463 121.547 28.7393 121.458 28.6502C120.38 27.4197 118.947 26.8134 117.497 26.5638C117.108 26.5103 116.719 26.4746 116.277 26.4746C116.188 26.4746 116.1 26.4746 116.011 26.4746C115.941 26.4746 115.888 26.4746 115.817 26.4746C115.64 26.4746 115.445 26.5103 115.269 26.5459C115.251 26.5459 115.233 26.5459 115.215 26.5459C115.092 26.5638 114.968 26.5994 114.844 26.6351C113.836 26.8848 112.757 27.4019 111.784 28.2757C111.784 28.2757 111.749 28.3114 111.731 28.3114C111.643 28.4005 111.537 28.4897 111.448 28.5967C111.342 28.7037 111.236 28.8107 111.13 28.9177C110.14 30.0411 109.379 31.5747 108.99 33.5185C108.919 33.893 108.866 34.2853 108.831 34.6954C108.336 39.956 110.635 47.9094 114.968 53.5266C117.921 50.2276 120.097 46.6433 121.211 43.9327C122.254 41.4183 123.439 37.1563 123.439 35.0877L123.404 35.0699Z" fill="#2DA44A"/>
<path d="M152.071 118.96H164.131V125.88H152.071V118.96ZM156.171 108.26V110.34H151.171V111.86H155.351V113.9H151.171V115.42C152.224 115.42 153.204 115.406 154.111 115.38C155.031 115.34 155.911 115.273 156.751 115.18L156.991 117.2C156.538 117.253 156.044 117.3 155.511 117.34C154.991 117.38 154.398 117.413 153.731 117.44C153.078 117.453 152.344 117.466 151.531 117.48C150.718 117.493 149.791 117.5 148.751 117.5V108.26H156.171ZM158.191 113.74H156.351V111.58H158.191V107.5H160.571V118.08H158.191V113.74ZM164.131 118.12H161.731V107.26H164.131V118.12ZM154.571 123.8H161.631V121.04H154.571V123.8Z" fill="#262262"/>
<path d="M148.124 121.38V123.52H131.084V121.38H148.124ZM139.664 114.64C139.557 114.866 139.331 115.113 138.984 115.38C138.651 115.633 138.231 115.933 137.724 116.28C137.177 116.64 136.544 117.04 135.824 117.48C135.104 117.906 134.264 118.393 133.304 118.94L132.064 116.94C132.797 116.526 133.537 116.1 134.284 115.66C135.031 115.206 135.697 114.78 136.284 114.38C136.684 114.113 137.011 113.846 137.264 113.58C137.531 113.313 137.737 113.033 137.884 112.74C138.044 112.433 138.157 112.106 138.224 111.76C138.291 111.413 138.324 111.02 138.324 110.58V108.52H140.884V110.58C140.884 111.02 140.917 111.413 140.984 111.76C141.051 112.106 141.157 112.433 141.304 112.74C141.464 113.033 141.671 113.313 141.924 113.58C142.191 113.846 142.524 114.113 142.924 114.38C143.511 114.78 144.177 115.206 144.924 115.66C145.671 116.1 146.411 116.526 147.144 116.94L145.924 118.9C144.964 118.353 144.124 117.866 143.404 117.44C142.684 117 142.051 116.6 141.504 116.24C140.997 115.893 140.591 115.6 140.284 115.36C139.991 115.106 139.791 114.866 139.684 114.64H139.664Z" fill="#262262"/>
<path d="M129.537 125.86H126.997V107.26H129.537V125.86ZM122.497 116.66C122.924 117.126 123.39 117.613 123.897 118.12C124.404 118.613 124.917 119.093 125.437 119.56L123.817 121.26C123.364 120.833 122.924 120.413 122.497 120C122.07 119.573 121.67 119.166 121.297 118.78C120.91 118.393 120.584 118.046 120.317 117.74C120.05 117.42 119.884 117.173 119.817 117H119.777C119.71 117.186 119.524 117.46 119.217 117.82C118.924 118.166 118.61 118.513 118.277 118.86C117.904 119.246 117.51 119.646 117.097 120.06C116.684 120.46 116.19 120.926 115.617 121.46L113.957 119.74C115.09 118.726 116.09 117.746 116.957 116.8C117.25 116.48 117.49 116.173 117.677 115.88C117.877 115.586 118.037 115.286 118.157 114.98C118.277 114.673 118.364 114.353 118.417 114.02C118.47 113.686 118.497 113.313 118.497 112.9V108.56H121.077V112.9C121.077 113.3 121.09 113.66 121.117 113.98C121.157 114.3 121.23 114.606 121.337 114.9C121.444 115.18 121.584 115.466 121.757 115.76C121.944 116.04 122.19 116.34 122.497 116.66Z" fill="#262262"/>
<path d="M112.33 125.86H109.79V107.26H112.33V125.86ZM100.47 119.3H102.41C103.33 119.3 104.283 119.273 105.27 119.22C106.256 119.153 107.216 119.06 108.15 118.94L108.43 121.06C107.483 121.206 106.45 121.306 105.33 121.36C104.21 121.413 103.036 121.44 101.81 121.44H97.9697V113.88H103.97V110.84H97.9697V108.7H106.47V115.94H100.47V119.3Z" fill="#262262"/>
<path d="M94.3834 112.72H96.8434V114.92H94.3834V121.06H91.8834V107.26H94.3834V112.72ZM84.7634 123.56H94.8834V125.72H82.2234V120.06H84.7634V123.56ZM79.4834 116.44H82.6834V112.82H85.2034V116.4C86.4834 116.386 87.5834 116.353 88.5034 116.3C89.4234 116.246 90.2434 116.18 90.9634 116.1L91.1434 118.24C90.5967 118.306 89.9634 118.366 89.2434 118.42C88.5367 118.46 87.7101 118.493 86.7634 118.52C85.8301 118.546 84.7634 118.566 83.5634 118.58C82.3634 118.593 81.0034 118.6 79.4834 118.6V116.44ZM89.8034 108.18V110.88C89.8034 111.146 89.7901 111.453 89.7634 111.8C89.7501 112.146 89.7234 112.506 89.6834 112.88C89.6567 113.253 89.6167 113.626 89.5634 114C89.5101 114.373 89.4434 114.713 89.3634 115.02L86.9234 114.72C87.0701 114.026 87.1701 113.366 87.2234 112.74C87.2901 112.113 87.3234 111.586 87.3234 111.16V110.36H80.5634V108.18H89.8034Z" fill="#262262"/>
<path d="M77.0161 118.74V125.9H65.4561V118.74H67.9361V120.32H74.5361V118.74H77.0161ZM74.5361 123.86V122.36H67.9361V123.86H74.5361ZM77.0161 111.5H79.4561V113.7H77.0161V117.9H74.4961V107.26H77.0161V111.5ZM69.0761 109H73.0961V111.08H62.4561V109H66.5561V107H69.0761V109ZM67.8161 118.04C67.1094 118.04 66.4761 117.967 65.9161 117.82C65.3694 117.673 64.9094 117.473 64.5361 117.22C64.1627 116.953 63.8761 116.647 63.6761 116.3C63.4894 115.94 63.3961 115.553 63.3961 115.14V114.54C63.3961 114.127 63.4894 113.747 63.6761 113.4C63.8761 113.04 64.1627 112.733 64.5361 112.48C64.9094 112.213 65.3694 112.007 65.9161 111.86C66.4761 111.713 67.1094 111.64 67.8161 111.64C68.5227 111.64 69.1494 111.713 69.6961 111.86C70.2561 112.007 70.7227 112.213 71.0961 112.48C71.4694 112.733 71.7494 113.04 71.9361 113.4C72.1361 113.747 72.2361 114.127 72.2361 114.54V115.14C72.2361 115.553 72.1361 115.94 71.9361 116.3C71.7494 116.647 71.4694 116.953 71.0961 117.22C70.7227 117.473 70.2561 117.673 69.6961 117.82C69.1494 117.967 68.5227 118.04 67.8161 118.04ZM67.8161 113.58C67.1361 113.58 66.6227 113.693 66.2761 113.92C65.9427 114.133 65.7761 114.38 65.7761 114.66V115.02C65.7761 115.3 65.9427 115.553 66.2761 115.78C66.6227 115.993 67.1361 116.1 67.8161 116.1C68.4961 116.1 69.0027 115.993 69.3361 115.78C69.6827 115.553 69.8561 115.3 69.8561 115.02V114.66C69.8561 114.38 69.6827 114.133 69.3361 113.92C69.0027 113.693 68.4961 113.58 67.8161 113.58Z" fill="#262262"/>
<path d="M53.5688 126.42C52.7555 126.42 51.9822 126.347 51.2488 126.2C50.5288 126.067 49.8955 125.86 49.3488 125.58C48.8022 125.3 48.3688 124.947 48.0488 124.52C47.7288 124.093 47.5688 123.593 47.5688 123.02V122.42C47.5688 121.847 47.7288 121.347 48.0488 120.92C48.3688 120.493 48.8022 120.14 49.3488 119.86C49.8955 119.58 50.5288 119.373 51.2488 119.24C51.9822 119.093 52.7555 119.02 53.5688 119.02C54.3822 119.02 55.1488 119.093 55.8688 119.24C56.6022 119.373 57.2422 119.58 57.7888 119.86C58.3355 120.14 58.7688 120.493 59.0888 120.92C59.4088 121.347 59.5688 121.847 59.5688 122.42V123.02C59.5688 123.593 59.4088 124.093 59.0888 124.52C58.7688 124.947 58.3355 125.3 57.7888 125.58C57.2422 125.86 56.6022 126.067 55.8688 126.2C55.1488 126.347 54.3822 126.42 53.5688 126.42ZM47.2488 107.88H59.8888V109.94H54.8288V110C54.8288 110.387 54.9222 110.707 55.1088 110.96C55.3088 111.2 55.6622 111.42 56.1688 111.62C56.9288 111.927 57.6755 112.207 58.4088 112.46C59.1422 112.713 59.9022 112.967 60.6888 113.22L59.9088 115.22C59.0688 114.94 58.3022 114.673 57.6088 114.42C56.9155 114.167 56.2355 113.913 55.5688 113.66C54.4088 113.22 53.7555 112.847 53.6088 112.54H53.5888C53.4288 112.86 52.7622 113.247 51.5888 113.7C50.9222 113.953 50.2422 114.207 49.5488 114.46C48.8555 114.713 48.0888 114.98 47.2488 115.26L46.4488 113.22C47.2355 112.967 47.9955 112.713 48.7288 112.46C49.4622 112.207 50.2088 111.927 50.9688 111.62C51.4755 111.42 51.8222 111.2 52.0088 110.96C52.2088 110.707 52.3088 110.387 52.3088 110V109.94H47.2488V107.88ZM52.3088 116.1V114.32H54.8288V116.1H62.0888V118.16H45.0488V116.1H52.3088ZM53.5688 121.06C53.1288 121.06 52.6955 121.1 52.2688 121.18C51.8555 121.247 51.4822 121.347 51.1488 121.48C50.8288 121.613 50.5688 121.773 50.3688 121.96C50.1688 122.147 50.0688 122.353 50.0688 122.58V122.86C50.0688 123.087 50.1688 123.293 50.3688 123.48C50.5688 123.667 50.8288 123.827 51.1488 123.96C51.4822 124.093 51.8555 124.193 52.2688 124.26C52.6955 124.34 53.1288 124.38 53.5688 124.38C54.0088 124.38 54.4355 124.34 54.8488 124.26C55.2755 124.193 55.6488 124.093 55.9688 123.96C56.3022 123.827 56.5688 123.667 56.7688 123.48C56.9688 123.293 57.0688 123.087 57.0688 122.86V122.58C57.0688 122.353 56.9688 122.147 56.7688 121.96C56.5688 121.773 56.3022 121.613 55.9688 121.48C55.6488 121.347 55.2755 121.247 54.8488 121.18C54.4355 121.1 54.0088 121.06 53.5688 121.06Z" fill="#262262"/>
<path d="M191.794 90.6405H204.074V97.8605H191.794V90.6405ZM201.034 86.6005C201.181 85.9605 201.281 85.3205 201.334 84.6805C201.401 84.0271 201.434 83.4605 201.434 82.9805V82.1205H191.634V79.9805H203.954V82.8405C203.954 83.0671 203.941 83.3338 203.914 83.6405C203.901 83.9471 203.874 84.2738 203.834 84.6205C203.807 84.9538 203.767 85.2938 203.714 85.6405C203.661 85.9738 203.607 86.2938 203.554 86.6005H206.454V88.7405H189.414V86.6005H201.034ZM194.294 95.8005H201.574V92.7005H194.294V95.8005Z" fill="#262262"/>
<path d="M187.867 97.8598H185.327V79.2598H187.867V97.8598ZM173.027 92.0398C174.027 91.4398 174.881 90.9064 175.587 90.4398C176.294 89.9731 176.881 89.5464 177.347 89.1598C177.827 88.7598 178.201 88.3864 178.467 88.0398C178.747 87.6798 178.954 87.3198 179.087 86.9598C179.234 86.5998 179.327 86.2198 179.367 85.8198C179.407 85.4198 179.427 84.9731 179.427 84.4798V83.0998H173.367V80.9198H181.967V84.5998C181.967 85.2664 181.934 85.8731 181.867 86.4198C181.801 86.9664 181.667 87.4798 181.467 87.9598C181.281 88.4264 181.007 88.8798 180.647 89.3198C180.301 89.7598 179.847 90.2198 179.287 90.6998C178.727 91.1664 178.041 91.6731 177.227 92.2198C176.427 92.7531 175.474 93.3598 174.367 94.0398L173.027 92.0398Z" fill="#262262"/>
<path d="M158.22 87.9598C159.62 87.9598 160.92 87.9464 162.12 87.9198C163.32 87.8798 164.534 87.7998 165.76 87.6798L165.98 89.7598C165.407 89.8264 164.787 89.8798 164.12 89.9198C163.467 89.9598 162.727 89.9931 161.9 90.0198C161.087 90.0331 160.174 90.0464 159.16 90.0598C158.16 90.0598 157.02 90.0598 155.74 90.0598V84.0798H161.28V82.1998H155.74V80.0998H163.76V86.0998H158.22V87.9598ZM167.94 86.9198H164.96V84.7998H167.94V83.5798H164.96V81.4598H167.94V79.2598H170.44V90.6598H167.94V86.9198ZM158.12 91.4998H170.44V98.0998H167.92V93.6198H158.12V91.4998Z" fill="#262262"/>
<path d="M153.234 90.78V97.9H141.394V90.78H143.894V92.34H150.734V90.78H153.234ZM143.194 90.04C142.487 90.04 141.86 89.9667 141.314 89.82C140.767 89.6733 140.307 89.4733 139.934 89.22C139.56 88.9533 139.274 88.6467 139.074 88.3C138.887 87.94 138.794 87.5533 138.794 87.14V86.54C138.794 86.1267 138.887 85.7467 139.074 85.4C139.274 85.04 139.56 84.7333 139.934 84.48C140.307 84.2133 140.767 84.0067 141.314 83.86C141.86 83.7133 142.487 83.64 143.194 83.64C143.9 83.64 144.527 83.7133 145.074 83.86C145.62 84.0067 146.08 84.2133 146.454 84.48C146.827 84.7333 147.107 85.04 147.294 85.4C147.494 85.7467 147.594 86.1267 147.594 86.54V87.14C147.594 87.5533 147.494 87.94 147.294 88.3C147.107 88.6467 146.827 88.9533 146.454 89.22C146.08 89.4733 145.62 89.6733 145.074 89.82C144.527 89.9667 143.9 90.04 143.194 90.04ZM150.734 88.88H148.454V86.78H150.734V85.7H148.454V83.6H150.734V79.26H153.234V89.94H150.734V88.88ZM144.434 81H148.574V83.08H137.854V81H141.914V79H144.434V81ZM150.734 95.86V94.38H143.894V95.86H150.734ZM143.194 85.58C142.527 85.58 142.02 85.6933 141.674 85.92C141.34 86.1333 141.174 86.38 141.174 86.66V87.02C141.174 87.3 141.34 87.5533 141.674 87.78C142.02 87.9933 142.527 88.1 143.194 88.1C143.86 88.1 144.36 87.9933 144.694 87.78C145.04 87.5533 145.214 87.3 145.214 87.02V86.66C145.214 86.38 145.04 86.1333 144.694 85.92C144.36 85.6933 143.86 85.58 143.194 85.58Z" fill="#262262"/>
<path d="M132.486 83.3998H134.026V79.2598H136.426V90.4598H134.026V85.5798H132.486V89.6798H130.106V79.4998H132.486V83.3998ZM130.526 98.4198C129.659 98.4198 128.859 98.3398 128.126 98.1798C127.406 98.0198 126.779 97.7864 126.246 97.4798C125.726 97.1731 125.313 96.7998 125.006 96.3598C124.713 95.9331 124.566 95.4464 124.566 94.8998V94.0598C124.566 93.5131 124.713 93.0264 125.006 92.5998C125.313 92.1598 125.726 91.7864 126.246 91.4798C126.779 91.1731 127.406 90.9398 128.126 90.7798C128.859 90.6198 129.659 90.5398 130.526 90.5398C131.379 90.5398 132.173 90.6198 132.906 90.7798C133.639 90.9398 134.266 91.1731 134.786 91.4798C135.319 91.7864 135.733 92.1598 136.026 92.5998C136.333 93.0264 136.486 93.5131 136.486 94.0598V94.8998C136.486 95.4464 136.333 95.9331 136.026 96.3598C135.733 96.7998 135.319 97.1731 134.786 97.4798C134.266 97.7864 133.639 98.0198 132.906 98.1798C132.173 98.3398 131.379 98.4198 130.526 98.4198ZM130.526 92.5798C130.073 92.5798 129.633 92.6264 129.206 92.7198C128.793 92.7998 128.426 92.9198 128.106 93.0798C127.786 93.2264 127.526 93.3998 127.326 93.5998C127.139 93.7998 127.046 94.0198 127.046 94.2598V94.6998C127.046 94.9398 127.139 95.1598 127.326 95.3598C127.526 95.5598 127.786 95.7331 128.106 95.8798C128.426 96.0398 128.793 96.1598 129.206 96.2398C129.633 96.3331 130.073 96.3798 130.526 96.3798C130.979 96.3798 131.413 96.3331 131.826 96.2398C132.253 96.1598 132.626 96.0398 132.946 95.8798C133.266 95.7331 133.519 95.5598 133.706 95.3598C133.906 95.1598 134.006 94.9398 134.006 94.6998V94.2598C134.006 94.0198 133.906 93.7998 133.706 93.5998C133.519 93.3998 133.266 93.2264 132.946 93.0798C132.626 92.9198 132.253 92.7998 131.826 92.7198C131.413 92.6264 130.979 92.5798 130.526 92.5798ZM128.306 89.6198C127.999 89.3531 127.659 89.0531 127.286 88.7198C126.913 88.3864 126.593 88.0998 126.326 87.8598C126.019 87.5798 125.779 87.3464 125.606 87.1598C125.446 86.9598 125.333 86.7864 125.266 86.6398H125.246C125.179 86.8131 125.066 86.9998 124.906 87.1998C124.759 87.3864 124.546 87.6264 124.266 87.9198C123.999 88.1864 123.653 88.5331 123.226 88.9598C122.799 89.3731 122.333 89.8064 121.826 90.2598L120.206 88.5998C120.633 88.2264 121.053 87.8398 121.466 87.4398C121.893 87.0398 122.306 86.6264 122.706 86.1998C122.946 85.9464 123.146 85.6998 123.306 85.4598C123.466 85.2198 123.593 84.9731 123.686 84.7198C123.779 84.4664 123.839 84.2064 123.866 83.9398C123.906 83.6598 123.926 83.3531 123.926 83.0198V80.1998H126.406V82.8998C126.406 83.2331 126.419 83.5331 126.446 83.7998C126.473 84.0664 126.526 84.3198 126.606 84.5598C126.699 84.7998 126.819 85.0398 126.966 85.2798C127.126 85.5064 127.326 85.7398 127.566 85.9798C128.259 86.6864 128.999 87.3664 129.786 88.0198L128.306 89.6198Z" fill="#262262"/>
<path d="M118.139 83.4998H120.579V85.6998H118.139V90.2598H115.619V79.2598H118.139V83.4998ZM112.499 98.4198C111.645 98.4198 110.865 98.3331 110.159 98.1598C109.465 97.9864 108.865 97.7398 108.359 97.4198C107.865 97.0998 107.479 96.7131 107.199 96.2598C106.932 95.8198 106.799 95.3331 106.799 94.7998V93.9598C106.799 93.4264 106.932 92.9398 107.199 92.4998C107.479 92.0464 107.865 91.6598 108.359 91.3398C108.865 91.0198 109.465 90.7731 110.159 90.5998C110.865 90.4264 111.645 90.3398 112.499 90.3398C113.352 90.3398 114.125 90.4264 114.819 90.5998C115.525 90.7731 116.125 91.0198 116.619 91.3398C117.125 91.6598 117.512 92.0464 117.779 92.4998C118.059 92.9398 118.199 93.4264 118.199 93.9598V94.7998C118.199 95.3331 118.059 95.8198 117.779 96.2598C117.512 96.7131 117.125 97.0998 116.619 97.4198C116.125 97.7398 115.525 97.9864 114.819 98.1598C114.125 98.3331 113.352 98.4198 112.499 98.4198ZM112.499 92.3998C111.992 92.3998 111.539 92.4531 111.139 92.5598C110.739 92.6664 110.399 92.8064 110.119 92.9798C109.852 93.1398 109.645 93.3198 109.499 93.5198C109.352 93.7198 109.279 93.9198 109.279 94.1198V94.6398C109.279 94.8398 109.352 95.0398 109.499 95.2398C109.645 95.4398 109.852 95.6198 110.119 95.7798C110.399 95.9531 110.739 96.0931 111.139 96.1998C111.539 96.3064 111.992 96.3598 112.499 96.3598C113.005 96.3598 113.459 96.3064 113.859 96.1998C114.259 96.0931 114.592 95.9531 114.859 95.7798C115.139 95.6198 115.352 95.4398 115.499 95.2398C115.645 95.0398 115.719 94.8398 115.719 94.6398V94.1198C115.719 93.9198 115.645 93.7198 115.499 93.5198C115.352 93.3198 115.139 93.1398 114.859 92.9798C114.592 92.8064 114.259 92.6664 113.859 92.5598C113.459 92.4531 113.005 92.3998 112.499 92.3998ZM108.879 86.1998C108.812 86.3598 108.692 86.5398 108.519 86.7398C108.345 86.9398 108.052 87.2198 107.639 87.5798C107.172 87.9798 106.685 88.3864 106.179 88.7998C105.685 89.1998 105.159 89.6131 104.599 90.0398L103.099 88.1798C103.685 87.7531 104.219 87.3464 104.699 86.9598C105.179 86.5731 105.659 86.1598 106.139 85.7198C106.552 85.3464 106.879 84.9131 107.119 84.4198C107.372 83.9264 107.499 83.3531 107.499 82.6998V80.0198H110.059V82.6198C110.059 82.9531 110.072 83.2531 110.099 83.5198C110.139 83.7731 110.205 84.0131 110.299 84.2398C110.405 84.4664 110.545 84.6864 110.719 84.8998C110.892 85.0998 111.112 85.3064 111.379 85.5198C111.765 85.8398 112.212 86.1864 112.719 86.5598C113.239 86.9331 113.752 87.2931 114.259 87.6398L112.859 89.3998C112.392 89.0798 111.945 88.7664 111.519 88.4598C111.092 88.1398 110.692 87.8331 110.319 87.5398C109.972 87.2731 109.659 87.0264 109.379 86.7998C109.112 86.5598 108.952 86.3598 108.899 86.1998H108.879Z" fill="#262262"/>
<path d="M86.3118 88.5798C85.5251 88.5798 84.8318 88.4664 84.2318 88.2398C83.6451 88.0131 83.1518 87.7131 82.7518 87.3398C82.3518 86.9531 82.0518 86.5198 81.8518 86.0398C81.6518 85.5464 81.5518 85.0331 81.5518 84.4998V83.9398C81.5518 83.4064 81.6518 82.8998 81.8518 82.4198C82.0518 81.9264 82.3518 81.4931 82.7518 81.1198C83.1518 80.7331 83.6451 80.4264 84.2318 80.1998C84.8318 79.9731 85.5251 79.8598 86.3118 79.8598C86.9918 79.8598 87.5984 79.9464 88.1318 80.1198C88.6784 80.2931 89.1451 80.5331 89.5318 80.8398C89.9318 81.1331 90.2518 81.4798 90.4918 81.8798C90.7318 82.2798 90.8984 82.6998 90.9918 83.1398H94.0918V79.2598H96.6118V88.8398H94.0918V85.2398H91.0118C90.9318 85.6931 90.7718 86.1264 90.5318 86.5398C90.2918 86.9398 89.9718 87.2931 89.5718 87.5998C89.1851 87.8931 88.7184 88.1331 88.1718 88.3198C87.6251 88.4931 87.0051 88.5798 86.3118 88.5798ZM96.6118 89.6798V97.8798H84.7718V89.6798H87.2718V91.7798H94.1118V89.6798H96.6118ZM86.3118 81.9998C85.9118 81.9998 85.5584 82.0598 85.2518 82.1798C84.9584 82.2864 84.7118 82.4398 84.5118 82.6398C84.3251 82.8264 84.1851 83.0398 84.0918 83.2798C83.9984 83.5198 83.9518 83.7598 83.9518 83.9998V84.4398C83.9518 84.6798 83.9984 84.9198 84.0918 85.1598C84.1851 85.3998 84.3251 85.6198 84.5118 85.8198C84.7118 86.0064 84.9584 86.1598 85.2518 86.2798C85.5584 86.3864 85.9118 86.4398 86.3118 86.4398C86.7118 86.4398 87.0584 86.3864 87.3518 86.2798C87.6584 86.1598 87.9051 86.0064 88.0918 85.8198C88.2918 85.6198 88.4384 85.3998 88.5318 85.1598C88.6251 84.9198 88.6718 84.6798 88.6718 84.4398V83.9998C88.6718 83.7598 88.6251 83.5198 88.5318 83.2798C88.4384 83.0398 88.2918 82.8264 88.0918 82.6398C87.9051 82.4398 87.6584 82.2864 87.3518 82.1798C87.0584 82.0598 86.7118 81.9998 86.3118 81.9998ZM94.1118 95.7998V93.8598H87.2718V95.7998H94.1118Z" fill="#262262"/>
<path d="M79.6252 97.8598H77.0852V79.2598H79.6252V97.8598ZM64.7852 92.0398C65.7852 91.4398 66.6385 90.9064 67.3452 90.4398C68.0518 89.9731 68.6385 89.5464 69.1052 89.1598C69.5852 88.7598 69.9585 88.3864 70.2252 88.0398C70.5052 87.6798 70.7118 87.3198 70.8452 86.9598C70.9918 86.5998 71.0852 86.2198 71.1252 85.8198C71.1652 85.4198 71.1852 84.9731 71.1852 84.4798V83.0998H65.1252V80.9198H73.7252V84.5998C73.7252 85.2664 73.6918 85.8731 73.6252 86.4198C73.5585 86.9664 73.4252 87.4798 73.2252 87.9598C73.0385 88.4264 72.7652 88.8798 72.4052 89.3198C72.0585 89.7598 71.6052 90.2198 71.0452 90.6998C70.4852 91.1664 69.7985 91.6731 68.9852 92.2198C68.1852 92.7531 67.2318 93.3598 66.1252 94.0398L64.7852 92.0398Z" fill="#262262"/>
<path d="M55.3378 86.3404C55.2311 86.5671 55.0045 86.8137 54.6578 87.0804C54.3245 87.3337 53.9045 87.6337 53.3978 87.9804C52.8511 88.3404 52.2178 88.7404 51.4978 89.1804C50.7778 89.6071 49.9378 90.0937 48.9778 90.6404L47.7378 88.6404C48.4711 88.2271 49.2111 87.8004 49.9578 87.3604C50.7045 86.9071 51.3711 86.4804 51.9578 86.0804C52.3578 85.8137 52.6845 85.5471 52.9378 85.2804C53.2045 85.0137 53.4111 84.7337 53.5578 84.4404C53.7178 84.1337 53.8311 83.8071 53.8978 83.4604C53.9645 83.1137 53.9978 82.7204 53.9978 82.2804V80.4004H56.5578V82.2804C56.5578 82.7204 56.5911 83.1137 56.6578 83.4604C56.7245 83.8071 56.8311 84.1337 56.9778 84.4404C57.1378 84.7337 57.3445 85.0137 57.5978 85.2804C57.8645 85.5471 58.1978 85.8137 58.5978 86.0804C59.1845 86.4804 59.8511 86.9071 60.5978 87.3604C61.3445 87.8004 62.0845 88.2271 62.8178 88.6404L61.5978 90.6004C60.6378 90.0537 59.7978 89.5671 59.0778 89.1404C58.3578 88.7004 57.7245 88.3004 57.1778 87.9404C56.6711 87.5937 56.2645 87.3004 55.9578 87.0604C55.6645 86.8071 55.4645 86.5671 55.3578 86.3404H55.3378ZM54.0178 93.3804V89.6804H56.5378V93.3804H63.7978V95.5204H46.7578V93.3804H54.0178Z" fill="#262262"/>
<path d="M38.0708 98.4199C37.2574 98.4199 36.4841 98.3466 35.7508 98.1999C35.0308 98.0666 34.3974 97.8599 33.8508 97.5799C33.3041 97.2999 32.8708 96.9466 32.5508 96.5199C32.2308 96.1066 32.0708 95.6132 32.0708 95.0399V94.4399C32.0708 93.9465 32.1908 93.5065 32.4308 93.1199C32.6841 92.7332 33.0241 92.4066 33.4508 92.1399C33.8774 91.8599 34.3774 91.6399 34.9508 91.4799C35.5241 91.3066 36.1441 91.1866 36.8108 91.1199V89.7799H29.5508V87.7199H46.5908V89.7799H39.3308V91.1199C39.9974 91.1866 40.6174 91.3066 41.1908 91.4799C41.7641 91.6399 42.2641 91.8599 42.6908 92.1399C43.1174 92.4066 43.4508 92.7332 43.6908 93.1199C43.9441 93.5065 44.0708 93.9465 44.0708 94.4399V95.0399C44.0708 95.6132 43.9108 96.1066 43.5908 96.5199C43.2708 96.9466 42.8374 97.2999 42.2908 97.5799C41.7441 97.8599 41.1041 98.0666 40.3708 98.1999C39.6508 98.3466 38.8841 98.4199 38.0708 98.4199ZM31.7508 79.8799H44.3908V81.9399H39.3308V81.9799C39.3308 82.3665 39.4241 82.6865 39.6108 82.9399C39.8108 83.1799 40.1641 83.3999 40.6708 83.5999C41.4308 83.9066 42.1775 84.1866 42.9108 84.4399C43.6441 84.6932 44.4041 84.9466 45.1908 85.1999L44.4108 87.1999C43.5708 86.9199 42.8041 86.6532 42.1108 86.3999C41.4174 86.1466 40.7375 85.8932 40.0708 85.6399C38.9108 85.1999 38.2574 84.8266 38.1108 84.5199H38.0908C37.9308 84.8399 37.2641 85.2266 36.0908 85.6799C35.4241 85.9332 34.7441 86.1866 34.0508 86.4399C33.3574 86.6932 32.5908 86.9599 31.7508 87.2399L30.9508 85.1999C31.7374 84.9466 32.4974 84.6932 33.2308 84.4399C33.9641 84.1866 34.7108 83.9066 35.4708 83.5999C35.9774 83.3999 36.3241 83.1799 36.5108 82.9399C36.7108 82.6865 36.8108 82.3665 36.8108 81.9799V81.9399H31.7508V79.8799ZM38.0708 93.0999C37.6308 93.0999 37.1974 93.1399 36.7708 93.2199C36.3574 93.2866 35.9841 93.3865 35.6508 93.5199C35.3308 93.6399 35.0708 93.7932 34.8708 93.9799C34.6708 94.1666 34.5708 94.3732 34.5708 94.5999V94.8799C34.5708 95.1066 34.6708 95.3132 34.8708 95.4999C35.0708 95.6866 35.3308 95.8466 35.6508 95.9799C35.9841 96.1132 36.3574 96.2132 36.7708 96.2799C37.1974 96.3465 37.6308 96.3799 38.0708 96.3799C38.5108 96.3799 38.9374 96.3465 39.3508 96.2799C39.7774 96.2132 40.1508 96.1132 40.4708 95.9799C40.8041 95.8466 41.0708 95.6866 41.2708 95.4999C41.4708 95.3132 41.5708 95.1066 41.5708 94.8799V94.5999C41.5708 94.3732 41.4708 94.1666 41.2708 93.9799C41.0708 93.7932 40.8041 93.6399 40.4708 93.5199C40.1508 93.3865 39.7774 93.2866 39.3508 93.2199C38.9374 93.1399 38.5108 93.0999 38.0708 93.0999Z" fill="#262262"/>
<path d="M23.9727 87.6602H26.5527V90.2202H23.9727V87.6602Z" fill="#262262"/>
<path d="M16.0859 85.5998H17.7259V79.2598H20.1459V97.8598H17.7259V87.7798H16.0859V96.9598H13.6659V79.6398H16.0859V85.5998ZM11.7259 81.0198V83.1998H7.0459V90.7398H7.6259C8.43923 90.7398 9.25923 90.7198 10.0859 90.6798C10.9126 90.6398 11.7459 90.5531 12.5859 90.4198L12.8459 92.5798C12.0326 92.7264 11.1659 92.8198 10.2459 92.8598C9.33923 92.8998 8.4659 92.9198 7.6259 92.9198H4.5459V81.0198H11.7259Z" fill="#262262"/>
<defs>
<linearGradient id="paint0_linear_6363_3661" x1="122.555" y1="30.5382" x2="122.661" y2="30.5382" gradientUnits="userSpaceOnUse">
<stop stop-color="#44C8F5"/>
<stop offset="1" stop-color="#0089CF"/>
</linearGradient>
<linearGradient id="paint1_linear_6363_3661" x1="122.839" y1="31.2376" x2="122.892" y2="31.2376" gradientUnits="userSpaceOnUse">
<stop stop-color="#44C8F5"/>
<stop offset="1" stop-color="#0089CF"/>
</linearGradient>
<linearGradient id="paint2_linear_6363_3661" x1="109.467" y1="40.9206" x2="62.8302" y2="40.9206" gradientUnits="userSpaceOnUse">
<stop stop-color="#44C8F5"/>
<stop offset="1" stop-color="#0089CF"/>
</linearGradient>
<linearGradient id="paint3_linear_6363_3661" x1="123.085" y1="33.0027" x2="123.35" y2="33.0027" gradientUnits="userSpaceOnUse">
<stop stop-color="#A6CE39"/>
<stop offset="1" stop-color="#0DB14B"/>
</linearGradient>
<linearGradient id="paint4_linear_6363_3661" x1="144.237" y1="47.1069" x2="112.65" y2="47.1069" gradientUnits="userSpaceOnUse">
<stop stop-color="#A6CE39"/>
<stop offset="1" stop-color="#0DB14B"/>
</linearGradient>
<linearGradient id="paint5_linear_6363_3661" x1="122.484" y1="30.3467" x2="122.555" y2="30.3467" gradientUnits="userSpaceOnUse">
<stop stop-color="#A6CE39"/>
<stop offset="1" stop-color="#0DB14B"/>
</linearGradient>
<linearGradient id="paint6_linear_6363_3661" x1="122.662" y1="30.9152" x2="122.839" y2="30.9152" gradientUnits="userSpaceOnUse">
<stop stop-color="#A6CE39"/>
<stop offset="1" stop-color="#0DB14B"/>
</linearGradient>
</defs>
</svg>
