<svg width="201" height="33" viewBox="0 0 201 33" fill="none" xmlns="http://www.w3.org/2000/svg">
<path d="M23.6317 5.04449C23.7505 2.47782 21.9413 0.308267 19.5907 0.198657C17.2401 0.0890483 15.2382 2.08089 15.1194 4.64756C15.0006 7.21423 16.8098 9.38378 19.1604 9.49339C21.5111 9.603 23.5129 7.61116 23.6317 5.04449Z" fill="#C5C5C5"/>
<path d="M36.6713 16.7574C37.795 16.9219 38.8719 15.8646 39.0826 14.3843C39.2933 12.904 38.5675 11.5881 37.4672 11.4002C36.3669 11.2122 35.2666 12.293 35.0559 13.7733C34.8452 15.2536 35.571 16.5695 36.6713 16.7574Z" fill="#C5C5C5"/>
<path d="M31.8477 15.1831C31.8477 15.1831 31.8943 15.2998 31.9177 15.3465C31.9177 15.2998 31.871 15.2298 31.8477 15.1831Z" fill="#C5C5C5"/>
<path d="M31.9883 15.5825C31.9883 15.5825 31.9883 15.6526 32.0116 15.6759C32.0116 15.6526 32.0116 15.6059 31.9883 15.5825Z" fill="#C5C5C5"/>
<path d="M24.2864 17.533C24.2864 17.298 24.3332 17.0865 24.3801 16.8986C24.3801 16.8986 24.3801 16.8986 24.3801 16.9221C24.0523 18.5668 22.5774 20.5876 20.8216 20.94C15.6947 21.9504 13.9857 16.6166 12.1129 13.0686C11.5744 12.0817 10.4273 8.98012 7.03276 8.86264C3.24023 8.74515 -0.71617 12.3637 0.852344 18.8018C2.04629 23.6892 8.17988 35.5081 20.4705 32.524C23.3032 31.8426 25.7847 29.9393 27.681 27.8246C25.2931 24.7465 24.0289 20.3996 24.3098 17.533H24.2864Z" fill="#C5C5C5"/>
<path d="M32.269 17.0155C32.269 16.71 32.1989 16.4046 32.1289 16.0991C32.1989 16.4046 32.2456 16.757 32.269 17.133C32.269 17.086 32.269 17.0625 32.269 17.0155Z" fill="#C5C5C5"/>
<path d="M43.3901 18.731C42.0557 18.0496 41.213 19.201 40.6043 20.6578C39.5742 23.1719 37.2097 24.5113 35.5242 23.9003C34.3536 23.4774 33.6279 22.3026 33.0895 21.0337C32.4574 19.5299 32.3871 18.7545 32.2701 17.1567C32.2701 17.3447 32.2701 17.5327 32.2701 17.7442C32.2701 18.872 31.6146 21.1982 31.0527 22.5845C30.444 24.0648 29.2501 26.0386 27.6348 27.8243C29.2969 29.9625 31.4975 31.4663 34.0961 31.4663C39.8083 31.4663 42.6176 25.9446 44.0456 22.0441C44.8416 19.8119 44.3032 19.201 43.3667 18.731H43.3901Z" fill="#C5C5C5"/>
<path d="M31.8008 15.1128C31.8008 15.1128 31.8008 15.1588 31.8241 15.1818C31.8241 15.1818 31.8241 15.1358 31.8008 15.1128Z" fill="#C5C5C5"/>
<path d="M31.8945 15.3477C31.8945 15.3477 31.9646 15.5121 31.9879 15.5826C31.9646 15.4886 31.9179 15.4181 31.8945 15.3477Z" fill="#C5C5C5"/>
<path d="M32.0352 15.6763C32.0818 15.7938 32.1052 15.9347 32.1519 16.0757C32.1285 15.9347 32.0818 15.8173 32.0352 15.6763Z" fill="#C5C5C5"/>
<path d="M32.3173 17.7442C32.3173 17.5328 32.3173 17.3448 32.3173 17.1568C32.3173 17.1568 32.3173 17.1568 32.3173 17.1333C32.2939 16.7574 32.247 16.4049 32.1768 16.0995C32.1534 15.9585 32.1066 15.841 32.0598 15.7C32.0598 15.6765 32.0597 15.6295 32.0363 15.606C32.0129 15.512 31.9661 15.4415 31.9427 15.3711C31.9427 15.3241 31.8959 15.2536 31.8725 15.2066C31.8725 15.2066 31.8725 15.1596 31.8491 15.1361C31.732 14.8776 31.5681 14.6426 31.4043 14.4077C31.3574 14.3607 31.3106 14.2902 31.2638 14.2432C30.6551 13.5853 29.8826 13.2328 29.0866 13.1154C28.8759 13.0919 28.6652 13.0684 28.4311 13.0684C28.3843 13.0684 28.3375 13.0684 28.2906 13.0684C28.2672 13.0684 28.2204 13.0684 28.197 13.0684C28.1033 13.0684 27.9863 13.0684 27.8927 13.1154C27.8927 13.1154 27.8927 13.1154 27.8692 13.1154C27.799 13.1154 27.7288 13.1388 27.6585 13.1623C27.0967 13.3033 26.5114 13.5853 25.973 14.0552C25.973 14.0552 25.973 14.0552 25.9496 14.0552C25.9027 14.1022 25.8559 14.1492 25.7857 14.2197C25.7389 14.2667 25.6686 14.3372 25.6218 14.4077C25.0834 15.0186 24.662 15.8645 24.4513 16.9218C24.4045 17.1333 24.3811 17.3448 24.3576 17.5563C24.1001 20.4464 25.3409 24.7698 27.7288 27.8479C29.3441 26.0386 30.5381 24.0884 31.1467 22.6081C31.7086 21.2218 32.3641 18.8956 32.3641 17.7677L32.3173 17.7442Z" fill="#C5C5C5"/>
<path d="M50.9276 10.1078C50.7872 10.2018 50.6935 10.2488 50.6467 10.2488C50.5999 10.2488 50.553 10.2018 50.4828 10.1313L49.921 9.3794C49.921 9.3794 49.8039 9.19142 49.8273 9.12093C49.8507 9.05044 49.8975 9.00345 49.9912 8.93295C50.4126 8.65099 50.7637 8.29854 51.0447 7.92259C51.349 7.54664 51.5831 7.14719 51.7704 6.72425C51.9577 6.30131 52.0982 5.85487 52.2152 5.38493C52.3088 4.91499 52.3557 4.44505 52.3557 3.97512C52.3557 3.83414 52.3557 3.76365 52.4025 3.71665C52.4259 3.69315 52.4961 3.66966 52.6132 3.69315L53.6901 3.74015C53.6901 3.74015 53.8305 3.76364 53.8774 3.78714C53.9008 3.81064 53.9242 3.88113 53.9242 3.97512C53.9242 4.60953 53.8774 5.19695 53.7603 5.76088C53.8539 6.04284 53.9944 6.30131 54.1817 6.55977C54.369 6.81824 54.5563 7.05321 54.767 7.28817C54.9777 7.52314 55.1884 7.71112 55.3991 7.89909C55.6097 8.08707 55.8204 8.22805 56.0077 8.34553C56.1248 8.41602 56.1716 8.48651 56.1716 8.53351C56.1716 8.557 56.1716 8.604 56.1248 8.65099C56.1014 8.69798 56.078 8.74498 56.0546 8.76848L55.6097 9.52038C55.6097 9.52038 55.4927 9.66136 55.4459 9.66136C55.3991 9.66136 55.3288 9.63786 55.2118 9.56737C55.0713 9.49688 54.884 9.37939 54.7201 9.23841C54.5329 9.09743 54.3456 8.95645 54.1817 8.79197C53.9944 8.6275 53.8305 8.43952 53.6433 8.22805C53.4794 8.01658 53.3155 7.80511 53.175 7.57014C52.66 8.604 51.9343 9.44988 50.951 10.1078H50.9276ZM55.0947 15.1831C54.6031 15.1831 54.1349 15.1126 53.7369 14.9951C53.3389 14.8777 52.9643 14.7132 52.6366 14.4782C52.3323 14.2667 52.0981 14.0083 51.9109 13.7263C51.747 13.4444 51.6533 13.1154 51.6533 12.7629C51.6533 12.4105 51.747 12.1285 51.9109 11.8231C52.0747 11.5411 52.3323 11.2826 52.6366 11.0712C52.9409 10.8597 53.3155 10.6952 53.7369 10.5542C54.1583 10.4133 54.6031 10.3663 55.0947 10.3663C55.5863 10.3663 56.0077 10.4368 56.4291 10.5542C56.8505 10.6717 57.2251 10.8362 57.5528 11.0477C57.8806 11.2591 58.1147 11.5176 58.302 11.7996C58.4893 12.0815 58.5829 12.4105 58.5829 12.7394C58.5829 13.0684 58.4893 13.4209 58.302 13.7028C58.1147 13.9848 57.8572 14.2432 57.5528 14.4547C57.2251 14.6662 56.8739 14.8307 56.4291 14.9716C56.0077 15.0891 55.5629 15.1596 55.0947 15.1596V15.1831ZM55.0947 11.7291C54.5329 11.7291 54.0881 11.8466 53.7603 12.058C53.4326 12.2695 53.2687 12.528 53.2687 12.8099C53.2687 13.0919 53.4326 13.3269 53.7603 13.5383C54.0881 13.7498 54.5329 13.8438 55.0947 13.8438C55.3522 13.8438 55.6097 13.8203 55.8439 13.7498C56.078 13.7028 56.2652 13.6088 56.4291 13.5148C56.593 13.4209 56.7335 13.3034 56.8271 13.1859C56.9207 13.0684 56.9676 12.9274 56.9676 12.7864C56.9676 12.6455 56.9207 12.5045 56.8271 12.387C56.7335 12.2695 56.593 12.152 56.4291 12.0345C56.2652 11.9406 56.0546 11.8466 55.8439 11.7996C55.6097 11.7291 55.3756 11.7056 55.1181 11.7056L55.0947 11.7291ZM59.8939 7.61713H58.4893V9.84933C58.4893 9.99031 58.419 10.0608 58.2786 10.0608H57.1314C56.9676 10.0608 56.8973 9.99031 56.8973 9.82583V3.62266C56.8973 3.62266 56.8973 3.48168 56.9442 3.43469C56.9676 3.41119 57.0378 3.3877 57.1314 3.3877H58.2786C58.2786 3.3877 58.419 3.3877 58.4424 3.43469C58.4659 3.45819 58.4893 3.52868 58.4893 3.62266V6.20732H59.8939C59.8939 6.20732 60.011 6.20732 60.0578 6.23082C60.1046 6.23082 60.128 6.3248 60.128 6.41879V7.33517C60.128 7.49965 60.0578 7.57014 59.8939 7.57014V7.61713Z" fill="#C5C5C5"/>
<path d="M61.4386 10.1314C61.4386 10.1314 61.2513 10.2253 61.2279 10.2018C61.1811 10.1783 61.1343 10.1314 61.0875 10.0609L60.549 9.35596C60.549 9.35596 60.432 9.21498 60.4085 9.14448C60.3851 9.07399 60.4085 9.0035 60.5256 8.90952C60.947 8.60406 61.2747 8.2516 61.5557 7.87565C61.8366 7.4997 62.0473 7.10026 62.2346 6.67731C62.3985 6.25437 62.5389 5.83143 62.6092 5.40848C62.6794 4.96204 62.7262 4.5391 62.7262 4.09266C62.7262 3.97518 62.7262 3.90469 62.773 3.88119C62.8198 3.85769 62.8667 3.83419 62.9837 3.83419L64.0372 3.90469C64.0372 3.90469 64.1777 3.92818 64.2245 3.97518C64.2479 3.99867 64.2713 4.06916 64.2713 4.16315C64.2713 4.5156 64.2713 4.84456 64.2245 5.17352C64.1777 5.50247 64.1308 5.80793 64.0606 6.11339C64.2713 6.63032 64.5288 7.05326 64.8332 7.40572C65.1375 7.75817 65.4887 8.06363 65.8398 8.34559C65.9335 8.41608 65.9569 8.46308 65.9569 8.51007C65.9569 8.55706 65.9335 8.60406 65.8866 8.67455L65.3716 9.49694C65.3716 9.49694 65.2546 9.63792 65.1843 9.63792C65.1141 9.63792 65.0673 9.61442 64.9736 9.54393C64.8566 9.47344 64.7395 9.37945 64.5991 9.26197C64.4586 9.14448 64.3181 9.027 64.1777 8.86252C64.0372 8.72154 63.8967 8.55706 63.7563 8.39259C63.6158 8.22811 63.4988 8.04013 63.3817 7.87565C63.1476 8.34559 62.8433 8.74504 62.5389 9.12099C62.2112 9.49694 61.86 9.8024 61.462 10.0844L61.4386 10.1314ZM66.4485 15.1597C65.9335 15.1597 65.4653 15.1127 64.997 14.9952C64.5522 14.8777 64.1308 14.7367 63.8031 14.5253C63.4519 14.3138 63.1944 14.0788 62.9837 13.7734C62.773 13.4679 62.6794 13.139 62.6794 12.763C62.6794 12.3871 62.773 12.0816 62.9837 11.7761C63.171 11.4942 63.4519 11.2357 63.8031 11.0242C64.1543 10.8128 64.5522 10.6483 64.997 10.5543C65.4418 10.4368 65.9335 10.3898 66.4485 10.3898C66.9167 10.3898 67.3849 10.4368 67.8531 10.5543C68.2979 10.6718 68.7193 10.8128 69.0705 11.0242C69.4217 11.2357 69.7026 11.4707 69.9133 11.7761C70.124 12.0581 70.241 12.3871 70.241 12.763C70.241 13.139 70.124 13.4679 69.9133 13.7734C69.7026 14.0788 69.4217 14.3138 69.0705 14.5253C68.7193 14.7367 68.3214 14.9012 67.8531 14.9952C67.4083 15.1127 66.9401 15.1597 66.4485 15.1597ZM66.4485 11.7526C66.1442 11.7526 65.8632 11.7761 65.6057 11.8231C65.3482 11.8701 65.1141 11.9406 64.9268 12.0581C64.7395 12.1521 64.5991 12.2696 64.482 12.3871C64.365 12.5045 64.3181 12.6455 64.3181 12.7865C64.3181 12.9275 64.365 13.0685 64.482 13.1859C64.5991 13.3034 64.7395 13.4209 64.9268 13.4914C65.1141 13.5619 65.3482 13.6559 65.6057 13.7029C65.8632 13.7499 66.1442 13.7734 66.4485 13.7734C66.6826 13.7734 66.9401 13.7734 67.1976 13.7264C67.4552 13.6794 67.6893 13.6324 67.9 13.5384C68.1107 13.4444 68.2745 13.3504 68.415 13.2329C68.5555 13.1155 68.6257 12.951 68.6257 12.7865C68.6257 12.6455 68.5555 12.5045 68.4384 12.3871C68.3214 12.2696 68.1575 12.1521 67.9702 12.0581C67.7829 11.9641 67.5488 11.8936 67.2913 11.8231C67.0338 11.7761 66.7528 11.7526 66.4719 11.7526H66.4485ZM69.9133 10.1314H68.7896C68.6491 10.1314 68.5789 10.0609 68.5789 9.89639V7.4997H67.7595V9.54393C67.7595 9.54393 67.7595 9.70841 67.7127 9.73191C67.6893 9.7554 67.6424 9.7789 67.5488 9.7789H66.4719C66.4719 9.7789 66.3314 9.7789 66.2846 9.7554C66.2612 9.7554 66.2378 9.66142 66.2378 9.54393V3.8107C66.2378 3.8107 66.2378 3.66972 66.2846 3.62272C66.308 3.59923 66.3783 3.57573 66.4719 3.57573H67.5488C67.6893 3.57573 67.7595 3.64622 67.7595 3.7872V6.11339H68.5789V3.59923C68.5789 3.59923 68.5789 3.45825 68.6257 3.41125C68.6491 3.38775 68.7193 3.36426 68.813 3.36426H69.9367C69.9367 3.36426 70.0772 3.36426 70.1006 3.41125C70.124 3.43475 70.1474 3.50524 70.1474 3.59923V9.87289C70.1474 9.87289 70.1474 10.0139 70.1006 10.0609C70.0772 10.0844 70.0069 10.1079 69.9367 10.1079L69.9133 10.1314Z" fill="#C5C5C5"/>
<path d="M77.5926 6.20732H71.7165C71.5527 6.20732 71.4824 6.11333 71.4824 5.94885V5.26744C71.4824 5.07947 71.5761 5.00898 71.7399 5.00898H77.616C77.7799 5.00898 77.8501 5.10297 77.8501 5.26744V5.94885C77.8501 6.11333 77.7799 6.20732 77.616 6.20732H77.5926ZM74.6663 10.2253C74.3385 10.2253 74.0342 10.1783 73.7298 10.0843C73.4255 9.99031 73.168 9.84933 72.9573 9.68485C72.7466 9.52038 72.5593 9.3089 72.4188 9.09743C72.2784 8.86246 72.2082 8.6275 72.2082 8.34553C72.2082 8.06357 72.2784 7.8286 72.4188 7.61713C72.5593 7.40566 72.7232 7.19419 72.9573 7.02971C73.1914 6.86523 73.4489 6.72425 73.7298 6.65376C74.0342 6.55977 74.3385 6.51278 74.6663 6.51278C74.994 6.51278 75.3218 6.55977 75.6261 6.65376C75.9304 6.74775 76.188 6.86523 76.4221 7.02971C76.6562 7.19419 76.8201 7.38216 76.9605 7.61713C77.101 7.8521 77.1712 8.08707 77.1712 8.34553C77.1712 8.604 77.101 8.86246 76.9605 9.09743C76.8201 9.3324 76.6562 9.52038 76.4221 9.68485C76.188 9.84933 75.9304 9.99031 75.6261 10.0843C75.3218 10.1783 74.994 10.2253 74.6663 10.2253ZM76.1177 4.60953H73.2616C73.2616 4.60953 73.1446 4.60953 73.0978 4.56254C73.0509 4.51554 73.0275 4.46855 73.0275 4.35107V3.66966C73.0275 3.66966 73.0509 3.48168 73.0978 3.45819C73.1446 3.43469 73.1914 3.41119 73.2616 3.41119H76.1177C76.2816 3.41119 76.3752 3.50518 76.3752 3.66966V4.32757C76.3752 4.32757 76.3753 4.49205 76.3284 4.53904C76.2816 4.58604 76.2348 4.60953 76.1177 4.60953ZM79.5123 14.9482H74.3853C74.1981 14.9482 74.0576 14.9482 73.9405 14.9012C73.8235 14.8777 73.7298 14.8307 73.683 14.7837C73.6128 14.7132 73.566 14.6427 73.5426 14.5252C73.5191 14.4077 73.4957 14.2667 73.4957 14.0788V10.9772C73.4957 10.8127 73.566 10.7422 73.7064 10.7422H74.8301C74.8301 10.7422 74.9706 10.7422 75.0174 10.7892C75.0408 10.8127 75.0643 10.8832 75.0643 10.9772V11.6821H78.8334V10.8832C78.8334 10.7187 78.9036 10.6482 79.0441 10.6482H80.1912C80.3317 10.6482 80.4019 10.7187 80.4019 10.8832V14.1258C80.4019 14.4312 80.3551 14.6662 80.238 14.7837C80.121 14.9012 79.8869 14.9716 79.5357 14.9716L79.5123 14.9482ZM74.6897 7.66412C74.3619 7.66412 74.1278 7.73461 73.964 7.89909C73.8001 8.04007 73.7064 8.20455 73.7064 8.34553C73.7064 8.51001 73.8001 8.67449 73.964 8.83897C74.1278 9.00345 74.3853 9.07394 74.6897 9.07394C74.994 9.07394 75.275 9.00345 75.4388 8.83897C75.6027 8.67449 75.6963 8.53351 75.6963 8.34553C75.6963 8.18106 75.6027 8.04007 75.4388 7.89909C75.275 7.75811 75.0174 7.66412 74.6897 7.66412ZM78.8334 12.9039H75.0643V13.5853C75.0643 13.5853 75.1111 13.7028 75.1813 13.7028H78.7397C78.7397 13.7028 78.8334 13.6558 78.8334 13.5853V12.9039ZM77.7565 9.61436C77.7565 9.61436 77.616 9.61436 77.5926 9.56737C77.5458 9.54387 77.5458 9.47338 77.5458 9.3794V8.5805C77.5458 8.5805 77.5458 8.39253 77.616 8.36903C77.6628 8.36903 77.7097 8.34553 77.7799 8.34553H78.8568V7.73461H77.7799C77.616 7.73461 77.5458 7.66412 77.5458 7.49965V6.70075C77.5458 6.70075 77.5458 6.53627 77.616 6.51278C77.6628 6.48928 77.7097 6.46578 77.7799 6.46578H78.8568V3.62266C78.8568 3.62266 78.8568 3.45819 78.927 3.43469C78.9738 3.41119 79.0207 3.3877 79.0909 3.3877H80.238C80.238 3.3877 80.4019 3.3877 80.4019 3.45819C80.4019 3.50518 80.4019 3.55217 80.4019 3.62266V9.82583C80.4019 9.82583 80.4019 9.96682 80.3551 10.0138C80.3317 10.0373 80.2614 10.0608 80.1912 10.0608H79.0441C79.0441 10.0608 78.9036 10.0608 78.8802 10.0138C78.8568 9.99031 78.8334 9.91982 78.8334 9.82583V9.59087H77.7565V9.61436Z" fill="#C5C5C5"/>
<path d="M87.9159 9.84933C87.237 9.99031 86.5347 10.1078 85.8324 10.1548C85.1301 10.2018 84.3809 10.2253 83.585 10.1783C83.2572 10.1783 83.0465 10.0843 82.9295 9.96681C82.8124 9.84933 82.7422 9.63786 82.7422 9.3324V7.05321C82.7422 6.79474 82.789 6.60676 82.8827 6.51278C82.9763 6.41879 83.1636 6.3718 83.3977 6.3718H85.5046C85.5046 6.3718 85.6217 6.3718 85.6451 6.3483C85.6451 6.3483 85.6685 6.27781 85.6685 6.20732V5.43192C85.6685 5.43192 85.6685 5.31444 85.6451 5.29094C85.6451 5.29094 85.5749 5.26744 85.5046 5.26744H83.0231C82.8826 5.26744 82.789 5.19695 82.789 5.03248V4.1161C82.789 3.97512 82.8592 3.90463 83.0231 3.90463H86.4645C86.7922 3.90463 87.0029 3.97512 87.0966 4.0926C87.1902 4.21009 87.237 4.42156 87.237 4.75051V6.81824C87.237 7.17069 87.1668 7.38216 87.0498 7.49964C86.9327 7.61713 86.7454 7.66412 86.4645 7.66412H84.4512C84.4512 7.66412 84.3107 7.71112 84.3107 7.8286V8.72148C84.3107 8.72148 84.3575 8.86246 84.4746 8.88596C84.9896 8.88596 85.5281 8.88596 86.0665 8.83897C86.605 8.79197 87.1668 8.72148 87.7521 8.604C87.8223 8.604 87.8691 8.604 87.8925 8.604C87.9159 8.604 87.9394 8.67449 87.9394 8.74498L88.0564 9.61436C88.0564 9.61436 88.0564 9.75534 88.0564 9.80234C88.033 9.82583 87.9862 9.84933 87.8925 9.87283L87.9159 9.84933ZM90.8891 15.0656H89.7654C89.6015 15.0656 89.5313 14.9951 89.5313 14.8307V12.5985C89.5313 12.481 89.4845 12.4105 89.3674 12.4105H84.2873C84.2873 12.4105 84.1702 12.4105 84.1234 12.3635C84.0766 12.34 84.0532 12.293 84.0532 12.199V11.2591C84.0532 11.2591 84.0532 11.0712 84.1234 11.0477C84.1702 11.0477 84.2171 11.0242 84.2873 11.0242H90.3038C90.4677 11.0242 90.6082 11.0242 90.7252 11.0712C90.8423 11.0947 90.9125 11.1417 90.9593 11.2121C91.0062 11.2826 91.053 11.3766 91.0764 11.4941C91.0998 11.6116 91.0998 11.7526 91.0998 11.9171V14.8072C91.0998 14.9716 91.0296 15.0421 90.8891 15.0421V15.0656ZM90.8891 10.3663H89.742C89.742 10.3663 89.6015 10.3663 89.5781 10.3193C89.5547 10.2723 89.5313 10.2253 89.5313 10.1313V8.29854H88.1032C88.1032 8.29854 87.9628 8.29854 87.9394 8.25154C87.8925 8.22805 87.8925 8.15756 87.8925 8.06357V7.17069C87.8925 7.17069 87.8925 7.02971 87.9394 6.98271C87.9862 6.93572 88.033 6.93572 88.1032 6.93572H89.5313V6.06634H88.1032C88.1032 6.06634 87.9628 6.06634 87.9394 6.01934C87.8925 5.99585 87.8925 5.92536 87.8925 5.83137V4.96198C87.8925 4.96198 87.8925 4.79751 87.9394 4.77401C87.9862 4.75051 88.033 4.72702 88.1032 4.72702H89.5313V3.62266C89.5313 3.62266 89.5313 3.45819 89.6015 3.43469C89.6483 3.41119 89.6952 3.3877 89.7654 3.3877H90.9125C90.9125 3.3877 91.0764 3.3877 91.0764 3.45819C91.0764 3.50518 91.0764 3.55217 91.0764 3.62266V10.1078C91.0764 10.1078 91.0764 10.2488 91.0296 10.2958C91.0062 10.3428 90.9359 10.3428 90.8657 10.3428L90.8891 10.3663Z" fill="#C5C5C5"/>
<path d="M94.0739 12.575C94.0739 12.575 93.8867 12.669 93.8398 12.669C93.793 12.669 93.7228 12.622 93.6525 12.528L93.1141 11.6821C93.1141 11.6821 93.0439 11.5176 93.0673 11.4471C93.0673 11.3766 93.1375 11.3061 93.2077 11.2826C94.3549 10.6012 95.2679 9.80234 95.9234 8.88596C96.5789 7.99308 96.9769 7.00621 97.1407 5.92536C97.1407 5.76088 97.0939 5.66689 96.9534 5.66689H93.7696C93.7696 5.66689 93.6057 5.66689 93.5823 5.6199C93.5823 5.5729 93.5589 5.52591 93.5589 5.43192V4.51554C93.5589 4.51554 93.5589 4.35107 93.6057 4.32757C93.6291 4.30407 93.6994 4.28058 93.7696 4.28058H97.9133C98.2879 4.28058 98.5454 4.37456 98.6624 4.53904C98.7795 4.70352 98.8497 4.96198 98.8263 5.31444C98.7795 6.04284 98.639 6.74775 98.4049 7.45265C98.1708 8.13406 97.8431 8.79197 97.4451 9.40289C97.0471 10.0138 96.5555 10.6012 95.9936 11.1182C95.4318 11.6586 94.7997 12.1285 94.0739 12.528V12.575ZM101.636 15.0891H100.488C100.488 15.0891 100.348 15.0891 100.325 15.0421C100.301 15.0186 100.278 14.9481 100.278 14.8542V3.62266C100.278 3.62266 100.278 3.48168 100.325 3.43469C100.348 3.41119 100.418 3.3877 100.488 3.3877H101.636C101.636 3.3877 101.776 3.3877 101.799 3.43469C101.823 3.45819 101.846 3.52868 101.846 3.62266V14.8542C101.846 14.8542 101.846 15.0186 101.799 15.0421C101.776 15.0656 101.706 15.0891 101.636 15.0891Z" fill="#C5C5C5"/>
<path d="M113.34 9.215H103.554C103.554 9.215 103.391 9.215 103.367 9.14451C103.344 9.07402 103.344 9.05052 103.344 8.95654V8.08715C103.344 8.08715 103.344 7.92267 103.391 7.87568C103.414 7.82869 103.484 7.82869 103.578 7.82869H110.39C110.414 7.64071 110.461 7.42924 110.484 7.19427C110.507 6.93581 110.531 6.70084 110.554 6.46587C110.554 6.2309 110.578 6.01943 110.601 5.83145C110.601 5.64348 110.601 5.526 110.601 5.43201C110.601 5.31452 110.601 5.22054 110.554 5.17354C110.531 5.12655 110.437 5.10305 110.297 5.10305H105.146C105.146 5.10305 105.006 5.10305 104.959 5.07956C104.912 5.07956 104.889 4.98557 104.889 4.89158V3.95171C104.889 3.95171 104.889 3.81072 104.959 3.78723C105.006 3.76373 105.053 3.74023 105.146 3.74023H111.374C111.655 3.74023 111.842 3.81073 111.982 3.92821C112.123 4.04569 112.17 4.28066 112.17 4.58612C112.17 5.00906 112.17 5.526 112.123 6.11342C112.076 6.70084 112.006 7.28826 111.912 7.85218H113.364C113.364 7.85218 113.481 7.85218 113.527 7.89918C113.574 7.94617 113.598 7.99317 113.598 8.11065V8.98003C113.598 9.14451 113.527 9.2385 113.364 9.2385L113.34 9.215ZM111.186 14.7603H105.778C105.591 14.7603 105.427 14.7603 105.334 14.7133C105.217 14.6898 105.123 14.6428 105.076 14.5723C105.006 14.5018 104.959 14.4078 104.936 14.2903C104.912 14.1728 104.912 14.0319 104.912 13.8439V11.2122C104.912 10.8598 104.982 10.6248 105.1 10.4838C105.217 10.3429 105.427 10.2959 105.755 10.2959H111.186C111.374 10.2959 111.537 10.2959 111.631 10.3429C111.748 10.3663 111.842 10.4133 111.889 10.4838C111.935 10.5543 112.006 10.6483 112.029 10.7658C112.029 10.8833 112.053 11.0478 112.053 11.2122V13.8439C112.053 14.0319 112.053 14.1728 112.006 14.2903C111.982 14.4078 111.935 14.5018 111.865 14.5488C111.795 14.6193 111.725 14.6663 111.608 14.6898C111.491 14.7133 111.374 14.7368 111.21 14.7368L111.186 14.7603ZM110.437 11.8701C110.437 11.8701 110.39 11.7292 110.32 11.7292H106.621C106.621 11.7292 106.481 11.7762 106.481 11.8936V13.2565C106.481 13.2565 106.528 13.3974 106.621 13.3974H110.32C110.32 13.3974 110.414 13.3974 110.437 13.3974C110.437 13.3974 110.461 13.327 110.461 13.2565V11.8936L110.437 11.8701Z" fill="#C5C5C5"/>
<path d="M59.1679 23.7829C59.1679 23.7829 59.0977 23.8299 59.0742 23.8299H50.7166C50.7166 23.8299 50.6464 23.8299 50.623 23.7829C50.5996 23.7594 50.5762 23.7125 50.5762 23.689V23.031C50.5762 23.031 50.623 22.8666 50.7166 22.8666H54.3453V21.7857C54.3453 21.7857 54.3921 21.6447 54.4858 21.6447H55.3285C55.3285 21.6447 55.469 21.6917 55.469 21.7857V22.8666H59.0508C59.0508 22.8666 59.1211 22.8666 59.1679 22.9136C59.2147 22.9371 59.2381 22.9841 59.2381 23.031V23.689C59.2381 23.689 59.2381 23.7594 59.1913 23.7829H59.1679ZM51.6765 21.9972C51.6765 21.9972 51.4892 21.9972 51.4658 21.8797L51.2785 21.2923C51.2785 21.2923 51.2785 21.1983 51.3019 21.1748C51.3253 21.1278 51.3721 21.1043 51.3955 21.1043C51.7233 21.0338 52.0745 20.9633 52.4724 20.8458C52.8704 20.7284 53.2216 20.6109 53.5961 20.4934C53.9707 20.3524 54.3219 20.2349 54.673 20.0704C55.0242 19.9295 55.3285 19.765 55.6095 19.624C55.7031 19.577 55.7499 19.53 55.7733 19.483C55.7968 19.436 55.7499 19.4125 55.6095 19.4125H52.1447C52.1447 19.4125 52.0276 19.3655 52.0276 19.2715V18.5901C52.0276 18.5901 52.0745 18.4727 52.1447 18.4727H56.7098C56.9673 18.4727 57.1546 18.5196 57.3184 18.5901C57.4823 18.6841 57.5525 18.8016 57.5525 18.9661C57.5525 19.1071 57.5057 19.2481 57.4121 19.3655C57.3184 19.483 57.2482 19.577 57.2014 19.6475C57.0609 19.7885 56.8971 19.9295 56.7098 20.0469C56.5225 20.1644 56.3118 20.3289 56.0777 20.4464C56.2416 20.4934 56.4288 20.5404 56.6395 20.5874C56.8502 20.6344 57.0609 20.6814 57.2716 20.7284C57.4823 20.7753 57.693 20.8223 57.9037 20.8693C58.1144 20.9163 58.3017 20.9398 58.489 20.9633C58.5358 20.9633 58.5826 20.9868 58.606 21.0338C58.6294 21.0573 58.6294 21.1043 58.606 21.1748L58.4187 21.7387C58.4187 21.7387 58.3719 21.8092 58.3485 21.8327C58.3251 21.8562 58.2549 21.8797 58.208 21.8562C57.9739 21.8092 57.693 21.7622 57.4121 21.7152C57.1312 21.6682 56.8502 21.5977 56.5459 21.5037C56.2416 21.4333 55.9606 21.3393 55.6563 21.2688C55.3754 21.1983 55.0944 21.1043 54.8369 21.0338C54.3687 21.2218 53.8771 21.4098 53.3386 21.5742C52.8002 21.7387 52.2383 21.8797 51.6531 21.9972H51.6765ZM57.9271 26.2736C57.9271 26.5321 57.8569 26.767 57.7164 27.002C57.576 27.237 57.3887 27.4015 57.1312 27.5659C56.8736 27.7304 56.5459 27.8479 56.1713 27.9419C55.7968 28.0359 55.3754 28.0594 54.8837 28.0594C54.3921 28.0594 53.9707 28.0124 53.5961 27.9419C53.2216 27.8479 52.8938 27.7304 52.6363 27.5659C52.3788 27.4015 52.1915 27.2135 52.051 27.002C51.9106 26.7905 51.8404 26.5321 51.8404 26.2736C51.8404 26.0151 51.9106 25.7802 52.051 25.5687C52.1915 25.3572 52.3788 25.1693 52.6363 25.0048C52.8938 24.8403 53.2216 24.7228 53.5961 24.6288C53.9707 24.5348 54.3921 24.4879 54.8837 24.4879C55.3754 24.4879 55.7968 24.5348 56.1713 24.6288C56.5459 24.7228 56.8736 24.8403 57.1312 25.0048C57.3887 25.1693 57.576 25.3572 57.7164 25.5687C57.8569 25.7802 57.9271 26.0151 57.9271 26.2736ZM54.8837 25.4042C54.2516 25.4042 53.76 25.4982 53.4323 25.6862C53.1045 25.8742 52.9406 26.0621 52.9406 26.2971C52.9406 26.5321 53.1045 26.7201 53.4323 26.908C53.76 27.096 54.2516 27.1665 54.8837 27.1665C55.5158 27.1665 56.0074 27.0725 56.3352 26.908C56.6629 26.7435 56.8268 26.5321 56.8268 26.2971C56.8268 26.0621 56.6629 25.8742 56.3352 25.6862C56.0074 25.4982 55.5158 25.4042 54.8837 25.4042Z" fill="#C5C5C5"/>
<path d="M65.1599 20.3291C65.1599 20.3291 65.0897 20.3761 65.0663 20.3761H60.0096C60.0096 20.3761 59.9393 20.3761 59.8925 20.3291C59.8691 20.3056 59.8457 20.2586 59.8457 20.2116V19.6712C59.8457 19.6712 59.8457 19.6007 59.8925 19.5537C59.9159 19.5302 59.9628 19.5067 60.0096 19.5067H65.0663C65.0663 19.5067 65.1365 19.5067 65.1599 19.5537C65.1833 19.6007 65.2067 19.6242 65.2067 19.6712V20.2116C65.2067 20.2116 65.2067 20.2821 65.1599 20.3291ZM62.6082 20.6815C62.8891 20.6815 63.17 20.7285 63.4275 20.799C63.685 20.8695 63.8957 20.987 64.083 21.128C64.2703 21.2689 64.4108 21.4334 64.5278 21.6214C64.6449 21.8094 64.6917 22.0443 64.6917 22.2793C64.6917 22.5143 64.6449 22.7492 64.5278 22.9372C64.4108 23.1252 64.2703 23.3132 64.083 23.4542C63.8957 23.5951 63.685 23.7126 63.4275 23.7831C63.17 23.8536 62.9125 23.9006 62.6082 23.9006C62.3038 23.9006 62.0463 23.8536 61.8122 23.7831C61.5547 23.7126 61.344 23.5951 61.1567 23.4542C60.9694 23.3132 60.8289 23.1487 60.7119 22.9372C60.5948 22.7492 60.548 22.5143 60.548 22.2793C60.548 22.0443 60.5948 21.8094 60.7119 21.6214C60.8289 21.4334 60.9694 21.2454 61.1567 21.128C61.344 21.0105 61.5547 20.8695 61.8122 20.799C62.0697 20.7285 62.3272 20.6815 62.6082 20.6815ZM63.9192 19.0837C63.9192 19.0837 63.8489 19.1307 63.8021 19.1307H61.3206C61.3206 19.1307 61.2738 19.1307 61.2269 19.0837C61.1801 19.0367 61.1801 19.0132 61.1801 18.9663V18.4258C61.1801 18.4258 61.1801 18.3318 61.2269 18.3083C61.2738 18.2848 61.2972 18.2613 61.3206 18.2613H63.8021C63.8021 18.2613 63.8957 18.2613 63.9192 18.3083C63.9426 18.3318 63.966 18.3788 63.966 18.4258V18.9428C63.966 18.9428 63.966 19.0132 63.9192 19.0602V19.0837ZM66.7987 27.6836C66.7987 27.6836 66.4943 27.8481 66.2368 27.8481H62.0463C61.7654 27.8481 61.5547 27.8011 61.461 27.6836C61.3674 27.5896 61.2972 27.4016 61.2972 27.1197V24.5115C61.2972 24.5115 61.2972 24.441 61.344 24.4175C61.3674 24.394 61.3908 24.3705 61.4376 24.3705H62.2804C62.2804 24.3705 62.3506 24.3705 62.3741 24.4175C62.3975 24.441 62.4209 24.4645 62.4209 24.5115V25.2869H65.8622V24.4645C65.8622 24.4645 65.8622 24.394 65.9091 24.3705C65.9325 24.347 65.9559 24.3235 66.0027 24.3235H66.8689C66.8689 24.3235 66.9391 24.3235 66.9625 24.3705C66.986 24.394 67.0094 24.441 67.0094 24.4645V27.1432C67.0094 27.3781 66.9625 27.5426 66.8455 27.6601L66.7987 27.6836ZM62.6082 21.5509C62.3038 21.5509 62.0697 21.6214 61.859 21.7624C61.6717 21.9034 61.5547 22.0913 61.5547 22.3028C61.5547 22.5143 61.6483 22.7023 61.859 22.8432C62.0463 22.9842 62.3038 23.0547 62.6082 23.0547C62.9125 23.0547 63.17 22.9842 63.3573 22.8432C63.5446 22.7023 63.6382 22.5143 63.6382 22.3028C63.6382 22.0913 63.5446 21.9034 63.3573 21.7624C63.17 21.6214 62.9125 21.5509 62.6082 21.5509ZM65.8388 26.2268H62.3975V26.7672C62.3975 26.7672 62.4677 26.9317 62.5848 26.9317H65.675C65.792 26.9317 65.8622 26.8847 65.8622 26.7672V26.2268H65.8388ZM68.3438 21.6449C68.3438 21.6449 68.2735 21.6919 68.2501 21.6919H66.9625V23.7361C66.9625 23.7361 66.9625 23.8066 66.9157 23.8301C66.8923 23.8536 66.8689 23.8771 66.8221 23.8771H65.9559C65.9559 23.8771 65.8857 23.8771 65.8622 23.8301C65.8388 23.8066 65.8154 23.7596 65.8154 23.7126V18.3553C65.8154 18.3553 65.8622 18.2144 65.9325 18.2144H66.7987C66.7987 18.2144 66.9157 18.2613 66.9157 18.3553V20.705H68.2033C68.2033 20.705 68.2735 20.705 68.297 20.752C68.3204 20.799 68.3438 20.799 68.3438 20.846V21.5744C68.3438 21.5744 68.3438 21.6449 68.297 21.6684L68.3438 21.6449Z" fill="#C5C5C5"/>
<path d="M68.9081 23.1251C69.189 23.1251 69.4934 23.1251 69.7743 23.1251H70.6873V21.1749C70.6873 21.1749 70.7341 21.0104 70.8278 21.0104H71.6471C71.6471 21.0104 71.7876 21.0574 71.7876 21.1749V23.1016C72.2324 23.1016 72.6772 23.0547 73.122 23.0312C73.5668 23.0077 73.9648 22.9607 74.3628 22.9137C74.3862 22.9137 74.433 22.9137 74.4564 22.9137C74.5032 22.9137 74.5032 22.9607 74.5267 23.0077L74.5735 23.6421C74.5735 23.6421 74.5735 23.7361 74.5501 23.7596C74.5267 23.7831 74.5032 23.8066 74.4564 23.83C74.0116 23.877 73.5434 23.924 73.0752 23.971C72.607 24.018 72.0919 24.0415 71.6237 24.065C71.1321 24.065 70.6639 24.0885 70.2191 24.112C69.7509 24.112 69.3295 24.112 68.9549 24.112C68.9081 24.112 68.8847 24.112 68.8613 24.065C68.8379 24.0415 68.8145 23.9945 68.8145 23.9475V23.2896C68.8145 23.2896 68.8613 23.1251 68.9549 23.1251H68.9081ZM73.9882 19.5301C73.9882 19.7181 73.9882 19.9296 73.9882 20.1645C73.9882 20.376 73.9648 20.611 73.9414 20.8224C73.9414 21.0339 73.8946 21.2454 73.8712 21.4569C73.8477 21.6683 73.8009 21.8328 73.7775 21.9973C73.7775 22.0443 73.7307 22.0913 73.7073 22.1383C73.6605 22.1853 73.637 22.1853 73.5902 22.1853L72.8411 22.1148C72.8411 22.1148 72.724 22.0443 72.7474 21.9268C72.7709 21.7858 72.7943 21.6448 72.8177 21.4569C72.8411 21.2689 72.8645 21.0809 72.8879 20.9164C72.8879 20.7285 72.9113 20.564 72.9347 20.3995C72.9581 20.235 72.9347 20.094 72.9347 20.0001C72.9347 19.9061 72.9347 19.8356 72.8645 19.8121C72.8177 19.7886 72.7474 19.7651 72.6538 19.7651H69.6338C69.6338 19.7651 69.5636 19.7651 69.5402 19.7181C69.5168 19.6946 69.4934 19.6711 69.4934 19.6241V18.8957C69.4934 18.8957 69.4934 18.8252 69.5402 18.8017C69.587 18.7782 69.6104 18.7782 69.6338 18.7782H73.3561C73.5668 18.7782 73.7307 18.8252 73.8243 18.9427C73.9414 19.0602 73.9882 19.2482 73.9882 19.5066V19.5301ZM76.3527 27.754C76.3527 27.754 76.2825 27.7775 76.259 27.7775H71.0619C70.7809 27.7775 70.5703 27.7305 70.4766 27.613C70.383 27.4956 70.3127 27.3076 70.3127 27.0491V25.0754C70.3127 25.0754 70.3127 25.0049 70.3596 24.9814C70.4064 24.9579 70.4298 24.9344 70.4532 24.9344H71.2726C71.2726 24.9344 71.3428 24.9344 71.3896 24.9814C71.4364 25.0284 71.4364 25.0519 71.4364 25.0754V26.6262C71.4364 26.6262 71.4364 26.7437 71.4833 26.7672C71.5067 26.7672 71.5535 26.7907 71.6237 26.7907H76.259C76.259 26.7907 76.3293 26.7907 76.3527 26.8376C76.3761 26.8611 76.3995 26.8846 76.3995 26.9316V27.6835C76.3995 27.6835 76.3995 27.754 76.3527 27.7775V27.754ZM77.4062 22.6317C77.4062 22.6317 77.3359 22.6787 77.3125 22.6787H76.0483V25.2399C76.0483 25.2399 76.0015 25.3808 75.9313 25.3808H75.0651C75.0651 25.3808 74.948 25.3338 74.948 25.2399V18.3788C74.948 18.3788 74.9949 18.2378 75.0651 18.2378H75.9313C75.9313 18.2378 76.0483 18.2848 76.0483 18.3788V21.6918H77.3125C77.3125 21.6918 77.3828 21.6918 77.4062 21.7388C77.4296 21.7623 77.453 21.7858 77.453 21.8328V22.5612C77.453 22.5612 77.453 22.6317 77.4062 22.6552V22.6317Z" fill="#C5C5C5"/>
<path d="M83.6103 25.2164C83.6103 25.2164 83.5167 25.2634 83.4698 25.2869C83.2826 25.3339 83.0719 25.3809 82.8378 25.4044C82.6036 25.4514 82.3461 25.4749 82.0652 25.4984C81.7843 25.5219 81.5268 25.5454 81.2458 25.5689C80.9649 25.5689 80.7074 25.5924 80.4499 25.6159C80.1923 25.6394 79.9582 25.6159 79.7475 25.6159C79.5368 25.6159 79.3496 25.6159 79.2091 25.6159C78.9282 25.5924 78.7409 25.5219 78.6238 25.4279C78.5068 25.3339 78.46 25.1459 78.46 24.8875V22.4203C78.46 22.1618 78.5068 21.9973 78.6238 21.8799C78.7409 21.7624 78.9048 21.7154 79.1389 21.7154H81.4331C81.4331 21.7154 81.5268 21.7154 81.5502 21.6919C81.5502 21.6919 81.5736 21.6214 81.5736 21.5744V20.1411C81.5736 20.1411 81.5736 20.0471 81.5736 20.0236C81.5736 20.0001 81.5268 20.0001 81.4565 20.0001H78.6941C78.6941 20.0001 78.6238 20.0001 78.6004 19.9531C78.577 19.9296 78.5536 19.9061 78.5536 19.8591V19.1542C78.5536 19.1542 78.5536 19.0837 78.6004 19.0602C78.6238 19.0367 78.6707 19.0132 78.6941 19.0132H82.0418C82.3227 19.0132 82.4866 19.0602 82.5802 19.1777C82.6505 19.2952 82.6973 19.4597 82.6973 19.7182V21.9973C82.6973 22.2558 82.6505 22.4438 82.5568 22.5378C82.4632 22.6318 82.2759 22.6788 82.0418 22.6788H79.771C79.771 22.6788 79.6305 22.7258 79.6305 22.8197V24.441C79.6305 24.441 79.6305 24.5585 79.6773 24.582C79.7007 24.6055 79.7475 24.629 79.8178 24.629C80.0987 24.629 80.403 24.629 80.7074 24.629C81.0117 24.629 81.3395 24.6055 81.6438 24.582C81.9481 24.5585 82.2525 24.535 82.5568 24.488C82.8612 24.441 83.1421 24.394 83.3996 24.347C83.4464 24.347 83.4932 24.347 83.5401 24.347C83.5869 24.3705 83.6103 24.4175 83.6103 24.4645L83.7039 25.0754C83.7039 25.0754 83.7039 25.1694 83.6571 25.1929L83.6103 25.2164ZM85.3895 27.8716C85.3895 27.8716 85.3427 28.0125 85.2725 28.0125H84.4063C84.4063 28.0125 84.2892 27.9656 84.2892 27.8716V18.3553C84.2892 18.3553 84.336 18.2144 84.4063 18.2144H85.2725C85.2725 18.2144 85.3895 18.2613 85.3895 18.3553V27.8716Z" fill="#C5C5C5"/>
<path d="M87.7719 25.7334C87.7719 25.7334 87.5378 25.8273 87.4441 25.7334L86.9993 25.2869C86.9993 25.2869 86.9057 25.0754 87.0227 24.958C87.4207 24.5585 87.7953 24.1121 88.0762 23.6186C88.3806 23.1252 88.6147 22.5848 88.8019 22.0208C88.8722 21.7624 88.9424 21.5274 88.9892 21.2924C89.0361 21.0575 89.0829 20.799 89.1297 20.5405C89.1765 20.2821 89.1999 20.0236 89.1999 19.7651C89.1999 19.4832 89.1999 19.2012 89.1999 18.8958C89.1999 18.8488 89.1999 18.8253 89.2467 18.7783C89.2936 18.7313 89.317 18.7313 89.3404 18.7313H90.2066C90.2066 18.7313 90.2768 18.7783 90.3002 18.8018C90.3236 18.8253 90.3471 18.8723 90.3471 18.9193C90.3471 19.3422 90.3471 19.7182 90.3002 20.0706C90.2768 20.4231 90.23 20.7755 90.1832 21.1045C90.23 21.4334 90.3471 21.7624 90.4875 22.0913C90.628 22.4203 90.7919 22.7258 90.9791 23.0312C91.1664 23.3367 91.3537 23.5951 91.5644 23.8536C91.7751 24.1121 91.9858 24.3235 92.1965 24.5115C92.2901 24.6055 92.3136 24.6995 92.1965 24.8405L91.7985 25.3574C91.7985 25.3574 91.7283 25.4279 91.6581 25.4514C91.5878 25.4749 91.541 25.4514 91.4942 25.3809C91.3303 25.2399 91.1664 25.0989 91.0025 24.8875C90.8387 24.6995 90.6514 24.488 90.4875 24.253C90.3236 24.0181 90.1832 23.7831 90.0427 23.5481C89.9022 23.3132 89.8086 23.0782 89.715 22.8667C89.5979 23.1487 89.4575 23.4307 89.317 23.7126C89.1765 23.9946 89.0126 24.253 88.8488 24.488C88.6849 24.723 88.4976 24.958 88.3337 25.1694C88.1464 25.3809 87.9826 25.5689 87.7953 25.7099L87.7719 25.7334ZM94.4205 27.8716C94.4205 27.8716 94.3737 28.0125 94.28 28.0125H93.4373C93.4373 28.0125 93.367 28.0125 93.3436 27.9656C93.3202 27.9421 93.2968 27.9186 93.2968 27.8716V18.3553C93.2968 18.3553 93.2968 18.2848 93.3436 18.2613C93.3904 18.2379 93.4138 18.2144 93.4373 18.2144H94.28C94.28 18.2144 94.4205 18.2613 94.4205 18.3553V27.8716Z" fill="#C5C5C5"/>
<path d="M104.303 25.3337C104.303 25.3337 104.349 25.4042 104.349 25.4512V26.1326C104.349 26.1326 104.349 26.2031 104.303 26.2266C104.279 26.2501 104.232 26.2736 104.209 26.2736H95.8514C95.8514 26.2736 95.7812 26.2736 95.7578 26.2266C95.7343 26.2031 95.7109 26.1561 95.7109 26.1326V25.4512C95.7109 25.4512 95.7578 25.2867 95.8514 25.2867H104.209C104.209 25.2867 104.279 25.2867 104.303 25.3337ZM96.8815 23.5479C96.8815 23.5479 96.8112 23.5479 96.7644 23.5479C96.7176 23.5479 96.6942 23.5009 96.6474 23.4539L96.2962 22.8195C96.2962 22.8195 96.2728 22.7255 96.2962 22.6785C96.3196 22.6316 96.343 22.6081 96.3898 22.5846C96.8815 22.3966 97.2794 22.1851 97.654 21.9501C98.0052 21.7387 98.3329 21.4802 98.567 21.1748C98.8246 20.8928 99.0118 20.5638 99.1523 20.1879C99.2928 19.8119 99.3864 19.389 99.4332 18.8956C99.4332 18.8486 99.4332 18.8016 99.4801 18.7546C99.5269 18.7076 99.5503 18.6841 99.5971 18.6841L100.44 18.7311C100.44 18.7311 100.604 18.8251 100.604 18.966C100.604 19.154 100.58 19.3185 100.557 19.4595C100.627 19.7884 100.768 20.0939 100.955 20.3994C101.142 20.7048 101.376 20.9868 101.657 21.2217C101.938 21.4802 102.243 21.6917 102.594 21.8797C102.921 22.0676 103.296 22.2321 103.647 22.3261C103.694 22.3261 103.717 22.3731 103.741 22.4201C103.741 22.4671 103.741 22.5141 103.741 22.5376L103.413 23.1955C103.413 23.1955 103.296 23.3365 103.179 23.313C102.875 23.219 102.594 23.125 102.289 22.9605C101.985 22.8195 101.704 22.6316 101.423 22.4201C101.142 22.2086 100.885 21.9971 100.674 21.7387C100.463 21.4802 100.253 21.2217 100.089 20.9398C99.761 21.5507 99.3396 22.0676 98.7777 22.4906C98.2393 22.9135 97.6072 23.266 96.8815 23.5009V23.5479Z" fill="#C5C5C5"/>
<path d="M109.361 23.3131C109.361 23.3131 109.29 23.3601 109.243 23.3836C109.033 23.4541 108.775 23.5011 108.494 23.5481C108.213 23.5951 107.909 23.6186 107.605 23.6421C107.3 23.6656 106.996 23.6891 106.715 23.6891C106.434 23.6891 106.177 23.6891 105.943 23.6891C105.474 23.6656 105.24 23.4071 105.24 22.9372V19.3891C105.24 19.1542 105.287 18.9897 105.381 18.8957C105.474 18.8017 105.638 18.7547 105.896 18.7547H108.541C108.541 18.7547 108.682 18.8017 108.682 18.8957V19.5771C108.682 19.5771 108.682 19.6476 108.635 19.6711C108.611 19.6946 108.588 19.7181 108.541 19.7181H106.528C106.411 19.7181 106.341 19.7651 106.341 19.8826V20.7755C106.668 20.7755 106.973 20.7755 107.277 20.7755C107.581 20.7755 107.886 20.7755 108.167 20.7285C108.19 20.7285 108.213 20.7285 108.237 20.7285C108.26 20.7285 108.284 20.7755 108.284 20.799V21.4334C108.284 21.4334 108.284 21.5274 108.284 21.5509C108.284 21.5743 108.237 21.5978 108.237 21.5978C107.932 21.6213 107.628 21.6448 107.3 21.6448C106.973 21.6448 106.668 21.6448 106.364 21.6448V22.4202C106.364 22.4202 106.364 22.6082 106.411 22.6317C106.458 22.6552 106.528 22.6787 106.645 22.7022C106.785 22.7022 106.949 22.7257 107.183 22.7022C107.394 22.7022 107.628 22.7022 107.862 22.6552C108.096 22.6082 108.33 22.6082 108.541 22.5612C108.775 22.5377 108.963 22.4907 109.103 22.4672C109.15 22.4672 109.197 22.4672 109.22 22.4672C109.267 22.4672 109.29 22.5142 109.29 22.5612L109.407 23.1251C109.407 23.1251 109.407 23.2426 109.361 23.2661V23.3131ZM112.732 27.6835C112.732 27.6835 112.451 27.848 112.193 27.848H107.534C107.254 27.848 107.043 27.801 106.949 27.6835C106.856 27.566 106.785 27.3781 106.785 27.1196V25.3338C106.785 25.0754 106.832 24.8874 106.949 24.7699C107.066 24.6524 107.23 24.5819 107.488 24.5819H112.146C112.427 24.5819 112.638 24.6289 112.732 24.7464C112.825 24.8639 112.896 25.0519 112.896 25.3338V27.1431C112.896 27.4016 112.849 27.5895 112.732 27.707V27.6835ZM111.795 25.6628C111.795 25.6628 111.795 25.5688 111.772 25.5453C111.772 25.5453 111.725 25.5218 111.655 25.5218H108.026H107.932C107.932 25.5218 107.909 25.5688 107.909 25.6158V26.7437C107.909 26.7437 107.909 26.8376 107.932 26.8611C107.956 26.8846 107.979 26.8611 108.026 26.8611H111.655C111.655 26.8611 111.748 26.8611 111.772 26.8611C111.795 26.8611 111.795 26.8141 111.795 26.7437V25.6393V25.6628ZM110.18 18.4023H110.976C110.976 18.4023 111.093 18.4493 111.093 18.5433V23.924C111.093 23.924 111.046 24.065 110.976 24.065H110.18C110.18 24.065 110.039 24.018 110.039 23.924V21.7388H108.963C108.963 21.7388 108.892 21.7388 108.869 21.6918C108.845 21.6683 108.822 21.6448 108.822 21.5978V20.9164C108.822 20.9164 108.822 20.8459 108.869 20.8224C108.892 20.799 108.939 20.7755 108.963 20.7755H110.039V18.5198C110.039 18.5198 110.086 18.3788 110.18 18.3788V18.4023ZM111.936 18.2378H112.755C112.755 18.2378 112.872 18.2848 112.872 18.3788V23.9945C112.872 23.9945 112.825 24.1355 112.755 24.1355H111.912C111.912 24.1355 111.795 24.0885 111.795 23.9945V18.3788C111.795 18.3788 111.842 18.2378 111.936 18.2378Z" fill="#C5C5C5"/>
<path d="M126.546 6.93555L128.489 19.9998H128.536L130.596 6.93555H133.99L136.051 19.9998H136.097L138.041 6.93555H141.435L138.228 24.5817H134.271L132.305 11.7759H132.258L130.292 24.5817H126.335L123.128 6.93555H126.522H126.546Z" fill="#C5C5C5"/>
<path d="M143.565 6.93555H147.124V24.5817H143.565V6.93555Z" fill="#C5C5C5"/>
<path d="M158.596 19.0129H158.643V6.93555H161.897V24.5817H157.847L153.516 12.2223H153.469V24.5817H150.215V6.93555H154.312L158.596 19.0364V19.0129Z" fill="#C5C5C5"/>
<path d="M174.702 6.93555V9.84916H168.428V14.0081H174.35V16.9217H168.428V24.5817H164.869V6.93555H174.702Z" fill="#C5C5C5"/>
<path d="M176.924 6.93555H180.482V24.5817H176.924V6.93555Z" fill="#C5C5C5"/>
<path d="M186.453 19.577C186.453 19.9999 186.476 20.3758 186.547 20.7048C186.617 21.0338 186.734 21.3157 186.921 21.5507C187.108 21.7857 187.342 21.9736 187.647 22.0911C187.951 22.2321 188.326 22.2791 188.794 22.2791C189.332 22.2791 189.824 22.0911 190.269 21.7387C190.714 21.3862 190.924 20.8458 190.924 20.0939C190.924 19.6944 190.878 19.3655 190.76 19.06C190.643 18.7781 190.48 18.5196 190.222 18.2846C189.965 18.0497 189.66 17.8382 189.239 17.6502C188.841 17.4622 188.349 17.2743 187.74 17.0628C186.945 16.8043 186.266 16.4989 185.704 16.1934C185.118 15.8879 184.65 15.512 184.252 15.0891C183.878 14.6661 183.573 14.1727 183.41 13.6322C183.246 13.0918 183.129 12.4339 183.129 11.7055C183.129 9.96673 183.62 8.65091 184.58 7.80502C185.54 6.95914 186.874 6.5127 188.56 6.5127C189.356 6.5127 190.082 6.60668 190.737 6.77116C191.393 6.93564 191.978 7.2176 192.469 7.61705C192.961 7.993 193.336 8.50993 193.593 9.09735C193.851 9.68477 193.991 10.4132 193.991 11.2591V11.7525H190.597C190.597 10.9066 190.456 10.2722 190.152 9.80226C189.847 9.35582 189.356 9.12085 188.677 9.12085C188.279 9.12085 187.951 9.16784 187.694 9.28532C187.436 9.40281 187.225 9.54379 187.062 9.73177C186.898 9.91974 186.804 10.1312 186.734 10.3897C186.664 10.6481 186.64 10.8831 186.64 11.1651C186.64 11.7055 186.757 12.1754 186.991 12.5279C187.225 12.9038 187.717 13.2328 188.466 13.5618L191.205 14.7601C191.884 15.0656 192.423 15.371 192.844 15.6765C193.265 16.0054 193.617 16.3344 193.874 16.7103C194.132 17.0863 194.295 17.4857 194.413 17.9322C194.53 18.3786 194.553 18.872 194.553 19.4125C194.553 21.2687 194.015 22.6315 192.938 23.4774C191.861 24.3233 190.362 24.7463 188.443 24.7463C186.523 24.7463 185.001 24.2998 184.135 23.4304C183.269 22.5611 182.848 21.3157 182.848 19.6709V18.9425H186.406V19.4595L186.453 19.577Z" fill="#C5C5C5"/>
<path d="M199.867 10.8127C200.289 12.528 200.499 14.1963 200.499 15.8176C200.499 17.4388 200.289 19.0836 199.867 20.7989C199.446 22.4907 198.767 24.2529 197.807 26.0387H195.771C196.168 25.1693 196.496 24.3234 196.801 23.501C197.082 22.6786 197.316 21.8798 197.479 21.0809C197.643 20.282 197.784 19.4361 197.854 18.5902C197.924 17.7208 197.971 16.8044 197.971 15.8176C197.971 14.8307 197.924 13.9143 197.854 13.0449C197.784 12.1755 197.643 11.3297 197.479 10.5073C197.316 9.68488 197.082 8.86249 196.801 8.0401C196.52 7.21771 196.168 6.37183 195.771 5.50244H197.807C198.767 7.3117 199.446 9.07396 199.867 10.7892V10.8127Z" fill="#C5C5C5"/>
<path d="M121.115 8.06348C120.834 8.88587 120.6 9.70826 120.436 10.5307C120.272 11.353 120.132 12.1989 120.061 13.0683C119.991 13.9377 119.944 14.8541 119.944 15.8409C119.944 16.8278 119.991 17.7442 120.061 18.6136C120.132 19.483 120.272 20.3053 120.436 21.1042C120.6 21.9031 120.834 22.7255 121.115 23.5244C121.396 24.3468 121.747 25.1927 122.145 26.0621H120.108C119.148 24.2528 118.469 22.514 118.048 20.8223C117.627 19.1305 117.416 17.4622 117.416 15.8409C117.416 14.2197 117.627 12.5514 118.048 10.8361C118.469 9.12084 119.148 7.35857 120.108 5.54932H122.145C121.747 6.4187 121.419 7.26459 121.115 8.08698V8.06348Z" fill="#C5C5C5"/>
</svg>
