<svg width="196" height="111" viewBox="0 0 196 111" fill="none" xmlns="http://www.w3.org/2000/svg">
<path d="M92.8884 14.635C96.5186 14.8036 99.6089 11.6755 99.7889 7.64275C99.9689 3.59462 97.1787 0.190519 93.5484 0.00651291C89.9181 -0.162159 86.8279 2.96594 86.6479 6.99873C86.4679 11.0315 89.2581 14.451 92.8884 14.6196V14.635Z" fill="#6DCFF6"/>
<path d="M119.923 26.0427C121.648 26.3034 123.313 24.6473 123.658 22.3166C124.003 19.9859 122.878 17.9005 121.168 17.6398C119.443 17.3791 117.777 19.0352 117.432 21.3659C117.087 23.6966 118.212 25.782 119.923 26.0427Z" fill="#8DC63F"/>
<path d="M112.466 23.5601C112.496 23.6521 112.541 23.7287 112.571 23.8207C112.541 23.7287 112.511 23.6521 112.466 23.5601Z" fill="url(#paint0_linear_7761_13683)"/>
<path d="M112.707 24.2031C112.707 24.2031 112.737 24.31 112.752 24.3558C112.737 24.31 112.722 24.2489 112.707 24.2031Z" fill="url(#paint1_linear_7761_13683)"/>
<path d="M100.795 27.2558C100.825 26.9032 100.87 26.5658 100.93 26.2438C100.93 26.2438 100.93 26.2745 100.93 26.2898C100.435 28.8505 98.1545 32.0553 95.4393 32.6073C87.5037 34.202 84.8935 25.7991 81.9983 20.2329C81.1882 18.6689 79.3881 13.7927 74.1677 13.6394C68.3173 13.4707 62.1968 19.1289 64.612 29.2799C66.4421 36.9775 75.9078 55.5467 94.8993 50.8392C99.2796 49.7505 103.105 46.7604 106.03 43.4483C102.34 38.6182 100.405 31.7946 100.825 27.2558H100.795Z" fill="url(#paint2_linear_7761_13683)"/>
<path d="M113.141 26.443C113.111 25.9524 113.036 25.4617 112.931 24.9863C113.036 25.477 113.126 26.0137 113.156 26.6117C113.156 26.5504 113.156 26.5044 113.156 26.443H113.141Z" fill="url(#paint3_linear_7761_13683)"/>
<path d="M130.302 29.1398C128.247 28.0665 126.927 29.8759 126.012 32.1759C124.436 36.1167 120.776 38.2481 118.166 37.2514C116.366 36.5767 115.226 34.7367 114.416 32.7586C113.441 30.3819 113.336 29.1858 113.156 26.6558C113.171 26.9471 113.186 27.2538 113.186 27.5758C113.186 29.3545 112.165 33.0193 111.295 35.1814C110.35 37.5121 108.505 40.5942 106 43.431C108.55 46.7737 111.955 49.1658 115.991 49.1658C124.826 49.1658 129.162 40.5022 131.337 34.338C132.567 30.8419 131.712 29.8605 130.302 29.1245V29.1398Z" fill="url(#paint4_linear_7761_13683)"/>
<path d="M112.406 23.4512C112.406 23.4512 112.436 23.5123 112.451 23.5581C112.436 23.5275 112.421 23.4817 112.406 23.4512Z" fill="url(#paint5_linear_7761_13683)"/>
<path d="M112.572 23.8188C112.617 23.9415 112.677 24.0642 112.722 24.2022C112.677 24.0642 112.632 23.9415 112.572 23.8188Z" fill="url(#paint6_linear_7761_13683)"/>
<path d="M113.187 27.5764C113.187 27.2544 113.187 26.9478 113.157 26.6564C113.157 26.6411 113.157 26.6257 113.157 26.6104C113.112 26.0277 113.037 25.4757 112.932 24.985C112.932 24.985 112.932 24.985 112.932 24.9697C112.887 24.755 112.827 24.5557 112.767 24.3563C112.752 24.3103 112.737 24.249 112.722 24.203C112.677 24.065 112.632 23.9423 112.572 23.8197C112.542 23.7277 112.512 23.651 112.467 23.559C112.452 23.5283 112.437 23.4823 112.422 23.4516C112.227 23.0376 112.002 22.6696 111.747 22.3169C111.672 22.2249 111.612 22.1329 111.537 22.0563C110.622 20.9982 109.406 20.4769 108.176 20.2622C107.846 20.2162 107.516 20.1855 107.141 20.1855C107.066 20.1855 106.991 20.1855 106.916 20.1855C106.856 20.1855 106.811 20.1855 106.751 20.1855C106.601 20.1855 106.436 20.2162 106.286 20.2469C106.271 20.2469 106.256 20.2469 106.241 20.2469C106.136 20.2622 106.031 20.2929 105.926 20.3236C105.071 20.5382 104.156 20.9829 103.331 21.7343C103.331 21.7343 103.301 21.7649 103.286 21.7649C103.211 21.8416 103.121 21.9183 103.046 22.0103C102.956 22.1023 102.866 22.1943 102.776 22.2863C101.936 23.2523 101.291 24.571 100.961 26.2424C100.901 26.5644 100.856 26.9018 100.826 27.2544C100.406 31.7779 102.356 38.6168 106.031 43.4469C108.536 40.6102 110.382 37.5281 111.327 35.1974C112.212 33.0353 113.217 29.3705 113.217 27.5918L113.187 27.5764Z" fill="#2DA44A"/>
<path d="M181.961 84.05V76.9861H193.721V84.05H181.961ZM179.682 73.0335H190.809C191.078 71.8007 191.193 70.431 191.193 69.4918V68.6504H181.808V66.5566H193.606V69.3548C193.606 70.2549 193.453 71.8399 193.223 73.0335H196V75.1272H179.682V73.0335ZM184.355 79.0016V82.0345H191.327V79.0016H184.355Z" fill="#262262"/>
<path d="M177.822 65.8521V84.0498H175.389V65.8521H177.822ZM164.894 80.3124L163.61 78.3557C169.375 74.8531 169.739 73.8552 169.739 70.9592V69.609H163.936V67.4762H172.172V71.0766C172.172 75.0292 171.252 76.3402 164.894 80.3124Z" fill="#262262"/>
<path d="M149.051 72.5441V74.3639C151.732 74.3639 153.935 74.3248 156.271 74.09L156.482 76.125C154.279 76.3794 151.56 76.4185 146.676 76.4185V70.5678H151.981V68.7285H146.676V66.6739H154.356V72.5441H149.051ZM158.359 77.0055V73.3464H155.505V71.2722H158.359V70.0786H155.505V68.0045H158.359V65.8521H160.753V77.0055H158.359ZM148.955 79.9015V77.8274H160.753V84.2846H158.34V79.9015H148.955Z" fill="#262262"/>
<path d="M141.5 77.1229H143.895V84.0889H132.556V77.1229H134.95V78.6492H141.5V77.1229ZM134.28 76.3989C131.579 76.3989 130.066 75.1662 130.066 73.5616V72.9746C130.066 71.3701 131.579 70.1373 134.28 70.1373C136.98 70.1373 138.493 71.3701 138.493 72.9746V73.5616C138.493 75.1662 136.98 76.3989 134.28 76.3989ZM141.5 76.3011V75.264H139.317V73.2094H141.5V72.1528H139.317V70.0982H141.5V65.852H143.895V76.3011H141.5ZM135.467 65.5977V67.5544H139.432V69.5894H129.166V67.5544H133.054V65.5977H135.467ZM134.95 82.0931H141.5V80.6451H134.95V82.0931ZM134.28 72.0354C133.016 72.0354 132.345 72.5441 132.345 73.092V73.4442C132.345 73.9921 133.016 74.5009 134.28 74.5009C135.544 74.5009 136.214 73.9921 136.214 73.4442V73.092C136.214 72.5441 135.544 72.0354 134.28 72.0354Z" fill="#262262"/>
<path d="M123.648 66.0869V69.9025H125.122V65.8521H127.421V76.8098H125.122V72.0354H123.648V76.0467H121.368V66.0869H123.648ZM121.771 84.5977C118.476 84.5977 116.063 83.2867 116.063 81.1538V80.332C116.063 78.1991 118.476 76.8881 121.771 76.8881C125.065 76.8881 127.478 78.1991 127.478 80.332V81.1538C127.478 83.2867 125.065 84.5977 121.771 84.5977ZM121.771 78.884C120.047 78.884 118.438 79.608 118.438 80.5277V80.9582C118.438 81.8778 120.047 82.6018 121.771 82.6018C123.494 82.6018 125.103 81.8778 125.103 80.9582V80.5277C125.103 79.608 123.494 78.884 121.771 78.884ZM121.062 74.4226L119.645 75.988C119.051 75.4793 118.246 74.7357 117.748 74.2661C117.174 73.7182 116.848 73.366 116.733 73.0725H116.714C116.599 73.4051 116.312 73.7573 115.776 74.3248C115.278 74.8531 114.397 75.7336 113.439 76.6142L111.888 74.9901C112.692 74.2661 113.516 73.4638 114.282 72.642C115.22 71.6245 115.45 70.8222 115.45 69.5307V66.7717H117.825V69.4133C117.825 70.7048 117.997 71.4679 118.936 72.4267C119.606 73.1116 120.315 73.7769 121.062 74.4226Z" fill="#262262"/>
<path d="M109.529 65.8521V70.0004H111.866V72.1528H109.529V76.6142H107.116V65.8521H109.529ZM104.128 84.5977C100.872 84.5977 98.6693 83.1497 98.6693 81.056V80.2342C98.6693 78.1404 100.872 76.6924 104.128 76.6924C107.384 76.6924 109.586 78.1404 109.586 80.2342V81.056C109.586 83.1497 107.384 84.5977 104.128 84.5977ZM104.128 78.7079C102.193 78.7079 101.044 79.6276 101.044 80.3907V80.8995C101.044 81.6626 102.193 82.5823 104.128 82.5823C106.062 82.5823 107.211 81.6626 107.211 80.8995V80.3907C107.211 79.6276 106.062 78.7079 104.128 78.7079ZM100.68 72.642H100.661C100.546 72.955 100.259 73.2877 99.4737 73.9921C98.5926 74.7748 97.635 75.5771 96.5624 76.3989L95.126 74.5792C96.2368 73.7377 97.1179 73.0333 98.0372 72.1723C98.8225 71.4484 99.3396 70.4895 99.3396 69.2177V66.5956H101.791V69.1394C101.791 70.4308 102.021 71.1157 103.055 71.9767C103.802 72.6028 104.856 73.3855 105.813 74.0508L104.473 75.7728C103.592 75.1466 102.749 74.5204 102.04 73.953C101.389 73.4247 100.776 72.955 100.68 72.642Z" fill="#262262"/>
<path d="M79.2449 74.9705C76.2188 74.9705 74.6865 73.0529 74.6865 70.9787V70.4308C74.6865 68.3567 76.2188 66.4391 79.2449 66.4391C81.8688 66.4391 83.3819 67.9066 83.7267 69.6481H86.6954V65.8521H89.1086V75.2249H86.6954V71.7027H83.7458C83.4202 73.4834 81.9072 74.9705 79.2449 74.9705ZM86.7145 76.0467H89.1086V84.0694H77.7701V76.0467H80.1642V78.1013H86.7145V76.0467ZM79.2449 68.5328C77.6935 68.5328 76.9849 69.5307 76.9849 70.4895V70.92C76.9849 71.8788 77.6935 72.8768 79.2449 72.8768C80.7963 72.8768 81.5049 71.8788 81.5049 70.92V70.4895C81.5049 69.5307 80.7963 68.5328 79.2449 68.5328ZM80.1642 82.0344H86.7145V80.1363H80.1642V82.0344Z" fill="#262262"/>
<path d="M72.4614 65.8521V84.0498H70.029V65.8521H72.4614ZM59.5332 80.3124L58.25 78.3557C64.015 74.8531 64.3789 73.8552 64.3789 70.9592V69.609H58.5756V67.4762H66.8113V71.0766C66.8113 75.0292 65.892 76.3402 59.5332 80.3124Z" fill="#262262"/>
<path d="M48.8441 72.7788H48.825C48.6334 73.2289 47.9248 73.7181 46.9671 74.3834C45.9329 75.0878 44.573 75.9292 42.7344 76.9858L41.5469 75.0291C42.945 74.2268 44.4773 73.3072 45.5881 72.5245C47.1012 71.4678 47.5417 70.509 47.5417 68.8066V66.9673H49.9933V68.8066C49.9933 70.509 50.4338 71.4678 51.9469 72.5245C53.0578 73.3072 54.59 74.2268 55.9881 75.0291L54.8198 76.9467C52.9811 75.8901 51.6213 75.0487 50.587 74.3442C49.6294 73.6789 49.0357 73.2093 48.8441 72.7788ZM40.6084 79.6666H47.5609V76.0466H49.9741V79.6666H56.9266V81.7603H40.6084V79.6666Z" fill="#262262"/>
<path d="M31.9101 84.5976C28.8073 84.5976 26.1642 83.5213 26.1642 81.2907V80.7036C26.1642 78.7664 28.1561 77.7098 30.7035 77.4554V76.1444H23.751V74.129H40.0692V76.1444H33.1167V77.4554C35.6641 77.7098 37.656 78.7664 37.656 80.7036V81.2907C37.656 83.5213 35.0129 84.5976 31.9101 84.5976ZM25.8578 68.4739V66.4585H37.9624V68.4739H33.1167V68.5131C33.1167 69.2762 33.4423 69.7067 34.4 70.0981C35.8364 70.6851 37.2346 71.1743 38.7285 71.6634L37.9816 73.6202C36.3919 73.0723 35.0895 72.5831 33.8254 72.0939C32.7337 71.6634 32.1016 71.3112 31.9484 70.9982H31.9292C31.776 71.3112 31.1057 71.7026 30.014 72.1331C28.7499 72.6223 27.4475 73.1114 25.8578 73.6593L25.0917 71.6634C26.5856 71.1743 27.9838 70.6851 29.4202 70.0981C30.3779 69.7067 30.7035 69.2762 30.7035 68.5131V68.4739H25.8578ZM31.9101 79.3926C30.2055 79.3926 28.5583 79.9601 28.5583 80.8602V81.1341C28.5583 82.0342 30.2055 82.6017 31.9101 82.6017C33.6147 82.6017 35.2618 82.0342 35.2618 81.1341V80.8602C35.2618 79.9601 33.6147 79.3926 31.9101 79.3926Z" fill="#262262"/>
<path d="M18.5039 76.575V74.0703H20.9746V76.575H18.5039Z" fill="#262262"/>
<path d="M11.0512 66.2238V72.0549H12.6217V65.8521H14.9392V84.0498H12.6217V74.1878H11.0512V83.1693H8.7337V66.2238H11.0512ZM0 67.574H6.87588V69.7068H2.39411V77.0838H2.94954C4.50092 77.0838 6.10976 77.0251 7.69945 76.7707L7.94843 78.884C6.39705 79.1579 4.53923 79.2166 2.94954 79.2166H0V67.574Z" fill="#262262"/>
<path d="M146.06 110.098V103.525H157V110.098H146.06ZM147.372 104.784V108.84H155.688V104.784H147.372ZM142.838 92.8963H149.514V94.1151H144.169V96.5925H148.645V97.8112H144.169V100.309C146.619 100.309 148.105 100.269 150.343 100.009L150.498 101.208C148.259 101.487 146.484 101.527 142.838 101.527V92.8963ZM149.784 96.4326H152.35V92.0972H153.681V102.406H152.35V97.6713H149.784V96.4326ZM157 91.8574V102.446H155.668V91.8574H157Z" fill="#262262"/>
<path d="M132.976 98.4502H132.957C132.803 98.8498 132.089 99.5291 130.7 100.488C129.542 101.287 127.96 102.266 126.571 103.045L125.838 101.927C127.516 101.028 129.002 100.108 129.909 99.4692C131.819 98.1306 132.263 97.5112 132.263 95.3535V93.1558H133.671V95.3535C133.671 97.5112 134.096 98.1306 136.006 99.4692C136.912 100.108 138.379 101.008 140.038 101.907L139.324 103.005C137.954 102.226 136.391 101.267 135.234 100.468C133.845 99.5091 133.15 98.8498 132.976 98.4502ZM124.873 106.322H141.08V107.541H124.873V106.322Z" fill="#262262"/>
<path d="M122.246 91.8574V110.118H120.876V91.8574H122.246ZM111.094 101.328C112.309 99.889 112.502 99.1098 112.502 97.5315V93.176H113.911V97.4316C113.911 98.97 114.027 99.6293 115.068 100.868C115.84 101.787 116.979 102.986 118.426 104.344L117.538 105.303C116.323 104.105 115.242 103.006 114.47 102.147C113.892 101.507 113.332 100.848 113.236 100.588H113.216C113.158 100.848 112.425 101.787 111.846 102.446C111.171 103.206 109.898 104.544 108.759 105.583L107.853 104.604C109.126 103.445 110.187 102.386 111.094 101.328Z" fill="#262262"/>
<path d="M105.071 91.8574V110.118H103.701V91.8574H105.071ZM93.2246 99.8291V104.324H95.8679C97.8165 104.324 99.9196 104.224 101.714 103.925L101.868 105.144C99.8231 105.483 97.6236 105.583 95.5206 105.583H91.874V98.5904H98.2603V94.5746H91.874V93.3359H99.6109V99.8291H93.2246Z" fill="#262262"/>
<path d="M87.3372 91.8574V97.6114H89.9804V98.8701H87.3372V105.403H85.9866V91.8574H87.3372ZM77.806 104.484V108.66H87.8195V109.899H76.4361V104.484H77.806ZM84.636 100.828L84.7518 102.007C82.3979 102.306 79.2337 102.466 73.3877 102.466V101.228C74.8347 101.228 76.0888 101.228 77.2079 101.208V97.1319H78.5584V101.188C81.2789 101.128 82.996 101.008 84.636 100.828ZM74.5646 92.8164H83.1504V94.6145C83.1504 96.4127 82.9382 98.2108 82.6873 99.2896L81.3368 99.1098C81.6262 97.7313 81.7998 96.3327 81.7998 94.8942V94.0551H74.5646V92.8164Z" fill="#262262"/>
<path d="M68.7155 103.206H70.0468V110.118H59.4737V103.206H60.805V105.343H68.7155V103.206ZM61.4417 102.247C58.7213 102.247 57.4093 100.808 57.4093 99.4095V98.8101C57.4093 97.4116 58.7213 95.9731 61.4417 95.9731C64.1621 95.9731 65.4741 97.4116 65.4741 98.8101V99.4095C65.4741 100.808 64.1621 102.247 61.4417 102.247ZM60.805 108.86H68.7155V106.582H60.805V108.86ZM61.4417 97.1518C59.5895 97.1518 58.7213 98.0909 58.7213 98.89V99.3296C58.7213 100.129 59.5895 101.068 61.4417 101.068C63.2939 101.068 64.1621 100.129 64.1621 99.3296V98.89C64.1621 98.0909 63.2939 97.1518 61.4417 97.1518ZM70.0468 91.8574V96.3926H72.7479V97.6313H70.0468V102.127H68.6962V91.8574H70.0468ZM62.117 91.5977V93.8953H66.5353V95.114H56.3867V93.8953H60.7664V91.5977H62.117Z" fill="#262262"/>
<path d="M47.1034 103.525C49.9975 103.525 52.5829 104.624 52.5829 106.722V107.401C52.5829 109.499 49.9975 110.598 47.1034 110.598C44.2093 110.598 41.624 109.499 41.624 107.401V106.722C41.624 104.584 44.2093 103.525 47.1034 103.525ZM47.0841 96.153C46.9105 96.5725 45.9651 97.1919 44.7882 97.7113C43.7849 98.1708 42.415 98.7303 40.9101 99.2897L40.3506 98.1908C41.9713 97.5915 43.4183 97.0121 44.3637 96.5725C45.9072 95.8533 46.4088 95.194 46.4088 94.155V93.7954H41.1223V92.5967H53.0845V93.7954H47.7787V94.155C47.7787 95.194 48.2418 95.8533 49.8046 96.5725C50.9236 97.092 52.5057 97.6914 53.8177 98.1709L53.2967 99.2697C51.869 98.7502 50.4027 98.1509 49.3994 97.6914C48.2032 97.1519 47.3157 96.5725 47.1034 96.153H47.0841ZM47.1034 109.399C49.1872 109.399 51.2709 108.66 51.2709 107.321V106.802C51.2709 105.463 49.1872 104.724 47.1034 104.724C45.0197 104.724 42.9359 105.463 42.9359 106.802V107.321C42.9359 108.66 45.0197 109.399 47.1034 109.399ZM39 100.828H46.4281V98.4905H47.7787V100.828H55.2068V102.027H39V100.828Z" fill="#262262"/>
<defs>
<linearGradient id="paint0_linear_7761_13683" x1="112.466" y1="23.6827" x2="112.556" y2="23.6827" gradientUnits="userSpaceOnUse">
<stop stop-color="#44C8F5"/>
<stop offset="1" stop-color="#0089CF"/>
</linearGradient>
<linearGradient id="paint1_linear_7761_13683" x1="112.707" y1="24.2795" x2="112.752" y2="24.2795" gradientUnits="userSpaceOnUse">
<stop stop-color="#44C8F5"/>
<stop offset="1" stop-color="#0089CF"/>
</linearGradient>
<linearGradient id="paint2_linear_7761_13683" x1="101.365" y1="32.6073" x2="61.8068" y2="32.6073" gradientUnits="userSpaceOnUse">
<stop stop-color="#44C8F5"/>
<stop offset="1" stop-color="#0089CF"/>
</linearGradient>
<linearGradient id="paint3_linear_7761_13683" x1="112.916" y1="25.799" x2="113.141" y2="25.799" gradientUnits="userSpaceOnUse">
<stop stop-color="#A6CE39"/>
<stop offset="1" stop-color="#0DB14B"/>
</linearGradient>
<linearGradient id="paint4_linear_7761_13683" x1="130.857" y1="37.9261" x2="104.065" y2="37.9261" gradientUnits="userSpaceOnUse">
<stop stop-color="#A6CE39"/>
<stop offset="1" stop-color="#0DB14B"/>
</linearGradient>
<linearGradient id="paint5_linear_7761_13683" x1="112.406" y1="23.5123" x2="112.466" y2="23.5123" gradientUnits="userSpaceOnUse">
<stop stop-color="#A6CE39"/>
<stop offset="1" stop-color="#0DB14B"/>
</linearGradient>
<linearGradient id="paint6_linear_7761_13683" x1="112.557" y1="24.0029" x2="112.707" y2="24.0029" gradientUnits="userSpaceOnUse">
<stop stop-color="#A6CE39"/>
<stop offset="1" stop-color="#0DB14B"/>
</linearGradient>
</defs>
</svg>
