<svg width="157" height="45" viewBox="0 0 157 45" fill="none" xmlns="http://www.w3.org/2000/svg">
<path d="M79.4446 31.0542V32.4007H66.9483V31.0542H72.4581V29.3619H73.9348V31.0542H79.4446ZM73.1778 27.6695C73.1406 27.756 73.0537 27.8548 72.9296 27.966C72.8056 28.0771 72.6442 28.1883 72.4705 28.2995C72.2968 28.4107 72.1106 28.5219 71.9245 28.6207C71.7383 28.7319 71.5646 28.8183 71.4033 28.8924C70.9069 29.1271 70.4105 29.3371 69.9514 29.5348C69.4798 29.7324 69.0083 29.9177 68.5367 30.103L67.9907 28.8307C68.5863 28.6207 69.0951 28.423 69.5419 28.2254C69.9886 28.0401 70.4105 27.8548 70.8076 27.6571C71.304 27.4224 71.7011 27.163 71.9989 26.8542C72.2968 26.5577 72.4457 26.2365 72.4457 25.8907V25.7918H68.5615V24.4824H77.8066V25.7918H73.91V25.8907C73.91 26.2365 74.0589 26.5454 74.3567 26.8295C74.6546 27.1136 75.0517 27.373 75.548 27.6324C75.9451 27.8301 76.3671 28.0277 76.8138 28.213C77.2605 28.3983 77.7817 28.596 78.365 28.8183L77.8314 30.0907C77.335 29.893 76.8634 29.7077 76.4043 29.5101C75.9451 29.3124 75.4736 29.1024 75.002 28.8801C74.8407 28.806 74.667 28.7195 74.4684 28.6083C74.2699 28.4971 74.0837 28.3983 73.91 28.2871C73.7363 28.176 73.5749 28.0648 73.4508 27.9536C73.3268 27.8424 73.2275 27.7436 73.1902 27.6571H73.1778V27.6695ZM73.1902 39.096C72.545 39.096 71.9493 39.0342 71.4281 38.8984C70.9069 38.7625 70.4478 38.5772 70.0879 38.3425C69.7156 38.1078 69.4302 37.8237 69.2441 37.4901C69.0579 37.1566 68.9462 36.8231 68.9462 36.4401V35.8966C68.9462 35.5136 69.0455 35.1554 69.2441 34.8342C69.4426 34.5131 69.728 34.2289 70.0879 33.9942C70.4478 33.7595 70.9069 33.5742 71.4281 33.4383C71.9493 33.3025 72.545 33.2407 73.1902 33.2407C73.8355 33.2407 74.4312 33.3025 74.9524 33.4383C75.4736 33.5742 75.9203 33.7595 76.2926 33.9942C76.6649 34.2289 76.9503 34.5131 77.1489 34.8342C77.3474 35.1554 77.4467 35.5013 77.4467 35.8842V36.4278C77.4467 36.7984 77.3474 37.1442 77.1489 37.4654C76.9503 37.7866 76.6649 38.0584 76.305 38.3054C75.9327 38.5401 75.486 38.7378 74.9648 38.8737C74.4436 39.0095 73.8479 39.0837 73.2027 39.0837L73.1902 39.096ZM73.1902 34.5501C72.7807 34.5501 72.396 34.5872 72.0486 34.6736C71.7011 34.7478 71.4033 34.8589 71.1675 34.9948C70.9193 35.1307 70.7332 35.2789 70.5967 35.4519C70.4602 35.6248 70.3857 35.8101 70.3857 36.0078V36.3536C70.3857 36.5389 70.4602 36.7242 70.5967 36.8972C70.7332 37.0701 70.9317 37.2307 71.1675 37.3542C71.4157 37.4901 71.7135 37.5889 72.0486 37.6754C72.396 37.7619 72.7683 37.7989 73.1902 37.7989C73.6122 37.7989 73.9844 37.7619 74.3319 37.6754C74.6794 37.6013 74.9772 37.4901 75.213 37.3542C75.4612 37.2184 75.6473 37.0701 75.7838 36.8972C75.9203 36.7242 75.9948 36.5389 75.9948 36.3536V36.0078C75.9948 35.8101 75.9203 35.6372 75.7838 35.4519C75.6473 35.2789 75.4488 35.1183 75.213 34.9948C74.9648 34.8589 74.667 34.7601 74.3319 34.6736C73.9844 34.5872 73.6122 34.5501 73.1902 34.5501Z" fill="#C4C4C4"/>
<path d="M87.6969 26.8294H79.8789V25.5076H83.0682V23.7905H84.5201V25.5076H87.6969V26.8294ZM83.8003 32.4006C83.2047 32.4006 82.7083 32.3264 82.2988 32.1782C81.8893 32.03 81.5666 31.8447 81.3184 31.6223C81.0702 31.4 80.8965 31.1529 80.7848 30.8688C80.6731 30.597 80.6235 30.3253 80.6235 30.0658V29.6458C80.6235 29.3864 80.6731 29.127 80.7848 28.8429C80.8965 28.5711 81.0702 28.3117 81.3184 28.0894C81.5666 27.8547 81.8893 27.6694 82.2988 27.5335C82.7083 27.3852 83.2047 27.3235 83.8003 27.3235C84.396 27.3235 84.8923 27.3976 85.3019 27.5458C85.7114 27.6941 86.034 27.8794 86.2822 28.1017C86.5304 28.3241 86.7041 28.5711 86.8158 28.8553C86.9275 29.127 86.9771 29.3988 86.9771 29.6582V30.0782C86.9771 30.3376 86.9275 30.597 86.8158 30.8811C86.7041 31.1529 86.5304 31.4123 86.2822 31.6347C86.034 31.857 85.7114 32.0423 85.3019 32.1906C84.8923 32.3388 84.396 32.4129 83.8003 32.4129V32.4006ZM83.8003 31.1406C84.1478 31.1406 84.4332 31.1035 84.6566 31.017C84.8799 30.9429 85.0661 30.8441 85.2026 30.7206C85.3391 30.597 85.4384 30.4735 85.5004 30.35C85.5624 30.2264 85.5873 30.0906 85.5873 29.9794V29.757C85.5873 29.6458 85.5624 29.5347 85.5004 29.3864C85.4384 29.2382 85.3515 29.1147 85.215 29.0035C85.0785 28.88 84.8923 28.7935 84.6566 28.707C84.4208 28.6329 84.1354 28.5835 83.7879 28.5835C83.4404 28.5835 83.155 28.6205 82.9192 28.707C82.6835 28.7935 82.4973 28.88 82.3608 29.0035C82.2243 29.1147 82.125 29.2506 82.0754 29.3864C82.0258 29.5223 81.9885 29.6458 81.9885 29.757V29.9794C81.9885 30.1029 82.0134 30.2264 82.0754 30.35C82.1375 30.4858 82.2367 30.6094 82.3732 30.7206C82.5097 30.8317 82.6959 30.9306 82.9192 31.017C83.1426 31.1035 83.428 31.1406 83.7755 31.1406H83.8003ZM90.4766 33.0182V38.6882H82.1747V33.0182H83.6266V34.5129H89.0371V33.0182H90.489H90.4766ZM89.0247 37.3418V35.847H83.6142V37.3418H89.0247ZM92.4125 28.8305H90.4766V32.2894H89.0247V23.9635H90.4766V27.4594H92.4125V28.8305Z" fill="#C4C4C4"/>
<path d="M101.173 32.3387C100.578 32.4005 100.019 32.4622 99.4609 32.5116C98.9149 32.5611 98.3192 32.5981 97.6615 32.6228C97.0038 32.6475 96.2593 32.6722 95.4402 32.6846C94.6212 32.6969 93.6285 32.7093 92.4992 32.7093V31.3505H95.2169V28.2993H96.6688V31.3134C97.0783 31.3134 97.463 31.2887 97.8228 31.2763C98.1827 31.264 98.5426 31.2393 98.8901 31.2146C99.2375 31.1899 99.5974 31.1652 99.9449 31.1405C100.305 31.1158 100.665 31.0787 101.049 31.0416L101.161 32.3511L101.173 32.3387ZM98.3316 29.7816C98.4433 29.2258 98.5178 28.6946 98.5798 28.1757C98.6419 27.6569 98.6667 27.1628 98.6667 26.7057V26.0881H93.4175V24.7293H100.106V26.4834C100.106 26.7675 100.106 27.064 100.081 27.3728C100.069 27.6816 100.044 27.9905 100.019 28.2993C99.9945 28.6081 99.9573 28.9046 99.9076 29.1887C99.858 29.4728 99.8208 29.7322 99.7711 29.9669L98.344 29.7693L98.3316 29.7816ZM96.1103 37.1811H103.705V38.5399H94.646V34.1175H96.1103V37.1811ZM101.893 34.8834V23.9634H103.345V28.4475H105.269V29.8187H103.345V34.8834H101.893Z" fill="#C4C4C4"/>
<path d="M107.726 30.6462V33.7715H109.115C109.612 33.7715 110.059 33.7715 110.456 33.7592C110.865 33.7592 111.25 33.7345 111.61 33.6974C111.982 33.6727 112.342 33.6356 112.689 33.5986C113.037 33.5615 113.409 33.5121 113.794 33.4503L113.93 34.7721C113.583 34.8215 113.235 34.8709 112.888 34.9203C112.54 34.9697 112.156 35.0068 111.746 35.0315C111.337 35.0686 110.89 35.0933 110.406 35.1056C109.922 35.118 109.364 35.1303 108.756 35.1303H106.274V29.3244H110.915V26.4956H106.236V25.1368H112.367V30.6462H107.726ZM115.097 38.688V23.9756H116.561V38.688H115.097Z" fill="#C4C4C4"/>
<path d="M122.332 31.3256C122.257 31.5109 122.158 31.6839 122.034 31.8691C121.91 32.0544 121.711 32.2768 121.475 32.5609C121.165 32.9192 120.818 33.3144 120.42 33.7345C120.023 34.1545 119.577 34.6115 119.08 35.118L118.125 34.0433C119.018 33.1786 119.8 32.3633 120.458 31.5727C120.681 31.3009 120.867 31.0415 121.016 30.8068C121.165 30.5721 121.277 30.3374 121.364 30.115C121.45 29.8803 121.512 29.658 121.537 29.4109C121.575 29.1762 121.587 28.9044 121.587 28.6203V25.0256H123.064V28.6203C123.064 28.9415 123.089 29.2256 123.126 29.4727C123.163 29.7197 123.225 29.9668 123.312 30.1891C123.399 30.4115 123.523 30.6462 123.672 30.8809C123.821 31.1156 124.019 31.3627 124.243 31.6221C124.553 31.9927 124.888 32.3633 125.235 32.7092C125.583 33.055 125.98 33.4627 126.414 33.8827L125.471 34.9697C124.962 34.4633 124.528 34.0186 124.181 33.6356C123.833 33.2527 123.51 32.9068 123.225 32.5733C123.014 32.3262 122.828 32.1039 122.667 31.8815C122.505 31.6715 122.394 31.4862 122.332 31.3256ZM127.891 38.688V23.9756H129.355V38.688H127.891Z" fill="#C4C4C4"/>
<path d="M143.341 35.3773V36.7238H130.844V35.3773H143.341ZM137.086 29.5344C137.012 29.7197 136.826 29.942 136.528 30.2261C136.243 30.4979 135.845 30.8067 135.337 31.1526C134.902 31.4491 134.443 31.7579 133.959 32.0667C133.475 32.3756 132.929 32.7215 132.309 33.092L131.589 31.8444C132.185 31.4985 132.718 31.165 133.215 30.8562C133.711 30.5473 134.195 30.2138 134.691 29.8556C135.026 29.6085 135.299 29.3738 135.523 29.1514C135.734 28.9291 135.908 28.6944 136.032 28.4473C136.156 28.2003 136.243 27.9408 136.28 27.6444C136.329 27.3479 136.342 27.0144 136.342 26.6191V25.0132H137.819V26.6191C137.819 27.0144 137.843 27.3603 137.881 27.6444C137.918 27.9408 138.005 28.2126 138.129 28.4597C138.253 28.7067 138.439 28.9538 138.675 29.1885C138.911 29.4232 139.233 29.6826 139.63 29.9667C140.09 30.3003 140.561 30.6091 141.02 30.8932C141.479 31.1773 142.001 31.4985 142.584 31.832L141.876 33.0673C141.33 32.7215 140.784 32.3879 140.263 32.0667C139.742 31.7456 139.258 31.4244 138.811 31.1156C138.327 30.782 137.943 30.4856 137.645 30.2138C137.347 29.942 137.161 29.7197 137.086 29.5344Z" fill="#C4C4C4"/>
<path d="M150.129 31.5358C149.781 31.5852 149.446 31.6346 149.124 31.6593C148.801 31.6964 148.416 31.7211 147.994 31.7334C147.56 31.7458 147.051 31.7581 146.443 31.7705C145.835 31.7705 145.078 31.7705 144.16 31.7705V24.7663H149.384V26.0634H145.562V27.6446H148.801V28.9046H145.562V30.4858C146.108 30.4858 146.592 30.4858 146.989 30.4858C147.386 30.4858 147.746 30.4734 148.081 30.4487C148.416 30.4363 148.726 30.4116 149.024 30.3746C149.322 30.3375 149.645 30.3005 149.98 30.2634L150.129 31.5358ZM155.217 38.7005H146.542V33.2899H155.217V38.7005ZM153.79 34.6117H147.982V37.3787H153.79V34.6117ZM149.545 27.3975H151.27V24.161H152.66V32.4869H151.27V28.7316H149.545V27.3852V27.3975ZM153.814 23.9634H155.217V32.5116H153.814V23.9634Z" fill="#C4C4C4"/>
<path d="M71.3692 9.65291C71.3074 9.80114 71.2086 9.96173 71.0604 10.147C70.9121 10.3323 70.6527 10.5794 70.2945 10.9129C69.8868 11.2711 69.4668 11.6417 69.0221 12.0123C68.5774 12.3829 68.1203 12.7535 67.6386 13.1488L66.3292 11.4688C66.8356 11.0859 67.305 10.7153 67.725 10.3694C68.145 10.0235 68.5651 9.64055 68.9851 9.24526C69.3433 8.91173 69.6398 8.51643 69.8498 8.07172C70.0598 7.62702 70.1709 7.10819 70.1709 6.51525V4.08171H72.4068V6.44113C72.4068 6.7376 72.4192 7.00937 72.4562 7.24407C72.481 7.47878 72.5427 7.70113 72.6292 7.91113C72.7157 8.12114 72.8392 8.31878 72.9874 8.50408C73.1357 8.68937 73.3333 8.88702 73.568 9.07232C73.9015 9.36879 74.2968 9.67761 74.7539 10.0111C75.1986 10.3447 75.6433 10.6782 76.088 10.987L74.8651 12.5806C74.4574 12.2964 74.0621 12 73.6915 11.7159C73.321 11.4317 72.9751 11.16 72.6415 10.8882C72.3327 10.6411 72.0733 10.4188 71.8262 10.2088C71.5915 9.99879 71.4433 9.81349 71.3939 9.67761H71.3815L71.3692 9.65291ZM74.5315 20.7335C73.7904 20.7335 73.111 20.6594 72.4933 20.4988C71.8757 20.3382 71.3568 20.1159 70.9245 19.8318C70.4921 19.5353 70.1462 19.1894 69.9115 18.7941C69.6768 18.3865 69.5533 17.9418 69.5533 17.46V16.6941C69.5533 16.2123 69.6768 15.7676 69.9115 15.36C70.1462 14.9523 70.4921 14.6065 70.9245 14.3223C71.3568 14.0259 71.888 13.8035 72.4933 13.6553C73.0986 13.507 73.778 13.4206 74.5315 13.4206C75.2851 13.4206 75.9521 13.4947 76.5698 13.6553C77.1874 13.8159 77.7063 14.0382 78.1386 14.3223C78.571 14.6065 78.9169 14.9647 79.1516 15.36C79.3863 15.7553 79.5098 16.2123 79.5098 16.6941V17.46C79.5098 17.9418 79.3863 18.3865 79.1516 18.7941C78.9169 19.2018 78.571 19.5476 78.1386 19.8318C77.7063 20.1159 77.1751 20.3382 76.5698 20.4988C75.9645 20.6594 75.2851 20.7335 74.5315 20.7335ZM74.5315 15.2735C74.0868 15.2735 73.6915 15.3229 73.3457 15.4218C72.9998 15.5206 72.7033 15.6441 72.4686 15.7923C72.2339 15.9406 72.0486 16.1135 71.9127 16.2865C71.7768 16.4594 71.7151 16.6447 71.7151 16.83V17.2994C71.7151 17.4847 71.7768 17.6576 71.9127 17.8429C72.0362 18.0282 72.2215 18.1888 72.4686 18.3371C72.7157 18.4853 72.9998 18.6088 73.3457 18.7076C73.6915 18.8065 74.0868 18.8559 74.5315 18.8559C74.9763 18.8559 75.3715 18.8065 75.7174 18.7076C76.0633 18.6088 76.3598 18.4853 76.5945 18.3371C76.8292 18.1888 77.0145 18.0159 77.1504 17.8429C77.2739 17.6576 77.348 17.4847 77.348 17.2994V16.83C77.348 16.6447 77.2863 16.4718 77.1504 16.2865C77.0268 16.1012 76.8416 15.9406 76.5945 15.7923C76.3598 15.6441 76.0633 15.5206 75.7174 15.4218C75.3715 15.3229 74.9763 15.2735 74.5315 15.2735ZM79.4604 7.20701H81.5975V9.19585H79.4604V13.3341H77.2616V3.36523H79.4604V7.20701Z" fill="#C4C4C4"/>
<path d="M88.4162 12.7537C88.1444 12.5066 87.8479 12.2472 87.5267 11.9384C87.2056 11.6419 86.9214 11.3825 86.6867 11.1601C86.415 10.9007 86.2173 10.6907 86.0691 10.5178C85.9209 10.3448 85.822 10.1842 85.7603 10.0607H85.7479C85.6861 10.2213 85.5873 10.3819 85.4638 10.5548C85.3279 10.7278 85.1426 10.9501 84.8955 11.2219C84.6608 11.4689 84.3644 11.7778 83.9814 12.1607C83.6108 12.5437 83.2032 12.9389 82.7585 13.3466L81.3379 11.8395C81.7085 11.506 82.0791 11.1478 82.4497 10.7895C82.8203 10.4313 83.1785 10.0483 83.5244 9.66541C83.7344 9.4307 83.9073 9.20834 84.0432 8.99834C84.1791 8.77599 84.2903 8.55364 84.3767 8.33128C84.4632 8.09658 84.5126 7.86187 84.5373 7.61481C84.562 7.36775 84.5867 7.09598 84.5867 6.78716V4.23009H86.7485V6.67598C86.7485 6.97245 86.7485 7.24422 86.7856 7.49128C86.8226 7.73834 86.8597 7.96069 86.9338 8.18305C87.0079 8.4054 87.1191 8.6154 87.2426 8.8254C87.3785 9.0354 87.5515 9.2454 87.7615 9.46776C88.3667 10.1101 89.0091 10.7278 89.7009 11.3207L88.4038 12.766L88.4162 12.7537ZM90.3556 20.7337C89.602 20.7337 88.8979 20.6596 88.2679 20.5113C87.6379 20.3631 87.082 20.1531 86.625 19.8813C86.1679 19.5972 85.8097 19.2637 85.5379 18.8807C85.2785 18.4854 85.1426 18.0407 85.1426 17.5466V16.7807C85.1426 16.2866 85.2785 15.8419 85.5379 15.4466C85.7973 15.0513 86.1556 14.7178 86.625 14.446C87.082 14.1742 87.6379 13.9519 88.2679 13.816C88.8979 13.6678 89.602 13.5937 90.3556 13.5937C91.1091 13.5937 91.7885 13.6678 92.4309 13.816C93.0732 13.9642 93.6168 14.1742 94.0862 14.446C94.5432 14.7301 94.9015 15.0637 95.1732 15.4466C95.445 15.8295 95.5685 16.2866 95.5685 16.7807V17.5466C95.5685 18.0407 95.4327 18.4854 95.1732 18.8807C94.9138 19.276 94.5556 19.6096 94.0862 19.8813C93.6291 20.1531 93.0732 20.3754 92.4309 20.5113C91.7885 20.6472 91.0968 20.7337 90.3556 20.7337ZM90.3556 15.4343C89.9603 15.4343 89.5773 15.4713 89.2067 15.5578C88.8362 15.6319 88.515 15.7431 88.2432 15.879C87.9591 16.0148 87.7367 16.1754 87.5762 16.3607C87.4032 16.546 87.3291 16.7437 87.3291 16.9537V17.349C87.3291 17.5713 87.4156 17.769 87.5762 17.9419C87.7491 18.1272 87.9715 18.2878 88.2432 18.4237C88.515 18.5596 88.8485 18.6707 89.2067 18.7449C89.5773 18.819 89.9603 18.8684 90.3556 18.8684C90.7509 18.8684 91.1338 18.8313 91.5044 18.7449C91.875 18.6707 92.1962 18.5596 92.4679 18.4237C92.7521 18.2878 92.9744 18.1272 93.135 17.9419C93.3079 17.7566 93.3821 17.559 93.3821 17.349V16.9537C93.3821 16.7313 93.2956 16.5337 93.135 16.3607C92.9621 16.1754 92.7397 16.0148 92.4679 15.879C92.1838 15.7431 91.8626 15.6319 91.5044 15.5578C91.1338 15.4837 90.7509 15.4343 90.3556 15.4343ZM92.0726 7.10834H93.4191V3.35303H95.5191V13.5072H93.4191V9.08481H92.0726V12.8031H89.9973V3.58773H92.0726V7.12069V7.10834Z" fill="#C4C4C4"/>
<path d="M102.585 4.94626H106.204V6.83627H96.8408V4.94626H100.386V3.13037H102.585V4.94626ZM101.498 13.1363C100.88 13.1363 100.337 13.0745 99.8549 12.9386C99.3731 12.8028 98.9778 12.6175 98.6443 12.3828C98.3231 12.1481 98.0761 11.8639 97.9031 11.5551C97.7302 11.2339 97.6561 10.8881 97.6561 10.5175V9.97393C97.6561 9.60334 97.7425 9.25745 97.9031 8.93628C98.0761 8.6151 98.3231 8.34333 98.6443 8.10863C98.9655 7.87392 99.3731 7.68862 99.8549 7.55274C100.337 7.41686 100.88 7.35509 101.498 7.35509C102.115 7.35509 102.659 7.41686 103.141 7.55274C103.623 7.68862 104.018 7.87392 104.351 8.10863C104.673 8.34333 104.92 8.62745 105.093 8.93628C105.265 9.25745 105.352 9.60334 105.352 9.97393V10.5175C105.352 10.8881 105.265 11.2339 105.093 11.5551C104.92 11.8763 104.673 12.1481 104.351 12.3828C104.03 12.6175 103.623 12.8028 103.141 12.9386C102.659 13.0745 102.115 13.1363 101.498 13.1363ZM101.498 9.09687C100.917 9.09687 100.473 9.19569 100.176 9.39334C99.8796 9.59099 99.7314 9.81334 99.7314 10.0728V10.3939C99.7314 10.6533 99.8796 10.8757 100.176 11.0733C100.473 11.271 100.917 11.3698 101.498 11.3698C102.078 11.3698 102.523 11.271 102.82 11.0733C103.116 10.8757 103.264 10.6533 103.264 10.3939V10.0728C103.264 9.81334 103.116 9.59099 102.82 9.39334C102.523 9.19569 102.078 9.09687 101.498 9.09687ZM110.268 13.8157V20.264H99.929V13.8157H102.115V15.2239H108.094V13.8157H110.281H110.268ZM108.082 18.4234V17.0769H102.103V18.4234H108.082ZM108.082 12.0986H106.093V10.1963H108.082V9.2204H106.093V7.31804H108.082V3.38978H110.268V13.0745H108.082V12.111V12.0986Z" fill="#C4C4C4"/>
<path d="M114.716 11.2586C115.939 11.2586 117.075 11.2463 118.125 11.2092C119.175 11.1845 120.237 11.1104 121.3 10.9992L121.497 12.8892C120.991 12.951 120.46 13.0004 119.879 13.0375C119.299 13.0745 118.656 13.0992 117.94 13.124C117.223 13.1487 116.42 13.1487 115.543 13.161C114.666 13.1734 113.666 13.161 112.542 13.161V7.73805H117.384V6.03333H112.542V4.13097H119.546V9.56629H114.703V11.2463L114.716 11.2586ZM114.629 14.4704H125.389V20.4493H123.19V16.3851H114.629V14.4581V14.4704ZM123.202 10.3198H120.596V8.39276H123.202V7.29334H120.596V5.36627H123.202V3.37744H125.389V13.7045H123.202V10.3198Z" fill="#C4C4C4"/>
<path d="M127.724 14.9523C128.601 14.4088 129.342 13.927 129.959 13.507C130.577 13.087 131.096 12.6917 131.504 12.3335C131.911 11.9753 132.245 11.6417 132.479 11.3206C132.714 10.9994 132.899 10.6782 133.023 10.357C133.146 10.0359 133.221 9.68997 133.258 9.31938C133.295 8.96114 133.307 8.55349 133.307 8.10878V6.86113H128.008V4.88465H135.518V8.21996C135.518 8.82526 135.494 9.36879 135.432 9.86291C135.37 10.357 135.259 10.8264 135.086 11.2464C134.913 11.6788 134.678 12.0864 134.369 12.4941C134.061 12.8894 133.665 13.3094 133.171 13.7417C132.677 14.1741 132.084 14.6312 131.38 15.1253C130.676 15.6194 129.836 16.1629 128.872 16.7806L127.699 14.9647L127.724 14.9523ZM140.682 20.2271H138.458V3.36523H140.682V20.2271Z" fill="#C4C4C4"/>
<path d="M152.269 10.0236C152.392 9.44298 152.491 8.86239 152.541 8.26945C152.59 7.68886 152.615 7.17003 152.615 6.73768V5.95944H144.054V4.02002H154.814V6.61415C154.814 6.82415 154.814 7.05886 154.789 7.34297C154.777 7.62709 154.752 7.91121 154.715 8.22004C154.69 8.52886 154.653 8.83769 154.604 9.14651C154.554 9.45534 154.505 9.75181 154.468 10.0236H157V11.963H142.115V10.0236H152.269ZM144.202 13.6801H154.925V20.2271H144.202V13.6801ZM146.389 18.3618H152.751V15.5577H146.389V18.3618Z" fill="#C4C4C4"/>
<path d="M25.9904 12.416C29.1385 12.5591 31.8183 9.90528 31.9745 6.48394C32.1306 3.0496 29.7109 0.161632 26.5628 0.00552541C23.4146 -0.137572 20.7348 2.51624 20.5787 5.93757C20.4226 9.3589 22.8422 12.2599 25.9904 12.403V12.416Z" fill="#C4C4C4"/>
<path d="M49.4326 22.0946C50.9286 22.3158 52.3726 20.9108 52.6718 18.9335C52.971 16.9561 51.9954 15.1869 50.5124 14.9658C49.0163 14.7446 47.5724 16.1496 47.2732 18.1269C46.974 20.1043 47.9496 21.8735 49.4326 22.0946Z" fill="#C4C4C4"/>
<path d="M42.9671 19.9868C42.9932 20.0649 43.0322 20.1299 43.0582 20.208C43.0322 20.1299 43.0062 20.0649 42.9671 19.9868Z" fill="#C4C4C4"/>
<path d="M43.1753 20.5337C43.1753 20.5337 43.2013 20.6248 43.2143 20.6638C43.2013 20.6248 43.1883 20.5727 43.1753 20.5337Z" fill="#C4C4C4"/>
<path d="M32.8463 23.1224C32.8723 22.8232 32.9113 22.537 32.9634 22.2638C32.9634 22.2638 32.9634 22.2898 32.9634 22.3028C32.5341 24.4753 30.5567 27.1941 28.2021 27.6625C21.3204 29.0154 19.0569 21.8865 16.5462 17.1643C15.8437 15.8374 14.2826 11.7006 9.75553 11.5705C4.68207 11.4274 -0.625552 16.2277 1.46888 24.8395C3.05596 31.37 11.2646 47.1237 27.7338 43.13C31.5324 42.2064 34.8496 39.6697 37.3864 36.8597C34.1862 32.7619 32.508 26.973 32.8723 23.1224H32.8463Z" fill="#C4C4C4"/>
<path d="M43.5525 22.4331C43.5265 22.0168 43.4614 21.6005 43.3704 21.1973C43.4614 21.6135 43.5395 22.0689 43.5655 22.5762C43.5655 22.5242 43.5655 22.4851 43.5655 22.4331H43.5525Z" fill="#C4C4C4"/>
<path d="M58.4345 24.7227C56.6523 23.8121 55.5075 25.3471 54.714 27.2984C53.3481 30.6417 50.1739 32.4499 47.9104 31.6044C46.3493 31.032 45.3606 29.4709 44.6581 27.7928C43.8126 25.7764 43.7215 24.7617 43.5654 22.6152C43.5784 22.8624 43.5914 23.1226 43.5914 23.3958C43.5914 24.9048 42.7068 28.0139 41.9523 29.8482C41.1327 31.8255 39.5326 34.4403 37.3602 36.8469C39.5717 39.6829 42.5247 41.7123 46.0241 41.7123C53.6863 41.7123 57.4459 34.3622 59.3322 29.1327C60.3989 26.1667 59.6574 25.3341 58.4345 24.7097V24.7227Z" fill="#C4C4C4"/>
<path d="M42.9151 19.896C42.9151 19.896 42.9411 19.948 42.9542 19.9871C42.9411 19.961 42.9281 19.922 42.9151 19.896Z" fill="#C4C4C4"/>
<path d="M43.0583 20.2085C43.0973 20.3126 43.1493 20.4166 43.1884 20.5337C43.1493 20.4166 43.1103 20.3126 43.0583 20.2085Z" fill="#C4C4C4"/>
<path d="M43.5917 23.3953C43.5917 23.1221 43.5917 22.8619 43.5656 22.6147C43.5656 22.6017 43.5656 22.5887 43.5656 22.5757C43.5266 22.0814 43.4616 21.6131 43.3705 21.1968C43.3705 21.1968 43.3705 21.1968 43.3705 21.1838C43.3315 21.0016 43.2795 20.8325 43.2274 20.6634C43.2144 20.6244 43.2014 20.5724 43.1884 20.5333C43.1494 20.4162 43.1103 20.3122 43.0583 20.2081C43.0323 20.13 43.0063 20.065 42.9672 19.987C42.9542 19.9609 42.9412 19.9219 42.9282 19.8959C42.7591 19.5447 42.564 19.2324 42.3428 18.9332C42.2778 18.8552 42.2257 18.7771 42.1607 18.7121C41.3671 17.8145 40.3134 17.3722 39.2467 17.19C38.9605 17.151 38.6743 17.125 38.3491 17.125C38.284 17.125 38.219 17.125 38.154 17.125C38.1019 17.125 38.0629 17.125 38.0109 17.125C37.8808 17.125 37.7377 17.151 37.6076 17.177C37.5946 17.177 37.5816 17.177 37.5686 17.177C37.4775 17.19 37.3864 17.2161 37.2954 17.2421C36.5539 17.4242 35.7603 17.8015 35.0448 18.4389C35.0448 18.4389 35.0188 18.4649 35.0058 18.4649C34.9408 18.53 34.8627 18.595 34.7977 18.6731C34.7196 18.7511 34.6416 18.8292 34.5635 18.9072C33.835 19.7268 33.2756 20.8455 32.9894 22.2635C32.9374 22.5367 32.8984 22.8229 32.8724 23.1221C32.5081 26.9597 34.1993 32.7617 37.3864 36.8595C39.5589 34.4528 41.159 31.838 41.9786 29.8607C42.7461 28.0264 43.6177 24.9173 43.6177 23.4083L43.5917 23.3953Z" fill="#C4C4C4"/>
</svg>
