<svg width="160" height="48" viewBox="0 0 160 48" fill="none" xmlns="http://www.w3.org/2000/svg">
<path d="M80.4449 33.0542V34.4007H67.9486V33.0542H73.4584V31.3619H74.9351V33.0542H80.4449ZM74.1781 29.6695C74.1409 29.756 74.054 29.8548 73.9299 29.966C73.8058 30.0771 73.6445 30.1883 73.4708 30.2995C73.2971 30.4107 73.1109 30.5219 72.9248 30.6207C72.7386 30.7319 72.5649 30.8183 72.4036 30.8924C71.9072 31.1271 71.4108 31.3371 70.9517 31.5348C70.4801 31.7324 70.0086 31.9177 69.537 32.103L68.991 30.8307C69.5866 30.6207 70.0954 30.423 70.5422 30.2254C70.9889 30.0401 71.4108 29.8548 71.8079 29.6571C72.3043 29.4224 72.7014 29.163 72.9992 28.8542C73.2971 28.5577 73.446 28.2365 73.446 27.8907V27.7918H69.5618V26.4824H78.8068V27.7918H74.9103V27.8907C74.9103 28.2365 75.0592 28.5454 75.357 28.8295C75.6548 29.1136 76.0519 29.373 76.5483 29.6324C76.9454 29.8301 77.3673 30.0277 77.8141 30.213C78.2608 30.3983 78.782 30.596 79.3653 30.8183L78.8317 32.0907C78.3353 31.893 77.8637 31.7077 77.4046 31.5101C76.9454 31.3124 76.4739 31.1024 76.0023 30.8801C75.841 30.806 75.6673 30.7195 75.4687 30.6083C75.2702 30.4971 75.084 30.3983 74.9103 30.2871C74.7366 30.176 74.5752 30.0648 74.4511 29.9536C74.327 29.8424 74.2278 29.7436 74.1905 29.6571H74.1781V29.6695ZM74.1905 41.096C73.5452 41.096 72.9496 41.0342 72.4284 40.8984C71.9072 40.7625 71.4481 40.5772 71.0882 40.3425C70.7159 40.1078 70.4305 39.8237 70.2443 39.4901C70.0582 39.1566 69.9465 38.8231 69.9465 38.4401V37.8966C69.9465 37.5136 70.0458 37.1554 70.2443 36.8342C70.4429 36.5131 70.7283 36.2289 71.0882 35.9942C71.4481 35.7595 71.9072 35.5742 72.4284 35.4383C72.9496 35.3025 73.5452 35.2407 74.1905 35.2407C74.8358 35.2407 75.4315 35.3025 75.9527 35.4383C76.4739 35.5742 76.9206 35.7595 77.2929 35.9942C77.6652 36.2289 77.9506 36.5131 78.1491 36.8342C78.3477 37.1554 78.447 37.5013 78.447 37.8842V38.4278C78.447 38.7984 78.3477 39.1442 78.1491 39.4654C77.9506 39.7866 77.6652 40.0584 77.3053 40.3054C76.933 40.5401 76.4863 40.7378 75.9651 40.8737C75.4439 41.0095 74.8482 41.0837 74.2029 41.0837L74.1905 41.096ZM74.1905 36.5501C73.781 36.5501 73.3963 36.5872 73.0489 36.6736C72.7014 36.7478 72.4036 36.8589 72.1678 36.9948C71.9196 37.1307 71.7335 37.2789 71.597 37.4519C71.4605 37.6248 71.386 37.8101 71.386 38.0078V38.3536C71.386 38.5389 71.4605 38.7242 71.597 38.8972C71.7335 39.0701 71.932 39.2307 72.1678 39.3542C72.416 39.4901 72.7138 39.5889 73.0489 39.6754C73.3963 39.7619 73.7686 39.7989 74.1905 39.7989C74.6125 39.7989 74.9847 39.7619 75.3322 39.6754C75.6797 39.6013 75.9775 39.4901 76.2133 39.3542C76.4615 39.2184 76.6476 39.0701 76.7841 38.8972C76.9206 38.7242 76.9951 38.5389 76.9951 38.3536V38.0078C76.9951 37.8101 76.9206 37.6372 76.7841 37.4519C76.6476 37.2789 76.4491 37.1183 76.2133 36.9948C75.9651 36.8589 75.6673 36.7601 75.3322 36.6736C74.9847 36.5872 74.6125 36.5501 74.1905 36.5501Z" fill="#262262"/>
<path d="M88.6972 28.8294H80.8792V27.5076H84.0685V25.7905H85.5204V27.5076H88.6972V28.8294ZM84.8006 34.4006C84.205 34.4006 83.7086 34.3264 83.2991 34.1782C82.8896 34.03 82.5669 33.8447 82.3187 33.6223C82.0705 33.4 81.8968 33.1529 81.7851 32.8688C81.6734 32.597 81.6238 32.3253 81.6238 32.0658V31.6458C81.6238 31.3864 81.6734 31.127 81.7851 30.8429C81.8968 30.5711 82.0705 30.3117 82.3187 30.0894C82.5669 29.8547 82.8896 29.6694 83.2991 29.5335C83.7086 29.3852 84.205 29.3235 84.8006 29.3235C85.3963 29.3235 85.8926 29.3976 86.3022 29.5458C86.7117 29.6941 87.0343 29.8794 87.2825 30.1017C87.5307 30.3241 87.7044 30.5711 87.8161 30.8553C87.9278 31.127 87.9774 31.3988 87.9774 31.6582V32.0782C87.9774 32.3376 87.9278 32.597 87.8161 32.8811C87.7044 33.1529 87.5307 33.4123 87.2825 33.6347C87.0343 33.857 86.7117 34.0423 86.3022 34.1906C85.8926 34.3388 85.3963 34.4129 84.8006 34.4129V34.4006ZM84.8006 33.1406C85.1481 33.1406 85.4335 33.1035 85.6569 33.017C85.8802 32.9429 86.0664 32.8441 86.2029 32.7206C86.3394 32.597 86.4387 32.4735 86.5007 32.35C86.5628 32.2264 86.5876 32.0906 86.5876 31.9794V31.757C86.5876 31.6458 86.5628 31.5347 86.5007 31.3864C86.4387 31.2382 86.3518 31.1147 86.2153 31.0035C86.0788 30.88 85.8926 30.7935 85.6569 30.707C85.4211 30.6329 85.1357 30.5835 84.7882 30.5835C84.4407 30.5835 84.1553 30.6205 83.9195 30.707C83.6838 30.7935 83.4976 30.88 83.3611 31.0035C83.2246 31.1147 83.1253 31.2506 83.0757 31.3864C83.0261 31.5223 82.9888 31.6458 82.9888 31.757V31.9794C82.9888 32.1029 83.0137 32.2264 83.0757 32.35C83.1378 32.4858 83.237 32.6094 83.3735 32.7206C83.51 32.8317 83.6962 32.9306 83.9195 33.017C84.1429 33.1035 84.4283 33.1406 84.7758 33.1406H84.8006ZM91.4769 35.0182V40.6882H83.175V35.0182H84.6269V36.5129H90.0374V35.0182H91.4893H91.4769ZM90.025 39.3418V37.847H84.6145V39.3418H90.025ZM93.4128 30.8305H91.4769V34.2894H90.025V25.9635H91.4769V29.4594H93.4128V30.8305Z" fill="#262262"/>
<path d="M102.174 34.3387C101.578 34.4005 101.02 34.4622 100.461 34.5116C99.9152 34.5611 99.3195 34.5981 98.6618 34.6228C98.0041 34.6475 97.2595 34.6722 96.4405 34.6846C95.6215 34.6969 94.6288 34.7093 93.4995 34.7093V33.3505H96.2172V30.2993H97.6691V33.3134C98.0786 33.3134 98.4633 33.2887 98.8231 33.2763C99.183 33.264 99.5429 33.2393 99.8903 33.2146C100.238 33.1899 100.598 33.1652 100.945 33.1405C101.305 33.1158 101.665 33.0787 102.05 33.0416L102.161 34.3511L102.174 34.3387ZM99.3319 31.7816C99.4436 31.2258 99.5181 30.6946 99.5801 30.1757C99.6422 29.6569 99.667 29.1628 99.667 28.7057V28.0881H94.4178V26.7293H101.106V28.4834C101.106 28.7675 101.106 29.064 101.082 29.3728C101.069 29.6816 101.044 29.9905 101.02 30.2993C100.995 30.6081 100.958 30.9046 100.908 31.1887C100.858 31.4728 100.821 31.7322 100.771 31.9669L99.3443 31.7693L99.3319 31.7816ZM97.1106 39.1811H104.705V40.5399H95.6463V36.1175H97.1106V39.1811ZM102.893 36.8834V25.9634H104.345V30.4475H106.269V31.8187H104.345V36.8834H102.893Z" fill="#262262"/>
<path d="M108.726 32.6462V35.7715H110.116C110.612 35.7715 111.059 35.7715 111.456 35.7592C111.865 35.7592 112.25 35.7345 112.61 35.6974C112.982 35.6727 113.342 35.6356 113.69 35.5986C114.037 35.5615 114.409 35.5121 114.794 35.4503L114.931 36.7721C114.583 36.8215 114.236 36.8709 113.888 36.9203C113.541 36.9697 113.156 37.0068 112.747 37.0315C112.337 37.0686 111.89 37.0933 111.406 37.1056C110.922 37.118 110.364 37.1303 109.756 37.1303H107.274V31.3244H111.915V28.4956H107.237V27.1368H113.367V32.6462H108.726ZM116.097 40.688V25.9756H117.561V40.688H116.097Z" fill="#262262"/>
<path d="M123.332 33.3256C123.257 33.5109 123.158 33.6839 123.034 33.8691C122.91 34.0544 122.711 34.2768 122.476 34.5609C122.165 34.9192 121.818 35.3144 121.421 35.7345C121.024 36.1545 120.577 36.6115 120.081 37.118L119.125 36.0433C120.019 35.1786 120.8 34.3633 121.458 33.5727C121.681 33.3009 121.868 33.0415 122.016 32.8068C122.165 32.5721 122.277 32.3374 122.364 32.115C122.451 31.8803 122.513 31.658 122.538 31.4109C122.575 31.1762 122.587 30.9044 122.587 30.6203V27.0256H124.064V30.6203C124.064 30.9415 124.089 31.2256 124.126 31.4727C124.163 31.7197 124.225 31.9668 124.312 32.1891C124.399 32.4115 124.523 32.6462 124.672 32.8809C124.821 33.1156 125.02 33.3627 125.243 33.6221C125.553 33.9927 125.888 34.3633 126.236 34.7092C126.583 35.055 126.98 35.4627 127.415 35.8827L126.471 36.9697C125.963 36.4633 125.528 36.0186 125.181 35.6356C124.833 35.2527 124.511 34.9068 124.225 34.5733C124.014 34.3262 123.828 34.1039 123.667 33.8815C123.506 33.6715 123.394 33.4862 123.332 33.3256ZM128.891 40.688V25.9756H130.356V40.688H128.891Z" fill="#262262"/>
<path d="M144.341 37.3773V38.7238H131.845V37.3773H144.341ZM138.087 31.5344C138.012 31.7197 137.826 31.942 137.528 32.2261C137.243 32.4979 136.846 32.8067 136.337 33.1526C135.903 33.4491 135.444 33.7579 134.96 34.0667C134.476 34.3756 133.93 34.7215 133.309 35.092L132.589 33.8444C133.185 33.4985 133.719 33.165 134.215 32.8562C134.711 32.5473 135.195 32.2138 135.692 31.8556C136.027 31.6085 136.3 31.3738 136.523 31.1514C136.734 30.9291 136.908 30.6944 137.032 30.4473C137.156 30.2003 137.243 29.9408 137.28 29.6444C137.33 29.3479 137.342 29.0144 137.342 28.6191V27.0132H138.819V28.6191C138.819 29.0144 138.844 29.3603 138.881 29.6444C138.918 29.9408 139.005 30.2126 139.129 30.4597C139.253 30.7067 139.439 30.9538 139.675 31.1885C139.911 31.4232 140.234 31.6826 140.631 31.9667C141.09 32.3003 141.561 32.6091 142.021 32.8932C142.48 33.1773 143.001 33.4985 143.584 33.832L142.877 35.0673C142.331 34.7215 141.785 34.3879 141.264 34.0667C140.742 33.7456 140.258 33.4244 139.812 33.1156C139.328 32.782 138.943 32.4856 138.645 32.2138C138.347 31.942 138.161 31.7197 138.087 31.5344Z" fill="#262262"/>
<path d="M151.129 33.5358C150.782 33.5852 150.447 33.6346 150.124 33.6593C149.801 33.6964 149.417 33.7211 148.995 33.7334C148.56 33.7458 148.051 33.7581 147.443 33.7705C146.835 33.7705 146.078 33.7705 145.16 33.7705V26.7663H150.384V28.0634H146.562V29.6446H149.801V30.9046H146.562V32.4858C147.108 32.4858 147.592 32.4858 147.989 32.4858C148.387 32.4858 148.746 32.4734 149.081 32.4487C149.417 32.4363 149.727 32.4116 150.025 32.3746C150.322 32.3375 150.645 32.3005 150.98 32.2634L151.129 33.5358ZM156.217 40.7005H147.543V35.2899H156.217V40.7005ZM154.79 36.6117H148.982V39.3787H154.79V36.6117ZM150.546 29.3975H152.271V26.161H153.661V34.4869H152.271V30.7316H150.546V29.3852V29.3975ZM154.815 25.9634H156.217V34.5116H154.815V25.9634Z" fill="#262262"/>
<path d="M72.3692 11.6529C72.3075 11.8011 72.2087 11.9617 72.0604 12.147C71.9122 12.3323 71.6528 12.5794 71.2945 12.9129C70.8869 13.2711 70.4669 13.6417 70.0222 14.0123C69.5775 14.3829 69.1204 14.7535 68.6386 15.1488L67.3292 13.4688C67.8357 13.0859 68.3051 12.7153 68.7251 12.3694C69.1451 12.0235 69.5651 11.6406 69.9851 11.2453C70.3434 10.9117 70.6398 10.5164 70.8498 10.0717C71.0598 9.62702 71.171 9.10819 71.171 8.51525V6.08171H73.4069V8.44113C73.4069 8.7376 73.4192 9.00937 73.4563 9.24407C73.481 9.47878 73.5428 9.70113 73.6292 9.91113C73.7157 10.1211 73.8392 10.3188 73.9875 10.5041C74.1357 10.6894 74.3334 10.887 74.5681 11.0723C74.9016 11.3688 75.2969 11.6776 75.754 12.0111C76.1987 12.3447 76.6434 12.6782 77.0881 12.987L75.8651 14.5806C75.4575 14.2964 75.0622 14 74.6916 13.7159C74.321 13.4317 73.9751 13.16 73.6416 12.8882C73.3328 12.6411 73.0734 12.4188 72.8263 12.2088C72.5916 11.9988 72.4434 11.8135 72.3939 11.6776H72.3816L72.3692 11.6529ZM75.5316 22.7335C74.7904 22.7335 74.111 22.6594 73.4934 22.4988C72.8757 22.3382 72.3569 22.1159 71.9245 21.8318C71.4922 21.5353 71.1463 21.1894 70.9116 20.7941C70.6769 20.3865 70.5533 19.9418 70.5533 19.46V18.6941C70.5533 18.2123 70.6769 17.7676 70.9116 17.36C71.1463 16.9523 71.4922 16.6065 71.9245 16.3223C72.3569 16.0259 72.8881 15.8035 73.4934 15.6553C74.0987 15.507 74.7781 15.4206 75.5316 15.4206C76.2851 15.4206 76.9522 15.4947 77.5698 15.6553C78.1875 15.8159 78.7063 16.0382 79.1387 16.3223C79.571 16.6065 79.9169 16.9647 80.1516 17.36C80.3863 17.7553 80.5099 18.2123 80.5099 18.6941V19.46C80.5099 19.9418 80.3863 20.3865 80.1516 20.7941C79.9169 21.2018 79.571 21.5476 79.1387 21.8318C78.7063 22.1159 78.1751 22.3382 77.5698 22.4988C76.9646 22.6594 76.2851 22.7335 75.5316 22.7335ZM75.5316 17.2735C75.0869 17.2735 74.6916 17.3229 74.3457 17.4218C73.9998 17.5206 73.7034 17.6441 73.4687 17.7923C73.2339 17.9406 73.0487 18.1135 72.9128 18.2865C72.7769 18.4594 72.7151 18.6447 72.7151 18.83V19.2994C72.7151 19.4847 72.7769 19.6576 72.9128 19.8429C73.0363 20.0282 73.2216 20.1888 73.4687 20.3371C73.7157 20.4853 73.9998 20.6088 74.3457 20.7076C74.6916 20.8065 75.0869 20.8559 75.5316 20.8559C75.9763 20.8559 76.3716 20.8065 76.7175 20.7076C77.0634 20.6088 77.3598 20.4853 77.5946 20.3371C77.8293 20.1888 78.0146 20.0159 78.1504 19.8429C78.274 19.6576 78.3481 19.4847 78.3481 19.2994V18.83C78.3481 18.6447 78.2863 18.4718 78.1504 18.2865C78.0269 18.1012 77.8416 17.9406 77.5946 17.7923C77.3598 17.6441 77.0634 17.5206 76.7175 17.4218C76.3716 17.3229 75.9763 17.2735 75.5316 17.2735ZM80.4604 9.20701H82.5975V11.1958H80.4604V15.3341H78.2616V5.36523H80.4604V9.20701Z" fill="#262262"/>
<path d="M89.4162 14.7537C89.1444 14.5066 88.848 14.2472 88.5268 13.9384C88.2056 13.6419 87.9215 13.3825 87.6868 13.1601C87.415 12.9007 87.2174 12.6907 87.0691 12.5178C86.9209 12.3448 86.8221 12.1842 86.7603 12.0607H86.748C86.6862 12.2213 86.5874 12.3819 86.4638 12.5548C86.328 12.7278 86.1427 12.9501 85.8956 13.2219C85.6609 13.4689 85.3644 13.7778 84.9815 14.1607C84.6109 14.5437 84.2032 14.9389 83.7585 15.3466L82.3379 13.8395C82.7085 13.506 83.0791 13.1478 83.4497 12.7895C83.8203 12.4313 84.1785 12.0483 84.5244 11.6654C84.7344 11.4307 84.9074 11.2083 85.0432 10.9983C85.1791 10.776 85.2903 10.5536 85.3768 10.3313C85.4632 10.0966 85.5127 9.86187 85.5374 9.61481C85.5621 9.36775 85.5868 9.09598 85.5868 8.78716V6.23009H87.7485V8.67598C87.7485 8.97245 87.7486 9.24422 87.7856 9.49128C87.8227 9.73834 87.8597 9.96069 87.9338 10.183C88.008 10.4054 88.1191 10.6154 88.2427 10.8254C88.3785 11.0354 88.5515 11.2454 88.7615 11.4678C89.3668 12.1101 90.0092 12.7278 90.7009 13.3207L89.4038 14.766L89.4162 14.7537ZM91.3556 22.7337C90.6021 22.7337 89.898 22.6596 89.268 22.5113C88.638 22.3631 88.0821 22.1531 87.625 21.8813C87.168 21.5972 86.8097 21.2637 86.538 20.8807C86.2785 20.4854 86.1427 20.0407 86.1427 19.5466V18.7807C86.1427 18.2866 86.2785 17.8419 86.538 17.4466C86.7974 17.0513 87.1556 16.7178 87.625 16.446C88.0821 16.1742 88.638 15.9519 89.268 15.816C89.898 15.6678 90.6021 15.5937 91.3556 15.5937C92.1092 15.5937 92.7886 15.6678 93.4309 15.816C94.0733 15.9642 94.6168 16.1742 95.0862 16.446C95.5433 16.7301 95.9015 17.0637 96.1733 17.4466C96.4451 17.8295 96.5686 18.2866 96.5686 18.7807V19.5466C96.5686 20.0407 96.4327 20.4854 96.1733 20.8807C95.9139 21.276 95.5556 21.6096 95.0862 21.8813C94.6292 22.1531 94.0733 22.3754 93.4309 22.5113C92.7886 22.6472 92.0968 22.7337 91.3556 22.7337ZM91.3556 17.4343C90.9603 17.4343 90.5774 17.4713 90.2068 17.5578C89.8362 17.6319 89.515 17.7431 89.2433 17.879C88.9591 18.0148 88.7368 18.1754 88.5762 18.3607C88.4033 18.546 88.3291 18.7437 88.3291 18.9537V19.349C88.3291 19.5713 88.4156 19.769 88.5762 19.9419C88.7491 20.1272 88.9715 20.2878 89.2433 20.4237C89.515 20.5596 89.8486 20.6707 90.2068 20.7449C90.5774 20.819 90.9603 20.8684 91.3556 20.8684C91.7509 20.8684 92.1339 20.8313 92.5045 20.7449C92.875 20.6707 93.1962 20.5596 93.468 20.4237C93.7521 20.2878 93.9745 20.1272 94.135 19.9419C94.308 19.7566 94.3821 19.559 94.3821 19.349V18.9537C94.3821 18.7313 94.2956 18.5337 94.135 18.3607C93.9621 18.1754 93.7398 18.0148 93.468 17.879C93.1839 17.7431 92.8627 17.6319 92.5045 17.5578C92.1339 17.4837 91.7509 17.4343 91.3556 17.4343ZM93.0727 9.10834H94.4192V5.35303H96.5192V15.5072H94.4192V11.0848H93.0727V14.8031H90.9974V5.58773H93.0727V9.12069V9.10834Z" fill="#262262"/>
<path d="M103.585 6.94626H107.204V8.83627H97.8408V6.94626H101.386V5.13037H103.585V6.94626ZM102.498 15.1363C101.88 15.1363 101.337 15.0745 100.855 14.9386C100.373 14.8028 99.9779 14.6175 99.6444 14.3828C99.3232 14.1481 99.0761 13.8639 98.9032 13.5551C98.7302 13.2339 98.6561 12.8881 98.6561 12.5175V11.9739C98.6561 11.6033 98.7426 11.2575 98.9032 10.9363C99.0761 10.6151 99.3232 10.3433 99.6444 10.1086C99.9655 9.87392 100.373 9.68862 100.855 9.55274C101.337 9.41686 101.88 9.35509 102.498 9.35509C103.116 9.35509 103.659 9.41686 104.141 9.55274C104.623 9.68862 105.018 9.87392 105.351 10.1086C105.673 10.3433 105.92 10.6275 106.093 10.9363C106.266 11.2575 106.352 11.6033 106.352 11.9739V12.5175C106.352 12.8881 106.266 13.2339 106.093 13.5551C105.92 13.8763 105.673 14.1481 105.351 14.3828C105.03 14.6175 104.623 14.8028 104.141 14.9386C103.659 15.0745 103.116 15.1363 102.498 15.1363ZM102.498 11.0969C101.917 11.0969 101.473 11.1957 101.176 11.3933C100.88 11.591 100.731 11.8133 100.731 12.0728V12.3939C100.731 12.6533 100.88 12.8757 101.176 13.0733C101.473 13.271 101.917 13.3698 102.498 13.3698C103.078 13.3698 103.523 13.271 103.82 13.0733C104.116 12.8757 104.264 12.6533 104.264 12.3939V12.0728C104.264 11.8133 104.116 11.591 103.82 11.3933C103.523 11.1957 103.078 11.0969 102.498 11.0969ZM111.269 15.8157V22.264H100.929V15.8157H103.116V17.2239H109.094V15.8157H111.281H111.269ZM109.082 20.4234V19.0769H103.103V20.4234H109.082ZM109.082 14.0986H107.093V12.1963H109.082V11.2204H107.093V9.31804H109.082V5.38978H111.269V15.0745H109.082V14.111V14.0986Z" fill="#262262"/>
<path d="M115.716 13.2586C116.939 13.2586 118.075 13.2463 119.125 13.2092C120.175 13.1845 121.238 13.1104 122.3 12.9992L122.498 14.8892C121.991 14.951 121.46 15.0004 120.879 15.0375C120.299 15.0745 119.656 15.0992 118.94 15.124C118.223 15.1487 117.42 15.1487 116.543 15.161C115.666 15.1734 114.666 15.161 113.542 15.161V9.73805H118.384V8.03333H113.542V6.13097H120.546V11.5663H115.703V13.2463L115.716 13.2586ZM115.629 16.4704H126.389V22.4493H124.19V18.3851H115.629V16.4581V16.4704ZM124.202 12.3198H121.596V10.3928H124.202V9.29334H121.596V7.36627H124.202V5.37744H126.389V15.7045H124.202V12.3198Z" fill="#262262"/>
<path d="M128.724 16.9523C129.601 16.4088 130.342 15.927 130.959 15.507C131.577 15.087 132.096 14.6917 132.504 14.3335C132.911 13.9753 133.245 13.6417 133.479 13.3206C133.714 12.9994 133.899 12.6782 134.023 12.357C134.147 12.0359 134.221 11.69 134.258 11.3194C134.295 10.9611 134.307 10.5535 134.307 10.1088V8.86113H129.008V6.88465H136.518V10.22C136.518 10.8253 136.494 11.3688 136.432 11.8629C136.37 12.357 136.259 12.8264 136.086 13.2464C135.913 13.6788 135.678 14.0864 135.37 14.4941C135.061 14.8894 134.665 15.3094 134.171 15.7417C133.677 16.1741 133.084 16.6312 132.38 17.1253C131.676 17.6194 130.836 18.1629 129.872 18.7806L128.699 16.9647L128.724 16.9523ZM141.682 22.2271H139.458V5.36523H141.682V22.2271Z" fill="#262262"/>
<path d="M153.269 12.0236C153.392 11.443 153.491 10.8624 153.541 10.2694C153.59 9.68886 153.615 9.17003 153.615 8.73768V7.95944H145.054V6.02002H155.814V8.61415C155.814 8.82415 155.814 9.05886 155.789 9.34297C155.777 9.62709 155.752 9.91121 155.715 10.22C155.69 10.5289 155.653 10.8377 155.604 11.1465C155.554 11.4553 155.505 11.7518 155.468 12.0236H158V13.963H143.115V12.0236H153.269ZM145.202 15.6801H155.925V22.2271H145.202V15.6801ZM147.389 20.3618H153.751V17.5577H147.389V20.3618Z" fill="#262262"/>
<path d="M26.9904 14.416C30.1385 14.5591 32.8183 11.9053 32.9745 8.48394C33.1306 5.0496 30.7109 2.16163 27.5628 2.00553C24.4146 1.86243 21.7348 4.51624 21.5787 7.93757C21.4226 11.3589 23.8422 14.2599 26.9904 14.403V14.416Z" fill="#6DCFF6"/>
<path d="M50.4326 24.0946C51.9287 24.3158 53.3726 22.9108 53.6718 20.9335C53.9711 18.9561 52.9954 17.1869 51.5124 16.9658C50.0164 16.7446 48.5724 18.1496 48.2732 20.1269C47.974 22.1043 48.9496 23.8735 50.4326 24.0946Z" fill="#8DC63F"/>
<path d="M43.9671 21.9868C43.9932 22.0649 44.0322 22.1299 44.0582 22.208C44.0322 22.1299 44.0062 22.0649 43.9671 21.9868Z" fill="url(#paint0_linear_105_189)"/>
<path d="M44.1753 22.5337C44.1753 22.5337 44.2013 22.6248 44.2143 22.6638C44.2013 22.6248 44.1883 22.5727 44.1753 22.5337Z" fill="url(#paint1_linear_105_189)"/>
<path d="M33.8463 25.1224C33.8723 24.8232 33.9113 24.537 33.9634 24.2638C33.9634 24.2638 33.9634 24.2898 33.9634 24.3028C33.5341 26.4753 31.5567 29.1941 29.2021 29.6625C22.3204 31.0154 20.0569 23.8865 17.5462 19.1643C16.8437 17.8374 15.2826 13.7006 10.7555 13.5705C5.68207 13.4274 0.374448 18.2277 2.46888 26.8395C4.05596 33.37 12.2646 49.1237 28.7338 45.13C32.5324 44.2064 35.8496 41.6697 38.3864 38.8597C35.1862 34.7619 33.508 28.973 33.8723 25.1224H33.8463Z" fill="url(#paint2_linear_105_189)"/>
<path d="M44.5525 24.4331C44.5265 24.0168 44.4614 23.6005 44.3704 23.1973C44.4614 23.6135 44.5395 24.0689 44.5655 24.5762C44.5655 24.5242 44.5655 24.4851 44.5655 24.4331H44.5525Z" fill="url(#paint3_linear_105_189)"/>
<path d="M59.4345 26.7227C57.6523 25.8121 56.5075 27.3471 55.714 29.2984C54.3481 32.6417 51.1739 34.4499 48.9104 33.6044C47.3493 33.032 46.3606 31.4709 45.6581 29.7928C44.8126 27.7764 44.7215 26.7617 44.5654 24.6152C44.5784 24.8624 44.5914 25.1226 44.5914 25.3958C44.5914 26.9048 43.7068 30.0139 42.9523 31.8482C42.1327 33.8255 40.5326 36.4403 38.3602 38.8469C40.5717 41.6829 43.5247 43.7123 47.0241 43.7123C54.6863 43.7123 58.4459 36.3622 60.3322 31.1327C61.3989 28.1667 60.6574 27.3341 59.4345 26.7097V26.7227Z" fill="url(#paint4_linear_105_189)"/>
<path d="M43.9151 21.896C43.9151 21.896 43.9411 21.948 43.9541 21.9871C43.9411 21.961 43.9281 21.922 43.9151 21.896Z" fill="url(#paint5_linear_105_189)"/>
<path d="M44.0583 22.2085C44.0973 22.3126 44.1494 22.4166 44.1884 22.5337C44.1494 22.4166 44.1103 22.3126 44.0583 22.2085Z" fill="url(#paint6_linear_105_189)"/>
<path d="M44.5917 25.3953C44.5917 25.1221 44.5917 24.8619 44.5656 24.6147C44.5656 24.6017 44.5656 24.5887 44.5656 24.5757C44.5266 24.0814 44.4616 23.6131 44.3705 23.1968C44.3705 23.1968 44.3705 23.1968 44.3705 23.1838C44.3315 23.0016 44.2794 22.8325 44.2274 22.6634C44.2144 22.6244 44.2014 22.5724 44.1884 22.5333C44.1494 22.4162 44.1103 22.3122 44.0583 22.2081C44.0323 22.13 44.0063 22.065 43.9672 21.987C43.9542 21.9609 43.9412 21.9219 43.9282 21.8959C43.7591 21.5447 43.564 21.2324 43.3428 20.9332C43.2778 20.8552 43.2257 20.7771 43.1607 20.7121C42.3671 19.8145 41.3134 19.3722 40.2467 19.19C39.9605 19.151 39.6743 19.125 39.3491 19.125C39.284 19.125 39.219 19.125 39.154 19.125C39.1019 19.125 39.0629 19.125 39.0109 19.125C38.8808 19.125 38.7377 19.151 38.6076 19.177C38.5946 19.177 38.5816 19.177 38.5686 19.177C38.4775 19.19 38.3864 19.2161 38.2954 19.2421C37.5539 19.4242 36.7603 19.8015 36.0448 20.4389C36.0448 20.4389 36.0188 20.4649 36.0058 20.4649C35.9408 20.53 35.8627 20.595 35.7977 20.6731C35.7196 20.7511 35.6416 20.8292 35.5635 20.9072C34.835 21.7268 34.2756 22.8455 33.9894 24.2635C33.9374 24.5367 33.8984 24.8229 33.8723 25.1221C33.5081 28.9597 35.1993 34.7617 38.3864 38.8595C40.5589 36.4528 42.159 33.838 42.9786 31.8607C43.7461 30.0264 44.6177 26.9173 44.6177 25.4083L44.5917 25.3953Z" fill="#2DA44A"/>
<defs>
<linearGradient id="paint0_linear_105_189" x1="43.9671" y1="22.0909" x2="44.0452" y2="22.0909" gradientUnits="userSpaceOnUse">
<stop stop-color="#44C8F5"/>
<stop offset="1" stop-color="#0089CF"/>
</linearGradient>
<linearGradient id="paint1_linear_105_189" x1="44.1753" y1="22.5987" x2="44.2143" y2="22.5987" gradientUnits="userSpaceOnUse">
<stop stop-color="#44C8F5"/>
<stop offset="1" stop-color="#0089CF"/>
</linearGradient>
<linearGradient id="paint2_linear_105_189" x1="34.3406" y1="29.6625" x2="0.0362178" y2="29.6625" gradientUnits="userSpaceOnUse">
<stop stop-color="#44C8F5"/>
<stop offset="1" stop-color="#0089CF"/>
</linearGradient>
<linearGradient id="paint3_linear_105_189" x1="44.3574" y1="23.8867" x2="44.5525" y2="23.8867" gradientUnits="userSpaceOnUse">
<stop stop-color="#A6CE39"/>
<stop offset="1" stop-color="#0DB14B"/>
</linearGradient>
<linearGradient id="paint4_linear_105_189" x1="59.9159" y1="34.1768" x2="36.682" y2="34.1768" gradientUnits="userSpaceOnUse">
<stop stop-color="#A6CE39"/>
<stop offset="1" stop-color="#0DB14B"/>
</linearGradient>
<linearGradient id="paint5_linear_105_189" x1="43.9151" y1="21.948" x2="43.9672" y2="21.948" gradientUnits="userSpaceOnUse">
<stop stop-color="#A6CE39"/>
<stop offset="1" stop-color="#0DB14B"/>
</linearGradient>
<linearGradient id="paint6_linear_105_189" x1="44.0453" y1="22.3646" x2="44.1754" y2="22.3646" gradientUnits="userSpaceOnUse">
<stop stop-color="#A6CE39"/>
<stop offset="1" stop-color="#0DB14B"/>
</linearGradient>
</defs>
</svg>
