<svg width="60" height="45" viewBox="0 0 60 45" fill="none" xmlns="http://www.w3.org/2000/svg">
<path d="M25.7479 13.9624C28.7907 14.1072 31.3827 11.5317 31.5276 8.21577C31.6886 4.89981 29.3381 2.09895 26.2953 1.97018C23.2525 1.82531 20.6605 4.40081 20.5156 7.71677C20.3546 11.0327 22.7051 13.8336 25.7479 13.9624Z" fill="#6DCFF6"/>
<path d="M48.3995 23.3146C49.8485 23.5239 51.233 22.1717 51.5228 20.2562C51.8126 18.3568 50.8788 16.6344 49.4299 16.4252C47.981 16.2159 46.5964 17.568 46.3066 19.4836C46.0168 21.383 46.9506 23.1054 48.3995 23.3146Z" fill="#8DC63F"/>
<path d="M42.1523 21.2866C42.1523 21.2866 42.2167 21.4315 42.2328 21.4959C42.2006 21.4315 42.1845 21.351 42.1523 21.2866Z" fill="url(#paint0_linear_7449_9770)"/>
<path d="M42.3633 21.8179C42.3633 21.8179 42.3961 21.8984 42.3961 21.9466C42.3961 21.8984 42.3633 21.8662 42.3633 21.8179Z" fill="url(#paint1_linear_7449_9770)"/>
<path d="M32.3804 24.3127C32.4126 24.023 32.4448 23.7493 32.4931 23.4918C32.4931 23.4918 32.4931 23.5079 32.4931 23.524C32.0745 25.6327 30.1587 28.2565 27.8887 28.7072C21.2397 30.011 19.0501 23.1216 16.6191 18.5661C15.943 17.2784 14.4296 13.2864 10.0506 13.1576C5.1403 13.0127 0.0207044 17.6647 2.04922 25.9868C3.59476 32.2968 11.5156 47.5244 27.4379 43.6773C31.1086 42.792 34.3123 40.3291 36.7594 37.6088C33.6684 33.6489 32.0423 28.0472 32.3965 24.3288L32.3804 24.3127Z" fill="url(#paint2_linear_7449_9770)"/>
<path d="M42.7318 23.6526C42.6996 23.2502 42.6352 22.8478 42.5547 22.4614C42.6513 22.8638 42.7157 23.3146 42.7479 23.7975C42.7479 23.7492 42.7479 23.7009 42.7479 23.6526H42.7318Z" fill="url(#paint3_linear_7449_9770)"/>
<path d="M57.1083 25.8578C55.3857 24.9725 54.2749 26.4695 53.5021 28.3528C52.1819 31.5883 49.1231 33.3268 46.9336 32.5219C45.4202 31.9585 44.4704 30.4615 43.7942 28.8357C42.9731 26.888 42.8926 25.9061 42.7316 23.8296C42.7477 24.071 42.7638 24.3286 42.7638 24.5861C42.7638 26.0349 41.9106 29.045 41.17 30.8156C40.3811 32.7312 38.8356 35.2584 36.7266 37.5924C38.8678 40.3289 41.7174 42.2927 45.0982 42.2927C52.5039 42.2927 56.1424 35.194 57.9616 30.1396C58.992 27.2743 58.2836 26.4695 57.0923 25.8578H57.1083Z" fill="url(#paint4_linear_7449_9770)"/>
<path d="M42.1211 21.1899C42.1211 21.1899 42.1539 21.2382 42.1703 21.2704C42.1703 21.2382 42.1375 21.206 42.1211 21.1899Z" fill="url(#paint5_linear_7449_9770)"/>
<path d="M42.25 21.4956C42.2983 21.5922 42.3305 21.7049 42.3627 21.8175C42.3305 21.7049 42.2822 21.6083 42.25 21.4956Z" fill="url(#paint6_linear_7449_9770)"/>
<path d="M42.4102 21.9302C42.4585 22.0911 42.5068 22.2521 42.5551 22.4292C42.5229 22.2521 42.4746 22.0911 42.4102 21.9302Z" fill="url(#paint7_linear_7449_9770)"/>
<path d="M42.764 24.5861C42.764 24.3286 42.764 24.071 42.7318 23.8296V23.7974C42.6996 23.3145 42.6352 22.8638 42.5386 22.4613C42.4903 22.2843 42.442 22.1233 42.3937 21.9623C42.3937 21.9141 42.3615 21.8819 42.3615 21.8336C42.3293 21.7209 42.281 21.6243 42.2488 21.5116C42.2166 21.4472 42.2005 21.3668 42.1683 21.3024C42.1683 21.2702 42.1361 21.238 42.12 21.2219C41.959 20.8839 41.7658 20.578 41.5405 20.2883C41.4761 20.2239 41.4278 20.1434 41.3634 20.079C40.5906 19.2098 39.5763 18.7752 38.546 18.6142C38.2723 18.582 37.9825 18.5498 37.6766 18.5498C37.6122 18.5498 37.5478 18.5498 37.4834 18.5498C37.4351 18.5498 37.3868 18.5498 37.3546 18.5498C37.2258 18.5498 37.097 18.582 36.9682 18.5981H36.936C36.8394 18.5981 36.7589 18.6303 36.6623 18.6625C35.954 18.8395 35.1812 19.2098 34.4889 19.8215C34.4889 19.8215 34.4728 19.8376 34.4567 19.8537C34.3923 19.918 34.3279 19.9824 34.2474 20.0468C34.1669 20.1273 34.1025 20.1917 34.022 20.2722C33.3137 21.077 32.7663 22.1394 32.4926 23.5076C32.4443 23.7652 32.396 24.0388 32.3799 24.3286C32.0257 28.047 33.6518 33.6487 36.7428 37.6085C38.8358 35.2745 40.3813 32.7473 41.1863 30.8317C41.9268 29.0611 42.7801 26.051 42.7801 24.6022L42.764 24.5861Z" fill="#2DA44A"/>
<defs>
<linearGradient id="paint0_linear_7449_9770" x1="42.1523" y1="21.3832" x2="42.2328" y2="21.3832" gradientUnits="userSpaceOnUse">
<stop stop-color="#44C8F5"/>
<stop offset="1" stop-color="#0089CF"/>
</linearGradient>
<linearGradient id="paint1_linear_7449_9770" x1="42.3633" y1="21.8662" x2="42.3961" y2="21.8662" gradientUnits="userSpaceOnUse">
<stop stop-color="#44C8F5"/>
<stop offset="1" stop-color="#0089CF"/>
</linearGradient>
<linearGradient id="paint2_linear_7449_9770" x1="32.8473" y1="28.7072" x2="-0.317382" y2="28.7072" gradientUnits="userSpaceOnUse">
<stop stop-color="#44C8F5"/>
<stop offset="1" stop-color="#0089CF"/>
</linearGradient>
<linearGradient id="paint3_linear_7449_9770" x1="42.5386" y1="23.1214" x2="42.7318" y2="23.1214" gradientUnits="userSpaceOnUse">
<stop stop-color="#A6CE39"/>
<stop offset="1" stop-color="#0DB14B"/>
</linearGradient>
<linearGradient id="paint4_linear_7449_9770" x1="57.5752" y1="33.0531" x2="35.1166" y2="33.0531" gradientUnits="userSpaceOnUse">
<stop stop-color="#B6E33B"/>
<stop offset="1" stop-color="#0DB14B"/>
</linearGradient>
<linearGradient id="paint5_linear_7449_9770" x1="42.1047" y1="21.2382" x2="42.1539" y2="21.2382" gradientUnits="userSpaceOnUse">
<stop stop-color="#A6CE39"/>
<stop offset="1" stop-color="#0DB14B"/>
</linearGradient>
<linearGradient id="paint6_linear_7449_9770" x1="42.2339" y1="21.6566" x2="42.3627" y2="21.6566" gradientUnits="userSpaceOnUse">
<stop stop-color="#A6CE39"/>
<stop offset="1" stop-color="#0DB14B"/>
</linearGradient>
<linearGradient id="paint7_linear_7449_9770" x1="42.3941" y1="22.1877" x2="42.539" y2="22.1877" gradientUnits="userSpaceOnUse">
<stop stop-color="#A6CE39"/>
<stop offset="1" stop-color="#0DB14B"/>
</linearGradient>
</defs>
</svg>
