<svg width="1920" height="921" viewBox="0 0 1920 921" fill="none" xmlns="http://www.w3.org/2000/svg">
<path opacity="0.1" d="M977 524C1027.81 524 1069 482.587 1069 431.5C1069 380.414 1027.81 339 977 339C926.19 339 885 380.414 885 431.5C885 482.587 926.19 524 977 524Z" fill="#36BBED"/>
<path d="M1458.12 776.356C1514.75 766.777 1518.69 715.334 1508.32 660.569C1490.53 566.997 1539.14 476.809 1605.95 457.799C1652.02 444.669 1699.21 461.82 1741.26 486.242C1791.94 515.624 1809.58 535.617 1845.85 579.055C1846.05 579.323 1846.32 579.609 1846.52 579.878C1854.94 589.956 1863.47 598.68 1872.13 606.049C1872.19 606.175 1872.33 606.209 1872.44 606.31C1876.22 609.511 1880 612.385 1883.8 615.084C1884.77 615.801 1885.75 616.518 1886.74 617.168C1889.37 618.99 1892.05 620.57 1894.73 622.15C1896.55 623.223 1898.29 624.387 1900.18 625.369C1901 625.792 1901.77 626.131 1902.59 626.554C1911.73 631.242 1921.35 634.921 1931.35 637.531C1933.89 638.165 1936.42 638.908 1938.94 639.392C1939.07 639.426 1939.19 639.418 1939.33 639.453C1971.94 645.569 2003.76 638.124 2031.96 624.494C2039.37 620.742 2046.84 616.53 2054.4 611.466C2055.96 610.363 2057.49 609.326 2059.01 608.14C2060.08 607.352 2061.2 606.539 2062.24 605.709C2065.3 603.268 2068.24 600.727 2071.11 598.059C2071.39 597.802 2071.67 597.544 2072 597.262C2073.99 595.392 2075.84 593.379 2077.74 591.342C2092.68 575.383 2106.1 554.271 2113.74 529.094C2113.86 528.652 2114.01 528.251 2114.15 527.85C2114.89 525.304 2115.44 522.64 2116.04 520.059C2116.72 517.17 2117.46 514.297 2117.95 511.289C2117.95 511.289 2117.96 511.181 2117.98 511.114C2122.85 481.822 2119.6 448.752 2105.04 413.874C2102.11 407.208 2098.87 400.498 2095.03 393.676C2045.55 305.76 1917.7 209.462 1779.08 174.075C1683.09 149.565 1581.93 154.235 1498.1 211.187C1314.67 335.784 1335.79 554.119 1369.59 696.476C1388.78 777.295 1419.09 782.98 1458.08 776.381L1458.12 776.356Z" fill="#3ACA70" fill-opacity="0.1"/>
<path opacity="0.1" d="M549.914 235.641C549.846 235.421 549.702 235.189 549.601 234.979C545.846 226.688 541.749 219.297 537.412 212.776C537.382 212.681 537.297 212.639 537.267 212.544C535.377 209.715 533.412 207.116 531.4 204.601C530.878 203.969 530.379 203.296 529.857 202.664C528.458 200.959 527.009 199.443 525.549 197.895C524.573 196.852 523.611 195.736 522.578 194.746C522.114 194.304 521.679 193.956 521.216 193.513C516.133 188.709 510.536 184.479 504.53 180.93C503.023 180.053 501.486 179.082 499.975 178.309C499.889 178.267 499.803 178.225 499.717 178.183C479.76 168.208 458.145 167.382 437.84 171.397C432.482 172.549 427.002 174.016 421.336 176.058C420.16 176.494 418.994 176.961 417.861 177.417C417.017 177.749 416.206 178.071 415.382 178.466C413.055 179.537 410.725 180.712 408.456 181.972C408.243 182.107 407.987 182.221 407.765 182.325C406.188 183.231 404.683 184.253 403.126 185.222C390.953 193.194 378.919 204.922 369.964 220.386C369.823 220.637 369.649 220.899 369.508 221.15C368.606 222.709 367.851 224.394 367.011 226.037C366.12 227.869 365.176 229.648 364.38 231.554C364.38 231.554 364.366 231.627 364.343 231.669C356.427 250.504 353.193 273.199 356.847 299.236C356.882 299.467 356.874 299.677 356.918 299.939C362.763 339.936 344.108 399.275 304.641 422.592C189.259 490.774 103.94 384.038 29.1072 319.962C8.05265 301.938 -45.8224 241.516 -128.297 268.984C-220.498 299.724 -286.02 416.595 -194.494 549.504C-125.019 650.404 121.182 865.358 392.64 689.342C455.18 648.785 499.124 583.773 527.179 519.156C551.243 463.794 563.642 408.719 566.006 369.617C568.241 333.283 564.638 274.459 555.25 248.827C553.561 244.173 551.752 239.834 549.881 235.652L549.914 235.641Z" fill="#44C8F5"/>
</svg>
