<svg width="380" height="200" viewBox="0 0 380 200" fill="none" xmlns="http://www.w3.org/2000/svg">
<mask id="mask0_6905_7758" style="mask-type:alpha" maskUnits="userSpaceOnUse" x="0" y="0" width="370" height="200">
<path d="M0 0H370V200H0V0Z" fill="white"/>
</mask>
<g mask="url(#mask0_6905_7758)">
<path d="M311.641 127.223H299.47V185.115H311.641V127.223Z" fill="#6877AD"/>
<path d="M242.478 161.418H226.885V210.403H242.478V161.418Z" fill="#6877AD"/>
<path d="M157.379 115.171V131.073H77.7529V98.54L157.379 115.171Z" fill="#6877AD"/>
<path d="M163.686 131.073H71.4424V244.415H163.686V131.073Z" fill="#7581BC"/>
<path d="M82.5439 131.072V243.07" stroke="#8992CE" stroke-width="5.67" stroke-miterlimit="10"/>
<path d="M99.9297 131.072V243.07" stroke="#8992CE" stroke-width="5.67" stroke-miterlimit="10"/>
<path d="M117.319 131.072V243.07" stroke="#8992CE" stroke-width="5.67" stroke-miterlimit="10"/>
<path d="M134.705 131.072V243.07" stroke="#8992CE" stroke-width="5.67" stroke-miterlimit="10"/>
<path d="M152.092 131.072V243.07" stroke="#8992CE" stroke-width="5.67" stroke-miterlimit="10"/>
<path d="M228.314 64.9189H183.615V223.044H228.314V64.9189Z" fill="#7581BC"/>
<path d="M217.696 86.3408H222.877V80.0959H217.696V86.3408Z" fill="#8992CE"/>
<path d="M208.522 86.3408H213.702V80.0959H208.522V86.3408Z" fill="#8992CE"/>
<path d="M199.353 86.3408H204.533V80.0959H199.353V86.3408Z" fill="#8992CE"/>
<path d="M190.173 86.3408H195.354V80.0959H190.173V86.3408Z" fill="#8992CE"/>
<path d="M217.696 96.6318H222.877V90.387H217.696V96.6318Z" fill="#AEB5EC"/>
<path d="M199.353 96.6318H204.533V90.387H199.353V96.6318Z" fill="#6877AD"/>
<path d="M190.173 96.6318H195.354V90.387H190.173V96.6318Z" fill="#8992CE"/>
<path d="M217.696 106.924H222.877V100.679H217.696V106.924Z" fill="#8992CE"/>
<path d="M208.522 106.924H213.702V100.679H208.522V106.924Z" fill="#8992CE"/>
<path d="M199.353 106.924H204.533V100.679H199.353V106.924Z" fill="#8992CE"/>
<path d="M190.173 106.924H195.354V100.679H190.173V106.924Z" fill="#8992CE"/>
<path d="M217.696 117.21H222.877V110.965H217.696V117.21Z" fill="#8992CE"/>
<path d="M208.522 117.21H213.702V110.965H208.522V117.21Z" fill="#AEB5EC"/>
<path d="M199.353 117.21H204.533V110.965H199.353V117.21Z" fill="#8992CE"/>
<path d="M190.173 117.21H195.354V110.965H190.173V117.21Z" fill="#8992CE"/>
<path d="M217.696 127.497H222.877V121.252H217.696V127.497Z" fill="#8992CE"/>
<path d="M208.522 127.497H213.702V121.252H208.522V127.497Z" fill="#8992CE"/>
<path d="M190.173 127.497H195.354V121.252H190.173V127.497Z" fill="#8992CE"/>
<path d="M217.696 137.788H222.877V131.543H217.696V137.788Z" fill="#8992CE"/>
<path d="M208.522 137.788H213.702V131.543H208.522V137.788Z" fill="#8992CE"/>
<path d="M199.353 137.788H204.533V131.543H199.353V137.788Z" fill="#8992CE"/>
<path d="M190.173 137.788H195.354V131.543H190.173V137.788Z" fill="#6877AD"/>
<path d="M217.696 148.074H222.877V141.829H217.696V148.074Z" fill="#8992CE"/>
<path d="M199.353 148.074H204.533V141.829H199.353V148.074Z" fill="#8992CE"/>
<path d="M190.173 148.074H195.354V141.829H190.173V148.074Z" fill="#8992CE"/>
<path d="M217.696 158.362H222.877V152.117H217.696V158.362Z" fill="#8992CE"/>
<path d="M208.522 158.362H213.702V152.117H208.522V158.362Z" fill="#6877AD"/>
<path d="M199.353 158.362H204.533V152.117H199.353V158.362Z" fill="#8992CE"/>
<path d="M190.173 158.362H195.354V152.117H190.173V158.362Z" fill="#8992CE"/>
<path d="M208.522 168.653H213.702V162.408H208.522V168.653Z" fill="#8992CE"/>
<path d="M199.353 168.653H204.533V162.408H199.353V168.653Z" fill="#8992CE"/>
<path d="M190.173 169.638H195.354V163.393H190.173V169.638Z" fill="#AEB5EC"/>
<path d="M217.696 178.94H222.877V172.696H217.696V178.94Z" fill="#8992CE"/>
<path d="M208.522 178.94H213.702V172.696H208.522V178.94Z" fill="#AEB5EC"/>
<path d="M199.353 178.94H204.533V172.696H199.353V178.94Z" fill="#8992CE"/>
<path d="M190.173 178.94H195.354V172.696H190.173V178.94Z" fill="#8992CE"/>
<path d="M217.696 189.227H222.877V182.982H217.696V189.227Z" fill="#8992CE"/>
<path d="M208.522 189.227H213.702V182.982H208.522V189.227Z" fill="#8992CE"/>
<path d="M190.173 189.227H195.354V182.982H190.173V189.227Z" fill="#8992CE"/>
<path d="M217.696 199.518H222.877V193.273H217.696V199.518Z" fill="#8992CE"/>
<path d="M208.522 199.518H213.702V193.273H208.522V199.518Z" fill="#8992CE"/>
<path d="M199.353 199.518H204.533V193.273H199.353V199.518Z" fill="#8992CE"/>
<path d="M190.173 199.518H195.354V193.273H190.173V199.518Z" fill="#8992CE"/>
<path d="M183.616 152.481H131.158V236.208H183.616V152.481Z" fill="#8992CE"/>
<path d="M143.553 160.26H136.422V174.388H143.553V160.26Z" fill="#7581BC"/>
<path d="M155.655 160.26H148.523V174.388H155.655V160.26Z" fill="#7581BC"/>
<path d="M167.764 160.26H160.633V174.388H167.764V160.26Z" fill="#7581BC"/>
<path d="M179.866 160.26H172.734V174.388H179.866V160.26Z" fill="#7581BC"/>
<path d="M143.553 180.114H136.422V194.243H143.553V180.114Z" fill="#7581BC"/>
<path d="M155.655 180.114H148.523V194.243H155.655V180.114Z" fill="#7581BC"/>
<path d="M167.764 180.114H160.633V194.243H167.764V180.114Z" fill="#7581BC"/>
<path d="M179.866 180.114H172.734V194.243H179.866V180.114Z" fill="#7581BC"/>
<path d="M143.553 199.962H136.422V214.09H143.553V199.962Z" fill="#7581BC"/>
<path d="M155.655 199.962H148.523V214.09H155.655V199.962Z" fill="#7581BC"/>
<path d="M167.764 199.962H160.633V214.09H167.764V199.962Z" fill="#7581BC"/>
<path d="M179.866 199.962H172.734V214.09H179.866V199.962Z" fill="#7581BC"/>
<path d="M97.7391 160.431H32.5752V276.65H97.7391V160.431Z" fill="#AEB5EC"/>
<path d="M90.9565 172.866H41.4561V179.985H90.9565V172.866Z" fill="#BFC6EF"/>
<path d="M90.9565 185.855H41.4561V192.975H90.9565V185.855Z" fill="#BFC6EF"/>
<path d="M90.9565 198.851H41.4561V205.97H90.9565V198.851Z" fill="#BFC6EF"/>
<path d="M292.361 115.673V90.4438H286.129V66.2786H275.301V22H271.92V66.2786H261.092V90.4438H254.866V115.673H242.354V212.559H304.867V115.673H292.361Z" fill="#8992CE"/>
<path d="M294.555 131.636H250.439V203.022H294.555V131.636Z" fill="#7581BC"/>
<path d="M264.322 140.089H252.604V203.981H264.322V140.089Z" fill="#AEB5EC"/>
<path d="M278.381 140.089H266.662V203.981H278.381V140.089Z" fill="#AEB5EC"/>
<path d="M292.438 140.089H280.72V203.981H292.438V140.089Z" fill="#AEB5EC"/>
<g opacity="0.52">
<path d="M261.782 140.089L264.322 142.697V151.924L252.798 140.089H261.782Z" fill="#CED3F4"/>
<path d="M278.381 157.135V166.362L266.662 154.327V145.1L278.381 157.135Z" fill="#CED3F4"/>
<path d="M292.438 171.574V180.802L280.72 168.766V159.539L292.438 171.574Z" fill="#CED3F4"/>
<path d="M264.322 160.543V178.958L252.604 166.923V148.508L264.322 160.543Z" fill="#CED3F4"/>
<path d="M278.381 174.979V193.394L266.662 181.359V162.944L278.381 174.979Z" fill="#CED3F4"/>
<path d="M292.438 189.418V203.981H288.688L280.72 195.798V177.383L292.438 189.418Z" fill="#CED3F4"/>
</g>
<path d="M342.575 75.3887V224.856H304.117V89.617L342.575 75.3887Z" fill="#7581BC"/>
<path d="M314.38 94.4736H309.958V100.719H314.38V94.4736Z" fill="#8992CE"/>
<path d="M322.211 94.4736H317.789V100.719H322.211V94.4736Z" fill="#8992CE"/>
<path d="M330.044 94.4736H325.622V100.719H330.044V94.4736Z" fill="#8992CE"/>
<path d="M337.875 94.4736H333.453V100.719H337.875V94.4736Z" fill="#8992CE"/>
<path d="M314.38 104.765H309.958V111.01H314.38V104.765Z" fill="#AEB5EC"/>
<path d="M322.211 104.765H317.789V111.01H322.211V104.765Z" fill="#8992CE"/>
<path d="M330.044 104.765H325.622V111.01H330.044V104.765Z" fill="#6877AD"/>
<path d="M337.875 104.765H333.453V111.01H337.875V104.765Z" fill="#8992CE"/>
<path d="M314.38 115.052H309.958V121.297H314.38V115.052Z" fill="#8992CE"/>
<path d="M322.211 115.052H317.789V121.297H322.211V115.052Z" fill="#8992CE"/>
<path d="M330.044 115.052H325.622V121.297H330.044V115.052Z" fill="#8992CE"/>
<path d="M337.875 115.052H333.453V121.297H337.875V115.052Z" fill="#8992CE"/>
<path d="M314.38 125.338H309.958V131.583H314.38V125.338Z" fill="#8992CE"/>
<path d="M322.211 125.338H317.789V131.583H322.211V125.338Z" fill="#AEB5EC"/>
<path d="M330.044 125.338H325.622V131.583H330.044V125.338Z" fill="#8992CE"/>
<path d="M337.875 125.338H333.453V131.583H337.875V125.338Z" fill="#8992CE"/>
<path d="M314.38 135.63H309.958V141.875H314.38V135.63Z" fill="#8992CE"/>
<path d="M322.211 135.63H317.789V141.875H322.211V135.63Z" fill="#8992CE"/>
<path d="M330.044 135.63H325.622V141.875H330.044V135.63Z" fill="#8992CE"/>
<path d="M337.875 135.63H333.453V141.875H337.875V135.63Z" fill="#8992CE"/>
<path d="M314.38 145.917H309.958V152.162H314.38V145.917Z" fill="#8992CE"/>
<path d="M322.211 145.917H317.789V152.162H322.211V145.917Z" fill="#8992CE"/>
<path d="M330.044 145.917H325.622V152.162H330.044V145.917Z" fill="#8992CE"/>
<path d="M337.875 145.917H333.453V152.162H337.875V145.917Z" fill="#6877AD"/>
<path d="M314.38 156.203H309.958V162.448H314.38V156.203Z" fill="#8992CE"/>
<path d="M322.211 156.203H317.789V162.448H322.211V156.203Z" fill="#8992CE"/>
<path d="M330.044 156.203H325.622V162.448H330.044V156.203Z" fill="#8992CE"/>
<path d="M337.875 156.203H333.453V162.448H337.875V156.203Z" fill="#8992CE"/>
<path d="M314.38 166.494H309.958V172.739H314.38V166.494Z" fill="#8992CE"/>
<path d="M322.211 166.494H317.789V172.739H322.211V166.494Z" fill="#6877AD"/>
<path d="M330.044 166.494H325.622V172.739H330.044V166.494Z" fill="#8992CE"/>
<path d="M337.875 166.494H333.453V172.739H337.875V166.494Z" fill="#8992CE"/>
<path d="M314.38 176.78H309.958V183.025H314.38V176.78Z" fill="#8992CE"/>
<path d="M322.211 176.78H317.789V183.025H322.211V176.78Z" fill="#8992CE"/>
<path d="M330.044 176.78H325.622V183.025H330.044V176.78Z" fill="#8992CE"/>
<path d="M337.875 177.771H333.453V184.015H337.875V177.771Z" fill="#AEB5EC"/>
<path d="M314.38 187.067H309.958V193.312H314.38V187.067Z" fill="#8992CE"/>
<path d="M322.211 187.067H317.789V193.312H322.211V187.067Z" fill="#AEB5EC"/>
<path d="M330.044 187.067H325.622V193.312H330.044V187.067Z" fill="#8992CE"/>
<path d="M337.875 187.067H333.453V193.312H337.875V187.067Z" fill="#8992CE"/>
<path d="M314.38 197.358H309.958V203.603H314.38V197.358Z" fill="#8992CE"/>
<path d="M322.211 197.358H317.789V203.603H322.211V197.358Z" fill="#8992CE"/>
<path d="M330.044 197.358H325.622V203.603H330.044V197.358Z" fill="#8992CE"/>
<path d="M337.875 197.358H333.453V203.603H337.875V197.358Z" fill="#8992CE"/>
<path d="M342.575 75.3887V80.1548L304.117 94.3131V89.617L342.575 75.3887Z" fill="#8992CE"/>
</g>
</svg>
