<svg width="380" height="200" viewBox="0 0 380 200" fill="none" xmlns="http://www.w3.org/2000/svg">
<g clip-path="url(#clip0_6905_7314)">
<path d="M203.178 208.599C203.178 211.032 201.204 213.01 198.771 213.01H138.692C136.255 213.01 134.281 211.036 134.281 208.599V125.357C134.281 122.92 136.255 120.946 138.692 120.946H198.771C201.204 120.946 203.178 122.92 203.178 125.357V208.599Z" fill="#435B9E"/>
<path d="M203.178 145.458V125.357C203.178 122.92 201.204 120.946 198.771 120.946H138.692C136.255 120.946 134.281 122.92 134.281 125.357V145.458H203.178Z" fill="#124582"/>
<path d="M194.44 126.475H143.022V139.973H194.44V126.475Z" fill="white"/>
<path d="M146.454 151.156H151.845C153.425 151.156 154.708 152.439 154.708 154.02V156.377C154.708 157.957 153.425 159.245 151.84 159.245H146.449C144.868 159.245 143.581 157.962 143.581 156.377V154.02C143.581 152.439 144.864 151.156 146.444 151.156H146.454Z" fill="white"/>
<path d="M146.454 162.179H151.845C153.425 162.179 154.708 163.461 154.708 165.042V167.399C154.708 168.98 153.425 170.267 151.84 170.267H146.449C144.868 170.267 143.581 168.984 143.581 167.399V165.042C143.581 163.461 144.864 162.174 146.449 162.174L146.454 162.179Z" fill="white"/>
<path d="M146.454 173.202H151.845C153.425 173.202 154.708 174.485 154.708 176.066V178.422C154.708 180.003 153.425 181.291 151.84 181.291H146.449C144.868 181.291 143.581 180.008 143.581 178.422V176.066C143.581 174.485 144.864 173.202 146.444 173.202H146.454Z" fill="white"/>
<path d="M146.454 184.224H151.845C153.425 184.224 154.708 185.507 154.708 187.088V189.445C154.708 191.026 153.425 192.313 151.84 192.313H146.449C144.868 192.313 143.581 191.03 143.581 189.445V187.088C143.581 185.507 144.864 184.22 146.449 184.22L146.454 184.224Z" fill="white"/>
<path d="M159.47 151.156H164.86C166.441 151.156 167.729 152.439 167.729 154.024V156.381C167.729 157.962 166.446 159.249 164.86 159.249H159.47C157.889 159.249 156.602 157.967 156.602 156.381V154.024C156.602 152.444 157.884 151.161 159.465 151.161L159.47 151.156Z" fill="white"/>
<path d="M159.47 162.179H164.86C166.441 162.179 167.729 163.461 167.729 165.047V167.404C167.729 168.985 166.446 170.272 164.86 170.272H159.47C157.889 170.272 156.602 168.989 156.602 167.404V165.047C156.602 163.466 157.884 162.179 159.47 162.179Z" fill="white"/>
<path d="M159.47 173.202H164.86C166.441 173.202 167.729 174.485 167.729 176.07V178.427C167.729 180.008 166.446 181.295 164.86 181.295H159.47C157.889 181.295 156.602 180.013 156.602 178.427V176.07C156.602 174.489 157.884 173.207 159.465 173.207L159.47 173.202Z" fill="white"/>
<path d="M159.47 184.225H164.86C166.441 184.225 167.729 185.507 167.729 187.093V189.45C167.729 191.03 166.446 192.318 164.86 192.318H159.47C157.889 192.318 156.602 191.035 156.602 189.45V187.093C156.602 185.512 157.884 184.225 159.47 184.225Z" fill="white"/>
<path d="M172.484 151.156H177.875C179.456 151.156 180.743 152.439 180.743 154.024V156.381C180.743 157.962 179.461 159.249 177.875 159.249H172.484C170.904 159.249 169.616 157.967 169.616 156.381V154.024C169.616 152.444 170.899 151.161 172.48 151.161L172.484 151.156Z" fill="white"/>
<path d="M172.484 162.179H177.875C179.456 162.179 180.743 163.461 180.743 165.047V167.404C180.743 168.985 179.461 170.272 177.875 170.272H172.484C170.904 170.272 169.616 168.989 169.616 167.404V165.047C169.616 163.466 170.899 162.179 172.484 162.179Z" fill="white"/>
<path d="M172.484 173.202H177.875C179.456 173.202 180.743 174.485 180.743 176.07V178.427C180.743 180.008 179.461 181.295 177.875 181.295H172.484C170.904 181.295 169.616 180.013 169.616 178.427V176.07C169.616 174.489 170.899 173.207 172.48 173.207L172.484 173.202Z" fill="white"/>
<path d="M172.484 184.225H177.875C179.456 184.225 180.743 185.507 180.743 187.093V189.45C180.743 191.03 179.461 192.318 177.875 192.318H172.484C170.904 192.318 169.616 191.035 169.616 189.45V187.093C169.616 185.512 170.899 184.225 172.484 184.225Z" fill="white"/>
<path d="M185.5 151.156H190.891C192.472 151.156 193.759 152.439 193.759 154.024V156.381C193.759 157.962 192.476 159.249 190.891 159.249H185.5C183.919 159.249 182.637 157.967 182.637 156.386V154.029C182.637 152.448 183.919 151.166 185.5 151.166V151.156Z" fill="#AFC7FF"/>
<path d="M185.5 162.179H190.891C192.472 162.179 193.759 163.461 193.759 165.047V167.404C193.759 168.985 192.476 170.272 190.891 170.272H185.5C183.919 170.272 182.637 168.989 182.637 167.409V165.052C182.637 163.471 183.919 162.183 185.505 162.183L185.5 162.179Z" fill="#AFC7FF"/>
<path d="M185.5 173.202H190.891C192.472 173.202 193.759 174.485 193.759 176.07V178.427C193.759 180.008 192.476 181.295 190.891 181.295H185.5C183.919 181.295 182.637 180.013 182.637 178.432V176.075C182.637 174.494 183.919 173.212 185.5 173.212V173.202Z" fill="#AFC7FF"/>
<path d="M185.5 184.225H190.891C192.472 184.225 193.759 185.507 193.759 187.093V189.45C193.759 191.03 192.476 192.318 190.891 192.318H185.5C183.919 192.318 182.637 191.035 182.637 189.454V187.097C182.637 185.517 183.919 184.229 185.505 184.229L185.5 184.225Z" fill="#AFC7FF"/>
<path d="M185.5 195.233H190.891C192.472 195.233 193.759 196.516 193.759 198.102V200.458C193.759 202.039 192.476 203.327 190.891 203.327H185.5C183.919 203.327 182.637 202.044 182.637 200.463V198.106C182.637 196.525 183.919 195.238 185.505 195.238L185.5 195.233Z" fill="#AFC7FF"/>
<path d="M145.98 203.327C144.551 203.327 143.392 202.181 143.392 200.771V197.794C143.392 196.379 144.551 195.233 145.98 195.233H178.188C179.617 195.233 180.776 196.379 180.776 197.794V200.771C180.776 202.181 179.617 203.327 178.188 203.327H145.98Z" fill="#AFC7FF"/>
<path d="M148.802 153.584V156.329H148.509V153.84H148.225V153.584H148.802Z" fill="#003C95"/>
<path d="M162.11 153.565C162.234 153.565 162.347 153.589 162.451 153.632C162.555 153.679 162.645 153.741 162.721 153.816C162.797 153.897 162.858 153.987 162.901 154.091C162.943 154.195 162.962 154.304 162.962 154.417C162.962 154.569 162.925 154.716 162.849 154.853C162.773 154.99 162.664 155.104 162.522 155.189C162.409 155.265 162.295 155.336 162.186 155.411C162.077 155.487 161.978 155.558 161.893 155.634C161.808 155.709 161.737 155.78 161.685 155.856C161.632 155.932 161.609 156.003 161.609 156.074H163.014V156.325H161.221C161.221 156.192 161.244 156.069 161.301 155.956C161.353 155.842 161.429 155.724 161.528 155.619C161.628 155.511 161.741 155.407 161.883 155.302C162.021 155.198 162.177 155.094 162.347 154.99C162.451 154.919 162.532 154.834 162.584 154.734C162.641 154.635 162.664 154.531 162.664 154.427C162.664 154.346 162.65 154.275 162.622 154.204C162.593 154.133 162.555 154.072 162.503 154.02C162.451 153.968 162.394 153.92 162.323 153.892C162.257 153.864 162.181 153.845 162.106 153.845C162.035 153.845 161.968 153.859 161.902 153.887C161.836 153.911 161.779 153.949 161.727 153.996C161.675 154.043 161.637 154.1 161.604 154.167C161.571 154.233 161.557 154.304 161.557 154.384H161.244C161.244 154.275 161.268 154.171 161.315 154.072C161.363 153.972 161.424 153.887 161.505 153.812C161.585 153.736 161.675 153.679 161.779 153.636C161.883 153.594 161.992 153.57 162.106 153.57L162.11 153.565Z" fill="#003C95"/>
<path d="M175.86 154.285C175.86 154.337 175.85 154.389 175.831 154.45C175.812 154.507 175.789 154.564 175.755 154.616C175.722 154.668 175.68 154.72 175.632 154.763C175.585 154.805 175.533 154.838 175.476 154.862C175.547 154.89 175.609 154.928 175.666 154.976C175.722 155.023 175.774 155.075 175.817 155.137C175.86 155.193 175.893 155.26 175.916 155.331C175.94 155.402 175.954 155.473 175.954 155.544C175.954 155.652 175.931 155.757 175.883 155.856C175.836 155.955 175.77 156.045 175.684 156.116C175.599 156.192 175.505 156.254 175.391 156.296C175.282 156.339 175.159 156.362 175.031 156.362C174.904 156.362 174.79 156.343 174.676 156.306C174.563 156.268 174.468 156.211 174.383 156.145C174.298 156.074 174.231 155.993 174.184 155.894C174.137 155.794 174.108 155.686 174.108 155.567H174.416C174.416 155.648 174.435 155.723 174.468 155.79C174.501 155.856 174.549 155.913 174.605 155.96C174.662 156.007 174.728 156.041 174.804 156.069C174.875 156.097 174.951 156.107 175.027 156.107C175.107 156.107 175.187 156.093 175.258 156.059C175.334 156.031 175.396 155.989 175.453 155.932C175.509 155.88 175.552 155.823 175.585 155.757C175.618 155.69 175.637 155.615 175.637 155.539C175.637 155.468 175.623 155.402 175.59 155.335C175.557 155.274 175.514 155.212 175.457 155.16C175.4 155.113 175.339 155.075 175.263 155.042C175.192 155.014 175.112 154.995 175.036 154.995H174.814V154.739H175.036C175.102 154.739 175.169 154.725 175.23 154.696C175.292 154.673 175.344 154.64 175.391 154.597C175.438 154.554 175.476 154.507 175.505 154.45C175.533 154.398 175.547 154.337 175.547 154.28C175.547 154.223 175.533 154.157 175.505 154.105C175.476 154.048 175.438 154.001 175.391 153.958C175.344 153.916 175.287 153.882 175.225 153.859C175.164 153.835 175.098 153.821 175.027 153.821C174.965 153.821 174.908 153.835 174.847 153.854C174.785 153.873 174.733 153.906 174.691 153.944C174.643 153.982 174.601 154.024 174.572 154.072C174.539 154.119 174.52 154.166 174.52 154.218H174.203C174.203 154.124 174.231 154.039 174.279 153.963C174.326 153.882 174.388 153.811 174.463 153.75C174.539 153.693 174.624 153.646 174.724 153.613C174.823 153.579 174.922 153.561 175.027 153.561C175.14 153.561 175.249 153.579 175.348 153.617C175.448 153.655 175.538 153.707 175.613 153.774C175.689 153.84 175.746 153.916 175.789 154.005C175.831 154.091 175.855 154.185 175.855 154.285H175.86Z" fill="#003C95"/>
<path d="M148.263 166.476L149.588 164.616H149.82V166.476H150.165V166.732H149.82V167.361H149.522V166.732H148.263V166.476ZM149.522 166.476V165.175L148.603 166.476H149.522Z" fill="#003C95"/>
<path d="M162.863 164.616V164.876H161.708C161.708 164.876 161.703 164.924 161.699 164.966C161.699 165.009 161.689 165.066 161.68 165.122C161.67 165.179 161.666 165.246 161.656 165.312C161.647 165.378 161.642 165.44 161.637 165.501C161.632 165.563 161.623 165.615 161.618 165.657C161.618 165.7 161.609 165.733 161.609 165.747C161.637 165.719 161.675 165.695 161.718 165.676C161.76 165.653 161.803 165.634 161.85 165.619C161.897 165.605 161.94 165.591 161.987 165.582C162.035 165.572 162.077 165.567 162.115 165.567C162.243 165.567 162.357 165.591 162.465 165.643C162.574 165.69 162.669 165.761 162.745 165.842C162.82 165.927 162.882 166.022 162.924 166.131C162.967 166.239 162.991 166.358 162.991 166.476C162.991 166.594 162.967 166.713 162.92 166.822C162.872 166.93 162.806 167.03 162.726 167.115C162.645 167.2 162.551 167.266 162.437 167.319C162.328 167.366 162.205 167.394 162.082 167.394C161.968 167.394 161.864 167.375 161.765 167.337C161.666 167.3 161.576 167.248 161.495 167.181C161.415 167.115 161.348 167.039 161.296 166.945C161.244 166.855 161.206 166.755 161.188 166.651H161.49C161.505 166.727 161.533 166.793 161.571 166.85C161.609 166.911 161.651 166.964 161.703 167.001C161.755 167.039 161.812 167.077 161.874 167.101C161.935 167.124 162.006 167.134 162.077 167.134C162.162 167.134 162.238 167.115 162.314 167.082C162.39 167.044 162.451 166.997 162.508 166.935C162.565 166.874 162.607 166.807 162.64 166.727C162.674 166.646 162.688 166.561 162.688 166.476C162.688 166.391 162.674 166.306 162.64 166.225C162.607 166.145 162.565 166.074 162.513 166.017C162.456 165.955 162.39 165.908 162.314 165.875C162.238 165.842 162.158 165.823 162.068 165.823C161.978 165.823 161.893 165.847 161.803 165.884C161.718 165.927 161.647 165.984 161.595 166.05H161.254L161.419 164.611H162.849L162.863 164.616Z" fill="#003C95"/>
<path d="M175.107 165.625C175.23 165.625 175.349 165.648 175.457 165.696C175.566 165.743 175.666 165.805 175.746 165.885C175.827 165.965 175.893 166.06 175.94 166.169C175.988 166.278 176.011 166.391 176.011 166.514C176.011 166.638 175.988 166.751 175.94 166.855C175.893 166.964 175.827 167.059 175.746 167.139C175.661 167.22 175.566 167.286 175.457 167.329C175.349 167.376 175.23 167.4 175.107 167.4C174.975 167.4 174.847 167.376 174.733 167.324C174.615 167.272 174.516 167.191 174.43 167.082C174.341 166.974 174.274 166.836 174.222 166.666C174.175 166.496 174.146 166.287 174.146 166.046C174.146 165.852 174.161 165.663 174.194 165.487C174.227 165.312 174.284 165.161 174.364 165.024C174.445 164.891 174.544 164.787 174.672 164.711C174.8 164.636 174.951 164.598 175.126 164.598C175.245 164.598 175.349 164.617 175.448 164.65C175.547 164.688 175.633 164.735 175.704 164.796C175.775 164.858 175.836 164.929 175.879 165.009C175.921 165.09 175.954 165.175 175.969 165.27H175.685C175.67 165.213 175.647 165.166 175.614 165.114C175.576 165.061 175.538 165.019 175.486 164.981C175.439 164.943 175.382 164.91 175.32 164.891C175.254 164.867 175.192 164.858 175.121 164.858C175.003 164.858 174.899 164.886 174.809 164.953C174.724 165.014 174.653 165.099 174.596 165.208C174.539 165.317 174.497 165.445 174.468 165.592C174.44 165.734 174.43 165.89 174.43 166.055C174.459 165.98 174.501 165.913 174.558 165.861C174.615 165.809 174.672 165.762 174.738 165.729C174.804 165.696 174.871 165.672 174.937 165.658C175.003 165.644 175.065 165.634 175.117 165.634L175.107 165.625ZM175.107 167.139C175.192 167.139 175.268 167.125 175.344 167.087C175.42 167.054 175.481 167.011 175.538 166.95C175.595 166.898 175.637 166.827 175.67 166.751C175.704 166.675 175.718 166.595 175.718 166.505C175.718 166.415 175.704 166.335 175.67 166.259C175.637 166.183 175.595 166.117 175.538 166.06C175.481 166.003 175.42 165.961 175.344 165.928C175.268 165.894 175.192 165.88 175.107 165.88C175.027 165.88 174.951 165.894 174.88 165.928C174.809 165.956 174.743 166.003 174.686 166.055C174.629 166.112 174.587 166.178 174.554 166.254C174.52 166.33 174.501 166.415 174.501 166.51C174.501 166.595 174.516 166.68 174.549 166.756C174.582 166.832 174.625 166.898 174.681 166.955C174.733 167.011 174.8 167.059 174.875 167.092C174.951 167.125 175.027 167.144 175.112 167.144L175.107 167.139Z" fill="#003C95"/>
<path d="M150.027 175.649V176.336C149.904 176.454 149.781 176.587 149.663 176.747C149.544 176.908 149.44 177.074 149.346 177.259C149.251 177.443 149.175 177.628 149.114 177.822C149.057 178.016 149.029 178.205 149.029 178.39H148.73C148.73 178.224 148.759 178.044 148.811 177.845C148.863 177.647 148.939 177.453 149.029 177.254C149.118 177.06 149.227 176.87 149.35 176.695C149.473 176.516 149.606 176.364 149.748 176.241V175.905H148.295V175.649H150.027Z" fill="#003C95"/>
<path d="M161.273 176.35C161.273 176.251 161.296 176.156 161.339 176.071C161.382 175.981 161.443 175.905 161.519 175.839C161.595 175.773 161.68 175.721 161.784 175.683C161.883 175.645 161.992 175.626 162.11 175.626C162.229 175.626 162.333 175.645 162.432 175.683C162.536 175.721 162.626 175.773 162.702 175.839C162.778 175.905 162.835 175.981 162.882 176.071C162.924 176.161 162.948 176.255 162.948 176.355C162.948 176.412 162.939 176.468 162.924 176.525C162.91 176.582 162.887 176.639 162.858 176.691C162.825 176.743 162.787 176.79 162.74 176.833C162.693 176.875 162.636 176.913 162.569 176.937C162.626 176.965 162.683 177.003 162.74 177.046C162.797 177.093 162.844 177.145 162.891 177.202C162.934 177.264 162.972 177.33 162.995 177.401C163.019 177.472 163.033 177.548 163.033 177.623C163.033 177.737 163.01 177.846 162.962 177.94C162.915 178.04 162.849 178.125 162.764 178.196C162.678 178.272 162.584 178.328 162.47 178.371C162.357 178.414 162.238 178.433 162.11 178.433C161.983 178.433 161.864 178.414 161.751 178.371C161.642 178.328 161.542 178.272 161.457 178.196C161.372 178.125 161.311 178.04 161.258 177.94C161.211 177.841 161.188 177.732 161.188 177.623C161.188 177.548 161.202 177.472 161.225 177.401C161.249 177.33 161.287 177.264 161.329 177.202C161.372 177.145 161.424 177.093 161.476 177.046C161.533 176.999 161.59 176.965 161.651 176.937C161.585 176.909 161.528 176.875 161.481 176.833C161.434 176.79 161.396 176.743 161.363 176.691C161.329 176.639 161.306 176.587 161.292 176.525C161.277 176.468 161.268 176.412 161.268 176.355L161.273 176.35ZM162.726 177.619C162.726 177.548 162.707 177.481 162.674 177.415C162.64 177.349 162.593 177.292 162.541 177.24C162.484 177.188 162.423 177.145 162.347 177.117C162.271 177.084 162.196 177.07 162.115 177.07C162.035 177.07 161.954 177.084 161.883 177.117C161.808 177.145 161.746 177.193 161.689 177.24C161.632 177.292 161.585 177.349 161.552 177.415C161.519 177.481 161.5 177.552 161.5 177.619C161.5 177.699 161.514 177.77 161.552 177.841C161.585 177.912 161.632 177.969 161.689 178.016C161.746 178.068 161.812 178.106 161.883 178.134C161.954 178.163 162.035 178.177 162.115 178.177C162.196 178.177 162.276 178.163 162.347 178.134C162.423 178.106 162.489 178.068 162.546 178.016C162.603 177.969 162.645 177.912 162.678 177.841C162.711 177.77 162.73 177.699 162.73 177.619H162.726ZM162.64 176.35C162.64 176.284 162.626 176.222 162.593 176.17C162.565 176.113 162.522 176.066 162.475 176.024C162.428 175.981 162.371 175.948 162.304 175.924C162.238 175.9 162.172 175.886 162.106 175.886C162.039 175.886 161.968 175.9 161.907 175.924C161.841 175.948 161.789 175.981 161.737 176.024C161.684 176.066 161.647 176.113 161.618 176.17C161.59 176.227 161.576 176.289 161.576 176.35C161.576 176.412 161.59 176.473 161.618 176.53C161.651 176.587 161.689 176.629 161.741 176.672C161.793 176.715 161.85 176.748 161.912 176.767C161.973 176.79 162.039 176.804 162.106 176.804C162.172 176.804 162.238 176.79 162.304 176.767C162.366 176.743 162.423 176.71 162.475 176.672C162.522 176.629 162.565 176.587 162.593 176.53C162.622 176.473 162.64 176.416 162.64 176.35Z" fill="#003C95"/>
<path d="M175.051 177.461C174.928 177.461 174.809 177.437 174.7 177.39C174.592 177.343 174.497 177.276 174.416 177.196C174.331 177.115 174.265 177.016 174.222 176.907C174.175 176.793 174.151 176.68 174.151 176.552C174.151 176.424 174.175 176.306 174.222 176.197C174.27 176.084 174.336 175.989 174.416 175.904C174.497 175.823 174.592 175.757 174.7 175.71C174.809 175.662 174.928 175.639 175.051 175.639C175.183 175.639 175.306 175.662 175.425 175.705C175.538 175.748 175.642 175.823 175.732 175.923C175.817 176.022 175.888 176.155 175.936 176.315C175.988 176.476 176.011 176.675 176.011 176.907C176.011 177.101 175.997 177.29 175.964 177.475C175.931 177.66 175.879 177.821 175.803 177.963C175.727 178.104 175.628 178.218 175.5 178.303C175.377 178.388 175.226 178.431 175.046 178.431C174.928 178.431 174.823 178.412 174.729 178.379C174.634 178.341 174.549 178.294 174.478 178.232C174.407 178.171 174.35 178.1 174.303 178.019C174.26 177.939 174.232 177.854 174.218 177.764H174.502C174.516 177.816 174.539 177.868 174.573 177.92C174.606 177.972 174.648 178.015 174.696 178.052C174.743 178.09 174.8 178.123 174.861 178.147C174.923 178.171 174.989 178.18 175.06 178.18C175.178 178.18 175.283 178.147 175.368 178.081C175.453 178.015 175.524 177.925 175.576 177.816C175.628 177.712 175.666 177.584 175.694 177.451C175.718 177.314 175.732 177.177 175.732 177.04C175.704 177.115 175.661 177.177 175.604 177.234C175.552 177.29 175.491 177.333 175.425 177.366C175.358 177.399 175.292 177.428 175.226 177.442C175.159 177.461 175.098 177.47 175.046 177.47L175.051 177.461ZM175.051 175.89C174.965 175.89 174.89 175.908 174.814 175.942C174.738 175.975 174.677 176.022 174.62 176.079C174.563 176.14 174.521 176.211 174.487 176.292C174.459 176.372 174.44 176.457 174.44 176.547C174.44 176.637 174.454 176.722 174.487 176.803C174.521 176.883 174.563 176.95 174.62 177.011C174.677 177.073 174.743 177.12 174.814 177.153C174.89 177.186 174.965 177.205 175.051 177.205C175.136 177.205 175.207 177.186 175.283 177.153C175.358 177.115 175.425 177.073 175.481 177.011C175.538 176.95 175.581 176.879 175.619 176.803C175.652 176.727 175.671 176.642 175.671 176.552C175.671 176.462 175.656 176.372 175.623 176.292C175.595 176.211 175.552 176.14 175.496 176.079C175.439 176.022 175.372 175.975 175.301 175.942C175.226 175.908 175.141 175.89 175.051 175.89Z" fill="#003C95"/>
<path d="M149.407 188.039H149.005L149.213 188.413L149 188.507L148.811 188.171L148.617 188.512L148.409 188.403L148.617 188.039H148.21V187.835H148.626L148.409 187.476L148.617 187.353L148.821 187.703L149.01 187.362L149.213 187.476L149.005 187.835H149.412V188.039H149.407Z" fill="#003C95"/>
<path d="M163.128 188.063C163.128 188.271 163.104 188.46 163.062 188.631C163.019 188.806 162.953 188.953 162.868 189.076C162.783 189.199 162.683 189.298 162.56 189.364C162.437 189.431 162.3 189.469 162.144 189.469C161.987 189.469 161.845 189.435 161.722 189.364C161.599 189.298 161.5 189.199 161.415 189.076C161.33 188.953 161.268 188.806 161.225 188.631C161.183 188.46 161.159 188.271 161.159 188.063C161.159 187.855 161.178 187.665 161.225 187.495C161.268 187.325 161.33 187.173 161.415 187.05C161.5 186.927 161.599 186.832 161.722 186.761C161.845 186.695 161.983 186.657 162.144 186.657C162.305 186.657 162.437 186.69 162.56 186.761C162.683 186.832 162.783 186.927 162.868 187.05C162.953 187.173 163.014 187.32 163.062 187.495C163.104 187.665 163.128 187.855 163.128 188.063ZM161.443 188.063C161.443 188.243 161.462 188.404 161.5 188.55C161.538 188.692 161.59 188.815 161.656 188.91C161.718 189.009 161.793 189.085 161.879 189.133C161.964 189.185 162.054 189.213 162.148 189.213C162.243 189.213 162.328 189.189 162.413 189.133C162.499 189.08 162.574 189.005 162.636 188.91C162.702 188.811 162.754 188.692 162.792 188.55C162.83 188.408 162.849 188.247 162.849 188.063C162.849 187.878 162.83 187.722 162.792 187.58C162.754 187.438 162.702 187.32 162.636 187.216C162.57 187.116 162.499 187.041 162.413 186.993C162.328 186.941 162.238 186.918 162.148 186.918C162.058 186.918 161.964 186.941 161.879 186.993C161.793 187.045 161.718 187.121 161.656 187.216C161.59 187.315 161.538 187.438 161.5 187.58C161.462 187.722 161.443 187.883 161.443 188.063Z" fill="#003C95"/>
<path d="M174.062 189.432L175.396 186.687H175.69L174.355 189.432H174.062Z" fill="#003C95"/>
<path d="M189.419 155.288H187.289V155.004H189.419V155.288ZM188.349 154.114C188.42 154.114 188.477 154.138 188.52 154.185C188.562 154.233 188.581 154.289 188.581 154.356C188.581 154.417 188.557 154.474 188.515 154.517C188.472 154.564 188.415 154.588 188.354 154.588C188.292 154.588 188.236 154.569 188.188 154.521C188.141 154.479 188.122 154.422 188.122 154.356C188.122 154.289 188.146 154.233 188.188 154.185C188.231 154.138 188.288 154.114 188.354 154.114H188.349ZM188.581 155.922C188.581 155.984 188.557 156.041 188.515 156.088C188.468 156.135 188.415 156.159 188.354 156.159C188.292 156.159 188.236 156.135 188.188 156.093C188.141 156.05 188.122 155.993 188.122 155.927C188.122 155.861 188.146 155.809 188.188 155.761C188.231 155.714 188.288 155.69 188.349 155.69C188.425 155.69 188.482 155.714 188.524 155.757C188.567 155.799 188.586 155.856 188.586 155.927L188.581 155.922Z" fill="#003C95"/>
<path d="M189.504 167.3C189.452 167.31 189.405 167.319 189.353 167.328C189.306 167.338 189.254 167.347 189.202 167.357C189.06 167.163 188.918 166.969 188.776 166.775C188.634 166.581 188.492 166.391 188.345 166.193C188.208 166.391 188.066 166.581 187.928 166.77C187.791 166.959 187.654 167.153 187.512 167.347C187.46 167.338 187.408 167.328 187.36 167.324C187.308 167.314 187.256 167.305 187.209 167.3C187.37 167.073 187.536 166.85 187.696 166.628C187.857 166.401 188.018 166.178 188.179 165.951C188.028 165.738 187.872 165.525 187.72 165.312C187.569 165.099 187.417 164.886 187.261 164.673C187.313 164.664 187.365 164.654 187.412 164.65C187.46 164.645 187.512 164.635 187.564 164.626C187.696 164.806 187.829 164.986 187.957 165.17C188.085 165.35 188.217 165.535 188.35 165.719C188.482 165.539 188.615 165.355 188.742 165.175C188.87 164.995 189.003 164.811 189.135 164.631C189.183 164.64 189.235 164.65 189.282 164.654C189.334 164.659 189.381 164.669 189.429 164.673C189.277 164.886 189.121 165.099 188.974 165.312C188.823 165.525 188.676 165.738 188.52 165.951C188.686 166.178 188.847 166.401 189.012 166.628C189.173 166.85 189.334 167.078 189.5 167.305L189.504 167.3Z" fill="#003C95"/>
<path d="M189.231 177.352H188.488V178.1H188.194V177.352H187.446V177.096H188.194V176.349H188.488V177.096H189.231V177.352Z" fill="#003C95"/>
<path d="M189.045 187.978H187.63V187.723H189.045V187.978ZM189.045 188.792H187.63V188.537H189.045V188.792Z" fill="#003C95"/>
<path d="M194.527 180.388L192.198 185.058C190.906 187.642 195.516 192.171 202.488 195.166C209.466 198.167 216.155 198.497 217.447 195.913L219.776 191.242L194.527 180.388Z" fill="#DFB747"/>
<mask id="mask0_6905_7314" style="mask-type:luminance" maskUnits="userSpaceOnUse" x="191" y="180" width="29" height="18">
<path d="M194.527 180.388L192.198 185.058C190.906 187.642 195.516 192.171 202.488 195.166C209.466 198.167 216.155 198.497 217.447 195.913L219.776 191.242L194.527 180.388Z" fill="white"/>
</mask>
<g mask="url(#mask0_6905_7314)">
<path d="M214.184 198.767L214.675 198.982L218.066 192.192L217.569 191.983L214.184 198.767Z" fill="#D89F3A"/>
<path d="M212.151 198.64L212.649 198.855L216.034 192.065L215.543 191.85L212.151 198.64Z" fill="#D89F3A"/>
<path d="M210.119 198.511L210.617 198.719L214.002 191.929L213.511 191.714L210.119 198.511Z" fill="#D89F3A"/>
<path d="M208.094 198.377L208.585 198.586L211.97 191.802L211.479 191.587L208.094 198.377Z" fill="#D89F3A"/>
<path d="M206.062 198.242L206.553 198.458L209.944 191.668L209.446 191.459L206.062 198.242Z" fill="#D89F3A"/>
<path d="M204.372 197.428L204.863 197.643L208.255 190.853L207.757 190.638L204.372 197.428Z" fill="#D89F3A"/>
<path d="M193.881 190.045L193.39 189.836L196.775 183.046L197.273 183.255L193.881 190.045Z" fill="#D89F3A"/>
<path d="M192.272 189.076L191.774 188.86L195.166 182.07L195.657 182.286L192.272 189.076Z" fill="#D89F3A"/>
<path d="M195.301 191.398L194.81 191.183L198.194 184.393L198.686 184.608L195.301 191.398Z" fill="#D89F3A"/>
<path d="M196.727 192.751L196.229 192.535L199.621 185.752L200.112 185.961L196.727 192.751Z" fill="#D89F3A"/>
<path d="M198.148 194.103L197.656 193.888L201.041 187.104L201.532 187.313L198.148 194.103Z" fill="#D89F3A"/>
<path d="M199.567 195.456L199.076 195.24L202.461 188.45L202.952 188.666L199.567 195.456Z" fill="#D89F3A"/>
<path d="M201.331 196.122L200.84 195.906L204.225 189.116L204.723 189.332L201.331 196.122Z" fill="#D89F3A"/>
<path d="M202.649 196.687L203.141 196.896L206.526 190.106L206.034 189.897L202.649 196.687Z" fill="#D89F3A"/>
</g>
<path d="M194.528 180.387C193.242 182.965 197.852 187.494 204.824 190.488C211.802 193.49 218.491 193.819 219.783 191.242C221.075 188.651 216.472 184.129 209.494 181.134C202.522 178.14 195.826 177.796 194.534 180.394L194.528 180.387Z" fill="#FFDC85"/>
<path d="M196.815 181.37C195.873 183.261 199.736 186.794 205.442 189.251C211.156 191.707 216.553 192.151 217.495 190.253C218.444 188.349 214.588 184.823 208.875 182.366C203.161 179.91 197.764 179.459 196.815 181.364V181.37Z" fill="#FFF39F"/>
<path d="M109.389 149.042L112.857 152.901C114.773 155.041 120.972 152.686 126.697 147.647C132.422 142.609 135.507 136.792 133.585 134.655L130.124 130.794L109.389 149.042Z" fill="#DFB747"/>
<mask id="mask1_6905_7314" style="mask-type:luminance" maskUnits="userSpaceOnUse" x="109" y="130" width="26" height="24">
<path d="M109.389 149.042L112.857 152.901C114.773 155.041 120.972 152.686 126.697 147.647C132.422 142.609 135.507 136.792 133.585 134.655L130.124 130.794L109.389 149.042Z" fill="white"/>
</mask>
<g mask="url(#mask1_6905_7314)">
<path d="M134.949 138.659L135.351 138.303L130.321 132.686L129.912 133.045L134.949 138.659Z" fill="#D89F3A"/>
<path d="M133.981 140.41L134.389 140.051L129.353 134.437L128.95 134.793L133.981 140.41Z" fill="#D89F3A"/>
<path d="M133.019 142.159L133.427 141.8L128.385 136.189L127.982 136.545L133.019 142.159Z" fill="#D89F3A"/>
<path d="M132.057 143.907L132.459 143.552L127.426 137.944L127.023 138.3L132.057 143.907Z" fill="#D89F3A"/>
<path d="M131.089 145.659L131.495 145.31L126.458 139.696L126.056 140.052L131.089 145.659Z" fill="#D89F3A"/>
<path d="M129.618 146.847L130.021 146.491L124.984 140.878L124.582 141.233L129.618 146.847Z" fill="#D89F3A"/>
<path d="M118.278 153.323L117.875 153.679L112.839 148.065L113.247 147.707L118.278 153.323Z" fill="#D89F3A"/>
<path d="M116.691 154.382L116.288 154.738L111.252 149.124L111.66 148.765L116.691 154.382Z" fill="#D89F3A"/>
<path d="M120.148 152.582L119.745 152.938L114.709 147.324L115.111 146.968L120.148 152.582Z" fill="#D89F3A"/>
<path d="M122.019 151.841L121.616 152.197L116.58 146.583L116.982 146.227L122.019 151.841Z" fill="#D89F3A"/>
<path d="M123.886 151.095L123.484 151.45L118.45 145.843L118.853 145.487L123.886 151.095Z" fill="#D89F3A"/>
<path d="M125.756 150.354L125.354 150.709L120.317 145.096L120.72 144.74L125.756 150.354Z" fill="#D89F3A"/>
<path d="M127.122 149.044L126.713 149.403L121.677 143.789L122.085 143.43L127.122 149.044Z" fill="#D89F3A"/>
<path d="M128.2 148.093L128.602 147.737L123.565 142.124L123.163 142.479L128.2 148.093Z" fill="#D89F3A"/>
</g>
<path d="M109.39 149.042C111.3 151.169 117.499 148.815 123.218 143.779C128.943 138.74 132.028 132.924 130.118 130.796C128.193 128.654 122.006 131.002 116.274 136.044C110.558 141.086 107.465 146.899 109.39 149.042Z" fill="#FFDC85"/>
<path d="M111.269 147.39C112.671 148.957 117.619 146.881 122.303 142.76C126.991 138.629 129.649 134.02 128.248 132.452C126.834 130.876 121.897 132.946 117.21 137.076C112.52 141.201 109.858 145.819 111.272 147.396L111.269 147.39Z" fill="#FFF39F"/>
<path d="M168.635 102.715L165.055 106.47C163.076 108.543 165.896 114.545 171.367 119.862C176.838 125.178 182.875 127.802 184.853 125.723L188.433 121.968L168.635 102.715Z" fill="#DFB747"/>
<mask id="mask2_6905_7314" style="mask-type:luminance" maskUnits="userSpaceOnUse" x="164" y="102" width="25" height="25">
<path d="M168.635 102.715L165.055 106.47C163.076 108.543 165.896 114.545 171.367 119.862C176.838 125.178 182.875 127.802 184.853 125.723L188.433 121.968L168.635 102.715Z" fill="white"/>
</mask>
<g mask="url(#mask2_6905_7314)">
<path d="M180.969 127.385L181.359 127.762L186.561 122.311L186.177 121.935L180.969 127.385Z" fill="#D89F3A"/>
<path d="M179.152 126.565L179.536 126.935L184.745 121.484L184.354 121.107L179.152 126.565Z" fill="#D89F3A"/>
<path d="M177.328 125.737L177.718 126.114L182.92 120.656L182.537 120.279L177.328 125.737Z" fill="#D89F3A"/>
<path d="M175.505 124.916L175.895 125.286L181.097 119.835L180.713 119.458L175.505 124.916Z" fill="#D89F3A"/>
<path d="M173.688 124.082L174.071 124.465L179.28 119.008L178.889 118.631L173.688 124.082Z" fill="#D89F3A"/>
<path d="M172.389 122.709L172.779 123.085L177.988 117.628L177.597 117.251L172.389 122.709Z" fill="#D89F3A"/>
<path d="M165.054 111.908L164.67 111.531L169.872 106.08L170.262 106.457L165.054 111.908Z" fill="#D89F3A"/>
<path d="M163.876 110.407L163.492 110.03L168.694 104.579L169.084 104.956L163.876 110.407Z" fill="#D89F3A"/>
<path d="M165.941 113.718L165.551 113.341L170.759 107.884L171.143 108.261L165.941 113.718Z" fill="#D89F3A"/>
<path d="M166.823 115.521L166.439 115.144L171.641 109.687L172.032 110.063L166.823 115.521Z" fill="#D89F3A"/>
<path d="M167.712 117.325L167.321 116.955L172.53 111.497L172.913 111.874L167.712 117.325Z" fill="#D89F3A"/>
<path d="M168.599 119.135L168.209 118.758L173.418 113.301L173.801 113.678L168.599 119.135Z" fill="#D89F3A"/>
<path d="M170.007 120.394L169.623 120.017L174.825 114.56L175.215 114.936L170.007 120.394Z" fill="#D89F3A"/>
<path d="M171.043 121.389L171.427 121.766L176.628 116.315L176.245 115.938L171.043 121.389Z" fill="#D89F3A"/>
</g>
<path d="M168.635 102.715C166.663 104.787 169.489 110.783 174.954 116.093C180.425 121.416 186.461 124.034 188.433 121.968C190.418 119.882 187.592 113.899 182.127 108.576C176.656 103.267 170.62 100.629 168.635 102.715Z" fill="#FFDC85"/>
<path d="M170.425 104.458C168.971 105.979 171.421 110.75 175.896 115.104C180.378 119.458 185.183 121.746 186.636 120.226C188.096 118.698 185.647 113.933 181.172 109.579C176.697 105.226 171.885 102.931 170.425 104.458Z" fill="#FFF39F"/>
<path d="M208.323 154.411C208.323 149.606 220.216 137.121 233.095 138.076L236.496 150.693L216.017 162.291L208.318 154.411H208.323Z" fill="#1D1A37"/>
<path d="M280.85 108.297L244.176 145.339L266.428 174.32L297.632 133.766L280.85 108.297Z" fill="#2B2B51"/>
<path d="M266.428 174.32C227.835 210.565 208.327 154.411 208.327 154.411C211.03 155.199 213.643 155.625 216.115 155.699C219.761 155.802 223.106 155.121 225.982 153.7C227.23 153.088 228.389 152.329 229.444 151.428H248.863L266.433 174.32H266.428Z" fill="#2B2B51"/>
<path d="M330.293 92.5801L302.973 95.607L280.852 108.297C280.852 108.297 263.906 175.153 264.277 206.049L251.628 245.825H352.46L351.344 196.395L367.535 129.177C369.13 122.55 366.545 115.6 361.079 111.79C349.28 103.566 330.293 92.5801 330.293 92.5801Z" fill="#2B2B51"/>
<path d="M330.291 91.6739L303.295 100.25C303.295 96.366 301.456 91.6935 301.456 91.6935C301.456 91.6935 317.75 88.1474 322.268 71.0049L330.296 91.6739H330.291Z" fill="#F5C7B6"/>
<path d="M286.499 64.4422C291.591 64.4422 295.718 60.1902 295.718 54.9452C295.718 49.7002 291.591 45.4482 286.499 45.4482C281.408 45.4482 277.28 49.7002 277.28 54.9452C277.28 60.1902 281.408 64.4422 286.499 64.4422Z" fill="#39281C"/>
<path d="M299.984 35.3289C291.093 32.2824 283.835 35.902 283.835 41.8921C283.835 47.8821 287.86 52.7408 292.829 52.7408C295.653 52.7408 298.168 51.1686 299.819 48.7148L301.232 59.8182L327.472 69.3593L332.182 47.2797C324.347 28.7217 306.317 34.893 299.984 35.3289Z" fill="#39281C"/>
<path d="M295.837 46.1043C300.153 45.5313 304.296 45.1297 307.744 45.3892C309.813 45.546 311.507 47.1721 311.831 49.3075L312.792 55.6013C313.191 58.2119 315.589 59.9555 318.071 59.4363L320.384 58.9514L318.634 40.4375L295.837 46.0945V46.1043Z" fill="#39281C"/>
<path d="M325.675 71.4361C328.068 69.7365 329.1 66.3913 327.988 63.3154C326.782 59.98 323.484 58.1482 320.387 58.9612L316.855 41.7158L294.433 46.5304C288.963 47.7059 285.2 52.976 285.688 58.7849L288.409 77.6172C288.409 77.6172 291.318 95.225 304.577 91.8014C304.577 91.8014 320.917 88.5051 325.675 71.4361Z" fill="#F5C7B6"/>
<path d="M304.468 70.4027C305.421 70.4027 306.194 69.5957 306.194 68.6003C306.194 67.6048 305.421 66.7979 304.468 66.7979C303.514 66.7979 302.741 67.6048 302.741 68.6003C302.741 69.5957 303.514 70.4027 304.468 70.4027Z" fill="#272525"/>
<path d="M290.375 72.2488C291.277 72.2488 292.008 71.4856 292.008 70.5443C292.008 69.603 291.277 68.8398 290.375 68.8398C289.473 68.8398 288.742 69.603 288.742 70.5443C288.742 71.4856 289.473 72.2488 290.375 72.2488Z" fill="#272525"/>
<path d="M301.038 64.4814C301.038 64.4814 303.44 62.7966 305.828 63.5851" stroke="#272525" stroke-width="1.2" stroke-linecap="round" stroke-linejoin="round"/>
<path d="M287.006 66.4407C287.893 66.0097 289.155 65.6228 290.464 65.9411" stroke="#272525" stroke-width="1.2" stroke-linecap="round" stroke-linejoin="round"/>
<path d="M295.952 69.9717L293.011 75.8638C293.011 75.8638 294.54 77.8523 296.426 77.8426" stroke="#E37669" stroke-width="1.2" stroke-linecap="round" stroke-linejoin="round"/>
<path d="M295.653 82.3053L301.696 81.1935C302.287 81.0858 302.817 80.7429 303.169 80.2335L304.089 78.916" stroke="#E37669" stroke-width="1.2" stroke-linecap="round" stroke-linejoin="round"/>
<path d="M321.532 61.6113C322.968 61.6456 324.286 62.5272 324.802 63.9525C325.492 65.8578 324.497 68.0177 322.583 68.772" stroke="#272525" stroke-width="1.2" stroke-linecap="round" stroke-linejoin="round"/>
<path d="M283.517 50.2866C287.974 52.3437 297.624 48.4548 297.624 48.4548C297.624 48.4548 305.464 66.2439 320.388 58.9558C328.082 55.1992 317.432 38.0615 317.432 38.0615C317.432 38.0615 284.76 43.6794 283.517 50.2866Z" fill="#39281C"/>
<path d="M284.688 53.9649C288.295 53.9649 291.219 50.9739 291.219 47.2842C291.219 43.5946 288.295 40.6035 284.688 40.6035C281.081 40.6035 278.157 43.5946 278.157 47.2842C278.157 50.9739 281.081 53.9649 284.688 53.9649Z" fill="#39281C"/>
<path d="M329.827 91.7285L279.546 155.117C279.546 155.117 278.547 126.616 291.43 101.382L302.967 94.7162L329.827 91.7236V91.7285Z" fill="white"/>
<path d="M306.678 103.126L301.799 107.117C298.655 114.469 295.892 129.569 294.836 135.848L279.551 155.121C279.551 155.121 279.157 143.773 282.098 129.05C288.915 114.66 299.359 105.898 299.359 105.898L298.087 103.018L303.6 96.5918L306.678 103.126Z" fill="#A54952"/>
<path d="M327.177 84.0484L303.602 96.5919L306.679 103.126L330.968 92.8303C331.292 92.6932 331.437 92.3062 331.296 91.9732L328.012 84.357C327.867 84.0239 327.487 83.8819 327.177 84.0484Z" fill="white"/>
<path d="M245.106 60.504L243.492 65.5733L233.414 97.2381L231.51 103.209C230.538 101.671 229.6 100.084 228.695 98.4478C227.831 96.8805 227.015 95.3083 226.255 93.7312L228.39 87.026L236.961 60.1024L238.467 55.376C239.654 56.0911 240.865 56.9335 242.099 57.9082C243.103 58.7016 244.107 59.5686 245.106 60.504Z" fill="white"/>
<path d="M257.166 75.5307L255.252 81.5355L245.231 113.019L243.626 118.064C240.211 114.944 236.852 111.03 233.736 106.564L235.566 100.809L245.944 68.2133L247.605 62.9922C250.964 66.5333 254.211 70.7896 257.166 75.5307Z" fill="white"/>
<path d="M261.118 82.5156L259.045 89.0444L250.079 117.202L248.554 121.992C247.832 121.508 247.1 120.974 246.358 120.386L247.916 115.493L257.426 85.6208L259.42 79.3516C259.504 79.4936 259.584 79.6356 259.664 79.7826C260.166 80.6887 260.654 81.6046 261.118 82.5156Z" fill="white"/>
<path d="M269.023 106.598C268.54 102.532 267.465 98.1195 265.88 93.5742C264.294 89.0339 262.197 84.3614 259.663 79.7819C254.596 70.6179 248.356 62.8499 242.098 57.908C235.281 52.5301 229.074 51.051 224.617 53.7399C220.155 56.4239 218.278 62.7814 219.334 71.6269C220.305 79.7574 223.627 89.2837 228.694 98.4476C233.761 107.607 240.001 115.375 246.264 120.317C250.857 123.941 255.173 125.797 258.866 125.797C260.043 125.797 261.165 125.606 262.206 125.224C262.736 125.028 263.248 124.783 263.74 124.49C264.022 124.318 264.294 124.132 264.557 123.931C268.427 120.988 270.013 114.89 269.023 106.598ZM261.413 120.282C255.999 123.544 242.886 114.385 232.724 96.0183C222.566 77.6513 221.525 61.2091 226.944 57.9472C227.68 57.5015 228.548 57.2859 229.534 57.2859C232.147 57.2859 235.544 58.8288 239.287 61.7871C245.063 66.3421 250.871 73.5958 255.633 82.2112C265.791 100.578 266.832 117.015 261.413 120.282Z" fill="#555F9E"/>
<path d="M275.078 137.302C273.968 135.294 271.509 134.606 269.586 135.766C267.662 136.925 267.004 139.492 268.114 141.499L280.608 164.091C281.718 166.098 284.177 166.786 286.1 165.627C288.023 164.468 288.682 161.901 287.572 159.893L275.078 137.302Z" fill="#AEB5EC"/>
<path d="M271.965 137.411L269.656 138.792L262.206 125.225C262.736 125.029 263.248 124.784 263.74 124.49C264.022 124.319 264.294 124.132 264.557 123.932L271.965 137.411Z" fill="#AEB5EC"/>
<path d="M367.821 124.47L364.588 180.683C363.87 193.138 353.075 202.263 341.257 200.406L298.281 193.652L303.226 158.275L331.958 162.57L335.434 126.953" fill="#2B2B51"/>
<path d="M367.821 124.47L364.588 180.683C363.87 193.138 353.075 202.263 341.257 200.406L298.281 193.652L303.226 158.275L331.958 162.57L335.434 126.953" stroke="#555F9E" stroke-miterlimit="10"/>
<path d="M303.23 158.28L295.822 156.62L293.79 153.598C290.671 148.959 285.233 146.672 279.903 147.754L273.598 149.038L275.24 177.107C275.465 180.942 278.369 184.018 282.038 184.307L292.744 182.99L299.744 184.91L303.225 158.28H303.23Z" fill="#F5C7B6"/>
<path d="M279.806 155.31C281.746 155.158 283.201 153.393 283.055 151.369C282.909 149.344 281.217 147.827 279.277 147.98L268.446 148.832C266.506 148.984 265.051 150.749 265.197 152.774C265.343 154.798 267.035 156.315 268.975 156.163L279.806 155.31Z" fill="#F5C7B6"/>
<path d="M280.071 162.449C282.012 162.296 283.466 160.532 283.32 158.507C283.174 156.483 281.483 154.966 279.542 155.118L268.712 155.97C266.771 156.123 265.317 157.888 265.463 159.912C265.609 161.937 267.301 163.454 269.241 163.301L280.071 162.449Z" fill="#F5C7B6"/>
<path d="M280.605 169.766C282.545 169.613 284 167.848 283.853 165.824C283.707 163.799 282.016 162.282 280.075 162.435L269.245 163.287C267.305 163.439 265.85 165.204 265.996 167.229C266.142 169.253 267.834 170.77 269.774 170.618L280.605 169.766Z" fill="#F5C7B6"/>
<path d="M281.036 176.855C282.977 176.703 284.431 174.938 284.285 172.914C284.139 170.889 282.447 169.372 280.507 169.524L269.677 170.377C267.736 170.529 266.282 172.294 266.428 174.318C266.574 176.343 268.265 177.86 270.206 177.708L281.036 176.855Z" fill="#F5C7B6"/>
<path d="M263.252 151.428H222.224C221.239 151.428 220.328 150.879 219.836 149.988L188.561 93.4273C187.506 91.5074 188.829 89.1123 190.949 89.1123H231.973C232.958 89.1123 233.868 89.6609 234.361 90.5523L265.645 147.113C266.705 149.033 265.382 151.428 263.257 151.428H263.252Z" fill="#8992CE"/>
<path d="M261.062 151.428H220.033C219.048 151.428 218.138 150.879 217.645 149.988L186.371 93.4273C185.315 91.5074 186.638 89.1123 188.759 89.1123H229.783C230.768 89.1123 231.678 89.6609 232.171 90.5523L263.454 147.113C264.515 149.033 263.192 151.428 261.066 151.428H261.062Z" fill="white"/>
<mask id="mask3_6905_7314" style="mask-type:luminance" maskUnits="userSpaceOnUse" x="186" y="89" width="78" height="63">
<path d="M261.062 151.428H220.033C219.048 151.428 218.138 150.879 217.645 149.988L186.371 93.4273C185.315 91.5074 186.638 89.1123 188.759 89.1123H229.783C230.768 89.1123 231.678 89.6609 232.171 90.5523L263.454 147.113C264.515 149.033 263.192 151.428 261.066 151.428H261.062Z" fill="white"/>
</mask>
<g mask="url(#mask3_6905_7314)">
<path opacity="0.53" d="M200.38 106.686C202.045 105.864 203.922 105.678 205.686 105.129C209.364 103.988 212.54 101.191 214.234 97.6009C215.928 94.0059 216.115 89.6713 214.741 85.9342C206.437 85.8461 198.137 85.7579 189.833 85.6697C187.619 85.6452 184.991 85.851 183.861 87.8395C183.171 89.0493 183.283 90.5627 183.48 91.9488C184.184 96.9201 185.737 101.754 188.008 106.182C189.021 108.156 193.324 117.09 196.031 112.53C197.415 110.198 197.72 108.004 200.38 106.686Z" fill="#D3DBE5" stroke="#CED3F4" stroke-miterlimit="10"/>
<path opacity="0.71" d="M227.048 136.866C231.242 139.399 234.793 143.185 239.387 144.806C241.779 145.648 244.327 145.849 246.804 146.349C249.281 146.848 251.81 147.701 253.598 149.562C254.78 150.791 255.573 152.745 254.761 154.264C253.968 155.743 252.106 156.086 250.492 156.257C239.227 157.462 227.934 158.417 216.627 159.127C214.957 159.23 213.198 159.313 211.697 158.544C209.881 157.619 208.807 155.65 207.84 153.798C206.175 150.605 204.514 147.412 202.848 144.213C202.102 142.778 199.367 139.296 200.277 137.621C201.112 136.083 204.664 135.133 206.175 134.638C210.571 133.203 215.323 132.978 219.827 133.986C222.356 134.555 224.805 135.515 227.048 136.871V136.866Z" fill="#CED3F4"/>
<path d="M227.426 122.672C228.621 121.245 228.143 118.766 226.356 117.134C224.57 115.503 222.152 115.337 220.956 116.764C219.761 118.192 220.239 120.671 222.026 122.303C223.812 123.934 226.23 124.1 227.426 122.672Z" stroke="#CED3F4" stroke-width="2.83" stroke-miterlimit="10"/>
</g>
<path d="M225.978 153.701C223.102 155.122 219.761 155.797 216.111 155.699C215.759 155.357 215.436 154.97 215.154 154.539L201.365 133.385C200.108 131.46 200.662 128.825 202.576 127.625L202.613 127.6L203.861 126.822L208.131 124.157L212.015 129.271L212.142 129.437L216.383 135.026H216.393L220.615 140.59L220.761 140.785L224.866 146.193C224.908 146.247 224.95 146.305 224.983 146.354C226.531 148.514 226.85 151.296 225.973 153.701H225.978Z" fill="#F5C7B6"/>
<path d="M216.127 126.241C217.668 125.001 217.956 122.692 216.769 121.084C215.582 119.476 213.37 119.177 211.829 120.417L203.225 127.336C201.683 128.576 201.396 130.885 202.583 132.493C203.769 134.101 205.981 134.4 207.523 133.16L216.127 126.241Z" fill="#F5C7B6"/>
<path d="M220.497 131.737C222.038 130.497 222.326 128.188 221.139 126.58C219.952 124.972 217.741 124.673 216.199 125.913L207.595 132.833C206.054 134.072 205.766 136.381 206.953 137.989C208.139 139.597 210.351 139.896 211.893 138.656L220.497 131.737Z" fill="#F5C7B6"/>
<path d="M224.787 137.557C226.328 136.317 226.616 134.008 225.429 132.4C224.242 130.792 222.031 130.493 220.489 131.733L211.885 138.653C210.344 139.893 210.056 142.201 211.243 143.81C212.43 145.418 214.641 145.716 216.183 144.477L224.787 137.557Z" fill="#F5C7B6"/>
<path d="M229.003 143.131C230.544 141.891 230.832 139.583 229.645 137.974C228.458 136.366 226.246 136.068 224.705 137.307L216.101 144.227C214.559 145.467 214.272 147.776 215.459 149.384C216.645 150.992 218.857 151.291 220.399 150.051L229.003 143.131Z" fill="#F5C7B6"/>
</g>
<defs>
<clipPath id="clip0_6905_7314">
<rect width="380" height="200" fill="white"/>
</clipPath>
</defs>
</svg>
