<svg width="380" height="200" viewBox="0 0 380 200" fill="none" xmlns="http://www.w3.org/2000/svg">
<g clip-path="url(#clip0_6905_7507)">
<path d="M120.429 156.589L114.869 143.827C114.869 143.827 108.42 135.825 107.156 133.023C106.882 132.412 106.675 131.716 106.524 130.997C105.881 127.955 107.173 124.987 109.651 123.743C109.651 123.743 109.047 123.629 109.724 122.562C110.4 121.489 114.019 119.668 114.019 119.668C114.019 119.668 115.076 117.676 116.234 117.408C117.392 117.14 118.018 117.83 118.018 117.83C118.018 117.83 118.717 116.249 120.11 116.495C121.503 116.74 124.037 121.186 124.037 121.186C124.037 121.186 126.028 120.176 127.504 122.459C128.729 124.354 131.319 134.65 127.51 139.758L134.166 149.466L120.429 156.6V156.589Z" fill="#F5C7B6"/>
<mask id="mask0_6905_7507" style="mask-type:luminance" maskUnits="userSpaceOnUse" x="106" y="116" width="29" height="41">
<path d="M120.429 156.589L114.869 143.827C114.869 143.827 108.42 135.825 107.156 133.023C106.882 132.412 106.675 131.716 106.524 130.997C105.881 127.955 107.173 124.987 109.651 123.743C109.651 123.743 109.047 123.629 109.724 122.562C110.4 121.489 114.019 119.668 114.019 119.668C114.019 119.668 115.076 117.676 116.234 117.408C117.392 117.14 118.018 117.83 118.018 117.83C118.018 117.83 118.717 116.249 120.11 116.495C121.503 116.74 124.037 121.186 124.037 121.186C124.037 121.186 126.028 120.176 127.504 122.459C128.729 124.354 131.319 134.65 127.51 139.758L134.166 149.466L120.429 156.6V156.589Z" fill="white"/>
</mask>
<g mask="url(#mask0_6905_7507)">
<path d="M110.004 127.522C110.004 127.522 111.968 133.217 112.298 133.503C113.042 134.159 114.854 134.41 115.933 132.013C116.66 130.398 115.083 126.506 113.981 124.137C113.472 123.047 112.281 122.533 111.308 122.979L109.646 123.738" stroke="#F08F7B" stroke-width="1.42" stroke-linecap="round" stroke-linejoin="round"/>
<path d="M114.016 119.657C115.229 119.503 115.699 120.097 116.382 121.661C117.064 123.224 118.843 128.715 118.68 129.428C118.68 129.428 118.658 131.369 116.141 131.392" stroke="#F08F7B" stroke-width="1.42" stroke-linecap="round" stroke-linejoin="round"/>
<path d="M122.007 118.453C123.629 121.581 124.854 126.9 123.803 127.762C122.757 128.624 121.319 128.681 121.319 128.681" stroke="#F08F7B" stroke-width="1.42" stroke-linecap="round" stroke-linejoin="round"/>
<path d="M118.204 118.002C119.932 119.828 121.75 128.132 121.141 129.063C120.531 129.993 118.495 130.107 118.495 130.107" stroke="#F08F7B" stroke-width="1.42" stroke-linecap="round" stroke-linejoin="round"/>
<path d="M122.534 136.785C122.534 136.785 120.867 132.498 123.21 128.149" stroke="#F08F7B" stroke-width="1.42" stroke-linecap="round" stroke-linejoin="round"/>
</g>
<path d="M132.12 139.935L116.94 147.816V152.268L114.026 149.289L112.27 150.311L114.954 156.589L135.291 145.939L132.12 139.935Z" fill="white"/>
<path d="M146.023 132.424C146.023 132.424 142.527 134.838 142.08 138.593C141.632 142.349 141.521 179.23 141.521 179.23L150.654 177.004L146.017 132.418L146.023 132.424Z" fill="#2B2B51"/>
<path d="M147.025 194.286C154.101 190.388 155.935 179.835 151.108 170.714L137.528 145.037L113.617 157.131L125.48 184.84C130.302 193.96 139.956 198.184 147.031 194.286H147.025Z" fill="#2B2B51"/>
<path d="M199.357 76.2754C199.357 76.2754 200.643 82.2281 201.264 87.4846C201.885 92.7411 193.987 99.1561 193.987 99.1561L190.156 106.753L187.561 90.2983L199.362 76.2754H199.357Z" fill="#272525"/>
<path d="M178.734 66.6981C177.52 64.6663 169.578 64.9973 167.693 66.3043C161.853 70.3508 163.039 80.6411 171.502 79.6081C173.694 79.3398 173.728 84.4308 173.728 84.4308L193.986 92.4439L198.729 83.997C200.681 80.5213 200.2 76.138 197.516 73.2159C190.11 65.1571 182.85 66.5554 178.739 66.6867L178.734 66.6981Z" fill="#272525"/>
<path d="M193.981 92.4561C194.076 89.7337 192.225 87.4279 189.758 87.0456L192.197 73.7988L174.629 70.2945C170.344 69.4384 166.105 71.9953 164.779 76.2416L161.3 90.3615C161.3 90.3615 158.308 103.671 168.862 105.343L169.5 120.188L190.726 111.781L188.886 96.8108C191.101 96.3485 193.897 94.9788 193.987 92.4675L193.981 92.4561Z" fill="#F5C7B6"/>
<path d="M171.978 84.1396C172.722 84.1396 173.326 83.5238 173.326 82.7641C173.326 82.0045 172.722 81.3887 171.978 81.3887C171.233 81.3887 170.63 82.0045 170.63 82.7641C170.63 83.5238 171.233 84.1396 171.978 84.1396Z" fill="#272525"/>
<path d="M170.964 78.7583C172.396 78.5586 173.923 78.7983 175.036 79.7742C175.159 79.877 175.176 80.0653 175.075 80.1909C174.98 80.305 174.824 80.3278 174.706 80.2594C173.694 79.603 172.357 79.5973 171.244 79.9397C170.433 80.1852 170.131 78.9181 170.964 78.7583Z" fill="#272525"/>
<path d="M165.338 81.6807L162.575 83.8894C161.871 84.4544 161.748 85.5046 162.324 86.2066C162.603 86.5433 162.967 86.8572 163.414 87.0399" fill="#F5C7B6"/>
<path d="M165.338 81.6807L162.575 83.8894C161.871 84.4544 161.748 85.5046 162.324 86.2066C162.603 86.5433 162.967 86.8572 163.414 87.0399" stroke="#E37669" stroke-width="1.2" stroke-linecap="round" stroke-linejoin="round"/>
<path d="M163.644 90.5558C164.242 90.9496 165.003 91.275 165.954 91.3891C169.041 91.7601 170.719 89.8709 171.301 89.1689" stroke="#E37669" stroke-width="1.2" stroke-linecap="round" stroke-linejoin="round"/>
<path d="M190.971 88.8262C191.794 89.5396 192.163 90.7438 191.889 91.8111C191.615 92.8784 190.708 93.7345 189.651 93.9399" stroke="#272525" stroke-width="1.42" stroke-linecap="round" stroke-linejoin="round"/>
<path d="M175.764 70.4199C179.047 71.3445 182.151 72.3376 184.562 73.5818C186.01 74.3295 186.76 75.996 186.38 77.6055L185.255 82.3426C184.785 84.3059 186.016 86.2749 187.957 86.6744L189.763 87.0454L193.852 73.4505L175.769 70.4199H175.764Z" fill="#272525"/>
<path d="M177.732 67.1777C175.551 71.7094 182.923 80.7897 187.011 81.6744L190.72 72.0689L177.732 67.1777Z" fill="#272525"/>
<path d="M175.703 66.5442C175.048 63.4394 179.137 60.1006 179.137 60.1006C179.137 60.1006 177.358 62.7488 179.601 64.0558C182.868 61.0309 187.538 61.0366 188.707 62.2237C187.046 63.8218 187.135 65.3171 187.135 65.3171C187.135 65.3171 193.282 66.9437 195.721 68.8442C198.159 70.7448 196.392 78.5581 196.392 78.5581L175.708 66.5385L175.703 66.5442Z" fill="#272525"/>
<path d="M210.883 123.949L213.981 126.135C215.883 127.476 217.186 129.525 217.617 131.842C220.168 145.58 228.714 194.731 224.525 215.929H203.019L197.319 152.086L210.877 123.943L210.883 123.949Z" fill="#2B2B51"/>
<path d="M224.211 215.928H202.7L195.714 152.086" stroke="#1C1C3A" stroke-miterlimit="10"/>
<path d="M169.499 119.377L146.024 132.424L150.661 177.009V200.524H207.801L210.564 123.948L190.72 110.97L169.499 119.377Z" fill="#2B2B51"/>
<mask id="mask1_6905_7507" style="mask-type:luminance" maskUnits="userSpaceOnUse" x="146" y="110" width="65" height="91">
<path d="M169.5 119.377L146.025 132.424L150.662 177.009V200.524H207.802L210.565 123.948L190.721 110.97L169.5 119.377Z" fill="white"/>
</mask>
<g mask="url(#mask1_6905_7507)">
<path d="M164.897 119.376L165.339 170.388C165.339 170.388 180.099 124.81 194.194 113.241L195.514 104.651L160.909 110.969L164.897 119.376Z" fill="white"/>
<mask id="mask2_6905_7507" style="mask-type:luminance" maskUnits="userSpaceOnUse" x="160" y="104" width="36" height="67">
<path d="M164.898 119.376L165.34 170.388C165.34 170.388 180.1 124.81 194.195 113.241L195.515 104.651L160.91 110.969L164.898 119.376Z" fill="white"/>
</mask>
<g mask="url(#mask2_6905_7507)">
<path d="M168.723 124.302L169.797 126.773C169.797 126.773 159.841 164.716 159.103 181.678L165.199 188.087L171.106 179.23L174.808 126.773L178.293 122.539L172.811 117.573L168.723 124.302Z" fill="#A54952"/>
</g>
</g>
<path d="M169.207 112.625L164.895 119.377L168.597 125.175L172.809 117.567C172.809 117.567 169.319 115.29 169.207 112.619V112.625Z" fill="white"/>
<path d="M172.81 117.573L190.523 107.191L194.192 113.241L181.02 124.713L172.81 117.573Z" fill="white"/>
<path d="M165.337 170.389L164.224 217.229L161.276 224.751" stroke="#1C1C3A" stroke-width="1.42" stroke-linecap="round" stroke-linejoin="round"/>
<path d="M297.022 225.112H232.281C232.241 188.249 235.939 164.574 235.939 164.574C252.718 159.118 269.196 158.896 285.332 164.574C300.238 200.063 297.022 225.112 297.022 225.112Z" fill="#42487C"/>
<path d="M203.928 125.617L203.866 110.589C203.866 110.589 200.907 99.8594 200.851 96.5377C200.84 95.8186 200.935 95.0366 201.086 94.2662C201.741 90.9844 204.275 88.633 207.244 88.5018C207.244 88.5018 206.696 88.1251 207.815 87.366C208.934 86.6069 213.274 86.4129 213.274 86.4129C213.274 86.4129 215.159 84.9175 216.417 85.163C217.676 85.4084 217.995 86.3672 217.995 86.3672C217.995 86.3672 219.354 85.123 220.623 85.9791C221.876 86.8238 222.503 92.3314 222.503 92.3314C222.503 92.3314 224.897 92.2172 225.378 95.1166C225.78 97.525 223.963 108.808 218.045 112.153L221.53 126.769L203.922 125.611L203.928 125.617Z" fill="#F5C7B6"/>
<mask id="mask3_6905_7507" style="mask-type:luminance" maskUnits="userSpaceOnUse" x="200" y="85" width="26" height="42">
<path d="M203.927 125.617L203.865 110.589C203.865 110.589 200.906 99.8594 200.85 96.5377C200.839 95.8186 200.934 95.0366 201.085 94.2662C201.74 90.9844 204.274 88.633 207.244 88.5018C207.244 88.5018 206.695 88.1251 207.814 87.366C208.933 86.6069 213.273 86.4129 213.273 86.4129C213.273 86.4129 215.158 84.9175 216.416 85.163C217.675 85.4084 217.994 86.3672 217.994 86.3672C217.994 86.3672 219.353 85.123 220.622 85.9791C221.875 86.8238 222.502 92.3314 222.502 92.3314C222.502 92.3314 224.896 92.2172 225.377 95.1166C225.779 97.525 223.962 108.808 218.044 112.153L221.529 126.769L203.921 125.611L203.927 125.617Z" fill="white"/>
</mask>
<g mask="url(#mask3_6905_7507)">
<path d="M205.991 92.3884C205.991 92.3884 205.51 98.8663 205.711 99.2943C206.164 100.27 207.848 101.315 209.929 99.4313C211.327 98.1643 211.428 93.6326 211.344 90.8132C211.305 89.5119 210.354 88.4789 209.202 88.4903L207.244 88.5074" stroke="#F08F7B" stroke-width="1.42" stroke-linecap="round" stroke-linejoin="round"/>
<path d="M213.279 86.4131C214.537 86.7955 214.75 87.5888 214.761 89.4323C214.772 91.2757 214.19 97.4682 213.726 98.096C213.726 98.096 212.882 100.002 210.393 98.9122" stroke="#F08F7B" stroke-width="1.42" stroke-linecap="round" stroke-linejoin="round"/>
<path d="M221.663 88.7529C221.937 92.5483 220.88 98.3298 219.481 98.7122C218.083 99.0946 216.646 98.5239 216.646 98.5239" stroke="#F08F7B" stroke-width="1.42" stroke-linecap="round" stroke-linejoin="round"/>
<path d="M218.101 86.6299C219.03 89.1925 217.301 98.1701 216.3 98.8208C215.305 99.4657 213.252 98.6781 213.252 98.6781" stroke="#F08F7B" stroke-width="1.42" stroke-linecap="round" stroke-linejoin="round"/>
<path d="M214.397 107.039C214.397 107.039 214.576 102.08 218.727 98.8379" stroke="#F08F7B" stroke-width="1.42" stroke-linecap="round" stroke-linejoin="round"/>
</g>
<path d="M237.728 107.108C235.714 107.638 233.907 108.694 232.459 110.127C231.927 110.652 231.441 111.234 231.01 111.856L221.619 123.071L200.852 126.267L201.092 148.44C202.848 157.989 210.282 164.575 217.693 163.154C219.645 162.777 232.962 155.643 232.962 155.643L240.088 152.139L254.306 102.753L237.722 107.108H237.728Z" fill="#56729B"/>
<path d="M220.686 123.214L225.434 143.481" stroke="#CED3F4" stroke-miterlimit="10"/>
<path d="M251.08 77.3262C251.08 77.3262 251.572 101.708 247.998 109.498L262.652 108.745L259.755 80.4709L251.074 77.3319L251.08 77.3262Z" fill="#44160B"/>
<path d="M280.924 48.3496C289.358 51.9566 291.758 60.0211 292.054 66.6645C292.35 73.3078 293.352 108.191 293.352 108.191L271.93 104.339L280.929 48.3553L280.924 48.3496Z" fill="#44160B"/>
<path d="M260.901 43.8924C250.374 43.2018 242.533 62.1331 246.107 70.4772C249.681 78.8213 272.557 64.3019 272.557 64.3019L260.901 43.8867V43.8924Z" fill="#44160B"/>
<path d="M279.649 58.0815C278.966 54.1378 279.056 48.3848 267.657 47.0207C265.532 46.7639 263.535 46.7354 261.706 46.8438C256.918 47.1292 252.74 50.3139 251.062 54.9026C247.824 63.7603 241.498 82.1266 256.778 85.0773C256.493 85.6537 259.29 102.097 253.529 102.764C249.837 107.867 266.169 106.839 276.282 99.7223L279.649 58.0815Z" fill="#F5C7B6"/>
<path d="M257.981 61.6142C258.914 61.6142 259.67 60.8425 259.67 59.8906C259.67 58.9387 258.914 58.167 257.981 58.167C257.048 58.167 256.292 58.9387 256.292 59.8906C256.292 60.8425 257.048 61.6142 257.981 61.6142Z" fill="#272525"/>
<path d="M250.285 60.0732C250.285 60.0732 247.326 62.0537 247.477 62.8927C247.628 63.7316 249.094 65.187 249.345 65.187" fill="#F5C7B6"/>
<path d="M250.285 60.0732C250.285 60.0732 247.326 62.0537 247.477 62.8927C247.628 63.7316 249.094 65.187 249.345 65.187" stroke="#E37669" stroke-width="1.2" stroke-linecap="round" stroke-linejoin="round"/>
<path d="M248.606 68.4229C249.149 68.9479 249.876 69.4331 250.833 69.7355C253.954 70.7286 256.045 69.1077 256.778 68.497" stroke="#E37669" stroke-width="1.2" stroke-linecap="round" stroke-linejoin="round"/>
<path d="M256.924 55.3303C256.924 55.3303 259.486 54.8395 261.197 56.3462" stroke="#44160B" stroke-width="1.42" stroke-linecap="round" stroke-linejoin="round"/>
<path d="M260.787 64.3717C260.919 63.3912 259.479 62.3791 257.569 62.1111C255.659 61.8432 254.004 62.4208 253.872 63.4014C253.74 64.3819 255.181 65.394 257.09 65.6619C259 65.9299 260.655 65.3522 260.787 64.3717Z" fill="#F08F7B"/>
<path d="M245.211 110.126C245.211 110.126 233.13 121.027 231.972 129.937C231.475 133.778 235.932 164.574 235.932 164.574C252.712 159.118 269.19 158.896 285.326 164.574L300.758 108.431C301.798 104.642 300.008 100.635 296.518 98.9629L277.585 92.8789L259.06 105.024L257.371 95.6356C257.091 95.1276 256.398 95.0819 256.057 95.5442L245.217 110.121L245.211 110.126Z" fill="#56729B"/>
<path d="M245.211 110.127C245.211 110.127 233.13 121.028 231.972 129.937C231.665 132.283 233.214 144.679 234.461 153.976" stroke="#CED3F4" stroke-miterlimit="10"/>
<path d="M281.417 99.6592L262.652 116.793L257.982 107.193L250.285 116.736L249.368 104.71" stroke="#CED3F4" stroke-miterlimit="10"/>
<path d="M257.981 107.192C257.981 107.192 250.766 124.035 250.279 131.563C249.793 139.091 251.074 161.081 251.074 161.081" stroke="#CED3F4" stroke-miterlimit="10"/>
<path d="M257.403 122.78C258.169 122.78 258.79 122.146 258.79 121.365C258.79 120.583 258.169 119.949 257.403 119.949C256.637 119.949 256.016 120.583 256.016 121.365C256.016 122.146 256.637 122.78 257.403 122.78Z" fill="#CED3F4"/>
<path d="M255.166 136.01C255.932 136.01 256.554 135.376 256.554 134.594C256.554 133.812 255.932 133.179 255.166 133.179C254.4 133.179 253.779 133.812 253.779 134.594C253.779 135.376 254.4 136.01 255.166 136.01Z" fill="#CED3F4"/>
<path d="M255.324 150.1C256.09 150.1 256.711 149.467 256.711 148.685C256.711 147.903 256.09 147.27 255.324 147.27C254.558 147.27 253.937 147.903 253.937 148.685C253.937 149.467 254.558 150.1 255.324 150.1Z" fill="#CED3F4"/>
<path d="M260.9 43.8936C260.9 43.8936 272.07 66.9797 278.877 67.579L280.918 48.3567L260.9 43.8936Z" fill="#44160B"/>
<path d="M305.987 173.175L296.859 183.956C294.007 187.324 290.002 189.441 285.662 189.881L276.125 190.839C274.543 190.999 272.932 190.451 271.863 189.247C270.879 188.134 270.253 186.587 271.696 184.841C269.346 184.516 267.741 181.354 269.453 179.499C266.891 178.734 267.847 173.501 269.878 171.76C271.908 170.019 276.931 162.508 280.561 162.617C284.191 162.725 287.06 164.58 287.06 164.58L294.762 153.981C294.762 153.981 303.633 159.883 305.982 173.181L305.987 173.175Z" fill="#F5C7B6"/>
<mask id="mask4_6905_7507" style="mask-type:luminance" maskUnits="userSpaceOnUse" x="267" y="153" width="39" height="38">
<path d="M305.988 173.175L296.86 183.956C294.008 187.324 290.003 189.441 285.663 189.881L276.126 190.839C274.544 190.999 272.933 190.451 271.864 189.247C270.88 188.134 270.254 186.587 271.697 184.841C269.347 184.516 267.742 181.354 269.454 179.499C266.892 178.734 267.848 173.501 269.879 171.76C271.909 170.019 276.932 162.508 280.562 162.617C284.192 162.725 287.061 164.58 287.061 164.58L294.763 153.981C294.763 153.981 303.634 159.883 305.983 173.181L305.988 173.175Z" fill="white"/>
</mask>
<g mask="url(#mask4_6905_7507)">
<path d="M271.282 185.063L277.015 181.964" stroke="#F08F7B" stroke-miterlimit="10"/>
<path d="M268.781 179.749L274.514 176.65" stroke="#F08F7B" stroke-miterlimit="10"/>
<path d="M269.011 172.41L274.744 169.306" stroke="#F08F7B" stroke-miterlimit="10"/>
</g>
<path d="M294.761 153.975L299.146 146.105L288.967 139.033L298.375 100.212C298.375 100.212 326.027 128.606 328.953 135.42C334.221 147.691 305.981 173.175 305.981 173.175L294.761 153.975Z" fill="#56729B"/>
<path d="M383.029 225.112H313.763C307.527 175.8 317.863 160.528 317.863 160.528C335.767 154.706 353.341 154.472 370.557 160.528C386.458 198.39 383.029 225.112 383.029 225.112Z" fill="#555F9E"/>
<path d="M282.933 119.657L280.014 103.904C280.014 103.904 274.874 93.2316 274.186 89.7615C274.035 89.0082 273.984 88.1749 274.001 87.3302C274.063 83.7574 276.272 80.7953 279.365 80.0648C279.365 80.0648 278.716 79.7794 279.751 78.7635C280.786 77.7476 285.299 76.6803 285.299 76.6803C285.299 76.6803 286.994 74.7398 288.359 74.7455C289.724 74.7512 290.244 75.6986 290.244 75.6986C290.244 75.6986 291.435 74.1234 292.929 74.7684C294.405 75.4076 296.105 81.0635 296.105 81.0635C296.105 81.0635 298.594 80.47 299.652 83.4207C300.53 85.8691 300.77 98.0657 295.199 102.746L300.133 115.382L282.945 119.662L282.933 119.657Z" fill="#F5C7B6"/>
<mask id="mask5_6905_7507" style="mask-type:luminance" maskUnits="userSpaceOnUse" x="273" y="74" width="28" height="46">
<path d="M282.933 119.657L280.014 103.904C280.014 103.904 274.874 93.2316 274.186 89.7615C274.035 89.0082 273.984 88.1749 274.001 87.3302C274.063 83.7574 276.272 80.7953 279.365 80.0648C279.365 80.0648 278.716 79.7794 279.751 78.7635C280.786 77.7476 285.299 76.6803 285.299 76.6803C285.299 76.6803 286.994 74.7398 288.359 74.7455C289.724 74.7512 290.244 75.6986 290.244 75.6986C290.244 75.6986 291.435 74.1234 292.929 74.7684C294.405 75.4076 296.105 81.0635 296.105 81.0635C296.105 81.0635 298.594 80.47 299.652 83.4207C300.53 85.8691 300.77 98.0657 295.199 102.746L300.133 115.382L282.945 119.662L282.933 119.657Z" fill="white"/>
</mask>
<g mask="url(#mask5_6905_7507)">
<path d="M278.789 84.3849C278.789 84.3849 279.516 91.2737 279.807 91.6846C280.467 92.6149 282.43 93.3854 284.254 90.994C285.484 89.3845 284.729 84.6132 284.103 81.6682C283.817 80.3099 282.62 79.4195 281.418 79.6535L279.365 80.053" stroke="#F08F7B" stroke-width="1.42" stroke-linecap="round" stroke-linejoin="round"/>
<path d="M285.3 76.6797C286.693 76.8338 287.067 77.6214 287.431 79.5505C287.794 81.4853 288.359 88.0944 287.99 88.8477C287.99 88.8477 287.464 91.0108 284.646 90.3602" stroke="#F08F7B" stroke-width="1.42" stroke-linecap="round" stroke-linejoin="round"/>
<path d="M294.54 77.4785C295.547 81.4052 295.541 87.6775 294.149 88.3624C292.756 89.0416 291.134 88.722 291.134 88.722" stroke="#F08F7B" stroke-width="1.42" stroke-linecap="round" stroke-linejoin="round"/>
<path d="M290.4 75.9551C291.86 78.4606 291.754 88.2201 290.831 89.0991C289.908 89.9723 287.609 89.5557 287.609 89.5557" stroke="#F08F7B" stroke-width="1.42" stroke-linecap="round" stroke-linejoin="round"/>
<path d="M290.394 98.0936C290.394 98.0936 289.639 92.86 293.381 88.6309" stroke="#F08F7B" stroke-width="1.42" stroke-linecap="round" stroke-linejoin="round"/>
</g>
<path d="M337.462 94.5723L319.771 99.218C315.811 100.257 312.589 103.202 311.135 107.106L303.83 124.188L303.808 124.131L299.294 108.047L280.132 110.456L280.641 140.379C280.702 144.129 281.648 147.845 283.572 151.041C287.017 156.777 292.717 160.098 298.399 159.014C299.674 158.768 300.871 158.318 301.973 157.69L322.293 147.268L337.462 94.578V94.5723Z" fill="white"/>
<path d="M303.808 124.125L305.989 134.25" stroke="#CED3F4" stroke-miterlimit="10"/>
<path d="M328.888 31.1484C317.852 32.6609 314.334 46.6096 320.274 51.7348C326.214 56.8543 345.869 42.4318 345.869 42.4318L328.888 31.1541V31.1484Z" fill="#974F3B"/>
<path d="M359.382 38.5612C356.132 36.6264 348.257 29.6407 336.142 31.4385C333.882 31.7752 331.818 32.306 329.961 32.9338C325.101 34.5775 321.655 39.0349 321.169 44.2343C320.224 54.2792 318.663 74.9855 335.208 73.7241C335.09 74.3006 337.137 83.7747 334.218 88.021C332.853 90.0015 334.033 92.7239 336.405 92.8551C343.368 93.2261 356.736 89.4307 362.586 82.4221C362.586 82.4221 356.003 75.2195 357.558 59.5871L359.376 38.5555L359.382 38.5612Z" fill="#F5C7B6"/>
<path d="M329.648 49.2683C330.642 49.2683 331.449 48.4455 331.449 47.4305C331.449 46.4156 330.642 45.5928 329.648 45.5928C328.653 45.5928 327.847 46.4156 327.847 47.4305C327.847 48.4455 328.653 49.2683 329.648 49.2683Z" fill="#272525"/>
<path d="M321.51 49.3604C321.51 49.3604 318.999 52.2311 319.379 53.0587C319.759 53.8863 321.667 54.9707 321.924 54.8965" fill="#F5C7B6"/>
<path d="M321.51 49.3604C321.51 49.3604 318.999 52.2311 319.379 53.0587C319.759 53.8863 321.667 54.9707 321.924 54.8965" stroke="#E37669" stroke-width="1.26" stroke-linecap="round" stroke-linejoin="round"/>
<path d="M322.293 58.8569C322.998 59.245 323.876 59.5418 324.944 59.5874C328.429 59.7358 330.146 57.4757 330.733 56.6367" stroke="#E37669" stroke-width="1.19" stroke-linecap="round" stroke-linejoin="round"/>
<path d="M327.321 43.0247C327.321 43.0247 329.833 41.7976 331.997 42.8649" stroke="#974F3B" stroke-width="1.26" stroke-linecap="round" stroke-linejoin="round"/>
<path d="M330.303 53.6109C332.344 53.3499 333.895 52.289 333.766 51.2413C333.637 50.1935 331.878 49.5557 329.837 49.8166C327.795 50.0775 326.245 51.1384 326.374 52.1862C326.502 53.234 328.261 53.8718 330.303 53.6109Z" fill="#F08F7B"/>
<path d="M369.696 60.6716C369.696 60.6716 369.562 37.9963 361.53 31.6098C361.53 31.6098 350.83 21.1083 328.346 29.2584C327.406 29.6008 327.031 30.7537 327.574 31.6041C332.278 38.9837 335.471 59.005 354.589 61.3279C355.333 67.3777 356.748 76.7263 358.857 79.8939C364.12 87.7985 376.324 85.5441 378.12 76.167C378.265 75.4193 378.315 74.6374 378.315 73.8156C378.315 61.6247 369.696 60.6773 369.696 60.6773V60.6716Z" fill="#974F3B"/>
<path d="M327.753 102.437C327.753 102.437 309.748 120.13 309.748 124.268C309.748 128.406 317.853 160.527 317.853 160.527C335.756 154.705 353.336 154.471 370.546 160.527L387.007 100.634C388.12 96.5874 386.207 92.3183 382.482 90.5319L358.845 79.8877L334.028 86.5253C332.803 86.8506 331.841 87.8152 331.494 89.0537L327.747 102.437H327.753Z" fill="white"/>
<path d="M358.101 80.7159L336.657 86.6801C335.941 86.8798 335.23 86.3262 335.23 85.5671V80.8186C335.23 80.2993 335.572 79.8427 336.064 79.7057L356.166 74.1182C357.447 73.7644 358.789 74.4492 359.276 75.7106L359.841 77.1831C360.405 78.6556 359.594 80.2993 358.101 80.7159Z" fill="#C87777"/>
<path d="M354.236 79.8877C348.447 91.7361 363.761 100.6 363.761 100.6C363.761 100.6 367.262 83.7344 354.236 79.8877Z" fill="#C87777"/>
<path d="M356.876 79.5627C358.593 92.6838 376.145 91.2627 376.145 91.2627C376.145 91.2627 369.779 75.2993 356.876 79.5627Z" fill="#C87777"/>
<path d="M358.799 108.19L359.851 132.104L344.347 142.731" stroke="#CED3F4" stroke-miterlimit="10"/>
<path d="M352.933 160.528L322.092 164.255C321.152 164.369 320.28 163.752 320.056 162.816L306.912 108.796C306.649 107.718 307.343 106.633 308.422 106.451L338.81 101.251C339.772 101.086 340.701 101.708 340.936 102.672L354.533 158.165C354.807 159.283 354.057 160.391 352.939 160.528H352.933Z" fill="#AEB5EC"/>
<path d="M358.56 102.753L359.852 132.106L345.293 142.088L346.244 162.617C346.244 162.617 378.315 160.534 387.326 150.883V98.6035L358.554 102.758L358.56 102.753Z" fill="white"/>
<path d="M336.377 145.1L317.215 144.199C316.309 144.045 315.397 144.427 314.872 145.192C314.212 146.151 313.496 147.497 313.753 148.542C314.2 150.374 314.743 150.465 314.743 150.465C314.743 150.465 313.753 151.841 314.206 153.673C314.659 155.505 315.839 156.418 315.839 156.418C315.839 156.418 314.782 157.331 315.839 159.808C316.896 162.285 317.433 162.616 317.433 162.616C317.433 162.616 316.628 166.4 318.06 167.136C319.492 167.873 333.676 166.708 340.5 162.616H346.244L345.293 142.087L336.377 145.1Z" fill="#F5C7B6"/>
<path d="M359.853 132.105H370.642" stroke="#CED3F4" stroke-miterlimit="10"/>
</g>
<defs>
<clipPath id="clip0_6905_7507">
<path d="M0 0H380V190C380 195.523 375.523 200 370 200H10C4.47716 200 0 195.523 0 190V0Z" fill="white"/>
</clipPath>
</defs>
</svg>
