<svg width="2042" height="435" viewBox="0 0 2042 435" fill="none" xmlns="http://www.w3.org/2000/svg">
<g clip-path="url(#clip0_8200_18390)">
<path opacity="0.1" d="M1014.5 276.491C1056.75 276.491 1091 242.017 1091 199.491C1091 156.966 1056.75 122.491 1014.5 122.491C972.25 122.491 938 156.966 938 199.491C938 242.017 972.25 276.491 1014.5 276.491Z" fill="#36BBED"/>
<path d="M1526.83 432.687C1569.47 428.026 1576.62 392.055 1573.48 353.23C1568.06 286.891 1611.42 225.348 1662.37 214.438C1697.49 206.9 1730.95 220.661 1760.01 239.339C1795.04 261.813 1806.42 276.492 1829.64 308.309C1829.77 308.505 1829.95 308.716 1830.07 308.912C1835.46 316.294 1841.05 322.729 1846.84 328.218C1846.87 328.309 1846.97 328.338 1847.05 328.413C1849.57 330.798 1852.13 332.953 1854.72 334.987C1855.38 335.525 1856.04 336.064 1856.72 336.557C1858.51 337.932 1860.36 339.139 1862.21 340.345C1863.46 341.165 1864.66 342.046 1865.97 342.804C1866.54 343.131 1867.09 343.397 1867.65 343.724C1874.02 347.348 1880.83 350.281 1888 352.479C1889.83 353.017 1891.64 353.63 1893.46 354.062C1893.55 354.091 1893.64 354.089 1893.74 354.118C1917.34 359.602 1941.47 355.535 1963.43 346.994C1969.22 344.63 1975.09 341.946 1981.09 338.666C1982.33 337.948 1983.55 337.277 1984.77 336.499C1985.63 335.985 1986.52 335.455 1987.36 334.91C1989.82 333.308 1992.2 331.631 1994.55 329.863C1994.77 329.693 1995 329.522 1995.27 329.336C1996.89 328.096 1998.42 326.75 2000 325.389C2012.36 314.73 2024.02 300.398 2031.74 283.001C2031.87 282.695 2032.01 282.419 2032.15 282.143C2032.9 280.383 2033.53 278.532 2034.19 276.743C2034.93 274.739 2035.71 272.749 2036.32 270.656C2036.32 270.656 2036.33 270.579 2036.36 270.533C2042.38 250.147 2042.7 226.812 2034.82 201.796C2033.21 197.01 2031.36 192.181 2029.09 187.251C1999.78 123.727 1913.25 51.4623 1813.73 21.5659C1744.81 0.85921 1669.67 0.450364 1603.02 37.3762C1457.18 118.16 1454.76 272.209 1467.99 373.381C1475.51 430.818 1497.44 435.914 1526.79 432.702L1526.83 432.687Z" fill="#3ACA70" fill-opacity="0.1"/>
<path opacity="0.1" d="M592.35 69.9759C592.334 69.8193 592.266 69.6454 592.226 69.4914C590.788 63.4456 588.974 57.9582 586.86 53.0216C586.854 52.9545 586.799 52.9149 586.792 52.8478C585.869 50.7048 584.858 48.7063 583.802 46.7578C583.525 46.2664 583.271 45.75 582.994 45.2586C582.253 43.9331 581.448 42.7273 580.641 41.4992C580.102 40.6729 579.584 39.7993 578.997 39.0006C578.734 38.6434 578.476 38.3534 578.213 37.9962C575.315 34.1119 571.966 30.5451 568.226 27.3802C567.286 26.5952 566.338 25.743 565.379 25.0277C565.324 24.9881 565.27 24.9485 565.215 24.9089C552.517 15.6109 537.285 12.2237 522.265 12.2504C518.288 12.3195 514.178 12.583 509.85 13.2079C508.95 13.3454 508.052 13.5054 507.18 13.6627C506.531 13.7745 505.907 13.8837 505.263 14.0402C503.451 14.4521 501.621 14.9337 499.823 15.4799C499.652 15.5427 499.453 15.5857 499.279 15.6261C498.025 16.026 496.804 16.5129 495.554 16.9576C485.725 20.7012 475.436 26.9783 466.781 36.1618C466.644 36.3115 466.481 36.4638 466.344 36.6135C465.471 37.5394 464.685 38.5693 463.845 39.5597C462.94 40.6697 462.006 41.7375 461.158 42.9095C461.158 42.9095 461.137 42.9568 461.114 42.9818C452.696 54.5595 447.033 69.3355 445.766 87.2542C445.757 87.4134 445.72 87.5528 445.712 87.7344C443.931 115.29 421.877 152.588 390.381 163.03C298.302 193.567 253.528 110.89 209.873 58.16C197.591 43.3268 168.282 -4.20696 105.62 3.37546C35.5624 11.8749 -28.3194 81.5607 16.9822 182.583C51.3674 259.274 194.376 435.53 413.323 353.234C463.766 334.27 504.627 296.489 534.142 256.888C559.449 222.963 576.427 187.7 583.907 161.821C590.884 137.778 597.051 97.9059 594.184 79.5071C593.675 76.1689 593.033 73.0251 592.325 69.9785L592.35 69.9759Z" fill="#44C8F5"/>
</g>
<defs>
<clipPath id="clip0_8200_18390">
<rect width="2042" height="435" fill="white"/>
</clipPath>
</defs>
</svg>
