<svg width="750" height="306" viewBox="0 0 750 306" fill="none" xmlns="http://www.w3.org/2000/svg">
<rect width="750" height="306" fill="#F9FAFC"/>
<circle cx="342" cy="105" r="7" fill="#BDBDBD"/>
<path d="M344.215 107.656V108.5H339.926V107.775L342.009 105.503C342.237 105.245 342.417 105.022 342.549 104.835C342.681 104.647 342.773 104.479 342.826 104.33C342.882 104.177 342.91 104.029 342.91 103.886C342.91 103.684 342.872 103.506 342.795 103.354C342.722 103.199 342.614 103.077 342.47 102.989C342.327 102.898 342.152 102.853 341.947 102.853C341.71 102.853 341.511 102.904 341.35 103.007C341.188 103.109 341.067 103.251 340.985 103.433C340.903 103.612 340.862 103.817 340.862 104.048H339.803C339.803 103.676 339.888 103.336 340.058 103.029C340.228 102.718 340.474 102.472 340.796 102.291C341.118 102.106 341.506 102.014 341.96 102.014C342.388 102.014 342.751 102.085 343.05 102.229C343.349 102.373 343.576 102.576 343.731 102.84C343.89 103.104 343.969 103.416 343.969 103.776C343.969 103.975 343.937 104.173 343.872 104.369C343.808 104.565 343.715 104.762 343.595 104.958C343.478 105.151 343.339 105.346 343.178 105.542C343.017 105.736 342.839 105.932 342.646 106.131L341.262 107.656H344.215Z" fill="white"/>
<path d="M363.767 103.736H365.532V104.739H363.767V110.566H362.561V99.2041H363.767V103.736ZM360.797 100.397C360.788 102.132 360.367 103.69 359.533 105.069C358.7 106.449 357.386 107.583 355.592 108.472L354.919 107.532C356.341 106.821 357.439 105.954 358.213 104.93C358.992 103.906 359.442 102.729 359.565 101.4H355.49V100.397H360.797ZM369.804 101.02C369.804 101.519 369.914 101.997 370.134 102.454C370.359 102.911 370.676 103.315 371.086 103.667C371.501 104.014 371.988 104.278 372.546 104.46L371.899 105.412C371.285 105.196 370.748 104.877 370.287 104.454C369.83 104.026 369.476 103.529 369.227 102.962C368.977 103.609 368.613 104.172 368.135 104.65C367.661 105.124 367.096 105.484 366.44 105.729L365.792 104.765C366.376 104.557 366.878 104.261 367.297 103.876C367.72 103.487 368.044 103.038 368.268 102.53C368.492 102.022 368.607 101.485 368.611 100.918V99.8008H369.804V101.02ZM374.819 102.061H376.469V103.076H374.819V106.072H373.613V99.2041H374.819V102.061ZM371.15 106.339C371.924 106.339 372.595 106.424 373.162 106.593C373.729 106.758 374.163 106.999 374.463 107.316C374.768 107.63 374.92 108.006 374.92 108.446C374.92 108.891 374.768 109.271 374.463 109.589C374.163 109.906 373.729 110.147 373.162 110.312C372.595 110.478 371.924 110.558 371.15 110.554C370.367 110.558 369.688 110.478 369.112 110.312C368.537 110.147 368.095 109.906 367.786 109.589C367.481 109.271 367.329 108.891 367.329 108.446C367.329 108.006 367.481 107.63 367.786 107.316C368.095 106.999 368.537 106.758 369.112 106.593C369.688 106.424 370.367 106.339 371.15 106.339ZM371.15 107.291C370.604 107.291 370.134 107.338 369.741 107.431C369.347 107.52 369.047 107.651 368.839 107.824C368.632 107.998 368.53 108.205 368.535 108.446C368.53 108.819 368.757 109.104 369.214 109.303C369.671 109.502 370.316 109.606 371.15 109.614C371.975 109.606 372.612 109.502 373.061 109.303C373.513 109.104 373.74 108.819 373.74 108.446C373.74 108.082 373.511 107.799 373.054 107.596C372.601 107.393 371.967 107.291 371.15 107.291ZM386.632 110.579H385.489V99.2041H386.632V110.579ZM384.309 110.021H383.166V106.148H381.224V105.158H383.166V103.305H381.408C380.828 105.327 379.527 106.944 377.504 108.154L376.793 107.291C377.978 106.589 378.877 105.763 379.491 104.815C380.109 103.868 380.471 102.797 380.576 101.604H377.352V100.613H381.77C381.77 101.206 381.723 101.773 381.63 102.314H383.166V99.4961H384.309V110.021ZM391.907 101.223C391.907 101.684 392.019 102.124 392.244 102.543C392.468 102.958 392.787 103.326 393.202 103.647C393.621 103.965 394.112 104.206 394.675 104.371L394.104 105.323C393.452 105.129 392.887 104.832 392.409 104.435C391.935 104.037 391.571 103.565 391.317 103.019C391.063 103.607 390.688 104.117 390.193 104.549C389.702 104.98 389.123 105.302 388.454 105.514L387.845 104.574C388.42 104.396 388.922 104.138 389.349 103.8C389.781 103.461 390.111 103.07 390.339 102.625C390.572 102.181 390.688 101.714 390.688 101.223V101.21H388.213V100.207H394.383V101.21H391.907V101.223ZM391.907 107.202C393.016 107.151 393.985 107.067 394.814 106.948L394.903 107.824C394.154 107.96 393.374 108.061 392.561 108.129C391.749 108.192 390.993 108.233 390.295 108.25C389.597 108.262 388.788 108.269 387.87 108.269L387.692 107.266C388.979 107.266 389.982 107.257 390.701 107.24V105.044H391.907V107.202ZM398.458 104.866H396.706V110.579H395.5V99.2041H396.706V103.851H398.458V104.866ZM403.346 101.235H406.33V99.6865H407.523V104.65H402.166V99.6865H403.346V101.235ZM406.33 103.686V102.162H403.346V103.686H406.33ZM410.659 101.591H412.309V102.568H410.659V105.057H409.453V99.2041H410.659V101.591ZM410.659 108.421H404.514V109.5H411.052V110.465H403.334V107.532H409.465V106.504H403.308V105.552H410.659V108.421ZM415.21 107.113H420.58V105.691H421.761V110.439H414.017V105.691H415.21V107.113ZM420.58 109.449V108.053H415.21V109.449H420.58ZM421.786 100.562C421.786 101.159 421.769 101.694 421.736 102.168C421.702 102.638 421.619 103.178 421.488 103.787H423.107V104.765H412.697V103.787H420.307C420.43 103.203 420.508 102.678 420.542 102.213C420.576 101.743 420.593 101.235 420.593 100.689H414.004V99.6992H421.786V100.562Z" fill="#333333"/>
<circle cx="309" cy="48" r="7" fill="#BDBDBD"/>
<path d="M309.817 45.0796V51.5H308.758V46.3364L307.189 46.8682V45.9937L309.69 45.0796H309.817Z" fill="white"/>
<path d="M331.976 52.1572H321.566V51.1543H326.149V48.5264H322.759V43.1182H330.732V48.5264H327.342V51.1543H331.976V52.1572ZM323.927 47.5742H329.551V44.083H323.927V47.5742ZM342.317 53.5791H341.174V42.2041H342.317V53.5791ZM339.994 53.0205H338.851V49.1484H336.909V48.1582H338.851V46.3047H337.093C336.513 48.3275 335.212 49.944 333.189 51.1543L332.478 50.291C333.663 49.5885 334.562 48.7633 335.176 47.8154C335.794 46.8675 336.155 45.7969 336.261 44.6035H333.037V43.6133H337.455C337.455 44.2057 337.408 44.7728 337.315 45.3145H338.851V42.4961H339.994V53.0205ZM347.592 44.2227C347.592 44.6839 347.704 45.124 347.928 45.543C348.153 45.9577 348.472 46.3258 348.887 46.6475C349.306 46.9648 349.797 47.2061 350.36 47.3711L349.788 48.3232C349.137 48.1286 348.572 47.8324 348.093 47.4346C347.619 47.0368 347.256 46.5649 347.002 46.019C346.748 46.6073 346.373 47.1172 345.878 47.5488C345.387 47.9805 344.807 48.3021 344.139 48.5137L343.529 47.5742C344.105 47.3965 344.606 47.1383 345.034 46.7998C345.466 46.4613 345.796 46.0698 346.024 45.6255C346.257 45.1812 346.373 44.7135 346.373 44.2227V44.21H343.898V43.207H350.068V44.21H347.592V44.2227ZM347.592 50.2021C348.701 50.1514 349.67 50.0667 350.499 49.9482L350.588 50.8242C349.839 50.9596 349.058 51.0612 348.246 51.1289C347.433 51.1924 346.678 51.2326 345.98 51.2495C345.281 51.2622 344.473 51.2686 343.555 51.2686L343.377 50.2656C344.664 50.2656 345.667 50.2572 346.386 50.2402V48.0439H347.592V50.2021ZM354.143 47.8662H352.391V53.5791H351.185V42.2041H352.391V46.8506H354.143V47.8662ZM356.117 44.2354H359.101V42.6865H360.294V47.6504H354.936V42.6865H356.117V44.2354ZM359.101 46.6855V45.1621H356.117V46.6855H359.101ZM363.43 44.5908H365.08V45.5684H363.43V48.0566H362.224V42.2041H363.43V44.5908ZM363.43 51.4209H357.285V52.5H363.823V53.4648H356.104V50.5322H362.236V49.5039H356.079V48.5518H363.43V51.4209ZM367.981 50.1133H373.351V48.6914H374.532V53.4395H366.788V48.6914H367.981V50.1133ZM373.351 52.4492V51.0527H367.981V52.4492H373.351ZM374.557 43.5625C374.557 44.1592 374.54 44.6945 374.507 45.1685C374.473 45.6382 374.39 46.1777 374.259 46.7871H375.878V47.7646H365.467V46.7871H373.078C373.201 46.2031 373.279 45.6784 373.313 45.2129C373.347 44.7432 373.364 44.2354 373.364 43.6895H366.775V42.6992H374.557V43.5625ZM385.362 47.5996H379.953V42.9277H385.362V47.5996ZM381.134 46.6602H384.168V43.8926H381.134V46.6602ZM388.777 48.7041H387.583V42.2041H388.777V48.7041ZM389.043 50.3545H385.717C385.742 50.6846 385.922 51.0104 386.257 51.332C386.591 51.6494 387.037 51.9245 387.596 52.1572C388.159 52.3857 388.777 52.5381 389.449 52.6143L389.043 53.541C388.163 53.4395 387.374 53.2109 386.676 52.8555C385.977 52.5 385.453 52.0684 385.101 51.5605C384.754 52.0684 384.227 52.4979 383.521 52.8491C382.818 53.2004 382.018 53.431 381.121 53.541L380.702 52.6143C381.375 52.5508 381.995 52.4048 382.562 52.1763C383.129 51.9478 383.582 51.6727 383.921 51.3511C384.263 51.0252 384.447 50.693 384.473 50.3545H381.159V49.4404H384.498V48.374H385.692V49.4404H389.043V50.3545ZM402.107 46.7363H403.872V47.7393H402.107V53.5664H400.901V42.2041H402.107V46.7363ZM399.136 43.3975C399.128 45.1325 398.707 46.6898 397.873 48.0693C397.04 49.4489 395.726 50.583 393.931 51.4717L393.259 50.5322C394.68 49.8213 395.779 48.9538 396.553 47.9297C397.332 46.9056 397.782 45.7292 397.905 44.4004H393.83V43.3975H399.136ZM408.144 44.0195C408.144 44.5189 408.254 44.9971 408.474 45.4541C408.698 45.9111 409.016 46.3153 409.426 46.6665C409.841 47.0135 410.328 47.278 410.886 47.46L410.239 48.4121C409.625 48.1963 409.088 47.8768 408.626 47.4536C408.169 47.0262 407.816 46.529 407.566 45.9619C407.317 46.6094 406.953 47.1722 406.475 47.6504C406.001 48.1243 405.436 48.484 404.78 48.7295L404.132 47.7646C404.716 47.5573 405.218 47.2611 405.637 46.876C406.06 46.4867 406.384 46.0381 406.608 45.5303C406.832 45.0225 406.946 44.485 406.951 43.918V42.8008H408.144V44.0195ZM413.159 45.0605H414.809V46.0762H413.159V49.0723H411.953V42.2041H413.159V45.0605ZM409.49 49.3389C410.264 49.3389 410.935 49.4235 411.502 49.5928C412.069 49.7578 412.503 49.999 412.803 50.3164C413.108 50.6296 413.26 51.0062 413.26 51.4463C413.26 51.8906 413.108 52.2715 412.803 52.5889C412.503 52.9062 412.069 53.1475 411.502 53.3125C410.935 53.4775 410.264 53.5579 409.49 53.5537C408.707 53.5579 408.028 53.4775 407.452 53.3125C406.877 53.1475 406.434 52.9062 406.126 52.5889C405.821 52.2715 405.668 51.8906 405.668 51.4463C405.668 51.0062 405.821 50.6296 406.126 50.3164C406.434 49.999 406.877 49.7578 407.452 49.5928C408.028 49.4235 408.707 49.3389 409.49 49.3389ZM409.49 50.291C408.944 50.291 408.474 50.3376 408.081 50.4307C407.687 50.5195 407.387 50.6507 407.179 50.8242C406.972 50.9977 406.87 51.2051 406.875 51.4463C406.87 51.8187 407.097 52.1043 407.554 52.3032C408.011 52.5021 408.656 52.6058 409.49 52.6143C410.315 52.6058 410.952 52.5021 411.4 52.3032C411.853 52.1043 412.08 51.8187 412.08 51.4463C412.08 51.0824 411.851 50.7988 411.394 50.5957C410.941 50.3926 410.307 50.291 409.49 50.291ZM424.972 53.5791H423.829V42.2041H424.972V53.5791ZM422.649 53.0205H421.506V49.1484H419.564V48.1582H421.506V46.3047H419.748C419.168 48.3275 417.867 49.944 415.844 51.1543L415.133 50.291C416.318 49.5885 417.217 48.7633 417.831 47.8154C418.449 46.8675 418.81 45.7969 418.916 44.6035H415.692V43.6133H420.11C420.11 44.2057 420.063 44.7728 419.97 45.3145H421.506V42.4961H422.649V53.0205ZM430.247 44.2227C430.247 44.6839 430.359 45.124 430.584 45.543C430.808 45.9577 431.127 46.3258 431.542 46.6475C431.961 46.9648 432.452 47.2061 433.015 47.3711L432.443 48.3232C431.792 48.1286 431.227 47.8324 430.749 47.4346C430.275 47.0368 429.911 46.5649 429.657 46.019C429.403 46.6073 429.028 47.1172 428.533 47.5488C428.042 47.9805 427.463 48.3021 426.794 48.5137L426.185 47.5742C426.76 47.3965 427.262 47.1383 427.689 46.7998C428.121 46.4613 428.451 46.0698 428.679 45.6255C428.912 45.1812 429.028 44.7135 429.028 44.2227V44.21H426.553V43.207H432.723V44.21H430.247V44.2227ZM430.247 50.2021C431.356 50.1514 432.325 50.0667 433.154 49.9482L433.243 50.8242C432.494 50.9596 431.713 51.0612 430.901 51.1289C430.088 51.1924 429.333 51.2326 428.635 51.2495C427.937 51.2622 427.128 51.2686 426.21 51.2686L426.032 50.2656C427.319 50.2656 428.322 50.2572 429.041 50.2402V48.0439H430.247V50.2021ZM436.798 47.8662H435.046V53.5791H433.84V42.2041H435.046V46.8506H436.798V47.8662ZM449.494 50.5449H448.288V42.2168H449.494V50.5449ZM449.836 53.3379H442.054V49.7578H443.273V52.3604H449.836V53.3379ZM444.2 43.9688C444.196 44.5231 444.306 45.0521 444.53 45.5557C444.758 46.0592 445.084 46.5036 445.507 46.8887C445.931 47.2738 446.43 47.5658 447.005 47.7646L446.383 48.7295C445.732 48.4883 445.167 48.137 444.689 47.6758C444.215 47.2103 443.849 46.6644 443.59 46.0381C443.336 46.7067 442.966 47.2928 442.48 47.7964C441.997 48.3 441.428 48.6787 440.772 48.9326L440.125 47.9805C440.709 47.7646 441.214 47.4515 441.642 47.041C442.073 46.6305 442.401 46.1587 442.626 45.6255C442.854 45.0923 442.968 44.54 442.968 43.9688V42.8389H444.2V43.9688ZM455.023 44.6289C455.023 45.0732 455.139 45.5007 455.372 45.9111C455.605 46.3216 455.935 46.6834 456.362 46.9966C456.79 47.3097 457.287 47.5446 457.854 47.7012L457.283 48.6406C456.631 48.4544 456.062 48.1688 455.575 47.7837C455.088 47.3944 454.714 46.9352 454.451 46.4062C454.202 47.0029 453.832 47.5213 453.341 47.9614C452.854 48.3973 452.276 48.721 451.608 48.9326L451.036 48.0059C451.603 47.8239 452.096 47.5615 452.515 47.2188C452.939 46.8717 453.262 46.4761 453.487 46.0317C453.715 45.5832 453.829 45.1156 453.829 44.6289V44.4893H451.354V43.5244H453.829V42.1533H455.035V43.5244H457.498V44.4893H455.023V44.6289ZM460.52 49.0977H459.314V46.3809H457.143V45.3906H459.314V42.2041H460.52V49.0977ZM456.711 49.3516C457.503 49.3516 458.186 49.4341 458.762 49.5991C459.341 49.7642 459.786 50.0033 460.095 50.3164C460.403 50.6296 460.558 51.0062 460.558 51.4463C460.558 51.8906 460.401 52.2715 460.088 52.5889C459.779 52.9062 459.335 53.1475 458.755 53.3125C458.18 53.4775 457.498 53.5579 456.711 53.5537C455.92 53.5579 455.234 53.4775 454.655 53.3125C454.075 53.1475 453.631 52.9062 453.322 52.5889C453.013 52.2715 452.86 51.8906 452.865 51.4463C452.86 51.0062 453.013 50.6296 453.322 50.3164C453.631 50.0033 454.073 49.7642 454.648 49.5991C455.228 49.4341 455.916 49.3516 456.711 49.3516ZM456.711 50.291C455.878 50.291 455.226 50.3926 454.756 50.5957C454.291 50.7946 454.058 51.0781 454.058 51.4463C454.058 51.6917 454.164 51.9033 454.375 52.0811C454.587 52.2546 454.892 52.39 455.289 52.4873C455.687 52.5804 456.161 52.627 456.711 52.627C457.266 52.627 457.742 52.5804 458.139 52.4873C458.537 52.39 458.84 52.2546 459.047 52.0811C459.259 51.9033 459.365 51.6917 459.365 51.4463C459.365 51.0781 459.132 50.7946 458.666 50.5957C458.201 50.3926 457.549 50.291 456.711 50.291Z" fill="#333333"/>
<circle cx="202" cy="230" r="7" fill="#BDBDBD"/>
<path d="M203.933 231.219V232.063H199.319L199.284 231.426L202.043 227.102H202.892L201.973 228.675L200.387 231.219H203.933ZM203.133 227.102V233.5H202.074V227.102H203.133Z" fill="white"/>
<path d="M223.78 228.736H225.544V229.739H223.78V235.566H222.574V224.204H223.78V228.736ZM220.809 225.397C220.8 227.132 220.379 228.69 219.546 230.069C218.712 231.449 217.398 232.583 215.604 233.472L214.931 232.532C216.353 231.821 217.451 230.954 218.225 229.93C219.004 228.906 219.455 227.729 219.577 226.4H215.502V225.397H220.809ZM229.817 226.02C229.817 226.519 229.927 226.997 230.147 227.454C230.371 227.911 230.688 228.315 231.099 228.667C231.513 229.014 232 229.278 232.559 229.46L231.911 230.412C231.298 230.196 230.76 229.877 230.299 229.454C229.842 229.026 229.489 228.529 229.239 227.962C228.989 228.609 228.625 229.172 228.147 229.65C227.673 230.124 227.108 230.484 226.452 230.729L225.805 229.765C226.389 229.557 226.89 229.261 227.309 228.876C227.732 228.487 228.056 228.038 228.28 227.53C228.505 227.022 228.619 226.485 228.623 225.918V224.801H229.817V226.02ZM234.831 227.061H236.482V228.076H234.831V231.072H233.625V224.204H234.831V227.061ZM231.162 231.339C231.937 231.339 232.607 231.424 233.174 231.593C233.741 231.758 234.175 231.999 234.476 232.316C234.78 232.63 234.933 233.006 234.933 233.446C234.933 233.891 234.78 234.271 234.476 234.589C234.175 234.906 233.741 235.147 233.174 235.312C232.607 235.478 231.937 235.558 231.162 235.554C230.379 235.558 229.7 235.478 229.125 235.312C228.549 235.147 228.107 234.906 227.798 234.589C227.493 234.271 227.341 233.891 227.341 233.446C227.341 233.006 227.493 232.63 227.798 232.316C228.107 231.999 228.549 231.758 229.125 231.593C229.7 231.424 230.379 231.339 231.162 231.339ZM231.162 232.291C230.616 232.291 230.147 232.338 229.753 232.431C229.359 232.52 229.059 232.651 228.852 232.824C228.644 232.998 228.543 233.205 228.547 233.446C228.543 233.819 228.769 234.104 229.226 234.303C229.683 234.502 230.329 234.606 231.162 234.614C231.987 234.606 232.624 234.502 233.073 234.303C233.526 234.104 233.752 233.819 233.752 233.446C233.752 233.082 233.524 232.799 233.067 232.596C232.614 232.393 231.979 232.291 231.162 232.291ZM246.644 235.579H245.502V224.204H246.644V235.579ZM244.321 235.021H243.179V231.148H241.236V230.158H243.179V228.305H241.42C240.841 230.327 239.539 231.944 237.516 233.154L236.806 232.291C237.99 231.589 238.89 230.763 239.503 229.815C240.121 228.868 240.483 227.797 240.589 226.604H237.364V225.613H241.782C241.782 226.206 241.736 226.773 241.642 227.314H243.179V224.496H244.321V235.021ZM251.92 226.223C251.92 226.684 252.032 227.124 252.256 227.543C252.48 227.958 252.8 228.326 253.214 228.647C253.633 228.965 254.124 229.206 254.687 229.371L254.116 230.323C253.464 230.129 252.899 229.832 252.421 229.435C251.947 229.037 251.583 228.565 251.329 228.019C251.075 228.607 250.701 229.117 250.206 229.549C249.715 229.98 249.135 230.302 248.466 230.514L247.857 229.574C248.433 229.396 248.934 229.138 249.361 228.8C249.793 228.461 250.123 228.07 250.352 227.625C250.584 227.181 250.701 226.714 250.701 226.223V226.21H248.225V225.207H254.395V226.21H251.92V226.223ZM251.92 232.202C253.028 232.151 253.997 232.067 254.827 231.948L254.916 232.824C254.167 232.96 253.386 233.061 252.573 233.129C251.761 233.192 251.005 233.233 250.307 233.25C249.609 233.262 248.801 233.269 247.882 233.269L247.705 232.266C248.991 232.266 249.994 232.257 250.713 232.24V230.044H251.92V232.202ZM258.47 229.866H256.718V235.579H255.512V224.204H256.718V228.851H258.47V229.866ZM268.608 235.579H267.453V224.204H268.608V235.579ZM266.297 235.021H265.142V229.536H263.86C263.826 230.272 263.703 230.911 263.492 231.453C263.28 231.995 262.994 232.412 262.635 232.704C262.275 232.991 261.862 233.133 261.397 233.129C260.906 233.133 260.474 232.972 260.102 232.646C259.734 232.321 259.448 231.855 259.245 231.25C259.046 230.641 258.947 229.93 258.947 229.117C258.947 228.305 259.046 227.596 259.245 226.991C259.448 226.386 259.734 225.922 260.102 225.601C260.474 225.275 260.906 225.114 261.397 225.118C261.854 225.114 262.26 225.251 262.616 225.531C262.971 225.806 263.255 226.204 263.466 226.724C263.682 227.24 263.811 227.852 263.853 228.559H265.142V224.42H266.297V235.021ZM261.397 226.248C261.122 226.248 260.885 226.362 260.686 226.591C260.487 226.815 260.333 227.143 260.223 227.575C260.117 228.002 260.064 228.516 260.064 229.117C260.064 229.718 260.117 230.234 260.223 230.666C260.333 231.093 260.487 231.421 260.686 231.65C260.885 231.874 261.122 231.986 261.397 231.986C261.676 231.986 261.917 231.874 262.12 231.65C262.324 231.421 262.48 231.093 262.59 230.666C262.7 230.234 262.755 229.718 262.755 229.117C262.755 228.516 262.7 228.002 262.59 227.575C262.48 227.143 262.324 226.815 262.12 226.591C261.917 226.362 261.676 226.248 261.397 226.248ZM282.142 230.311H280.935V224.204H282.142V230.311ZM275.883 232.139H280.948V230.856H282.142V235.439H274.702V230.856H275.883V232.139ZM280.948 234.449V233.091H275.883V234.449H280.948ZM275.972 224.725C276.547 224.725 277.063 224.837 277.52 225.061C277.982 225.285 278.341 225.598 278.6 226C278.862 226.398 278.993 226.853 278.993 227.365C278.993 227.877 278.862 228.334 278.6 228.736C278.341 229.134 277.982 229.445 277.52 229.669C277.063 229.889 276.547 229.997 275.972 229.993C275.396 229.997 274.878 229.889 274.416 229.669C273.955 229.445 273.593 229.134 273.331 228.736C273.069 228.334 272.937 227.877 272.937 227.365C272.937 226.853 273.069 226.398 273.331 226C273.593 225.598 273.955 225.285 274.416 225.061C274.878 224.837 275.396 224.725 275.972 224.725ZM275.972 225.74C275.616 225.736 275.297 225.804 275.013 225.943C274.734 226.079 274.514 226.271 274.353 226.521C274.196 226.766 274.118 227.048 274.118 227.365C274.118 227.687 274.196 227.972 274.353 228.222C274.514 228.468 274.734 228.66 275.013 228.8C275.297 228.935 275.616 229.003 275.972 229.003C276.323 229.003 276.638 228.935 276.917 228.8C277.197 228.66 277.415 228.468 277.571 228.222C277.732 227.972 277.812 227.687 277.812 227.365C277.812 227.048 277.732 226.766 277.571 226.521C277.415 226.271 277.197 226.079 276.917 225.943C276.638 225.804 276.323 225.736 275.972 225.74ZM286.198 232.113H291.568V230.691H292.749V235.439H285.005V230.691H286.198V232.113ZM291.568 234.449V233.053H286.198V234.449H291.568ZM292.774 225.562C292.774 226.159 292.757 226.694 292.723 227.168C292.689 227.638 292.607 228.178 292.476 228.787H294.094V229.765H283.684V228.787H291.295C291.418 228.203 291.496 227.678 291.53 227.213C291.564 226.743 291.581 226.235 291.581 225.689H284.992V224.699H292.774V225.562Z" fill="#333333"/>
<circle cx="471" cy="230" r="7" fill="#BDBDBD"/>
<path d="M470.077 229.413H470.78C471.054 229.413 471.28 229.366 471.459 229.271C471.641 229.177 471.776 229.047 471.864 228.881C471.952 228.715 471.996 228.524 471.996 228.31C471.996 228.085 471.955 227.893 471.874 227.733C471.796 227.571 471.675 227.445 471.513 227.357C471.353 227.27 471.15 227.226 470.902 227.226C470.694 227.226 470.505 227.268 470.336 227.353C470.17 227.434 470.038 227.551 469.94 227.704C469.843 227.854 469.794 228.033 469.794 228.241H468.612C468.612 227.864 468.712 227.528 468.91 227.235C469.109 226.942 469.379 226.713 469.721 226.547C470.066 226.378 470.453 226.293 470.883 226.293C471.342 226.293 471.742 226.369 472.084 226.522C472.429 226.672 472.698 226.897 472.89 227.196C473.082 227.496 473.178 227.867 473.178 228.31C473.178 228.511 473.131 228.716 473.036 228.925C472.942 229.133 472.802 229.324 472.616 229.496C472.431 229.665 472.2 229.804 471.923 229.911C471.646 230.015 471.326 230.067 470.961 230.067H470.077V229.413ZM470.077 230.331V229.687H470.961C471.378 229.687 471.732 229.735 472.025 229.833C472.322 229.931 472.562 230.066 472.748 230.238C472.934 230.408 473.069 230.601 473.153 230.819C473.241 231.037 473.285 231.269 473.285 231.513C473.285 231.845 473.225 232.141 473.104 232.401C472.987 232.659 472.82 232.877 472.602 233.056C472.383 233.235 472.128 233.37 471.835 233.461C471.545 233.552 471.229 233.598 470.888 233.598C470.582 233.598 470.289 233.555 470.009 233.471C469.729 233.386 469.478 233.261 469.257 233.095C469.035 232.925 468.86 232.715 468.729 232.465C468.603 232.211 468.539 231.918 468.539 231.586H469.716C469.716 231.798 469.765 231.985 469.862 232.147C469.963 232.307 470.103 232.432 470.282 232.523C470.465 232.615 470.673 232.66 470.907 232.66C471.155 232.66 471.368 232.616 471.547 232.528C471.726 232.44 471.863 232.31 471.957 232.138C472.055 231.965 472.104 231.757 472.104 231.513C472.104 231.236 472.05 231.011 471.942 230.839C471.835 230.666 471.682 230.539 471.483 230.458C471.285 230.373 471.05 230.331 470.78 230.331H470.077Z" fill="white"/>
<path d="M492.767 228.736H494.532V229.739H492.767V235.566H491.561V224.204H492.767V228.736ZM489.797 225.397C489.788 227.132 489.367 228.69 488.533 230.069C487.7 231.449 486.386 232.583 484.592 233.472L483.919 232.532C485.341 231.821 486.439 230.954 487.213 229.93C487.992 228.906 488.442 227.729 488.565 226.4H484.49V225.397H489.797ZM498.804 226.02C498.804 226.519 498.914 226.997 499.134 227.454C499.359 227.911 499.676 228.315 500.086 228.667C500.501 229.014 500.988 229.278 501.546 229.46L500.899 230.412C500.285 230.196 499.748 229.877 499.287 229.454C498.83 229.026 498.476 228.529 498.227 227.962C497.977 228.609 497.613 229.172 497.135 229.65C496.661 230.124 496.096 230.484 495.44 230.729L494.792 229.765C495.376 229.557 495.878 229.261 496.297 228.876C496.72 228.487 497.044 228.038 497.268 227.53C497.492 227.022 497.607 226.485 497.611 225.918V224.801H498.804V226.02ZM503.819 227.061H505.469V228.076H503.819V231.072H502.613V224.204H503.819V227.061ZM500.15 231.339C500.924 231.339 501.595 231.424 502.162 231.593C502.729 231.758 503.163 231.999 503.463 232.316C503.768 232.63 503.92 233.006 503.92 233.446C503.92 233.891 503.768 234.271 503.463 234.589C503.163 234.906 502.729 235.147 502.162 235.312C501.595 235.478 500.924 235.558 500.15 235.554C499.367 235.558 498.688 235.478 498.112 235.312C497.537 235.147 497.095 234.906 496.786 234.589C496.481 234.271 496.329 233.891 496.329 233.446C496.329 233.006 496.481 232.63 496.786 232.316C497.095 231.999 497.537 231.758 498.112 231.593C498.688 231.424 499.367 231.339 500.15 231.339ZM500.15 232.291C499.604 232.291 499.134 232.338 498.741 232.431C498.347 232.52 498.047 232.651 497.839 232.824C497.632 232.998 497.53 233.205 497.535 233.446C497.53 233.819 497.757 234.104 498.214 234.303C498.671 234.502 499.316 234.606 500.15 234.614C500.975 234.606 501.612 234.502 502.061 234.303C502.513 234.104 502.74 233.819 502.74 233.446C502.74 233.082 502.511 232.799 502.054 232.596C501.601 232.393 500.967 232.291 500.15 232.291ZM515.632 235.579H514.489V224.204H515.632V235.579ZM513.309 235.021H512.166V231.148H510.224V230.158H512.166V228.305H510.408C509.828 230.327 508.527 231.944 506.504 233.154L505.793 232.291C506.978 231.589 507.877 230.763 508.491 229.815C509.109 228.868 509.471 227.797 509.576 226.604H506.352V225.613H510.77C510.77 226.206 510.723 226.773 510.63 227.314H512.166V224.496H513.309V235.021ZM520.907 226.223C520.907 226.684 521.019 227.124 521.244 227.543C521.468 227.958 521.787 228.326 522.202 228.647C522.621 228.965 523.112 229.206 523.675 229.371L523.104 230.323C522.452 230.129 521.887 229.832 521.409 229.435C520.935 229.037 520.571 228.565 520.317 228.019C520.063 228.607 519.688 229.117 519.193 229.549C518.702 229.98 518.123 230.302 517.454 230.514L516.845 229.574C517.42 229.396 517.922 229.138 518.349 228.8C518.781 228.461 519.111 228.07 519.339 227.625C519.572 227.181 519.688 226.714 519.688 226.223V226.21H517.213V225.207H523.383V226.21H520.907V226.223ZM520.907 232.202C522.016 232.151 522.985 232.067 523.814 231.948L523.903 232.824C523.154 232.96 522.374 233.061 521.561 233.129C520.749 233.192 519.993 233.233 519.295 233.25C518.597 233.262 517.788 233.269 516.87 233.269L516.692 232.266C517.979 232.266 518.982 232.257 519.701 232.24V230.044H520.907V232.202ZM527.458 229.866H525.706V235.579H524.5V224.204H525.706V228.851H527.458V229.866ZM541.119 231.847H536.472V235.579H535.292V231.847H530.709V230.895H541.119V231.847ZM533.197 226.146H538.605V224.661H539.811V229.6H532.003V224.661H533.197V226.146ZM538.605 228.635V227.111H533.197V228.635H538.605ZM544.782 225.055C545.298 225.055 545.761 225.196 546.172 225.48C546.586 225.764 546.921 226.163 547.175 226.68H549.987V224.204H551.18V235.604H549.987V231.237H547.251C547.01 231.809 546.673 232.253 546.241 232.57C545.814 232.883 545.327 233.04 544.782 233.04C544.214 233.04 543.713 232.877 543.277 232.551C542.841 232.221 542.501 231.756 542.255 231.155C542.014 230.55 541.895 229.845 541.9 229.041C541.895 228.241 542.014 227.541 542.255 226.94C542.501 226.335 542.841 225.869 543.277 225.543C543.717 225.218 544.219 225.055 544.782 225.055ZM544.782 226.134C544.439 226.134 544.136 226.252 543.874 226.489C543.611 226.726 543.406 227.065 543.258 227.505C543.114 227.941 543.042 228.453 543.042 229.041C543.042 229.633 543.114 230.15 543.258 230.59C543.406 231.03 543.611 231.368 543.874 231.605C544.136 231.842 544.439 231.961 544.782 231.961C545.124 231.961 545.427 231.842 545.689 231.605C545.952 231.368 546.155 231.03 546.299 230.59C546.447 230.15 546.521 229.633 546.521 229.041C546.521 228.453 546.447 227.941 546.299 227.505C546.155 227.065 545.952 226.726 545.689 226.489C545.427 226.252 545.124 226.134 544.782 226.134ZM547.517 227.67C547.615 228.127 547.663 228.584 547.663 229.041C547.663 229.468 547.625 229.87 547.549 230.247H549.987V227.67H547.517Z" fill="#333333"/>
<circle cx="342" cy="133" r="7" fill="#BDBDBD"/>
<path d="M341.038 133.525L340.194 133.318L340.541 130.102H343.991V130.998H341.42L341.244 132.567C341.344 132.508 341.481 132.451 341.657 132.396C341.833 132.337 342.034 132.308 342.259 132.308C342.561 132.308 342.831 132.357 343.068 132.457C343.308 132.554 343.512 132.696 343.679 132.883C343.846 133.068 343.973 133.293 344.061 133.56C344.149 133.824 344.193 134.121 344.193 134.452C344.193 134.748 344.149 135.025 344.061 135.283C343.976 135.541 343.847 135.768 343.674 135.964C343.501 136.16 343.283 136.314 343.02 136.425C342.759 136.534 342.45 136.588 342.092 136.588C341.826 136.588 341.569 136.55 341.323 136.474C341.08 136.395 340.862 136.279 340.668 136.126C340.475 135.971 340.32 135.781 340.203 135.555C340.085 135.327 340.018 135.064 340 134.769H341.038C341.064 134.977 341.121 135.154 341.209 135.3C341.3 135.444 341.42 135.554 341.569 135.63C341.719 135.706 341.892 135.744 342.088 135.744C342.267 135.744 342.42 135.713 342.549 135.652C342.678 135.587 342.785 135.497 342.87 135.379C342.958 135.259 343.022 135.119 343.063 134.958C343.107 134.796 343.129 134.618 343.129 134.421C343.129 134.234 343.104 134.062 343.055 133.907C343.008 133.752 342.936 133.617 342.839 133.503C342.746 133.389 342.627 133.301 342.483 133.239C342.34 133.175 342.174 133.143 341.987 133.143C341.735 133.143 341.542 133.179 341.407 133.252C341.275 133.326 341.152 133.417 341.038 133.525Z" fill="white"/>
<path d="M365.316 137.157H354.906V136.154H359.489V133.526H356.099V128.118H364.072V133.526H360.682V136.154H365.316V137.157ZM357.267 132.574H362.891V129.083H357.267V132.574ZM375.657 138.579H374.514V127.204H375.657V138.579ZM373.333 138.021H372.191V134.148H370.249V133.158H372.191V131.305H370.433C369.853 133.327 368.552 134.944 366.529 136.154L365.818 135.291C367.003 134.589 367.902 133.763 368.516 132.815C369.133 131.868 369.495 130.797 369.601 129.604H366.376V128.613H370.794C370.794 129.206 370.748 129.773 370.655 130.314H372.191V127.496H373.333V138.021ZM380.932 129.223C380.932 129.684 381.044 130.124 381.268 130.543C381.493 130.958 381.812 131.326 382.227 131.647C382.646 131.965 383.137 132.206 383.699 132.371L383.128 133.323C382.476 133.129 381.912 132.832 381.433 132.435C380.959 132.037 380.595 131.565 380.342 131.019C380.088 131.607 379.713 132.117 379.218 132.549C378.727 132.98 378.147 133.302 377.479 133.514L376.869 132.574C377.445 132.396 377.946 132.138 378.374 131.8C378.805 131.461 379.135 131.07 379.364 130.625C379.597 130.181 379.713 129.714 379.713 129.223V129.21H377.238V128.207H383.407V129.21H380.932V129.223ZM380.932 135.202C382.041 135.151 383.01 135.067 383.839 134.948L383.928 135.824C383.179 135.96 382.398 136.061 381.586 136.129C380.773 136.192 380.018 136.233 379.32 136.25C378.621 136.262 377.813 136.269 376.895 136.269L376.717 135.266C378.003 135.266 379.006 135.257 379.726 135.24V133.044H380.932V135.202ZM387.483 132.866H385.731V138.579H384.525V127.204H385.731V131.851H387.483V132.866ZM397.62 138.579H396.465V127.204H397.62V138.579ZM395.31 138.021H394.154V132.536H392.872C392.838 133.272 392.715 133.911 392.504 134.453C392.292 134.995 392.007 135.412 391.647 135.704C391.287 135.991 390.875 136.133 390.409 136.129C389.918 136.133 389.487 135.972 389.114 135.646C388.746 135.321 388.46 134.855 388.257 134.25C388.058 133.641 387.959 132.93 387.959 132.117C387.959 131.305 388.058 130.596 388.257 129.991C388.46 129.386 388.746 128.922 389.114 128.601C389.487 128.275 389.918 128.114 390.409 128.118C390.866 128.114 391.272 128.251 391.628 128.531C391.983 128.806 392.267 129.204 392.479 129.724C392.694 130.24 392.823 130.852 392.866 131.559H394.154V127.42H395.31V138.021ZM390.409 129.248C390.134 129.248 389.897 129.362 389.698 129.591C389.499 129.815 389.345 130.143 389.235 130.575C389.129 131.002 389.076 131.516 389.076 132.117C389.076 132.718 389.129 133.234 389.235 133.666C389.345 134.093 389.499 134.421 389.698 134.65C389.897 134.874 390.134 134.986 390.409 134.986C390.688 134.986 390.93 134.874 391.133 134.65C391.336 134.421 391.493 134.093 391.603 133.666C391.713 133.234 391.768 132.718 391.768 132.117C391.768 131.516 391.713 131.002 391.603 130.575C391.493 130.143 391.336 129.815 391.133 129.591C390.93 129.362 390.688 129.248 390.409 129.248ZM411.154 133.311H409.948V127.204H411.154V133.311ZM404.895 135.139H409.96V133.856H411.154V138.439H403.714V133.856H404.895V135.139ZM409.96 137.449V136.091H404.895V137.449H409.96ZM404.984 127.725C405.559 127.725 406.076 127.837 406.533 128.061C406.994 128.285 407.354 128.598 407.612 129C407.874 129.398 408.005 129.853 408.005 130.365C408.005 130.877 407.874 131.334 407.612 131.736C407.354 132.134 406.994 132.445 406.533 132.669C406.076 132.889 405.559 132.997 404.984 132.993C404.408 132.997 403.89 132.889 403.429 132.669C402.967 132.445 402.606 132.134 402.343 131.736C402.081 131.334 401.95 130.877 401.95 130.365C401.95 129.853 402.081 129.398 402.343 129C402.606 128.598 402.967 128.285 403.429 128.061C403.89 127.837 404.408 127.725 404.984 127.725ZM404.984 128.74C404.628 128.736 404.309 128.804 404.025 128.943C403.746 129.079 403.526 129.271 403.365 129.521C403.209 129.766 403.13 130.048 403.13 130.365C403.13 130.687 403.209 130.972 403.365 131.222C403.526 131.468 403.746 131.66 404.025 131.8C404.309 131.935 404.628 132.003 404.984 132.003C405.335 132.003 405.65 131.935 405.93 131.8C406.209 131.66 406.427 131.468 406.584 131.222C406.744 130.972 406.825 130.687 406.825 130.365C406.825 130.048 406.744 129.766 406.584 129.521C406.427 129.271 406.209 129.079 405.93 128.943C405.65 128.804 405.335 128.736 404.984 128.74ZM415.21 135.113H420.58V133.691H421.761V138.439H414.017V133.691H415.21V135.113ZM420.58 137.449V136.053H415.21V137.449H420.58ZM421.786 128.562C421.786 129.159 421.769 129.694 421.736 130.168C421.702 130.638 421.619 131.178 421.488 131.787H423.107V132.765H412.697V131.787H420.307C420.43 131.203 420.508 130.678 420.542 130.213C420.576 129.743 420.593 129.235 420.593 128.689H414.004V127.699H421.786V128.562Z" fill="#333333"/>
<circle cx="158" cy="117" r="47" fill="#009591"/>
<path d="M168.768 119.091V118.141H167.189V115.262H165.483V125.881H167.189V119.091H168.768Z" fill="white"/>
<path d="M163.696 123.199H160.761C159.827 123.199 159.069 122.447 159.069 121.523L159.061 115.746H160.753L160.749 121.523C160.749 121.92 161.072 122.241 161.475 122.241H164.185C165.294 122.263 165.859 121.206 165.859 121.206L165.925 121.998C165.232 123.279 163.698 123.199 163.698 123.199H163.696Z" fill="white"/>
<path d="M157.916 119.091V118.141H156.338V115.262H154.634V125.881H156.338V119.091H157.916Z" fill="white"/>
<path d="M151.413 115.008H149.709V116.002H147.389V116.951H153.738V116.002H151.413V115.008Z" fill="white"/>
<path d="M150.561 123.572C152.227 123.572 153.576 121.969 153.576 119.994C153.576 118.018 152.227 116.414 150.561 116.414C148.895 116.414 147.544 118.016 147.544 119.994C147.544 121.971 148.895 123.572 150.561 123.572ZM149.242 119.998C149.24 118.549 149.833 117.37 150.567 117.37C151.301 117.37 151.898 118.543 151.9 119.996C151.9 121.443 151.307 122.622 150.573 122.622C149.839 122.622 149.242 121.451 149.242 120V119.998Z" fill="white"/>
<path d="M170.343 124.193C170.343 125.119 171.103 125.867 172.039 125.867L177.78 125.871V124.911H172.751C172.352 124.911 172.025 124.59 172.025 124.193L172.031 121.088H170.339L170.343 124.193Z" fill="white"/>
<path d="M178.57 120.646H169.036V121.636H178.57V120.646Z" fill="white"/>
<path d="M173.839 121.168C175.503 121.168 176.854 119.791 176.854 118.091C176.854 116.39 175.503 115.016 173.839 115.016C172.175 115.016 170.824 116.394 170.824 118.091C170.824 119.787 172.173 121.168 173.839 121.168ZM172.572 118.105C172.564 116.933 173.155 115.979 173.887 115.975C174.624 115.971 175.224 116.917 175.23 118.089C175.238 119.258 174.647 120.214 173.913 120.218C173.179 120.222 172.578 119.276 172.572 118.105Z" fill="white"/>
<path d="M186.607 118.337V120.428H184.986V115.262H186.607V117.387L187.385 117.393V115.272H188.991V123.196L187.385 121.689V118.341L186.607 118.337Z" fill="white"/>
<path d="M182.648 115.008H180.942V116.002H179.248V116.951H184.33V116.002H182.648V115.008Z" fill="white"/>
<path d="M181.792 121.79C183.141 121.79 184.232 120.587 184.232 119.096C184.232 117.606 183.141 116.404 181.792 116.404C180.443 116.404 179.348 117.608 179.348 119.096C179.348 120.585 180.443 121.79 181.792 121.79ZM181.032 119.104C181.026 118.146 181.357 117.368 181.776 117.364C182.195 117.36 182.54 118.134 182.546 119.094C182.55 120.052 182.217 120.828 181.8 120.834C181.379 120.834 181.04 120.062 181.032 119.104Z" fill="white"/>
<path d="M182.966 123.149C182.966 124.849 184.315 126.224 185.981 126.224C187.647 126.224 188.996 124.849 188.996 123.149C188.996 121.449 187.645 120.072 185.981 120.072C184.317 120.072 182.966 121.449 182.966 123.149ZM184.676 123.119C184.676 121.946 185.267 120.994 185.999 120.992C186.733 120.992 187.332 121.938 187.334 123.111C187.338 124.283 186.745 125.232 186.013 125.236C185.277 125.24 184.68 124.291 184.676 123.121V123.119Z" fill="white"/>
<path fill-rule="evenodd" clip-rule="evenodd" d="M142.771 119.325C142.717 118.94 142.619 118.565 142.479 118.202C142.04 117.13 141.43 116.229 140.512 115.624C139.087 114.682 137.365 114.69 135.954 115.656C135.296 116.113 134.777 116.741 134.452 117.474C134.338 117.733 134.244 117.998 134.168 118.272C133.797 119.607 133.809 121.405 134.48 122.624C134.697 123.023 135.014 123.362 135.4 123.532C135.785 123.699 136.244 123.683 136.591 123.426C137.04 123.099 137.12 122.472 137.036 121.917C136.93 121.209 136.85 120.509 137.08 119.814C137.155 119.593 137.259 119.379 137.409 119.214C137.501 119.116 137.61 119.032 137.724 118.97C137.968 118.837 138.245 118.777 138.51 118.827C138.979 118.912 139.358 119.319 139.568 119.802C139.775 120.281 139.831 120.826 139.855 121.361C139.951 123.689 139.46 126.1 138.937 128.335C138.884 128.566 138.828 128.796 138.77 129.025C138.724 129.203 138.646 129.426 138.744 129.6C138.788 129.674 138.856 129.726 138.927 129.758C139.233 129.897 139.482 129.686 139.686 129.452C140.893 128.079 141.665 126.307 142.194 124.488C142.395 123.805 142.557 123.113 142.675 122.41C142.83 121.447 142.92 120.343 142.767 119.327M150.283 110.172C150.283 109.895 150.008 109.713 149.709 109.721C149.407 109.733 149.128 109.867 148.851 109.963C143.483 111.767 137.429 112.108 131.77 111.39C130.802 111.266 129.82 111.094 128.849 110.959C128.242 110.875 127.639 110.753 127.025 110.713C126.502 110.677 125.849 110.661 125.426 110.983C124.868 111.41 124.91 112.218 125.225 112.753C125.604 113.393 126.27 113.872 126.963 114.237C127.635 114.592 128.439 114.969 129.24 114.926C131.401 114.804 133.558 114.618 135.707 114.373C139.37 113.952 143.214 113.555 146.656 112.298C147.781 111.886 148.893 111.374 149.856 110.711C150.032 110.593 150.283 110.398 150.283 110.174M136.156 107.882C136.156 108.895 136.99 109.717 138.016 109.717C139.041 109.717 139.873 108.895 139.873 107.882C139.873 107.73 139.837 107.58 139.771 107.443C139.614 107.107 139.434 106.946 139.452 106.547C139.476 106.006 138.776 106 138.399 106C137.988 106 137.551 106.056 137.179 106.239C136.884 106.389 136.629 106.613 136.451 106.888C136.266 107.169 136.164 107.503 136.156 107.838V107.88" fill="white"/>
<g filter="url(#filter0_d_7064_7742)">
<circle cx="602" cy="117" r="48" fill="white"/>
<circle cx="602" cy="117" r="47.5" stroke="#E4E4E4"/>
</g>
<path d="M600.79 92.5956C602.716 92.6832 604.355 91.0597 604.45 88.9666C604.546 86.8656 603.066 85.0989 601.14 85.0034C599.214 84.9158 597.574 86.5393 597.479 88.6324C597.383 90.7254 598.864 92.5001 600.79 92.5877V92.5956Z" fill="#6DCFF6"/>
<path d="M615.13 98.5158C616.046 98.6511 616.929 97.7916 617.112 96.5819C617.295 95.3723 616.698 94.2899 615.791 94.1546C614.876 94.0193 613.992 94.8788 613.809 96.0885C613.626 97.2982 614.223 98.3805 615.13 98.5158Z" fill="#8DC63F"/>
<path d="M611.175 97.2285C611.191 97.2763 611.215 97.3161 611.231 97.3638C611.215 97.3161 611.199 97.2763 611.175 97.2285Z" fill="url(#paint0_linear_7064_7742)"/>
<path d="M611.301 97.5625C611.301 97.5625 611.317 97.6182 611.325 97.6421C611.317 97.6182 611.309 97.5864 611.301 97.5625Z" fill="url(#paint1_linear_7064_7742)"/>
<path d="M604.982 99.1451C604.998 98.962 605.022 98.787 605.054 98.6198C605.054 98.6198 605.054 98.6357 605.054 98.6437C604.791 99.9727 603.582 101.636 602.141 101.923C597.931 102.75 596.547 98.389 595.011 95.5002C594.581 94.6884 593.626 92.1577 590.856 92.0781C587.753 91.9905 584.506 94.9272 585.787 100.196C586.758 104.191 591.779 113.828 601.855 111.385C604.179 110.82 606.208 109.268 607.76 107.549C605.802 105.042 604.775 101.501 604.998 99.1451H604.982Z" fill="url(#paint2_linear_7064_7742)"/>
<path d="M611.532 98.7228C611.516 98.4682 611.477 98.2135 611.421 97.9668C611.477 98.2215 611.524 98.5 611.54 98.8104C611.54 98.7785 611.54 98.7547 611.54 98.7228H611.532Z" fill="url(#paint3_linear_7064_7742)"/>
<path d="M620.637 100.125C619.546 99.5681 618.846 100.507 618.361 101.701C617.525 103.746 615.583 104.852 614.198 104.335C613.243 103.985 612.639 103.03 612.209 102.003C611.691 100.77 611.636 100.149 611.54 98.8359C611.548 98.9871 611.556 99.1463 611.556 99.3134C611.556 100.237 611.015 102.139 610.553 103.261C610.052 104.47 609.073 106.07 607.744 107.542C609.097 109.277 610.904 110.519 613.044 110.519C617.732 110.519 620.032 106.022 621.186 102.823C621.838 101.009 621.385 100.499 620.637 100.117V100.125Z" fill="url(#paint4_linear_7064_7742)"/>
<path d="M611.143 97.1719C611.143 97.1719 611.158 97.2037 611.166 97.2276C611.158 97.2117 611.151 97.1878 611.143 97.1719Z" fill="url(#paint5_linear_7064_7742)"/>
<path d="M611.23 97.3613C611.254 97.425 611.286 97.4887 611.31 97.5603C611.286 97.4887 611.262 97.425 611.23 97.3613Z" fill="url(#paint6_linear_7064_7742)"/>
<path d="M611.556 99.3125C611.556 99.1454 611.556 98.9862 611.54 98.835C611.54 98.827 611.54 98.8191 611.54 98.8111C611.516 98.5087 611.477 98.2222 611.421 97.9675C611.421 97.9675 611.421 97.9675 611.421 97.9596C611.397 97.8481 611.365 97.7447 611.333 97.6412C611.325 97.6174 611.318 97.5855 611.31 97.5616C611.286 97.49 611.262 97.4264 611.23 97.3627C611.214 97.3149 611.198 97.2751 611.174 97.2274C611.166 97.2115 611.158 97.1876 611.15 97.1717C611.047 96.9568 610.928 96.7658 610.792 96.5828C610.752 96.535 610.721 96.4873 610.681 96.4475C610.195 95.8984 609.551 95.6278 608.898 95.5164C608.723 95.4925 608.548 95.4766 608.349 95.4766C608.309 95.4766 608.269 95.4766 608.23 95.4766C608.198 95.4766 608.174 95.4766 608.142 95.4766C608.063 95.4766 607.975 95.4925 607.895 95.5084C607.887 95.5084 607.88 95.5084 607.872 95.5084C607.816 95.5164 607.76 95.5323 607.704 95.5482C607.251 95.6596 606.765 95.8904 606.328 96.2804C606.328 96.2804 606.312 96.2963 606.304 96.2963C606.264 96.3361 606.216 96.3759 606.176 96.4236C606.129 96.4714 606.081 96.5191 606.033 96.5669C605.588 97.0682 605.245 97.7526 605.07 98.6201C605.038 98.7872 605.015 98.9623 604.999 99.1454C604.776 101.493 605.81 105.042 607.76 107.549C609.089 106.077 610.068 104.477 610.569 103.268C611.039 102.146 611.572 100.244 611.572 99.3204L611.556 99.3125Z" fill="#2DA44A"/>
<path d="M584.612 121.853H585.473V118.524H586.744V128.289H585.473V122.997H584.612V127.817H583.342V118.724H584.612V121.853ZM582.323 119.448V120.593H579.866V124.551H580.171C580.598 124.551 581.028 124.541 581.462 124.52C581.896 124.499 582.334 124.453 582.775 124.383L582.911 125.517C582.484 125.594 582.029 125.643 581.546 125.664C581.07 125.685 580.612 125.696 580.171 125.696H578.554V119.448H582.323ZM588.803 122.934H590.158V124.278H588.803V122.934ZM596.257 128.583C595.83 128.583 595.424 128.545 595.039 128.468C594.661 128.398 594.329 128.289 594.042 128.142C593.755 127.995 593.527 127.81 593.359 127.586C593.191 127.369 593.107 127.11 593.107 126.809V126.494C593.107 126.235 593.17 126.004 593.296 125.801C593.429 125.598 593.608 125.426 593.832 125.286C594.056 125.139 594.318 125.024 594.619 124.94C594.92 124.849 595.246 124.786 595.596 124.751V124.047H591.784V122.966H600.73V124.047H596.919V124.751C597.269 124.786 597.594 124.849 597.895 124.94C598.196 125.024 598.459 125.139 598.683 125.286C598.907 125.426 599.082 125.598 599.208 125.801C599.341 126.004 599.407 126.235 599.407 126.494V126.809C599.407 127.11 599.323 127.369 599.155 127.586C598.987 127.81 598.76 127.995 598.473 128.142C598.186 128.289 597.85 128.398 597.465 128.468C597.087 128.545 596.684 128.583 596.257 128.583ZM592.939 118.85H599.575V119.931H596.919V119.952C596.919 120.155 596.968 120.323 597.066 120.456C597.171 120.582 597.356 120.698 597.622 120.803C598.021 120.964 598.413 121.111 598.798 121.244C599.183 121.377 599.582 121.51 599.995 121.643L599.586 122.693C599.145 122.546 598.742 122.406 598.378 122.273C598.014 122.14 597.657 122.007 597.307 121.874C596.698 121.643 596.355 121.447 596.278 121.286H596.268C596.184 121.454 595.834 121.657 595.218 121.895C594.868 122.028 594.511 122.161 594.147 122.294C593.783 122.427 593.38 122.567 592.939 122.714L592.519 121.643C592.932 121.51 593.331 121.377 593.716 121.244C594.101 121.111 594.493 120.964 594.892 120.803C595.158 120.698 595.34 120.582 595.438 120.456C595.543 120.323 595.596 120.155 595.596 119.952V119.931H592.939V118.85ZM596.257 125.79C596.026 125.79 595.799 125.811 595.575 125.853C595.358 125.888 595.162 125.941 594.987 126.011C594.819 126.074 594.682 126.154 594.577 126.252C594.472 126.35 594.42 126.459 594.42 126.578V126.725C594.42 126.844 594.472 126.952 594.577 127.05C594.682 127.148 594.819 127.232 594.987 127.302C595.162 127.372 595.358 127.425 595.575 127.46C595.799 127.495 596.026 127.512 596.257 127.512C596.488 127.512 596.712 127.495 596.929 127.46C597.153 127.425 597.349 127.372 597.517 127.302C597.692 127.232 597.832 127.148 597.937 127.05C598.042 126.952 598.095 126.844 598.095 126.725V126.578C598.095 126.459 598.042 126.35 597.937 126.252C597.832 126.154 597.692 126.074 597.517 126.011C597.349 125.941 597.153 125.888 596.929 125.853C596.712 125.811 596.488 125.79 596.257 125.79ZM605.635 122.241C605.579 122.36 605.46 122.49 605.278 122.63C605.103 122.763 604.883 122.92 604.617 123.102C604.33 123.291 603.997 123.501 603.619 123.732C603.241 123.956 602.8 124.212 602.296 124.499L601.645 123.449C602.03 123.232 602.419 123.008 602.811 122.777C603.203 122.539 603.553 122.315 603.861 122.105C604.071 121.965 604.242 121.825 604.375 121.685C604.515 121.545 604.624 121.398 604.701 121.244C604.785 121.083 604.844 120.911 604.879 120.729C604.914 120.547 604.932 120.341 604.932 120.11V119.123H606.276V120.11C606.276 120.341 606.293 120.547 606.328 120.729C606.363 120.911 606.419 121.083 606.496 121.244C606.58 121.398 606.689 121.545 606.822 121.685C606.962 121.825 607.137 121.965 607.347 122.105C607.655 122.315 608.005 122.539 608.397 122.777C608.789 123.008 609.177 123.232 609.562 123.449L608.922 124.478C608.418 124.191 607.977 123.935 607.599 123.711C607.221 123.48 606.888 123.27 606.601 123.081C606.335 122.899 606.122 122.745 605.961 122.619C605.807 122.486 605.702 122.36 605.646 122.241H605.635ZM604.942 125.937V123.995H606.265V125.937H610.077V127.061H601.131V125.937H604.942ZM618.699 128.289H617.366V118.524H618.699V128.289ZM610.908 125.234C611.433 124.919 611.881 124.639 612.252 124.394C612.623 124.149 612.931 123.925 613.176 123.722C613.428 123.512 613.624 123.316 613.764 123.134C613.911 122.945 614.02 122.756 614.09 122.567C614.167 122.378 614.216 122.178 614.237 121.968C614.258 121.758 614.268 121.524 614.268 121.265V120.54H611.087V119.396H615.602V121.328C615.602 121.678 615.584 121.996 615.549 122.283C615.514 122.57 615.444 122.84 615.339 123.092C615.241 123.337 615.098 123.575 614.909 123.806C614.727 124.037 614.489 124.278 614.195 124.53C613.901 124.775 613.54 125.041 613.113 125.328C612.693 125.608 612.193 125.927 611.612 126.284L610.908 125.234ZM622.523 123.417C622.11 123.417 621.746 123.358 621.431 123.239C621.123 123.12 620.864 122.962 620.654 122.766C620.444 122.563 620.286 122.336 620.181 122.084C620.076 121.825 620.024 121.555 620.024 121.275V120.981C620.024 120.701 620.076 120.435 620.181 120.183C620.286 119.924 620.444 119.697 620.654 119.501C620.864 119.298 621.123 119.137 621.431 119.018C621.746 118.899 622.11 118.839 622.523 118.839C622.88 118.839 623.198 118.885 623.478 118.976C623.765 119.067 624.01 119.193 624.213 119.354C624.423 119.508 624.591 119.69 624.717 119.9C624.843 120.11 624.931 120.33 624.98 120.561H626.607V118.524H627.93V123.554H626.607V121.664H624.99C624.948 121.902 624.864 122.129 624.738 122.346C624.612 122.556 624.444 122.742 624.234 122.903C624.031 123.057 623.786 123.183 623.499 123.281C623.212 123.372 622.887 123.417 622.523 123.417ZM627.93 123.995V128.3H621.714V123.995H623.027V125.097H626.618V123.995H627.93ZM622.523 119.963C622.313 119.963 622.127 119.994 621.966 120.057C621.812 120.113 621.683 120.194 621.578 120.299C621.48 120.397 621.406 120.509 621.357 120.635C621.308 120.761 621.284 120.887 621.284 121.013V121.244C621.284 121.37 621.308 121.496 621.357 121.622C621.406 121.748 621.48 121.863 621.578 121.968C621.683 122.066 621.812 122.147 621.966 122.21C622.127 122.266 622.313 122.294 622.523 122.294C622.733 122.294 622.915 122.266 623.069 122.21C623.23 122.147 623.359 122.066 623.457 121.968C623.562 121.863 623.639 121.748 623.688 121.622C623.737 121.496 623.762 121.37 623.762 121.244V121.013C623.762 120.887 623.737 120.761 623.688 120.635C623.639 120.509 623.562 120.397 623.457 120.299C623.359 120.194 623.23 120.113 623.069 120.057C622.915 119.994 622.733 119.963 622.523 119.963ZM626.618 127.208V126.189H623.027V127.208H626.618ZM583.409 133.75H584.69V134.905H583.409V137.299H582.086V131.524H583.409V133.75ZM580.448 141.583C580 141.583 579.59 141.538 579.219 141.447C578.855 141.356 578.54 141.226 578.274 141.058C578.015 140.89 577.812 140.687 577.665 140.449C577.525 140.218 577.455 139.963 577.455 139.683V139.242C577.455 138.962 577.525 138.706 577.665 138.475C577.812 138.237 578.015 138.034 578.274 137.866C578.54 137.698 578.855 137.569 579.219 137.478C579.59 137.387 580 137.341 580.448 137.341C580.896 137.341 581.302 137.387 581.666 137.478C582.037 137.569 582.352 137.698 582.611 137.866C582.877 138.034 583.08 138.237 583.22 138.475C583.367 138.706 583.44 138.962 583.44 139.242V139.683C583.44 139.963 583.367 140.218 583.22 140.449C583.08 140.687 582.877 140.89 582.611 141.058C582.352 141.226 582.037 141.356 581.666 141.447C581.302 141.538 580.896 141.583 580.448 141.583ZM580.448 138.423C580.182 138.423 579.944 138.451 579.734 138.507C579.524 138.563 579.345 138.636 579.198 138.727C579.058 138.811 578.95 138.906 578.873 139.011C578.796 139.116 578.757 139.221 578.757 139.326V139.599C578.757 139.704 578.796 139.809 578.873 139.914C578.95 140.019 579.058 140.113 579.198 140.197C579.345 140.288 579.524 140.362 579.734 140.418C579.944 140.474 580.182 140.502 580.448 140.502C580.714 140.502 580.952 140.474 581.162 140.418C581.372 140.362 581.547 140.288 581.687 140.197C581.834 140.113 581.946 140.019 582.023 139.914C582.1 139.809 582.138 139.704 582.138 139.599V139.326C582.138 139.221 582.1 139.116 582.023 139.011C581.946 138.906 581.834 138.811 581.687 138.727C581.547 138.636 581.372 138.563 581.162 138.507C580.952 138.451 580.714 138.423 580.448 138.423ZM578.547 135.168C578.512 135.252 578.449 135.346 578.358 135.451C578.267 135.556 578.113 135.703 577.896 135.892C577.651 136.102 577.396 136.316 577.13 136.533C576.871 136.743 576.594 136.96 576.3 137.184L575.513 136.207C575.821 135.983 576.101 135.77 576.353 135.567C576.605 135.364 576.857 135.147 577.109 134.916C577.326 134.72 577.497 134.492 577.623 134.233C577.756 133.974 577.823 133.673 577.823 133.33V131.923H579.167V133.288C579.167 133.463 579.174 133.621 579.188 133.761C579.209 133.894 579.244 134.02 579.293 134.139C579.349 134.258 579.422 134.373 579.513 134.485C579.604 134.59 579.72 134.699 579.86 134.811C580.063 134.979 580.297 135.161 580.563 135.357C580.836 135.553 581.106 135.742 581.372 135.924L580.637 136.848C580.392 136.68 580.157 136.515 579.933 136.354C579.709 136.186 579.499 136.025 579.303 135.871C579.121 135.731 578.957 135.602 578.81 135.483C578.67 135.357 578.586 135.252 578.558 135.168H578.547ZM591.254 133.698H592.062V131.524H593.322V137.404H592.062V134.842H591.254V136.995H590.004V131.65H591.254V133.698ZM590.225 141.583C589.77 141.583 589.35 141.541 588.965 141.457C588.587 141.373 588.258 141.251 587.978 141.09C587.705 140.929 587.488 140.733 587.327 140.502C587.173 140.278 587.096 140.022 587.096 139.735V139.294C587.096 139.007 587.173 138.752 587.327 138.528C587.488 138.297 587.705 138.101 587.978 137.94C588.258 137.779 588.587 137.656 588.965 137.572C589.35 137.488 589.77 137.446 590.225 137.446C590.673 137.446 591.089 137.488 591.474 137.572C591.859 137.656 592.188 137.779 592.461 137.94C592.741 138.101 592.958 138.297 593.112 138.528C593.273 138.752 593.354 139.007 593.354 139.294V139.735C593.354 140.022 593.273 140.278 593.112 140.502C592.958 140.733 592.741 140.929 592.461 141.09C592.188 141.251 591.859 141.373 591.474 141.457C591.089 141.541 590.673 141.583 590.225 141.583ZM590.225 138.517C589.987 138.517 589.756 138.542 589.532 138.591C589.315 138.633 589.122 138.696 588.954 138.78C588.786 138.857 588.65 138.948 588.545 139.053C588.447 139.158 588.398 139.273 588.398 139.399V139.63C588.398 139.756 588.447 139.872 588.545 139.977C588.65 140.082 588.786 140.173 588.954 140.25C589.122 140.334 589.315 140.397 589.532 140.439C589.756 140.488 589.987 140.512 590.225 140.512C590.463 140.512 590.69 140.488 590.907 140.439C591.131 140.397 591.327 140.334 591.495 140.25C591.663 140.173 591.796 140.082 591.894 139.977C591.999 139.872 592.052 139.756 592.052 139.63V139.399C592.052 139.273 591.999 139.158 591.894 139.053C591.796 138.948 591.663 138.857 591.495 138.78C591.327 138.696 591.131 138.633 590.907 138.591C590.69 138.542 590.463 138.517 590.225 138.517ZM589.059 136.963C588.898 136.823 588.72 136.666 588.524 136.491C588.328 136.316 588.16 136.165 588.02 136.039C587.859 135.892 587.733 135.77 587.642 135.672C587.558 135.567 587.498 135.476 587.463 135.399H587.453C587.418 135.49 587.358 135.588 587.274 135.693C587.197 135.791 587.085 135.917 586.938 136.071C586.798 136.211 586.616 136.393 586.392 136.617C586.168 136.834 585.923 137.061 585.657 137.299L584.807 136.428C585.031 136.232 585.251 136.029 585.468 135.819C585.692 135.609 585.909 135.392 586.119 135.168C586.245 135.035 586.35 134.905 586.434 134.779C586.518 134.653 586.585 134.524 586.634 134.391C586.683 134.258 586.714 134.121 586.728 133.981C586.749 133.834 586.76 133.673 586.76 133.498V132.018H588.062V133.435C588.062 133.61 588.069 133.768 588.083 133.908C588.097 134.048 588.125 134.181 588.167 134.307C588.216 134.433 588.279 134.559 588.356 134.685C588.44 134.804 588.545 134.926 588.671 135.052C589.035 135.423 589.423 135.78 589.836 136.123L589.059 136.963ZM602.459 137.572V141.31H596.243V137.572H597.555V138.391H601.146V137.572H602.459ZM597.188 137.184C596.817 137.184 596.488 137.145 596.201 137.068C595.914 136.991 595.672 136.886 595.476 136.753C595.28 136.613 595.13 136.452 595.025 136.27C594.927 136.081 594.878 135.878 594.878 135.661V135.346C594.878 135.129 594.927 134.93 595.025 134.748C595.13 134.559 595.28 134.398 595.476 134.265C595.672 134.125 595.914 134.016 596.201 133.939C596.488 133.862 596.817 133.824 597.188 133.824C597.559 133.824 597.888 133.862 598.175 133.939C598.462 134.016 598.703 134.125 598.899 134.265C599.095 134.398 599.242 134.559 599.34 134.748C599.445 134.93 599.498 135.129 599.498 135.346V135.661C599.498 135.878 599.445 136.081 599.34 136.27C599.242 136.452 599.095 136.613 598.899 136.753C598.703 136.886 598.462 136.991 598.175 137.068C597.888 137.145 597.559 137.184 597.188 137.184ZM601.146 136.575H599.949V135.472H601.146V134.905H599.949V133.803H601.146V131.524H602.459V137.131H601.146V136.575ZM597.839 132.438H600.012V133.53H594.384V132.438H596.516V131.388H597.839V132.438ZM601.146 140.239V139.462H597.555V140.239H601.146ZM597.188 134.842C596.838 134.842 596.572 134.902 596.39 135.021C596.215 135.133 596.127 135.262 596.127 135.409V135.598C596.127 135.745 596.215 135.878 596.39 135.997C596.572 136.109 596.838 136.165 597.188 136.165C597.538 136.165 597.8 136.109 597.975 135.997C598.157 135.878 598.248 135.745 598.248 135.598V135.409C598.248 135.262 598.157 135.133 597.975 135.021C597.8 134.902 597.538 134.842 597.188 134.842ZM605.39 136.092C606.125 136.092 606.808 136.085 607.438 136.071C608.068 136.05 608.705 136.008 609.349 135.945L609.464 137.037C609.163 137.072 608.838 137.1 608.488 137.121C608.145 137.142 607.756 137.159 607.322 137.173C606.895 137.18 606.416 137.187 605.884 137.194C605.359 137.194 604.76 137.194 604.088 137.194V134.055H606.997V133.068H604.088V131.965H608.299V135.115H605.39V136.092ZM610.493 135.546H608.929V134.433H610.493V133.792H608.929V132.679H610.493V131.524H611.806V137.509H610.493V135.546ZM605.338 137.95H611.806V141.415H610.483V139.063H605.338V137.95ZM621.268 141.289H619.934V131.524H621.268V141.289ZM613.477 138.234C614.002 137.919 614.45 137.639 614.821 137.394C615.192 137.149 615.5 136.925 615.745 136.722C615.997 136.512 616.193 136.316 616.333 136.134C616.48 135.945 616.588 135.756 616.658 135.567C616.735 135.378 616.784 135.178 616.805 134.968C616.826 134.758 616.837 134.524 616.837 134.265V133.54H613.655V132.396H618.17V134.328C618.17 134.678 618.153 134.996 618.118 135.283C618.083 135.57 618.013 135.84 617.908 136.092C617.81 136.337 617.666 136.575 617.477 136.806C617.295 137.037 617.057 137.278 616.763 137.53C616.469 137.775 616.109 138.041 615.682 138.328C615.262 138.608 614.761 138.927 614.18 139.284L613.477 138.234ZM623.642 137.499H630.089V141.289H623.642V137.499ZM628.493 135.378C628.57 135.042 628.623 134.706 628.651 134.37C628.686 134.027 628.703 133.729 628.703 133.477V133.026H623.558V131.902H630.026V133.404C630.026 133.523 630.019 133.663 630.005 133.824C629.998 133.985 629.984 134.156 629.963 134.338C629.949 134.513 629.928 134.692 629.9 134.874C629.872 135.049 629.844 135.217 629.816 135.378H631.339V136.501H622.393V135.378H628.493ZM624.955 140.208H628.777V138.58H624.955V140.208Z" fill="#262262"/>
<circle cx="380" cy="225" r="47" fill="#408CFF"/>
<path d="M367.869 227.324H363.002V228.227H366.488V231.125H359.461V231.973H366.83V233.107H357.971V230.086H364.998V229.32H357.957V228.227H361.498V227.324H356.658V226.203H367.869V227.324ZM363.002 221.869H366.789V223.004H363.159C363.26 223.3 363.485 223.567 363.836 223.804C364.191 224.036 364.665 224.228 365.258 224.378C365.855 224.524 366.557 224.617 367.363 224.658L366.912 225.793C365.796 225.725 364.836 225.542 364.034 225.246C363.232 224.95 362.637 224.553 362.25 224.057C361.863 224.553 361.268 224.95 360.466 225.246C359.664 225.542 358.7 225.725 357.574 225.793L357.15 224.658C357.948 224.617 358.641 224.524 359.229 224.378C359.821 224.228 360.295 224.036 360.65 223.804C361.006 223.567 361.236 223.3 361.341 223.004H357.738V221.869H361.498V220.83H363.002V221.869ZM378.8 229.936H377.283V226.873H374.336C374.04 227.21 373.678 227.472 373.249 227.659C372.826 227.846 372.37 227.939 371.882 227.939C371.272 227.939 370.716 227.803 370.214 227.529C369.717 227.256 369.326 226.88 369.038 226.401C368.756 225.918 368.615 225.378 368.615 224.781C368.615 224.175 368.756 223.631 369.038 223.147C369.326 222.664 369.717 222.288 370.214 222.02C370.711 221.746 371.267 221.609 371.882 221.609C372.37 221.609 372.823 221.703 373.243 221.89C373.666 222.072 374.029 222.329 374.329 222.662H377.283V220.871H378.8V229.936ZM379.115 232.971H370.693V229.006H372.21V231.74H379.115V232.971ZM371.882 222.963C371.527 222.963 371.212 223.038 370.939 223.188C370.665 223.339 370.451 223.551 370.296 223.824C370.141 224.098 370.064 224.417 370.064 224.781C370.064 225.141 370.141 225.458 370.296 225.731C370.451 226.005 370.665 226.217 370.939 226.367C371.212 226.513 371.527 226.586 371.882 226.586C372.219 226.586 372.522 226.511 372.791 226.36C373.06 226.21 373.272 225.998 373.427 225.725C373.587 225.451 373.669 225.137 373.673 224.781C373.669 224.421 373.587 224.104 373.427 223.831C373.272 223.553 373.06 223.339 372.791 223.188C372.522 223.038 372.219 222.963 371.882 222.963ZM374.999 223.893C375.081 224.198 375.122 224.494 375.122 224.781C375.122 225.073 375.084 225.36 375.006 225.643H377.283V223.893H374.999ZM390.592 233.217H389.061V220.857H390.592V233.217ZM386.901 222.17C386.901 224.134 386.457 225.859 385.568 227.345C384.679 228.826 383.205 230.054 381.145 231.029L380.352 229.812C381.943 229.056 383.139 228.151 383.941 227.099C384.748 226.041 385.219 224.799 385.356 223.373H380.981V222.17H386.901ZM395.521 221.404C396.05 221.4 396.535 221.493 396.977 221.685C397.42 221.871 397.789 222.138 398.085 222.484C398.386 222.826 398.586 223.223 398.686 223.674H400.922V220.857H402.439V227.488H400.922V224.904H398.7C398.6 225.365 398.399 225.77 398.099 226.121C397.802 226.472 397.431 226.745 396.984 226.941C396.538 227.133 396.05 227.229 395.521 227.229C394.897 227.229 394.337 227.103 393.84 226.853C393.343 226.602 392.953 226.256 392.671 225.813C392.393 225.367 392.254 224.863 392.254 224.303C392.254 223.747 392.393 223.248 392.671 222.806C392.953 222.364 393.343 222.02 393.84 221.773C394.337 221.523 394.897 221.4 395.521 221.404ZM395.521 222.676C395.166 222.676 394.851 222.742 394.578 222.874C394.305 223.006 394.09 223.195 393.935 223.441C393.781 223.688 393.703 223.975 393.703 224.303C393.703 224.626 393.781 224.913 393.935 225.164C394.09 225.41 394.305 225.602 394.578 225.738C394.856 225.875 395.17 225.943 395.521 225.943C395.863 225.943 396.169 225.875 396.437 225.738C396.711 225.602 396.923 225.41 397.073 225.164C397.228 224.913 397.308 224.626 397.312 224.303C397.308 223.975 397.228 223.688 397.073 223.441C396.923 223.195 396.713 223.006 396.444 222.874C396.175 222.742 395.868 222.676 395.521 222.676ZM395.795 229.375H400.922V228.062H402.439V233.066H394.291V228.062H395.795V229.375ZM400.922 231.836V230.551H395.795V231.836H400.922Z" fill="white"/>
<path d="M159.5 59.5V47.5H292.5" stroke="#CCCCCC" stroke-dasharray="1 1"/>
<path d="M602 60V47.5H469" stroke="#CCCCCC" stroke-dasharray="1 1"/>
<path d="M215 133.5H325" stroke="#CCCCCC" stroke-dasharray="1 1"/>
<path d="M298 230L324 230" stroke="#CCCCCC" stroke-dasharray="1 1"/>
<path d="M437 230L460 230" stroke="#CCCCCC" stroke-dasharray="1 1"/>
<path d="M215 104.5H325" stroke="#CCCCCC" stroke-dasharray="1 1"/>
<path d="M434 133.5H542" stroke="#CCCCCC" stroke-dasharray="1 1"/>
<path d="M434 104.5H542" stroke="#CCCCCC" stroke-dasharray="1 1"/>
<path d="M157 174.5V229.5H189.5" stroke="#CCCCCC" stroke-dasharray="1 1"/>
<path d="M605.5 171V229.5H560" stroke="#CCCCCC" stroke-dasharray="1 1"/>
<path d="M156.836 170.237C156.915 170.122 157.085 170.122 157.164 170.237L160.247 174.686C160.339 174.819 160.244 175 160.082 175H153.918C153.756 175 153.661 174.819 153.753 174.686L156.836 170.237Z" fill="#C4C4C4"/>
<path d="M159.664 63.7627C159.585 63.8775 159.415 63.8775 159.336 63.7627L156.253 59.3139C156.161 59.1813 156.256 59 156.418 59L162.582 59C162.744 59 162.839 59.1813 162.747 59.3139L159.664 63.7627Z" fill="#C4C4C4"/>
<path d="M545.763 104.336C545.878 104.415 545.878 104.585 545.763 104.664L541.314 107.747C541.181 107.839 541 107.744 541 107.582L541 101.418C541 101.256 541.181 101.161 541.314 101.253L545.763 104.336Z" fill="#C4C4C4"/>
<path d="M545.763 133.336C545.878 133.415 545.878 133.585 545.763 133.664L541.314 136.747C541.181 136.839 541 136.744 541 136.582L541 130.418C541 130.256 541.181 130.161 541.314 130.253L545.763 133.336Z" fill="#C4C4C4"/>
<path d="M433.237 230.164C433.122 230.085 433.122 229.915 433.237 229.836L437.686 226.753C437.819 226.661 438 226.756 438 226.918L438 233.082C438 233.244 437.819 233.339 437.686 233.247L433.237 230.164Z" fill="#C4C4C4"/>
<defs>
<filter id="filter0_d_7064_7742" x="553" y="68" width="106" height="106" filterUnits="userSpaceOnUse" color-interpolation-filters="sRGB">
<feFlood flood-opacity="0" result="BackgroundImageFix"/>
<feColorMatrix in="SourceAlpha" type="matrix" values="0 0 0 0 0 0 0 0 0 0 0 0 0 0 0 0 0 0 127 0" result="hardAlpha"/>
<feOffset dx="4" dy="4"/>
<feGaussianBlur stdDeviation="2.5"/>
<feComposite in2="hardAlpha" operator="out"/>
<feColorMatrix type="matrix" values="0 0 0 0 0 0 0 0 0 0 0 0 0 0 0 0 0 0 0.08 0"/>
<feBlend mode="normal" in2="BackgroundImageFix" result="effect1_dropShadow_7064_7742"/>
<feBlend mode="normal" in="SourceGraphic" in2="effect1_dropShadow_7064_7742" result="shape"/>
</filter>
<linearGradient id="paint0_linear_7064_7742" x1="611.175" y1="97.2922" x2="611.223" y2="97.2922" gradientUnits="userSpaceOnUse">
<stop stop-color="#44C8F5"/>
<stop offset="1" stop-color="#0089CF"/>
</linearGradient>
<linearGradient id="paint1_linear_7064_7742" x1="611.301" y1="97.6023" x2="611.325" y2="97.6023" gradientUnits="userSpaceOnUse">
<stop stop-color="#44C8F5"/>
<stop offset="1" stop-color="#0089CF"/>
</linearGradient>
<linearGradient id="paint2_linear_7064_7742" x1="605.285" y1="101.923" x2="584.299" y2="101.923" gradientUnits="userSpaceOnUse">
<stop stop-color="#44C8F5"/>
<stop offset="1" stop-color="#0089CF"/>
</linearGradient>
<linearGradient id="paint3_linear_7064_7742" x1="611.413" y1="98.3886" x2="611.532" y2="98.3886" gradientUnits="userSpaceOnUse">
<stop stop-color="#A6CE39"/>
<stop offset="1" stop-color="#0DB14B"/>
</linearGradient>
<linearGradient id="paint4_linear_7064_7742" x1="620.931" y1="104.685" x2="606.718" y2="104.685" gradientUnits="userSpaceOnUse">
<stop stop-color="#A6CE39"/>
<stop offset="1" stop-color="#0DB14B"/>
</linearGradient>
<linearGradient id="paint5_linear_7064_7742" x1="611.143" y1="97.2037" x2="611.174" y2="97.2037" gradientUnits="userSpaceOnUse">
<stop stop-color="#A6CE39"/>
<stop offset="1" stop-color="#0DB14B"/>
</linearGradient>
<linearGradient id="paint6_linear_7064_7742" x1="611.223" y1="97.4568" x2="611.302" y2="97.4568" gradientUnits="userSpaceOnUse">
<stop stop-color="#A6CE39"/>
<stop offset="1" stop-color="#0DB14B"/>
</linearGradient>
</defs>
</svg>
