<svg width="363" height="170" viewBox="0 0 363 170" fill="none" xmlns="http://www.w3.org/2000/svg">
<g clip-path="url(#clip0_7756_13761)">
<path d="M208.36 151.14C204.62 149.9 200.51 151.41 198.75 154.86C196.8 158.69 198.48 163.45 202.51 165.5C206.54 167.55 211.38 166.11 213.33 162.29C214.18 160.61 214.34 158.76 213.91 157.03" fill="white"/>
<path d="M208.36 151.14C204.62 149.9 200.51 151.41 198.75 154.86C196.8 158.69 198.48 163.45 202.51 165.5C206.54 167.55 211.38 166.11 213.33 162.29C214.18 160.61 214.34 158.76 213.91 157.03" stroke="#1E1E1E" stroke-width="1.5" stroke-linecap="round" stroke-linejoin="round"/>
<path d="M219.5 144.37C218.58 144.13 217.58 144.13 216.55 144.42C214.84 144.9 213.36 145.95 211.87 146.86C210.79 147.51 209.73 148.21 208.73 148.98C208.46 149.19 206.07 150.99 206.22 151.29L209.81 158.67L212.31 159.92C213.27 160.02 213.89 160.18 214.72 159.57C216.81 158.05 219.33 157.27 221.33 155.6C223.12 154.11 224.2 152.09 223.93 149.72C223.63 147.09 221.84 144.97 219.5 144.37Z" fill="white" stroke="#1E1E1E" stroke-width="1.5" stroke-linecap="round" stroke-linejoin="round"/>
<path d="M208.22 151.3C204.48 150.06 200.37 151.57 198.61 155.02C196.66 158.85 198.34 163.61 202.37 165.66C206.4 167.71 211.24 166.27 213.19 162.45C214.04 160.77 214.2 158.92 213.77 157.19" fill="white"/>
<path d="M208.22 151.3C204.48 150.06 200.37 151.57 198.61 155.02C196.66 158.85 198.34 163.61 202.37 165.66C206.4 167.71 211.24 166.27 213.19 162.45C214.04 160.77 214.2 158.92 213.77 157.19" stroke="#1E1E1E" stroke-width="1.5" stroke-linecap="round" stroke-linejoin="round"/>
<path d="M255.13 171.28C256.26 166.26 256.11 161.1 255.6 156.01C254.74 147.49 253.17 139.4 249.39 131.65H213.52C213.52 131.65 211.59 140.49 211.69 150.06L211.6 149.95C211.6 149.95 210.99 161.51 213.18 171.25C213.18 171.25 234.77 173.17 255.14 171.27L255.13 171.28Z" fill="white"/>
<path d="M211.6 149.96C211.6 149.96 210.99 161.57 213.2 171.32" stroke="#1E1E1E" stroke-width="1.5" stroke-linecap="round" stroke-linejoin="round"/>
<path d="M254.34 145.28C254.34 145.28 257.33 161.57 255.12 171.33" stroke="#1E1E1E" stroke-width="1.5" stroke-linecap="round" stroke-linejoin="round"/>
<path d="M221.83 129.4L217.97 141.3C217.03 144.2 217.15 147.33 218.41 150.13C220.39 154.54 224.77 160.07 234.24 159.99C236.44 159.97 238.65 159.62 240.71 158.92C242.35 158.36 243.89 157.57 245.24 156.53C246.42 155.62 247.44 154.54 248.28 153.35C249.04 152.26 249.65 151.09 250.12 149.87C250.36 149.24 250.57 148.6 250.75 147.96C251.54 145.02 251.15 141.91 249.76 139.17L243.65 127.29C243.65 127.29 235.35 132.01 221.83 129.41V129.4Z" fill="#EE9CA5" stroke="#B34E58" stroke-width="1.5" stroke-linecap="round" stroke-linejoin="round"/>
<path d="M233.22 125.34L234.37 139.49" stroke="#B34E58" stroke-width="1.5" stroke-linecap="round" stroke-linejoin="round"/>
<path d="M237.65 74.44L240.92 61.68C241.72 58.57 241.45 55.27 240.05 52.38C237.85 47.83 233.21 42.21 223.75 42.79C221.56 42.92 219.36 43.41 217.34 44.26C215.73 44.93 214.23 45.85 212.93 47.02C211.8 48.04 210.83 49.23 210.05 50.54C209.34 51.73 208.79 53 208.38 54.31C208.17 54.98 207.99 55.67 207.85 56.36C207.2 59.5 207.74 62.77 209.27 65.59L215.95 77.81C215.95 77.81 224.01 72.4 237.64 74.44H237.65Z" fill="#EE9CA5" stroke="#B34E58" stroke-width="1.5" stroke-linecap="round" stroke-linejoin="round"/>
<path d="M225.24 63.6201L226.65 75.0001" stroke="#B34E58" stroke-width="1.5" stroke-linecap="round" stroke-linejoin="round"/>
<path d="M201.59 94.5401L188.98 91.3101C185.91 90.5201 182.65 90.7901 179.8 92.1701C175.3 94.3401 169.76 98.9201 170.32 108.27C170.45 110.43 170.93 112.6 171.77 114.61C172.43 116.2 173.34 117.68 174.49 118.96C175.5 120.08 176.67 121.03 177.97 121.8C179.14 122.5 180.4 123.04 181.7 123.45C182.37 123.66 183.04 123.83 183.73 123.97C186.83 124.61 190.06 124.08 192.84 122.57L204.91 115.97C204.91 115.97 199.57 108.01 201.58 94.5501L201.59 94.5401Z" fill="#EE9CA5" stroke="#B34E58" stroke-width="1.5" stroke-linecap="round" stroke-linejoin="round"/>
<path d="M203.99 105.16L191.6 106.69" stroke="#B34E58" stroke-width="1.5" stroke-linecap="round" stroke-linejoin="round"/>
<path d="M257.6 110.32L270.36 113.59C273.47 114.39 276.77 114.12 279.65 112.72C284.2 110.53 289.81 105.89 289.24 96.4298C289.11 94.2398 288.62 92.0498 287.77 90.0198C287.1 88.4098 286.18 86.9098 285.01 85.6098C283.99 84.4798 282.8 83.5098 281.49 82.7298C280.31 82.0198 279.03 81.4698 277.72 81.0598C277.05 80.8498 276.36 80.6698 275.67 80.5298C272.53 79.8798 269.26 80.4198 266.45 81.9498L254.23 88.6298C254.23 88.6298 259.64 96.6898 257.6 110.31V110.32Z" fill="#EE9CA5" stroke="#B34E58" stroke-width="1.5" stroke-linecap="round" stroke-linejoin="round"/>
<path d="M268.31 97.1997L256.14 98.7097" stroke="#B34E58" stroke-width="1.5" stroke-linecap="round" stroke-linejoin="round"/>
<path d="M243.93 127.75L250.59 139.01C252.21 141.75 254.72 143.88 257.73 144.93C262.47 146.59 269.67 147.27 275.91 140.22C277.36 138.59 278.55 136.7 279.38 134.68C280.04 133.08 280.45 131.38 280.54 129.65C280.62 128.14 280.46 126.62 280.09 125.16C279.75 123.83 279.25 122.55 278.61 121.34C278.29 120.72 277.93 120.11 277.54 119.53C275.79 116.87 273.11 114.95 270.06 114.05L256.78 110.16C256.78 110.16 254.92 119.62 243.91 127.76L243.93 127.75Z" fill="#EE9CA5" stroke="#B34E58" stroke-width="1.5" stroke-linecap="round" stroke-linejoin="round"/>
<path d="M251.56 118.78L260.48 125.73" stroke="#B34E58" stroke-width="1.5" stroke-linecap="round" stroke-linejoin="round"/>
<path d="M204.28 116.73L193.1 123.35C190.38 124.96 188.26 127.45 187.22 130.44C185.58 135.15 184.9 142.3 191.89 148.49C193.51 149.93 195.38 151.11 197.39 151.94C198.98 152.59 200.67 153 202.39 153.09C203.89 153.17 205.4 153.01 206.85 152.64C208.17 152.31 209.44 151.8 210.65 151.17C211.27 150.85 211.87 150.49 212.45 150.11C215.09 148.37 216.99 145.72 217.89 142.68L221.76 129.5C221.76 129.5 212.37 127.65 204.28 116.72V116.73Z" fill="#EE9CA5" stroke="#B34E58" stroke-width="1.5" stroke-linecap="round" stroke-linejoin="round"/>
<path d="M214.35 121.99L206.18 132.46" stroke="#B34E58" stroke-width="1.5" stroke-linecap="round" stroke-linejoin="round"/>
<path d="M255.08 87.97L266.26 81.35C268.98 79.74 271.1 77.25 272.14 74.26C273.78 69.55 274.46 62.4 267.47 56.21C265.85 54.77 263.98 53.59 261.97 52.76C260.38 52.11 258.69 51.7 256.97 51.61C255.47 51.53 253.96 51.69 252.51 52.06C251.19 52.39 249.92 52.9 248.71 53.53C248.09 53.85 247.49 54.21 246.91 54.59C244.27 56.33 242.37 58.98 241.47 62.02L237.6 75.2C237.6 75.2 246.99 77.05 255.08 87.98V87.97Z" fill="#EE9CA5" stroke="#B34E58" stroke-width="1.5" stroke-linecap="round" stroke-linejoin="round"/>
<path d="M253.78 71.4399L246.69 80.5199" stroke="#B34E58" stroke-width="1.5" stroke-linecap="round" stroke-linejoin="round"/>
<path d="M215.43 76.9599L208.77 65.6999C207.15 62.9599 204.64 60.8299 201.63 59.7799C196.89 58.1199 189.69 57.4399 183.45 64.4899C182 66.1199 180.81 68.0099 179.98 70.0299C179.32 71.6299 178.91 73.3299 178.82 75.0599C178.74 76.5699 178.9 78.0899 179.27 79.5499C179.61 80.8799 180.11 82.1599 180.75 83.3699C181.07 83.9899 181.43 84.5999 181.82 85.1799C183.57 87.8399 186.25 89.7599 189.3 90.6599L202.58 94.5499C202.58 94.5499 204.44 85.0899 215.45 76.9499L215.43 76.9599Z" fill="#EE9CA5" stroke="#B34E58" stroke-width="1.5" stroke-linecap="round" stroke-linejoin="round"/>
<path d="M199.49 78.1597L208.24 84.9897" stroke="#B34E58" stroke-width="1.5" stroke-linecap="round" stroke-linejoin="round"/>
<path d="M189.83 74.2401C191.934 74.2401 193.64 72.5343 193.64 70.4301C193.64 68.3259 191.934 66.6201 189.83 66.6201C187.725 66.6201 186.02 68.3259 186.02 70.4301C186.02 72.5343 187.725 74.2401 189.83 74.2401Z" fill="#F8D5D8"/>
<path d="M232.86 134.39C227.41 134.89 221.83 134.15 216.33 132.16C207.26 128.87 200.96 122.19 198.5 112.82C195.99 103.23 197.45 92.2998 203.03 84.0298C206.11 79.4598 210.53 76.0598 215.46 73.6298C221.45 70.6798 228.47 69.5798 235.07 70.5598C241.21 71.4698 247.15 73.8498 251.78 78.0098C259.21 84.6798 263.28 94.9198 263.18 104.83C263.08 114.52 258.59 122.53 250.6 127.93C245.07 131.66 239.05 133.83 232.86 134.4V134.39Z" fill="white" stroke="#1E1E1E" stroke-width="1.5" stroke-linecap="round" stroke-linejoin="round"/>
<path d="M240.122 106.576C241.838 106.364 243.017 104.477 242.755 102.361C242.494 100.245 240.891 98.7019 239.176 98.9137C237.46 99.1256 236.281 101.013 236.543 103.128C236.804 105.244 238.406 106.787 240.122 106.576Z" fill="#1E1E1E"/>
<path d="M240.15 102.45C240.735 102.45 241.21 101.975 241.21 101.39C241.21 100.805 240.735 100.33 240.15 100.33C239.564 100.33 239.09 100.805 239.09 101.39C239.09 101.975 239.564 102.45 240.15 102.45Z" fill="white"/>
<path d="M221.29 108.896C223.005 108.684 224.184 106.797 223.923 104.681C223.662 102.566 222.059 101.022 220.343 101.234C218.628 101.446 217.449 103.333 217.71 105.449C217.971 107.564 219.574 109.108 221.29 108.896Z" fill="#1E1E1E"/>
<path d="M221.32 104.78C221.905 104.78 222.38 104.306 222.38 103.72C222.38 103.135 221.905 102.66 221.32 102.66C220.734 102.66 220.26 103.135 220.26 103.72C220.26 104.306 220.734 104.78 221.32 104.78Z" fill="white"/>
<path d="M226.05 109.12C226.05 109.12 230.43 110.58 234.74 107.81C234.79 107.77 235.67 110.34 235.71 110.51C236.58 114.37 233.72 117.69 229.69 116.71C227.21 116.1 226.32 113.46 226.1 111.19C226.03 110.51 226 109.81 226.06 109.13L226.05 109.12Z" fill="#FDE5EA"/>
<path d="M226.05 109.12C226.05 109.12 230.23 109.91 234.74 107.81C234.71 107.83 235.45 109.67 235.51 109.84C235.82 110.8 235.94 111.83 235.77 112.82C235.28 115.76 232.52 117.4 229.68 116.71C227.2 116.1 226.31 113.46 226.09 111.19C226.02 110.51 225.99 109.81 226.05 109.13V109.12Z" stroke="#1E1E1E" stroke-width="1.5" stroke-linecap="round" stroke-linejoin="round"/>
<path d="M247.76 112.82C250.295 112.82 252.35 110.765 252.35 108.23C252.35 105.695 250.295 103.64 247.76 103.64C245.225 103.64 243.17 105.695 243.17 108.23C243.17 110.765 245.225 112.82 247.76 112.82Z" fill="#F5CED3"/>
<path d="M214.29 116.96C216.825 116.96 218.88 114.905 218.88 112.37C218.88 109.835 216.825 107.78 214.29 107.78C211.755 107.78 209.7 109.835 209.7 112.37C209.7 114.905 211.755 116.96 214.29 116.96Z" fill="#F5CED3"/>
<path d="M236.11 133.56C235.07 133.03 234.61 131.79 235.06 130.71C236.26 127.88 239.4 122.44 246.6 119.13C254.26 115.6 260.6 118.03 263.19 119.38C264.03 119.82 264.49 120.73 264.36 121.67C264 124.3 262.19 129.72 253.8 133.48C245.49 137.2 239.03 135.03 236.11 133.57V133.56Z" fill="#4FB35B"/>
<path d="M264.17 120.62C264.17 120.62 243.96 128.44 235.22 132.48" stroke="#37773E" stroke-width="1.5" stroke-linecap="round" stroke-linejoin="round"/>
<path d="M260.67 128.55C260.67 128.55 255.29 127.26 252.5 125.3C252.5 125.3 253.03 120.79 256.89 117.56" stroke="#37773E" stroke-width="1.5" stroke-linecap="round" stroke-linejoin="round"/>
<path d="M253.5 133.51C253.5 133.51 246.08 131.15 243.09 128.9C243.09 128.9 243.26 122.73 247.07 119.07" stroke="#37773E" stroke-width="1.5" stroke-linecap="round" stroke-linejoin="round"/>
<path d="M236.11 133.56C235.07 133.03 234.61 131.79 235.06 130.71C236.26 127.88 239.4 122.44 246.6 119.13C254.26 115.6 260.6 118.03 263.19 119.38C264.03 119.82 264.49 120.73 264.36 121.67C264 124.3 262.19 129.72 253.8 133.48C245.49 137.2 239.03 135.03 236.11 133.57V133.56Z" stroke="#1E1E1E" stroke-width="1.5" stroke-linecap="round" stroke-linejoin="round"/>
<path d="M231.09 134.21C231.12 133.04 230.24 132.05 229.08 131.94C226.02 131.66 219.74 131.85 213.41 136.62C206.67 141.7 205.81 148.43 205.78 151.35C205.78 152.3 206.35 153.13 207.24 153.46C209.73 154.38 215.36 155.36 222.64 149.75C229.85 144.19 231 137.47 231.09 134.21Z" fill="#4FB35B"/>
<path d="M206.41 152.8C206.41 152.8 222.87 138.7 230.56 132.91" stroke="#37773E" stroke-width="1.5" stroke-linecap="round" stroke-linejoin="round"/>
<path d="M215.04 153.47C215.04 153.47 216.45 148.12 216.05 144.74C216.05 144.74 211.83 143.07 207.15 144.95" stroke="#37773E" stroke-width="1.5" stroke-linecap="round" stroke-linejoin="round"/>
<path d="M222.81 149.5C222.81 149.5 224.25 141.84 223.67 138.15C223.67 138.15 218.15 135.38 213.13 137.01" stroke="#37773E" stroke-width="1.5" stroke-linecap="round" stroke-linejoin="round"/>
<path d="M231.09 134.21C231.12 133.04 230.24 132.05 229.08 131.94C226.02 131.66 219.74 131.85 213.41 136.62C206.67 141.7 205.81 148.43 205.78 151.35C205.78 152.3 206.35 153.13 207.24 153.46C209.73 154.38 215.36 155.36 222.64 149.75C229.85 144.19 231 137.47 231.09 134.21Z" stroke="#1E1E1E" stroke-width="1.5" stroke-linecap="round" stroke-linejoin="round"/>
<path d="M232.759 139.65C236.327 139.65 239.219 136.758 239.219 133.19C239.219 129.622 236.327 126.73 232.759 126.73C229.191 126.73 226.299 129.622 226.299 133.19C226.299 136.758 229.191 139.65 232.759 139.65Z" fill="#F6CB6D" stroke="#1E1E1E" stroke-width="1.5" stroke-linecap="round" stroke-linejoin="round"/>
<path d="M230.439 134.22C231.494 134.22 232.349 133.365 232.349 132.31C232.349 131.255 231.494 130.4 230.439 130.4C229.384 130.4 228.529 131.255 228.529 132.31C228.529 133.365 229.384 134.22 230.439 134.22Z" fill="white"/>
<path d="M254.6 144.94C254.66 144.94 254.73 144.91 254.81 144.87C255.07 144.73 255.32 144.46 255.54 144.27C256.39 143.55 257.2 142.77 257.97 141.96C260.41 139.39 262.45 136.41 263.81 133.13C264.67 131.06 265.24 128.88 265.47 126.65L264.95 125.34L262.32 122.47L256.74 120.5L253.62 120.25L253.3 123.81C252.17 131.01 248.48 135.52 248.48 135.52C248.48 135.52 250.9 138.63 251.77 143.15C251.87 143.67 252.41 143.67 252.82 143.74C253.18 143.8 253.54 143.95 253.79 144.22C254.04 144.49 254.14 145 254.6 144.93V144.94Z" fill="white"/>
<path d="M254.61 145.01C254.61 145.01 264.31 138.03 265.47 126.65L264.95 125.34L262.32 122.47L256.74 120.5L253.62 120.25L253.3 123.81C252.17 131.01 248.72 135.19 248.72 135.19" stroke="#1E1E1E" stroke-width="1.5" stroke-linecap="round" stroke-linejoin="round"/>
<path d="M254.68 124.79C251.39 121.51 250.87 116.24 253.68 112.35C256.79 108.04 262.8 107.06 267.12 110.17C271.44 113.28 272.41 119.29 269.3 123.61C267.94 125.5 266.02 126.75 263.92 127.3" fill="white"/>
<path d="M254.68 124.79C251.39 121.51 250.87 116.24 253.68 112.35C256.79 108.04 262.8 107.06 267.12 110.17C271.44 113.28 272.41 119.29 269.3 123.61C267.94 125.5 266.02 126.75 263.92 127.3" stroke="#1E1E1E" stroke-width="1.5" stroke-linecap="round" stroke-linejoin="round"/>
<path d="M132.55 152.86C133.37 157.17 134.66 161.58 137.27 165.39C140.84 170.61 150.4 175.74 156.58 169.92C161.28 165.49 160.24 158.39 156.65 154.25C159.7 154.01 162.83 153.56 165.74 151.71C170.59 148.62 172.96 142.7 171.73 137.09C170.78 132.8 167.48 129.87 163.26 128.81C150.84 125.69 138.83 135.37 132.33 143.33L132.21 143.5H132.14L132.02 143.33C125.52 135.37 113.51 125.69 101.09 128.81C96.8705 129.87 93.5705 132.8 92.6205 137.09C91.3805 142.7 93.7505 148.62 98.6105 151.71C101.52 153.56 104.65 154.01 107.7 154.25C104.11 158.39 103.07 165.49 107.77 169.92C113.94 175.74 123.51 170.61 127.08 165.39C129.69 161.58 130.98 157.17 131.8 152.86C131.8 152.86 132.16 152.47 132.55 152.86Z" fill="#B8E1F4" stroke="#1E1E1E" stroke-width="1.5" stroke-linecap="round" stroke-linejoin="round"/>
<path d="M143.31 142.05C144.23 141.81 145.23 141.81 146.26 142.1C147.97 142.58 149.45 143.63 150.94 144.54C152.02 145.19 153.08 145.89 154.08 146.66C154.35 146.87 156.74 148.67 156.59 148.97L153 156.35L150.5 157.6C149.54 157.7 148.92 157.86 148.09 157.25C146 155.73 143.48 154.95 141.48 153.28C139.69 151.79 138.61 149.77 138.88 147.4C139.18 144.77 140.97 142.65 143.31 142.05Z" fill="white" stroke="#1E1E1E" stroke-width="1.5" stroke-linecap="round" stroke-linejoin="round"/>
<path d="M154.59 148.97C158.33 147.73 162.44 149.24 164.2 152.69C166.15 156.52 164.47 161.28 160.44 163.33C156.41 165.38 151.57 163.94 149.62 160.12C148.77 158.44 148.61 156.59 149.04 154.86" fill="white"/>
<path d="M154.59 148.97C158.33 147.73 162.44 149.24 164.2 152.69C166.15 156.52 164.47 161.28 160.44 163.33C156.41 165.38 151.57 163.94 149.62 160.12C148.77 158.44 148.61 156.59 149.04 154.86" stroke="#1E1E1E" stroke-width="1.5" stroke-linecap="round" stroke-linejoin="round"/>
<path d="M150.64 156.7C146.64 158.73 142.16 159.77 137.74 160.39C136.15 160.61 134.54 160.81 132.94 160.86C129.63 160.96 126.33 160.49 123.09 159.85C119.46 159.13 115.65 158.06 112.38 156.16C112.37 156.29 112.35 156.42 112.34 156.55C114.46 159.48 119.76 164.21 131.94 164.21H132.07C144.36 164.21 149.64 159.4 151.72 156.47C151.71 156.36 151.69 156.24 151.68 156.13C151.34 156.33 150.99 156.52 150.63 156.7H150.64Z" fill="#F6CB6D"/>
<path d="M139.2 151.18C142.71 150.4 146.26 149.13 149.46 147.36C148.87 145.81 148.2 144.29 147.47 142.8C146.85 141.55 146.2 140.31 145.47 139.12H118.63C118.23 139.77 117.85 140.45 117.49 141.12C116.38 143.2 115.39 145.35 114.56 147.56C115.25 147.92 115.94 148.26 116.64 148.58C123.69 151.79 131.6 152.86 139.21 151.17L139.2 151.18Z" fill="#F6CB6D"/>
<path d="M112.39 156.16C115.65 158.06 119.46 159.13 123.1 159.85C126.34 160.49 129.64 160.96 132.95 160.86C134.55 160.81 136.16 160.61 137.75 160.39C142.17 159.77 146.65 158.72 150.65 156.7C151 156.52 151.35 156.33 151.7 156.13C151.54 154.55 151.22 152.99 150.81 151.48C150.44 150.09 149.98 148.72 149.46 147.37C146.26 149.14 142.71 150.41 139.2 151.19C131.6 152.88 123.68 151.81 116.63 148.6C115.93 148.28 115.24 147.94 114.55 147.58C114.46 147.81 114.37 148.03 114.29 148.26C113.37 150.81 112.65 153.47 112.39 156.17V156.16Z" fill="#4C4C4C"/>
<path d="M132.08 164.21H131.95C119.77 164.21 114.47 159.48 112.35 156.55C112.32 156.93 112.29 157.32 112.28 157.7C112.18 160.82 112.84 164.01 114.8 166.51C116.27 168.38 118.33 169.66 120.53 170.5C124.38 171.96 128.82 172.36 132.9 172.38C137.24 172.4 141.68 171.69 145.54 169.59C148.65 167.9 150.78 165.06 151.49 161.59C151.83 159.91 151.88 158.18 151.72 156.47C149.64 159.4 144.36 164.21 132.07 164.21H132.08Z" fill="#4C4C4C"/>
<path d="M145.46 139.13C146.19 140.32 146.84 141.56 147.46 142.81C148.83 145.59 150 148.48 150.8 151.48C151.68 154.74 152.17 158.25 151.49 161.59C150.78 165.07 148.65 167.9 145.54 169.59C141.69 171.68 137.25 172.39 132.9 172.38C128.82 172.36 124.37 171.96 120.53 170.5C118.33 169.66 116.27 168.38 114.8 166.51C112.83 164.02 112.18 160.82 112.28 157.7C112.38 154.58 113.2 151.28 114.29 148.25C115.17 145.8 116.25 143.43 117.48 141.14C117.84 140.46 118.22 139.79 118.62 139.14" stroke="#1E1E1E" stroke-width="1.5" stroke-linecap="round" stroke-linejoin="round"/>
<path d="M144.51 142.75C176.67 145.16 170.86 122.94 170.86 122.94C174.2 115.4 174.94 105.9 172.23 98.0699C168.85 88.3099 160.35 80.8699 150.84 77.2699C140.03 73.1799 127.28 73.3099 116.88 78.5099C111.95 80.9799 107.53 84.5699 104.43 89.1599C99.7805 96.0299 98.0505 105.39 99.3305 113.54C99.3305 113.54 87.9905 133.51 119.67 139.49" fill="#F6CB6D"/>
<path d="M144.79 142.82C176.95 145.23 171.14 123.01 171.14 123.01C174.48 115.47 175.22 105.97 172.51 98.1398C169.13 88.3798 160.63 80.9398 151.12 77.3398C140.31 73.2498 127.56 73.3798 117.16 78.5798C112.23 81.0498 107.81 84.6398 104.71 89.2298C100.06 96.0998 98.3305 105.46 99.6105 113.61C99.6105 113.61 88.2705 133.58 119.95 139.56" stroke="#1E1E1E" stroke-width="1.5" stroke-linecap="round" stroke-linejoin="round"/>
<path d="M120.45 77.0601L117.49 68.3101" stroke="#1E1E1E" stroke-width="1.5" stroke-linecap="round" stroke-linejoin="round"/>
<path d="M116.17 68.7901C118.634 68.7901 120.63 66.7933 120.63 64.3301C120.63 61.8669 118.634 59.8701 116.17 59.8701C113.707 59.8701 111.71 61.8669 111.71 64.3301C111.71 66.7933 113.707 68.7901 116.17 68.7901Z" fill="#F6CB6D" stroke="#1E1E1E" stroke-width="1.5" stroke-linecap="round" stroke-linejoin="round"/>
<path d="M160.55 82.3301L165.67 74.6401" stroke="#1E1E1E" stroke-width="1.5" stroke-linecap="round" stroke-linejoin="round"/>
<path d="M167.97 75.6002C170.434 75.6002 172.43 73.6034 172.43 71.1402C172.43 68.677 170.434 66.6802 167.97 66.6802C165.507 66.6802 163.51 68.677 163.51 71.1402C163.51 73.6034 165.507 75.6002 167.97 75.6002Z" fill="#F6CB6D" stroke="#1E1E1E" stroke-width="1.5" stroke-linecap="round" stroke-linejoin="round"/>
<path d="M137.43 84.3704C131.29 84.0004 125.15 85.2704 120.58 88.3804C117.04 90.8004 114.38 94.3604 112.71 98.2904C111.14 101.97 110.49 106.4 110.73 111.36C110.73 111.55 109.5 112.56 109.35 112.74C108.35 113.92 107.56 115.3 107.08 116.78C105.66 121.21 107.28 125.92 110.71 128.92C112.78 130.73 115.14 132.18 117.64 133.31C120.17 134.45 122.83 135.28 125.53 135.88C130.99 137.09 136.88 137.89 142.48 137.89C145.21 137.89 147.95 137.65 150.62 137.04C152.69 136.57 154.72 135.89 156.63 134.95C160.72 132.93 163.5 128.8 163.27 124.16C163.19 122.61 162.78 121.08 162.12 119.68C162.02 119.47 161.08 118.17 161.14 117.99C162.65 113.26 163.16 108.81 162.6 104.85C162 100.63 160.36 96.5004 157.56 93.2504C152.99 87.9504 145.22 84.8504 137.44 84.3804L137.43 84.3704Z" fill="white" stroke="#1E1E1E" stroke-width="1.5" stroke-linecap="round" stroke-linejoin="round"/>
<path d="M122.81 121.091C123.291 117.427 120.818 114.082 117.286 113.618C113.754 113.154 110.501 115.748 110.02 119.411C109.539 123.075 112.012 126.42 115.544 126.884C119.076 127.348 122.329 124.754 122.81 121.091Z" fill="#F5CED3"/>
<path d="M159.725 125.936C160.206 122.273 157.733 118.927 154.201 118.464C150.669 118 147.416 120.594 146.935 124.257C146.454 127.92 148.927 131.266 152.459 131.73C155.991 132.194 159.244 129.6 159.725 125.936Z" fill="#F5CED3"/>
<path d="M145.1 85.6304C144.32 82.5104 141.16 81.0904 138.24 80.9004C136.12 80.7604 133.87 81.1604 132.03 82.2904C130.29 83.3604 128.98 85.3404 128.45 87.3104C127.67 90.1704 128.38 93.5604 130.42 95.7204C132.02 97.4104 134.31 98.4504 136.5 99.0304C138.74 99.6204 142.19 99.9104 143.92 97.9404C144.31 97.5004 144.58 96.9304 144.61 96.3404C144.68 94.9104 143.46 94.4704 142.36 94.0604C141.47 93.7304 140.5 93.4204 139.91 92.6204C138.88 91.2404 139.58 89.3104 140.53 88.0604C141.1 87.3004 141.87 86.7004 142.73 86.3204C143.31 86.0704 144.49 85.3404 145.11 85.6304H145.1Z" fill="#4FB35B" stroke="#1E1E1E" stroke-width="1.5" stroke-linecap="round" stroke-linejoin="round"/>
<path d="M149.054 116.065C149.351 113.804 148.105 111.775 146.27 111.534C144.436 111.294 142.708 112.932 142.411 115.193C142.114 117.455 143.361 119.483 145.195 119.724C147.029 119.965 148.757 118.327 149.054 116.065Z" fill="#1E1E1E"/>
<path d="M146.62 115.51C147.245 115.51 147.75 115.005 147.75 114.38C147.75 113.756 147.245 113.25 146.62 113.25C145.996 113.25 145.49 113.756 145.49 114.38C145.49 115.005 145.996 115.51 146.62 115.51Z" fill="white"/>
<path d="M129.512 113.495C129.809 111.233 128.563 109.205 126.728 108.964C124.894 108.723 123.166 110.361 122.869 112.622C122.572 114.884 123.819 116.913 125.653 117.153C127.488 117.394 129.215 115.756 129.512 113.495Z" fill="#1E1E1E"/>
<path d="M127.07 112.941C127.695 112.941 128.2 112.435 128.2 111.811C128.2 111.187 127.695 110.681 127.07 110.681C126.446 110.681 125.94 111.187 125.94 111.811C125.94 112.435 126.446 112.941 127.07 112.941Z" fill="white"/>
<path d="M138.1 120.59C138.82 123.84 138.99 128.1 135.82 130.17C135.11 130.64 134.24 130.9 133.4 130.8C130.72 130.49 129.68 127.53 129.99 125.2C130.24 123.3 130.83 121.46 131.88 119.83L134.69 119.24L138.1 120.59Z" fill="#FDE5EA"/>
<path d="M141.01 119.68C141.01 119.68 139.06 121.84 135.68 119.38C135.68 119.38 135.21 119.08 134.7 119.25C130.8 120.75 129.47 118.16 129.47 118.16" stroke="#1E1E1E" stroke-width="1.5" stroke-linecap="round" stroke-linejoin="round"/>
<path d="M131.88 119.84C130.84 121.46 130.25 123.3 129.99 125.21C129.68 127.54 130.72 130.49 133.4 130.81C134.25 130.91 135.11 130.65 135.82 130.18C138.98 128.11 138.82 123.85 138.1 120.6" stroke="#1E1E1E" stroke-width="1.5" stroke-linecap="round" stroke-linejoin="round"/>
<path d="M98.3005 127.99C100.22 131.98 102.41 135.94 105.42 139.22C108.08 142.13 112.87 146.25 117.16 144.76C119.27 144.03 120.5 142.11 120.05 139.89C119.37 136.55 116.31 134.09 114.57 131.32C112.98 128.79 111.98 125.77 111.1 122.94" fill="white"/>
<path d="M98.3005 127.99C100.22 131.98 102.41 135.94 105.42 139.22C108.08 142.13 112.87 146.25 117.16 144.76C119.27 144.03 120.5 142.11 120.05 139.89C119.37 136.55 116.31 134.09 114.57 131.32C112.98 128.79 111.98 125.77 111.1 122.94" stroke="#1E1E1E" stroke-width="1.5" stroke-linecap="round" stroke-linejoin="round"/>
<path d="M100.63 128.89C95.8705 128.12 92.2305 123.99 92.2305 119.01C92.2305 113.48 96.7105 109 102.24 109C107.77 109 112.25 113.48 112.25 119.01C112.25 121.43 111.39 123.65 109.96 125.39" fill="white"/>
<path d="M100.63 128.89C95.8705 128.12 92.2305 123.99 92.2305 119.01C92.2305 113.48 96.7105 109 102.24 109C107.77 109 112.25 113.48 112.25 119.01C112.25 121.43 111.39 123.65 109.96 125.39" stroke="#1E1E1E" stroke-width="1.5" stroke-linecap="round" stroke-linejoin="round"/>
<path d="M88.4997 91.9102C88.4997 91.9102 80.9397 99.8302 83.5597 120.92" stroke="#1E1E1E" stroke-width="1.5" stroke-linecap="round" stroke-linejoin="round"/>
<path d="M77.3002 105.26C77.3002 105.26 75.1802 117.63 79.3002 126.03" stroke="#1E1E1E" stroke-width="1.5" stroke-linecap="round" stroke-linejoin="round"/>
<path d="M297.75 129.35C297.75 129.35 303.73 123.58 301.6 108.83" stroke="#1E1E1E" stroke-width="1.5" stroke-linecap="round" stroke-linejoin="round"/>
<path d="M294.66 124.25C294.66 124.25 299.33 115.54 295.8 103.8" stroke="#1E1E1E" stroke-width="1.5" stroke-linecap="round" stroke-linejoin="round"/>
<rect y="160" width="363" height="10" fill="#F6FAFF"/>
<path d="M65 160L295 160" stroke="#1E1E1E" stroke-width="1.4" stroke-linecap="round"/>
<path d="M301.024 157.717C301.024 157.717 306.767 163.8 314.883 160.672C314.883 160.672 315.556 158.896 311.589 157.211C311.589 157.211 317.838 156.622 319.448 150.871C319.448 150.871 318.352 149.858 316.742 150.447C316.742 150.447 319.274 148.588 319.697 145.717C319.697 145.717 316.435 143.958 310.078 146.887C310.078 146.887 310.651 144.854 310.394 142.821C310.394 142.821 297.124 145.02 301.024 157.717Z" fill="#74C15C"/>
<path d="M301.025 157.717C301.025 157.717 311.456 149.004 319.489 145.775" stroke="#539542" stroke-width="1.5" stroke-linecap="round" stroke-linejoin="round"/>
<path d="M308.9 151.825C308.9 151.825 313.207 153.444 319.025 151.021" stroke="#539542" stroke-width="1.5" stroke-linecap="round" stroke-linejoin="round"/>
<path d="M310.029 143.427C310.029 143.427 305.573 147.501 304.983 154.389" stroke="#539542" stroke-width="1.5" stroke-linecap="round" stroke-linejoin="round"/>
<path d="M314.601 160.281C314.601 160.281 306.418 159.277 304.535 155.078" stroke="#539542" stroke-width="1.5" stroke-linecap="round" stroke-linejoin="round"/>
<path d="M301.024 157.717C301.024 157.717 306.767 163.8 314.883 160.672C314.883 160.672 315.556 158.896 311.589 157.211C311.589 157.211 317.838 156.622 319.448 150.871C319.448 150.871 318.352 149.858 316.742 150.447C316.742 150.447 319.274 148.588 319.697 145.717C319.697 145.717 316.435 143.958 310.078 146.887C310.078 146.887 310.651 144.854 310.394 142.821C310.394 142.821 297.124 145.02 301.024 157.717Z" stroke="#356C35" stroke-width="1.5" stroke-linecap="round" stroke-linejoin="round"/>
<path d="M291.531 162.779C299.304 162.779 305.605 156.478 305.605 148.705C305.605 140.931 299.304 134.63 291.531 134.63C283.757 134.63 277.456 140.931 277.456 148.705C277.456 156.478 283.757 162.779 291.531 162.779Z" fill="#D25C70" stroke="#621918" stroke-width="1.5" stroke-linecap="round" stroke-linejoin="round"/>
<path d="M299.887 142.738C299.771 142.323 299.564 141.958 299.257 141.659C299.049 141.418 298.833 141.186 298.626 140.945C298.402 140.705 298.145 140.539 297.838 140.439C297.547 140.29 297.232 140.215 296.9 140.232C296.56 140.215 296.253 140.29 295.962 140.439C295.663 140.539 295.398 140.705 295.174 140.945C295.049 141.111 294.916 141.277 294.792 141.443C294.568 141.825 294.46 142.232 294.46 142.672C294.493 142.887 294.518 143.103 294.551 143.319C294.667 143.734 294.875 144.091 295.182 144.398C295.389 144.638 295.597 144.887 295.796 145.128C296.02 145.369 296.277 145.535 296.585 145.634C296.875 145.792 297.19 145.858 297.531 145.842C297.871 145.858 298.186 145.784 298.477 145.634C298.784 145.535 299.041 145.369 299.265 145.128C299.39 144.962 299.522 144.796 299.647 144.63C299.871 144.248 299.979 143.833 299.979 143.394L299.887 142.738Z" fill="#F69EAE"/>
<path d="M277.705 163.219C285.478 163.219 291.779 156.918 291.779 149.145C291.779 141.371 285.478 135.07 277.705 135.07C269.931 135.07 263.63 141.371 263.63 149.145C263.63 156.918 269.931 163.219 277.705 163.219Z" fill="#D25C70" stroke="#621918" stroke-width="1.5" stroke-linecap="round" stroke-linejoin="round"/>
<path d="M277.704 140.904C277.655 140.505 277.489 140.099 277.19 139.825C276.8 139.468 276.385 139.327 275.862 139.277C274.7 139.169 273.605 139.518 272.559 139.974C271.68 140.364 270.841 140.92 270.169 141.601C268.783 142.995 267.771 145.07 267.962 147.07C268.011 147.568 268.136 147.999 268.493 148.356C268.808 148.671 269.331 148.912 269.779 148.887C270.252 148.862 270.742 148.713 271.065 148.356C271.397 147.991 271.53 147.609 271.588 147.128C271.572 147.236 271.555 147.343 271.547 147.451C271.613 146.953 271.738 146.464 271.912 145.991C272.061 145.675 272.236 145.377 272.435 145.095C272.667 144.821 272.916 144.572 273.19 144.348C273.58 144.065 273.987 143.825 274.418 143.617C275.057 143.377 275.713 143.186 276.36 142.962C277.256 142.655 277.837 141.858 277.713 140.895L277.704 140.904Z" fill="#F69EAE"/>
<path d="M96.5909 145.694C96.658 155.805 88.9967 163.56 78.9119 162.867C66.7713 162.338 61.5845 155.273 62.2721 144.999C62.7475 143.924 63.1719 142.825 63.766 141.809C72.2091 140.578 80.8312 139.35 89.2174 140.912C92.686 141.559 94.2896 143.272 96.5919 145.685L96.5909 145.694Z" fill="#93786A" stroke="#1E1E1E" stroke-width="1.5" stroke-linecap="round" stroke-linejoin="round"/>
<path d="M86.6638 161.332C86.6638 161.332 78.6349 158.86 70.1231 160.603" stroke="#1E1E1E" stroke-width="1.5" stroke-linecap="round" stroke-linejoin="round"/>
<path d="M74.1771 153.62C73.4753 153.637 72.7537 153.669 72.0223 153.71" stroke="#1E1E1E" stroke-width="1.5" stroke-linecap="round" stroke-linejoin="round"/>
<path d="M93.3939 156.097C93.3939 156.097 86.4365 153.67 76.2429 153.601" stroke="#1E1E1E" stroke-width="1.5" stroke-linecap="round" stroke-linejoin="round"/>
<path d="M95.999 149.689C95.999 149.689 85.8278 146.277 73.8446 147.014" stroke="#1E1E1E" stroke-width="1.5" stroke-linecap="round" stroke-linejoin="round"/>
<path d="M97.2627 146.184C97.0657 146.565 96.577 146.678 96.2279 146.44C95.2777 145.818 93.2762 144.516 93.0799 144.43C91.6189 143.802 90.0572 143.423 88.4764 143.283C86.7717 143.129 84.8391 143.083 83.3593 144.077C82.5799 144.605 81.9725 145.35 81.3035 146.008C80.2892 147.011 78.97 147.629 77.5394 147.74C74.6782 147.962 70.5311 145.441 69.7707 149.65C69.7707 149.65 68.8625 152.819 69.7242 156.814C70.1916 158.959 69.5429 162.365 67.0663 162.982C64.9504 163.506 62.9839 161.752 62.818 159.713C62.6678 157.695 63.6062 155.651 64.3907 153.85C64.3938 153.823 64.4135 153.807 64.4255 153.782C64.661 153.379 67.1336 149.029 64.5171 147.539C63.0534 146.704 61.071 145.854 60.9932 143.907C60.9686 143.195 61.1596 142.481 61.3906 141.809C62.1768 139.532 63.4742 137.871 65.9004 137.301C68.427 136.717 71.028 136.572 73.5917 136.207C76.1555 135.843 78.5811 135.202 81.1598 135.17C84.4028 135.136 87.6474 135.703 90.6941 136.813C93.1289 137.707 96.7997 139.158 97.6633 141.906C98.0482 143.144 97.8796 144.973 97.2648 146.166L97.2627 146.184Z" fill="#F8DA5D"/>
<path d="M97.2627 146.184C97.0657 146.565 96.577 146.678 96.2279 146.44C95.2777 145.818 93.2762 144.516 93.0799 144.43C91.6189 143.802 90.0572 143.423 88.4764 143.283C86.7717 143.129 84.8391 143.083 83.3593 144.077C82.5799 144.605 81.9725 145.35 81.3035 146.008C80.2892 147.011 78.97 147.629 77.5394 147.74C74.6782 147.962 70.5311 145.441 69.7707 149.65C69.7707 149.65 68.8625 152.819 69.7242 156.814C70.1916 158.959 69.5429 162.365 67.0663 162.982C64.9504 163.506 62.9839 161.752 62.818 159.713C62.6678 157.695 63.6062 155.651 64.3907 153.85C64.3938 153.823 64.4135 153.807 64.4255 153.782C64.661 153.379 67.1336 149.029 64.5171 147.539C63.0533 146.704 61.071 145.854 60.9932 143.907C60.9686 143.195 61.1596 142.481 61.3906 141.809C62.1768 139.532 63.4742 137.871 65.9004 137.301C68.427 136.717 71.028 136.572 73.5917 136.207C76.1555 135.843 78.5811 135.202 81.1598 135.17C84.4028 135.136 87.6474 135.703 90.6941 136.813C93.1289 137.707 96.7997 139.158 97.6633 141.906C98.0482 143.144 97.8796 144.973 97.2648 146.166L97.2627 146.184Z" stroke="#E6A438" stroke-width="1.5" stroke-linecap="round" stroke-linejoin="round"/>
<path d="M79.5253 138.336C80.6514 137.22 82.9173 137.332 84.3569 137.374C86.0642 137.43 87.7243 137.812 89.3013 138.445C90.0211 138.735 89.5811 139.814 88.8473 139.567C87.4063 139.076 85.8457 138.84 84.2989 138.794C83.5205 138.775 82.738 138.791 81.9514 138.843C81.2554 138.887 80.383 139.136 79.694 138.965C79.3884 138.894 79.2917 138.569 79.5154 138.343L79.5253 138.336Z" fill="white"/>
<path d="M74.9796 139.384C75.5067 139.095 76.4603 138.92 76.6862 138.829C76.9407 138.724 77.2777 138.835 77.3815 139.099C77.4921 139.381 77.3706 139.654 77.1119 139.794C76.8731 139.919 76.6274 140.025 76.3662 140.111C75.9836 140.237 75.5963 140.326 75.1923 140.252C75.0595 140.236 74.9308 140.186 74.8329 140.102C74.4635 139.808 74.6262 139.567 74.9806 139.375L74.9796 139.384Z" fill="white"/>
<path d="M64.3545 141.706C64.5586 141.111 64.9267 140.57 65.4563 140.184C66.2113 139.635 67.5706 139.596 67.9537 140.619C68.0983 140.994 67.9799 141.393 67.7459 141.707C67.5546 141.963 67.1345 142.102 67.001 142.401C66.9641 142.486 66.9272 142.572 66.8992 142.658C66.8971 142.676 66.8749 142.79 66.8707 142.825C66.8573 142.94 66.8439 143.055 66.8492 143.164C66.8471 143.181 66.8467 143.262 66.8456 143.271C66.8405 143.315 66.8452 143.352 66.8489 143.397C66.8599 143.533 66.872 143.66 66.8742 143.795C66.8974 144.057 66.9294 144.321 66.864 144.574C66.7654 144.957 66.4783 145.265 66.0832 145.344C65.4862 145.463 65.0001 145.092 64.6977 144.608C64.1434 143.745 64.0295 142.646 64.3467 141.696L64.3545 141.706Z" fill="white"/>
<path d="M64.8911 157.327C64.8911 157.327 64.8952 157.291 64.9061 157.274C64.9072 157.266 64.9082 157.257 64.9191 157.24C64.9529 157.181 64.9877 157.113 65.0215 157.055C65.1088 156.921 65.2462 156.821 65.3883 156.756C65.4356 156.735 65.5283 156.71 65.5835 156.699C65.6298 156.686 65.6563 156.689 65.7094 156.695C65.7449 156.699 65.7912 156.687 65.8266 156.691C65.862 156.695 65.8974 156.699 65.9307 156.721C65.9661 156.725 66.0005 156.738 66.0349 156.751C66.0693 156.764 66.1026 156.786 66.1359 156.808C66.237 156.865 66.288 156.888 66.3741 156.997C66.3741 156.997 66.3741 156.997 66.3819 157.007C66.4199 157.065 66.4502 157.114 66.4783 157.18C66.4977 157.245 66.518 157.301 66.5285 157.365C66.5264 157.383 66.5244 157.401 66.5223 157.418C66.5505 157.484 66.5688 157.558 66.5871 157.632C66.6121 157.725 66.5997 157.831 66.5972 157.929C66.5921 157.974 66.5879 158.009 66.5828 158.053C66.5625 158.15 66.5413 158.255 66.5044 158.34C66.4057 158.571 66.2294 158.775 65.9936 158.873C65.9562 158.886 65.9098 158.899 65.8822 158.905C65.8547 158.91 65.8073 158.932 65.7709 158.937C65.698 158.946 65.6074 158.953 65.5366 158.945C65.4569 158.936 65.3783 158.918 65.3095 158.892C65.3095 158.892 65.2918 158.89 65.283 158.889C65.2486 158.876 65.2241 158.855 65.1908 158.833C65.1564 158.82 65.1319 158.799 65.0986 158.777C65.0652 158.756 65.0418 158.726 65.0183 158.696C64.986 158.666 64.9615 158.645 64.9381 158.615C64.8912 158.556 64.8541 158.489 64.826 158.423C64.792 158.329 64.7591 158.226 64.7538 158.118C64.7448 157.964 64.7369 157.802 64.7732 157.645C64.7944 157.54 64.8157 157.434 64.8546 157.331L64.8911 157.327Z" fill="white"/>
<path d="M65.0099 51.0225C67.5613 50.1533 69.0053 47.4477 68.2482 44.8402C67.4912 42.2327 64.8276 40.7186 62.2061 41.3355C62.7248 38.6999 61.1126 36.0924 58.4631 35.4335C55.8135 34.7746 53.178 36.3448 52.4069 38.9102C50.3882 37.1438 47.3181 37.242 45.4396 39.2046C43.5611 41.1672 43.5751 44.2374 45.4396 46.186C42.8882 47.0551 41.4442 49.7608 42.2012 52.3683C42.9583 54.9758 45.6218 56.4898 48.2434 55.873C47.7247 58.5085 49.3368 61.116 51.9864 61.7749C54.6359 62.4338 57.2715 60.8777 58.0425 58.2983C60.0612 60.0646 63.1314 59.9665 65.0099 58.0039C66.8884 56.0412 66.8744 52.9711 65.0099 51.0225Z" fill="#FEDD64"/>
<path d="M55.2236 53.6724C58.0187 53.6724 60.2844 51.4066 60.2844 48.6116C60.2844 45.8166 58.0187 43.5508 55.2236 43.5508C52.4286 43.5508 50.1628 45.8166 50.1628 48.6116C50.1628 51.4066 52.4286 53.6724 55.2236 53.6724Z" fill="white"/>
<path d="M320.03 45.5411C322.665 44.1241 323.758 40.88 322.441 38.1456C321.123 35.4235 317.917 34.2427 315.157 35.4235C315.244 32.428 312.982 29.8675 309.962 29.6314C306.941 29.4076 304.319 31.6077 303.958 34.5783C301.41 33.0122 298.054 33.6834 296.352 36.1817C294.649 38.68 295.233 42.0484 297.632 43.8507C294.997 45.2676 293.903 48.5117 295.22 51.2462C296.538 53.9682 299.745 55.149 302.504 53.9682C302.417 56.9637 304.679 59.5242 307.7 59.7604C310.72 59.9965 313.343 57.7841 313.703 54.8134C316.251 56.3795 319.607 55.7084 321.31 53.21C323.013 50.7117 322.429 47.3433 320.03 45.5411Z" fill="#FEDD64"/>
<path d="M308.831 50.3392C311.947 50.3392 314.474 47.8127 314.474 44.6962C314.474 41.5797 311.947 39.0532 308.831 39.0532C305.714 39.0532 303.188 41.5797 303.188 44.6962C303.188 47.8127 305.714 50.3392 308.831 50.3392Z" fill="white"/>
<path d="M285.39 19.1197C287.54 18.1788 288.603 15.7227 287.76 13.511C286.917 11.2993 284.485 10.1752 282.261 10.9083C282.53 8.57444 280.93 6.43606 278.596 6.05727C276.262 5.67847 274.075 7.2181 273.586 9.51533C271.704 8.12233 269.04 8.42781 267.549 10.2729C266.059 12.1058 266.291 14.7696 268.038 16.3337C265.888 17.2746 264.825 19.7307 265.668 21.9423C266.511 24.154 268.942 25.2782 271.166 24.5451C270.898 26.8789 272.498 29.0173 274.832 29.3961C277.166 29.7749 279.353 28.2353 279.842 25.9381C281.724 27.3311 284.388 27.0256 285.878 25.1805C287.369 23.3476 287.137 20.6838 285.39 19.1197Z" fill="#FEDD64"/>
<path d="M276.766 21.7979C279.202 21.7979 281.177 19.823 281.177 17.3868C281.177 14.9505 279.202 12.9756 276.766 12.9756C274.33 12.9756 272.355 14.9505 272.355 17.3868C272.355 19.823 274.33 21.7979 276.766 21.7979Z" fill="white"/>
<path d="M208.219 151.3C204.479 150.06 200.369 151.57 198.609 155.02C196.659 158.85 198.339 163.61 202.369 165.66C206.399 167.71 211.239 166.27 213.189 162.45C214.039 160.77 214.199 158.92 213.769 157.19" fill="white"/>
<path d="M208.219 151.3C204.479 150.06 200.369 151.57 198.609 155.02C196.659 158.85 198.339 163.61 202.369 165.66C206.399 167.71 211.239 166.27 213.189 162.45C214.039 160.77 214.199 158.92 213.769 157.19" stroke="#1E1E1E" stroke-width="1.5" stroke-linecap="round" stroke-linejoin="round"/>
<path d="M231.089 134.21C231.119 133.04 230.239 132.05 229.079 131.94C226.019 131.66 219.739 131.85 213.409 136.62C206.669 141.7 205.809 148.43 205.779 151.35C205.779 152.3 206.349 153.13 207.239 153.46C209.729 154.38 215.359 155.36 222.639 149.75C229.849 144.19 230.999 137.47 231.089 134.21Z" fill="#4FB35B"/>
<path d="M206.409 152.8C206.409 152.8 222.869 138.7 230.559 132.91" stroke="#37773E" stroke-width="1.5" stroke-linecap="round" stroke-linejoin="round"/>
<path d="M215.039 153.47C215.039 153.47 216.449 148.12 216.049 144.74C216.049 144.74 211.829 143.07 207.149 144.95" stroke="#37773E" stroke-width="1.5" stroke-linecap="round" stroke-linejoin="round"/>
<path d="M222.809 149.5C222.809 149.5 224.249 141.84 223.669 138.15C223.669 138.15 218.149 135.38 213.129 137.01" stroke="#37773E" stroke-width="1.5" stroke-linecap="round" stroke-linejoin="round"/>
<path d="M231.089 134.21C231.119 133.04 230.239 132.05 229.079 131.94C226.019 131.66 219.739 131.85 213.409 136.62C206.669 141.7 205.809 148.43 205.779 151.35C205.779 152.3 206.349 153.13 207.239 153.46C209.729 154.38 215.359 155.36 222.639 149.75C229.849 144.19 230.999 137.47 231.089 134.21Z" stroke="#1E1E1E" stroke-width="1.5" stroke-linecap="round" stroke-linejoin="round"/>
<path d="M232.759 139.65C236.327 139.65 239.219 136.758 239.219 133.19C239.219 129.622 236.327 126.73 232.759 126.73C229.191 126.73 226.299 129.622 226.299 133.19C226.299 136.758 229.191 139.65 232.759 139.65Z" fill="#F6CB6D" stroke="#1E1E1E" stroke-width="1.5" stroke-linecap="round" stroke-linejoin="round"/>
<path d="M230.439 134.22C231.494 134.22 232.349 133.365 232.349 132.31C232.349 131.255 231.494 130.4 230.439 130.4C229.384 130.4 228.529 131.255 228.529 132.31C228.529 133.365 229.384 134.22 230.439 134.22Z" fill="white"/>
</g>
<defs>
<clipPath id="clip0_7756_13761">
<rect width="363" height="170" fill="white"/>
</clipPath>
</defs>
</svg>
