<svg width="22" height="14" viewBox="0 0 22 14" fill="none" xmlns="http://www.w3.org/2000/svg">
<rect width="22" height="14" rx="7" fill="#1BE166"/>
<path d="M10.2666 6.81836C10.2666 7.48926 10.1406 8.0708 9.88867 8.56299C9.63672 9.05518 9.28955 9.43311 8.84717 9.69678C8.40771 9.95752 7.9082 10.0879 7.34863 10.0879C6.78906 10.0879 6.28809 9.95752 5.8457 9.69678C5.40625 9.43311 5.06055 9.05518 4.80859 8.56299C4.55664 8.06787 4.43066 7.48633 4.43066 6.81836C4.43066 6.14746 4.55664 5.56592 4.80859 5.07373C5.06055 4.58154 5.40625 4.20508 5.8457 3.94434C6.28809 3.68066 6.78906 3.54883 7.34863 3.54883C7.9082 3.54883 8.40771 3.68066 8.84717 3.94434C9.28955 4.20508 9.63672 4.58154 9.88867 5.07373C10.1406 5.56592 10.2666 6.14746 10.2666 6.81836ZM9.11523 6.81836C9.11523 6.34375 9.04053 5.93945 8.89111 5.60547C8.74463 5.26855 8.53809 5.01367 8.27148 4.84082C8.00488 4.66504 7.69727 4.57715 7.34863 4.57715C7 4.57715 6.69238 4.66504 6.42578 4.84082C6.15918 5.01367 5.95117 5.26855 5.80176 5.60547C5.65527 5.93945 5.58203 6.34375 5.58203 6.81836C5.58203 7.29297 5.65527 7.69873 5.80176 8.03564C5.95117 8.36963 6.15918 8.62451 6.42578 8.80029C6.69238 8.97314 7 9.05957 7.34863 9.05957C7.69727 9.05957 8.00488 8.97314 8.27148 8.80029C8.53809 8.62451 8.74463 8.36963 8.89111 8.03564C9.04053 7.69873 9.11523 7.29297 9.11523 6.81836ZM16.3356 10H15.3161L12.3014 5.64941H12.2487V10H11.1061V3.63672H12.1432L15.1403 7.9873H15.2018V3.63672H16.3356V10Z" fill="white"/>
</svg>
