<svg width="15" height="15" viewBox="0 0 15 15" fill="none" xmlns="http://www.w3.org/2000/svg">
<rect x="0.460938" y="0.5" width="14" height="14" rx="7" fill="#3E8BFD"/>
<rect x="6.46094" y="6.69922" width="1.8" height="5" rx="0.9" fill="white"/>
<path d="M7.36074 3.49922C7.55695 3.49922 7.74284 3.54828 7.91839 3.6464C8.08878 3.74452 8.22303 3.8788 8.32114 4.04922C8.41924 4.21964 8.46571 4.40297 8.46055 4.59922C8.46571 4.79546 8.41924 4.9788 8.32114 5.14922C8.22303 5.31964 8.08878 5.45391 7.91839 5.55204C7.74284 5.65016 7.55695 5.69922 7.36074 5.69922C7.1697 5.69922 6.98898 5.65016 6.81859 5.55204C6.64819 5.45391 6.51394 5.31964 6.41584 5.14922C6.31257 4.9788 6.26094 4.79546 6.26094 4.59922C6.26094 4.40297 6.31257 4.21964 6.41584 4.04922C6.51394 3.8788 6.64819 3.74452 6.81859 3.6464C6.98898 3.54828 7.1697 3.49922 7.36074 3.49922Z" fill="white"/>
</svg>
