<svg width="20" height="20" viewBox="0 0 20 20" fill="none" xmlns="http://www.w3.org/2000/svg">
<path fill-rule="evenodd" clip-rule="evenodd" d="M3.74007 12.9997H8.47286L2.75629 16.6833L3.74007 12.9997ZM2.44126 17.3206C2.55016 17.2302 2.63234 17.1226 2.67264 16.9965L2.75629 16.6833L1.80415 17.2968H2.31244C2.35784 17.2968 2.40127 17.3052 2.44126 17.3206ZM2.67112 17.6871H15.1938C16.1212 17.6871 16.9341 17.0982 17.1946 16.2498L19.0287 10.2608C19.4143 8.98318 18.4138 7.70554 17.0279 7.70554H16.6742V6.99994H16.6735V6.71736C16.6735 5.61938 15.7357 4.72104 14.5894 4.72104H9.9416C9.59771 4.72104 9.26424 4.55135 9.07666 4.27187L7.60731 2.17573C7.40931 1.89625 7.08626 1.72656 6.74236 1.72656H2.08419C0.937887 1.72656 0 2.62491 0 3.72288V16.5492C0 17.0776 0.375163 17.5284 0.890632 17.659C0.891843 17.8568 1.05253 18.0167 1.25057 18.0167H2.31244C2.50101 18.0167 2.6557 17.8717 2.67112 17.6871Z" fill="#F5BA21"/>
<path d="M1.04297 17.6964C1.59948 17.6964 2.07961 17.367 2.24329 16.8779L4.78579 9.14221C5.05859 8.29378 5.90972 7.71484 6.88089 7.71484H17.6183C19.0696 7.71484 20.1172 8.99249 19.7134 10.2701L17.7929 16.2591C17.5201 17.1075 16.669 17.6964 15.6978 17.6964H1.04297Z" fill="#FDC73E"/>
</svg>
